<svg xmlns="http://www.w3.org/2000/svg" xmlns:xlink="http://www.w3.org/1999/xlink" viewBox="0 0 1920 1080"><defs><style>.cls-1{isolation:isolate;}.cls-2{fill:#daccbf;}.cls-3{mix-blend-mode:screen;fill:url(#linear-gradient);}.cls-4{fill:url(#linear-gradient-2);}.cls-5{fill:url(#linear-gradient-3);}.cls-6{fill:#434344;}.cls-7{fill:none;}</style><linearGradient id="linear-gradient" x1="210" y1="1290" x2="1710" y2="-210" gradientUnits="userSpaceOnUse"><stop offset="0" stop-color="#fff"/><stop offset="1"/></linearGradient><linearGradient id="linear-gradient-2" x1="659.53" y1="294.66" x2="758.95" y2="294.66" gradientUnits="userSpaceOnUse"><stop offset="0" stop-color="#e3734e"/><stop offset="1" stop-color="#eca384"/></linearGradient><linearGradient id="linear-gradient-3" x1="639.02" y1="365.34" x2="731.85" y2="386.66" gradientUnits="userSpaceOnUse"><stop offset="0" stop-color="#f8cf47"/><stop offset="0.22" stop-color="#f9d45e"/><stop offset="0.49" stop-color="#f9d973"/><stop offset="0.76" stop-color="#fadc81"/><stop offset="1" stop-color="#fadd85"/></linearGradient></defs><g class="cls-1"><g id="Layer_1" data-name="Layer 1"><rect class="cls-2" width="1920" height="1080"/><rect class="cls-3" width="1920" height="1080"/><path class="cls-4" d="M753.4,382.72c-5.33-23.19-11.52-57.36-13-92-1.58-35.95-19.85-57-33.89-73.21-.51-.59-2.08-2.41-3.51-4.09a45.38,45.38,0,0,1-7.05-11,30.76,30.76,0,0,1-2.85-15.95c-17.1,9-27.67,19.93-30.83,31.95-3.13,11.86-5,36.09,2.77,54.24.19.46,5.58,12,4.26,21.43a14.78,14.78,0,0,1-.78,3.06c-2.94,8-9.22,12.77-8,23.48,0,0,2.32-.34,2.56-.36,7.35-.6,14.85,2.3,21.1,8.14,8.36,7.8,34.9,43.42,55.7,71.93a24.16,24.16,0,0,1,1.53,2.39l.67.07C749.25,394.44,753.4,382.72,753.4,382.72Z"/><path class="cls-5" d="M707,418.58c8.32-.67,16.13-2,23.12-6l0,0a3.79,3.79,0,0,0,1.27-5.41l-.3-.43-3-4c-27-36.91-45.65-61-51.39-66.36a18.47,18.47,0,0,0-10-5.18A13.79,13.79,0,0,0,665,331c-.35,0-.71,0-1.06,0-6.25.5-10.64,3.85-13.55,9.36-2.6,4.91-1,14.7-2.58,19.66-1.85,5.93-4.52,7.57-7,10a21.43,21.43,0,0,0-4.05,5.26C618.82,405.93,690.12,419.94,707,418.58Z"/><path class="cls-6" d="M757.71,392.1a54.28,54.28,0,0,1-59.25,33.73A33,33,0,0,0,716,437c.5.14,1,.27,1.51.39a34.68,34.68,0,0,0,40.17-45.27Z"/><path class="cls-7" d="M734,419.43a54.34,54.34,0,0,1-27,7,59,59,0,0,1-8.56-.63A33,33,0,0,0,716,437c.5.14,1,.27,1.51.39a36.08,36.08,0,0,0,8.25,1,34.26,34.26,0,0,0,32.54-25.44,33,33,0,0,0-.62-20.82A55.34,55.34,0,0,1,734,419.43Z"/><path class="cls-6" d="M822,355.48a9.91,9.91,0,0,1,1,.17,29.42,29.42,0,0,0-20.5-.3,30.73,30.73,0,0,0-16.33,14.18,16.94,16.94,0,0,1,4.54,3.62A26.56,26.56,0,0,1,803.61,358a27.63,27.63,0,0,1,17.06-2.57A11.63,11.63,0,0,1,822,355.48Z"/><path class="cls-6" d="M823,355.65c.59.23,1.18.48,1.75.74a30.18,30.18,0,0,0-4.05-1c-2,.05-3.54.74-3.67,1.79-.15,1.26,1.83,2.53,4.43,2.84s4.82-.46,5-1.73C826.53,357.23,825.05,356.13,823,355.65Z"/><path class="cls-6" d="M823,355.65a9.91,9.91,0,0,0-1-.17,11.63,11.63,0,0,0-1.3-.06,30.18,30.18,0,0,1,4.05,1C824.15,356.13,823.56,355.88,823,355.65Z"/><path class="cls-6" d="M777.78,371a13.74,13.74,0,1,0,4.05.62A13.73,13.73,0,0,0,777.78,371Z"/><path class="cls-6" d="M789.65,411.21V491.8h13v2.72H753V491.8h13V411.21Z"/><path class="cls-6" d="M851.4,411.21V425h.38c.78-1.29,1.81-2.82,3.11-4.57a25.5,25.5,0,0,1,5.15-5,31.36,31.36,0,0,1,7.76-4.18,30.82,30.82,0,0,1,11-1.75,37.88,37.88,0,0,1,11.36,1.46,25.75,25.75,0,0,1,7.58,3.69,20.81,20.81,0,0,1,4.85,4.95q1.85,2.73,3.4,5.44a28.66,28.66,0,0,1,6.51-8.25,31.46,31.46,0,0,1,7.28-4.67,27,27,0,0,1,7-2.13,39.41,39.41,0,0,1,5.44-.49q11.05,0,17.08,3.3a22.36,22.36,0,0,1,8.74,7.87,23,23,0,0,1,3.21,9.61q.48,5.06.48,8.54v53h12.82v2.72h-48V491.8H938V431.6q0-8.16-3-12.52t-10-4.37a15.34,15.34,0,0,0-5.24,1.16,22,22,0,0,0-6,3.5,19.59,19.59,0,0,0-5,6.11,18.81,18.81,0,0,0-2,9V491.8h11.45v2.72H871.4V491.8h11.65V430.05q0-8.55-3.69-11.95a11.8,11.8,0,0,0-8.16-3.39q-7.77,0-13.59,6.79a31.21,31.21,0,0,0-2.72,4,18.8,18.8,0,0,0-1.84,4.66,36.57,36.57,0,0,0-1,6q-.29,3.4-.29,8.26V491.8h11.46v2.72h-48V491.8h12.81V413.93H815.28v-2.72Z"/><path class="cls-6" d="M1070.34,496.26a64.53,64.53,0,0,1-9.62.78q-9.9,0-14.66-3.5a15,15,0,0,1-5.92-9.7h-.39q-3.11,7.76-8.54,10.48T1015.48,497a48.29,48.29,0,0,1-9.52-1A33.12,33.12,0,0,1,997,493a17.6,17.6,0,0,1-6.6-5.92,16.19,16.19,0,0,1-2.53-9.22,18.25,18.25,0,0,1,2.24-9.42A21.08,21.08,0,0,1,996,462a32.55,32.55,0,0,1,8.16-4.27q4.56-1.65,9.42-3.21,8-2.33,12.91-4a31.89,31.89,0,0,0,7.67-3.49,10.46,10.46,0,0,0,3.79-4.18,14.56,14.56,0,0,0,1.06-6V425a18.39,18.39,0,0,0-2.52-9.52q-2.52-4.26-9.51-4.27a14.48,14.48,0,0,0-7.77,2q-3.3,2-3.3,7.48a18,18,0,0,0,.19,2c.13,1,.26,2,.39,3.2s.26,2.27.39,3.3a20.25,20.25,0,0,1,.19,2.14,7,7,0,0,1-1.36,4.56,8.26,8.26,0,0,1-3.2,2.43,11.18,11.18,0,0,1-3.88.87c-1.36.07-2.5.1-3.4.1a28.7,28.7,0,0,1-4-.29,8.47,8.47,0,0,1-3.6-1.36,8.63,8.63,0,0,1-2.62-3,11,11,0,0,1-1.07-5.25,15.27,15.27,0,0,1,2.82-9,22.55,22.55,0,0,1,7.48-6.6,39.4,39.4,0,0,1,10.58-4,55.34,55.34,0,0,1,12.33-1.36,78.4,78.4,0,0,1,13.88,1.17,30,30,0,0,1,11.27,4.27,22.31,22.31,0,0,1,7.57,8.45c1.87,3.56,2.82,8.05,2.82,13.49V484a18.27,18.27,0,0,0,1.06,6.5q1.07,2.82,5.34,2.82a8.13,8.13,0,0,0,4.18-1,13.56,13.56,0,0,0,3.2-2.72l1.75,1.75A11,11,0,0,1,1070.34,496.26Zm-31.75-49.9a5.84,5.84,0,0,1-1.46,2.23,15.5,15.5,0,0,1-3.79,2.43c-2.46,1.16-4.92,2.3-7.38,3.4a26.59,26.59,0,0,0-6.6,4.17,20,20,0,0,0-4.76,6.22,21.28,21.28,0,0,0-1.84,9.51c0,1.55.1,3.37.29,5.44a19.87,19.87,0,0,0,1.55,6,13,13,0,0,0,3.79,5,10.82,10.82,0,0,0,7,2,11.3,11.3,0,0,0,4.95-1.17,12.45,12.45,0,0,0,4.37-3.59,18.43,18.43,0,0,0,3.11-6.41A34.38,34.38,0,0,0,1039,472V446.36Z"/><path class="cls-6" d="M1150.14,482.19a32.54,32.54,0,0,1,11.75,4.95,25.76,25.76,0,0,1,8.16,9.41q3.1,5.93,3.1,14.86a36.85,36.85,0,0,1-3.1,14.76,38.18,38.18,0,0,1-9.13,12.81,47.29,47.29,0,0,1-14.47,9.13,50.16,50.16,0,0,1-19.32,3.5q-12.23,0-19.51-2.72c-4.86-1.82-8.58-4-11.17-6.51a18.17,18.17,0,0,1-5-7.77,24.82,24.82,0,0,1-1.16-6.7,18.5,18.5,0,0,1,2.33-9.32,24.44,24.44,0,0,1,6.12-7.08,41.25,41.25,0,0,1,8.35-5.15,52.52,52.52,0,0,1,9-3.3v-.39a46.17,46.17,0,0,1-8.83-1,32.08,32.08,0,0,1-9.22-3.3,21.19,21.19,0,0,1-7.19-6.41,16.93,16.93,0,0,1-2.91-10.1,22.4,22.4,0,0,1,.48-3.49,22.89,22.89,0,0,1,2.24-5.92,30,30,0,0,1,5.34-7.09,40.27,40.27,0,0,1,9.61-7c-1.17-.91-2.46-2-3.88-3.21a27.67,27.67,0,0,1-4-4.27,23.33,23.33,0,0,1-3.1-5.63,20.18,20.18,0,0,1-1.26-7.48,25.45,25.45,0,0,1,2.62-11.36,28,28,0,0,1,7.47-9.32,36.92,36.92,0,0,1,12-6.31,50.56,50.56,0,0,1,15.82-2.33,37.92,37.92,0,0,1,15,2.72,48.94,48.94,0,0,1,10.78,6.21,51,51,0,0,1,8.74-6.69c2.58-1.49,6-2.24,10.29-2.24,3.75,0,6.57.94,8.44,2.82a9.84,9.84,0,0,1,2.82,7.28,8.09,8.09,0,0,1-2.33,6.12,8.6,8.6,0,0,1-6.21,2.23,10.3,10.3,0,0,1-4.37-.78,7.12,7.12,0,0,1-2.53-1.84,5.62,5.62,0,0,1-1.16-2.33c-.2-.84-.36-1.52-.49-2a33.2,33.2,0,0,0-.78-4.08c-.26-.9-1.1-1.36-2.52-1.36a5.68,5.68,0,0,0-2.72.88c-1,.58-2.85,1.78-5.43,3.59a51.31,51.31,0,0,1,5,6.7q2.73,4.17,2.72,12.13a26.41,26.41,0,0,1-1.84,9.62,23.34,23.34,0,0,1-6,8.64,31.73,31.73,0,0,1-10.78,6.31,47.56,47.56,0,0,1-16.31,2.43,55.15,55.15,0,0,1-13.79-1.56,83.81,83.81,0,0,1-9.9-3.1q-5.64,3.69-6.6,6.31a13.72,13.72,0,0,0-1,4.75,7.79,7.79,0,0,0,3.88,7.19q3.88,2.33,10.49,2.33h21.36A65.48,65.48,0,0,1,1150.14,482.19Zm-41.45,50.19A20.32,20.32,0,0,0,1119.75,546q4.66,2.34,12,2.33a29.33,29.33,0,0,0,10.68-1.94,27.3,27.3,0,0,0,8.84-5.43,27.59,27.59,0,0,0,6.12-8.35,24.43,24.43,0,0,0,2.33-10.68,19.69,19.69,0,0,0-2-9.42,16.58,16.58,0,0,0-11.26-8.64,29.57,29.57,0,0,0-6.41-.78H1120a44.43,44.43,0,0,0-9,9.32q-3.21,4.67-3.21,12.43A32.71,32.71,0,0,0,1108.69,532.38Zm27.76-71.17a9.23,9.23,0,0,0,4.66-3.49,19.69,19.69,0,0,0,3-7.58,63.39,63.39,0,0,0,1.07-12.91q0-5.62-.39-10.39a25.26,25.26,0,0,0-1.94-8.25,12.47,12.47,0,0,0-4.46-5.44c-2-1.29-4.66-1.94-8.16-1.94a14.23,14.23,0,0,0-8,2,13.54,13.54,0,0,0-4.76,5.34,24.21,24.21,0,0,0-2.23,7.57,64.48,64.48,0,0,0-.58,8.74,72.29,72.29,0,0,0,1.16,14.57,22.39,22.39,0,0,0,3.2,8.25,8.89,8.89,0,0,0,5,3.59,23.9,23.9,0,0,0,6.21.78A20,20,0,0,0,1136.45,461.21Z"/><path class="cls-6" d="M1257.53,412.08a49.9,49.9,0,0,1,15,9.62,43.32,43.32,0,0,1,10,14.08,41.32,41.32,0,0,1,3.59,17,41.79,41.79,0,0,1-3.59,17.18,43.32,43.32,0,0,1-10,14.08,48.31,48.31,0,0,1-15,9.51,51.92,51.92,0,0,1-37.48,0,48.08,48.08,0,0,1-15-9.51A43.18,43.18,0,0,1,1195,470a41.63,41.63,0,0,1-3.59-17.18,41.16,41.16,0,0,1,3.59-17,43.18,43.18,0,0,1,10-14.08,49.65,49.65,0,0,1,15-9.62,50.71,50.71,0,0,1,37.48,0Zm-6.9,78.84a21.07,21.07,0,0,0,6.31-9.41,50.6,50.6,0,0,0,2.53-13.4q.48-7.58.48-15.34t-.48-15.25a50.29,50.29,0,0,0-2.53-13.3,21.16,21.16,0,0,0-6.31-9.42q-4.28-3.58-11.84-3.59t-11.85,3.59a21.16,21.16,0,0,0-6.31,9.42,49.91,49.91,0,0,0-2.52,13.3q-.49,7.49-.49,15.25t.49,15.34a50.22,50.22,0,0,0,2.52,13.4,21.07,21.07,0,0,0,6.31,9.41q4.27,3.6,11.85,3.6T1250.63,490.92Z"/><path class="cls-6" d="M766,522.54h3.81v29H766Z"/><path class="cls-6" d="M824.43,522.54v29h-3.74v-22l-8.13,22H809.9l-8.13-22v22H798v-29h4.4l8.8,24.23,8.8-24.23Z"/><path class="cls-6" d="M866.55,545.32H855.26l-2,6.26h-4.07l9.88-29h3.57l9.88,29H868.5Zm-1-3.11-4.64-14.9-4.65,14.9Z"/><path class="cls-6" d="M917.88,536.56v15h-2.57l-.62-1.82a10,10,0,0,1-3.22,1.66,12.91,12.91,0,0,1-3.92.58,11,11,0,0,1-10.66-7,20,20,0,0,1-1.46-8,18.53,18.53,0,0,1,1.56-7.88,11.64,11.64,0,0,1,11.06-7.06,13,13,0,0,1,5.73,1.2,8,8,0,0,1,3.65,3.32l-2.12,2.12a7,7,0,0,0-2.93-2.59,9.67,9.67,0,0,0-4.29-.9,7.6,7.6,0,0,0-6.47,3.12q-2.32,3.11-2.33,8.67c0,3.76.76,6.7,2.26,8.8a7.35,7.35,0,0,0,6.33,3.15,11,11,0,0,0,3.51-.54,7.54,7.54,0,0,0,2.72-1.57v-7.52h-6.93v-2.82Z"/><path class="cls-6" d="M945.31,522.54h3.82v29h-3.82Z"/><path class="cls-6" d="M999,522.54v29h-3.77l-14.07-23v23h-3.82v-29h4l13.82,22.7v-22.7Z"/><path class="cls-6" d="M1047,536.56v15h-2.58l-.62-1.82a10,10,0,0,1-3.22,1.66,12.86,12.86,0,0,1-3.92.58,11,11,0,0,1-10.66-7,20,20,0,0,1-1.46-8,18.53,18.53,0,0,1,1.56-7.88,11.64,11.64,0,0,1,11.06-7.06,13,13,0,0,1,5.73,1.2,8,8,0,0,1,3.65,3.32l-2.12,2.12a7,7,0,0,0-2.92-2.59,9.72,9.72,0,0,0-4.3-.9,7.6,7.6,0,0,0-6.47,3.12q-2.33,3.11-2.33,8.67c0,3.76.76,6.7,2.27,8.8a7.32,7.32,0,0,0,6.32,3.15,10.86,10.86,0,0,0,3.51-.54,7.45,7.45,0,0,0,2.72-1.57v-7.52h-6.93v-2.82Z"/></g></g></svg>