<svg id="Layer_1" data-name="Layer 1" xmlns="http://www.w3.org/2000/svg" xmlns:xlink="http://www.w3.org/1999/xlink" viewBox="0 0 1200 1200"><defs><style>.cls-1{fill:#f1f1f1;}.cls-2{fill:url(#linear-gradient);}.cls-3{fill:url(#linear-gradient-2);}.cls-4{fill:#434344;}.cls-5{fill:none;}</style><linearGradient id="linear-gradient" x1="266.58" y1="430.68" x2="373.26" y2="430.68" gradientUnits="userSpaceOnUse"><stop offset="0" stop-color="#e3734e"/><stop offset="1" stop-color="#eca384"/></linearGradient><linearGradient id="linear-gradient-2" x1="244.56" y1="506.53" x2="344.18" y2="529.41" gradientUnits="userSpaceOnUse"><stop offset="0" stop-color="#f8cf47"/><stop offset="0.22" stop-color="#f9d45e"/><stop offset="0.49" stop-color="#f9d973"/><stop offset="0.76" stop-color="#fadc81"/><stop offset="1" stop-color="#fadd85"/></linearGradient></defs><rect class="cls-1" width="1200" height="1200"/><path class="cls-2" d="M367.31,525.17c-5.73-24.88-12.36-61.54-14-98.74-1.7-38.57-21.3-61.18-36.37-78.55l-3.76-4.4a48,48,0,0,1-7.56-11.75,33,33,0,0,1-3.07-17.12c-18.34,9.69-29.68,21.39-33.08,34.28-3.35,12.73-5.33,38.73,3,58.2.21.5,6,12.91,4.58,23a16.38,16.38,0,0,1-.84,3.29c-3.15,8.62-9.89,13.7-8.57,25.19,0,0,2.48-.37,2.74-.39,7.89-.63,15.93,2.47,22.65,8.74,9,8.37,37.45,46.59,59.77,77.18a27,27,0,0,1,1.63,2.57l.72.07C362.86,537.75,367.31,525.17,367.31,525.17Z"/><path class="cls-3" d="M317.54,563.66c8.92-.72,17.3-2.17,24.81-6.44l0,0a4.06,4.06,0,0,0,1.36-5.8c-.11-.16-.21-.32-.33-.47l-3.16-4.34c-29-39.6-49-65.46-55.15-71.21a19.81,19.81,0,0,0-10.74-5.55,14.23,14.23,0,0,0-1.95-.15c-.38,0-.75,0-1.13,0-6.71.54-11.42,4.13-14.55,10-2.79,5.27-1.1,15.78-2.76,21.11-2,6.36-4.86,8.12-7.57,10.71a22.91,22.91,0,0,0-4.34,5.64C222.89,550.08,299.41,565.11,317.54,563.66Z"/><path class="cls-4" d="M371.93,535.25a58.25,58.25,0,0,1-63.58,36.19,35.47,35.47,0,0,0,18.85,12l1.62.42a35.09,35.09,0,0,0,26.5-3.79c8.86-5,14.51-12.37,17.27-22.45A35.46,35.46,0,0,0,371.93,535.25Z"/><path class="cls-5" d="M346.53,564.57a58.22,58.22,0,0,1-29,7.54,62.89,62.89,0,0,1-9.19-.67,35.47,35.47,0,0,0,18.85,12l1.62.42a38.67,38.67,0,0,0,8.86,1.06A35.14,35.14,0,0,0,355.32,580c8.86-5,14.51-12.38,17.27-22.46a35.46,35.46,0,0,0-.66-22.33A59.44,59.44,0,0,1,346.53,564.57Z"/><path class="cls-4" d="M440.89,496c.37,0,.72.11,1.07.18a31.57,31.57,0,0,0-22-.32A33,33,0,0,0,402.44,511a18.52,18.52,0,0,1,4.87,3.89,28.46,28.46,0,0,1,13.87-16.27,29.62,29.62,0,0,1,18.31-2.75A9.6,9.6,0,0,1,440.89,496Z"/><path class="cls-4" d="M442,496.13c.63.25,1.26.51,1.87.8a29.78,29.78,0,0,0-4.34-1c-2.14,0-3.8.79-3.94,1.91-.16,1.35,2,2.72,4.75,3.05s5.17-.5,5.34-1.85C445.77,497.83,444.19,496.64,442,496.13Z"/><path class="cls-4" d="M442,496.13c-.35-.07-.7-.14-1.07-.18a9.6,9.6,0,0,0-1.4-.06,29.78,29.78,0,0,1,4.34,1C443.22,496.64,442.59,496.38,442,496.13Z"/><path class="cls-4" d="M393.47,512.65a14.67,14.67,0,1,0,4.35.66A14.81,14.81,0,0,0,393.47,512.65Z"/><path class="cls-4" d="M406.2,555.75v86.47h14v2.92H366.82v-2.92h14V555.75Z"/><path class="cls-4" d="M472.46,555.75v14.79h.42c.83-1.38,1.94-3,3.33-4.89a27.37,27.37,0,0,1,5.52-5.42,33.78,33.78,0,0,1,8.34-4.48,32.94,32.94,0,0,1,11.77-1.88A40.7,40.7,0,0,1,514,555.44a27.75,27.75,0,0,1,8.13,4,22.53,22.53,0,0,1,5.21,5.31c1.31,1.95,2.53,3.89,3.64,5.83a31.09,31.09,0,0,1,7-8.85,33.7,33.7,0,0,1,7.82-5,28.25,28.25,0,0,1,7.5-2.29,41.33,41.33,0,0,1,5.83-.53q11.88,0,18.34,3.55a23.92,23.92,0,0,1,9.38,8.44,24.47,24.47,0,0,1,3.43,10.31q.53,5.42.52,9.17v56.88h13.76v2.92H553.1v-2.92h12.29V577.63q0-8.75-3.23-13.44t-10.73-4.69a16.65,16.65,0,0,0-5.62,1.25,23.33,23.33,0,0,0-6.46,3.75,21,21,0,0,0-5.32,6.57,20.1,20.1,0,0,0-2.18,9.69v61.46h12.29v2.92H493.92v-2.92h12.5V576q0-9.16-4-12.81a12.62,12.62,0,0,0-8.75-3.65q-8.32,0-14.58,7.29a32.12,32.12,0,0,0-2.92,4.28,20.38,20.38,0,0,0-2,5,39,39,0,0,0-1,6.46q-.31,3.65-.31,8.85v50.84h12.29v2.92H433.7v-2.92h13.75V558.67H433.7v-2.92Z"/><path class="cls-4" d="M707.4,647a70.09,70.09,0,0,1-10.32.83q-10.62,0-15.73-3.75A16,16,0,0,1,675,633.68h-.42q-3.35,8.34-9.17,11.25t-16.88,2.92a52.34,52.34,0,0,1-10.21-1,35.6,35.6,0,0,1-9.58-3.33,19,19,0,0,1-7.09-6.36,17.42,17.42,0,0,1-2.71-9.9,19.54,19.54,0,0,1,2.4-10.1,22.56,22.56,0,0,1,6.25-6.88,34.74,34.74,0,0,1,8.75-4.58q4.89-1.77,10.11-3.44Q655,599.71,660.3,598a33.85,33.85,0,0,0,8.24-3.76,11.15,11.15,0,0,0,4.06-4.48,15.58,15.58,0,0,0,1.15-6.45V570.54A19.76,19.76,0,0,0,671,560.33q-2.71-4.58-10.21-4.58a15.53,15.53,0,0,0-8.34,2.19q-3.54,2.19-3.54,8a19.21,19.21,0,0,0,.21,2.19c.13,1,.27,2.19.41,3.44s.28,2.43.42,3.54a21.88,21.88,0,0,1,.21,2.29,7.52,7.52,0,0,1-1.46,4.9,8.82,8.82,0,0,1-3.44,2.6,12.06,12.06,0,0,1-4.16.94c-1.46.07-2.68.1-3.65.1a29.93,29.93,0,0,1-4.27-.31,8.88,8.88,0,0,1-3.86-1.46,9.13,9.13,0,0,1-2.81-3.23,11.59,11.59,0,0,1-1.15-5.62,16.41,16.41,0,0,1,3-9.69,24.18,24.18,0,0,1,8-7.09,42.67,42.67,0,0,1,11.35-4.27A59.15,59.15,0,0,1,661,552.83a84.81,84.81,0,0,1,14.9,1.25A32.43,32.43,0,0,1,688,558.67a24,24,0,0,1,8.13,9.06q3,5.73,3,14.48v51.68a19.68,19.68,0,0,0,1.14,7c.76,2,2.68,3,5.73,3a8.66,8.66,0,0,0,4.48-1,14.42,14.42,0,0,0,3.44-2.92l1.88,1.88A11.79,11.79,0,0,1,707.4,647Zm-34.07-53.55a6.23,6.23,0,0,1-1.56,2.39,16.24,16.24,0,0,1-4.07,2.61q-4,1.88-7.92,3.64a28.57,28.57,0,0,0-7.08,4.48,21.44,21.44,0,0,0-5.11,6.67,22.83,22.83,0,0,0-2,10.21q0,2.5.32,5.84a21.3,21.3,0,0,0,1.66,6.46,13.87,13.87,0,0,0,4.07,5.31q2.7,2.19,7.5,2.19a12.22,12.22,0,0,0,5.31-1.25,13.56,13.56,0,0,0,4.69-3.86,19.74,19.74,0,0,0,3.33-6.87A36.85,36.85,0,0,0,673.75,621v-27.5Z"/><path class="cls-4" d="M793,631.91a34.86,34.86,0,0,1,12.6,5.31,27.73,27.73,0,0,1,8.76,10.11q3.33,6.36,3.33,15.94a39.58,39.58,0,0,1-3.33,15.84,41.18,41.18,0,0,1-9.8,13.75,51,51,0,0,1-15.52,9.79,53.86,53.86,0,0,1-20.73,3.75q-13.14,0-21-2.91t-12-7a19.59,19.59,0,0,1-5.42-8.34,26.58,26.58,0,0,1-1.25-7.19,19.87,19.87,0,0,1,2.5-10,26.48,26.48,0,0,1,6.57-7.61,45.08,45.08,0,0,1,9-5.52,55.79,55.79,0,0,1,9.69-3.54v-.42a49.37,49.37,0,0,1-9.48-1,34,34,0,0,1-9.9-3.54,22.75,22.75,0,0,1-7.71-6.88,18.15,18.15,0,0,1-3.13-10.83,23.6,23.6,0,0,1,.53-3.75,24.16,24.16,0,0,1,2.39-6.36,32.54,32.54,0,0,1,5.73-7.6,43.72,43.72,0,0,1,10.32-7.51c-1.25-1-2.65-2.11-4.17-3.43a29.86,29.86,0,0,1-4.27-4.59,25,25,0,0,1-3.34-6,21.87,21.87,0,0,1-1.35-8,27.36,27.36,0,0,1,2.81-12.19,29.89,29.89,0,0,1,8-10,39.4,39.4,0,0,1,12.82-6.78,54.38,54.38,0,0,1,17-2.5,40.76,40.76,0,0,1,16.15,2.92,52.35,52.35,0,0,1,11.56,6.67,54.81,54.81,0,0,1,9.38-7.19q4.17-2.4,11.05-2.4,6,0,9.06,3a10.6,10.6,0,0,1,3,7.82,8.63,8.63,0,0,1-2.5,6.56,9.23,9.23,0,0,1-6.67,2.4,11.2,11.2,0,0,1-4.69-.83,7.78,7.78,0,0,1-2.71-2,6.06,6.06,0,0,1-1.24-2.5c-.21-.91-.39-1.64-.53-2.19a35.39,35.39,0,0,0-.83-4.38c-.28-1-1.18-1.46-2.71-1.46a6.24,6.24,0,0,0-2.92.94c-1.11.63-3,1.91-5.83,3.86a55,55,0,0,1,5.42,7.18q2.91,4.49,2.91,13a28.49,28.49,0,0,1-2,10.31,25.05,25.05,0,0,1-6.46,9.27,34.06,34.06,0,0,1-11.57,6.78q-7.08,2.61-17.5,2.6a59.06,59.06,0,0,1-14.8-1.67,89.42,89.42,0,0,1-10.62-3.33q-6,4-7.09,6.77a15,15,0,0,0-1,5.11,8.37,8.37,0,0,0,4.17,7.71c2.77,1.66,6.53,2.5,11.25,2.5h22.92A71.15,71.15,0,0,1,793,631.91Zm-44.49,53.86a21.76,21.76,0,0,0,11.88,14.59q5,2.5,12.92,2.5a31.9,31.9,0,0,0,11.46-2.08,28.94,28.94,0,0,0,16-14.8,26.08,26.08,0,0,0,2.5-11.46,21.28,21.28,0,0,0-2.08-10.1,17.85,17.85,0,0,0-12.09-9.28,32.21,32.21,0,0,0-6.87-.83H760.64a47.89,47.89,0,0,0-9.69,10q-3.45,5-3.44,13.34A34.83,34.83,0,0,0,748.55,685.77Zm29.8-76.36a10.08,10.08,0,0,0,5-3.75,21.57,21.57,0,0,0,3.23-8.13,68.29,68.29,0,0,0,1.14-13.86c0-4-.14-7.74-.41-11.15a27.27,27.27,0,0,0-2.09-8.85,13.34,13.34,0,0,0-4.79-5.84c-2.08-1.38-5-2.08-8.75-2.08a15.27,15.27,0,0,0-8.54,2.19,14.47,14.47,0,0,0-5.11,5.73,26,26,0,0,0-2.4,8.13,70.33,70.33,0,0,0-.62,9.37,78,78,0,0,0,1.25,15.63,23.72,23.72,0,0,0,3.44,8.86,9.55,9.55,0,0,0,5.31,3.85,25.61,25.61,0,0,0,6.67.83A22,22,0,0,0,778.35,609.41Z"/><path class="cls-4" d="M908.27,556.69A53.26,53.26,0,0,1,924.41,567a46.51,46.51,0,0,1,10.73,15.11A44.29,44.29,0,0,1,939,600.34a44.76,44.76,0,0,1-3.86,18.44,46.3,46.3,0,0,1-10.73,15.11,51.53,51.53,0,0,1-16.14,10.21,55.8,55.8,0,0,1-40.22,0,51.46,51.46,0,0,1-16.15-10.21,46.44,46.44,0,0,1-10.73-15.11,44.76,44.76,0,0,1-3.86-18.44,44.29,44.29,0,0,1,3.86-18.23A46.66,46.66,0,0,1,851.9,567a53.19,53.19,0,0,1,16.15-10.31,54.31,54.31,0,0,1,40.22,0Zm-7.4,84.6a22.71,22.71,0,0,0,6.77-10.11,54.08,54.08,0,0,0,2.71-14.38q.51-8.12.52-16.46T910.35,584a53.85,53.85,0,0,0-2.71-14.27,22.68,22.68,0,0,0-6.77-10.1q-4.59-3.86-12.71-3.86t-12.71,3.86a22.62,22.62,0,0,0-6.78,10.1A53.86,53.86,0,0,0,866,584q-.53,8-.53,16.36T866,616.8a54.09,54.09,0,0,0,2.7,14.38,22.65,22.65,0,0,0,6.78,10.11q4.57,3.86,12.71,3.85T900.87,641.29Z"/><path class="cls-4" d="M380.78,675.21h4.09v31.17h-4.09Z"/><path class="cls-4" d="M443.52,675.21v31.17h-4v-23.6l-8.73,23.6h-2.85l-8.73-23.6v23.6h-4V675.21h4.72l9.44,26,9.44-26Z"/><path class="cls-4" d="M488.72,699.66H476.61l-2.09,6.72h-4.37l10.6-31.17h3.83l10.6,31.17h-4.37Zm-1.07-3.34-5-16-5,16Z"/><path class="cls-4" d="M543.81,690.26v16.12h-2.76l-.67-2a10.64,10.64,0,0,1-3.45,1.78,13.88,13.88,0,0,1-4.21.63,11.82,11.82,0,0,1-11.45-7.49,21.41,21.41,0,0,1-1.55-8.55,19.9,19.9,0,0,1,1.67-8.46,12.91,12.91,0,0,1,4.72-5.58,12.73,12.73,0,0,1,7.14-2,13.84,13.84,0,0,1,6.15,1.3,8.49,8.49,0,0,1,3.92,3.56l-2.27,2.27a7.48,7.48,0,0,0-3.14-2.78,10.49,10.49,0,0,0-4.61-1,8.17,8.17,0,0,0-6.95,3.34c-1.66,2.22-2.49,5.33-2.49,9.3s.81,7.19,2.42,9.45a7.9,7.9,0,0,0,6.79,3.38,11.64,11.64,0,0,0,3.77-.58,7.92,7.92,0,0,0,2.91-1.69v-8.06h-7.43v-3Z"/><path class="cls-4" d="M573.24,675.21h4.1v31.17h-4.1Z"/><path class="cls-4" d="M630.86,675.21v31.17h-4.05l-15.09-24.67v24.67h-4.1V675.21h4.32l14.83,24.36V675.21Z"/><path class="cls-4" d="M682.3,690.26v16.12h-2.76l-.67-2a10.64,10.64,0,0,1-3.45,1.78,13.84,13.84,0,0,1-4.21.63,12.36,12.36,0,0,1-7-1.94,12.16,12.16,0,0,1-4.49-5.55,21.4,21.4,0,0,1-1.56-8.55,19.9,19.9,0,0,1,1.67-8.46,12.91,12.91,0,0,1,4.72-5.58,12.73,12.73,0,0,1,7.14-2,13.84,13.84,0,0,1,6.15,1.3,8.49,8.49,0,0,1,3.92,3.56l-2.27,2.27a7.42,7.42,0,0,0-3.14-2.78,10.46,10.46,0,0,0-4.61-1,8.17,8.17,0,0,0-6.95,3.34c-1.66,2.22-2.49,5.33-2.49,9.3s.81,7.19,2.43,9.45a7.88,7.88,0,0,0,6.79,3.38,11.58,11.58,0,0,0,3.76-.58,8,8,0,0,0,2.92-1.69v-8.06h-7.44v-3Z"/></svg>