<svg id="Layer_1" data-name="Layer 1" xmlns="http://www.w3.org/2000/svg" xmlns:xlink="http://www.w3.org/1999/xlink" viewBox="0 0 1920 540"><defs><style>.cls-1{fill:url(#linear-gradient);}.cls-2{fill:url(#linear-gradient-2);}.cls-3{fill:#434344;}.cls-4{fill:none;}</style><linearGradient id="linear-gradient" x1="661.25" y1="179.48" x2="752.58" y2="179.48" gradientUnits="userSpaceOnUse"><stop offset="0" stop-color="#e3734e"/><stop offset="1" stop-color="#eca384"/></linearGradient><linearGradient id="linear-gradient-2" x1="642.41" y1="244.41" x2="727.68" y2="264" gradientUnits="userSpaceOnUse"><stop offset="0" stop-color="#f8cf47"/><stop offset="0.22" stop-color="#f9d45e"/><stop offset="0.49" stop-color="#f9d973"/><stop offset="0.76" stop-color="#fadc81"/><stop offset="1" stop-color="#fadd85"/></linearGradient></defs><path class="cls-1" d="M747.48,260.37c-4.9-21.3-10.58-52.68-12-84.52-1.46-33-18.24-52.37-31.13-67.25-.47-.54-1.91-2.22-3.22-3.76a41.38,41.38,0,0,1-6.48-10.06,28.29,28.29,0,0,1-2.62-14.65c-15.7,8.29-25.41,18.3-28.32,29.34s-4.56,33.15,2.54,49.82c.18.43,5.13,11.05,3.92,19.69a13,13,0,0,1-.72,2.81c-2.7,7.39-8.47,11.74-7.33,21.57,0,0,2.12-.31,2.34-.33,6.76-.55,13.64,2.11,19.39,7.48,7.67,7.16,32.06,39.88,51.16,66.07a21.43,21.43,0,0,1,1.4,2.2l.62.06C743.67,271.14,747.48,260.37,747.48,260.37Z"/><path class="cls-2" d="M704.88,293.32c7.64-.62,14.81-1.86,21.24-5.51l0,0a3.48,3.48,0,0,0,1.17-5l-.28-.4-2.71-3.71c-24.8-33.9-41.94-56-47.21-61a17.1,17.1,0,0,0-9.19-4.76,13.53,13.53,0,0,0-1.67-.12c-.33,0-.65,0-1,0-5.75.46-9.78,3.53-12.46,8.59-2.38,4.51-.94,13.5-2.36,18.06-1.7,5.45-4.15,7-6.47,9.18a19.53,19.53,0,0,0-3.73,4.83C623.86,281.69,689.36,294.56,704.88,293.32Z"/><path class="cls-3" d="M751.44,269A49.88,49.88,0,0,1,697,300a30.45,30.45,0,0,0,16.14,10.24c.46.13.93.25,1.38.35A31.86,31.86,0,0,0,751.44,269Z"/><path class="cls-4" d="M729.69,294.1a49.84,49.84,0,0,1-24.81,6.45A54.61,54.61,0,0,1,697,300a30.41,30.41,0,0,0,16.14,10.24c.46.13.93.25,1.38.35a33.13,33.13,0,0,0,7.59.92A32,32,0,0,0,751.44,269,50.89,50.89,0,0,1,729.69,294.1Z"/><path class="cls-3" d="M810.47,235.36a8.64,8.64,0,0,1,.91.15,27,27,0,0,0-18.83-.27,28.22,28.22,0,0,0-15,13,15.47,15.47,0,0,1,4.17,3.33,24.37,24.37,0,0,1,11.88-13.93,25.36,25.36,0,0,1,15.67-2.36A9.94,9.94,0,0,1,810.47,235.36Z"/><path class="cls-3" d="M811.38,235.51c.55.22,1.08.44,1.61.68a26.82,26.82,0,0,0-3.72-.89c-1.83,0-3.25.68-3.37,1.64-.13,1.16,1.69,2.33,4.07,2.61s4.42-.42,4.56-1.58C814.65,237,813.3,236,811.38,235.51Z"/><path class="cls-3" d="M811.38,235.51a8.64,8.64,0,0,0-.91-.15,9.94,9.94,0,0,0-1.2-.06,26.82,26.82,0,0,1,3.72.89C812.46,236,811.93,235.73,811.38,235.51Z"/><path class="cls-3" d="M769.88,249.65a12.59,12.59,0,1,0,3.72.57A12.45,12.45,0,0,0,769.88,249.65Z"/><path class="cls-3" d="M780.77,286.55v74h12v2.5H747.06v-2.5h12v-74Z"/><path class="cls-3" d="M837.5,286.55v12.66h.35q1.08-1.77,2.86-4.19a23.4,23.4,0,0,1,4.72-4.64,29.11,29.11,0,0,1,7.14-3.83,28.19,28.19,0,0,1,10.08-1.61,34.79,34.79,0,0,1,10.43,1.34,23.76,23.76,0,0,1,7,3.39,19,19,0,0,1,4.46,4.55c1.13,1.66,2.17,3.33,3.12,5a26.61,26.61,0,0,1,6-7.58,28.84,28.84,0,0,1,6.69-4.28,24.72,24.72,0,0,1,6.42-2,35.34,35.34,0,0,1,5-.45q10.17,0,15.7,3a20.54,20.54,0,0,1,8,7.23,21,21,0,0,1,3,8.83q.43,4.64.44,7.85v48.69h11.77v2.5H906.53v-2.5h10.52V305.28q0-7.5-2.76-11.51t-9.19-4a14.31,14.31,0,0,0-4.82,1.07,20.21,20.21,0,0,0-5.53,3.21,18.09,18.09,0,0,0-4.55,5.62,17.35,17.35,0,0,0-1.87,8.29v52.62h10.53v2.5h-43v-2.5h10.7V303.85q0-7.85-3.39-11a10.83,10.83,0,0,0-7.49-3.12q-7.14,0-12.49,6.24a28.17,28.17,0,0,0-2.49,3.66,17.23,17.23,0,0,0-1.7,4.28,33.33,33.33,0,0,0-.89,5.53q-.27,3.12-.27,7.58v43.52h10.53v2.5H804.32v-2.5h11.77V289H804.32v-2.49Z"/><path class="cls-3" d="M1038.61,364.68a60.15,60.15,0,0,1-8.83.71q-9.09,0-13.47-3.21a13.79,13.79,0,0,1-5.44-8.92h-.35q-2.87,7.14-7.85,9.63t-14.45,2.5a44.85,44.85,0,0,1-8.74-.89,30.68,30.68,0,0,1-8.21-2.86,16.12,16.12,0,0,1-6.06-5.44,14.89,14.89,0,0,1-2.32-8.47,16.76,16.76,0,0,1,2.05-8.65,19.54,19.54,0,0,1,5.35-5.89,30.05,30.05,0,0,1,7.49-3.92c2.8-1,5.68-2,8.66-2.95q7.3-2.13,11.86-3.65a29.19,29.19,0,0,0,7-3.21,9.49,9.49,0,0,0,3.48-3.84,13.39,13.39,0,0,0,1-5.53V299.21a16.83,16.83,0,0,0-2.32-8.74q-2.31-3.92-8.74-3.92a13.28,13.28,0,0,0-7.13,1.87c-2,1.25-3,3.54-3,6.87a15.86,15.86,0,0,0,.17,1.87q.18,1.33.36,2.94c.12,1.07.24,2.09.36,3s.18,1.6.18,2a6.42,6.42,0,0,1-1.25,4.19,7.64,7.64,0,0,1-2.95,2.23,10.26,10.26,0,0,1-3.56.8q-1.87.09-3.12.09a25.67,25.67,0,0,1-3.66-.27,7.57,7.57,0,0,1-3.3-1.24,7.92,7.92,0,0,1-2.41-2.77,10.07,10.07,0,0,1-1-4.82A14,14,0,0,1,971,295a20.52,20.52,0,0,1,6.86-6.06,36.13,36.13,0,0,1,9.73-3.66,50.55,50.55,0,0,1,11.32-1.25,72.78,72.78,0,0,1,12.76,1.07A27.56,27.56,0,0,1,1022,289a20.6,20.6,0,0,1,7,7.76,26.54,26.54,0,0,1,2.58,12.4v44.24a16.83,16.83,0,0,0,1,6c.66,1.73,2.29,2.59,4.91,2.59a7.51,7.51,0,0,0,3.83-.89,12.59,12.59,0,0,0,3-2.5l1.6,1.61A10.09,10.09,0,0,1,1038.61,364.68Zm-29.16-45.85a5.3,5.3,0,0,1-1.34,2.05,14,14,0,0,1-3.48,2.23c-2.26,1.07-4.52,2.12-6.78,3.13a24.45,24.45,0,0,0-6.06,3.83,18.06,18.06,0,0,0-4.37,5.71,19.41,19.41,0,0,0-1.7,8.74c0,1.43.09,3.09.27,5a17.84,17.84,0,0,0,1.43,5.53,11.79,11.79,0,0,0,3.47,4.55,10,10,0,0,0,6.43,1.87,10.28,10.28,0,0,0,4.54-1.07,11.5,11.5,0,0,0,4-3.3,16.8,16.8,0,0,0,2.85-5.88,31.5,31.5,0,0,0,1.07-8.83V318.83Z"/><path class="cls-3" d="M1111.92,351.74a30,30,0,0,1,10.79,4.55,23.7,23.7,0,0,1,7.49,8.65q2.85,5.44,2.86,13.65a33.93,33.93,0,0,1-2.86,13.56,35.24,35.24,0,0,1-8.38,11.77,43.69,43.69,0,0,1-13.29,8.38,46.1,46.1,0,0,1-17.75,3.21q-11.23,0-17.92-2.5a29.11,29.11,0,0,1-10.26-6,16.78,16.78,0,0,1-4.64-7.14,22.74,22.74,0,0,1-1.07-6.15,17,17,0,0,1,2.14-8.56,22.52,22.52,0,0,1,5.62-6.51,38.45,38.45,0,0,1,7.67-4.73,47.7,47.7,0,0,1,8.3-3v-.36a43,43,0,0,1-8.12-.89,29.69,29.69,0,0,1-8.47-3,19.47,19.47,0,0,1-6.6-5.89,15.51,15.51,0,0,1-2.68-9.27,20,20,0,0,1,.45-3.21,20.65,20.65,0,0,1,2-5.44,27.88,27.88,0,0,1,4.9-6.52,37.89,37.89,0,0,1,8.83-6.42q-1.61-1.25-3.56-2.94a25.94,25.94,0,0,1-3.66-3.92,21.58,21.58,0,0,1-2.85-5.18,18.52,18.52,0,0,1-1.16-6.87,23.43,23.43,0,0,1,2.4-10.43A25.7,25.7,0,0,1,1069,292a33.7,33.7,0,0,1,11-5.8,46.32,46.32,0,0,1,14.54-2.14,34.68,34.68,0,0,1,13.82,2.5,44.26,44.26,0,0,1,9.9,5.71,46.61,46.61,0,0,1,8-6.16,19,19,0,0,1,9.45-2.05q5.18,0,7.76,2.59a9.06,9.06,0,0,1,2.59,6.69,7.37,7.37,0,0,1-2.14,5.61,7.91,7.91,0,0,1-5.71,2.06,9.4,9.4,0,0,1-4-.72,6.46,6.46,0,0,1-2.32-1.69,5.15,5.15,0,0,1-1.07-2.14c-.18-.77-.33-1.4-.45-1.88a30.43,30.43,0,0,0-.71-3.74c-.24-.83-1-1.25-2.32-1.25a5.34,5.34,0,0,0-2.5.8c-.95.54-2.62,1.64-5,3.3a48.25,48.25,0,0,1,4.64,6.16Q1127,303.68,1127,311a24.2,24.2,0,0,1-1.69,8.83,21.43,21.43,0,0,1-5.53,7.94,29.15,29.15,0,0,1-9.9,5.8,43.68,43.68,0,0,1-15,2.23,50.5,50.5,0,0,1-12.67-1.43,76.74,76.74,0,0,1-9.1-2.85q-5.17,3.39-6.06,5.8a12.54,12.54,0,0,0-.89,4.36,7.15,7.15,0,0,0,3.57,6.61c2.37,1.42,5.58,2.14,9.63,2.14H1099A60.82,60.82,0,0,1,1111.92,351.74Zm-38.08,46.11a18.69,18.69,0,0,0,3.39,7,18.91,18.91,0,0,0,6.77,5.44,24.73,24.73,0,0,0,11.06,2.14,27.27,27.27,0,0,0,9.81-1.78A24.79,24.79,0,0,0,1118.61,398a22.31,22.31,0,0,0,2.14-9.81,18.27,18.27,0,0,0-1.78-8.65,15.3,15.3,0,0,0-10.35-7.94,27.63,27.63,0,0,0-5.89-.71h-18.55a41.2,41.2,0,0,0-8.29,8.56q-2.94,4.27-2.94,11.42A29.76,29.76,0,0,0,1073.84,397.85Zm25.5-65.37a8.62,8.62,0,0,0,4.29-3.21,18.35,18.35,0,0,0,2.76-7,58.4,58.4,0,0,0,1-11.86q0-5.18-.36-9.54a23.07,23.07,0,0,0-1.78-7.58,11.43,11.43,0,0,0-4.1-5c-1.79-1.19-4.28-1.78-7.49-1.78a13.08,13.08,0,0,0-7.32,1.87,12.46,12.46,0,0,0-4.37,4.91,22.26,22.26,0,0,0-2,6.95,60.62,60.62,0,0,0-.53,8,66.05,66.05,0,0,0,1.07,13.38,20.21,20.21,0,0,0,2.94,7.58,8.24,8.24,0,0,0,4.55,3.3,22.27,22.27,0,0,0,5.71.71A18.73,18.73,0,0,0,1099.34,332.48Z"/><path class="cls-3" d="M1210.56,287.35a45.53,45.53,0,0,1,13.82,8.83,39.81,39.81,0,0,1,9.19,12.93,37.94,37.94,0,0,1,3.3,15.61,38.36,38.36,0,0,1-3.3,15.79,39.81,39.81,0,0,1-9.19,12.93,44,44,0,0,1-13.82,8.74,47.77,47.77,0,0,1-34.43,0,44,44,0,0,1-13.82-8.74,39.81,39.81,0,0,1-9.19-12.93,38.36,38.36,0,0,1-3.3-15.79,37.94,37.94,0,0,1,3.3-15.61,39.81,39.81,0,0,1,9.19-12.93,45.53,45.53,0,0,1,13.82-8.83,46.55,46.55,0,0,1,34.43,0Zm-6.33,72.42a19.35,19.35,0,0,0,5.79-8.65,46.3,46.3,0,0,0,2.32-12.31q.45-7,.45-14.09t-.45-14A46.07,46.07,0,0,0,1210,298.5a19.35,19.35,0,0,0-5.79-8.65q-3.93-3.3-10.88-3.3t-10.88,3.3a19.36,19.36,0,0,0-5.8,8.65,45.68,45.68,0,0,0-2.32,12.22q-.45,6.87-.45,14t.45,14.09a45.91,45.91,0,0,0,2.32,12.31,19.36,19.36,0,0,0,5.8,8.65q3.91,3.3,10.88,3.3T1204.23,359.77Z"/><path class="cls-3" d="M759,388.81h3.51v26.68H759Z"/><path class="cls-3" d="M812.72,388.81v26.68h-3.43v-20.2l-7.47,20.2h-2.44l-7.47-20.2v20.2h-3.43V388.81h4l8.08,22.26,8.08-22.26Z"/><path class="cls-3" d="M851.42,409.74H841.05l-1.79,5.75h-3.74l9.07-26.68h3.28l9.07,26.68h-3.73Zm-.92-2.86-4.27-13.69L842,406.88Z"/><path class="cls-3" d="M898.57,401.69v13.8h-2.36l-.57-1.68a9.13,9.13,0,0,1-3,1.53,11.79,11.79,0,0,1-3.6.53,10.61,10.61,0,0,1-6-1.65,10.5,10.5,0,0,1-3.85-4.75,18.37,18.37,0,0,1-1.33-7.32,17,17,0,0,1,1.43-7.24,11.1,11.1,0,0,1,4-4.79,11,11,0,0,1,6.12-1.69,12.07,12.07,0,0,1,5.26,1.1,7.36,7.36,0,0,1,3.35,3.05l-1.94,1.95a6.42,6.42,0,0,0-2.69-2.39,9.08,9.08,0,0,0-3.95-.82,7,7,0,0,0-5.94,2.86q-2.14,2.86-2.14,8c0,3.46.7,6.15,2.08,8.08a6.75,6.75,0,0,0,5.81,2.9,10,10,0,0,0,3.22-.5,6.72,6.72,0,0,0,2.5-1.45v-6.9h-6.36v-2.59Z"/><path class="cls-3" d="M923.77,388.81h3.5v26.68h-3.5Z"/><path class="cls-3" d="M973.1,388.81v26.68h-3.47L956.7,394.37v21.12h-3.5V388.81h3.69l12.7,20.85V388.81Z"/><path class="cls-3" d="M1017.12,401.69v13.8h-2.36l-.57-1.68a9.13,9.13,0,0,1-3,1.53,11.79,11.79,0,0,1-3.6.53,10.55,10.55,0,0,1-5.94-1.65,10.44,10.44,0,0,1-3.85-4.75,18.36,18.36,0,0,1-1.34-7.32,17.13,17.13,0,0,1,1.43-7.24,11.1,11.1,0,0,1,4-4.79,11,11,0,0,1,6.12-1.69,12,12,0,0,1,5.26,1.1,7.36,7.36,0,0,1,3.35,3.05l-1.94,1.95a6.42,6.42,0,0,0-2.69-2.39,9,9,0,0,0-3.94-.82,7,7,0,0,0-6,2.86q-2.13,2.86-2.13,8t2.07,8.08a6.77,6.77,0,0,0,5.82,2.9,10,10,0,0,0,3.22-.5,6.8,6.8,0,0,0,2.5-1.45v-6.9h-6.37v-2.59Z"/></svg>