<svg id="Layer_1" data-name="Layer 1" xmlns="http://www.w3.org/2000/svg" viewBox="0 0 1920 540"><defs><style>.cls-1{fill:#434344;}</style></defs><path class="cls-1" d="M313.86,305.13a32.76,32.76,0,0,1-12.67-10.61l7.43-7.42A31,31,0,0,0,319,295.65a26.44,26.44,0,0,0,12.33,3.25q7.81,0,12.65-4a12.87,12.87,0,0,0,4.84-10.47,15.77,15.77,0,0,0-1.66-7.42,18.62,18.62,0,0,0-5.7-6.17A74,74,0,0,0,330,264.3q-14.19-6.9-19.95-13.06a20.41,20.41,0,0,1-5.77-14.38q0-10.61,7.69-17t20.42-6.36a34.51,34.51,0,0,1,16.23,3.84,24.1,24.1,0,0,1,10.68,10.34l-8,5.84a23,23,0,0,0-18.82-10q-7.43,0-11.74,3.52a11.58,11.58,0,0,0-4.3,9.47,11.17,11.17,0,0,0,1.59,6.1,18.65,18.65,0,0,0,5.9,5.24q4.31,2.72,13.59,7.36,12.59,6.22,18,12.79A23.41,23.41,0,0,1,361,283.52a23.72,23.72,0,0,1-3.78,13.32,24.83,24.83,0,0,1-10.61,9A37.14,37.14,0,0,1,330.75,309,38.06,38.06,0,0,1,313.86,305.13Z"/><path class="cls-1" d="M419.83,287.63H383.78l-6.23,20h-13l31.55-92.8h11.4l31.54,92.8h-13Zm-3.18-9.94L401.81,230.1,387,277.69Z"/><path class="cls-1" d="M452,214.85h28.5q15.12,0,22.54,6.17t7.42,18.62q0,9.29-4.64,15.71A22.64,22.64,0,0,1,493,264v.27a21.3,21.3,0,0,1,4.5,3.91,18.84,18.84,0,0,1,2.92,5l13.92,34.47H501.22l-11.66-30q-2.25-5.83-5.44-7.82t-9.94-2h-9.94v39.77H452Zm27.84,43.09q19,0,19-17.5,0-7.81-4.77-11.67c-3.19-2.56-8-3.84-14.59-3.84H464.24v33Z"/><path class="cls-1" d="M575.85,287.63H539.8l-6.23,20h-13l31.55-92.8h11.4l31.55,92.8h-13Zm-3.18-9.94L557.83,230.1,543,277.69Z"/><path class="cls-1" d="M608.06,214.85h24.52q16.44,0,24.46,5.51t8,16.76q0,7.83-3.45,12.86t-10.73,7.82v.4q9.27,2.52,13.59,8t4.3,14.91q0,13.39-7.69,19.95t-23.33,6.57H608.06ZM635.63,254q8.49,0,12.86-4t4.38-11.87q0-7-4.78-10.2T633,224.66H620.26V254Zm2.52,43.88q18.57,0,18.56-17,0-9.15-5.76-13.39t-18.23-4.24H620.26v34.6Z"/><path class="cls-1" d="M694,299.49q-8.41-9.47-8.41-28.16V214.85h12.33v56.21q0,27.84,21.07,27.84t21.08-27.84V214.85h12.19v56.48q0,18.56-8.41,28.1T719,309Q702.45,309,694,299.49Z"/><path class="cls-1" d="M842.29,214.85v92.8H830.23l-44.94-73.44v73.44H773.1v-92.8H786l44.14,72.51V214.85Z"/><path class="cls-1" d="M996.05,214.85h10.87v114H996.05Z"/><path class="cls-1" d="M1154.33,215.12v-1.86h12.19q6.76,0,13.52-.19t13.52-.2a106,106,0,0,1,12.6.79,72.71,72.71,0,0,1,13.12,2.85,59.79,59.79,0,0,1,12.33,5.5,40.06,40.06,0,0,1,17.5,21.35,56,56,0,0,1,0,34.06A41.76,41.76,0,0,1,1242,290a40.68,40.68,0,0,1-10.14,8.75,58.62,58.62,0,0,1-11.86,5.49,65,65,0,0,1-12.2,2.86,86,86,0,0,1-11.2.79q-7.56,0-15-.13t-15-.13h-12.19v-1.86h12.19V215.12Zm38.44,91.07a46.07,46.07,0,0,0,14.71-2.06,31.19,31.19,0,0,0,10.28-5.57,27.65,27.65,0,0,0,6.62-8,40.6,40.6,0,0,0,3.71-9.48,59.39,59.39,0,0,0,1.66-9.95q.4-5,.4-9.34a128.54,128.54,0,0,0-1.33-19.42,38.17,38.17,0,0,0-5.23-14.84,25.47,25.47,0,0,0-11-9.48q-7.1-3.31-18.63-3.32c-1.77,0-3.36,0-4.77.07a21,21,0,0,0-3.45.33v90.67A67.46,67.46,0,0,0,1192.77,306.19Z"/><path class="cls-1" d="M1306.9,213.26v1.86h-12.19v90.67h12.19v1.86h-43.61v-1.86h12.2V215.12h-12.2v-1.86Z"/><path class="cls-1" d="M1316.31,215.12v-1.86h12.19q6.76,0,13.53-.19t13.52-.2a105.93,105.93,0,0,1,12.59.79,72.53,72.53,0,0,1,13.12,2.85,59.79,59.79,0,0,1,12.33,5.5,40.06,40.06,0,0,1,17.5,21.35,56,56,0,0,1,0,34.06A41.53,41.53,0,0,1,1404,290a40.85,40.85,0,0,1-10.14,8.75,59,59,0,0,1-11.87,5.49,64.89,64.89,0,0,1-12.19,2.86,86.2,86.2,0,0,1-11.2.79q-7.56,0-15-.13t-15-.13h-12.19v-1.86h12.19V215.12Zm38.44,91.07a46.13,46.13,0,0,0,14.72-2.06,31.14,31.14,0,0,0,10.27-5.57,27.65,27.65,0,0,0,6.62-8,40.63,40.63,0,0,0,3.72-9.48,60.43,60.43,0,0,0,1.66-9.95q.39-5,.39-9.34a129.93,129.93,0,0,0-1.32-19.42,38.17,38.17,0,0,0-5.24-14.84,25.47,25.47,0,0,0-11-9.48q-7.1-3.31-18.63-3.32c-1.76,0-3.35,0-4.77.07a20.73,20.73,0,0,0-3.44.33v90.67A67.28,67.28,0,0,0,1354.75,306.19Z"/><path class="cls-1" d="M1430.24,240.31A52.32,52.32,0,0,1,1458,214.66a47,47,0,0,1,17.36-3.52,49.79,49.79,0,0,1,45.27,28.7,47.25,47.25,0,0,1,4.3,20.48,45.26,45.26,0,0,1-4,18.89A52.16,52.16,0,0,1,1510,294.92a51.39,51.39,0,0,1-15.77,10.67,46.62,46.62,0,0,1-18.89,3.91,48.18,48.18,0,0,1-18.82-3.78,50.52,50.52,0,0,1-26.78-25.78,47.44,47.44,0,0,1,.46-39.63Zm18.63,43.28q1.59,9.07,5,14.44a18.13,18.13,0,0,0,8.75,7.5,34.85,34.85,0,0,0,12.79,2.12q9.81,0,15.38-3.65a22.38,22.38,0,0,0,8.35-10.07,48.68,48.68,0,0,0,3.51-15.25q.74-8.81.73-19.15,0-9.28-.6-17.7a44.89,44.89,0,0,0-3.38-14.84,22.94,22.94,0,0,0-8.42-10.21q-5.62-3.78-15.57-3.78-9.29,0-14.85,3.51a22.38,22.38,0,0,0-8.48,9.88,48.09,48.09,0,0,0-3.84,15.11,182.67,182.67,0,0,0-.93,19.22A136.25,136.25,0,0,0,1448.87,283.59Z"/><path class="cls-1" d="M1562.87,215.12a34.69,34.69,0,0,0-8.75,1,18.1,18.1,0,0,0-6.89,3.44,22.24,22.24,0,0,0-5.44,6.83,57,57,0,0,0-4.37,11.13h-1.73V213.26h83.12v24.26h-1.72a57.58,57.58,0,0,0-4.38-11.13,22.37,22.37,0,0,0-5.43-6.83,18.22,18.22,0,0,0-6.9-3.44,34.69,34.69,0,0,0-8.75-1h-4.77v90.67h12.2v1.86h-43.62v-1.86h12.2V215.12Z"/></svg>