<svg id="Layer_1" data-name="Layer 1" xmlns="http://www.w3.org/2000/svg" xmlns:xlink="http://www.w3.org/1999/xlink" viewBox="0 0 1920 540"><defs><style>.cls-1{fill:none;}.cls-2{clip-path:url(#clip-path);}.cls-3{fill:#c6d33a;}.cls-4{fill:#4ba897;}.cls-5{clip-path:url(#clip-path-2);}.cls-6{fill:#333132;}.cls-7{fill:#727372;}</style><clipPath id="clip-path"><rect class="cls-1" x="335" y="160.8" width="1250" height="218.4"/></clipPath><clipPath id="clip-path-2"><rect class="cls-1" x="335" y="160.8" width="1250" height="218.4"/></clipPath></defs><g id="Main_Logo_-_Color" data-name="Main Logo - Color"><g class="cls-2"><polygon class="cls-3" points="988.04 160.8 962.01 192.92 988.25 225.27 962.02 257.63 988.04 289.73 1040.34 225.27 988.04 160.8"/><polygon class="cls-4" points="935.97 160.8 883.68 225.27 935.97 289.73 962 257.62 935.76 225.27 962 192.92 935.97 160.8"/><g class="cls-5"><path class="cls-6" d="M410.27,199.86c0,13.16-8,19.89-15.89,23.33,11.88,3.57,21.47,10.44,21.47,24.32,0,17.31-14.46,27.47-36.35,27.47H335V174.82h42.64c19.75,0,32.63,9.73,32.63,25m-11.45,1.57c0-10-7.87-16.45-22.18-16.45H346.16v34.48h29.62c13.6,0,23-6.15,23-18m5.58,45.36c0-11-9.16-17.31-26.62-17.31H346.16v35.34h33.63c15.16,0,24.61-6.72,24.61-18"/><path class="cls-6" d="M523.74,232.2c0,29.19-16.74,44.36-41.78,44.36-24.76,0-41.64-15.17-41.64-43.5V174.82h11.3v57.52c0,21.61,11.45,33.77,30.62,33.77,18.46,0,30.2-11.16,30.2-33.05V174.82h11.3Z"/><path class="cls-6" d="M623.05,275l-29-38.92H565.38V275H554.07V174.82h43.08c22,0,36.2,11.88,36.2,29.9,0,16.75-11.45,26.48-27.19,29.34L636.92,275Zm-26.76-89.72H565.38V225.9h30.76c15,0,25.76-7.72,25.76-20.75,0-12.44-9.45-19.89-25.61-19.89"/><polygon class="cls-6" points="734.8 174.82 745.81 174.82 745.81 274.98 736.8 274.98 672.12 192.85 672.12 274.98 661.11 274.98 661.11 174.82 671.69 174.82 734.8 255.09 734.8 174.82"/><path class="cls-6" d="M813.64,219.46c22.33,4.87,32.63,13,32.63,28.48,0,17.31-14.31,28.47-34.2,28.47-15.89,0-28.91-5.29-40.93-16l7-8.29c10.44,9.44,20.46,14.16,34.33,14.16,13.46,0,22.33-7,22.33-17.17,0-9.44-5-14.74-26-19.17-23-5-33.63-12.45-33.63-29,0-16,13.88-27.47,32.91-27.47,14.6,0,25,4.15,35.2,12.3l-6.59,8.73c-9.29-7.58-18.59-10.87-28.9-10.87-13,0-21.32,7.15-21.32,16.31,0,9.59,5.16,14.88,27.19,19.6"/><path class="cls-6" d="M1115.8,219.46c22.33,4.87,32.63,13,32.63,28.48,0,17.31-14.31,28.47-34.2,28.47-15.89,0-28.91-5.29-40.93-16l7-8.29c10.44,9.44,20.46,14.16,34.33,14.16,13.46,0,22.33-7,22.33-17.17,0-9.44-5-14.74-26-19.17-23-5-33.63-12.45-33.63-29,0-16,13.88-27.47,32.91-27.47,14.6,0,25,4.15,35.2,12.3l-6.59,8.73c-9.29-7.58-18.59-10.87-28.9-10.87-13,0-21.32,7.15-21.32,16.31,0,9.59,5.16,14.88,27.19,19.6"/><path class="cls-6" d="M1220.83,276.7c-28.9,0-50.22-22.75-50.22-51.66,0-28.61,21.18-51.94,50.65-51.94,18.18,0,29,6.44,39.06,15.89l-7.72,8.29c-8.45-8-17.89-13.73-31.48-13.73-22.18,0-38.78,17.88-38.78,41.21s16.74,41.49,38.78,41.49c13.74,0,22.75-5.29,32.33-14.45l7.44,7.3c-10.44,10.59-21.88,17.6-40.06,17.6"/><path class="cls-6" d="M1377.52,275h-12.17l-11.73-26.47h-54.51L1287.22,275h-11.58l45.64-100.88h10.59Zm-51.08-87.71-22.9,51.08h45.65Z"/><polygon class="cls-6" points="1400.84 174.82 1412.14 174.82 1412.14 264.54 1468.52 264.54 1468.52 274.98 1400.84 274.98 1400.84 174.82"/><path class="cls-6" d="M1533.77,276.7c-30.48,0-50.94-23.9-50.94-51.66s20.75-51.94,51.23-51.94S1585,197,1585,224.76s-20.75,51.94-51.23,51.94m0-93.15c-22.89,0-39.21,18.31-39.21,41.21s16.6,41.49,39.5,41.49,39.21-18.31,39.21-41.21-16.61-41.49-39.5-41.49"/><path class="cls-7" d="M621.66,378.47,607,358.78H592.49v19.69h-5.72V327.8h21.79c11.14,0,18.31,6,18.31,15.13,0,8.47-5.79,13.39-13.75,14.84l15.56,20.7Zm-13.54-45.39H592.49v20.56h15.56c7.6,0,13-3.91,13-10.49,0-6.3-4.78-10.07-13-10.07"/><polygon class="cls-7" points="701.05 333.01 670.14 333.01 670.14 350.31 697.8 350.31 697.8 355.53 670.14 355.53 670.14 373.26 701.41 373.26 701.41 378.47 664.42 378.47 664.42 327.8 701.05 327.8 701.05 333.01"/><path class="cls-7" d="M785.45,378.47h-6.16l-5.93-13.39H745.77l-6,13.39H733.9l23.09-51h5.36ZM759.6,334.1,748,359.94h23.09Z"/><polygon class="cls-7" points="820.75 327.8 826.47 327.8 826.47 373.19 855 373.19 855 378.47 820.75 378.47 820.75 327.8"/><polygon class="cls-7" points="974.55 333.01 943.64 333.01 943.64 350.31 971.3 350.31 971.3 355.53 943.64 355.53 943.64 373.26 974.91 373.26 974.91 378.47 937.92 378.47 937.92 327.8 974.55 327.8 974.55 333.01"/><path class="cls-7" d="M1029.92,350.39c11.28,2.45,16.5,6.58,16.5,14.4,0,8.76-7.24,14.41-17.3,14.41a29.65,29.65,0,0,1-20.71-8.11l3.55-4.2c5.29,4.78,10.35,7.17,17.37,7.17,6.81,0,11.3-3.55,11.3-8.69,0-4.78-2.53-7.46-13.18-9.7-11.65-2.53-17-6.3-17-14.7,0-8.11,7-13.9,16.65-13.9a26.37,26.37,0,0,1,17.8,6.23l-3.32,4.42a22.24,22.24,0,0,0-14.63-5.51c-6.58,0-10.78,3.62-10.78,8.26,0,4.85,2.6,7.53,13.76,9.92"/><polygon class="cls-7" points="1101.49 378.47 1095.69 378.47 1095.69 333.08 1078.69 333.08 1078.69 327.8 1118.5 327.8 1118.5 333.08 1101.49 333.08 1101.49 378.47"/><path class="cls-7" d="M1195.22,378.47h-6.15l-5.94-13.39h-27.58l-6,13.39h-5.88l23.1-51h5.36Zm-25.84-44.37-11.58,25.84h23.09Z"/><polygon class="cls-7" points="1243.19 378.47 1237.41 378.47 1237.41 333.08 1220.39 333.08 1220.39 327.8 1260.21 327.8 1260.21 333.08 1243.19 333.08 1243.19 378.47"/><polygon class="cls-7" points="1332.88 333.01 1301.96 333.01 1301.96 350.31 1329.62 350.31 1329.62 355.53 1301.96 355.53 1301.96 373.26 1333.24 373.26 1333.24 378.47 1296.24 378.47 1296.24 327.8 1332.88 327.8 1332.88 333.01"/></g></g></g></svg>