<svg id="Layer_1" data-name="Layer 1" xmlns="http://www.w3.org/2000/svg" viewBox="0 0 1920 540"><defs><style>.cls-1{fill:#c6d33a;}</style></defs><path d="M328.38,174h44.28v13H343.48v8.34h26.43v12H343.48V216h29.58v13H328.38Z"/><path d="M380.85,174h15.26v41.69h26.66V229H380.85Z"/><path d="M429.3,174h44.29v13H444.41v8.34h26.43v12H444.41V216H474v13H429.3Z"/><path d="M477.37,174h17.07l12.5,34.84L519.45,174H536.2l-22.34,55.45H499.71Z"/><path d="M552.72,173.57h14.71L590.87,229H574.51l-4-9.83H549.26L545.33,229h-16Zm13.38,33.74L560,191.66l-6.21,15.65Z"/><path d="M602.6,187.33H586.08V174h48.3v13.37H617.86V229H602.6Z"/><path d="M641.07,174h44.28v13H656.17v8.34H682.6v12H656.17V216h29.57v13H641.07Z"/><path d="M693.53,174h21.24c19.67,0,31.07,11.33,31.07,27.21v.16c0,15.89-11.56,27.69-31.38,27.69H693.53ZM715,215.49c9.12,0,15.18-5,15.18-13.92v-.16c0-8.81-6.06-13.92-15.18-13.92h-6.22v28Z"/><path d="M231.86,244.34h44.29v13H247v8.34h26.43v12H247v8.73h29.58v13H231.86Z"/><path d="M299.2,271.4l-18.1-27.06h17.55l9.75,15.5,9.83-15.5h17.15l-18.09,26.9,18.88,28.16H318.63l-10.55-16.59L297.47,299.4H280.32Z"/><path d="M341.91,244.34h23.6c13.92,0,22.89,7.16,22.89,19.35v.16c0,13-10,19.82-23.68,19.82h-7.55V299.4H341.91Zm22.5,27.38c5.42,0,8.73-2.84,8.73-7.16v-.16c0-4.72-3.31-7.24-8.81-7.24h-7.16v14.56Z"/><path d="M394.85,244.34h44.29v13H410v8.34h26.43v12H410v8.73h29.58v13H394.85Z"/><path d="M447.32,244.34h26c8.41,0,14.23,2.2,17.93,6,3.22,3.15,4.88,7.39,4.88,12.82v.16c0,8.42-4.49,14-11.33,16.91L498,299.4H480.36l-11.1-16.67h-6.68V299.4H447.32Zm25.33,26.43c5.19,0,8.18-2.52,8.18-6.53v-.15c0-4.33-3.15-6.53-8.26-6.53h-10v13.21Z"/><path d="M504.19,244.34h15.34V299.4H504.19Z"/><path d="M529.6,244.34h44.29v13H544.7v8.34h26.43v12H544.7v8.73h29.58v13H529.6Z"/><path d="M582.07,244.34h14.24L619,273.45V244.34h15.1V299.4H620.69l-23.52-30.2v30.2h-15.1Z"/><path d="M641.93,272v-.16c0-16,12.35-28.63,29-28.63,11.24,0,18.48,4.72,23.36,11.49l-11.49,8.88c-3.14-3.93-6.76-6.45-12-6.45-7.71,0-13.14,6.53-13.14,14.56v.15c0,8.26,5.43,14.71,13.14,14.71,5.74,0,9.12-2.67,12.43-6.68l11.48,8.18c-5.19,7.15-12.19,12.42-24.38,12.42A28,28,0,0,1,641.93,272Z"/><path d="M701.24,244.34h44.29v13H716.35v8.34h26.42v12H716.35v8.73h29.57v13H701.24Z"/><path d="M240,369.21a12.74,12.74,0,0,1-2.89-.32,11.65,11.65,0,0,1-2.73-1,12.1,12.1,0,0,1-2.41-1.62l1.17,0-2.34,2.81h-.29l2.33-9.35h.3a33.9,33.9,0,0,0,1.57,5.2,6.81,6.81,0,0,0,2,2.83,5.25,5.25,0,0,0,3.34,1,5.48,5.48,0,0,0,2.64-.62,4.6,4.6,0,0,0,1.81-1.77,5.4,5.4,0,0,0,.66-2.72,3,3,0,0,0-.68-2,6.36,6.36,0,0,0-1.62-1.43c-.63-.38-1.53-.87-2.7-1.45a31.34,31.34,0,0,1-3.14-1.7,7.19,7.19,0,0,1-2-1.9,4.52,4.52,0,0,1-.82-2.72,6.74,6.74,0,0,1,1.15-3.86,7.82,7.82,0,0,1,3.14-2.7,9.7,9.7,0,0,1,4.39-1,12.35,12.35,0,0,1,2.61.29A15.13,15.13,0,0,1,248,346a10.74,10.74,0,0,1,2.06,1.11l-1.16,0,2-2.37h.32l-2,7.81h-.32a24.85,24.85,0,0,0-1.3-3.9,6,6,0,0,0-1.84-2.39,4.89,4.89,0,0,0-3.07-.9,6.25,6.25,0,0,0-2.68.53,3.63,3.63,0,0,0-1.66,1.5,4.51,4.51,0,0,0-.55,2.24,2.87,2.87,0,0,0,.64,1.82,6.14,6.14,0,0,0,1.61,1.41q1,.6,2.61,1.44a34.4,34.4,0,0,1,3.17,1.77,7.8,7.8,0,0,1,2.06,1.95,4.59,4.59,0,0,1,.86,2.78,8,8,0,0,1-1.2,4.27,8.73,8.73,0,0,1-3.23,3A9,9,0,0,1,240,369.21Z"/><path d="M256.19,347a1.41,1.41,0,0,0,0-.92.79.79,0,0,0-.62-.38,12.06,12.06,0,0,0-1.53-.13h0l0-.32h7.41l-1.54,5.87-2.22,8.06.25.22-.8,3.1-1.57,6.28h-4.89ZM264,369.07a4.33,4.33,0,0,1-1.77-.35,2.85,2.85,0,0,1-1.22-1,2.58,2.58,0,0,1-.44-1.48,8,8,0,0,1,.4-2.06c.27-.91.67-2.17,1.21-3.78s.85-2.66,1.11-3.52a7.31,7.31,0,0,0,.38-1.92,1,1,0,0,0-.4-.82,1.49,1.49,0,0,0-.91-.31,2.39,2.39,0,0,0-1.44.73,9.67,9.67,0,0,0-1.83,2.67,28.93,28.93,0,0,0-1.95,5.21l.44-3.72h.47a22.05,22.05,0,0,1,1.94-3.9,7.18,7.18,0,0,1,2.13-2.21,4.85,4.85,0,0,1,2.57-.71,3.89,3.89,0,0,1,1.85.44,3.32,3.32,0,0,1,1.29,1.2,3.16,3.16,0,0,1,.48,1.72,8.74,8.74,0,0,1-.44,2.2c-.29,1-.73,2.36-1.31,4.11-.47,1.39-.83,2.5-1.08,3.36a7.11,7.11,0,0,0-.38,1.78.76.76,0,0,0,.2.55.61.61,0,0,0,.49.22c.49,0,1-.41,1.55-1.24a18.16,18.16,0,0,0,1.7-3.65l.36.11a16.9,16.9,0,0,1-1.62,3.72,6.29,6.29,0,0,1-1.85,2A3.55,3.55,0,0,1,264,369.07Z"/><path d="M275.82,369.21a4,4,0,0,1-2.3-.74,5.12,5.12,0,0,1-1.69-2.25,9.18,9.18,0,0,1-.64-3.65,10.31,10.31,0,0,1,1.39-5.16,11.73,11.73,0,0,1,3.57-4,7.65,7.65,0,0,1,4.38-1.51,3,3,0,0,1,1.62.42,2.72,2.72,0,0,1,1,1.2,5.4,5.4,0,0,1,.44,2l-.33,0a5.79,5.79,0,0,0-.29-1.48,2.12,2.12,0,0,0-.62-.94,1.47,1.47,0,0,0-1-.35c-.95,0-1.85.76-2.7,2.3a22.6,22.6,0,0,0-2.06,5.32,19.89,19.89,0,0,0-.79,4.68,3.58,3.58,0,0,0,.39,1.86,1.17,1.17,0,0,0,1,.62,2.43,2.43,0,0,0,1.69-1,11.12,11.12,0,0,0,1.72-2.72A22.28,22.28,0,0,0,282,360l2-7.52h4.81l-2.62,10c-.37,1.36-.63,2.35-.77,3a6.53,6.53,0,0,0-.22,1.22,1,1,0,0,0,.22.69.72.72,0,0,0,.58.26c.44,0,.93-.4,1.46-1.19a15.07,15.07,0,0,0,1.61-3.74l.36.11a16.15,16.15,0,0,1-1.57,3.79,6.37,6.37,0,0,1-1.82,2.1,3.45,3.45,0,0,1-2,.64,3.08,3.08,0,0,1-2.19-.77,2.75,2.75,0,0,1-.84-2.15,12.2,12.2,0,0,1,.24-2.1c.16-.86.38-1.84.67-2.93l.95.43-.62,1.35-.91-.14A17,17,0,0,1,280,366a8.35,8.35,0,0,1-1.88,2.3A3.54,3.54,0,0,1,275.82,369.21Z"/><path d="M286.7,374.83a14,14,0,0,0,1.47-.25,1.45,1.45,0,0,0,.68-.37,1.49,1.49,0,0,0,.36-.8l6.43-24.59,5.18-1.46L294,373.41a1.18,1.18,0,0,0,0,.79.82.82,0,0,0,.53.34,15,15,0,0,0,1.57.29h.07l-.07.33h-9.49Zm11.71-5.58a3.37,3.37,0,0,1-1.62-.36,2.55,2.55,0,0,1-1.05-1.06,4.64,4.64,0,0,1-.47-1.64l.37-.08a4.41,4.41,0,0,0,.27,1.21,1.66,1.66,0,0,0,.62.8,1.82,1.82,0,0,0,1,.29c.95,0,1.85-.76,2.7-2.3a22.43,22.43,0,0,0,2.06-5.32,20.45,20.45,0,0,0,.79-4.67,4.21,4.21,0,0,0-.79-2.78,2.87,2.87,0,0,0-2.32-.91,9.94,9.94,0,0,0-4.72,1,8.71,8.71,0,0,0-3,2.63,21.71,21.71,0,0,0-2.17,4l-.37-.11a19.37,19.37,0,0,1,2.49-4.51,8.57,8.57,0,0,1,3.37-2.61,12.85,12.85,0,0,1,5.05-.87,9,9,0,0,1,3.78.73,5.3,5.3,0,0,1,2.46,2.22,7.15,7.15,0,0,1,.88,3.69,10.31,10.31,0,0,1-1.39,5.16,11.73,11.73,0,0,1-3.57,4A7.65,7.65,0,0,1,298.41,369.25Z"/><path d="M314,369.07a4.4,4.4,0,0,1-1.77-.35,2.85,2.85,0,0,1-1.22-1,2.58,2.58,0,0,1-.44-1.48,9,9,0,0,1,.42-2.17c.28-1,.69-2.33,1.22-4,.49-1.49.86-2.69,1.12-3.62a8.84,8.84,0,0,0,.38-2,.85.85,0,0,0-.18-.55.61.61,0,0,0-.51-.22c-.49,0-1,.41-1.55,1.24a17.62,17.62,0,0,0-1.7,3.65l-.37-.11a16.33,16.33,0,0,1,1.65-3.74,6.69,6.69,0,0,1,1.88-2.08,3.49,3.49,0,0,1,1.91-.64,3.92,3.92,0,0,1,1.75.37,3,3,0,0,1,1.21,1,2.71,2.71,0,0,1,.43,1.53,9.87,9.87,0,0,1-.45,2.37c-.31,1.07-.73,2.45-1.26,4.13-.46,1.43-.82,2.59-1.08,3.46a8.14,8.14,0,0,0-.38,1.86.81.81,0,0,0,.2.55.67.67,0,0,0,.53.22c.49,0,1-.41,1.55-1.24a18.16,18.16,0,0,0,1.7-3.65l.36.11a16.44,16.44,0,0,1-1.62,3.72,6.39,6.39,0,0,1-1.84,2A3.61,3.61,0,0,1,314,369.07Zm3.25-18.5a2.87,2.87,0,0,1-1.51-.4,2.74,2.74,0,0,1-1.06-1.1,3,3,0,0,1-.39-1.49,2.9,2.9,0,0,1,.39-1.48,2.7,2.7,0,0,1,1.06-1.06,3.05,3.05,0,0,1,1.51-.38,3,3,0,0,1,1.5.38,2.94,2.94,0,0,1,1,1.06,3,3,0,0,1,.38,1.48,3.09,3.09,0,0,1-.38,1.49,3,3,0,0,1-1,1.1A2.81,2.81,0,0,1,317.2,350.57Z"/><path d="M323.44,358.78c.36-1.36.62-2.35.77-3a7.19,7.19,0,0,0,.21-1.23,1.05,1.05,0,0,0-.21-.69.76.76,0,0,0-.59-.26c-.44,0-.92.4-1.46,1.19a15.11,15.11,0,0,0-1.6,3.74l-.37-.11a16.59,16.59,0,0,1,1.57-3.79,6.37,6.37,0,0,1,1.82-2.1,3.48,3.48,0,0,1,2-.64,3.08,3.08,0,0,1,2.18.77,2.75,2.75,0,0,1,.84,2.15,13.08,13.08,0,0,1-.23,2.1c-.16.86-.39,1.84-.68,2.93H328l-.69,2.59-1.64,6.28h-4.82Zm10.69,10.29a4.33,4.33,0,0,1-1.77-.35,2.85,2.85,0,0,1-1.22-1,2.58,2.58,0,0,1-.44-1.48,8,8,0,0,1,.4-2.06c.27-.91.67-2.17,1.21-3.78s.85-2.66,1.11-3.52a7.75,7.75,0,0,0,.38-1.92,1,1,0,0,0-.35-.82,1.3,1.3,0,0,0-.89-.31,2.46,2.46,0,0,0-1.46.73,9.63,9.63,0,0,0-1.86,2.67,28,28,0,0,0-2,5.21l.44-3.72h.44a25.22,25.22,0,0,1,2-3.92,7.19,7.19,0,0,1,2.12-2.19,4.82,4.82,0,0,1,2.57-.71,3.92,3.92,0,0,1,1.85.44,3.39,3.39,0,0,1,1.29,1.2,3.16,3.16,0,0,1,.48,1.72,8.74,8.74,0,0,1-.44,2.2q-.44,1.49-1.32,4.11c-.46,1.39-.82,2.5-1.07,3.36a7.28,7.28,0,0,0-.39,1.78.77.77,0,0,0,.21.55.61.61,0,0,0,.49.22c.48,0,1-.41,1.55-1.24a18.16,18.16,0,0,0,1.7-3.65l.36.11a16.9,16.9,0,0,1-1.62,3.72,6.29,6.29,0,0,1-1.85,2A3.55,3.55,0,0,1,334.13,369.07Z"/><path d="M345.33,375.67a6.52,6.52,0,0,1-3.14-.65,3.24,3.24,0,0,1-1.55-1.79,4.17,4.17,0,0,1,0-2.52l4.09-.18a15.06,15.06,0,0,0-.7,2.43,3.08,3.08,0,0,0,.09,1.69,1.19,1.19,0,0,0,1.23.66,3.33,3.33,0,0,0,1.8-.51,4.77,4.77,0,0,0,1.54-1.83,17.74,17.74,0,0,0,1.33-3.61l1.86-7.11.58.76-.87-.14a16.59,16.59,0,0,1-2.41,4.52,4.07,4.07,0,0,1-3.25,1.82,4,4,0,0,1-2.3-.74,5.12,5.12,0,0,1-1.69-2.25,9.18,9.18,0,0,1-.64-3.65,10.4,10.4,0,0,1,1.38-5.16,11.87,11.87,0,0,1,3.58-4,7.65,7.65,0,0,1,4.38-1.51,3,3,0,0,1,1.62.42,2.72,2.72,0,0,1,1,1.2,5.61,5.61,0,0,1,.44,2l-.33,0a5.79,5.79,0,0,0-.29-1.48,2.21,2.21,0,0,0-.62-.94,1.47,1.47,0,0,0-1-.35c-.95,0-1.85.76-2.7,2.3a22.6,22.6,0,0,0-2.06,5.32,19.89,19.89,0,0,0-.79,4.68,3.69,3.69,0,0,0,.38,1.86,1.19,1.19,0,0,0,1,.62,2.55,2.55,0,0,0,1.74-1,10.67,10.67,0,0,0,1.77-2.79,25.36,25.36,0,0,0,1.46-4.18l1.82-7.15H359l-4.27,16.31a8.92,8.92,0,0,1-3.27,5.24A10.2,10.2,0,0,1,345.33,375.67Z"/><path d="M377.33,369.21a12.71,12.71,0,0,1-2.88-.32,11.89,11.89,0,0,1-2.74-1,12.4,12.4,0,0,1-2.41-1.62l1.17,0-2.33,2.81h-.3l2.34-9.35h.29A35.07,35.07,0,0,0,372,365a6.81,6.81,0,0,0,2,2.83,5.27,5.27,0,0,0,3.34,1,5.54,5.54,0,0,0,2.65-.62,4.57,4.57,0,0,0,1.8-1.77,5.4,5.4,0,0,0,.66-2.72,3,3,0,0,0-.67-2,6.4,6.4,0,0,0-1.63-1.43c-.63-.38-1.53-.87-2.7-1.45a32.5,32.5,0,0,1-3.14-1.7,7.16,7.16,0,0,1-2-1.9,4.52,4.52,0,0,1-.83-2.72,6.82,6.82,0,0,1,1.15-3.86,7.89,7.89,0,0,1,3.14-2.7,9.74,9.74,0,0,1,4.4-1,12.5,12.5,0,0,1,2.61.29,15.42,15.42,0,0,1,2.52.79,11.05,11.05,0,0,1,2.06,1.11l-1.17,0,2-2.37h.33l-2,7.81h-.33a23.85,23.85,0,0,0-1.3-3.9,6,6,0,0,0-1.84-2.39,4.88,4.88,0,0,0-3.06-.9,6.29,6.29,0,0,0-2.69.53,3.63,3.63,0,0,0-1.66,1.5,4.5,4.5,0,0,0-.54,2.24,2.81,2.81,0,0,0,.64,1.82,6.1,6.1,0,0,0,1.6,1.41q1,.6,2.61,1.44a34.4,34.4,0,0,1,3.17,1.77,7.83,7.83,0,0,1,2.07,1.95,4.59,4.59,0,0,1,.85,2.78,8,8,0,0,1-1.2,4.27,8.66,8.66,0,0,1-3.23,3A8.92,8.92,0,0,1,377.33,369.21Z"/><path d="M385.07,374.83a14,14,0,0,0,1.47-.25,1.45,1.45,0,0,0,.68-.37,1.49,1.49,0,0,0,.36-.8L394,348.82l5.19-1.46-6.79,26.05a1.18,1.18,0,0,0,0,.79.82.82,0,0,0,.53.34,15,15,0,0,0,1.57.29h.07l-.07.33H385Zm11.71-5.58a3.41,3.41,0,0,1-1.63-.36,2.59,2.59,0,0,1-1-1.06,4.64,4.64,0,0,1-.47-1.64l.36-.08a4.4,4.4,0,0,0,.28,1.21,1.66,1.66,0,0,0,.62.8,1.8,1.8,0,0,0,1,.29c.95,0,1.85-.76,2.7-2.3a22.43,22.43,0,0,0,2.06-5.32,20.32,20.32,0,0,0,.78-4.67,4.21,4.21,0,0,0-.78-2.78,2.89,2.89,0,0,0-2.32-.91,9.94,9.94,0,0,0-4.72,1,8.62,8.62,0,0,0-3,2.63,21.71,21.71,0,0,0-2.17,4l-.37-.11a19.37,19.37,0,0,1,2.48-4.51,8.6,8.6,0,0,1,3.38-2.61A12.82,12.82,0,0,1,399,352a9,9,0,0,1,3.78.73,5.3,5.3,0,0,1,2.46,2.22,7.15,7.15,0,0,1,.88,3.69,10.31,10.31,0,0,1-1.39,5.16,11.73,11.73,0,0,1-3.57,4A7.65,7.65,0,0,1,396.78,369.25Z"/><path d="M412.94,369.21a4,4,0,0,1-2.3-.74,5.12,5.12,0,0,1-1.69-2.25,9.18,9.18,0,0,1-.64-3.65,10.4,10.4,0,0,1,1.38-5.16,11.87,11.87,0,0,1,3.58-4,7.65,7.65,0,0,1,4.38-1.51,3,3,0,0,1,1.62.42,2.72,2.72,0,0,1,1,1.2,5.4,5.4,0,0,1,.44,2l-.33,0a5.79,5.79,0,0,0-.29-1.48,2.21,2.21,0,0,0-.62-.94,1.47,1.47,0,0,0-1-.35c-.95,0-1.85.76-2.7,2.3a22.6,22.6,0,0,0-2.06,5.32,19.89,19.89,0,0,0-.79,4.68,3.58,3.58,0,0,0,.39,1.86,1.17,1.17,0,0,0,1,.62,2.43,2.43,0,0,0,1.69-1,11.12,11.12,0,0,0,1.72-2.72,21.49,21.49,0,0,0,1.36-3.88l2-7.52h4.81l-2.63,10c-.36,1.36-.62,2.35-.76,3a6.53,6.53,0,0,0-.22,1.22,1,1,0,0,0,.22.69.72.72,0,0,0,.58.26c.44,0,.93-.4,1.46-1.19a15.07,15.07,0,0,0,1.61-3.74l.36.11a16.15,16.15,0,0,1-1.57,3.79,6.37,6.37,0,0,1-1.82,2.1,3.45,3.45,0,0,1-2,.64,3.08,3.08,0,0,1-2.19-.77,2.75,2.75,0,0,1-.84-2.15,12.2,12.2,0,0,1,.24-2.1c.15-.86.38-1.84.67-2.93l.95.43-.62,1.35-.91-.14a17,17,0,0,1-1.35,3.08,8.35,8.35,0,0,1-1.88,2.3A3.54,3.54,0,0,1,412.94,369.21Z"/><path d="M434.4,369.25a6.2,6.2,0,0,1-3.22-.87,6.33,6.33,0,0,1-2.31-2.47,7.61,7.61,0,0,1-.86-3.66,10,10,0,0,1,1.35-5,11.21,11.21,0,0,1,3.54-3.88,8.06,8.06,0,0,1,4.6-1.48,4.32,4.32,0,0,1,2.79.84,3.83,3.83,0,0,1,1.35,2.12,5.66,5.66,0,0,1,0,2.59l-4.53.36a19,19,0,0,0,1.15-2.5,4.1,4.1,0,0,0,.33-2.06,1,1,0,0,0-1.11-.84,3.09,3.09,0,0,0-2.63,1.62,11.84,11.84,0,0,0-1.57,4.13,25.48,25.48,0,0,0-.51,5.12,7.36,7.36,0,0,0,.42,2.72,3,3,0,0,0,1.17,1.5,3.28,3.28,0,0,0,1.73.45,3,3,0,0,0,1.61-.51,5.77,5.77,0,0,0,1.58-1.66,12.11,12.11,0,0,0,1.41-3l.36.15a9.78,9.78,0,0,1-2.72,4.78A5.88,5.88,0,0,1,434.4,369.25Z"/><path d="M449.65,369.25a6.36,6.36,0,0,1-3.18-.82,6.12,6.12,0,0,1-2.33-2.35,7,7,0,0,1-.88-3.58,10.21,10.21,0,0,1,1.39-5.14,11.24,11.24,0,0,1,3.65-3.94,8.51,8.51,0,0,1,4.78-1.5,6.48,6.48,0,0,1,2.57.47,4,4,0,0,1,1.66,1.28,2.87,2.87,0,0,1,.58,1.72q0,2.66-2.88,3.85a19.21,19.21,0,0,1-7.26,1.18l.07-.4a7,7,0,0,0,3.72-.75,5,5,0,0,0,2.14-2.22,7.06,7.06,0,0,0,.67-3.09,2,2,0,0,0-.29-1.22,1.1,1.1,0,0,0-.95-.38c-.9,0-1.74.62-2.51,1.86a16,16,0,0,0-1.86,4.49,18.43,18.43,0,0,0-.7,4.74,11.15,11.15,0,0,0,.29,2.81,2.53,2.53,0,0,0,2.78,2.08,3.79,3.79,0,0,0,1.88-.59,6.34,6.34,0,0,0,1.93-1.89,11.65,11.65,0,0,0,1.55-3.32l.4.07a12.6,12.6,0,0,1-1.9,4,6.56,6.56,0,0,1-2.46,2.08A6.88,6.88,0,0,1,449.65,369.25Z"/><path d="M463.66,369.25a6.68,6.68,0,0,1-3.65-.87,4.13,4.13,0,0,1-1.77-2.19,4.85,4.85,0,0,1-.09-2.67l4.52-.18a10.79,10.79,0,0,0-1,2.5,3,3,0,0,0,.09,2.12c.28.57.92.85,1.92.85a4.16,4.16,0,0,0,1.55-.27,2.36,2.36,0,0,0,1.06-.82,2.28,2.28,0,0,0,.38-1.32,3,3,0,0,0-.4-1.53,5.09,5.09,0,0,0-1-1.22c-.39-.35-.92-.78-1.6-1.29s-1.44-1.14-1.92-1.59a6.1,6.1,0,0,1-1.2-1.63,4.65,4.65,0,0,1-.49-2.19,3.87,3.87,0,0,1,1-2.71,6.45,6.45,0,0,1,2.61-1.74,9,9,0,0,1,3.17-.58,6.22,6.22,0,0,1,3.54.87,4.05,4.05,0,0,1,1.66,2.19,5,5,0,0,1,.05,2.67l-4.52.18a11.37,11.37,0,0,0,1.09-2.52,3.15,3.15,0,0,0,0-2.1c-.23-.57-.81-.85-1.73-.85a3.75,3.75,0,0,0-1.5.29,2.49,2.49,0,0,0-1.09.84,2.08,2.08,0,0,0-.4,1.28,3,3,0,0,0,.38,1.47,4.74,4.74,0,0,0,1,1.21c.4.35.93.79,1.58,1.33a24.71,24.71,0,0,1,1.92,1.64,6.8,6.8,0,0,1,1.22,1.64,4.5,4.5,0,0,1,.51,2.16,4.14,4.14,0,0,1-.93,2.73,5.69,5.69,0,0,1-2.5,1.72A9.92,9.92,0,0,1,463.66,369.25Z"/><path d="M486.35,345.21h20.33L504.82,354h-.37a.18.18,0,0,0,0-.11.27.27,0,0,1,0-.11q-.95-3.9-1.45-5.4a5,5,0,0,0-1.21-2.09,3,3,0,0,0-2.08-.61h-6.53a4.46,4.46,0,0,0-2.33.59,9,9,0,0,0-2.18,2q-1.19,1.39-3.88,5l-.28.37a4.22,4.22,0,0,1-.27.36h-.36Zm-1.42,23.2c1-.1,1.74-.18,2.15-.25a2,2,0,0,0,.92-.37,1.56,1.56,0,0,0,.43-.8l5.44-21.78h5.29L493.72,367a1.05,1.05,0,0,0,0,.8,1.11,1.11,0,0,0,.73.37c.38.07,1,.15,2,.25l-.08.33H484.86Z"/><path d="M510.58,347a1.41,1.41,0,0,0,0-.92.81.81,0,0,0-.62-.38,12.25,12.25,0,0,0-1.53-.13h0l0-.32h7.41l-1.54,5.87-2.22,8.06.25.22-.8,3.1L510,368.74h-4.89Zm7.81,22.11a4.33,4.33,0,0,1-1.77-.35,2.85,2.85,0,0,1-1.22-1,2.58,2.58,0,0,1-.44-1.48,8,8,0,0,1,.4-2.06c.27-.91.67-2.17,1.21-3.78s.85-2.66,1.11-3.52a7.75,7.75,0,0,0,.38-1.92,1,1,0,0,0-.4-.82,1.49,1.49,0,0,0-.91-.31,2.34,2.34,0,0,0-1.44.73,9.67,9.67,0,0,0-1.83,2.67,28.93,28.93,0,0,0-2,5.21l.44-3.72h.47a21.39,21.39,0,0,1,1.94-3.9,7.07,7.07,0,0,1,2.13-2.21,4.82,4.82,0,0,1,2.57-.71,3.92,3.92,0,0,1,1.85.44,3.39,3.39,0,0,1,1.29,1.2,3.16,3.16,0,0,1,.48,1.72,8.74,8.74,0,0,1-.44,2.2q-.43,1.49-1.32,4.11c-.46,1.39-.82,2.5-1.07,3.36a7.28,7.28,0,0,0-.39,1.78.81.81,0,0,0,.2.55.65.65,0,0,0,.5.22c.48,0,1-.41,1.55-1.24a18.16,18.16,0,0,0,1.7-3.65l.36.11a16.9,16.9,0,0,1-1.62,3.72,6.29,6.29,0,0,1-1.85,2A3.55,3.55,0,0,1,518.39,369.07Z"/><path d="M530.21,369.21a4,4,0,0,1-2.3-.74,5.12,5.12,0,0,1-1.69-2.25,9.18,9.18,0,0,1-.64-3.65,10.4,10.4,0,0,1,1.38-5.16,11.87,11.87,0,0,1,3.58-4,7.65,7.65,0,0,1,4.38-1.51,3,3,0,0,1,1.62.42,2.72,2.72,0,0,1,1,1.2,5.61,5.61,0,0,1,.44,2l-.33,0a5.79,5.79,0,0,0-.29-1.48,2.21,2.21,0,0,0-.62-.94,1.47,1.47,0,0,0-1-.35c-1,0-1.85.76-2.7,2.3a22.6,22.6,0,0,0-2.06,5.32,19.89,19.89,0,0,0-.79,4.68,3.69,3.69,0,0,0,.38,1.86,1.19,1.19,0,0,0,1,.62,2.44,2.44,0,0,0,1.7-1,11.12,11.12,0,0,0,1.72-2.72,21.49,21.49,0,0,0,1.36-3.88l2-7.52h4.82l-2.63,10c-.36,1.36-.62,2.35-.76,3a6.53,6.53,0,0,0-.22,1.22,1,1,0,0,0,.22.69.72.72,0,0,0,.58.26c.44,0,.93-.4,1.46-1.19a15.07,15.07,0,0,0,1.61-3.74l.36.11a16.15,16.15,0,0,1-1.57,3.79,6.37,6.37,0,0,1-1.82,2.1,3.45,3.45,0,0,1-2,.64,3.08,3.08,0,0,1-2.19-.77,2.75,2.75,0,0,1-.84-2.15,12.2,12.2,0,0,1,.24-2.1c.15-.86.38-1.84.67-2.93l.95.43-.62,1.35-.91-.14a17,17,0,0,1-1.35,3.08,8.35,8.35,0,0,1-1.88,2.3A3.54,3.54,0,0,1,530.21,369.21Z"/><path d="M548.64,369.25a3.66,3.66,0,0,1-2.7-.86,3.35,3.35,0,0,1-.88-2.35,13.83,13.83,0,0,1,.51-3.61l2.59-10h8.5l-.14.51H545.57l.11-.51h.91a2.39,2.39,0,0,0,1.46-.4,2.61,2.61,0,0,0,.84-1.5l1.32-4.52h4.52l-4.56,17.29a17.57,17.57,0,0,0-.51,2.63,2.06,2.06,0,0,0,.16,1.26.85.85,0,0,0,.75.35,2.49,2.49,0,0,0,1.81-1.17,14.21,14.21,0,0,0,1.88-3.76l.36.11a12.59,12.59,0,0,1-2.68,5A4.64,4.64,0,0,1,548.64,369.25Z"/><path d="M573.48,369.21a12.71,12.71,0,0,1-2.88-.32,11.65,11.65,0,0,1-2.73-1,12.1,12.1,0,0,1-2.41-1.62l1.16,0-2.33,2.81H564l2.33-9.35h.29a36.33,36.33,0,0,0,1.57,5.2,6.82,6.82,0,0,0,2,2.83,5.25,5.25,0,0,0,3.34,1,5.48,5.48,0,0,0,2.64-.62,4.6,4.6,0,0,0,1.81-1.77,5.4,5.4,0,0,0,.66-2.72,3,3,0,0,0-.68-2,6.36,6.36,0,0,0-1.62-1.43c-.64-.38-1.54-.87-2.7-1.45a31.34,31.34,0,0,1-3.14-1.7,7.19,7.19,0,0,1-2-1.9,4.52,4.52,0,0,1-.82-2.72,6.74,6.74,0,0,1,1.15-3.86,7.82,7.82,0,0,1,3.14-2.7,9.7,9.7,0,0,1,4.39-1,12.5,12.5,0,0,1,2.61.29,15.13,15.13,0,0,1,2.52.79,10.74,10.74,0,0,1,2.06,1.11l-1.17,0,2-2.37h.33l-2,7.81h-.33a24,24,0,0,0-1.29-3.9,6.11,6.11,0,0,0-1.84-2.39,4.89,4.89,0,0,0-3.07-.9,6.25,6.25,0,0,0-2.68.53,3.58,3.58,0,0,0-1.66,1.5,4.4,4.4,0,0,0-.55,2.24,2.81,2.81,0,0,0,.64,1.82,6.14,6.14,0,0,0,1.61,1.41c.64.4,1.51.88,2.6,1.44a33.45,33.45,0,0,1,3.18,1.77,7.8,7.8,0,0,1,2.06,1.95,4.59,4.59,0,0,1,.86,2.78,7.88,7.88,0,0,1-1.21,4.27,8.63,8.63,0,0,1-3.22,3A9,9,0,0,1,573.48,369.21Z"/><path d="M589.72,347a1.41,1.41,0,0,0,0-.92.81.81,0,0,0-.62-.38,12.06,12.06,0,0,0-1.53-.13h0l0-.32H595l-1.54,5.87-2.22,8.06.25.22-.8,3.1-1.57,6.28h-4.89Zm7.81,22.11a4.33,4.33,0,0,1-1.77-.35,2.85,2.85,0,0,1-1.22-1,2.58,2.58,0,0,1-.44-1.48,8,8,0,0,1,.4-2.06c.27-.91.67-2.17,1.21-3.78s.85-2.66,1.11-3.52a7.75,7.75,0,0,0,.38-1.92,1,1,0,0,0-.4-.82,1.49,1.49,0,0,0-.91-.31,2.34,2.34,0,0,0-1.44.73,9.67,9.67,0,0,0-1.83,2.67,28.93,28.93,0,0,0-2,5.21l.44-3.72h.47a21.39,21.39,0,0,1,1.94-3.9,7.07,7.07,0,0,1,2.13-2.21,4.82,4.82,0,0,1,2.57-.71,3.92,3.92,0,0,1,1.85.44,3.39,3.39,0,0,1,1.29,1.2,3.16,3.16,0,0,1,.48,1.72,8.74,8.74,0,0,1-.44,2.2q-.43,1.49-1.32,4.11c-.46,1.39-.82,2.5-1.07,3.36a7.28,7.28,0,0,0-.39,1.78.77.77,0,0,0,.21.55.61.61,0,0,0,.49.22c.48,0,1-.41,1.55-1.24a18.16,18.16,0,0,0,1.7-3.65l.36.11a16.9,16.9,0,0,1-1.62,3.72,6.29,6.29,0,0,1-1.85,2A3.55,3.55,0,0,1,597.53,369.07Z"/><path d="M609.35,369.21a4,4,0,0,1-2.3-.74,5.12,5.12,0,0,1-1.69-2.25,9.18,9.18,0,0,1-.64-3.65,10.4,10.4,0,0,1,1.38-5.16,11.87,11.87,0,0,1,3.58-4,7.65,7.65,0,0,1,4.38-1.51,3,3,0,0,1,1.62.42,2.72,2.72,0,0,1,1,1.2,5.61,5.61,0,0,1,.44,2l-.33,0a5.79,5.79,0,0,0-.29-1.48,2.21,2.21,0,0,0-.62-.94,1.47,1.47,0,0,0-1-.35c-.95,0-1.85.76-2.7,2.3a22.6,22.6,0,0,0-2.06,5.32,19.89,19.89,0,0,0-.79,4.68,3.69,3.69,0,0,0,.38,1.86,1.19,1.19,0,0,0,1,.62,2.44,2.44,0,0,0,1.7-1,11.12,11.12,0,0,0,1.72-2.72,21.49,21.49,0,0,0,1.36-3.88l2-7.52h4.82l-2.63,10c-.36,1.36-.62,2.35-.76,3a6.53,6.53,0,0,0-.22,1.22,1,1,0,0,0,.22.69.72.72,0,0,0,.58.26c.44,0,.93-.4,1.46-1.19a15.07,15.07,0,0,0,1.61-3.74l.36.11a16.15,16.15,0,0,1-1.57,3.79,6.37,6.37,0,0,1-1.82,2.1,3.45,3.45,0,0,1-2,.64,3.08,3.08,0,0,1-2.19-.77,2.75,2.75,0,0,1-.84-2.15,12.2,12.2,0,0,1,.24-2.1c.15-.86.38-1.84.67-2.93l.95.43-.62,1.35-.91-.14a17,17,0,0,1-1.35,3.08,8.35,8.35,0,0,1-1.88,2.3A3.54,3.54,0,0,1,609.35,369.21Z"/><path d="M620.22,374.83a13.82,13.82,0,0,0,1.48-.25,1.45,1.45,0,0,0,.68-.37,1.49,1.49,0,0,0,.36-.8l6.42-24.59,5.19-1.46-6.79,26.05a1.12,1.12,0,0,0,0,.79.82.82,0,0,0,.53.34,15,15,0,0,0,1.57.29h.07l-.07.33h-9.49Zm11.72-5.58a3.41,3.41,0,0,1-1.63-.36,2.59,2.59,0,0,1-1-1.06,4.64,4.64,0,0,1-.47-1.64l.36-.08a4.4,4.4,0,0,0,.28,1.21,1.66,1.66,0,0,0,.62.8,1.8,1.8,0,0,0,1,.29c.95,0,1.85-.76,2.7-2.3a22.43,22.43,0,0,0,2.06-5.32,20.32,20.32,0,0,0,.78-4.67,4.21,4.21,0,0,0-.78-2.78,2.89,2.89,0,0,0-2.32-.91,9.94,9.94,0,0,0-4.72,1,8.62,8.62,0,0,0-3,2.63,21.71,21.71,0,0,0-2.17,4l-.37-.11a19.37,19.37,0,0,1,2.48-4.51,8.6,8.6,0,0,1,3.38-2.61,12.82,12.82,0,0,1,5-.87,9,9,0,0,1,3.78.73,5.3,5.3,0,0,1,2.46,2.22,7.15,7.15,0,0,1,.88,3.69,10.31,10.31,0,0,1-1.39,5.16,11.73,11.73,0,0,1-3.57,4A7.65,7.65,0,0,1,631.94,369.25Z"/><path d="M649.67,369.25a6.32,6.32,0,0,1-3.17-.82,6.07,6.07,0,0,1-2.34-2.35,7.14,7.14,0,0,1-.87-3.58,10.3,10.3,0,0,1,1.38-5.14,11.34,11.34,0,0,1,3.65-3.94,8.51,8.51,0,0,1,4.78-1.5,6.45,6.45,0,0,1,2.57.47,4,4,0,0,1,1.66,1.28,2.89,2.89,0,0,1,.59,1.72q0,2.66-2.89,3.85a19.21,19.21,0,0,1-7.26,1.18l.08-.4a7,7,0,0,0,3.72-.75,5.06,5.06,0,0,0,2.13-2.22,7.07,7.07,0,0,0,.68-3.09,2.07,2.07,0,0,0-.29-1.22,1.12,1.12,0,0,0-1-.38q-1.35,0-2.52,1.86a16,16,0,0,0-1.86,4.49,18.88,18.88,0,0,0-.7,4.74,10.65,10.65,0,0,0,.3,2.81,2.53,2.53,0,0,0,2.77,2.08,3.79,3.79,0,0,0,1.88-.59,6.34,6.34,0,0,0,1.93-1.89,11.65,11.65,0,0,0,1.55-3.32l.4.07a12.82,12.82,0,0,1-1.89,4,6.72,6.72,0,0,1-2.46,2.08A6.93,6.93,0,0,1,649.67,369.25Z"/><path d="M666.05,368.41c.78-.1,1.33-.18,1.65-.25a1.53,1.53,0,0,0,.72-.37,1.81,1.81,0,0,0,.41-.8l5-20a1.12,1.12,0,0,0,0-.77.78.78,0,0,0-.49-.38,6.09,6.09,0,0,0-1.24-.24l-.33,0,.07-.32h10.81l-.08.32c-1,.1-1.74.19-2.15.26a1.84,1.84,0,0,0-.91.36,1.56,1.56,0,0,0-.44.81l-5.44,21.78H666Zm9.45-.18a7.57,7.57,0,0,0,3.4-.68,9.78,9.78,0,0,0,2.84-2.4q1.5-1.74,4.45-5.82h.41l-2.7,9.41H672.62l.15-.51Z"/><path d="M692.62,369.07a4.33,4.33,0,0,1-1.77-.35,2.88,2.88,0,0,1-1.23-1,2.57,2.57,0,0,1-.43-1.48,9,9,0,0,1,.42-2.17c.27-1,.68-2.33,1.22-4,.48-1.49.86-2.69,1.11-3.62a8.3,8.3,0,0,0,.38-2,.85.85,0,0,0-.18-.55.61.61,0,0,0-.51-.22c-.49,0-1,.41-1.55,1.24a18.16,18.16,0,0,0-1.7,3.65l-.36-.11a15.92,15.92,0,0,1,1.64-3.74,6.81,6.81,0,0,1,1.88-2.08,3.49,3.49,0,0,1,1.91-.64,4,4,0,0,1,1.76.37,2.86,2.86,0,0,1,1.2,1,2.72,2.72,0,0,1,.44,1.53,9.52,9.52,0,0,1-.46,2.37c-.3,1.07-.72,2.45-1.26,4.13-.46,1.43-.82,2.59-1.07,3.46a7.78,7.78,0,0,0-.39,1.86.81.81,0,0,0,.2.55.68.68,0,0,0,.53.22c.49,0,1-.41,1.55-1.24a17.62,17.62,0,0,0,1.7-3.65l.37.11a16.42,16.42,0,0,1-1.63,3.72,6.28,6.28,0,0,1-1.84,2A3.58,3.58,0,0,1,692.62,369.07Zm3.24-18.5a2.87,2.87,0,0,1-2.57-1.5,3.09,3.09,0,0,1-.38-1.49,3,3,0,0,1,.38-1.48,2.84,2.84,0,0,1,1.06-1.06,3.05,3.05,0,0,1,1.51-.38,3,3,0,0,1,1.5.38,2.86,2.86,0,0,1,1,1.06,3,3,0,0,1,.38,1.48,3.09,3.09,0,0,1-.38,1.49,2.9,2.9,0,0,1-1,1.1A2.81,2.81,0,0,1,695.86,350.57Z"/><path d="M705.57,369.25a5.15,5.15,0,0,1-2.32-.47,3.24,3.24,0,0,1-1.42-1.44,5.15,5.15,0,0,1-.49-2.36,11,11,0,0,1,.25-2.19c.17-.82.42-1.82.73-3s.6-2.31.77-3.14a11.08,11.08,0,0,0,.25-2.22.85.85,0,0,0-.18-.55.61.61,0,0,0-.51-.22c-.49,0-1,.41-1.55,1.24a18.16,18.16,0,0,0-1.7,3.65l-.36-.11a16,16,0,0,1,1.62-3.72,6.5,6.5,0,0,1,1.84-2,3.61,3.61,0,0,1,1.94-.6,4.4,4.4,0,0,1,1.77.35,2.85,2.85,0,0,1,1.22,1,2.58,2.58,0,0,1,.44,1.48,11.48,11.48,0,0,1-.24,2.28c-.16.79-.42,1.91-.78,3.34-.3,1-.51,1.85-.66,2.55A9.13,9.13,0,0,0,706,365a2.44,2.44,0,0,0,.44,1.64,1.77,1.77,0,0,0,1.35.47,3.47,3.47,0,0,0,2.33-.89,5.68,5.68,0,0,0,1.57-2.39,9.09,9.09,0,0,0,.55-3.18,9.41,9.41,0,0,0-.68-3.54,7.11,7.11,0,0,0-2-2.81l3.79-2.33a6.78,6.78,0,0,1,1.35,4.38,14.22,14.22,0,0,1-1.36,5.82,16.34,16.34,0,0,1-3.49,5.09A6.18,6.18,0,0,1,705.57,369.25Z"/><path d="M722.75,369.25a6.32,6.32,0,0,1-3.17-.82,6.21,6.21,0,0,1-2.34-2.35,7.14,7.14,0,0,1-.87-3.58,10.21,10.21,0,0,1,1.39-5.14,11.31,11.31,0,0,1,3.64-3.94,8.53,8.53,0,0,1,4.78-1.5,6.5,6.5,0,0,1,2.58.47,4.11,4.11,0,0,1,1.66,1.28,2.87,2.87,0,0,1,.58,1.72q0,2.66-2.88,3.85a19.21,19.21,0,0,1-7.26,1.18l.07-.4a7,7,0,0,0,3.72-.75,5.08,5.08,0,0,0,2.14-2.22,7.06,7.06,0,0,0,.67-3.09,2.07,2.07,0,0,0-.29-1.22,1.11,1.11,0,0,0-.95-.38q-1.35,0-2.52,1.86a16,16,0,0,0-1.86,4.49,18.83,18.83,0,0,0-.69,4.74,11.15,11.15,0,0,0,.29,2.81,2.53,2.53,0,0,0,2.77,2.08,3.76,3.76,0,0,0,1.88-.59,6.36,6.36,0,0,0,1.94-1.89,11.92,11.92,0,0,0,1.55-3.32l.4.07a12.6,12.6,0,0,1-1.9,4,6.56,6.56,0,0,1-2.46,2.08A6.9,6.9,0,0,1,722.75,369.25Z"/><path d="M736.77,369.25a6.66,6.66,0,0,1-3.65-.87,4.13,4.13,0,0,1-1.77-2.19,4.85,4.85,0,0,1-.09-2.67l4.52-.18a10.79,10.79,0,0,0-1,2.5,3,3,0,0,0,.09,2.12c.28.57.92.85,1.92.85a4.16,4.16,0,0,0,1.55-.27,2.28,2.28,0,0,0,1-.82,2.22,2.22,0,0,0,.39-1.32,3.12,3.12,0,0,0-.4-1.53,5.09,5.09,0,0,0-1-1.22c-.39-.35-.92-.78-1.6-1.29a21.88,21.88,0,0,1-1.92-1.59,5.89,5.89,0,0,1-1.2-1.63,4.65,4.65,0,0,1-.5-2.19,3.91,3.91,0,0,1,1-2.71,6.59,6.59,0,0,1,2.61-1.74,9.07,9.07,0,0,1,3.18-.58,6.26,6.26,0,0,1,3.54.87,4.05,4.05,0,0,1,1.66,2.19,5.14,5.14,0,0,1,.05,2.67l-4.52.18a11.86,11.86,0,0,0,1.09-2.52,3.21,3.21,0,0,0,0-2.1c-.23-.57-.81-.85-1.73-.85a3.72,3.72,0,0,0-1.5.29,2.52,2.52,0,0,0-1.1.84,2.14,2.14,0,0,0-.4,1.28,2.89,2.89,0,0,0,.39,1.47,4.7,4.7,0,0,0,1,1.21c.4.35.93.79,1.59,1.33a24.3,24.3,0,0,1,1.91,1.64,6.58,6.58,0,0,1,1.23,1.64,4.5,4.5,0,0,1,.51,2.16,4.14,4.14,0,0,1-.93,2.73,5.75,5.75,0,0,1-2.5,1.72A10,10,0,0,1,736.77,369.25Z"/><rect class="cls-1" x="480.16" y="62.96" width="15.46" height="515.93" transform="translate(808.82 -166.96) rotate(90)"/><path d="M804.25,178.11H807l6.4,18.66,6.14-18.72h2.08l6.15,18.72,6.4-18.66h2.65l-8,22.56h-2.14l-6.15-18.18-6.17,18.18h-2.11Z"/><path d="M837.88,192.29v-.07c0-4.77,3.36-8.61,7.93-8.61,4.9,0,7.72,3.91,7.72,8.74a5.16,5.16,0,0,1,0,.8H840.38a5.78,5.78,0,0,0,5.82,5.6,6.83,6.83,0,0,0,5.21-2.34l1.54,1.38a8.52,8.52,0,0,1-6.81,3.1A8.22,8.22,0,0,1,837.88,192.29Zm13.15-1c-.26-3-2-5.64-5.28-5.64-2.88,0-5,2.4-5.37,5.64Z"/><path d="M866,192.32v-.07a8.61,8.61,0,0,1,15.1-5.69l-1.63,1.73a6.68,6.68,0,0,0-5-2.5,6.11,6.11,0,0,0-5.92,6.4v.06a6.18,6.18,0,0,0,6.08,6.44,6.81,6.81,0,0,0,5-2.47l1.57,1.47A8.56,8.56,0,0,1,866,192.32Z"/><path d="M885.28,184h2.47v4.32a7.06,7.06,0,0,1,6.75-4.61v2.65h-.19c-3.62,0-6.56,2.6-6.56,7.59v6.59h-2.47Z"/><path d="M896.52,192.29v-.07c0-4.77,3.36-8.61,7.93-8.61,4.9,0,7.71,3.91,7.71,8.74a6.87,6.87,0,0,1,0,.8H899a5.78,5.78,0,0,0,5.83,5.6,6.83,6.83,0,0,0,5.21-2.34l1.54,1.38a8.54,8.54,0,0,1-6.82,3.1A8.21,8.21,0,0,1,896.52,192.29Zm13.15-1c-.26-3-2-5.64-5.28-5.64-2.88,0-5.06,2.4-5.38,5.64Z"/><path d="M915.24,195.71v-.06c0-3.49,2.88-5.35,7.07-5.35a17.48,17.48,0,0,1,5.09.71v-.58c0-3-1.83-4.51-4.93-4.51a11.62,11.62,0,0,0-5,1.21l-.73-2a13.65,13.65,0,0,1,6-1.38,7.26,7.26,0,0,1,5.35,1.83,6.53,6.53,0,0,1,1.69,4.83v10.11H927.4V198a7.26,7.26,0,0,1-6,2.85C918.34,200.86,915.24,199.1,915.24,195.71Zm12.19-1.28v-1.6a17.4,17.4,0,0,0-4.87-.7c-3.1,0-4.83,1.34-4.83,3.42v.06c0,2.08,1.92,3.3,4.16,3.3C924.93,198.91,927.43,197.05,927.43,194.43Z"/><path d="M935.72,196.13v-10h-2.31V184h2.31v-5h2.46v5h5.25v2.17h-5.25v9.67a2.45,2.45,0,0,0,2.78,2.75,5.11,5.11,0,0,0,2.4-.58v2.11a6.15,6.15,0,0,1-3,.71C937.73,200.8,935.72,199.49,935.72,196.13Z"/><path d="M946.28,192.29v-.07c0-4.77,3.36-8.61,7.93-8.61,4.9,0,7.71,3.91,7.71,8.74a6.87,6.87,0,0,1,0,.8H948.77a5.78,5.78,0,0,0,5.83,5.6,6.83,6.83,0,0,0,5.21-2.34l1.54,1.38a8.54,8.54,0,0,1-6.82,3.1A8.21,8.21,0,0,1,946.28,192.29Zm13.15-1c-.26-3-2-5.64-5.28-5.64-2.88,0-5.06,2.4-5.38,5.64Z"/><path d="M974,198.4l1.25-1.76a9.68,9.68,0,0,0,5.73,2.11c2,0,3.42-1,3.42-2.62v-.07c0-1.66-1.95-2.3-4.13-2.91-2.59-.74-5.47-1.63-5.47-4.67v-.07c0-2.84,2.37-4.73,5.63-4.73a11.27,11.27,0,0,1,5.95,1.82l-1.12,1.86a9.34,9.34,0,0,0-4.89-1.6c-1.95,0-3.2,1-3.2,2.4v.06c0,1.57,2,2.18,4.25,2.85,2.56.77,5.32,1.76,5.32,4.74v.06c0,3.14-2.6,5-5.89,5A11.41,11.41,0,0,1,974,198.4Z"/><path d="M991.34,184h2.47v3.32a7.43,7.43,0,0,1,6.33-3.68c4,0,7.91,3.14,7.91,8.58v.06c0,5.41-3.91,8.61-7.91,8.61a7.45,7.45,0,0,1-6.33-3.52v8.29h-2.47Zm14.18,8.32v-.07c0-3.9-2.69-6.4-5.83-6.4a6.17,6.17,0,0,0-6,6.37v.06a6.16,6.16,0,0,0,6,6.4C1002.89,198.65,1005.52,196.29,1005.52,192.29Z"/><path d="M1011.34,195.71v-.06c0-3.49,2.88-5.35,7.07-5.35a17.38,17.38,0,0,1,5.09.71v-.58c0-3-1.82-4.51-4.93-4.51a11.58,11.58,0,0,0-5,1.21l-.74-2a13.73,13.73,0,0,1,6-1.38,7.22,7.22,0,0,1,5.34,1.83,6.53,6.53,0,0,1,1.7,4.83v10.11h-2.37V198a7.23,7.23,0,0,1-6,2.85C1014.45,200.86,1011.34,199.1,1011.34,195.71Zm12.19-1.28v-1.6a17.26,17.26,0,0,0-4.86-.7c-3.1,0-4.83,1.34-4.83,3.42v.06c0,2.08,1.92,3.3,4.16,3.3C1021,198.91,1023.53,197.05,1023.53,194.43Z"/><path d="M1030.09,192.32v-.07a8.62,8.62,0,0,1,15.11-5.69l-1.64,1.73a6.66,6.66,0,0,0-5-2.5,6.11,6.11,0,0,0-5.92,6.4v.06a6.19,6.19,0,0,0,6.08,6.44,6.83,6.83,0,0,0,5.06-2.47l1.57,1.47a8.56,8.56,0,0,1-15.24-5.37Z"/><path d="M1047.89,192.29v-.07c0-4.77,3.36-8.61,7.93-8.61,4.9,0,7.71,3.91,7.71,8.74a6.87,6.87,0,0,1,0,.8h-13.12a5.78,5.78,0,0,0,5.83,5.6,6.83,6.83,0,0,0,5.21-2.34l1.54,1.38a8.54,8.54,0,0,1-6.82,3.1A8.21,8.21,0,0,1,1047.89,192.29Zm13.15-1c-.26-3-2-5.64-5.28-5.64-2.88,0-5.06,2.4-5.38,5.64Z"/><path d="M1066.48,198.4l1.25-1.76a9.67,9.67,0,0,0,5.72,2.11c2,0,3.43-1,3.43-2.62v-.07c0-1.66-2-2.3-4.13-2.91-2.59-.74-5.47-1.63-5.47-4.67v-.07c0-2.84,2.37-4.73,5.63-4.73a11.27,11.27,0,0,1,5.95,1.82l-1.12,1.86a9.34,9.34,0,0,0-4.89-1.6c-2,0-3.2,1-3.2,2.4v.06c0,1.57,2,2.18,4.25,2.85,2.56.77,5.31,1.76,5.31,4.74v.06c0,3.14-2.59,5-5.88,5A11.39,11.39,0,0,1,1066.48,198.4Z"/><path d="M1093.82,196.13v-10h-2.31V184h2.31v-5h2.46v5h5.25v2.17h-5.25v9.67a2.45,2.45,0,0,0,2.78,2.75,5.11,5.11,0,0,0,2.4-.58v2.11a6.15,6.15,0,0,1-3,.71C1095.83,200.8,1093.82,199.49,1093.82,196.13Z"/><path d="M1105.88,177.15h2.47v9.7a6.24,6.24,0,0,1,5.66-3.24c4,0,6.33,2.69,6.33,6.63v10.27h-2.46v-9.66c0-3.08-1.66-5-4.58-5a4.87,4.87,0,0,0-5,5.19v9.47h-2.47Z"/><path d="M1124.35,195.71v-.06c0-3.49,2.88-5.35,7.07-5.35a17.36,17.36,0,0,1,5.08.71v-.58c0-3-1.82-4.51-4.92-4.51a11.59,11.59,0,0,0-5,1.21l-.73-2a13.65,13.65,0,0,1,6-1.38,7.26,7.26,0,0,1,5.35,1.83,6.53,6.53,0,0,1,1.69,4.83v10.11h-2.37V198a7.23,7.23,0,0,1-6,2.85C1127.45,200.86,1124.35,199.1,1124.35,195.71Zm12.19-1.28v-1.6a17.4,17.4,0,0,0-4.87-.7c-3.1,0-4.83,1.34-4.83,3.42v.06c0,2.08,1.92,3.3,4.16,3.3C1134,198.91,1136.54,197.05,1136.54,194.43Z"/><path d="M1144.83,196.13v-10h-2.31V184h2.31v-5h2.46v5h5.25v2.17h-5.25v9.67a2.45,2.45,0,0,0,2.78,2.75,5.13,5.13,0,0,0,2.4-.58v2.11a6.15,6.15,0,0,1-3,.71C1146.84,200.8,1144.83,199.49,1144.83,196.13Z"/><path d="M1166.05,184h2.47v3.32a7.43,7.43,0,0,1,6.33-3.68c4,0,7.91,3.14,7.91,8.58v.06c0,5.41-3.91,8.61-7.91,8.61a7.45,7.45,0,0,1-6.33-3.52v8.29h-2.47Zm14.18,8.32v-.07c0-3.9-2.69-6.4-5.83-6.4a6.17,6.17,0,0,0-6,6.37v.06a6.16,6.16,0,0,0,6,6.4C1177.6,198.65,1180.23,196.29,1180.23,192.29Z"/><path d="M1186.28,192.29v-.07c0-4.77,3.36-8.61,7.93-8.61,4.9,0,7.71,3.91,7.71,8.74a6.87,6.87,0,0,1,0,.8h-13.12a5.78,5.78,0,0,0,5.83,5.6,6.83,6.83,0,0,0,5.21-2.34l1.54,1.38a8.54,8.54,0,0,1-6.82,3.1A8.21,8.21,0,0,1,1186.28,192.29Zm13.15-1c-.26-3-2-5.64-5.28-5.64-2.88,0-5.06,2.4-5.38,5.64Z"/><path d="M1205.22,192.32v-.07a8.63,8.63,0,0,1,17.25-.06v.06a8.58,8.58,0,0,1-8.67,8.64A8.47,8.47,0,0,1,1205.22,192.32Zm14.72,0v-.07a6.26,6.26,0,0,0-6.14-6.46,6.1,6.1,0,0,0-6,6.4v.06a6.21,6.21,0,0,0,6.11,6.44A6.11,6.11,0,0,0,1219.94,192.32Z"/><path d="M1226.92,184h2.46v3.32a7.45,7.45,0,0,1,6.34-3.68c4,0,7.9,3.14,7.9,8.58v.06c0,5.41-3.91,8.61-7.9,8.61a7.45,7.45,0,0,1-6.34-3.52v8.29h-2.46Zm14.17,8.32v-.07c0-3.9-2.69-6.4-5.82-6.4a6.17,6.17,0,0,0-6,6.37v.06a6.16,6.16,0,0,0,6,6.4C1238.47,198.65,1241.09,196.29,1241.09,192.29Z"/><path d="M1248.39,177.15h2.46v23.36h-2.46Z"/><path d="M1255.56,192.29v-.07c0-4.77,3.35-8.61,7.93-8.61,4.9,0,7.71,3.91,7.71,8.74a6.87,6.87,0,0,1,0,.8h-13.12a5.78,5.78,0,0,0,5.82,5.6,6.83,6.83,0,0,0,5.22-2.34l1.54,1.38a8.54,8.54,0,0,1-6.82,3.1A8.21,8.21,0,0,1,1255.56,192.29Zm13.15-1c-.26-3-2-5.64-5.28-5.64-2.88,0-5.06,2.4-5.38,5.64Z"/><path d="M1283.28,184h2.62l4.35,13.28,4.45-13.35h2l4.48,13.35,4.35-13.28h2.56l-5.82,16.67h-2.15l-4.44-13.06-4.48,13.06h-2.18Z"/><path d="M1310.35,195.71v-.06c0-3.49,2.88-5.35,7.07-5.35a17.43,17.43,0,0,1,5.09.71v-.58c0-3-1.82-4.51-4.93-4.51a11.54,11.54,0,0,0-5,1.21l-.74-2a13.73,13.73,0,0,1,6-1.38,7.23,7.23,0,0,1,5.34,1.83,6.53,6.53,0,0,1,1.7,4.83v10.11h-2.37V198a7.23,7.23,0,0,1-6,2.85C1313.45,200.86,1310.35,199.1,1310.35,195.71Zm12.19-1.28v-1.6a17.32,17.32,0,0,0-4.86-.7c-3.11,0-4.83,1.34-4.83,3.42v.06c0,2.08,1.92,3.3,4.16,3.3C1320.05,198.91,1322.54,197.05,1322.54,194.43Z"/><path d="M1330.13,184h2.46v2.88a6.26,6.26,0,0,1,5.66-3.24c4,0,6.34,2.69,6.34,6.63v10.27h-2.46v-9.66c0-3.08-1.67-5-4.58-5a4.87,4.87,0,0,0-5,5.19v9.47h-2.46Z"/><path d="M1350.7,196.13v-10h-2.3V184h2.3v-5h2.47v5h5.24v2.17h-5.24v9.67a2.45,2.45,0,0,0,2.78,2.75,5.13,5.13,0,0,0,2.4-.58v2.11a6.16,6.16,0,0,1-3,.71C1352.72,200.8,1350.7,199.49,1350.7,196.13Z"/><path d="M1372.79,196.13v-10h-2.3V184h2.3v-5h2.47v5h5.25v2.17h-5.25v9.67a2.45,2.45,0,0,0,2.78,2.75,5.13,5.13,0,0,0,2.4-.58v2.11a6.15,6.15,0,0,1-3,.71C1374.81,200.8,1372.79,199.49,1372.79,196.13Z"/><path d="M1383.35,192.32v-.07a8.63,8.63,0,0,1,17.25-.06v.06a8.58,8.58,0,0,1-8.67,8.64A8.47,8.47,0,0,1,1383.35,192.32Zm14.72,0v-.07a6.25,6.25,0,0,0-6.14-6.46,6.11,6.11,0,0,0-6,6.4v.06a6.21,6.21,0,0,0,6.11,6.44A6.1,6.1,0,0,0,1398.07,192.32Z"/><path d="M1413.19,192.32v-.07a8.61,8.61,0,0,1,15.1-5.69l-1.63,1.73a6.66,6.66,0,0,0-5-2.5,6.11,6.11,0,0,0-5.92,6.4v.06a6.18,6.18,0,0,0,6.08,6.44,6.81,6.81,0,0,0,5-2.47l1.57,1.47a8.56,8.56,0,0,1-15.23-5.37Z"/><path d="M1431,192.32v-.07a8.63,8.63,0,0,1,17.25-.06v.06a8.58,8.58,0,0,1-8.67,8.64A8.47,8.47,0,0,1,1431,192.32Zm14.72,0v-.07a6.26,6.26,0,0,0-6.14-6.46,6.1,6.1,0,0,0-6,6.4v.06a6.21,6.21,0,0,0,6.11,6.44A6.1,6.1,0,0,0,1445.7,192.32Z"/><path d="M1452.68,184h2.46v2.78a6.05,6.05,0,0,1,5.34-3.14,5.63,5.63,0,0,1,5.32,3.3,6.59,6.59,0,0,1,5.82-3.3c3.81,0,6.14,2.56,6.14,6.66v10.24h-2.46v-9.66c0-3.2-1.6-5-4.29-5-2.49,0-4.57,1.86-4.57,5.12v9.54H1464v-9.73c0-3.1-1.63-4.93-4.25-4.93s-4.61,2.18-4.61,5.22v9.44h-2.46Z"/><path d="M1482,192.29v-.07c0-4.77,3.36-8.61,7.93-8.61,4.9,0,7.72,3.91,7.72,8.74a5.16,5.16,0,0,1,0,.8h-13.11a5.78,5.78,0,0,0,5.82,5.6,6.83,6.83,0,0,0,5.21-2.34l1.54,1.38a8.52,8.52,0,0,1-6.81,3.1A8.22,8.22,0,0,1,1482,192.29Zm13.15-1c-.26-3-2-5.64-5.28-5.64-2.88,0-5,2.4-5.37,5.64Z"/><path d="M1512,196.13v-10h-2.31V184H1512v-5h2.46v5h5.25v2.17h-5.25v9.67a2.45,2.45,0,0,0,2.78,2.75,5.13,5.13,0,0,0,2.4-.58v2.11a6.15,6.15,0,0,1-3,.71C1514,200.8,1512,199.49,1512,196.13Z"/><path d="M1522.55,192.32v-.07a8.62,8.62,0,0,1,17.24-.06v.06a8.58,8.58,0,0,1-8.67,8.64A8.47,8.47,0,0,1,1522.55,192.32Zm14.71,0v-.07a6.25,6.25,0,0,0-6.14-6.46,6.11,6.11,0,0,0-6,6.4v.06a6.21,6.21,0,0,0,6.11,6.44A6.1,6.1,0,0,0,1537.26,192.32Z"/><path d="M1542.32,203.29c1.6-.57,2.27-1.4,2.15-2.78h-1.16v-3.36h3V200c0,2.59-1.12,3.84-3.55,4.38Z"/><path d="M1560.6,184h2.47v2.88a6.25,6.25,0,0,1,5.66-3.24c4,0,6.34,2.69,6.34,6.63v10.27h-2.47v-9.66c0-3.08-1.66-5-4.57-5a4.87,4.87,0,0,0-5,5.19v9.47h-2.47Z"/><path d="M1579.29,192.32v-.07a8.63,8.63,0,0,1,17.25-.06v.06a8.58,8.58,0,0,1-8.67,8.64A8.47,8.47,0,0,1,1579.29,192.32Zm14.72,0v-.07a6.25,6.25,0,0,0-6.14-6.46,6.1,6.1,0,0,0-6,6.4v.06a6.21,6.21,0,0,0,6.11,6.44A6.1,6.1,0,0,0,1594,192.32Z"/><path d="M1601.85,196.13v-10h-2.3V184h2.3v-5h2.47v5h5.24v2.17h-5.24v9.67a2.45,2.45,0,0,0,2.78,2.75,5.13,5.13,0,0,0,2.4-.58v2.11a6.16,6.16,0,0,1-3,.71C1603.87,200.8,1601.85,199.49,1601.85,196.13Z"/><path d="M1620.2,205.57v-2a8.6,8.6,0,0,0,1.22.1c1.12,0,1.88-.68,1.88-2.21V184h2.47v17.5c0,2.91-1.54,4.26-4,4.26A6.49,6.49,0,0,1,1620.2,205.57Zm2.94-27.94H1626v2.72h-2.82Z"/><path d="M1631.24,194.24V184h2.46v9.66c0,3.07,1.67,5,4.58,5a4.88,4.88,0,0,0,5-5.18V184h2.43v16.54h-2.43v-2.88a6.31,6.31,0,0,1-5.66,3.23C1633.58,200.86,1631.24,198.17,1631.24,194.24Z"/><path d="M1649.83,198.4l1.25-1.76a9.7,9.7,0,0,0,5.73,2.11c2,0,3.42-1,3.42-2.62v-.07c0-1.66-2-2.3-4.13-2.91-2.59-.74-5.47-1.63-5.47-4.67v-.07c0-2.84,2.37-4.73,5.63-4.73a11.27,11.27,0,0,1,6,1.82l-1.11,1.86a9.4,9.4,0,0,0-4.9-1.6c-2,0-3.2,1-3.2,2.4v.06c0,1.57,2,2.18,4.26,2.85,2.56.77,5.31,1.76,5.31,4.74v.06c0,3.14-2.59,5-5.89,5A11.41,11.41,0,0,1,1649.83,198.4Z"/><path d="M1667.69,196.13v-10h-2.31V184h2.31v-5h2.46v5h5.25v2.17h-5.25v9.67c0,2,1.12,2.75,2.79,2.75a5.09,5.09,0,0,0,2.39-.58v2.11a6.15,6.15,0,0,1-3,.71C1669.7,200.8,1667.69,199.49,1667.69,196.13Z"/><path d="M805.56,219.15H808v9.7a6.27,6.27,0,0,1,5.67-3.24c4,0,6.33,2.69,6.33,6.63v10.27h-2.46v-9.66c0-3.08-1.67-5-4.58-5a4.87,4.87,0,0,0-5,5.19v9.47h-2.46Z"/><path d="M824,237.71v-.06c0-3.49,2.88-5.35,7.07-5.35a17.38,17.38,0,0,1,5.09.71v-.58c0-3-1.82-4.51-4.93-4.51a11.58,11.58,0,0,0-5,1.21l-.73-2a13.65,13.65,0,0,1,6-1.38,7.22,7.22,0,0,1,5.34,1.83,6.53,6.53,0,0,1,1.7,4.83v10.11h-2.37V240a7.23,7.23,0,0,1-6,2.85C827.13,242.86,824,241.1,824,237.71Zm12.19-1.28v-1.6a17.26,17.26,0,0,0-4.86-.7c-3.1,0-4.83,1.34-4.83,3.42v.06c0,2.08,1.92,3.3,4.16,3.3C833.72,240.91,836.21,239.05,836.21,236.43Z"/><path d="M841.53,226h2.72l5.56,13.72,5.6-13.72h2.66l-7.2,16.67H848.7Z"/><path d="M860,234.29v-.07c0-4.77,3.36-8.61,7.93-8.61,4.9,0,7.72,3.91,7.72,8.74a5.16,5.16,0,0,1,0,.8H862.46a5.77,5.77,0,0,0,5.82,5.6,6.83,6.83,0,0,0,5.21-2.34l1.54,1.38a8.52,8.52,0,0,1-6.82,3.1A8.21,8.21,0,0,1,860,234.29Zm13.15-1c-.26-3-2-5.64-5.28-5.64-2.88,0-5.06,2.4-5.37,5.64Z"/><path d="M894.14,238.13v-10h-2.31V226h2.31v-5h2.46v5h5.25v2.17H896.6v9.67c0,2,1.12,2.75,2.79,2.75a5.16,5.16,0,0,0,2.4-.58v2.11a6.22,6.22,0,0,1-3,.71C896.15,242.8,894.14,241.49,894.14,238.13Z"/><path d="M904.7,234.32v-.07a8.62,8.62,0,0,1,17.24-.06v.06a8.58,8.58,0,0,1-8.67,8.64A8.47,8.47,0,0,1,904.7,234.32Zm14.72,0v-.07a6.26,6.26,0,0,0-6.15-6.46,6.1,6.1,0,0,0-6,6.4v.06a6.21,6.21,0,0,0,6.11,6.44A6.11,6.11,0,0,0,919.42,234.32Z"/><path d="M925.43,239.15h3v3.36h-3Z"/><path d="M947.32,220.11h7.78c7,0,11.9,4.83,11.9,11.14v.06c0,6.3-4.86,11.2-11.9,11.2h-7.78Zm2.53,2.34v17.72h5.25c5.66,0,9.28-3.84,9.28-8.8v-.06c0-5-3.62-8.86-9.28-8.86Z"/><path d="M984.32,226h2.62L980,243.05c-1.41,3.43-3,4.68-5.51,4.68a7.47,7.47,0,0,1-3.52-.84l.83-1.95a5.16,5.16,0,0,0,2.6.61c1.47,0,2.4-.77,3.39-3.1L970.27,226H973l6,13.79Z"/><path d="M990.84,226h2.47v2.88a6.25,6.25,0,0,1,5.66-3.24c4,0,6.34,2.69,6.34,6.63v10.27h-2.47v-9.66c0-3.08-1.66-5-4.57-5a4.87,4.87,0,0,0-5,5.19v9.47h-2.47Z"/><path d="M1009.31,237.71v-.06c0-3.49,2.88-5.35,7.07-5.35a17.43,17.43,0,0,1,5.09.71v-.58c0-3-1.83-4.51-4.93-4.51a11.54,11.54,0,0,0-5,1.21l-.74-2a13.69,13.69,0,0,1,6-1.38,7.25,7.25,0,0,1,5.34,1.83,6.53,6.53,0,0,1,1.69,4.83v10.11h-2.36V240a7.23,7.23,0,0,1-6,2.85C1012.41,242.86,1009.31,241.1,1009.31,237.71Zm12.19-1.28v-1.6a17.38,17.38,0,0,0-4.86-.7c-3.11,0-4.84,1.34-4.84,3.42v.06c0,2.08,1.92,3.3,4.16,3.3C1019,240.91,1021.5,239.05,1021.5,236.43Z"/><path d="M1029.08,226h2.47v2.78a6.05,6.05,0,0,1,5.34-3.14,5.61,5.61,0,0,1,5.31,3.3,6.62,6.62,0,0,1,5.83-3.3c3.8,0,6.14,2.56,6.14,6.66v10.24h-2.46v-9.66c0-3.2-1.6-5-4.29-5-2.5,0-4.58,1.86-4.58,5.12v9.54h-2.43v-9.73c0-3.1-1.63-4.93-4.25-4.93s-4.61,2.18-4.61,5.22v9.44h-2.47Z"/><path d="M1059.48,219.63h2.82v2.72h-2.82Zm.16,6.34h2.47v16.54h-2.47Z"/><path d="M1066.81,234.32v-.07a8.61,8.61,0,0,1,15.1-5.69l-1.63,1.73a6.66,6.66,0,0,0-5-2.5,6.11,6.11,0,0,0-5.92,6.4v.06a6.18,6.18,0,0,0,6.08,6.44,6.81,6.81,0,0,0,5-2.47l1.57,1.47a8.56,8.56,0,0,1-15.23-5.37Z"/><path d="M1098.08,240.4l1.25-1.76a9.67,9.67,0,0,0,5.72,2.11c2,0,3.43-1,3.43-2.62v-.07c0-1.66-2-2.3-4.13-2.91-2.59-.74-5.47-1.63-5.47-4.67v-.07c0-2.84,2.37-4.73,5.63-4.73a11.27,11.27,0,0,1,6,1.82l-1.12,1.86a9.34,9.34,0,0,0-4.89-1.6c-2,0-3.2,1-3.2,2.4v.06c0,1.57,2,2.18,4.25,2.85,2.56.77,5.31,1.76,5.31,4.74v.06c0,3.14-2.59,5-5.88,5A11.39,11.39,0,0,1,1098.08,240.4Z"/><path d="M1115.39,226h2.46v3.32a7.46,7.46,0,0,1,6.34-3.68c4,0,7.9,3.14,7.9,8.58v.06c0,5.41-3.9,8.61-7.9,8.61a7.46,7.46,0,0,1-6.34-3.52v8.29h-2.46Zm14.17,8.32v-.07c0-3.9-2.68-6.4-5.82-6.4a6.17,6.17,0,0,0-6,6.37v.06a6.16,6.16,0,0,0,6,6.4C1126.94,240.65,1129.56,238.29,1129.56,234.29Z"/><path d="M1135.39,237.71v-.06c0-3.49,2.88-5.35,7.07-5.35a17.43,17.43,0,0,1,5.09.71v-.58c0-3-1.83-4.51-4.93-4.51a11.54,11.54,0,0,0-5,1.21l-.74-2a13.73,13.73,0,0,1,6-1.38,7.25,7.25,0,0,1,5.34,1.83,6.53,6.53,0,0,1,1.7,4.83v10.11h-2.37V240a7.23,7.23,0,0,1-6,2.85C1138.49,242.86,1135.39,241.1,1135.39,237.71Zm12.19-1.28v-1.6a17.38,17.38,0,0,0-4.86-.7c-3.11,0-4.84,1.34-4.84,3.42v.06c0,2.08,1.92,3.3,4.16,3.3C1145.08,240.91,1147.58,239.05,1147.58,236.43Z"/><path d="M1154.14,234.32v-.07a8.61,8.61,0,0,1,15.1-5.69l-1.63,1.73a6.66,6.66,0,0,0-5-2.5,6.11,6.11,0,0,0-5.92,6.4v.06a6.18,6.18,0,0,0,6.08,6.44,6.81,6.81,0,0,0,5-2.47l1.57,1.47a8.56,8.56,0,0,1-15.23-5.37Z"/><path d="M1171.93,234.29v-.07c0-4.77,3.36-8.61,7.94-8.61,4.89,0,7.71,3.91,7.71,8.74a6.87,6.87,0,0,1,0,.8h-13.12a5.78,5.78,0,0,0,5.82,5.6,6.86,6.86,0,0,0,5.22-2.34l1.53,1.38a8.52,8.52,0,0,1-6.81,3.1A8.22,8.22,0,0,1,1171.93,234.29Zm13.15-1c-.25-3-2-5.64-5.28-5.64-2.87,0-5,2.4-5.37,5.64Z"/><path d="M1190.52,240.4l1.25-1.76a9.7,9.7,0,0,0,5.73,2.11c2,0,3.42-1,3.42-2.62v-.07c0-1.66-2-2.3-4.12-2.91-2.6-.74-5.48-1.63-5.48-4.67v-.07c0-2.84,2.37-4.73,5.64-4.73a11.33,11.33,0,0,1,6,1.82l-1.12,1.86a9.4,9.4,0,0,0-4.9-1.6c-2,0-3.2,1-3.2,2.4v.06c0,1.57,2,2.18,4.26,2.85,2.56.77,5.31,1.76,5.31,4.74v.06c0,3.14-2.59,5-5.89,5A11.41,11.41,0,0,1,1190.52,240.4Z"/><path d="M1222.05,238.13v-10h-2.31V226h2.31v-5h2.46v5h5.25v2.17h-5.25v9.67a2.45,2.45,0,0,0,2.78,2.75,5.11,5.11,0,0,0,2.4-.58v2.11a6.15,6.15,0,0,1-3,.71C1224.06,242.8,1222.05,241.49,1222.05,238.13Z"/><path d="M1234.11,219.15h2.47v9.7a6.24,6.24,0,0,1,5.66-3.24c4,0,6.33,2.69,6.33,6.63v10.27h-2.46v-9.66c0-3.08-1.66-5-4.58-5a4.87,4.87,0,0,0-5,5.19v9.47h-2.47Z"/><path d="M1252.58,237.71v-.06c0-3.49,2.88-5.35,7.07-5.35a17.36,17.36,0,0,1,5.08.71v-.58c0-3-1.82-4.51-4.92-4.51a11.59,11.59,0,0,0-5,1.21l-.73-2a13.65,13.65,0,0,1,6-1.38,7.26,7.26,0,0,1,5.35,1.83,6.53,6.53,0,0,1,1.69,4.83v10.11h-2.37V240a7.23,7.23,0,0,1-6,2.85C1255.68,242.86,1252.58,241.1,1252.58,237.71Zm12.19-1.28v-1.6a17.4,17.4,0,0,0-4.87-.7c-3.1,0-4.83,1.34-4.83,3.42v.06c0,2.08,1.92,3.3,4.16,3.3C1262.27,240.91,1264.77,239.05,1264.77,236.43Z"/><path d="M1273.06,238.13v-10h-2.31V226h2.31v-5h2.46v5h5.25v2.17h-5.25v9.67a2.45,2.45,0,0,0,2.78,2.75,5.13,5.13,0,0,0,2.4-.58v2.11a6.15,6.15,0,0,1-3,.71C1275.07,242.8,1273.06,241.49,1273.06,238.13Z"/><path d="M1298.47,226h2.46v2.88a6.26,6.26,0,0,1,5.66-3.24c4,0,6.34,2.69,6.34,6.63v10.27h-2.46v-9.66c0-3.08-1.67-5-4.58-5a4.87,4.87,0,0,0-5,5.19v9.47h-2.46Z"/><path d="M1317.15,234.32v-.07a8.63,8.63,0,0,1,17.25-.06v.06a8.58,8.58,0,0,1-8.67,8.64A8.47,8.47,0,0,1,1317.15,234.32Zm14.72,0v-.07a6.25,6.25,0,0,0-6.14-6.46,6.11,6.11,0,0,0-6,6.4v.06a6.21,6.21,0,0,0,6.11,6.44A6.1,6.1,0,0,0,1331.87,234.32Z"/><path d="M1339.71,238.13v-10h-2.3V226h2.3v-5h2.47v5h5.25v2.17h-5.25v9.67a2.45,2.45,0,0,0,2.78,2.75,5.13,5.13,0,0,0,2.4-.58v2.11a6.15,6.15,0,0,1-3,.71C1341.73,242.8,1339.71,241.49,1339.71,238.13Z"/><path d="M1364.1,234.32v-.07a8.63,8.63,0,0,1,17.25-.06v.06a8.58,8.58,0,0,1-8.67,8.64A8.47,8.47,0,0,1,1364.1,234.32Zm14.72,0v-.07a6.26,6.26,0,0,0-6.14-6.46,6.1,6.1,0,0,0-6,6.4v.06a6.21,6.21,0,0,0,6.11,6.44A6.11,6.11,0,0,0,1378.82,234.32Z"/><path d="M1385.8,226h2.46v2.88a6.26,6.26,0,0,1,5.66-3.24c4,0,6.34,2.69,6.34,6.63v10.27h-2.46v-9.66c0-3.08-1.67-5-4.58-5a4.87,4.87,0,0,0-5,5.19v9.47h-2.46Z"/><path d="M1405.73,219.15h2.47v23.36h-2.47Z"/><path d="M1426.31,226h2.62L1422,243.05c-1.41,3.43-3,4.68-5.51,4.68a7.47,7.47,0,0,1-3.52-.84l.84-1.95a5.12,5.12,0,0,0,2.59.61c1.47,0,2.4-.77,3.39-3.1L1412.26,226H1415l6,13.79Z"/><path d="M1444.93,237.71v-.06c0-3.49,2.88-5.35,7.08-5.35a17.36,17.36,0,0,1,5.08.71v-.58c0-3-1.82-4.51-4.92-4.51a11.59,11.59,0,0,0-5,1.21l-.73-2a13.65,13.65,0,0,1,6-1.38,7.26,7.26,0,0,1,5.35,1.83,6.53,6.53,0,0,1,1.69,4.83v10.11h-2.37V240a7.23,7.23,0,0,1-6,2.85C1448,242.86,1444.93,241.1,1444.93,237.71Zm12.19-1.28v-1.6a17.26,17.26,0,0,0-4.86-.7c-3.1,0-4.83,1.34-4.83,3.42v.06c0,2.08,1.92,3.3,4.16,3.3C1454.63,240.91,1457.12,239.05,1457.12,236.43Z"/><path d="M1465.41,238.13v-10h-2.3V226h2.3v-5h2.47v5h5.25v2.17h-5.25v9.67a2.45,2.45,0,0,0,2.78,2.75,5.13,5.13,0,0,0,2.4-.58v2.11a6.15,6.15,0,0,1-3,.71C1467.43,242.8,1465.41,241.49,1465.41,238.13Z"/><path d="M1478.34,238.13v-10H1476V226h2.3v-5h2.47v5h5.24v2.17h-5.24v9.67a2.45,2.45,0,0,0,2.78,2.75,5.13,5.13,0,0,0,2.4-.58v2.11a6.16,6.16,0,0,1-3,.71C1480.36,242.8,1478.34,241.49,1478.34,238.13Z"/><path d="M1490.41,226h2.46v4.32c1.22-2.76,3.62-4.74,6.75-4.61v2.65h-.19c-3.62,0-6.56,2.6-6.56,7.59v6.59h-2.46Z"/><path d="M1501.32,237.71v-.06c0-3.49,2.88-5.35,7.07-5.35a17.48,17.48,0,0,1,5.09.71v-.58c0-3-1.83-4.51-4.93-4.51a11.54,11.54,0,0,0-5,1.21l-.74-2a13.69,13.69,0,0,1,6-1.38,7.25,7.25,0,0,1,5.34,1.83,6.53,6.53,0,0,1,1.69,4.83v10.11h-2.36V240a7.23,7.23,0,0,1-6,2.85C1504.42,242.86,1501.32,241.1,1501.32,237.71Zm12.19-1.28v-1.6a17.38,17.38,0,0,0-4.86-.7c-3.11,0-4.84,1.34-4.84,3.42v.06c0,2.08,1.92,3.3,4.16,3.3C1511,240.91,1513.51,239.05,1513.51,236.43Z"/><path d="M1520.07,234.32v-.07a8.61,8.61,0,0,1,15.1-5.69l-1.63,1.73a6.66,6.66,0,0,0-5-2.5,6.11,6.11,0,0,0-5.92,6.4v.06a6.18,6.18,0,0,0,6.08,6.44,6.81,6.81,0,0,0,5-2.47l1.57,1.47a8.56,8.56,0,0,1-15.23-5.37Z"/><path d="M1540.23,238.13v-10h-2.3V226h2.3v-5h2.46v5h5.25v2.17h-5.25v9.67c0,2,1.12,2.75,2.79,2.75a5.16,5.16,0,0,0,2.4-.58v2.11a6.22,6.22,0,0,1-3,.71C1542.25,242.8,1540.23,241.49,1540.23,238.13Z"/><path d="M1566.5,238.13v-10h-2.3V226h2.3v-5H1569v5h5.25v2.17H1569v9.67a2.45,2.45,0,0,0,2.78,2.75,5.13,5.13,0,0,0,2.4-.58v2.11a6.15,6.15,0,0,1-3,.71C1568.52,242.8,1566.5,241.49,1566.5,238.13Z"/><path d="M1577.06,234.32v-.07a8.63,8.63,0,0,1,17.25-.06v.06a8.58,8.58,0,0,1-8.67,8.64A8.47,8.47,0,0,1,1577.06,234.32Zm14.72,0v-.07a6.25,6.25,0,0,0-6.14-6.46,6.11,6.11,0,0,0-6.05,6.4v.06a6.21,6.21,0,0,0,6.11,6.44A6.1,6.1,0,0,0,1591.78,234.32Z"/><path d="M1597.8,234.29v-.07c0-5.41,3.94-8.61,7.9-8.61a7.47,7.47,0,0,1,6.34,3.52v-10h2.46v23.36H1612v-3.33a7.43,7.43,0,0,1-6.34,3.68C1601.74,242.86,1597.8,239.73,1597.8,234.29Zm14.34,0v-.06a6.15,6.15,0,0,0-6-6.37c-3.2,0-5.82,2.37-5.82,6.37v.06c0,3.91,2.69,6.4,5.82,6.4A6.18,6.18,0,0,0,1612.14,234.25Z"/><path d="M1618.76,237.71v-.06c0-3.49,2.88-5.35,7.07-5.35a17.43,17.43,0,0,1,5.09.71v-.58c0-3-1.82-4.51-4.93-4.51a11.54,11.54,0,0,0-5,1.21l-.74-2a13.73,13.73,0,0,1,6-1.38,7.23,7.23,0,0,1,5.34,1.83,6.53,6.53,0,0,1,1.7,4.83v10.11h-2.37V240a7.23,7.23,0,0,1-6,2.85C1621.86,242.86,1618.76,241.1,1618.76,237.71Zm12.19-1.28v-1.6a17.38,17.38,0,0,0-4.86-.7c-3.11,0-4.83,1.34-4.83,3.42v.06c0,2.08,1.92,3.3,4.16,3.3C1628.46,240.91,1631,239.05,1631,236.43Z"/><path d="M1650.28,226h2.62L1646,243.05c-1.41,3.43-3,4.68-5.5,4.68a7.44,7.44,0,0,1-3.52-.84l.83-1.95a5.12,5.12,0,0,0,2.59.61c1.47,0,2.4-.77,3.39-3.1L1636.23,226H1639l6,13.79Z"/><path d="M1655.69,226.25c1.6-.57,2.27-1.4,2.14-2.78h-1.15v-3.36h2.94V223c0,2.59-1.12,3.84-3.55,4.38Z"/><path d="M1662.44,240.4l1.25-1.76a9.68,9.68,0,0,0,5.73,2.11c2,0,3.42-1,3.42-2.62v-.07c0-1.66-1.95-2.3-4.13-2.91-2.59-.74-5.47-1.63-5.47-4.67v-.07c0-2.84,2.37-4.73,5.63-4.73a11.27,11.27,0,0,1,6,1.82l-1.12,1.86a9.34,9.34,0,0,0-4.89-1.6c-2,0-3.2,1-3.2,2.4v.06c0,1.57,2.05,2.18,4.25,2.85,2.56.77,5.31,1.76,5.31,4.74v.06c0,3.14-2.59,5-5.88,5A11.41,11.41,0,0,1,1662.44,240.4Z"/><path d="M808,281.34v3.17h-2.46V261.15H808v10.14a7.46,7.46,0,0,1,6.34-3.68c4,0,7.9,3.14,7.9,8.58v.06c0,5.41-3.9,8.61-7.9,8.61A7.46,7.46,0,0,1,808,281.34Zm11.71-5v-.07c0-3.9-2.68-6.4-5.82-6.4a6.17,6.17,0,0,0-6,6.37v.06a6.16,6.16,0,0,0,6,6.4C817.11,282.65,819.73,280.29,819.73,276.29Z"/><path d="M826.81,268h2.46v4.32c1.22-2.76,3.62-4.74,6.75-4.61v2.65h-.19c-3.62,0-6.56,2.6-6.56,7.59v6.59h-2.46Z"/><path d="M839.83,261.63h2.82v2.72h-2.82ZM840,268h2.46v16.54H840Z"/><path d="M848,287.39l1.12-1.92a10.55,10.55,0,0,0,6.37,2.11c3.65,0,6-2,6-5.89v-1.95a7.83,7.83,0,0,1-6.49,3.49,7.65,7.65,0,0,1-7.78-7.74v-.07a7.83,7.83,0,0,1,14.24-4.48v-3h2.47v13.66a8,8,0,0,1-2.12,5.86,8.7,8.7,0,0,1-6.3,2.2A13,13,0,0,1,848,287.39Zm13.57-11.94v-.06c0-3.39-2.95-5.6-6.08-5.6a5.47,5.47,0,0,0-5.73,5.57v.06a5.6,5.6,0,0,0,5.73,5.63A5.84,5.84,0,0,0,861.56,275.45Z"/><path d="M869.43,261.15h2.46v9.7a6.27,6.27,0,0,1,5.67-3.24c4,0,6.33,2.69,6.33,6.63v10.27h-2.46v-9.66c0-3.08-1.66-5-4.58-5a4.87,4.87,0,0,0-5,5.19v9.47h-2.46Z"/><path d="M890,280.13v-10H887.7V268H890v-5h2.46v5h5.25v2.17h-5.25v9.67a2.45,2.45,0,0,0,2.78,2.75,5.11,5.11,0,0,0,2.4-.58v2.11a6.15,6.15,0,0,1-3,.71C892,284.8,890,283.49,890,280.13Z"/><path d="M900.57,276.29v-.07c0-4.77,3.36-8.61,7.93-8.61,4.9,0,7.71,3.91,7.71,8.74a6.87,6.87,0,0,1,0,.8H903.06a5.78,5.78,0,0,0,5.83,5.6,6.83,6.83,0,0,0,5.21-2.34l1.54,1.38a8.54,8.54,0,0,1-6.82,3.1A8.21,8.21,0,0,1,900.57,276.29Zm13.15-1c-.26-3-2-5.64-5.28-5.64-2.88,0-5.06,2.4-5.38,5.64Z"/><path d="M919.16,282.4l1.25-1.76a9.67,9.67,0,0,0,5.72,2.11c2,0,3.43-1,3.43-2.62v-.07c0-1.66-2-2.3-4.13-2.91-2.59-.74-5.47-1.63-5.47-4.67v-.07c0-2.84,2.37-4.73,5.63-4.73a11.33,11.33,0,0,1,5.95,1.82l-1.12,1.86a9.39,9.39,0,0,0-4.89-1.6c-2,0-3.2,1-3.2,2.4v.06c0,1.57,2,2.18,4.25,2.85,2.56.77,5.31,1.76,5.31,4.74v.06c0,3.14-2.59,5-5.88,5A11.39,11.39,0,0,1,919.16,282.4Z"/><path d="M937,280.13v-10h-2.3V268H937v-5h2.47v5h5.24v2.17h-5.24v9.67a2.45,2.45,0,0,0,2.78,2.75,5.13,5.13,0,0,0,2.4-.58v2.11a6.15,6.15,0,0,1-3,.71C939,284.8,937,283.49,937,280.13Z"/><path d="M963.8,280.13v-10h-2.3V268h2.3v-5h2.47v5h5.24v2.17h-5.24v9.67a2.45,2.45,0,0,0,2.78,2.75,5.16,5.16,0,0,0,2.4-.58v2.11a6.19,6.19,0,0,1-3,.71C965.82,284.8,963.8,283.49,963.8,280.13Z"/><path d="M974.62,279.71v-.06c0-3.49,2.88-5.35,7.07-5.35a17.48,17.48,0,0,1,5.09.71v-.58c0-3-1.83-4.51-4.93-4.51a11.54,11.54,0,0,0-5,1.21l-.74-2a13.65,13.65,0,0,1,6-1.38,7.26,7.26,0,0,1,5.35,1.83,6.53,6.53,0,0,1,1.69,4.83v10.11h-2.36V282a7.26,7.26,0,0,1-6,2.85C977.72,284.86,974.62,283.1,974.62,279.71Zm12.19-1.28v-1.6a17.4,17.4,0,0,0-4.87-.7c-3.1,0-4.83,1.34-4.83,3.42v.06c0,2.08,1.92,3.3,4.16,3.3C984.31,282.91,986.81,281.05,986.81,278.43Z"/><path d="M994.62,261.15h2.46v23.36h-2.46Z"/><path d="M1001.78,276.29v-.07c0-4.77,3.36-8.61,7.94-8.61,4.9,0,7.71,3.91,7.71,8.74a6.87,6.87,0,0,1,0,.8h-13.12a5.78,5.78,0,0,0,5.82,5.6,6.83,6.83,0,0,0,5.22-2.34l1.54,1.38a8.54,8.54,0,0,1-6.82,3.1A8.22,8.22,0,0,1,1001.78,276.29Zm13.16-1c-.26-3-2-5.64-5.28-5.64-2.88,0-5.06,2.4-5.38,5.64Z"/><path d="M1021.75,268h2.47v2.88a6.24,6.24,0,0,1,5.66-3.24c4,0,6.34,2.69,6.34,6.63v10.27h-2.47v-9.66c0-3.08-1.66-5-4.57-5a4.87,4.87,0,0,0-5,5.19v9.47h-2.47Z"/><path d="M1042.33,280.13v-10H1040V268h2.31v-5h2.46v5H1050v2.17h-5.25v9.67c0,2,1.12,2.75,2.79,2.75a5.16,5.16,0,0,0,2.4-.58v2.11a6.22,6.22,0,0,1-3,.71C1044.34,284.8,1042.33,283.49,1042.33,280.13Z"/><path d="M1070.72,281.34v3.17h-2.47V261.15h2.47v10.14a7.43,7.43,0,0,1,6.33-3.68c4,0,7.91,3.14,7.91,8.58v.06c0,5.41-3.91,8.61-7.91,8.61A7.45,7.45,0,0,1,1070.72,281.34Zm11.71-5v-.07c0-3.9-2.69-6.4-5.83-6.4a6.17,6.17,0,0,0-6,6.37v.06a6.16,6.16,0,0,0,6,6.4C1079.8,282.65,1082.43,280.29,1082.43,276.29Z"/><path d="M1089.24,278.24V268h2.47v9.66c0,3.07,1.66,5,4.57,5a4.88,4.88,0,0,0,5-5.18V268h2.44v16.54h-2.44v-2.88a6.3,6.3,0,0,1-5.66,3.23C1091.58,284.86,1089.24,282.17,1089.24,278.24Z"/><path d="M1110.08,280.13v-10h-2.31V268h2.31v-5h2.46v5h5.25v2.17h-5.25v9.67a2.45,2.45,0,0,0,2.78,2.75,5.11,5.11,0,0,0,2.4-.58v2.11a6.15,6.15,0,0,1-3,.71C1112.09,284.8,1110.08,283.49,1110.08,280.13Z"/><path d="M1134.75,279.71v-.06c0-3.49,2.88-5.35,7.07-5.35a17.38,17.38,0,0,1,5.09.71v-.58c0-3-1.82-4.51-4.93-4.51a11.58,11.58,0,0,0-5,1.21l-.74-2a13.73,13.73,0,0,1,6-1.38,7.22,7.22,0,0,1,5.34,1.83,6.53,6.53,0,0,1,1.7,4.83v10.11h-2.37V282a7.23,7.23,0,0,1-6,2.85C1137.86,284.86,1134.75,283.1,1134.75,279.71Zm12.19-1.28v-1.6a17.26,17.26,0,0,0-4.86-.7c-3.1,0-4.83,1.34-4.83,3.42v.06c0,2.08,1.92,3.3,4.16,3.3C1144.45,282.91,1146.94,281.05,1146.94,278.43Z"/><path d="M1154.75,261.15h2.47v23.36h-2.47Z"/><path d="M1161.57,282.4l1.25-1.76a9.67,9.67,0,0,0,5.72,2.11c2,0,3.43-1,3.43-2.62v-.07c0-1.66-2-2.3-4.13-2.91-2.59-.74-5.47-1.63-5.47-4.67v-.07c0-2.84,2.37-4.73,5.63-4.73a11.3,11.3,0,0,1,6,1.82l-1.12,1.86a9.36,9.36,0,0,0-4.89-1.6c-2,0-3.2,1-3.2,2.4v.06c0,1.57,2,2.18,4.25,2.85,2.56.77,5.31,1.76,5.31,4.74v.06c0,3.14-2.59,5-5.88,5A11.39,11.39,0,0,1,1161.57,282.4Z"/><path d="M1177.86,276.32v-.07a8.62,8.62,0,0,1,17.24-.06v.06a8.58,8.58,0,0,1-8.67,8.64A8.47,8.47,0,0,1,1177.86,276.32Zm14.71,0v-.07a6.25,6.25,0,0,0-6.14-6.46,6.11,6.11,0,0,0-6,6.4v.06a6.21,6.21,0,0,0,6.11,6.44A6.1,6.1,0,0,0,1192.57,276.32Z"/><path d="M1212,282.4l1.24-1.76a9.72,9.72,0,0,0,5.73,2.11c2,0,3.43-1,3.43-2.62v-.07c0-1.66-2-2.3-4.13-2.91-2.59-.74-5.47-1.63-5.47-4.67v-.07c0-2.84,2.36-4.73,5.63-4.73a11.33,11.33,0,0,1,6,1.82l-1.12,1.86a9.4,9.4,0,0,0-4.9-1.6c-2,0-3.2,1-3.2,2.4v.06c0,1.57,2,2.18,4.26,2.85,2.56.77,5.31,1.76,5.31,4.74v.06c0,3.14-2.59,5-5.89,5A11.38,11.38,0,0,1,1212,282.4Z"/><path d="M1229.35,268h2.46v3.32a7.45,7.45,0,0,1,6.34-3.68c4,0,7.9,3.14,7.9,8.58v.06c0,5.41-3.9,8.61-7.9,8.61a7.45,7.45,0,0,1-6.34-3.52v8.29h-2.46Zm14.17,8.32v-.07c0-3.9-2.69-6.4-5.82-6.4a6.17,6.17,0,0,0-6,6.37v.06a6.16,6.16,0,0,0,6,6.4C1240.9,282.65,1243.52,280.29,1243.52,276.29Z"/><path d="M1249.35,279.71v-.06c0-3.49,2.88-5.35,7.07-5.35a17.48,17.48,0,0,1,5.09.71v-.58c0-3-1.83-4.51-4.93-4.51a11.62,11.62,0,0,0-5,1.21l-.73-2a13.65,13.65,0,0,1,6-1.38,7.26,7.26,0,0,1,5.35,1.83,6.53,6.53,0,0,1,1.69,4.83v10.11h-2.36V282a7.26,7.26,0,0,1-6,2.85C1252.45,284.86,1249.35,283.1,1249.35,279.71Zm12.19-1.28v-1.6a17.4,17.4,0,0,0-4.87-.7c-3.1,0-4.83,1.34-4.83,3.42v.06c0,2.08,1.92,3.3,4.16,3.3C1259,282.91,1261.54,281.05,1261.54,278.43Z"/><path d="M1269.12,268h2.47v4.32a7.06,7.06,0,0,1,6.75-4.61v2.65h-.19c-3.62,0-6.56,2.6-6.56,7.59v6.59h-2.47Z"/><path d="M1282.08,261.15h2.47v16.13l8.92-9.31h3.08l-7,7.1,7.17,9.44h-2.94l-5.92-7.71-3.36,3.39v4.32h-2.47Z"/><path d="M1314.15,268h2.46v2.78a6.06,6.06,0,0,1,5.35-3.14,5.62,5.62,0,0,1,5.31,3.3,6.59,6.59,0,0,1,5.82-3.3c3.81,0,6.15,2.56,6.15,6.66v10.24h-2.47v-9.66c0-3.2-1.6-5-4.28-5-2.5,0-4.58,1.86-4.58,5.12v9.54h-2.43v-9.73c0-3.1-1.63-4.93-4.26-4.93s-4.61,2.18-4.61,5.22v9.44h-2.46Z"/><path d="M1343.46,276.32v-.07a8.63,8.63,0,0,1,17.25-.06v.06a8.58,8.58,0,0,1-8.67,8.64A8.47,8.47,0,0,1,1343.46,276.32Zm14.72,0v-.07a6.25,6.25,0,0,0-6.14-6.46,6.1,6.1,0,0,0-6,6.4v.06a6.21,6.21,0,0,0,6.11,6.44A6.1,6.1,0,0,0,1358.18,276.32Z"/><path d="M1366,280.13v-10h-2.3V268h2.3v-5h2.47v5h5.24v2.17h-5.24v9.67a2.45,2.45,0,0,0,2.78,2.75,5.13,5.13,0,0,0,2.4-.58v2.11a6.16,6.16,0,0,1-3,.71C1368,284.8,1366,283.49,1366,280.13Z"/><path d="M1378.15,261.63H1381v2.72h-2.82Zm.16,6.34h2.46v16.54h-2.46Z"/><path d="M1384.87,268h2.72l5.57,13.72,5.6-13.72h2.65l-7.2,16.67H1392Z"/><path d="M1403.24,279.71v-.06c0-3.49,2.88-5.35,7.07-5.35a17.48,17.48,0,0,1,5.09.71v-.58c0-3-1.83-4.51-4.93-4.51a11.54,11.54,0,0,0-5,1.21l-.74-2a13.69,13.69,0,0,1,6-1.38,7.25,7.25,0,0,1,5.34,1.83,6.53,6.53,0,0,1,1.69,4.83v10.11h-2.36V282a7.23,7.23,0,0,1-6,2.85C1406.34,284.86,1403.24,283.1,1403.24,279.71Zm12.19-1.28v-1.6a17.38,17.38,0,0,0-4.86-.7c-3.11,0-4.84,1.34-4.84,3.42v.06c0,2.08,1.92,3.3,4.16,3.3C1412.93,282.91,1415.43,281.05,1415.43,278.43Z"/><path d="M1423.72,280.13v-10h-2.31V268h2.31v-5h2.46v5h5.25v2.17h-5.25v9.67c0,2,1.12,2.75,2.79,2.75a5.16,5.16,0,0,0,2.4-.58v2.11a6.22,6.22,0,0,1-3,.71C1425.73,284.8,1423.72,283.49,1423.72,280.13Z"/><path d="M1435.85,261.63h2.81v2.72h-2.81ZM1436,268h2.46v16.54H1436Z"/><path d="M1443.17,276.32v-.07a8.63,8.63,0,0,1,17.25-.06v.06a8.58,8.58,0,0,1-8.67,8.64A8.47,8.47,0,0,1,1443.17,276.32Zm14.72,0v-.07a6.25,6.25,0,0,0-6.14-6.46,6.11,6.11,0,0,0-6,6.4v.06a6.21,6.21,0,0,0,6.11,6.44A6.1,6.1,0,0,0,1457.89,276.32Z"/><path d="M1464.87,268h2.46v2.88a6.27,6.27,0,0,1,5.67-3.24c4,0,6.33,2.69,6.33,6.63v10.27h-2.46v-9.66c0-3.08-1.67-5-4.58-5a4.87,4.87,0,0,0-5,5.19v9.47h-2.46Z"/><path d="M1483.3,287.29c1.6-.57,2.27-1.4,2.14-2.78h-1.15v-3.36h3V284c0,2.59-1.12,3.84-3.55,4.38Z"/><path d="M1506.35,261.63h2.81v2.72h-2.81Zm.15,6.34H1509v16.54h-2.47Z"/><path d="M1514.7,268h2.46v2.88a6.26,6.26,0,0,1,5.66-3.24c4,0,6.34,2.69,6.34,6.63v10.27h-2.46v-9.66c0-3.08-1.67-5-4.58-5a4.87,4.87,0,0,0-5,5.19v9.47h-2.46Z"/><path d="M1534.41,268h2.46v2.88a6.27,6.27,0,0,1,5.67-3.24c4,0,6.33,2.69,6.33,6.63v10.27h-2.46v-9.66c0-3.08-1.67-5-4.58-5a4.87,4.87,0,0,0-5,5.19v9.47h-2.46Z"/><path d="M1553.1,276.32v-.07a8.62,8.62,0,0,1,17.24-.06v.06a8.58,8.58,0,0,1-8.67,8.64A8.47,8.47,0,0,1,1553.1,276.32Zm14.72,0v-.07a6.26,6.26,0,0,0-6.15-6.46,6.11,6.11,0,0,0-6.05,6.4v.06a6.21,6.21,0,0,0,6.12,6.44A6.11,6.11,0,0,0,1567.82,276.32Z"/><path d="M1572.2,268h2.72l5.57,13.72,5.6-13.72h2.65l-7.2,16.67h-2.17Z"/><path d="M1590.57,279.71v-.06c0-3.49,2.88-5.35,7.07-5.35a17.43,17.43,0,0,1,5.09.71v-.58c0-3-1.83-4.51-4.93-4.51a11.54,11.54,0,0,0-5,1.21l-.74-2a13.69,13.69,0,0,1,6-1.38,7.25,7.25,0,0,1,5.34,1.83,6.53,6.53,0,0,1,1.7,4.83v10.11h-2.37V282a7.23,7.23,0,0,1-6,2.85C1593.67,284.86,1590.57,283.1,1590.57,279.71Zm12.19-1.28v-1.6a17.38,17.38,0,0,0-4.86-.7c-3.11,0-4.84,1.34-4.84,3.42v.06c0,2.08,1.92,3.3,4.16,3.3C1600.26,282.91,1602.76,281.05,1602.76,278.43Z"/><path d="M1611.05,280.13v-10h-2.31V268h2.31v-5h2.46v5h5.25v2.17h-5.25v9.67c0,2,1.12,2.75,2.79,2.75a5.16,5.16,0,0,0,2.4-.58v2.11a6.22,6.22,0,0,1-3,.71C1613.06,284.8,1611.05,283.49,1611.05,280.13Z"/><path d="M1623.18,261.63H1626v2.72h-2.81Zm.16,6.34h2.46v16.54h-2.46Z"/><path d="M1630.5,276.32v-.07a8.63,8.63,0,0,1,17.25-.06v.06a8.58,8.58,0,0,1-8.67,8.64A8.47,8.47,0,0,1,1630.5,276.32Zm14.72,0v-.07a6.25,6.25,0,0,0-6.14-6.46,6.11,6.11,0,0,0-6,6.4v.06a6.21,6.21,0,0,0,6.11,6.44A6.1,6.1,0,0,0,1645.22,276.32Z"/><path d="M1652.2,268h2.46v2.88a6.27,6.27,0,0,1,5.67-3.24c4,0,6.33,2.69,6.33,6.63v10.27h-2.46v-9.66c0-3.08-1.67-5-4.58-5a4.87,4.87,0,0,0-5,5.19v9.47h-2.46Z"/><path d="M1670.63,287.29c1.6-.57,2.27-1.4,2.15-2.78h-1.16v-3.36h3V284c0,2.59-1.12,3.84-3.55,4.38Z"/><path d="M805.56,303.15H808v9.7a6.27,6.27,0,0,1,5.67-3.24c4,0,6.33,2.69,6.33,6.63v10.27h-2.46v-9.66c0-3.08-1.67-5-4.58-5a4.87,4.87,0,0,0-5,5.19v9.47h-2.46Z"/><path d="M824,321.71v-.06c0-3.49,2.88-5.35,7.07-5.35a17.38,17.38,0,0,1,5.09.71v-.58c0-3-1.82-4.51-4.93-4.51a11.58,11.58,0,0,0-5,1.21l-.73-2a13.65,13.65,0,0,1,6-1.38,7.22,7.22,0,0,1,5.34,1.83,6.53,6.53,0,0,1,1.7,4.83v10.11h-2.37V324a7.23,7.23,0,0,1-6,2.85C827.13,326.86,824,325.1,824,321.71Zm12.19-1.28v-1.6a17.26,17.26,0,0,0-4.86-.7c-3.1,0-4.83,1.34-4.83,3.42v.06c0,2.08,1.92,3.3,4.16,3.3C833.72,324.91,836.21,323.05,836.21,320.43Z"/><path d="M843.8,310h2.46v3.32a7.46,7.46,0,0,1,6.34-3.68c4,0,7.9,3.14,7.9,8.58v.06c0,5.41-3.9,8.61-7.9,8.61a7.46,7.46,0,0,1-6.34-3.52v8.29H843.8ZM858,318.29v-.07c0-3.9-2.68-6.4-5.82-6.4a6.17,6.17,0,0,0-6,6.37v.06a6.16,6.16,0,0,0,6,6.4C855.35,324.65,858,322.29,858,318.29Z"/><path d="M865.05,310h2.46v3.32a7.45,7.45,0,0,1,6.34-3.68c4,0,7.9,3.14,7.9,8.58v.06c0,5.41-3.9,8.61-7.9,8.61a7.45,7.45,0,0,1-6.34-3.52v8.29h-2.46Zm14.17,8.32v-.07c0-3.9-2.69-6.4-5.82-6.4a6.17,6.17,0,0,0-6,6.37v.06a6.16,6.16,0,0,0,6,6.4C876.6,324.65,879.22,322.29,879.22,318.29Z"/><path d="M886.36,303.63h2.81v2.72h-2.81Zm.16,6.34H889v16.54h-2.46Z"/><path d="M894.71,310h2.46v2.88a6.27,6.27,0,0,1,5.67-3.24c4,0,6.33,2.69,6.33,6.63v10.27h-2.46v-9.66c0-3.08-1.67-5-4.58-5a4.87,4.87,0,0,0-5,5.19v9.47h-2.46Z"/><path d="M913.4,318.29v-.07c0-4.77,3.36-8.61,7.93-8.61,4.9,0,7.71,3.91,7.71,8.74a6.87,6.87,0,0,1,0,.8H915.89a5.79,5.79,0,0,0,5.83,5.6,6.83,6.83,0,0,0,5.21-2.34l1.54,1.38a8.54,8.54,0,0,1-6.82,3.1A8.21,8.21,0,0,1,913.4,318.29Zm13.15-1c-.26-3-2-5.64-5.28-5.64-2.88,0-5.06,2.4-5.38,5.64Z"/><path d="M932,324.4l1.25-1.76a9.68,9.68,0,0,0,5.73,2.11c2,0,3.42-1,3.42-2.62v-.07c0-1.66-1.95-2.3-4.13-2.91-2.59-.74-5.47-1.63-5.47-4.67v-.07c0-2.84,2.37-4.73,5.63-4.73a11.27,11.27,0,0,1,6,1.82l-1.12,1.86a9.34,9.34,0,0,0-4.89-1.6c-2,0-3.2,1-3.2,2.4v.06c0,1.57,2.05,2.18,4.25,2.85,2.56.77,5.31,1.76,5.31,4.74v.06c0,3.14-2.59,5-5.88,5A11.41,11.41,0,0,1,932,324.4Z"/><path d="M947.61,324.4l1.24-1.76a9.72,9.72,0,0,0,5.73,2.11c2,0,3.42-1,3.42-2.62v-.07c0-1.66-2-2.3-4.12-2.91-2.59-.74-5.47-1.63-5.47-4.67v-.07c0-2.84,2.36-4.73,5.63-4.73a11.33,11.33,0,0,1,6,1.82l-1.12,1.86a9.4,9.4,0,0,0-4.9-1.6c-2,0-3.2,1-3.2,2.4v.06c0,1.57,2.05,2.18,4.26,2.85,2.56.77,5.31,1.76,5.31,4.74v.06c0,3.14-2.59,5-5.89,5A11.36,11.36,0,0,1,947.61,324.4Z"/><path d="M963.64,329.29c1.6-.57,2.27-1.4,2.14-2.78h-1.15v-3.36h2.94V326c0,2.59-1.12,3.84-3.55,4.38Z"/><path d="M984.16,321.71v-.06c0-3.49,2.88-5.35,7.07-5.35a17.48,17.48,0,0,1,5.09.71v-.58c0-3-1.83-4.51-4.93-4.51a11.62,11.62,0,0,0-5,1.21l-.73-2a13.65,13.65,0,0,1,6-1.38,7.26,7.26,0,0,1,5.35,1.83,6.53,6.53,0,0,1,1.69,4.83v10.11h-2.36V324a7.26,7.26,0,0,1-6,2.85C987.26,326.86,984.16,325.1,984.16,321.71Zm12.19-1.28v-1.6a17.4,17.4,0,0,0-4.87-.7c-3.1,0-4.83,1.34-4.83,3.42v.06c0,2.08,1.92,3.3,4.16,3.3C993.85,324.91,996.35,323.05,996.35,320.43Z"/><path d="M1003.93,310h2.47v2.88a6.24,6.24,0,0,1,5.66-3.24c4,0,6.34,2.69,6.34,6.63v10.27h-2.47v-9.66c0-3.08-1.66-5-4.57-5a4.87,4.87,0,0,0-5,5.19v9.47h-2.47Z"/><path d="M1022.68,318.29v-.07c0-5.41,3.94-8.61,7.91-8.61a7.47,7.47,0,0,1,6.33,3.52v-10h2.47v23.36h-2.47v-3.33a7.41,7.41,0,0,1-6.33,3.68C1026.62,326.86,1022.68,323.73,1022.68,318.29Zm14.34,0v-.06a6.15,6.15,0,0,0-6-6.37c-3.2,0-5.83,2.37-5.83,6.37v.06c0,3.91,2.69,6.4,5.83,6.4A6.17,6.17,0,0,0,1037,318.25Z"/><path d="M1057.76,303.15h2.47v23.36h-2.47Z"/><path d="M1064.93,318.32v-.07a8.63,8.63,0,0,1,17.25-.06v.06a8.58,8.58,0,0,1-8.67,8.64A8.47,8.47,0,0,1,1064.93,318.32Zm14.72,0v-.07a6.26,6.26,0,0,0-6.14-6.46,6.1,6.1,0,0,0-6,6.4v.06a6.21,6.21,0,0,0,6.11,6.44A6.11,6.11,0,0,0,1079.65,318.32Z"/><path d="M1098.05,310h2.62l-6.94,17.08c-1.41,3.43-3,4.68-5.5,4.68a7.44,7.44,0,0,1-3.52-.84l.83-1.95a5.12,5.12,0,0,0,2.59.61c1.47,0,2.4-.77,3.39-3.1L1084,310h2.72l6,13.79Z"/><path d="M1102.53,321.71v-.06c0-3.49,2.88-5.35,7.07-5.35a17.43,17.43,0,0,1,5.09.71v-.58c0-3-1.82-4.51-4.93-4.51a11.54,11.54,0,0,0-5,1.21l-.74-2a13.73,13.73,0,0,1,6-1.38,7.23,7.23,0,0,1,5.34,1.83,6.53,6.53,0,0,1,1.7,4.83v10.11h-2.37V324a7.23,7.23,0,0,1-6,2.85C1105.63,326.86,1102.53,325.1,1102.53,321.71Zm12.19-1.28v-1.6a17.38,17.38,0,0,0-4.86-.7c-3.11,0-4.83,1.34-4.83,3.42v.06c0,2.08,1.92,3.3,4.16,3.3C1112.23,324.91,1114.72,323.05,1114.72,320.43Z"/><path d="M1122.53,303.15H1125v23.36h-2.46Z"/><path d="M1131.58,322.13v-10h-2.3V310h2.3v-5h2.47v5h5.25v2.17h-5.25v9.67a2.45,2.45,0,0,0,2.78,2.75,5.13,5.13,0,0,0,2.4-.58v2.11a6.15,6.15,0,0,1-3,.71C1133.6,326.8,1131.58,325.49,1131.58,322.13Z"/><path d="M1156,310h2.63l-7,17.08c-1.41,3.43-3,4.68-5.5,4.68a7.44,7.44,0,0,1-3.52-.84l.83-1.95a5.14,5.14,0,0,0,2.59.61c1.47,0,2.4-.77,3.39-3.1L1142,310h2.72l6,13.79Z"/><path d="M1176.14,312.14h-2.28V310h2.28v-1.44a5.84,5.84,0,0,1,1.44-4.26,4.86,4.86,0,0,1,3.55-1.28,7.44,7.44,0,0,1,2.72.42v2.14a8.46,8.46,0,0,0-2.4-.41c-1.92,0-2.88,1.15-2.88,3.52V310h5.25v2.11h-5.22v14.37h-2.46Z"/><path d="M1185.61,318.32v-.07a8.62,8.62,0,0,1,17.24-.06v.06a8.58,8.58,0,0,1-8.67,8.64A8.47,8.47,0,0,1,1185.61,318.32Zm14.72,0v-.07a6.26,6.26,0,0,0-6.15-6.46,6.1,6.1,0,0,0-6,6.4v.06a6.21,6.21,0,0,0,6.11,6.44A6.11,6.11,0,0,0,1200.33,318.32Z"/><path d="M1207.3,310h2.47v4.32a7.06,7.06,0,0,1,6.75-4.61v2.65h-.19c-3.62,0-6.56,2.6-6.56,7.59v6.59h-2.47Z"/><path d="M1245.29,310h2.63l-7,17.08c-1.4,3.43-3,4.68-5.5,4.68a7.44,7.44,0,0,1-3.52-.84l.83-1.95a5.14,5.14,0,0,0,2.59.61c1.48,0,2.4-.77,3.4-3.1L1231.25,310H1234l6,13.79Z"/><path d="M1249.84,318.29v-.07c0-4.77,3.36-8.61,7.93-8.61,4.9,0,7.72,3.91,7.72,8.74a5.16,5.16,0,0,1,0,.8h-13.12a5.79,5.79,0,0,0,5.83,5.6,6.83,6.83,0,0,0,5.21-2.34l1.54,1.38a8.52,8.52,0,0,1-6.82,3.1A8.21,8.21,0,0,1,1249.84,318.29Zm13.15-1c-.26-3-2-5.64-5.28-5.64-2.88,0-5.06,2.4-5.38,5.64Z"/><path d="M1268.56,321.71v-.06c0-3.49,2.88-5.35,7.07-5.35a17.43,17.43,0,0,1,5.09.71v-.58c0-3-1.83-4.51-4.93-4.51a11.54,11.54,0,0,0-5,1.21l-.74-2a13.69,13.69,0,0,1,6-1.38,7.25,7.25,0,0,1,5.34,1.83,6.53,6.53,0,0,1,1.69,4.83v10.11h-2.36V324a7.23,7.23,0,0,1-6,2.85C1271.66,326.86,1268.56,325.1,1268.56,321.71Zm12.19-1.28v-1.6a17.38,17.38,0,0,0-4.86-.7c-3.11,0-4.84,1.34-4.84,3.42v.06c0,2.08,1.92,3.3,4.16,3.3C1278.25,324.91,1280.75,323.05,1280.75,320.43Z"/><path d="M1288.33,310h2.47v4.32a7.06,7.06,0,0,1,6.75-4.61v2.65h-.19c-3.62,0-6.56,2.6-6.56,7.59v6.59h-2.47Z"/><path d="M1299.92,324.4l1.25-1.76a9.67,9.67,0,0,0,5.72,2.11c2,0,3.43-1,3.43-2.62v-.07c0-1.66-2-2.3-4.13-2.91-2.59-.74-5.47-1.63-5.47-4.67v-.07c0-2.84,2.37-4.73,5.63-4.73a11.27,11.27,0,0,1,6,1.82l-1.12,1.86a9.34,9.34,0,0,0-4.89-1.6c-2,0-3.2,1-3.2,2.4v.06c0,1.57,2,2.18,4.25,2.85,2.56.77,5.31,1.76,5.31,4.74v.06c0,3.14-2.59,5-5.88,5A11.39,11.39,0,0,1,1299.92,324.4Z"/><path d="M1330.74,322.13v-10h-2.3V310h2.3v-5h2.46v5h5.25v2.17h-5.25v9.67c0,2,1.12,2.75,2.79,2.75a5.16,5.16,0,0,0,2.4-.58v2.11a6.19,6.19,0,0,1-3,.71C1332.76,326.8,1330.74,325.49,1330.74,322.13Z"/><path d="M1341.3,318.32v-.07a8.63,8.63,0,0,1,17.25-.06v.06a8.58,8.58,0,0,1-8.67,8.64A8.47,8.47,0,0,1,1341.3,318.32Zm14.72,0v-.07a6.26,6.26,0,0,0-6.14-6.46,6.1,6.1,0,0,0-6.05,6.4v.06a6.21,6.21,0,0,0,6.11,6.44A6.11,6.11,0,0,0,1356,318.32Z"/><path d="M1374.62,318.32v-.07a8.61,8.61,0,0,1,15.1-5.69l-1.63,1.73a6.66,6.66,0,0,0-5-2.5,6.11,6.11,0,0,0-5.92,6.4v.06a6.18,6.18,0,0,0,6.08,6.44,6.81,6.81,0,0,0,5-2.47l1.57,1.47a8.56,8.56,0,0,1-15.23-5.37Z"/><path d="M1392.41,318.32v-.07a8.63,8.63,0,0,1,17.25-.06v.06a8.58,8.58,0,0,1-8.67,8.64A8.47,8.47,0,0,1,1392.41,318.32Zm14.72,0v-.07a6.25,6.25,0,0,0-6.14-6.46,6.1,6.1,0,0,0-6,6.4v.06a6.21,6.21,0,0,0,6.11,6.44A6.1,6.1,0,0,0,1407.13,318.32Z"/><path d="M1414.11,310h2.46v2.78a6.06,6.06,0,0,1,5.35-3.14,5.63,5.63,0,0,1,5.31,3.3,6.59,6.59,0,0,1,5.82-3.3c3.81,0,6.14,2.56,6.14,6.66v10.24h-2.46v-9.66c0-3.2-1.6-5-4.29-5-2.49,0-4.57,1.86-4.57,5.12v9.54h-2.43v-9.73c0-3.1-1.64-4.93-4.26-4.93s-4.61,2.18-4.61,5.22v9.44h-2.46Z"/><path d="M1443.42,318.29v-.07c0-4.77,3.36-8.61,7.93-8.61,4.9,0,7.72,3.91,7.72,8.74a5.16,5.16,0,0,1,0,.8h-13.11a5.78,5.78,0,0,0,5.82,5.6,6.83,6.83,0,0,0,5.21-2.34l1.54,1.38a8.52,8.52,0,0,1-6.81,3.1A8.22,8.22,0,0,1,1443.42,318.29Zm13.15-1c-.26-3-2-5.64-5.28-5.64-2.88,0-5,2.4-5.37,5.64Z"/><path d="M1462.75,323.15h2.94v3.36h-2.94Z"/><path d="M1483,315.37v-.06c0-6.14,4.51-11.58,11.23-11.58a11.84,11.84,0,0,1,8.35,3l-1.63,1.92a9.56,9.56,0,0,0-6.82-2.56c-5,0-8.51,4.19-8.51,9.19v.06c0,5.34,3.42,9.31,8.86,9.31a10.56,10.56,0,0,0,6.47-2.24v-5.57h-6.82v-2.27h9.25v8.93a13.56,13.56,0,0,1-9,3.42C1487.3,326.89,1483,321.77,1483,315.37Z"/><path d="M1508.67,303.63h2.82v2.72h-2.82Zm.16,6.34h2.47v16.54h-2.47Z"/><path d="M1515.39,310h2.72l5.57,13.72,5.6-13.72h2.66l-7.2,16.67h-2.18Z"/><path d="M1535.87,303.63h2.82v2.72h-2.82ZM1536,310h2.47v16.54H1536Z"/><path d="M1544.23,310h2.46v2.88a6.25,6.25,0,0,1,5.66-3.24c4,0,6.34,2.69,6.34,6.63v10.27h-2.47v-9.66c0-3.08-1.66-5-4.57-5a4.87,4.87,0,0,0-5,5.19v9.47h-2.46Z"/><path d="M1563.74,329.39l1.12-1.92a10.55,10.55,0,0,0,6.37,2.11c3.65,0,6-2,6-5.89v-1.95a7.85,7.85,0,0,1-6.5,3.49,7.65,7.65,0,0,1-7.77-7.74v-.07a7.69,7.69,0,0,1,7.77-7.81,7.77,7.77,0,0,1,6.47,3.33v-3h2.46v13.66a8,8,0,0,1-2.11,5.86,8.71,8.71,0,0,1-6.31,2.2A13,13,0,0,1,1563.74,329.39Zm13.57-11.94v-.06c0-3.39-2.94-5.6-6.08-5.6a5.48,5.48,0,0,0-5.73,5.57v.06a5.6,5.6,0,0,0,5.73,5.63A5.83,5.83,0,0,0,1577.31,317.45Z"/><path d="M1598.7,322.13v-10h-2.31V310h2.31v-5h2.46v5h5.25v2.17h-5.25v9.67a2.45,2.45,0,0,0,2.78,2.75,5.11,5.11,0,0,0,2.4-.58v2.11a6.15,6.15,0,0,1-3,.71C1600.71,326.8,1598.7,325.49,1598.7,322.13Z"/><path d="M1610.76,303.15h2.46v9.7a6.27,6.27,0,0,1,5.67-3.24c4,0,6.33,2.69,6.33,6.63v10.27h-2.46v-9.66c0-3.08-1.67-5-4.58-5a4.87,4.87,0,0,0-5,5.19v9.47h-2.46Z"/><path d="M1629.45,318.29v-.07c0-4.77,3.36-8.61,7.93-8.61,4.9,0,7.71,3.91,7.71,8.74a6.87,6.87,0,0,1,0,.8h-13.12a5.79,5.79,0,0,0,5.83,5.6,6.83,6.83,0,0,0,5.21-2.34l1.54,1.38a8.54,8.54,0,0,1-6.82,3.1A8.21,8.21,0,0,1,1629.45,318.29Zm13.15-1c-.26-3-2-5.64-5.28-5.64-2.88,0-5.06,2.4-5.38,5.64Z"/><path d="M1649.42,310h2.46v2.78a6.05,6.05,0,0,1,5.34-3.14,5.61,5.61,0,0,1,5.31,3.3,6.62,6.62,0,0,1,5.83-3.3c3.81,0,6.14,2.56,6.14,6.66v10.24H1672v-9.66c0-3.2-1.6-5-4.29-5-2.5,0-4.58,1.86-4.58,5.12v9.54h-2.43v-9.73c0-3.1-1.63-4.93-4.25-4.93s-4.61,2.18-4.61,5.22v9.44h-2.46Z"/><path d="M805.56,352H808v2.78a6.06,6.06,0,0,1,5.35-3.14,5.63,5.63,0,0,1,5.31,3.3,6.59,6.59,0,0,1,5.82-3.3c3.81,0,6.15,2.56,6.15,6.66v10.24h-2.47v-9.66c0-3.2-1.6-5-4.29-5-2.49,0-4.57,1.86-4.57,5.12v9.54h-2.43v-9.73c0-3.1-1.64-4.93-4.26-4.93S808,356,808,359.07v9.44h-2.46Z"/><path d="M833.91,360.32v-.07a8.63,8.63,0,0,1,17.25-.06v.06a8.58,8.58,0,0,1-8.67,8.64A8.47,8.47,0,0,1,833.91,360.32Zm14.72,0v-.07a6.26,6.26,0,0,0-6.14-6.46,6.1,6.1,0,0,0-6,6.4v.06a6.21,6.21,0,0,0,6.11,6.44A6.11,6.11,0,0,0,848.63,360.32Z"/><path d="M854.65,352h2.46v4.32c1.22-2.76,3.62-4.74,6.75-4.61v2.65h-.19c-3.62,0-6.56,2.6-6.56,7.59v6.59h-2.46Z"/><path d="M864.92,360.29v-.07c0-4.77,3.36-8.61,7.93-8.61,4.9,0,7.72,3.91,7.72,8.74a5.16,5.16,0,0,1,0,.8H867.42a5.78,5.78,0,0,0,5.82,5.6,6.83,6.83,0,0,0,5.21-2.34l1.54,1.38a8.52,8.52,0,0,1-6.81,3.1A8.22,8.22,0,0,1,864.92,360.29Zm13.15-1c-.26-3-2-5.64-5.28-5.64-2.88,0-5,2.4-5.37,5.64Z"/><path d="M891.54,360.32v-.07a8.63,8.63,0,0,1,17.25-.06v.06a8.58,8.58,0,0,1-8.67,8.64A8.47,8.47,0,0,1,891.54,360.32Zm14.72,0v-.07a6.25,6.25,0,0,0-6.14-6.46,6.11,6.11,0,0,0-6,6.4v.06a6.21,6.21,0,0,0,6.11,6.44A6.1,6.1,0,0,0,906.26,360.32Z"/><path d="M913.21,354.14h-2.27V352h2.27v-1.44a5.84,5.84,0,0,1,1.44-4.26A4.86,4.86,0,0,1,918.2,345a7.44,7.44,0,0,1,2.72.42v2.14a8.46,8.46,0,0,0-2.4-.41c-1.92,0-2.88,1.15-2.88,3.52V352h5.25v2.11h-5.22v14.37h-2.46Z"/><path d="M932.57,364.13v-10h-2.31V352h2.31v-5H935v5h5.25v2.17H935v9.67a2.45,2.45,0,0,0,2.78,2.75,5.11,5.11,0,0,0,2.4-.58v2.11a6.15,6.15,0,0,1-3,.71C934.58,368.8,932.57,367.49,932.57,364.13Z"/><path d="M943.67,345.15h2.46v9.7a6.27,6.27,0,0,1,5.67-3.24c4,0,6.33,2.69,6.33,6.63v10.27h-2.46v-9.66c0-3.08-1.67-5-4.58-5a4.87,4.87,0,0,0-5,5.19v9.47h-2.46Z"/><path d="M961.4,360.29v-.07c0-4.77,3.36-8.61,7.93-8.61,4.9,0,7.71,3.91,7.71,8.74a6.87,6.87,0,0,1,0,.8H963.89a5.79,5.79,0,0,0,5.83,5.6,6.83,6.83,0,0,0,5.21-2.34l1.54,1.38a8.54,8.54,0,0,1-6.82,3.1A8.21,8.21,0,0,1,961.4,360.29Zm13.15-1c-.26-3-2-5.64-5.28-5.64-2.88,0-5.06,2.4-5.38,5.64Z"/><path d="M989.91,364.13v-10h-2.3V352h2.3v-5h2.46v5h5.25v2.17h-5.25v9.67c0,2,1.12,2.75,2.79,2.75a5.16,5.16,0,0,0,2.4-.58v2.11a6.22,6.22,0,0,1-3,.71C991.93,368.8,989.91,367.49,989.91,364.13Z"/><path d="M1001,345.15h2.47v9.7a6.24,6.24,0,0,1,5.66-3.24c4,0,6.34,2.69,6.34,6.63v10.27H1013v-9.66c0-3.08-1.66-5-4.57-5a4.87,4.87,0,0,0-5,5.19v9.47H1001Z"/><path d="M1019.83,345.63h2.82v2.72h-2.82ZM1020,352h2.46v16.54H1020Z"/><path d="M1027.22,352h2.46v2.88a6.27,6.27,0,0,1,5.67-3.24c4,0,6.33,2.69,6.33,6.63v10.27h-2.46v-9.66c0-3.08-1.66-5-4.58-5a4.87,4.87,0,0,0-5,5.19v9.47h-2.46Z"/><path d="M1045.78,371.39l1.12-1.92a10.55,10.55,0,0,0,6.37,2.11c3.65,0,6-2,6-5.89v-1.95a7.83,7.83,0,0,1-6.49,3.49,7.65,7.65,0,0,1-7.78-7.74v-.07a7.83,7.83,0,0,1,14.24-4.48v-3h2.47v13.66a8,8,0,0,1-2.12,5.86,8.7,8.7,0,0,1-6.3,2.2A13,13,0,0,1,1045.78,371.39Zm13.57-11.94v-.06c0-3.39-2.95-5.6-6.08-5.6a5.47,5.47,0,0,0-5.73,5.57v.06a5.6,5.6,0,0,0,5.73,5.63A5.84,5.84,0,0,0,1059.35,359.45Z"/><path d="M1064.88,366.4l1.25-1.76a9.7,9.7,0,0,0,5.73,2.11c2,0,3.42-1,3.42-2.62v-.07c0-1.66-2-2.3-4.12-2.91-2.6-.74-5.48-1.63-5.48-4.67v-.07c0-2.84,2.37-4.73,5.64-4.73a11.33,11.33,0,0,1,6,1.82l-1.12,1.86a9.4,9.4,0,0,0-4.9-1.6c-2,0-3.2,1-3.2,2.4v.06c0,1.57,2,2.18,4.26,2.85,2.56.77,5.31,1.76,5.31,4.74v.06c0,3.14-2.59,5-5.89,5A11.41,11.41,0,0,1,1064.88,366.4Z"/><path d="M1090.74,364.13v-10h-2.3V352h2.3v-5h2.46v5h5.25v2.17h-5.25v9.67c0,2,1.12,2.75,2.79,2.75a5.16,5.16,0,0,0,2.4-.58v2.11a6.22,6.22,0,0,1-3,.71C1092.76,368.8,1090.74,367.49,1090.74,364.13Z"/><path d="M1101.84,345.15h2.47v9.7a6.24,6.24,0,0,1,5.66-3.24c4,0,6.34,2.69,6.34,6.63v10.27h-2.47v-9.66c0-3.08-1.66-5-4.57-5a4.87,4.87,0,0,0-5,5.19v9.47h-2.47Z"/><path d="M1119.57,360.29v-.07c0-4.77,3.36-8.61,7.94-8.61,4.89,0,7.71,3.91,7.71,8.74a6.87,6.87,0,0,1,0,.8h-13.12a5.78,5.78,0,0,0,5.82,5.6,6.86,6.86,0,0,0,5.22-2.34l1.53,1.38a8.52,8.52,0,0,1-6.81,3.1A8.22,8.22,0,0,1,1119.57,360.29Zm13.15-1c-.25-3-2-5.64-5.28-5.64-2.88,0-5,2.4-5.37,5.64Z"/><path d="M1150.16,352h2.63l-7,17.08c-1.41,3.43-3,4.68-5.5,4.68a7.44,7.44,0,0,1-3.52-.84l.83-1.95a5.14,5.14,0,0,0,2.59.61c1.47,0,2.4-.77,3.39-3.1L1136.11,352h2.72l6,13.79Z"/><path d="M1164.59,345.15h2.47v23.36h-2.47Z"/><path d="M1170.8,360.32v-.07a8.63,8.63,0,0,1,17.25-.06v.06a8.58,8.58,0,0,1-8.67,8.64A8.47,8.47,0,0,1,1170.8,360.32Zm14.72,0v-.07a6.26,6.26,0,0,0-6.14-6.46,6.1,6.1,0,0,0-6.05,6.4v.06a6.21,6.21,0,0,0,6.11,6.44A6.11,6.11,0,0,0,1185.52,360.32Z"/><path d="M1189,352h2.72l5.56,13.72,5.6-13.72h2.66l-7.2,16.67h-2.18Z"/><path d="M1206.42,360.29v-.07c0-4.77,3.36-8.61,7.93-8.61,4.9,0,7.71,3.91,7.71,8.74a6.87,6.87,0,0,1,0,.8h-13.12a5.79,5.79,0,0,0,5.83,5.6,6.83,6.83,0,0,0,5.21-2.34l1.54,1.38a8.54,8.54,0,0,1-6.82,3.1A8.21,8.21,0,0,1,1206.42,360.29Zm13.15-1c-.26-3-2-5.64-5.28-5.64-2.88,0-5.06,2.4-5.38,5.64Z"/><path d="M1223.83,371.29c1.6-.57,2.27-1.4,2.14-2.78h-1.15v-3.36h2.94V368c0,2.59-1.12,3.84-3.55,4.38Z"/><path d="M1239.38,363.71v-.06c0-3.49,2.88-5.35,7.07-5.35a17.48,17.48,0,0,1,5.09.71v-.58c0-3-1.83-4.51-4.93-4.51a11.62,11.62,0,0,0-5,1.21l-.73-2a13.65,13.65,0,0,1,6-1.38,7.26,7.26,0,0,1,5.35,1.83,6.53,6.53,0,0,1,1.69,4.83v10.11h-2.36V366a7.26,7.26,0,0,1-6,2.85C1242.48,368.86,1239.38,367.1,1239.38,363.71Zm12.19-1.28v-1.6a17.4,17.4,0,0,0-4.87-.7c-3.1,0-4.83,1.34-4.83,3.42v.06c0,2.08,1.92,3.3,4.16,3.3C1249.07,366.91,1251.57,365.05,1251.57,362.43Z"/><path d="M1258.19,352h2.47v2.88a6.24,6.24,0,0,1,5.66-3.24c4,0,6.34,2.69,6.34,6.63v10.27h-2.47v-9.66c0-3.08-1.66-5-4.57-5a4.87,4.87,0,0,0-5,5.19v9.47h-2.47Z"/><path d="M1276,360.29v-.07c0-5.41,3.94-8.61,7.91-8.61a7.47,7.47,0,0,1,6.33,3.52v-10h2.47v23.36h-2.47v-3.33a7.41,7.41,0,0,1-6.33,3.68C1279.92,368.86,1276,365.73,1276,360.29Zm14.34,0v-.06a6.15,6.15,0,0,0-6-6.37c-3.2,0-5.83,2.37-5.83,6.37v.06c0,3.91,2.69,6.4,5.83,6.4A6.17,6.17,0,0,0,1290.32,360.25Z"/><path d="M1305.68,371.39l1.12-1.92a10.55,10.55,0,0,0,6.37,2.11c3.64,0,6-2,6-5.89v-1.95a7.83,7.83,0,0,1-6.49,3.49,7.65,7.65,0,0,1-7.78-7.74v-.07a7.83,7.83,0,0,1,14.24-4.48v-3h2.46v13.66a8,8,0,0,1-2.11,5.86,8.7,8.7,0,0,1-6.3,2.2A13,13,0,0,1,1305.68,371.39Zm13.57-11.94v-.06c0-3.39-3-5.6-6.08-5.6a5.47,5.47,0,0,0-5.73,5.57v.06a5.6,5.6,0,0,0,5.73,5.63A5.84,5.84,0,0,0,1319.25,359.45Z"/><path d="M1326.22,345.63H1329v2.72h-2.82Zm.16,6.34h2.47v16.54h-2.47Z"/><path d="M1332,352h2.72l5.57,13.72,5.6-13.72h2.66l-7.2,16.67h-2.18Z"/><path d="M1351.5,345.63h2.82v2.72h-2.82Zm.16,6.34h2.47v16.54h-2.47Z"/><path d="M1358.89,352h2.47v2.88a6.25,6.25,0,0,1,5.66-3.24c4,0,6.34,2.69,6.34,6.63v10.27h-2.47v-9.66c0-3.08-1.66-5-4.57-5a4.87,4.87,0,0,0-5,5.19v9.47h-2.47Z"/><path d="M1377.45,371.39l1.12-1.92a10.55,10.55,0,0,0,6.37,2.11c3.65,0,6-2,6-5.89v-1.95a7.85,7.85,0,0,1-6.5,3.49,7.65,7.65,0,0,1-7.77-7.74v-.07a7.82,7.82,0,0,1,14.23-4.48v-3h2.47v13.66a8,8,0,0,1-2.11,5.86,8.71,8.71,0,0,1-6.31,2.2A13,13,0,0,1,1377.45,371.39ZM1391,359.45v-.06c0-3.39-2.94-5.6-6.08-5.6a5.48,5.48,0,0,0-5.73,5.57v.06a5.6,5.6,0,0,0,5.73,5.63A5.83,5.83,0,0,0,1391,359.45Z"/><path d="M1419,352h2.62l-6.94,17.08c-1.41,3.43-3,4.68-5.51,4.68a7.47,7.47,0,0,1-3.52-.84l.84-1.95a5.12,5.12,0,0,0,2.59.61c1.47,0,2.4-.77,3.39-3.1L1404.91,352h2.72l6,13.79Z"/><path d="M1422.54,360.32v-.07a8.63,8.63,0,0,1,17.25-.06v.06a8.58,8.58,0,0,1-8.67,8.64A8.47,8.47,0,0,1,1422.54,360.32Zm14.72,0v-.07a6.26,6.26,0,0,0-6.14-6.46,6.1,6.1,0,0,0-6,6.4v.06a6.21,6.21,0,0,0,6.11,6.44A6.11,6.11,0,0,0,1437.26,360.32Z"/><path d="M1443,362.24V352h2.46v9.66c0,3.07,1.67,5,4.58,5a4.88,4.88,0,0,0,5-5.18V352h2.43v16.54H1455v-2.88a6.31,6.31,0,0,1-5.66,3.23C1445.36,368.86,1443,366.17,1443,362.24Z"/><path d="M1470.67,352h2.46v3.32a7.46,7.46,0,0,1,6.34-3.68c4,0,7.9,3.14,7.9,8.58v.06c0,5.41-3.9,8.61-7.9,8.61a7.46,7.46,0,0,1-6.34-3.52v8.29h-2.46Zm14.17,8.32v-.07c0-3.9-2.69-6.4-5.82-6.4a6.17,6.17,0,0,0-6,6.37v.06a6.16,6.16,0,0,0,6,6.4C1482.22,366.65,1484.84,364.29,1484.84,360.29Z"/><path d="M1489.93,360.29v-.07c0-4.77,3.36-8.61,7.94-8.61,4.89,0,7.71,3.91,7.71,8.74a6.87,6.87,0,0,1,0,.8h-13.12a5.78,5.78,0,0,0,5.82,5.6,6.86,6.86,0,0,0,5.22-2.34l1.53,1.38a8.52,8.52,0,0,1-6.81,3.1A8.22,8.22,0,0,1,1489.93,360.29Zm13.15-1c-.25-3-2-5.64-5.28-5.64-2.88,0-5,2.4-5.37,5.64Z"/><path d="M1507.69,363.71v-.06c0-3.49,2.88-5.35,7.07-5.35a17.43,17.43,0,0,1,5.09.71v-.58c0-3-1.82-4.51-4.93-4.51a11.58,11.58,0,0,0-5,1.21l-.74-2a13.73,13.73,0,0,1,6-1.38,7.23,7.23,0,0,1,5.34,1.83,6.53,6.53,0,0,1,1.7,4.83v10.11h-2.37V366a7.23,7.23,0,0,1-6,2.85C1510.8,368.86,1507.69,367.1,1507.69,363.71Zm12.19-1.28v-1.6a17.32,17.32,0,0,0-4.86-.7c-3.1,0-4.83,1.34-4.83,3.42v.06c0,2.08,1.92,3.3,4.16,3.3C1517.39,366.91,1519.88,365.05,1519.88,362.43Z"/><path d="M1525.48,360.32v-.07a8.62,8.62,0,0,1,15.11-5.69l-1.64,1.73a6.66,6.66,0,0,0-5-2.5,6.11,6.11,0,0,0-5.92,6.4v.06a6.18,6.18,0,0,0,6.08,6.44,6.85,6.85,0,0,0,5.06-2.47l1.56,1.47a8.56,8.56,0,0,1-15.23-5.37Z"/><path d="M1542.32,360.29v-.07c0-4.77,3.35-8.61,7.93-8.61,4.9,0,7.71,3.91,7.71,8.74a6.87,6.87,0,0,1,0,.8h-13.12a5.78,5.78,0,0,0,5.82,5.6,6.83,6.83,0,0,0,5.22-2.34l1.54,1.38a8.54,8.54,0,0,1-6.82,3.1A8.21,8.21,0,0,1,1542.32,360.29Zm13.15-1c-.26-3-2-5.64-5.28-5.64-2.88,0-5.06,2.4-5.38,5.64Z"/><path d="M1568.94,360.32v-.07a8.63,8.63,0,0,1,17.25-.06v.06a8.59,8.59,0,0,1-8.68,8.64A8.47,8.47,0,0,1,1568.94,360.32Zm14.72,0v-.07a6.26,6.26,0,0,0-6.15-6.46,6.1,6.1,0,0,0-6,6.4v.06a6.21,6.21,0,0,0,6.11,6.44A6.11,6.11,0,0,0,1583.66,360.32Z"/><path d="M1590.6,354.14h-2.27V352h2.27v-1.44a5.84,5.84,0,0,1,1.44-4.26,4.88,4.88,0,0,1,3.55-1.28,7.4,7.4,0,0,1,2.72.42v2.14a8.34,8.34,0,0,0-2.4-.41c-1.92,0-2.88,1.15-2.88,3.52V352h5.25v2.11h-5.21v14.37h-2.47Z"/><path d="M1609.1,352h2.46v2.78a6.06,6.06,0,0,1,5.35-3.14,5.63,5.63,0,0,1,5.31,3.3,6.59,6.59,0,0,1,5.82-3.3c3.81,0,6.14,2.56,6.14,6.66v10.24h-2.46v-9.66c0-3.2-1.6-5-4.29-5-2.49,0-4.57,1.86-4.57,5.12v9.54h-2.43v-9.73c0-3.1-1.64-4.93-4.26-4.93s-4.61,2.18-4.61,5.22v9.44h-2.46Z"/><path d="M1638.54,345.63h2.81v2.72h-2.81Zm.16,6.34h2.46v16.54h-2.46Z"/><path d="M1645.93,352h2.46v2.88a6.27,6.27,0,0,1,5.67-3.24c4,0,6.33,2.69,6.33,6.63v10.27h-2.46v-9.66c0-3.08-1.67-5-4.58-5a4.87,4.87,0,0,0-5,5.19v9.47h-2.46Z"/><path d="M1663.72,360.29v-.07c0-5.41,3.94-8.61,7.9-8.61a7.47,7.47,0,0,1,6.34,3.52v-10h2.46v23.36H1678v-3.33a7.43,7.43,0,0,1-6.34,3.68C1667.66,368.86,1663.72,365.73,1663.72,360.29Zm14.34,0v-.06a6.15,6.15,0,0,0-6-6.37c-3.2,0-5.82,2.37-5.82,6.37v.06c0,3.91,2.69,6.4,5.82,6.4A6.18,6.18,0,0,0,1678.06,360.25Z"/><path d="M1684.65,365.15h2.94v3.36h-2.94Z"/></svg>