<svg id="Layer_1" data-name="Layer 1" xmlns="http://www.w3.org/2000/svg" xmlns:xlink="http://www.w3.org/1999/xlink" viewBox="0 0 1200 1200"><defs><style>.cls-1{fill:none;}.cls-2{clip-path:url(#clip-path);}.cls-3{fill:#c2d500;}.cls-4{fill:#00ac98;}.cls-5{clip-path:url(#clip-path-2);}.cls-6{fill:#333132;}.cls-7{fill:#727372;}</style><clipPath id="clip-path"><rect class="cls-1" x="150" y="521.38" width="900" height="157.25"/></clipPath><clipPath id="clip-path-2"><rect class="cls-1" x="150" y="521.38" width="900" height="157.25"/></clipPath></defs><g id="Main_Logo_-_Color" data-name="Main Logo - Color"><g class="cls-2"><polygon class="cls-3" points="620.19 521.38 601.45 544.5 620.34 567.8 601.45 591.09 620.19 614.2 657.85 567.8 620.19 521.38"/><polygon class="cls-4" points="582.7 521.38 545.05 567.8 582.7 614.2 601.44 591.09 582.55 567.8 601.44 544.5 582.7 521.38"/><g class="cls-5"><path class="cls-6" d="M204.19,549.5c0,9.48-5.77,14.32-11.43,16.79,8.55,2.58,15.45,7.52,15.45,17.52,0,12.46-10.41,19.78-26.17,19.78H150V531.47h30.7c14.22,0,23.49,7,23.49,18M196,550.63c0-7.21-5.66-11.84-16-11.84H158v24.82h21.33c9.79,0,16.59-4.43,16.59-13m4,32.66c0-7.93-6.6-12.46-19.16-12.46H158v25.44h24.22c10.92,0,17.72-4.84,17.72-13"/><path class="cls-6" d="M285.89,572.78c0,21-12.05,31.94-30.08,31.94-17.83,0-30-10.92-30-31.32V531.47H234v41.42c0,15.55,8.25,24.31,22.06,24.31,13.28,0,21.73-8,21.73-23.8V531.47h8.14Z"/><path class="cls-6" d="M357.39,603.59l-20.91-28H315.87v28h-8.14V531.47h31c15.87,0,26.07,8.55,26.07,21.53,0,12.06-8.24,19.06-19.58,21.12l22.16,29.47ZM338.13,539H315.87v29.26H338c10.82,0,18.55-5.56,18.55-14.94,0-9-6.8-14.32-18.44-14.32"/><polygon class="cls-6" points="437.85 531.47 445.79 531.47 445.79 603.59 439.3 603.59 392.73 544.45 392.73 603.59 384.8 603.59 384.8 531.47 392.42 531.47 437.85 589.27 437.85 531.47"/><path class="cls-6" d="M494.62,563.61c16.08,3.5,23.49,9.38,23.49,20.51,0,12.46-10.3,20.5-24.62,20.5-11.44,0-20.81-3.81-29.47-11.54l5.05-6c7.52,6.8,14.73,10.2,24.73,10.2,9.68,0,16.07-5,16.07-12.36,0-6.8-3.6-10.61-18.75-13.8-16.59-3.61-24.21-9-24.21-20.92,0-11.54,10-19.78,23.69-19.78,10.51,0,18,3,25.35,8.86l-4.74,6.28c-6.7-5.46-13.39-7.83-20.81-7.83-9.38,0-15.35,5.16-15.35,11.75,0,6.9,3.71,10.71,19.57,14.11"/><path class="cls-6" d="M712.18,563.61c16.07,3.5,23.49,9.38,23.49,20.51,0,12.46-10.31,20.5-24.63,20.5-11.43,0-20.81-3.81-29.46-11.54l5-6c7.51,6.8,14.73,10.2,24.72,10.2,9.69,0,16.08-5,16.08-12.36,0-6.8-3.61-10.61-18.76-13.8-16.59-3.61-24.21-9-24.21-20.92,0-11.54,10-19.78,23.7-19.78,10.51,0,18,3,25.34,8.86l-4.74,6.28c-6.69-5.46-13.39-7.83-20.81-7.83-9.38,0-15.35,5.16-15.35,11.75,0,6.9,3.71,10.71,19.58,14.11"/><path class="cls-6" d="M787.8,604.82c-20.81,0-36.16-16.38-36.16-37.19,0-20.6,15.25-37.39,36.47-37.39,13.08,0,20.91,4.63,28.12,11.43l-5.56,6c-6.08-5.77-12.88-9.89-22.66-9.89-16,0-27.93,12.88-27.93,29.67S772.14,597.3,788,597.3c9.89,0,16.38-3.81,23.28-10.4l5.35,5.25c-7.51,7.62-15.76,12.67-28.84,12.67"/><path class="cls-6" d="M900.61,603.59h-8.76l-8.44-19.06H844.16l-8.56,19.06h-8.34L860.12,531h7.63Zm-36.78-63.16-16.48,36.78h32.86Z"/><polygon class="cls-6" points="917.41 531.47 925.54 531.47 925.54 596.07 966.14 596.07 966.14 603.59 917.41 603.59 917.41 531.47"/><path class="cls-6" d="M1013.12,604.82c-22,0-36.68-17.2-36.68-37.19s14.94-37.4,36.88-37.4S1050,547.44,1050,567.42s-14.94,37.4-36.88,37.4m0-67.07c-16.49,0-28.24,13.19-28.24,29.67s12,29.88,28.44,29.88,28.23-13.18,28.23-29.67-12-29.88-28.43-29.88"/><path class="cls-7" d="M356.39,678.1l-10.57-14.18H335.39V678.1h-4.12V641.61H347c8,0,13.19,4.33,13.19,10.9,0,6.1-4.17,9.64-9.91,10.69l11.21,14.9Zm-9.74-32.68H335.39v14.8H346.6c5.47,0,9.38-2.81,9.38-7.55,0-4.54-3.44-7.25-9.33-7.25"/><polygon class="cls-7" points="413.56 645.37 391.3 645.37 391.3 657.83 411.21 657.83 411.21 661.58 391.3 661.58 391.3 674.35 413.82 674.35 413.82 678.1 387.19 678.1 387.19 641.61 413.56 641.61 413.56 645.37"/><path class="cls-7" d="M474.32,678.1h-4.43l-4.27-9.64H445.75l-4.32,9.64h-4.22l16.63-36.75h3.85Zm-18.61-32-8.34,18.61H464Z"/><polygon class="cls-7" points="499.74 641.61 503.86 641.61 503.86 674.3 524.4 674.3 524.4 678.1 499.74 678.1 499.74 641.61"/><polygon class="cls-7" points="610.48 645.37 588.22 645.37 588.22 657.83 608.13 657.83 608.13 661.58 588.22 661.58 588.22 674.35 610.74 674.35 610.74 678.1 584.1 678.1 584.1 641.61 610.48 641.61 610.48 645.37"/><path class="cls-7" d="M650.34,657.88c8.13,1.77,11.88,4.74,11.88,10.37,0,6.31-5.21,10.37-12.46,10.37a21.37,21.37,0,0,1-14.91-5.84l2.56-3c3.81,3.44,7.45,5.16,12.51,5.16,4.9,0,8.13-2.55,8.13-6.25,0-3.44-1.82-5.37-9.49-7-8.39-1.82-12.24-4.53-12.24-10.58,0-5.84,5-10,12-10a19,19,0,0,1,12.82,4.49l-2.39,3.18a16,16,0,0,0-10.53-4c-4.74,0-7.76,2.61-7.76,6s1.87,5.42,9.9,7.14"/><polygon class="cls-7" points="701.88 678.1 697.7 678.1 697.7 645.42 685.46 645.42 685.46 641.62 714.12 641.62 714.12 645.42 701.88 645.42 701.88 678.1"/><path class="cls-7" d="M769.36,678.1h-4.43l-4.27-9.64H740.8l-4.33,9.64h-4.22l16.63-36.75h3.86Zm-18.61-32-8.34,18.61H759Z"/><polygon class="cls-7" points="803.9 678.1 799.73 678.1 799.73 645.42 787.48 645.42 787.48 641.62 816.15 641.62 816.15 645.42 803.9 645.42 803.9 678.1"/><polygon class="cls-7" points="868.47 645.37 846.21 645.37 846.21 657.83 866.12 657.83 866.12 661.58 846.21 661.58 846.21 674.35 868.73 674.35 868.73 678.1 842.1 678.1 842.1 641.61 868.47 641.61 868.47 645.37"/></g></g></g></svg>