<svg id="Layer_1" data-name="Layer 1" xmlns="http://www.w3.org/2000/svg" viewBox="0 0 1200 1200"><defs><style>.cls-1{fill:#221f20;}.cls-2{fill:#cfdc83;}.cls-3{fill:#567280;}</style></defs><path class="cls-1" d="M300,693.79h19.74c17.87,0,30.22,12.27,30.22,28.27v.17c0,16-12.35,28.43-30.22,28.43H300Zm6.42,5.93v45h13.32c14.38,0,23.56-9.75,23.56-22.34v-.16c0-12.6-9.18-22.51-23.56-22.51Z"/><path class="cls-1" d="M396.59,693.79H403v56.87h-6.42Z"/><path class="cls-1" d="M473.19,693.39h6l25.92,57.27h-6.91l-6.66-15H460.6l-6.74,15h-6.58ZM489,729.86l-12.91-29-13,29Z"/><path class="cls-1" d="M548.82,693.79h6.5l20.71,31,20.72-31h6.5v56.87h-6.42V704.6l-20.71,30.46h-.33l-20.71-30.38v46h-6.26Z"/><path class="cls-1" d="M649.31,722.39v-.16c0-15.68,11.78-29.41,29.08-29.41s28.92,13.57,28.92,29.24v.17c0,15.67-11.78,29.4-29.08,29.4S649.31,738.07,649.31,722.39Zm51.34,0v-.16c0-12.92-9.42-23.48-22.42-23.48S656,709.15,656,722.06v.17c0,12.91,9.42,23.47,22.42,23.47S700.65,735.3,700.65,722.39Z"/><path class="cls-1" d="M753.37,693.79h6l35.83,45.58V693.79h6.25v56.87h-5.12L759.63,704v46.63h-6.26Z"/><path class="cls-1" d="M850,693.79h19.74c17.87,0,30.22,12.27,30.22,28.27v.17c0,16-12.35,28.43-30.22,28.43H850Zm6.42,5.93v45h13.32c14.38,0,23.56-9.75,23.56-22.34v-.16c0-12.6-9.18-22.51-23.56-22.51Z"/><path class="cls-1" d="M409.79,791.28h24.45c7,0,12.59,2.11,16.17,5.68a15.74,15.74,0,0,1,4.38,11.21v.17c0,9.42-6.5,14.94-15.43,16.57l17.46,23.23h-7.88L432.45,826H416.21v22.1h-6.42Zm23.88,29c8.53,0,14.62-4.39,14.62-11.7v-.16c0-7-5.36-11.21-14.54-11.21H416.21v23.07Z"/><path class="cls-1" d="M501.59,791.28H508v56.86h-6.41Z"/><path class="cls-1" d="M557.15,791.28h19.74c17.87,0,30.22,12.26,30.22,28.27v.16c0,16-12.35,28.43-30.22,28.43H557.15Zm6.42,5.93v45h13.32c14.38,0,23.56-9.75,23.56-22.34v-.16c0-12.59-9.18-22.5-23.56-22.5Z"/><path class="cls-1" d="M650.65,819.87v-.16c0-15.6,11.45-29.41,28.51-29.41,9.59,0,15.52,2.76,21.2,7.56l-4.14,4.87a24.17,24.17,0,0,0-17.3-6.5c-12.59,0-21.61,10.64-21.61,23.32v.16c0,13.56,8.69,23.64,22.5,23.64a26.77,26.77,0,0,0,16.41-5.69V823.53h-17.3v-5.77H702.4v22.66a34.48,34.48,0,0,1-22.83,8.69C661.7,849.11,650.65,836.12,650.65,819.87Z"/><path class="cls-1" d="M749.35,791.28h41.11v5.85H755.77v19.41h31v5.85h-31v19.9h35.09v5.85H749.35Z"/><path class="cls-2" d="M327.64,575.87a279.94,279.94,0,0,1,55.89-48.79c20.91-13.5,44.29-23.77,69.05-28.63a194.66,194.66,0,0,1,75.14.16c24.74,4.73,48.37,13.27,71.36,22.43s45.5,19.15,68.61,27a338.59,338.59,0,0,0,35.06,10.17,248.23,248.23,0,0,0,36,5.34c48.44,3.48,97.66-10.43,139.54-36.49A236.12,236.12,0,0,1,812.3,561a215.89,215.89,0,0,1-36.49,8.35,195.41,195.41,0,0,1-37.53,1.83c-25.16-.82-49.85-6.65-73.53-14.35s-46.46-17.68-69.3-26.72c-22.75-9.27-45.77-17.58-69.51-22.44a193.65,193.65,0,0,0-72-1.74c-23.85,4-46.84,12.94-67.95,25.22a269.29,269.29,0,0,0-30.48,20.5C345.88,559.26,336.65,567.42,327.64,575.87Z"/><path class="cls-2" d="M319.25,541c32.45-34.61,72.23-62.55,115.79-82.27,5.51-2.33,10.9-5,16.51-7.05l16.86-6.21c11.45-3.49,22.87-7.18,34.62-9.64l8.76-2.05c2.92-.68,5.91-1,8.86-1.54,5.92-.93,11.83-2,17.77-2.81,12-1,23.87-2.66,35.88-2.54,6-.06,12-.28,18-.18l18,1.05c3,.22,6,.25,9,.62l8.92,1.17c5.93.86,11.93,1.36,17.81,2.54a383,383,0,0,1,69,19.5A369,369,0,0,1,835.09,527.5a401.9,401.9,0,0,0-58.67-39.58c-10.27-5.76-20.78-11.05-31.45-16l-16.16-7-16.47-6.2c-22.17-7.62-44.82-13.82-67.93-17.53-5.76-1-11.59-1.5-17.38-2.29l-8.7-1.08c-2.9-.35-5.83-.36-8.74-.55l-17.51-.92c-5.84-.06-11.69.22-17.53.29-11.7-.2-23.32,1.37-35,2.25-5.79.77-11.55,1.76-17.33,2.63-2.88.49-5.8.79-8.65,1.44L505,444.83c-11.5,2.17-22.71,5.57-34,8.76l-16.61,5.72c-5.56,1.86-10.91,4.27-16.38,6.38a415.49,415.49,0,0,0-62.43,32.54A399.28,399.28,0,0,0,319.25,541Z"/><path class="cls-3" d="M598.65,638.83a35.2,35.2,0,0,1-27.43-13.07L483.08,517.09a35.49,35.49,0,0,1,0-44.51L571.23,364a35.33,35.33,0,0,1,54.85,0l88.16,108.63a35.49,35.49,0,0,1,0,44.51L626.09,625.76A35.21,35.21,0,0,1,598.65,638.83Zm-12.24-25.39a15.77,15.77,0,0,0,24.49,0l88.15-108.67a15.84,15.84,0,0,0,0-19.87L610.9,376.27a15.77,15.77,0,0,0-24.49,0L498.27,484.9a15.84,15.84,0,0,0,0,19.87Z"/></svg>