<svg id="Layer_1" data-name="Layer 1" xmlns="http://www.w3.org/2000/svg" viewBox="0 0 1200 1200"><defs><style>.cls-1{fill:#f0f0f0;}.cls-2,.cls-9{fill:none;}.cls-3{fill:#83887b;}.cls-4{fill:#9ab3af;}.cls-5{fill:#836c59;}.cls-6{fill:#fff;}.cls-7{fill:#eaab52;}.cls-8{fill:#bc543f;}.cls-9{stroke:#fff;stroke-miterlimit:10;stroke-width:2.88px;}</style></defs><rect class="cls-1" width="1200" height="1200"/><path class="cls-2" d="M600.15,426.71A179.92,179.92,0,1,0,713.78,746c-7-17.12-16.61-31.83-28.48-43.7-23.63-23.63-40.54-33.54-54.13-41.5-9.47-5.55-17-9.93-24.5-17.48-15.84-15.84-7-33.42-6.61-34.16a38.41,38.41,0,0,1,6.93-9.47l3.62-3.62L653,553.67l74.24-74.24A180,180,0,0,1,739.1,720.91a179.72,179.72,0,0,0-139-294.2Z"/><path class="cls-3" d="M739.1,720.91a180,180,0,0,0-11.83-241.48L653,553.67l-42.42,42.42L607,599.71a38.41,38.41,0,0,0-6.93,9.47c-.39.74-9.23,18.32,6.61,34.16,7.54,7.55,15,11.93,24.5,17.48,13.59,8,30.5,17.87,54.13,41.5,11.87,11.87,21.43,26.58,28.48,43.7A182.08,182.08,0,0,0,739.1,720.91Z"/><path class="cls-3" d="M472.73,734a180.91,180.91,0,0,0,41.52,31l4.86-2.6c26.19-14,39.47-28.8,39.47-44.11,0-17.89-4.8-24-10.35-31.19-5.77-7.41-12.3-15.81-12.3-35.49,0-36.3,54.33-51.19,56.64-51.8l.41-.11-46-46-74.24-74.24a180,180,0,0,0,0,254.54Z"/><path class="cls-4" d="M680.67,707c-39.32-39.32-59-39.32-78.64-59-11.67-11.67-12.22-24.23-10.74-32.52.23-1.31.51-2.51.81-3.58.4-1.43.83-2.64,1.19-3.57.19-.47.36-.86.5-1.19.29-.64.47-1,.47-1s-1.82.49-4.78,1.48c-1,.33-2.1.72-3.31,1.17s-2.53,1-3.92,1.52c-15.29,6.2-39.77,19.52-39.77,41.3,0,35.72,22.65,27.36,22.65,66.68,0,20.32-18.52,36.88-42.93,49.9a180.17,180.17,0,0,0,186.25-17.95C702.62,735.57,693.87,720.15,680.67,707Z"/><polygon class="cls-5" points="602.79 603.91 610.61 596.09 602.79 603.91 602.79 603.91"/><path class="cls-3" d="M586.17,608.77c1.21-.45,2.33-.84,3.31-1.17C588.5,607.93,587.38,608.32,586.17,608.77Z"/><polygon class="cls-3" points="653.03 553.67 727.27 479.43 727.27 479.43 653.03 553.67 653.03 553.67"/><polygon class="cls-6" points="727.27 479.43 727.27 479.43 727.27 479.43 727.27 479.43 727.27 479.43"/><path class="cls-7" d="M648.18,549.25a74.91,74.91,0,0,0-96.36,0L600,597.43Z"/><path class="cls-2" d="M551.82,549.25,600,597.43l48.18-48.18a74.91,74.91,0,0,0-96.36,0Z"/><path class="cls-2" d="M551.82,549.25,600,597.43l48.18-48.18a74.91,74.91,0,0,0-96.36,0Z"/><path class="cls-8" d="M600,525.15a81.64,81.64,0,0,1,52.4,19.08l.44.36,69.68-69.68a179.82,179.82,0,0,0-245,0l69.68,69.69.44-.37A81.64,81.64,0,0,1,600,525.15Z"/><path class="cls-6" d="M716.39,752.46h0l-.29.23Z"/><path class="cls-6" d="M592.1,611.87c-.3,1.07-.58,2.27-.81,3.58C591.52,614.14,591.8,612.94,592.1,611.87Z"/><path class="cls-6" d="M593.79,607.11c-.14.33-.31.72-.5,1.19C593.48,607.83,593.65,607.44,593.79,607.11Z"/><path class="cls-5" d="M368.68,586.59a6.16,6.16,0,0,0-2.31-1.66,8.13,8.13,0,0,0-2.51-.61,5.35,5.35,0,0,0-2.7.56,8.74,8.74,0,0,0-2.41,1.79,10.63,10.63,0,0,0-1.71,2.9,11.9,11.9,0,0,0-.8,3.66l-.35,5.57,14.5.92.35-5.5a12.28,12.28,0,0,0-.44-4.63A8.62,8.62,0,0,0,368.68,586.59Z"/><path class="cls-5" d="M676.36,388.74a8.44,8.44,0,0,0,3.31-.79,6,6,0,0,0,2.22-1.79,7.91,7.91,0,0,0,1.24-2.26,5.25,5.25,0,0,0,.17-2.76,8.7,8.7,0,0,0-1.09-2.78,10.13,10.13,0,0,0-2.36-2.41,11.53,11.53,0,0,0-3.32-1.74l-5.28-1.8-4.68,13.76,5.21,1.77A12.24,12.24,0,0,0,676.36,388.74Z"/><polygon class="cls-5" points="685.38 806.98 685.12 815.16 691.34 812.6 685.38 806.98"/><path class="cls-5" d="M600,324.78C448.12,324.78,325,448,325,600S448.12,875.22,600,875.22,875,752,875,600,751.88,324.78,600,324.78ZM787,606.12c0,103.27-83.71,187-187,187s-187-83.71-187-187,83.71-187,187-187S787,502.85,787,606.12Z"/><path class="cls-6" d="M383.62,589.84l.74-4.87-29.44-4.48-.74,4.86-5.68-.86,2.73-17.93a26.79,26.79,0,0,1,2-7.6c2.18-4.29,6.3-6.71,12-5.84s9.25,4.46,10.14,9.4l.11,0a5.49,5.49,0,0,1,2.43-1.68l9.21-3.41c1.12-.41,1.53-1.17,1.74-2.54l.2-1.32,5.63.86L394,559.2c-.51,3.38-1.36,4.3-3.9,5.21l-11.39,4.18c-1.68.62-2.31,1.29-2.67,3.64l-.56,3.72,10,1.52.72-4.7,5.62.86-2.6,17.07Zm-13.1-21.57c.6-3.95-1.36-6.88-5.72-7.55-2.64-.4-4.85.26-6.11,2.35a11.61,11.61,0,0,0-1.45,4.47l-.83,5.5,13.08,2Z"/><path class="cls-6" d="M394.81,536.21l1.76-4.6L368.73,521l-1.75,4.6-5.38-2,6.23-16.35,5.37,2-1.77,4.66,27.84,10.59,1.77-4.66,5.32,2-6.23,16.36Z"/><path class="cls-6" d="M406.41,492.36,409,494c2.26,1.42,5.37-.59,7.44-3.88,2.21-3.53,2.26-7-.54-8.75-3.54-2.22-7.17,1-11.27,4.08-4.69,3.55-9.67,6.79-15.91,2.87-7-4.42-6.17-11.81-2.41-17.8,3.45-5.49,9.05-9.71,13.08-7.18L404,466.2,400.31,472,398,470.56c-1.76-1.11-4.33.9-6,3.5-1.79,2.85-2.09,5.95.57,7.61,3.19,2,6.35-.52,10-3.29,5.13-4,10.46-7.93,17-3.83,7.13,4.48,6.67,12.54,2.54,19.11-3.63,5.79-10.12,10.34-15.38,7l-4-2.5Z"/><path class="cls-6" d="M436.87,462.76l3.38-3.58-21.66-20.44-3.38,3.58L411,438.37l12-12.72,4.18,4-3.42,3.62,21.65,20.44,3.42-3.62,4.14,3.9-12,12.73Z"/><path class="cls-6" d="M462.8,436.37l4.1-2.72-16.45-24.82-4.11,2.72-3.17-4.79,10.43-6.92,29.1,12.55a20.2,20.2,0,0,1,3.18,2.07l.14-.1a30.42,30.42,0,0,1-2.34-3.11l-11.26-17-4.25,2.82L465,392.29l14.68-9.73,3.17,4.79-4.1,2.72,19.59,29.57L492,423.83l-29-12.45a22.07,22.07,0,0,1-3.18-2.07l-.2.13a25.4,25.4,0,0,1,2.36,3l11.26,17,4.25-2.82,3.14,4.74-14.68,9.74Z"/><path class="cls-6" d="M525.49,363.55c7-2.23,16.23-2.11,17.82,2.87l1.72,5.42-6.57,2.09-.92-2.88c-.86-2.71-5.55-2.74-9.75-1.41-8.33,2.65-11.84,9.61-9.18,18s9.81,12.9,18.48,10.15c3.15-1,8.74-3.69,7.7-6.95l-1.34-4.21-7.12,2.26-1.72-5.42,13.69-4.35,3.76,11.84c1.9,6-7.92,11.41-13.72,13.25-12,3.83-23.43-2.18-27.16-13.91S513.29,367.42,525.49,363.55Z"/><path class="cls-6" d="M624.4,353.53c5,.43,15.84,3.14,15.27,9.62l-.49,5.55-6.87-.61.28-3.18c.27-3.06-5.07-4.58-8.41-4.88-7.91-.69-14.17,4.35-14.93,13-.82,9.25,4.66,15.8,12.74,16.51,2.48.22,9,0,9.24-3.27l.28-3.18,6.87.61-.49,5.61c-.54,6.13-11.28,7.16-16.93,6.66a21,21,0,0,1-19.54-23.28C602.49,360.57,612.51,352.48,624.4,353.53Z"/><path class="cls-6" d="M656.59,395.32l4.63,1.67,10.13-28-4.63-1.68,2-5.4,17.05,6.17a26.41,26.41,0,0,1,7.06,3.48c3.79,3,5.36,7.49,3.38,12.95s-6.17,8.2-11.19,8.11l0,.11a5.51,5.51,0,0,1,1.18,2.71l1.54,9.69c.19,1.18.86,1.73,2.16,2.21l1.26.45-1.94,5.35-4.52-1.64c-3.22-1.16-4-2.17-4.35-4.84l-1.89-12c-.28-1.77-.81-2.52-3-3.32l-3.55-1.29-3.43,9.5,4.46,1.62-1.93,5.35-16.24-5.87Zm23.71-8.65c3.76,1.36,7,0,8.52-4.14.91-2.51.69-4.81-1.11-6.45a11.56,11.56,0,0,0-4.11-2.29l-5.23-1.89-4.5,12.44Z"/><path class="cls-6" d="M707.09,416.35l4.09,2.75,16.59-24.73-4.09-2.74,3.21-4.78,25.35,17-5.92,8.82-5.39-3.61,2.52-3.76-9.57-6.42-6.31,9.4,11.26,7.55-3.4,5.06-11.25-7.55L717.71,423,728,429.9l2.59-3.86,5.39,3.62-6,8.91-26.08-17.49Z"/><path class="cls-6" d="M747.83,446.41l3.35,3.61L773,429.79l-3.35-3.62,4.22-3.9,20.74,22.41-7.79,7.21-4.41-4.76,3.32-3.07-7.83-8.46-8.31,7.69,9.21,9.95-4.47,4.14-9.21-9.95-8.52,7.89,8.42,9.1,3.41-3.16,4.41,4.76-7.88,7.3-21.33-23Z"/><path class="cls-6" d="M780.64,484.91l2.38,4.31,26.08-14.39-2.38-4.31,5-2.78,8,14.41-5,2.78-1.91-3.45L803,486.89l2.22,4,13.58,1.43-1.7-3.09,5-2.78,7.28,13.19-5,2.78-1.8-3.25L805.8,497.1l-.1,0a6.83,6.83,0,0,1-1.4,3.82l-7,11.08a2.72,2.72,0,0,0,.05,3.09l.92,1.67-5,2.75L790.73,515c-1.68-3.05-1.45-4.43-.11-6.56L799,495.54c.66-1.1.62-2-.16-3.42l-1.26-2.29-10.93,6L789,500l-5,2.75-8.35-15.11Z"/><path class="cls-6" d="M810.17,561.54c14.72-2,19.32,17.26,28.12,16.07,3.85-.52,5.44-3.54,5-7-.65-4.76-6.16-7-6.16-7L840,558a15.24,15.24,0,0,1,10,12.39c1,7.18-2.57,13.91-10.28,15-12.65,1.71-17.57-16.92-26-16l1.91,14.07,5.18-.7.87,6.43-11.22,1.52-3.82-28.25A20.67,20.67,0,0,1,810.17,561.54Z"/><path class="cls-6" d="M439.55,780.94l-5-4.77,16.51-17.33-5.17-4.93,4.64-3,14,13.36-3.72,3.9-4.76-4.54Z"/><path class="cls-6" d="M463,800.38c-7.1-5-7.55-11.11-1.88-19.09l8.8-12.37,5.71,4.05-8.8,12.38c-3.51,4.94-4,8.18-.69,10.53s6.3.94,9.78-4l8.85-12.46,5.71,4.06L481.64,796C476,804,470.18,805.49,463,800.38Z"/><path class="cls-6" d="M495.33,819.36l-6.14-3.16,10.93-21.29-6.36-3.27,3.6-4.21,17.22,8.84-2.46,4.8-5.86-3Z"/><path class="cls-6" d="M522,830.55l-6.49-2.38,8.23-22.47L517,803.24l3-4.62,18.18,6.66-1.85,5.06-6.18-2.26Z"/><path class="cls-6" d="M551.13,839c-8.43-1.77-14-8.55-12.06-17.9s9.8-13.26,18.23-11.49,14.07,8.55,12.1,17.9S559.56,840.75,551.13,839Zm5-24.07c-4.49-.94-8.93,1.75-10.16,7.63s1.74,10.13,6.24,11.07,8.89-1.61,10.15-7.58S560.72,815.86,556.18,814.91Z"/><path class="cls-6" d="M609.9,843.83c-9.08.32-15.89-4.65-16.24-14.48s6.39-15.18,15.28-15.49A19.4,19.4,0,0,1,619,816.2l-.28,5.65a16.22,16.22,0,0,0-9.09-2.67c-5,.18-9.21,3.59-9,9.88s4.46,9.54,9.33,9.37a13.85,13.85,0,0,0,4.51-1.1l-.35-10.16,7-.25.45,12.9A23.71,23.71,0,0,1,609.9,843.83Z"/><path class="cls-6" d="M629.77,812.46l16.65-3.14,1,5.3-9.77,1.84,1,5.34,7.17-1.35,1,5.35-7.16,1.35,1.41,7.48,13.49-2.54-.25,5.58-19.12,3.6Z"/><path class="cls-6" d="M656.94,806.6l6.66-2.17,7.43,22.7,10.53-3.44.47,5.57-16,5.22Z"/><path class="cls-6" d="M712.43,815.46l-4.1-3.24-10.42,5.19.2,5.18-6.83,3.4,0-33.62,1-.51,26.84,20.25Zm-15-3.38,6.87-3.42-7.23-5.92Z"/><path class="cls-6" d="M734.49,801.77l-5.74,3.85L715.4,785.75l-5.93,4-2-5.19,16.08-10.8,3,4.48-5.47,3.67Z"/><path class="cls-6" d="M758.41,783.21c-6.4,5.77-15.17,6.29-21.57-.8s-4.94-15.74,1.46-21.51,15.21-6.32,21.61.77S764.81,777.44,758.41,783.21Zm-16.47-18.27c-3.41,3.08-3.85,8.25.18,12.71s9.21,4.56,12.62,1.48,3.94-8.14-.14-12.67S745.39,761.83,741.94,764.94Z"/><path class="cls-9" d="M787.37,728.29A202.41,202.41,0,0,0,829.45,626.2"/><polygon class="cls-6" points="828.82 620.65 836.27 636.06 819.19 634.81 828.82 620.65"/><polygon class="cls-6" points="777.62 729.96 787.22 728.39 788.78 737.99 796.82 726.83 795.25 717.23 785.65 718.79 777.62 729.96"/><path class="cls-9" d="M412.63,728.29A202.41,202.41,0,0,1,370.55,626.2"/><polygon class="cls-6" points="371.18 620.65 363.73 636.06 380.81 634.81 371.18 620.65"/><polygon class="cls-6" points="422.38 729.96 412.78 728.39 411.22 737.99 403.18 726.83 404.75 717.23 414.35 718.79 422.38 729.96"/></svg>