<svg id="Layer_1" data-name="Layer 1" xmlns="http://www.w3.org/2000/svg" xmlns:xlink="http://www.w3.org/1999/xlink" viewBox="0 0 1200 1200"><defs><style>.cls-1{fill:#f0f0f0;}.cls-2{fill:#fff;}.cls-3,.cls-4{fill:#846c59;}.cls-4{font-size:104.66px;font-family:Serenity-DemiBold, Serenity;font-weight:300;}.cls-5{fill:#84897b;}.cls-6{fill:none;}.cls-7{fill:#606550;}.cls-8{fill:url(#linear-gradient);}.cls-9{fill:url(#linear-gradient-2);}.cls-10{fill:url(#linear-gradient-3);}</style><linearGradient id="linear-gradient" x1="343.76" y1="576.73" x2="495.96" y2="632.13" gradientUnits="userSpaceOnUse"><stop offset="0" stop-color="#846c59"/><stop offset="0.21" stop-color="#856f5d"/><stop offset="0.43" stop-color="#887a6a"/><stop offset="0.65" stop-color="#8e8b7f"/><stop offset="0.87" stop-color="#96a39c"/><stop offset="1" stop-color="#9bb4b0"/></linearGradient><linearGradient id="linear-gradient-2" x1="697.82" y1="791.98" x2="801.18" y2="791.98" xlink:href="#linear-gradient"/><linearGradient id="linear-gradient-3" x1="474.36" y1="751.31" x2="902.92" y2="751.31" gradientUnits="userSpaceOnUse"><stop offset="0" stop-color="#9bb4b0"/><stop offset="1" stop-color="#9bb4b0"/></linearGradient></defs><rect class="cls-1" width="1200" height="1200"/><polygon class="cls-2" points="571.07 538.17 573.71 539.43 572.53 535.37 571.07 538.17"/><path class="cls-3" d="M466.74,561.31h16.48v86.75H466.74Z"/><path class="cls-3" d="M526.84,575.71c-6.25,0-11.71,2.92-11.71,8.64,0,15.29,38.43,10.37,38.43,38.29,0,14.23-11.17,24.87-29.52,24.87a49.36,49.36,0,0,1-28.58-9.58l7-12c4.39,3.72,13.17,8.37,21.41,8.37s13.43-4.92,13.43-11.56c0-16.89-38.56-12-38.56-38.3,0-13.69,11.3-21.94,26.73-21.94,12,0,20.07,4.53,23.4,7.18l-1.2,13.83C542.66,579.43,535,575.71,526.84,575.71Z"/><path class="cls-3" d="M566.32,562.07h16.49v86.48H566.32Z"/><path class="cls-3" d="M731.06,647.11c-26.59,0-43.48-16.49-43.48-42.28,0-25.4,17.55-42.15,44.28-42.15,9.57,0,21.67,3.45,28.72,8.11l-1.2,13.56c-7-5.05-18.35-8.78-26.72-8.78-17,0-28.59,11.71-28.59,29.12,0,17.69,11,29.52,27.52,29.52a42.09,42.09,0,0,0,16.09-3.59V600.7h16.49v36C761.38,638.46,748.21,647.11,731.06,647.11Z"/><path class="cls-3" d="M352.92,759.8c0-36.28,24.7-60.22,61.93-60.22,13.49,0,29.83,4.56,38.75,11l-1.9,20.13c-9.3-7.21-24.12-12.34-35.71-12.34-23.18,0-38.94,16.71-38.94,41.22,0,24.88,15.76,41.79,38.94,41.79A51.49,51.49,0,0,0,449,789.24l9.31,17.29c-13.11,9.12-27.16,13.87-43.5,13.87C377.62,820.4,352.92,796.27,352.92,759.8Z"/><path class="cls-3" d="M508.22,778a19.33,19.33,0,0,0,13.83-18.88c0-15.16-12.5-23.54-32.58-23.54H471V818h16.49V784c24.33,0,19.28,34.84,49.86,34.84l3.06-13.3C523.91,805.53,519.79,782,508.22,778Zm-20.74-6.12v-23.8c10.5,0,18.48,2.39,18.48,11.57C506,769.36,498.25,771.89,487.48,771.89Z"/><polygon class="cls-3" points="564.46 779.6 585.6 779.6 585.6 766.57 564.46 766.57 564.46 748.62 593.45 748.62 593.45 735.59 547.98 735.59 547.98 818.03 600.89 818.03 604.09 805 564.46 805 564.46 779.6"/><polygon class="cls-3" points="630.15 779.6 651.29 779.6 651.29 766.57 630.15 766.57 630.15 748.62 659.13 748.62 659.13 735.59 613.66 735.59 613.66 818.03 666.58 818.03 669.77 805 630.15 805 630.15 779.6"/><rect class="cls-3" x="679.34" y="735.59" width="16.49" height="82.44"/><text class="cls-4" transform="translate(771.18 812.51)">2</text><path class="cls-3" d="M617.51,595.52v50.66H601V562h2.53l53.32,52.26V563.74h16.49v83.9h-2.53Z"/><polygon class="cls-5" points="666.69 462.49 697.93 551.57 723.85 551.57 666.69 388.58 633.41 483.49 646.37 520.45 666.69 462.49"/><path class="cls-6" d="M384.19,548.21v34c15.39,0,26.41-3.6,26.41-17.47C410.6,551.63,399.2,548.21,384.19,548.21Z"/><path class="cls-7" d="M442.44,551.57h.5l27.4-68.82,29.1,68.82,11.72-32.39L470.34,416.62,425.46,529.35A38.83,38.83,0,0,1,442.44,551.57Z"/><polygon class="cls-7" points="519.78 519.18 508.43 551.57 532.68 551.57 534.35 551.57 552.05 501.08 558.88 481.62 578.54 425.54 611.83 520.45 622.74 551.57 626.84 551.57 645.09 551.57 648.27 550.45 637.75 520.45 624.79 483.49 578.54 351.63 545.92 444.66 532.96 481.62 519.78 519.18"/><polygon class="cls-5" points="517.03 431.26 528.65 464.38 541.61 427.42 517.03 357.35 489.35 436.3 503.13 470.92 517.03 431.26"/><path class="cls-8" d="M482.09,658.57c-19.2-4.29-33.82-10.94-40.19-20.94-12.12-19-18-43.21-28.07-46.68a27.6,27.6,0,0,0,19.75-27,32.14,32.14,0,0,0-2.38-12.41,28.6,28.6,0,0,0-9.73-12.2c-8.06-5.9-19.83-9-34.43-9h-26.4V648.13h23.55V599.5c29.38,0,25,55,58.28,76.45,7.6,4.89,21.64,12.16,31.89,15.53Zm-97.9-76.35v-34c15,0,26.41,3.42,26.41,16.53C410.6,578.61,399.58,582.22,384.19,582.22Z"/><path class="cls-9" d="M794.05,832.39c-1.53.1-3,.14-4.45.14-27.66,0-38.14-17.93-48.24-30.53l-25.59-32,30.45-34.44H726.14L697.82,769.9,724,804.18a133.76,133.76,0,0,0,27.5,26.94l.36.26a91.43,91.43,0,0,0,41.33,16.19c2.66.38,5.34.64,8,.8L799,832C797.36,832.13,795.71,832.28,794.05,832.39Z"/><path class="cls-10" d="M900.39,732.62c-9.45-40.9-34.06-54.51-40.95-58.46C836.52,661,805.9,654.44,776.1,654.27c-77.82-.44-141.75,4-165.53,5.3-29.74,1.69-73.69,2-128.48-1l-7.73,32.91c41.23,13.12,133.82,21.46,173.91,23.46,95.39,4.76,157.81-5.52,185.46,33.3,3,4.25,18.82,27.6,10.11,50.94C834.28,824.81,802.29,831.34,799,832l2.17,16.42,5.55-.3c38.78-2.34,72.72-23,87.77-54.78C907.05,766.83,902.42,741.39,900.39,732.62Z"/><path class="cls-2" d="M501.9,689.29l-5.19-1,2.61-14.11-4.25-.79,1.66-3.79L509,671.92l-.74,4-3.76-.7Z"/><path class="cls-2" d="M525.19,693.27c-5.92-.85-8.15-3.94-7.18-10.77l1.44-10,5.61.81-1.43,10c-.53,3.68,0,5.35,2.15,5.65s3.18-1.1,3.7-4.75l1.44-10.07,5.62.8L535.1,685C534.12,691.84,531.15,694.12,525.19,693.27Z"/><path class="cls-2" d="M555.72,696.79l-5.91-.63,1.72-16-4.85-.52,1.54-4.39,14,1.48-.48,4.51-4.28-.45Z"/><path class="cls-2" d="M581.82,699.06l-6.25-.47,1.27-17-5.13-.38,1.49-4.69,14.78,1.1-.36,4.78-4.53-.34Z"/><path class="cls-2" d="M610.74,700.85c-6.86-.23-12.16-4.71-11.9-12.19s5.84-11.56,12.69-11.33,12.19,4.71,11.94,12.19S617.59,701.08,610.74,700.85Zm.62-18.45c-3-.1-5.64,2.3-5.78,6.48s2.29,6.76,5.33,6.86,5.63-2.19,5.78-6.45S614.43,682.51,611.36,682.4Z"/><path class="cls-2" d="M668.51,700.17c-8.59.3-14-4.42-14.25-12.48s4.86-13.06,13.25-13.34a16.7,16.7,0,0,1,8.43,1.87l-.33,5.8a12.4,12.4,0,0,0-7.22-2.16c-4.19.15-6.94,3.18-6.8,7.5s3,7.32,7.14,7.18a10,10,0,0,0,2.47-.41l-.28-8.27,7.34-.25.38,11.28A20.6,20.6,0,0,1,668.51,700.17Z"/><path class="cls-2" d="M696.08,672.79l16.23.24-.08,5.79-8.57-.12,0,3.7,6.26.1-.08,5.83-6.27-.09-.07,5.24,12,.18L714,699.47l-18.28-.26Z"/><path class="cls-2" d="M733.32,672.9l8,.59-1.6,21.42,9.89.73-1.87,6-16.45-1.22Z"/><path class="cls-2" d="M785.62,706.84l-1.12-4.17-10.24-1.83-2.35,3.54-9.39-1.67,20.8-27.36,1.56.28,10,32.86Zm-8-11.38,5.69,1-1.64-7Z"/><path class="cls-2" d="M818.4,716.77l-8.31-3.22L818.84,691,812,688.33l3.94-5.76,19.64,7.6-2.45,6.35-6-2.33Z"/><path class="cls-2" d="M845.37,735.62c-6.17-7.36-6.46-17.07,1.58-23.81s17.51-4.72,23.68,2.64,6.48,17.12-1.55,23.85S851.53,743,845.37,735.62ZM865.18,719c-2.74-3.26-7.67-3.73-12.16,0s-4.9,8.71-2.16,12,7.54,3.83,12.12,0S867.94,722.32,865.18,719Z"/></svg>