<svg id="Layer_1" data-name="Layer 1" xmlns="http://www.w3.org/2000/svg" viewBox="0 0 1200 1200"><defs><style>.cls-1{fill:#f0f0f0;}.cls-2{fill:#bd543f;}.cls-2,.cls-3,.cls-4,.cls-5,.cls-6{stroke:#fff;stroke-miterlimit:10;}.cls-2,.cls-3,.cls-4{stroke-width:8.31px;}.cls-3{fill:#84897b;}.cls-4{fill:#ebac52;}.cls-5{fill:#9bb4b0;stroke-width:6.34px;}.cls-6{fill:#606550;stroke-width:9.2px;}.cls-7{fill:#846c59;}.cls-8{font-size:18.28px;fill:#fff;font-family:JosefinSlab-Bold, Josefin Slab;font-weight:700;}</style></defs><rect class="cls-1" width="1200" height="1200"/><rect class="cls-2" x="404.67" y="316.45" width="390.65" height="196.62"/><rect class="cls-3" x="404.67" y="513.07" width="390.65" height="196.62"/><path class="cls-4" d="M600,414.76c-53.94,0-97.66,44-97.66,98.31H697.66C697.66,458.77,653.94,414.76,600,414.76Z"/><path class="cls-5" d="M601.66,517.56S548,530.86,548,561.41c0,34.45,21.23,26.39,21.23,64.31,0,57.56-149.67,83.88-149.67,83.88H714.33s0-56.88-36.85-94.8-55.28-37.92-73.71-56.87S601.66,517.56,601.66,517.56Z"/><polygon class="cls-6" points="733.02 399.78 702.33 511.05 763.71 511.05 733.02 399.78"/><polygon class="cls-6" points="695.71 434.82 665.01 511.05 726.4 511.05 695.71 434.82"/><polygon class="cls-6" points="464.53 399.78 495.22 511.05 433.84 511.05 464.53 399.78"/><polygon class="cls-6" points="501.85 434.82 532.54 511.05 471.16 511.05 501.85 434.82"/><path class="cls-7" d="M427.48,802.88h-15a3.66,3.66,0,0,1-2.67-.83,3.7,3.7,0,0,1-.83-2.69V736a3.7,3.7,0,0,1,.83-2.69,3.62,3.62,0,0,1,2.67-.83h32.33q10.88,0,15,4.54T464,748.84v4.49a18,18,0,0,1-1.21,7,7.57,7.57,0,0,1-4.23,4.15,12.81,12.81,0,0,1,8.5,4.3q3.25,3.72,3.25,9.87v20.72a3,3,0,0,1-3.49,3.52H451.75a3.66,3.66,0,0,1-2.67-.83,3.7,3.7,0,0,1-.83-2.69v-15a5.06,5.06,0,0,0-.82-3.18,3.5,3.5,0,0,0-2.86-1H431v19.15a3.7,3.7,0,0,1-.83,2.69A3.66,3.66,0,0,1,427.48,802.88Zm3.5-52.77v12.51h7.28q2.52,0,3.39-1.32a5.83,5.83,0,0,0,.88-3.28V754.7a5.82,5.82,0,0,0-.88-3.27q-.87-1.32-3.39-1.32Z"/><path class="cls-7" d="M483.11,802.88a3.63,3.63,0,0,1-2.67-.83,3.7,3.7,0,0,1-.83-2.69V787.73a3.73,3.73,0,0,1,.83-2.69,3.63,3.63,0,0,1,2.67-.83h9.61V751.38h-9.61a3.63,3.63,0,0,1-2.67-.83,3.72,3.72,0,0,1-.83-2.69V736a3.7,3.7,0,0,1,.83-2.69,3.59,3.59,0,0,1,2.67-.83h41.35a3.62,3.62,0,0,1,2.67.83A3.7,3.7,0,0,1,528,736v11.82a3.72,3.72,0,0,1-.83,2.69,3.66,3.66,0,0,1-2.67.83H515v32.83h9.42a3.66,3.66,0,0,1,2.67.83,3.73,3.73,0,0,1,.83,2.69v11.63a3.7,3.7,0,0,1-.83,2.69,3.66,3.66,0,0,1-2.67.83Z"/><path class="cls-7" d="M572.32,802.88H541.65a3.65,3.65,0,0,1-2.67-.83,3.7,3.7,0,0,1-.83-2.69V787.93a3.7,3.7,0,0,1,.83-2.69,3.65,3.65,0,0,1,2.67-.83h26.11a2.23,2.23,0,0,0,1.89-.83,3.21,3.21,0,0,0,.64-2,3.9,3.9,0,0,0-.64-2.45,2.57,2.57,0,0,0-1.89-.88l-14.56-2a21.08,21.08,0,0,1-10.92-4.49q-4.14-3.53-4.13-11.73V749.72q0-8.31,5.34-12.76t14.76-4.44h27.18a3.62,3.62,0,0,1,2.67.83,3.7,3.7,0,0,1,.82,2.69v11.62a3.7,3.7,0,0,1-.82,2.69,3.62,3.62,0,0,1-2.67.83H562.81a2.37,2.37,0,0,0-1.94.83,3.2,3.2,0,0,0-.68,2.11,3.39,3.39,0,0,0,.68,2.15,2.57,2.57,0,0,0,1.94,1l14.46,2a21.44,21.44,0,0,1,11,4.49q4.17,3.52,4.17,11.73v10.26q0,8.31-5.39,12.75T572.32,802.88Z"/><path class="cls-7" d="M604.94,802.88a3.66,3.66,0,0,1-2.67-.83,3.7,3.7,0,0,1-.82-2.69V787.73a3.73,3.73,0,0,1,.82-2.69,3.66,3.66,0,0,1,2.67-.83h9.61V751.38h-9.61a3.66,3.66,0,0,1-2.67-.83,3.72,3.72,0,0,1-.82-2.69V736a3.7,3.7,0,0,1,.82-2.69,3.62,3.62,0,0,1,2.67-.83H646.3a3.62,3.62,0,0,1,2.67.83,3.7,3.7,0,0,1,.82,2.69v11.82a3.72,3.72,0,0,1-.82,2.69,3.66,3.66,0,0,1-2.67.83h-9.42v32.83h9.42A3.66,3.66,0,0,1,649,785a3.73,3.73,0,0,1,.82,2.69v11.63a3.7,3.7,0,0,1-.82,2.69,3.66,3.66,0,0,1-2.67.83Z"/><path class="cls-7" d="M679.79,802.88H665.23a3.66,3.66,0,0,1-2.67-.83,3.7,3.7,0,0,1-.83-2.69V736a3.7,3.7,0,0,1,.83-2.69,3.62,3.62,0,0,1,2.67-.83h10.1a6.65,6.65,0,0,1,5.72,2.64l18.84,21.69V736a3.7,3.7,0,0,1,.82-2.69,3.62,3.62,0,0,1,2.67-.83h14.56a3.62,3.62,0,0,1,2.67.83,3.7,3.7,0,0,1,.83,2.69v63.32a3.7,3.7,0,0,1-.83,2.69,3.66,3.66,0,0,1-2.67.83H703.38a3.66,3.66,0,0,1-2.67-.83,3.7,3.7,0,0,1-.82-2.69v-12l-16.61-20.23v32.25a3.7,3.7,0,0,1-.82,2.69A3.66,3.66,0,0,1,679.79,802.88Z"/><path class="cls-7" d="M788.23,802.88H757.65q-12.14,0-18-4.89t-5.87-15V752.45q0-10.16,5.87-15.05t18-4.88h24.27a3.62,3.62,0,0,1,2.67.83,3.7,3.7,0,0,1,.82,2.69v11.82a3.72,3.72,0,0,1-.82,2.69,3.66,3.66,0,0,1-2.67.83h-20.2a6.86,6.86,0,0,0-4.46,1.22,4.53,4.53,0,0,0-1.46,3.67v23.35a5.13,5.13,0,0,0,1.12,3.62,4.42,4.42,0,0,0,3.35,1.17h9.42V769.16a3.69,3.69,0,0,1,.82-2.68,3.62,3.62,0,0,1,2.67-.83h15.05a3.62,3.62,0,0,1,2.67.83,3.69,3.69,0,0,1,.82,2.68v30.2a3.7,3.7,0,0,1-.82,2.69A3.66,3.66,0,0,1,788.23,802.88Z"/><path class="cls-7" d="M453.8,887.71H431.51q-11.43,0-16.95-4.6T409,868.94v-28.6q0-9.55,5.53-14.2t16.95-4.65H453.8a3.43,3.43,0,0,1,2.51.78,3.5,3.5,0,0,1,.78,2.53v11.13a3.47,3.47,0,0,1-.78,2.53,3.43,3.43,0,0,1-2.51.78H435.44a6.51,6.51,0,0,0-4.21,1.15,4.27,4.27,0,0,0-1.37,3.45v21.89a4,4,0,0,0,1.37,3.35,6.85,6.85,0,0,0,4.21,1.06H453.8a3.43,3.43,0,0,1,2.51.78,3.5,3.5,0,0,1,.78,2.53v10.94a3.49,3.49,0,0,1-.78,2.54A3.43,3.43,0,0,1,453.8,887.71Z"/><path class="cls-7" d="M484.77,887.71H470.7a3.41,3.41,0,0,1-2.51-.78,3.49,3.49,0,0,1-.78-2.54V824.8a3.5,3.5,0,0,1,.78-2.53,3.41,3.41,0,0,1,2.51-.78h30.42q10.23,0,14.12,4.28a15.88,15.88,0,0,1,3.88,11.08v4.23a17,17,0,0,1-1.14,6.58,7.17,7.17,0,0,1-4,3.91,12,12,0,0,1,8,4q3.06,3.5,3.06,9.29v19.49a3.49,3.49,0,0,1-.78,2.54,3.43,3.43,0,0,1-2.51.78H507.61a3.41,3.41,0,0,1-2.51-.78,3.49,3.49,0,0,1-.78-2.54V870.32a4.7,4.7,0,0,0-.78-3,3.25,3.25,0,0,0-2.69-1H488.06v18a3.49,3.49,0,0,1-.78,2.54A3.45,3.45,0,0,1,484.77,887.71ZM488.06,838v11.78h6.85c1.58,0,2.65-.42,3.2-1.24a5.47,5.47,0,0,0,.82-3.09v-3.12a5.44,5.44,0,0,0-.82-3.08c-.55-.83-1.62-1.25-3.2-1.25Z"/><path class="cls-7" d="M581,887.71H538.58a3.46,3.46,0,0,1-2.52-.78,3.54,3.54,0,0,1-.77-2.54V824.8a3.54,3.54,0,0,1,.77-2.53,3.46,3.46,0,0,1,2.52-.78H581a3.45,3.45,0,0,1,2.51.78,3.5,3.5,0,0,1,.78,2.53v10.76a2.83,2.83,0,0,1-3.29,3.31H555.75V846h17.82a2.84,2.84,0,0,1,3.29,3.32v9.84a3.44,3.44,0,0,1-.78,2.52,3.4,3.4,0,0,1-2.51.79H555.75v7.9H581a2.84,2.84,0,0,1,3.29,3.32v10.75a3.49,3.49,0,0,1-.78,2.54A3.45,3.45,0,0,1,581,887.71Z"/><path class="cls-7" d="M640.72,887.71h-42.4a3.45,3.45,0,0,1-2.51-.78,3.49,3.49,0,0,1-.77-2.54V824.8a3.5,3.5,0,0,1,.77-2.53,3.45,3.45,0,0,1,2.51-.78h42.4a3.45,3.45,0,0,1,2.51.78,3.54,3.54,0,0,1,.77,2.53v10.76a3.51,3.51,0,0,1-.77,2.53,3.45,3.45,0,0,1-2.51.78H615.5V846h17.81a3.46,3.46,0,0,1,2.52.79,3.51,3.51,0,0,1,.77,2.53v9.84a3.49,3.49,0,0,1-.77,2.52,3.41,3.41,0,0,1-2.52.79H615.5v7.9h25.22a3.45,3.45,0,0,1,2.51.79,3.51,3.51,0,0,1,.77,2.53v10.75a3.54,3.54,0,0,1-.77,2.54A3.45,3.45,0,0,1,640.72,887.71Z"/><path class="cls-7" d="M672.23,887.71H658.07a3.45,3.45,0,0,1-2.51-.78,3.49,3.49,0,0,1-.77-2.54V824.8a3.5,3.5,0,0,1,.77-2.53,3.45,3.45,0,0,1,2.51-.78h14.16a3.46,3.46,0,0,1,2.52.78,3.54,3.54,0,0,1,.77,2.53V846h3.66l9.41-21.42a4.56,4.56,0,0,1,1.73-2.35,5.25,5.25,0,0,1,2.83-.69h14.07a2.4,2.4,0,0,1,2.1.78,2.28,2.28,0,0,1-.09,2.26L699.92,846a11.43,11.43,0,0,1,8.17,3.64,12.65,12.65,0,0,1,3.06,8.87v25.93a3.54,3.54,0,0,1-.77,2.54,3.46,3.46,0,0,1-2.52.78H693.79a3.45,3.45,0,0,1-2.51-.78,3.49,3.49,0,0,1-.78-2.54V866.46a3.36,3.36,0,0,0-.73-2.3,2.75,2.75,0,0,0-2.19-.82H675.52v21a3.54,3.54,0,0,1-.77,2.54A3.46,3.46,0,0,1,672.23,887.71Z"/><path class="cls-7" d="M787.62,887.71H744.13a3.41,3.41,0,0,1-2.51-.78,3.49,3.49,0,0,1-.78-2.54V868.58a30.67,30.67,0,0,1,1-8.78,15.27,15.27,0,0,1,3-5.66,14.24,14.24,0,0,1,4.57-3.49,36.75,36.75,0,0,1,5.75-2.21l12.25-3.86a3.26,3.26,0,0,0,2-1.11,4,4,0,0,0,.5-2.21,2.5,2.5,0,0,0-.55-1.88,2.78,2.78,0,0,0-1.91-.51H747.6a3.43,3.43,0,0,1-2.51-.78,3.47,3.47,0,0,1-.78-2.53V824.8a3.5,3.5,0,0,1,.78-2.53,3.43,3.43,0,0,1,2.51-.78h26.95q7.77,0,11.92,3.91t4.16,11.36v8.64q0,6.9-3.84,10.58a25.7,25.7,0,0,1-10.41,5.7l-12.43,4a4.79,4.79,0,0,0-1.87.82,2.72,2.72,0,0,0-.5,1.94v1.92h26a2.84,2.84,0,0,1,3.29,3.32v10.75a3.49,3.49,0,0,1-.78,2.54A3.45,3.45,0,0,1,787.62,887.71Z"/><text class="cls-8" transform="translate(522.56 428.36) rotate(-37.69) scale(0.96 1)">T</text><text class="cls-8" transform="matrix(0.83, -0.49, 0.51, 0.86, 533.77, 419.87)">U</text><text class="cls-8" transform="translate(547.62 411.94) rotate(-23.54) scale(0.96 1)">T</text><text class="cls-8" transform="translate(560.62 406.48) rotate(-16.74) scale(0.96 1)">T</text><text class="cls-8" transform="matrix(0.95, -0.15, 0.16, 0.99, 574.13, 402.53)">O</text><text class="cls-8" transform="matrix(0.96, -0.05, 0.05, 1, 590.95, 400.21)"> </text><text class="cls-8" transform="translate(599.45 399.78) rotate(2.29) scale(0.96 1)">G</text><text class="cls-8" transform="translate(613.27 400.52) rotate(8.81) scale(0.96 1)">E</text><text class="cls-8" transform="translate(626.3 402.72) rotate(15.23) scale(0.96 1)">L</text><text class="cls-8" transform="matrix(0.89, 0.37, -0.38, 0.92, 639, 406.26)">A</text><text class="cls-8" transform="translate(654.55 413.04) rotate(29.91) scale(0.96 1)">T</text><text class="cls-8" transform="translate(666.69 420.14) rotate(37.16) scale(0.96 1)">O</text></svg>