<svg id="Layer_1" data-name="Layer 1" xmlns="http://www.w3.org/2000/svg" xmlns:xlink="http://www.w3.org/1999/xlink" viewBox="0 0 1920 540"><defs><style>.cls-1,.cls-12,.cls-16,.cls-8{fill:none;}.cls-10,.cls-2{fill:#84897b;}.cls-14,.cls-3{fill:#9bb4b0;}.cls-4{fill:#846c59;}.cls-5{fill:#fff;}.cls-11,.cls-6{fill:#ebac52;}.cls-7,.cls-9{fill:#bd543f;}.cls-10,.cls-11,.cls-12,.cls-14,.cls-8,.cls-9{stroke:#fff;}.cls-10,.cls-11,.cls-12,.cls-14,.cls-16,.cls-8,.cls-9{stroke-miterlimit:10;}.cls-8{stroke-width:1.76px;}.cls-10,.cls-11,.cls-12,.cls-14,.cls-9{stroke-width:3.78px;}.cls-13{clip-path:url(#clip-path);}.cls-15{fill:#333;}.cls-16{stroke:#333;stroke-width:2.21px;}</style><clipPath id="clip-path"><circle class="cls-1" cx="941.67" cy="278" r="102.04"/></clipPath></defs><path class="cls-1" d="M329.83,164.3a109.75,109.75,0,1,0,69.31,194.77,80.9,80.9,0,0,0-17.37-26.66,144.56,144.56,0,0,0-33-25.31c-5.78-3.39-10.34-6.06-14.94-10.66-9.67-9.66-4.27-20.39-4-20.84a23.82,23.82,0,0,1,4.23-5.78l2.21-2.2,25.87-25.88,45.29-45.28a109.78,109.78,0,0,1,7.21,147.29A109.62,109.62,0,0,0,329.83,164.3Z"/><path class="cls-2" d="M414.58,343.75a109.78,109.78,0,0,0-7.21-147.29l-45.29,45.28-25.87,25.88-2.21,2.2a23.82,23.82,0,0,0-4.23,5.78c-.23.45-5.63,11.18,4,20.84,4.6,4.6,9.16,7.27,14.94,10.66a144.56,144.56,0,0,1,33,25.31,80.9,80.9,0,0,1,17.37,26.66A111.22,111.22,0,0,0,414.58,343.75Z"/><path class="cls-2" d="M252.11,351.71a110.12,110.12,0,0,0,25.32,18.92l3-1.58c16-8.51,24.07-17.57,24.07-26.91,0-10.91-2.92-14.67-6.31-19-3.52-4.52-7.5-9.64-7.5-21.64,0-22.14,33.14-31.22,34.55-31.6l.25-.06-28.07-28.07-45.28-45.28a109.79,109.79,0,0,0,0,155.25Z"/><path class="cls-3" d="M378.94,335.24c-24-24-36-24-48-36-7.12-7.12-7.46-14.78-6.55-19.83.14-.8.31-1.54.49-2.19.25-.87.51-1.61.73-2.18q.17-.42.3-.72c.18-.39.29-.61.29-.61s-1.11.3-2.92.91c-.6.2-1.28.44-2,.71s-1.54.58-2.39.92c-9.33,3.79-24.25,11.91-24.25,25.2,0,21.78,13.81,16.69,13.81,40.67,0,12.39-11.29,22.5-26.19,30.43a109.84,109.84,0,0,0,113.61-10.94A77.37,77.37,0,0,0,378.94,335.24Z"/><polygon class="cls-4" points="331.44 272.38 336.21 267.62 331.44 272.38 331.44 272.38"/><path class="cls-2" d="M321.3,275.35c.74-.27,1.42-.51,2-.71C322.72,274.84,322,275.08,321.3,275.35Z"/><polygon class="cls-2" points="362.08 241.74 407.37 196.46 407.37 196.46 362.08 241.74 362.08 241.74"/><polygon class="cls-5" points="407.37 196.46 407.37 196.46 407.37 196.46 407.37 196.46 407.37 196.46"/><path class="cls-6" d="M359.13,239a45.71,45.71,0,0,0-58.78,0l29.39,29.39Z"/><path class="cls-1" d="M300.35,239l29.39,29.39L359.13,239a45.71,45.71,0,0,0-58.78,0Z"/><path class="cls-1" d="M300.35,239l29.39,29.39L359.13,239a45.71,45.71,0,0,0-58.78,0Z"/><path class="cls-7" d="M329.74,224.35a49.8,49.8,0,0,1,32,11.63l.27.22,42.5-42.5a109.69,109.69,0,0,0-149.47,0l42.51,42.51.27-.23A49.8,49.8,0,0,1,329.74,224.35Z"/><path class="cls-5" d="M400.73,363h0l-.18.14Z"/><path class="cls-5" d="M324.92,277.24c-.18.65-.35,1.39-.49,2.19C324.57,278.63,324.74,277.89,324.92,277.24Z"/><path class="cls-5" d="M326,274.34q-.13.3-.3.72Q325.82,274.64,326,274.34Z"/><path class="cls-4" d="M376.32,141.14a5.41,5.41,0,0,0,2-.48,3.83,3.83,0,0,0,1.35-1.09,5,5,0,0,0,.76-1.38,3.29,3.29,0,0,0,.1-1.68,5.11,5.11,0,0,0-.67-1.7,6.23,6.23,0,0,0-1.43-1.48,7.23,7.23,0,0,0-2-1.05l-3.22-1.1-2.86,8.39,3.18,1.08A7.61,7.61,0,0,0,376.32,141.14Z"/><polygon class="cls-4" points="381.81 396.25 381.66 401.24 385.45 399.68 381.81 396.25"/><path class="cls-4" d="M329.74,102.13C237.1,102.13,162,177.29,162,270s75.1,167.87,167.74,167.87S497.48,362.71,497.48,270,422.38,102.13,329.74,102.13Zm114.05,171.6a114.05,114.05,0,1,1-114-114A114,114,0,0,1,443.79,273.73Z"/><path class="cls-5" d="M197.75,263.8l.46-3-18-2.73-.45,3-3.47-.53L178,249.6a16.26,16.26,0,0,1,1.24-4.63,6.56,6.56,0,0,1,7.35-3.56,6.91,6.91,0,0,1,6.18,5.73h.07a3.36,3.36,0,0,1,1.48-1l5.62-2.07c.68-.26.93-.72,1.06-1.56l.12-.8,3.43.52-.44,2.9c-.31,2.06-.83,2.63-2.38,3.18l-6.94,2.55c-1,.38-1.41.79-1.63,2.22l-.35,2.27,6.09.93.44-2.87,3.43.53-1.59,10.41Zm-8-13.15c.36-2.41-.83-4.2-3.49-4.61a3.42,3.42,0,0,0-3.73,1.43,7.06,7.06,0,0,0-.88,2.73l-.51,3.35,8,1.22Z"/><path class="cls-5" d="M204.58,231.09l1.07-2.81-17-6.46-1.07,2.81-3.27-1.24,3.79-10,3.28,1.25-1.08,2.84,17,6.46,1.08-2.84,3.24,1.23-3.79,10Z"/><path class="cls-5" d="M211.66,204.34l1.59,1c1.38.87,3.28-.36,4.53-2.37s1.39-4.26-.32-5.34c-2.16-1.35-4.37.64-6.87,2.49-2.87,2.17-5.91,4.14-9.71,1.75-4.29-2.69-3.76-7.2-1.47-10.85,2.1-3.35,5.52-5.93,8-4.38l2.78,1.75L207.94,192l-1.44-.9c-1.08-.68-2.65.55-3.64,2.13-1.09,1.74-1.27,3.63.35,4.65,1.95,1.22,3.87-.32,6.11-2,3.13-2.46,6.38-4.84,10.37-2.34,4.34,2.73,4.06,7.65,1.54,11.66-2.21,3.53-6.17,6.3-9.38,4.29l-2.43-1.53Z"/><path class="cls-5" d="M230.23,186.29l2.07-2.19-13.21-12.46L217,173.82l-2.54-2.41,7.32-7.76,2.55,2.41-2.09,2.21,13.21,12.47,2.09-2.21,2.52,2.38-7.32,7.76Z"/><path class="cls-5" d="M246.05,170.19l2.51-1.66-10-15.14-2.5,1.66-1.94-2.92,6.36-4.22,17.75,7.65a12.72,12.72,0,0,1,1.94,1.27l.09-.06a18.88,18.88,0,0,1-1.43-1.9l-6.87-10.36-2.59,1.72-1.94-2.93,9-5.93,1.93,2.92-2.5,1.66,12,18-3.86,2.55L246.17,155a12.94,12.94,0,0,1-1.94-1.26l-.12.08a15.75,15.75,0,0,1,1.44,1.85L252.41,166l2.6-1.72,1.91,2.89-9,5.94Z"/><path class="cls-5" d="M284.29,125.77c4.28-1.36,9.9-1.28,10.87,1.75l1,3.31-4,1.27-.56-1.75c-.52-1.65-3.38-1.67-5.94-.86-5.09,1.61-7.23,5.86-5.61,10.95s6,7.87,11.28,6.19c1.92-.61,5.33-2.25,4.69-4.24l-.81-2.56-4.35,1.38-1-3.31,8.36-2.65,2.29,7.22c1.16,3.64-4.84,7-8.37,8.08a12.76,12.76,0,0,1-16.57-8.48C273.3,135,276.85,128.14,284.29,125.77Z"/><path class="cls-5" d="M344.62,119.66c3,.27,9.66,1.92,9.32,5.87l-.3,3.38-4.19-.37.17-1.94c.16-1.87-3.09-2.79-5.13-3-4.83-.43-8.65,2.65-9.11,7.94-.5,5.64,2.84,9.63,7.77,10.07,1.52.13,5.47,0,5.64-2l.17-1.94,4.19.37-.3,3.42c-.33,3.74-6.88,4.37-10.33,4.06a12.82,12.82,0,0,1-11.91-14.2A12.63,12.63,0,0,1,344.62,119.66Z"/><path class="cls-5" d="M364.26,145.15l2.82,1,6.18-17.08-2.82-1,1.19-3.3,10.4,3.77a16.34,16.34,0,0,1,4.31,2.12,6.56,6.56,0,0,1,2.06,7.9,6.93,6.93,0,0,1-6.82,4.95l0,.06a3.33,3.33,0,0,1,.72,1.66l.94,5.91c.12.72.52,1.05,1.32,1.34l.76.28L384.11,156l-2.76-1c-2-.71-2.41-1.32-2.65-3l-1.15-7.31c-.17-1.08-.5-1.53-1.86-2l-2.16-.78-2.1,5.8,2.73,1L373,152l-9.9-3.58Zm14.46-5.27c2.29.82,4.28,0,5.2-2.53a3.42,3.42,0,0,0-.68-3.94,7.17,7.17,0,0,0-2.5-1.39l-3.2-1.15-2.74,7.59Z"/><path class="cls-5" d="M395.06,158l2.5,1.68,10.12-15.09-2.5-1.67,2-2.91,15.46,10.37L419,155.74l-3.29-2.2,1.54-2.29-5.84-3.92-3.84,5.73,6.86,4.61-2.07,3.09-6.87-4.61L401.54,162l6.28,4.21,1.58-2.35,3.28,2.21L409,171.54l-15.9-10.68Z"/><path class="cls-5" d="M419.91,176.32l2,2.2,13.33-12.34-2-2.21,2.57-2.38,12.66,13.67-4.76,4.4-2.69-2.9,2-1.88-4.78-5.16-5.07,4.69,5.62,6.07L436.09,183l-5.61-6.06-5.2,4.81,5.14,5.55,2.07-1.93,2.69,2.91-4.8,4.45-13-14.06Z"/><path class="cls-5" d="M439.93,199.8l1.45,2.63,15.9-8.78L455.83,191l3.07-1.69,4.85,8.79-3.07,1.69-1.16-2.1-6,3.3,1.35,2.44,8.29.88-1-1.89,3.07-1.69,4.44,8-3.07,1.69-1.09-2-10.21-1.27-.06,0a4.13,4.13,0,0,1-.86,2.33l-4.27,6.76a1.64,1.64,0,0,0,0,1.88l.57,1-3,1.68-1.55-2.82c-1-1.86-.89-2.7-.07-4l5.14-7.84a1.82,1.82,0,0,0-.1-2.08l-.77-1.4-6.67,3.68L445,209l-3,1.68-5.09-9.23Z"/><path class="cls-5" d="M457.93,246.54c9-1.22,11.79,10.53,17.16,9.8,2.35-.31,3.31-2.16,3-4.26-.39-2.91-3.76-4.27-3.76-4.27l1.75-3.45a9.32,9.32,0,0,1,6.1,7.56c.59,4.38-1.57,8.49-6.27,9.12-7.72,1-10.72-10.31-15.86-9.73l1.16,8.58,3.16-.42.53,3.92-6.84.93-2.33-17.24A13.21,13.21,0,0,1,457.93,246.54Z"/><path class="cls-5" d="M231.87,380.37l-3.05-2.91,10.07-10.57-3.15-3,2.83-1.85,8.55,8.15-2.27,2.38-2.91-2.77Z"/><path class="cls-5" d="M246.18,392.23c-4.33-3.08-4.61-6.78-1.15-11.65L250.4,373l3.48,2.48-5.36,7.55c-2.14,3-2.45,5-.43,6.42s3.85.58,6-2.41l5.4-7.6,3.48,2.48-5.39,7.59C254.08,394.41,250.56,395.34,246.18,392.23Z"/><path class="cls-5" d="M265.9,403.8l-3.75-1.93,6.66-13-3.87-2,2.19-2.57,10.51,5.39-1.51,2.93-3.57-1.84Z"/><path class="cls-5" d="M282.15,410.63l-4-1.45,5-13.71-4.09-1.5,1.86-2.82,11.09,4.06-1.13,3.09-3.77-1.38Z"/><path class="cls-5" d="M299.93,415.77c-5.14-1.08-8.55-5.21-7.36-10.92s6-8.09,11.12-7,8.58,5.22,7.39,10.92S305.07,416.85,299.93,415.77ZM303,401.09c-2.74-.58-5.44,1.07-6.2,4.65s1.07,6.18,3.81,6.75,5.42-1,6.19-4.62S305.78,401.67,303,401.09Z"/><path class="cls-5" d="M335.78,418.73c-5.54.19-9.7-2.84-9.91-8.83s3.9-9.26,9.32-9.45a11.79,11.79,0,0,1,6.15,1.43l-.17,3.44a9.89,9.89,0,0,0-5.54-1.63,5.47,5.47,0,0,0-5.49,6c.14,3.83,2.72,5.82,5.7,5.71a8.3,8.3,0,0,0,2.75-.67l-.22-6.2,4.27-.15.28,7.87A14.46,14.46,0,0,1,335.78,418.73Z"/><path class="cls-5" d="M347.9,399.59l10.16-1.91.61,3.23-6,1.12.61,3.26,4.37-.82.62,3.26-4.37.82.86,4.57,8.23-1.55-.16,3.4-11.66,2.2Z"/><path class="cls-5" d="M364.47,396l4.06-1.33,4.53,13.85,6.43-2.1.29,3.4L370,413Z"/><path class="cls-5" d="M398.32,401.42l-2.5-2-6.36,3.16.12,3.16-4.16,2.08,0-20.51.62-.31,16.37,12.35Zm-9.13-2.06,4.19-2.09-4.41-3.6Z"/><path class="cls-5" d="M411.77,393.07l-3.5,2.35-8.14-12.12-3.62,2.43-1.18-3.16,9.8-6.59,1.84,2.73L403.63,381Z"/><path class="cls-5" d="M426.37,381.75c-3.91,3.52-9.26,3.84-13.16-.49s-3-9.6.89-13.12,9.27-3.85,13.18.47S430.27,378.23,426.37,381.75Zm-10.05-11.14c-2.08,1.87-2.35,5,.11,7.75s5.61,2.78,7.69.91,2.41-5-.08-7.74S418.42,368.71,416.32,370.61Z"/><path class="cls-8" d="M444,348.25A123.47,123.47,0,0,0,469.7,286"/><polygon class="cls-5" points="469.31 282.59 473.86 292 463.44 291.24 469.31 282.59"/><polygon class="cls-5" points="438.08 349.27 443.94 348.31 444.89 354.17 449.79 347.36 448.84 341.5 442.98 342.46 438.08 349.27"/><path class="cls-8" d="M215.45,348.25A123.47,123.47,0,0,1,189.78,286"/><polygon class="cls-5" points="190.17 282.59 185.62 292 196.04 291.24 190.17 282.59"/><polygon class="cls-5" points="221.4 349.27 215.54 348.31 214.59 354.17 209.69 347.36 210.64 341.5 216.5 342.46 221.4 349.27"/><ellipse class="cls-4" cx="941.67" cy="278" rx="111.46" ry="111.54"/><path class="cls-9" d="M941.67,235.49a42.42,42.42,0,0,1,30.07,12.45l42.09-42.09a102,102,0,0,0-144.31,0l42.09,42.09A42.38,42.38,0,0,1,941.67,235.49Z"/><path class="cls-10" d="M1013.83,205.85l-42.09,42.09L941.67,278l-30.06-30.06-42.09-42.09a102,102,0,1,0,144.31,0Z"/><path class="cls-11" d="M911.61,247.94,941.67,278l30.07-30.06a42.53,42.53,0,0,0-60.13,0Z"/><circle class="cls-12" cx="941.67" cy="278" r="102.04"/><g class="cls-13"><path class="cls-14" d="M941.21,278s-32.49,7.82-32.49,25.79c0,20.24,12.85,15.51,12.85,37.8,0,33.84-90.54,49.31-90.54,49.31h178.33s0-33.44-22.29-55.73-33.44-22.29-44.58-33.44S941.21,278,941.21,278Z"/></g><path class="cls-15" d="M1091.92,254.58h6.94V212.66h-6.94v-8.09h25.57a38.09,38.09,0,0,1,11,1.22c6.45,2.13,10.7,7.36,10.7,15.53s-4.25,13.81-11,16.1v.16a7.71,7.71,0,0,1,2.86,3l6.7,12.1c.82,1.47,2,1.88,3.92,1.88h1.88v8h-6.78c-4.82,0-6.29-1-8.09-4.33l-8.25-14.95c-1.23-2.21-2.29-2.94-5.64-2.94h-5.31v14.22h6.7v8h-24.35Zm27.29-22.8c5.64,0,9.32-3.35,9.32-9.56,0-3.76-1.39-6.7-4.58-8a16.22,16.22,0,0,0-6.54-1.06h-7.84v18.63Z"/><path class="cls-15" d="M1150.09,254.58h7V212.66h-7v-8.09h24.68v8.09h-7v41.92h7v8h-24.68Z"/><path class="cls-15" d="M1192.58,243.87v4.33c0,3.76,4.74,6,10.21,6,5.89,0,10-2.54,10-7.19,0-5.89-6.62-7.77-13.32-10.38-7.76-2.94-15.36-6.46-15.36-16.84,0-11.68,9.48-16.17,19.45-16.17,9.15,0,18.39,3.51,18.39,10.21v7.6h-9.73v-3.92c0-2.95-4.33-4.5-8.66-4.5-4.74,0-8.66,2-8.66,6.38,0,5.31,5.39,7.19,11.44,9.48,8.66,3.1,17.32,6.53,17.32,17.4,0,11.85-10,17.33-20.92,17.33-9.64,0-19.94-4.34-19.94-13.08v-6.62Z"/><path class="cls-15" d="M1231.63,254.58h6.95V212.66h-6.95v-8.09h24.68v8.09h-7v41.92h7v8h-24.68Z"/><path class="cls-15" d="M1264.56,254.58h6.94V212.66h-6.94v-8.09h17.65l24.43,37.34a28.8,28.8,0,0,1,2.12,4.9h.25a44.25,44.25,0,0,1-.33-5.47V212.66h-7.19v-8.09h24.84v8.09h-6.94v49.92h-10.71l-24.43-37.18a31.39,31.39,0,0,1-2.13-4.9h-.32a37.08,37.08,0,0,1,.41,5.39v28.69h7.19v8h-24.84Z"/><path class="cls-15" d="M1363.34,203.59c10.38,0,22.72,4.08,22.72,11.43v8h-9.73v-4.25c0-4-6.29-6-12.5-6-12.34,0-20,7.84-20,20.18s7.68,21.49,20.51,21.49c4.66,0,13.32-1.22,13.32-6v-6.2H1367.1v-8h20.26v17.48c0,8.83-15.52,11.94-24.1,11.94-17.82,0-30.56-12.92-30.56-30.24S1345.28,203.59,1363.34,203.59Z"/><path class="cls-15" d="M1445.78,203.59c7,0,22.63,2.45,22.63,11.6V223h-9.72v-4.49c0-4.33-7.68-5.8-12.42-5.8-11.2,0-19.37,7.84-19.37,20.1,0,13.07,8.5,21.57,19.94,21.57,3.51,0,12.58-1.14,12.58-5.72V244.2h9.73v7.92c0,8.67-15,11.45-23,11.45-17.56,0-30.31-13.32-30.31-30.24C1415.87,216.17,1428.94,203.59,1445.78,203.59Z"/><path class="cls-15" d="M1477.31,254.58h7V212.66h-7v-8.09h25.58a38,38,0,0,1,11,1.22c6.45,2.13,10.7,7.36,10.7,15.53s-4.25,13.81-10.95,16.1v.16a7.71,7.71,0,0,1,2.86,3l6.7,12.1c.82,1.47,2,1.88,3.93,1.88H1529v8h-6.78c-4.82,0-6.29-1-8.09-4.33l-8.25-14.95c-1.23-2.21-2.29-2.94-5.64-2.94H1495v14.22h6.7v8h-24.35Zm27.29-22.8c5.64,0,9.32-3.35,9.32-9.56,0-3.76-1.39-6.7-4.58-8a16.2,16.2,0,0,0-6.53-1.06H1495v18.63Z"/><path class="cls-15" d="M1535.48,254.58h7V212.66h-7v-8.09h43.07v15h-9.16v-6.37h-16.26v15.93h19.12v8.58h-19.12V254h17.49v-6.53h9.15v15.11h-44.29Z"/><path class="cls-15" d="M1587.77,254.58h7V212.66h-7v-8.09h43.07v15h-9.16v-6.37h-16.26v15.93h19.12v8.58h-19.12V254h17.49v-6.53h9.15v15.11h-44.29Z"/><path class="cls-15" d="M1640.06,254.58h7V212.66h-7v-8.09h23.21v8.09h-5.56v15.77h6.46l11-15.77h-5v-8.09h21.24v8.09h-5.23l-14,19.2V232s2,.9,3.76,4.33l8.9,16.18c.74,1.39,1.88,2.05,3.85,2.05h2.69v8H1684c-4.91,0-6.46-1.22-8.18-4.33l-10.13-19.12c-.9-1.55-2-2.12-4.33-2.12h-3.68v17.57h6.7v8h-24.35Z"/><path class="cls-15" d="M1718.33,257.44c0-20.92,27.79-23.7,27.79-36.2,0-5.48-3.92-8.26-8.83-8.26-6.78,0-11,7.27-11,7.27l-7.35-5.06a21.48,21.48,0,0,1,19.2-11.6c10.21,0,19,6.2,19,17.16,0,18-27,21.32-27.21,33.25h20v-7.35h9.15v15.93H1718.9A30.58,30.58,0,0,1,1718.33,257.44Z"/><path class="cls-15" d="M1098.82,331.67h3.67V309.8h-5.78v4.61h-4.79v-9.15h26.83v9.15H1114V309.8h-5.82v21.87h3.71v4.23h-13Z"/><path class="cls-15" d="M1154.05,309.53h-3.66v-4.27h13v4.27h-3.71v14.85a8.61,8.61,0,0,0,1,4.35,6.54,6.54,0,0,0,5.78,2.72,6.41,6.41,0,0,0,5.74-2.76,8.35,8.35,0,0,0,1-4.36v-14.8h-3.66v-4.27h13v4.27H1179v14.85a13.12,13.12,0,0,1-2.25,7.68c-2.24,2.93-6.08,4.35-10.18,4.35-4.36,0-8.07-1.59-10.18-4.31a12.05,12.05,0,0,1-2.29-7.72Z"/><path class="cls-15" d="M1221.15,331.67h3.67V309.8H1219v4.61h-4.79v-9.15h26.83v9.15h-4.78V309.8h-5.83v21.87h3.71v4.23h-13Z"/><path class="cls-15" d="M1279.45,331.67h3.67V309.8h-5.78v4.61h-4.79v-9.15h26.83v9.15h-4.79V309.8h-5.82v21.87h3.71v4.23h-13Z"/><path class="cls-15" d="M1347.37,304.75a15.48,15.48,0,0,1,15.87,15.61,15.88,15.88,0,1,1-31.75,0A15.49,15.49,0,0,1,1347.37,304.75Zm0,26.7c5.52,0,10.05-4.79,10.05-11.09,0-6-4.53-10.65-10.05-10.65s-10,4.62-10,10.65C1337.32,326.66,1341.85,331.45,1347.37,331.45Z"/><path class="cls-15" d="M1452.14,304.75c5.48,0,12,2.15,12,6V315H1459v-2.24c0-2.11-3.32-3.19-6.6-3.19-6.52,0-10.57,4.14-10.57,10.65s4.05,11.35,10.83,11.35c2.46,0,7-.64,7-3.19v-3.28h-5.57v-4.23h10.7v9.24c0,4.65-8.19,6.29-12.72,6.29-9.41,0-16.14-6.81-16.14-16S1442.61,304.75,1452.14,304.75Z"/><path class="cls-15" d="M1498.53,331.67h3.67V309.53h-3.67v-4.27h22.73v7.9h-4.83V309.8h-8.58v8.41h10.09v4.53h-10.09v8.63h9.23v-3.46h4.83v8h-23.38Z"/><path class="cls-15" d="M1555.32,331.67H1559V309.8h-3.66v-4.54h13v4.54h-3.71v21.57h9.06v-4.75h4.83v9.28h-23.21Z"/><path class="cls-15" d="M1609.25,331.67h2.81l9.19-26.41h6.43l9.19,26.41h2.8v4.23h-11.52v-4.23h3l-1.9-5.74h-9.66l-1.9,5.74h3v4.23h-11.48ZM1628,321.53l-2.89-8.67a12.67,12.67,0,0,1-.56-2.68h-.13a18.23,18.23,0,0,1-.56,2.68l-2.94,8.67Z"/><path class="cls-15" d="M1675.32,331.67H1679V309.8h-5.78v4.61h-4.79v-9.15h26.83v9.15h-4.79V309.8h-5.82v21.87h3.71v4.23h-13Z"/><path class="cls-15" d="M1743.24,304.75a15.48,15.48,0,0,1,15.87,15.61,15.88,15.88,0,1,1-31.75,0A15.49,15.49,0,0,1,1743.24,304.75Zm0,26.7c5.52,0,10-4.79,10-11.09,0-6-4.53-10.65-10-10.65s-10.06,4.62-10.06,10.65C1733.18,326.66,1737.72,331.45,1743.24,331.45Z"/><line class="cls-16" x1="1087.83" y1="284.16" x2="1759.11" y2="284.16"/></svg>