<svg id="Layer_1" data-name="Layer 1" xmlns="http://www.w3.org/2000/svg" viewBox="0 0 1920 540"><defs><style>.cls-1{fill:#bd543f;stroke:#fff;stroke-miterlimit:10;stroke-width:2.25px;}</style></defs><path class="cls-1" d="M181.17,201.46c-2-3.6-4.1-6.4-8.6-6.4v24.1h-18v-62h15.9c17.5,0,27.6,5.5,27.6,18.21,0,8.9-6.4,13-9.9,13.6,9.8,2.5,7.5,16.9,21.8,16.9l-3.2,13.8C188.07,219.66,185.07,208.76,181.17,201.46Zm-8.6-31.21v12.41c5.1,0,8.3-2.5,8.3-6.5C180.87,172.65,177.37,170.25,172.57,170.25Z"/><path class="cls-1" d="M215,157.15h18v62H215Z"/><path class="cls-1" d="M268.47,170c-4,0-6.4,1.6-6.4,4.2,0,9.31,27,5.51,27,26.31,0,12.1-9.3,19.5-24.41,19.5a39.81,39.81,0,0,1-23.2-8.1l7.7-12.3c4.2,3.5,10.21,6.4,15.5,6.4,4,0,6.61-2.1,6.61-5.3,0-9.4-27.11-6.3-27.11-26.8,0-10.51,8.7-17.51,21.91-17.51,7.3,0,15.1,2.2,18.9,4.6l-1.2,13.7C279.17,172.15,273.47,170,268.47,170Z"/><path class="cls-1" d="M298.06,157.15h18v62h-18Z"/><path class="cls-1" d="M347.07,189.56v29.6h-18V156.65h3l35.91,30V157.15h18v62.51h-3Z"/><path class="cls-1" d="M429.87,219.86c-21.11,0-33.91-12-33.91-31.8,0-19.41,13-31.61,33.61-31.61,7.3,0,16,2.2,20.5,5.3L448.77,176c-4.1-3.41-11.4-5.91-17.5-5.91-10.31,0-17.31,7.21-17.31,17.81,0,10.8,6.8,18.2,16.91,18.2a23.73,23.73,0,0,0,6.1-.8V185h18v27.7A50.69,50.69,0,0,1,429.87,219.86Z"/><path class="cls-1" d="M485.56,188.06c0-19.31,12.9-31.61,33-31.61,7.3,0,15.5,2.2,19.5,5.3L536.76,176c-3.4-3.41-10.4-5.91-16.5-5.91-9.8,0-16.5,7.31-16.5,18s6.7,18,16.8,18a24.12,24.12,0,0,0,14.9-5.7l6.5,11a33.67,33.67,0,0,1-23.2,8.5C498.66,219.86,485.56,207.36,485.56,188.06Z"/><path class="cls-1" d="M576.56,201.46c-2-3.6-4.1-6.4-8.6-6.4v24.1H550v-62h15.9c17.5,0,27.6,5.5,27.6,18.21,0,8.9-6.4,13-9.9,13.6,9.8,2.5,7.5,16.9,21.8,16.9l-3.2,13.8C583.46,219.66,580.46,208.76,576.56,201.46ZM568,170.25v12.41c5.1,0,8.3-2.5,8.3-6.5C576.26,172.65,572.76,170.25,568,170.25Z"/><path class="cls-1" d="M610.36,157.15h38.1v13.6h-20.1v8.71h14.7v13.7h-14.7v12.3h28.1l-3.2,13.7h-42.9Z"/><path class="cls-1" d="M664.46,157.15h38.1v13.6h-20.1v8.71h14.7v13.7h-14.7v12.3h28.1l-3.2,13.7h-42.9Z"/><path class="cls-1" d="M718.56,219.16v-62h18v62Zm59.4-62-21.3,26.41,26.5,35.6H762l-24.5-35.9,18.7-26.11Z"/><path d="M155.88,296h3.68V272.49h-3.68v-2.32H166v2.32h-3.68V283h16.28V272.49H175v-2.32h10.16v2.32h-3.68V296h3.68v2.32H175V296h3.68V285.41H162.36V296H166v2.32H155.88Z"/><path d="M198.36,277.69c5.56,0,8.44,4.28,8.44,9.28a11.35,11.35,0,0,1-.12,1.28H191.24c.12,5.16,3.64,8.08,7.8,8.08a9.42,9.42,0,0,0,6.12-2.4l1.24,2a11.4,11.4,0,0,1-7.44,2.8,10.17,10.17,0,0,1-10.52-10.52C188.44,281.65,192.92,277.69,198.36,277.69Zm5.6,8.56c-.16-4.24-2.72-6.28-5.68-6.28-3.36,0-6.28,2.2-6.92,6.28Z"/><path d="M210.68,296.05h3.12V281.29a.78.78,0,0,0-.88-.88H210.2v-2.24H214c1.68,0,2.44.68,2.44,2.28v1.36a14.52,14.52,0,0,1-.08,1.52h.08c1-3,3.24-5.36,6.36-5.36a6.13,6.13,0,0,1,1.12.12v2.68a7.84,7.84,0,0,0-1-.08c-4.52,0-6.36,5.08-6.36,9.08v6.28h3.12v2.24h-9Z"/><path d="M236.16,277.69c5.56,0,8.44,4.28,8.44,9.28a11.35,11.35,0,0,1-.12,1.28H229c.12,5.16,3.64,8.08,7.8,8.08a9.42,9.42,0,0,0,6.12-2.4l1.24,2a11.4,11.4,0,0,1-7.44,2.8,10.17,10.17,0,0,1-10.52-10.52C226.24,281.65,230.72,277.69,236.16,277.69Zm5.6,8.56C241.6,282,239,280,236.08,280c-3.36,0-6.28,2.2-6.92,6.28Z"/><path d="M270.08,286h1.32v-.84c0-3.76-2-5.08-4.84-5.08a10.17,10.17,0,0,0-5.84,2l-1.28-2a12,12,0,0,1,7.28-2.28c4.88,0,7.4,2.6,7.4,7.56v9.92a.78.78,0,0,0,.88.88h2.2v2.24h-3.28c-1.72,0-2.4-.76-2.4-2.2v-.36a8.77,8.77,0,0,1,.12-1.56h-.08a7.47,7.47,0,0,1-6.88,4.6c-3.28,0-6.72-1.88-6.72-6C258,286.25,266.68,286,270.08,286Zm-5,10.56c4,0,6.32-4,6.32-7.56v-1h-1.16c-1.64,0-9.48-.16-9.48,4.48A4,4,0,0,0,265.08,296.53Z"/><path d="M282.32,280.41h-3.6v-2.24h3.64v-5.56H285v5.56h5.08v2.24H285v10.32c0,4.72,3,5.36,4.56,5.36a4.67,4.67,0,0,0,.92-.08v2.36a7.8,7.8,0,0,1-1.16.08c-2.32,0-7-.76-7-7.48Z"/><path d="M303.72,296h3.68V272.49h-3.68v-2.32h12a15.16,15.16,0,0,1,5,.64c2.76,1,4.56,3.32,4.56,7,0,4.2-2.4,7.28-6.24,8v.08a3.58,3.58,0,0,1,1,1.16l4.68,8c.44.8,1,.92,2,.92h.8v2.32H326c-2.44,0-2.88-.36-3.88-2.12l-4.72-8.08c-.76-1.36-1.32-1.72-3.16-1.72h-4V296h3.64v2.32H303.72Zm13.08-12c3.4,0,5.68-2.32,5.68-5.92,0-2.56-1.12-4.2-3.08-5a11.12,11.12,0,0,0-3.72-.52H310.2V284Z"/><path d="M330.64,296.05H334V280.41h-3.6v-2.24h6.32v17.88h3.4v2.24h-9.52Zm3.24-25.88H337v3.4h-3.08Z"/><path d="M343.16,292.05h2.48v1.44c0,2,2.92,2.92,5.24,2.92,2.56,0,4.72-1.12,4.72-3.16,0-2.32-2.56-3.12-5.44-4.2-3-1.12-6.24-2.48-6.24-6,0-3.68,3.6-5.36,7-5.36,2.72,0,6.68,1.16,6.68,3.92v2.32h-2.48v-1.48c0-1.48-2-2.4-4.12-2.4s-4.24,1-4.24,2.92c0,2.2,2.44,3.12,5.08,4.08,3.12,1.12,6.56,2.44,6.56,6s-3.12,5.68-7.6,5.68c-3.72,0-7.6-1.68-7.6-4.76Z"/><path d="M362,296.05h3.4V280.41h-3.6v-2.24h6.32v17.88h3.4v2.24H362Zm3.24-25.88h3.08v3.4h-3.08Z"/><path d="M374.56,296.05H378V281.29a.78.78,0,0,0-.88-.88h-2.72v-2.24h3.84c1.68,0,2.44.72,2.44,2.24v1.16a6.6,6.6,0,0,1-.16,1.44h.08a8.91,8.91,0,0,1,8.2-5.32c5,0,6.68,2.84,6.68,7.8v10.56h3.4v2.24h-6.12V286.21c0-3.16-.52-6-4.4-6-4.44,0-7.64,3.92-7.64,8.36v7.44h3.4v2.24h-9.52Z"/><path d="M409.92,304.29c3.92,0,7-1.84,7-6.36v-2a9.34,9.34,0,0,1,.12-1.44H417a6.79,6.79,0,0,1-6.4,3.68c-5.4,0-9-4.28-9-10.32s3.32-10.16,8.72-10.16c2.84,0,5.68,1.08,6.76,3.56h.08a3.58,3.58,0,0,1-.08-.88c0-1.48.6-2.2,2.32-2.2H423v2.24h-2.48a.77.77,0,0,0-.88.84v16.56c0,6.4-4.72,8.88-9.68,8.88a14.71,14.71,0,0,1-6.56-1.6l1-2.2A12.35,12.35,0,0,0,409.92,304.29ZM417,287.85c0-5.88-2.8-7.72-6.36-7.72-3.92,0-6.2,2.88-6.2,7.68s2.6,7.92,6.56,7.92C414.2,295.73,417,293.77,417,287.85Z"/><path d="M450.56,269.69c3.4,0,10.48,1.28,10.48,5.6v3h-2.68v-2.24c0-2.76-4.8-3.84-7.68-3.84-6.52,0-11.44,5-11.44,11.76,0,7,4.92,12.28,11.6,12.28,2.28,0,8-.88,8-3.84v-2.2h2.68v3c0,4.08-6.84,5.56-10.72,5.56-8.4,0-14.44-6.56-14.44-14.72A14,14,0,0,1,450.56,269.69Z"/><path d="M465.88,296.05H469V281.29a.78.78,0,0,0-.88-.88H465.4v-2.24h3.8c1.68,0,2.44.68,2.44,2.28v1.36a14.52,14.52,0,0,1-.08,1.52h.08c1-3,3.24-5.36,6.36-5.36a6.13,6.13,0,0,1,1.12.12v2.68a7.84,7.84,0,0,0-1-.08c-4.52,0-6.36,5.08-6.36,9.08v6.28h3.12v2.24h-9Z"/><path d="M491.36,277.69c5.56,0,8.44,4.28,8.44,9.28a11.35,11.35,0,0,1-.12,1.28H484.24c.12,5.16,3.64,8.08,7.8,8.08a9.42,9.42,0,0,0,6.12-2.4l1.24,2a11.4,11.4,0,0,1-7.44,2.8,10.17,10.17,0,0,1-10.52-10.52C481.44,281.65,485.92,277.69,491.36,277.69Zm5.6,8.56c-.16-4.24-2.72-6.28-5.68-6.28-3.36,0-6.28,2.2-6.92,6.28Z"/><path d="M513.44,277.69c5.56,0,8.43,4.28,8.43,9.28a11.35,11.35,0,0,1-.12,1.28H506.32c.12,5.16,3.64,8.08,7.8,8.08a9.42,9.42,0,0,0,6.12-2.4l1.24,2a11.4,11.4,0,0,1-7.44,2.8,10.17,10.17,0,0,1-10.52-10.52C503.52,281.65,508,277.69,513.44,277.69Zm5.6,8.56c-.16-4.24-2.72-6.28-5.68-6.28-3.36,0-6.28,2.2-6.92,6.28Z"/><path d="M524.92,296.05h3.4V272.41h-3.6v-2.24H531V286h3.16l4.75-5.6h-2.87v-2.24h8.63v2.24h-2.8l-5.51,6.4v.08s.59.24,1.39,1.6l4,6.72c.4.68.72.84,1.84.84H545v2.24h-2.24c-2,0-2.51-.36-3.47-2L535,289.05c-.48-.72-1-.84-2-.84h-2v7.84h3.2v2.24h-9.32Z"/><path d="M558.28,296H562V272.49h-3.68v-2.32H571a10.33,10.33,0,0,1,4.83,1,6.62,6.62,0,0,1,3.44,6.16,6.5,6.5,0,0,1-3.6,6.08v.08c2.88.84,4.72,3.56,4.72,6.92a7.64,7.64,0,0,1-4.76,7.32,11.81,11.81,0,0,1-4.19.6H558.28Zm13.32-13.6a4.57,4.57,0,0,0,4.75-4.92,4.76,4.76,0,0,0-2-4.16,6.54,6.54,0,0,0-3.36-.72h-6.2v9.8Zm-.12,13.52a8.23,8.23,0,0,0,2.92-.44,5.65,5.65,0,0,0-2.49-10.68h-7.15v11.12Z"/><path d="M596.56,286h1.31v-.84c0-3.76-2-5.08-4.83-5.08a10.17,10.17,0,0,0-5.84,2l-1.28-2a12,12,0,0,1,7.28-2.28c4.88,0,7.39,2.6,7.39,7.56v9.92a.78.78,0,0,0,.88.88h2.2v2.24H600.4c-1.72,0-2.41-.76-2.41-2.2v-.36a8.12,8.12,0,0,1,.13-1.56H598a7.47,7.47,0,0,1-6.88,4.6c-3.28,0-6.72-1.88-6.72-6C584.44,286.25,593.16,286,596.56,286Zm-5,10.56c4,0,6.31-4,6.31-7.56v-1h-1.15c-1.64,0-9.48-.16-9.48,4.48A4,4,0,0,0,591.56,296.53Z"/><path d="M606,296.05h3.4V272.41h-3.6v-2.24h6.32V286h3.16l4.75-5.6h-2.87v-2.24h8.63v2.24H623l-5.51,6.4v.08s.6.24,1.4,1.6l4,6.72c.4.68.72.84,1.84.84H626v2.24h-2.24c-2,0-2.51-.36-3.47-2L616,289.05c-.48-.72-1-.84-2-.84h-2v7.84h3.2v2.24H606Z"/><path d="M638.36,277.69c5.55,0,8.43,4.28,8.43,9.28a11.35,11.35,0,0,1-.12,1.28H631.24c.12,5.16,3.64,8.08,7.8,8.08a9.41,9.41,0,0,0,6.11-2.4l1.24,2a11.4,11.4,0,0,1-7.44,2.8,10.17,10.17,0,0,1-10.51-10.52C628.44,281.65,632.92,277.69,638.36,277.69Zm5.59,8.56c-.16-4.24-2.71-6.28-5.67-6.28-3.36,0-6.28,2.2-6.92,6.28Z"/><path d="M650.68,296.05h3.12V281.29a.78.78,0,0,0-.88-.88H650.2v-2.24H654c1.68,0,2.44.68,2.44,2.28v1.36a14.52,14.52,0,0,1-.08,1.52h.08c1-3,3.23-5.36,6.35-5.36a6.13,6.13,0,0,1,1.12.12v2.68a7.84,7.84,0,0,0-1-.08c-4.51,0-6.35,5.08-6.35,9.08v6.28h3.11v2.24h-9Z"/><path d="M669.8,304.29c1.8,0,3.07-1.44,3.83-3.2l1.12-2.68-7.19-18h-2.64v-2.24h8.44v2.24h-2.92l5.27,13.72a9.51,9.51,0,0,1,.33,1.44h.11a9.39,9.39,0,0,1,.4-1.44l5.28-13.72h-2.92v-2.24h8.32v2.24h-2.64L676,302c-1.17,2.88-3.36,4.68-6.16,4.68a6.6,6.6,0,0,1-3.8-1.2l1-2.16A4.65,4.65,0,0,0,669.8,304.29Z"/><path d="M698,278.17h8.32v2.24h-3l4.19,13.52a8.19,8.19,0,0,1,.32,1.56h.08a13.17,13.17,0,0,1,.33-1.56l5-15.68h2.68l5,15.68a14.48,14.48,0,0,1,.32,1.56h.08a10.55,10.55,0,0,1,.28-1.56l4.24-13.52h-3v-2.24h8.32v2.24h-2.6l-5.72,17.88H720l-5-15.08a10.39,10.39,0,0,1-.36-1.6h-.12a10.39,10.39,0,0,1-.36,1.6l-5,15.08h-3l-5.72-17.88H698Z"/><path d="M743.19,277.69c5.56,0,8.44,4.28,8.44,9.28a11.35,11.35,0,0,1-.12,1.28H736.08c.12,5.16,3.63,8.08,7.79,8.08a9.42,9.42,0,0,0,6.12-2.4l1.24,2a11.4,11.4,0,0,1-7.44,2.8,10.16,10.16,0,0,1-10.51-10.52C733.28,281.65,737.76,277.69,743.19,277.69Zm5.6,8.56c-.16-4.24-2.72-6.28-5.68-6.28-3.36,0-6.27,2.2-6.91,6.28Z"/><path d="M765.28,292.05h2.48v1.44c0,2,2.92,2.92,5.23,2.92,2.56,0,4.72-1.12,4.72-3.16,0-2.32-2.56-3.12-5.43-4.2-3-1.12-6.24-2.48-6.24-6,0-3.68,3.6-5.36,7-5.36,2.72,0,6.68,1.16,6.68,3.92v2.32h-2.48v-1.48c0-1.48-2-2.4-4.11-2.4s-4.24,1-4.24,2.92c0,2.2,2.44,3.12,5.07,4.08,3.12,1.12,6.56,2.44,6.56,6s-3.12,5.68-7.6,5.68c-3.71,0-7.59-1.68-7.59-4.76Z"/><path d="M786.91,304.05V281.29a.78.78,0,0,0-.87-.88h-2.72v-2.24h3.79c1.72,0,2.4.72,2.4,2.12v.16a7.91,7.91,0,0,1-.12,1.4h.08a7.36,7.36,0,0,1,7-4.16c5.4,0,8.76,4.32,8.76,10.56s-3.8,10.52-9,10.52a7.36,7.36,0,0,1-6.64-4h-.08a11.83,11.83,0,0,1,.12,1.76v7.52H793v2.24h-9.51v-2.24Zm9-7.72c3.56,0,6.52-3,6.52-8.08,0-4.92-2.64-8.08-6.4-8.08-3.36,0-6.48,2.4-6.48,8.12C789.59,292.33,791.83,296.33,796,296.33Z"/><path d="M819,277.69c5.56,0,8.44,4.28,8.44,9.28a11.35,11.35,0,0,1-.12,1.28H811.87c.12,5.16,3.64,8.08,7.8,8.08a9.42,9.42,0,0,0,6.12-2.4l1.24,2a11.4,11.4,0,0,1-7.44,2.8,10.16,10.16,0,0,1-10.51-10.52C809.08,281.65,813.55,277.69,819,277.69Zm5.6,8.56c-.16-4.24-2.72-6.28-5.68-6.28-3.36,0-6.28,2.2-6.92,6.28Z"/><path d="M841.63,277.69c2.52,0,7.44,1,7.44,4.36v2.2h-2.52v-1.48c0-1.8-3-2.64-4.88-2.64-4.4,0-7.76,3.2-7.76,8.08a7.71,7.71,0,0,0,7.88,8.12,9.67,9.67,0,0,0,6.6-2.76l1.16,2.08a11.41,11.41,0,0,1-7.84,3.12c-5.76,0-10.59-4.08-10.59-10.48A10.3,10.3,0,0,1,841.63,277.69Z"/><path d="M853.11,296.05h3.4V280.41h-3.6v-2.24h6.32v17.88h3.4v2.24h-9.52Zm3.24-25.88h3.08v3.4h-3.08Z"/><path d="M877.47,286h1.32v-.84c0-3.76-2-5.08-4.84-5.08a10.17,10.17,0,0,0-5.84,2l-1.28-2a12,12,0,0,1,7.28-2.28c4.88,0,7.4,2.6,7.4,7.56v9.92a.78.78,0,0,0,.88.88h2.2v2.24h-3.28c-1.72,0-2.4-.76-2.4-2.2v-.36a8.77,8.77,0,0,1,.12-1.56H879a7.47,7.47,0,0,1-6.88,4.6c-3.28,0-6.72-1.88-6.72-6C865.35,286.25,874.07,286,877.47,286Zm-5,10.56c4,0,6.32-4,6.32-7.56v-1h-1.16c-1.64,0-9.48-.16-9.48,4.48A4,4,0,0,0,872.47,296.53Z"/><path d="M889.07,272.41h-3.56v-2.24h6.28v22.88c0,1.64.44,3,2.28,3a6.32,6.32,0,0,0,1.12-.08v2.32a11.37,11.37,0,0,1-1.56.12c-2.64,0-4.56-1.32-4.56-5.16Z"/><path d="M898.19,296.05h3.4V280.41H898v-2.24h6.32v17.88h3.4v2.24h-9.52Zm3.24-25.88h3.08v3.4h-3.08Z"/><path d="M922.83,281.57a7.86,7.86,0,0,1,1-1.12v-.08s-.72,0-1.52,0h-8.72V284h-2.48v-5.8h16.16v2l-12,14.76a7.86,7.86,0,0,1-1,1.12v.08s.76,0,1.56,0H925v-3.56h2.48v5.8H910.87v-1.92Z"/><path d="M941.31,277.69c5.56,0,8.44,4.28,8.44,9.28a11.35,11.35,0,0,1-.12,1.28H934.19c.12,5.16,3.64,8.08,7.8,8.08a9.42,9.42,0,0,0,6.12-2.4l1.24,2a11.4,11.4,0,0,1-7.44,2.8,10.17,10.17,0,0,1-10.52-10.52C931.39,281.65,935.87,277.69,941.31,277.69Zm5.6,8.56c-.16-4.24-2.72-6.28-5.68-6.28-3.36,0-6.28,2.2-6.92,6.28Z"/><path d="M963.43,296.05h3.4V280.41h-3.6v-2.24h6.32v17.88H973v2.24h-9.52Zm3.24-25.88h3.08v3.4h-3.08Z"/><path d="M976,296.05h3.4V281.29a.78.78,0,0,0-.88-.88h-2.72v-2.24h3.84c1.68,0,2.44.72,2.44,2.24v1.16a6.6,6.6,0,0,1-.16,1.44H982a8.91,8.91,0,0,1,8.2-5.32c5,0,6.68,2.84,6.68,7.8v10.56h3.4v2.24h-6.12V286.21c0-3.16-.52-6-4.4-6-4.44,0-7.64,3.92-7.64,8.36v7.44h3.4v2.24H976Z"/><path d="M1015.43,280.41h-3.6v-2.24h3.64v-5.56h2.68v5.56h5.08v2.24h-5.08v10.32c0,4.72,3,5.36,4.56,5.36a4.67,4.67,0,0,0,.92-.08v2.36a7.8,7.8,0,0,1-1.16.08c-2.32,0-7-.76-7-7.48Z"/><path d="M1025.87,296.05h3.4V272.41h-3.6v-2.24H1032v11a8.4,8.4,0,0,1-.16,1.64h.08a9,9,0,0,1,8.08-5.16c5,0,6.72,2.84,6.72,7.8v10.56h3.44v2.24H1044V286.21c0-3.16-.48-6-4.36-6-4.32,0-7.64,3.6-7.64,8.4v7.4h3.4v2.24h-9.52Z"/><path d="M1062.79,277.69c5.56,0,8.44,4.28,8.44,9.28a11.35,11.35,0,0,1-.12,1.28h-15.44c.12,5.16,3.64,8.08,7.8,8.08a9.42,9.42,0,0,0,6.12-2.4l1.24,2a11.4,11.4,0,0,1-7.44,2.8,10.17,10.17,0,0,1-10.52-10.52C1052.87,281.65,1057.35,277.69,1062.79,277.69Zm5.6,8.56c-.16-4.24-2.72-6.28-5.68-6.28-3.36,0-6.28,2.2-6.92,6.28Z"/><path d="M1087.71,304.05V281.29a.78.78,0,0,0-.88-.88h-2.72v-2.24h3.8c1.72,0,2.4.72,2.4,2.12v.16a7.91,7.91,0,0,1-.12,1.4h.08a7.36,7.36,0,0,1,7-4.16c5.4,0,8.76,4.32,8.76,10.56s-3.8,10.52-9,10.52a7.36,7.36,0,0,1-6.64-4h-.08a11.83,11.83,0,0,1,.12,1.76v7.52h3.4v2.24h-9.52v-2.24Zm9-7.72c3.56,0,6.52-3,6.52-8.08,0-4.92-2.64-8.08-6.4-8.08-3.36,0-6.48,2.4-6.48,8.12C1090.39,292.33,1092.63,296.33,1096.75,296.33Z"/><path d="M1110,296.05h3.12V281.29a.78.78,0,0,0-.88-.88h-2.72v-2.24h3.8c1.68,0,2.44.68,2.44,2.28v1.36a14.52,14.52,0,0,1-.08,1.52h.08c1-3,3.24-5.36,6.36-5.36a6.13,6.13,0,0,1,1.12.12v2.68a7.84,7.84,0,0,0-1-.08c-4.52,0-6.36,5.08-6.36,9.08v6.28H1119v2.24h-9Z"/><path d="M1136,277.69a10.54,10.54,0,1,1-10.6,10.44A10.41,10.41,0,0,1,1136,277.69Zm0,18.64a7.94,7.94,0,0,0,7.83-8.2,7.82,7.82,0,1,0-15.63,0A7.93,7.93,0,0,0,1136,296.33Z"/><path d="M1159.47,277.69a7.24,7.24,0,0,1,6.55,3.92h.08a10,10,0,0,1-.12-1.56v-7.64h-3.59v-2.24h6.31v25a.78.78,0,0,0,.88.88h2.24v2.24h-3.32c-1.71,0-2.4-.76-2.4-2.2v-.36a4,4,0,0,1,.16-1.24h-.08a7.52,7.52,0,0,1-7.07,4.28c-5.4,0-8.72-4.32-8.72-10.52C1150.39,281.85,1154.11,277.69,1159.47,277.69Zm.08,18.64c3.36,0,6.51-2.4,6.51-8.08,0-4.12-2.07-8.08-6.35-8.08-3.6,0-6.52,3-6.52,8.08C1153.19,293.17,1155.79,296.33,1159.55,296.33Z"/><path d="M1177.31,280.41h-3.6v-2.24H1180v12.12c0,3.16.48,6,4.4,6,4.51,0,7.39-4.16,7.39-8.52v-7.32h-3.6v-2.24h6.32v17a.78.78,0,0,0,.88.88h2.28v2.2h-3.4c-1.68,0-2.4-.72-2.4-2.24v-1c0-.8,0-1.44,0-1.44h-.08a8.46,8.46,0,0,1-7.95,5.16c-4.64,0-6.6-2.56-6.6-7.8Z"/><path d="M1211.27,277.69c2.52,0,7.43,1,7.43,4.36v2.2h-2.52v-1.48c0-1.8-3-2.64-4.88-2.64-4.39,0-7.75,3.2-7.75,8.08a7.71,7.71,0,0,0,7.87,8.12,9.67,9.67,0,0,0,6.6-2.76l1.16,2.08a11.41,11.41,0,0,1-7.84,3.12,10.54,10.54,0,1,1-.07-21.08Z"/><path d="M1225.23,280.41h-3.6v-2.24h3.64v-5.56H1228v5.56H1233v2.24H1228v10.32c0,4.72,3,5.36,4.55,5.36a4.67,4.67,0,0,0,.92-.08v2.36a7.8,7.8,0,0,1-1.16.08c-2.32,0-7-.76-7-7.48Z"/><path d="M1236.31,296.05h3.39V280.41h-3.59v-2.24h6.31v17.88h3.4v2.24h-9.51Zm3.23-25.88h3.08v3.4h-3.08Z"/><path d="M1259.26,277.69a10.54,10.54,0,1,1-10.6,10.44A10.42,10.42,0,0,1,1259.26,277.69Zm0,18.64a7.94,7.94,0,0,0,7.84-8.2,7.82,7.82,0,1,0-15.64,0A7.93,7.93,0,0,0,1259.26,296.33Z"/><path d="M1273.38,296.05h3.4V281.29a.78.78,0,0,0-.88-.88h-2.72v-2.24H1277c1.68,0,2.44.72,2.44,2.24v1.16a6.6,6.6,0,0,1-.16,1.44h.08a8.91,8.91,0,0,1,8.2-5.32c5,0,6.68,2.84,6.68,7.8v10.56h3.4v2.24h-6.12V286.21c0-3.16-.52-6-4.4-6-4.44,0-7.64,3.92-7.64,8.36v7.44h3.4v2.24h-9.52Z"/><path d="M1320.9,277.69a10.54,10.54,0,1,1-10.6,10.44A10.42,10.42,0,0,1,1320.9,277.69Zm0,18.64a7.94,7.94,0,0,0,7.84-8.2,7.82,7.82,0,1,0-15.64,0A7.93,7.93,0,0,0,1320.9,296.33Z"/><path d="M1335,296.05h3.39V280.41h-3.59v-2.24h3.59v-1c0-6.36,4.48-7.16,6.56-7.16a9.82,9.82,0,0,1,1.64.12v2.36a6.66,6.66,0,0,0-1.36-.12c-1.36,0-4.12.48-4.12,4.76v1.08h5.12v2.24h-5.12v15.64h4v2.24H1335Z"/><path d="M1362.42,290.45v2c0,2.36,2.92,3.72,6.16,3.72,3.64,0,6.28-1.8,6.28-5.08,0-3.68-3.4-5-7-6.32s-7.52-2.88-7.52-7.8,4-7.32,8.56-7.32c4,0,8.12,1.56,8.12,4.4v3h-2.68V275c0-1.8-2.92-2.76-5.44-2.76-3.2,0-5.68,1.56-5.68,4.56,0,3.4,3,4.48,6.44,5.8,4.08,1.52,8.12,3.08,8.12,8.24,0,5-4,7.92-9.16,7.92-4,0-8.84-1.8-8.84-5.64v-2.68Z"/><path d="M1393.66,286H1395v-.84c0-3.76-2-5.08-4.84-5.08a10.17,10.17,0,0,0-5.84,2l-1.28-2a12,12,0,0,1,7.28-2.28c4.88,0,7.4,2.6,7.4,7.56v9.92a.78.78,0,0,0,.88.88h2.2v2.24h-3.28c-1.72,0-2.4-.76-2.4-2.2v-.36a8.77,8.77,0,0,1,.12-1.56h-.08a7.47,7.47,0,0,1-6.88,4.6c-3.28,0-6.72-1.88-6.72-6C1381.54,286.25,1390.26,286,1393.66,286Zm-5,10.56c4,0,6.32-4,6.32-7.56v-1h-1.16c-1.64,0-9.48-.16-9.48,4.48A4,4,0,0,0,1388.66,296.53Z"/><path d="M1405.26,272.41h-3.56v-2.24H1408v22.88c0,1.64.44,3,2.28,3a6.32,6.32,0,0,0,1.12-.08v2.32a11.37,11.37,0,0,1-1.56.12c-2.64,0-4.56-1.32-4.56-5.16Z"/><path d="M1416.7,280.41h-3.6v-2.24h3.64v-5.56h2.68v5.56h5.08v2.24h-5.08v10.32c0,4.72,3,5.36,4.56,5.36a4.67,4.67,0,0,0,.92-.08v2.36a7.8,7.8,0,0,1-1.16.08c-2.32,0-7-.76-7-7.48Z"/><path d="M1438.1,296h3.68V272.49h-3.68v-2.32h12a15.16,15.16,0,0,1,5,.64c2.76,1,4.56,3.32,4.56,7,0,4.2-2.4,7.28-6.24,8v.08a3.58,3.58,0,0,1,1,1.16l4.68,8c.44.8,1,.92,2,.92h.8v2.32h-1.52c-2.44,0-2.88-.36-3.88-2.12l-4.72-8.08c-.76-1.36-1.32-1.72-3.16-1.72h-4V296h3.64v2.32H1438.1Zm13.08-12c3.4,0,5.68-2.32,5.68-5.92,0-2.56-1.12-4.2-3.08-5a11.12,11.12,0,0,0-3.72-.52h-5.48V284Z"/><path d="M1465,296.05h3.4V280.41h-3.6v-2.24h6.32v17.88h3.4v2.24H1465Zm3.24-25.88h3.08v3.4h-3.08Z"/><path d="M1477.54,292.05H1480v1.44c0,2,2.92,2.92,5.24,2.92,2.56,0,4.72-1.12,4.72-3.16,0-2.32-2.56-3.12-5.44-4.2-3-1.12-6.24-2.48-6.24-6,0-3.68,3.6-5.36,7-5.36,2.72,0,6.68,1.16,6.68,3.92v2.32h-2.48v-1.48c0-1.48-2-2.4-4.12-2.4s-4.24,1-4.24,2.92c0,2.2,2.44,3.12,5.08,4.08,3.12,1.12,6.56,2.44,6.56,6s-3.12,5.68-7.6,5.68c-3.72,0-7.6-1.68-7.6-4.76Z"/><path d="M1496.38,296.05h3.4V280.41h-3.6v-2.24h6.32v17.88h3.4v2.24h-9.52Zm3.24-25.88h3.08v3.4h-3.08Z"/><path d="M1508.94,296.05h3.4V281.29a.78.78,0,0,0-.88-.88h-2.72v-2.24h3.84c1.68,0,2.44.72,2.44,2.24v1.16a6.6,6.6,0,0,1-.16,1.44h.08a8.91,8.91,0,0,1,8.2-5.32c5,0,6.68,2.84,6.68,7.8v10.56h3.4v2.24h-6.12V286.21c0-3.16-.52-6-4.4-6-4.44,0-7.64,3.92-7.64,8.36v7.44h3.4v2.24h-9.52Z"/><path d="M1544.3,304.29c3.92,0,7-1.84,7-6.36v-2a9.34,9.34,0,0,1,.12-1.44h-.08a6.79,6.79,0,0,1-6.4,3.68c-5.4,0-9-4.28-9-10.32s3.32-10.16,8.72-10.16c2.84,0,5.68,1.08,6.76,3.56h.08a3.58,3.58,0,0,1-.08-.88c0-1.48.6-2.2,2.32-2.2h3.6v2.24h-2.48a.77.77,0,0,0-.88.84v16.56c0,6.4-4.72,8.88-9.68,8.88a14.71,14.71,0,0,1-6.56-1.6l1-2.2A12.35,12.35,0,0,0,1544.3,304.29Zm7.08-16.44c0-5.88-2.8-7.72-6.36-7.72-3.92,0-6.2,2.88-6.2,7.68s2.6,7.92,6.56,7.92C1548.58,295.73,1551.38,293.77,1551.38,287.85Z"/><path d="M1570.7,296h3.68V272.49h-3.68v-2.32h12.68a10.35,10.35,0,0,1,4.84,1,6.62,6.62,0,0,1,3.44,6.16,6.5,6.5,0,0,1-3.6,6.08v.08c2.88.84,4.72,3.56,4.72,6.92a7.64,7.64,0,0,1-4.76,7.32,11.87,11.87,0,0,1-4.2.6H1570.7Zm13.32-13.6a4.58,4.58,0,0,0,4.76-4.92,4.74,4.74,0,0,0-2-4.16,6.54,6.54,0,0,0-3.36-.72h-6.2v9.8Zm-.12,13.52a8.23,8.23,0,0,0,2.92-.44,5.65,5.65,0,0,0-2.48-10.68h-7.16v11.12Z"/><path d="M1597.22,296.05h3.12V281.29a.78.78,0,0,0-.88-.88h-2.72v-2.24h3.8c1.68,0,2.44.68,2.44,2.28v1.36a14.52,14.52,0,0,1-.08,1.52h.08c1-3,3.24-5.36,6.36-5.36a6.13,6.13,0,0,1,1.12.12v2.68a7.84,7.84,0,0,0-1-.08c-4.52,0-6.36,5.08-6.36,9.08v6.28h3.12v2.24h-9Z"/><path d="M1622.7,277.69c5.56,0,8.44,4.28,8.44,9.28a11.35,11.35,0,0,1-.12,1.28h-15.44c.12,5.16,3.64,8.08,7.8,8.08a9.42,9.42,0,0,0,6.12-2.4l1.24,2a11.4,11.4,0,0,1-7.44,2.8,10.17,10.17,0,0,1-10.52-10.52C1612.78,281.65,1617.26,277.69,1622.7,277.69Zm5.6,8.56c-.16-4.24-2.72-6.28-5.68-6.28-3.36,0-6.28,2.2-6.92,6.28Z"/><path d="M1646.62,286h1.32v-.84c0-3.76-2-5.08-4.84-5.08a10.17,10.17,0,0,0-5.84,2l-1.28-2a12,12,0,0,1,7.28-2.28c4.88,0,7.4,2.6,7.4,7.56v9.92a.78.78,0,0,0,.88.88h2.2v2.24h-3.28c-1.72,0-2.4-.76-2.4-2.2v-.36a8.77,8.77,0,0,1,.12-1.56h-.08a7.47,7.47,0,0,1-6.88,4.6c-3.28,0-6.72-1.88-6.72-6C1634.5,286.25,1643.22,286,1646.62,286Zm-5,10.56c4,0,6.32-4,6.32-7.56v-1h-1.16c-1.64,0-9.48-.16-9.48,4.48A4,4,0,0,0,1641.62,296.53Z"/><path d="M1665.82,277.69a7.24,7.24,0,0,1,6.56,3.92h.08a10,10,0,0,1-.12-1.56v-7.64h-3.6v-2.24h6.32v25a.78.78,0,0,0,.88.88h2.24v2.24h-3.32c-1.72,0-2.4-.76-2.4-2.2v-.36a4,4,0,0,1,.16-1.24h-.08a7.52,7.52,0,0,1-7.08,4.28c-5.4,0-8.72-4.32-8.72-10.52C1656.74,281.85,1660.46,277.69,1665.82,277.69Zm.08,18.64c3.36,0,6.52-2.4,6.52-8.08,0-4.12-2.08-8.08-6.36-8.08-3.6,0-6.52,3-6.52,8.08C1659.54,293.17,1662.14,296.33,1665.9,296.33Z"/><path d="M1703.18,286h1.32v-.84c0-3.76-2-5.08-4.84-5.08a10.17,10.17,0,0,0-5.84,2l-1.28-2a12,12,0,0,1,7.28-2.28c4.88,0,7.4,2.6,7.4,7.56v9.92a.78.78,0,0,0,.88.88h2.2v2.24H1707c-1.72,0-2.4-.76-2.4-2.2v-.36a8.77,8.77,0,0,1,.12-1.56h-.08a7.47,7.47,0,0,1-6.88,4.6c-3.28,0-6.72-1.88-6.72-6C1691.06,286.25,1699.78,286,1703.18,286Zm-5,10.56c4,0,6.32-4,6.32-7.56v-1h-1.16c-1.64,0-9.48-.16-9.48,4.48A4,4,0,0,0,1698.18,296.53Z"/><path d="M1713.22,296.05h3.4V281.29a.78.78,0,0,0-.88-.88H1713v-2.24h3.84c1.68,0,2.44.72,2.44,2.24v1.16a6.6,6.6,0,0,1-.16,1.44h.08a8.91,8.91,0,0,1,8.2-5.32c5,0,6.68,2.84,6.68,7.8v10.56h3.4v2.24h-6.12V286.21c0-3.16-.52-6-4.4-6-4.44,0-7.64,3.92-7.64,8.36v7.44h3.4v2.24h-9.52Z"/><path d="M1749.34,277.69a7.24,7.24,0,0,1,6.56,3.92h.08a10,10,0,0,1-.12-1.56v-7.64h-3.6v-2.24h6.32v25a.78.78,0,0,0,.88.88h2.24v2.24h-3.32c-1.72,0-2.4-.76-2.4-2.2v-.36a4,4,0,0,1,.16-1.24h-.08a7.52,7.52,0,0,1-7.08,4.28c-5.4,0-8.72-4.32-8.72-10.52C1740.26,281.85,1744,277.69,1749.34,277.69Zm.08,18.64c3.36,0,6.52-2.4,6.52-8.08,0-4.12-2.08-8.08-6.36-8.08-3.6,0-6.52,3-6.52,8.08C1743.06,293.17,1745.66,296.33,1749.42,296.33Z"/><path d="M155.56,344.05H159V329.29a.78.78,0,0,0-.88-.88h-2.72v-2.24h3.84c1.68,0,2.44.72,2.44,2.24v1.16a6.6,6.6,0,0,1-.16,1.44h.08a8.75,8.75,0,0,1,7.48-5.32c3.64,0,5.56,1.72,6.12,5.12h.08a8.42,8.42,0,0,1,7.44-5.12c4.84,0,6.64,2.84,6.64,7.8v10.56h3.4v2.24H186.6V334.17c0-3.28-.68-6-4.32-6-4.08,0-6.76,4.32-6.76,8.48v7.4h3.4v2.24H172.8V334.17c0-3-.4-6-4.24-6-4.12,0-6.88,4.36-6.88,8.56v7.32h3.4v2.24h-9.52Z"/><path d="M207.2,334h1.32v-.84c0-3.76-2-5.08-4.84-5.08a10.17,10.17,0,0,0-5.84,2l-1.28-2a12,12,0,0,1,7.28-2.28c4.88,0,7.4,2.6,7.4,7.56v9.92a.78.78,0,0,0,.88.88h2.2v2.24H211c-1.72,0-2.4-.76-2.4-2.2v-.36a8.77,8.77,0,0,1,.12-1.56h-.08a7.47,7.47,0,0,1-6.88,4.6c-3.28,0-6.72-1.88-6.72-6C195.08,334.25,203.8,334,207.2,334Zm-5,10.56c4,0,6.32-4,6.32-7.56v-1h-1.16c-1.64,0-9.48-.16-9.48,4.48A4,4,0,0,0,202.2,344.53Z"/><path d="M217.24,344.05h3.4V329.29a.78.78,0,0,0-.88-.88H217v-2.24h3.84c1.68,0,2.44.72,2.44,2.24v1.16a6.6,6.6,0,0,1-.16,1.44h.08a8.91,8.91,0,0,1,8.2-5.32c5,0,6.68,2.84,6.68,7.8v10.56h3.4v2.24H235.4V334.21c0-3.16-.52-6-4.4-6-4.44,0-7.64,3.92-7.64,8.36v7.44h3.4v2.24h-9.52Z"/><path d="M247,352.29c1.8,0,3.08-1.44,3.84-3.2l1.12-2.68-7.2-18h-2.64v-2.24h8.44v2.24H247.6l5.28,13.72a8.76,8.76,0,0,1,.32,1.44h.12a9.39,9.39,0,0,1,.4-1.44L259,328.41h-2.92v-2.24h8.32v2.24h-2.64L253.2,350c-1.16,2.88-3.36,4.68-6.16,4.68a6.6,6.6,0,0,1-3.8-1.2l1-2.16A4.65,4.65,0,0,0,247,352.29Z"/><path d="M287.12,325.69a10.54,10.54,0,1,1-10.6,10.44A10.42,10.42,0,0,1,287.12,325.69Zm0,18.64a7.94,7.94,0,0,0,7.84-8.2,7.82,7.82,0,1,0-15.64,0A7.93,7.93,0,0,0,287.12,344.33Z"/><path d="M303.88,328.41h-3.6v-2.24h3.64v-5.56h2.68v5.56h5.08v2.24H306.6v10.32c0,4.72,3,5.36,4.56,5.36a4.67,4.67,0,0,0,.92-.08v2.36a7.8,7.8,0,0,1-1.16.08c-2.32,0-7-.76-7-7.48Z"/><path d="M314.32,344.05h3.4V320.41h-3.6v-2.24h6.32v11a8.4,8.4,0,0,1-.16,1.64h.08a9,9,0,0,1,8.08-5.16c5,0,6.72,2.84,6.72,7.8v10.56h3.44v2.24h-6.16V334.21c0-3.16-.48-6-4.36-6-4.32,0-7.64,3.6-7.64,8.4v7.4h3.4v2.24h-9.52Z"/><path d="M351.24,325.69c5.56,0,8.44,4.28,8.44,9.28a11.35,11.35,0,0,1-.12,1.28H344.12c.12,5.16,3.64,8.08,7.8,8.08a9.42,9.42,0,0,0,6.12-2.4l1.24,2a11.4,11.4,0,0,1-7.44,2.8,10.17,10.17,0,0,1-10.52-10.52C341.32,329.65,345.8,325.69,351.24,325.69Zm5.6,8.56c-.16-4.24-2.72-6.28-5.68-6.28-3.36,0-6.28,2.2-6.92,6.28Z"/><path d="M363.56,344.05h3.12V329.29a.78.78,0,0,0-.88-.88h-2.72v-2.24h3.8c1.68,0,2.44.68,2.44,2.28v1.36a14.52,14.52,0,0,1-.08,1.52h.08c1-3,3.24-5.36,6.36-5.36a6.13,6.13,0,0,1,1.12.12v2.68a7.84,7.84,0,0,0-1-.08c-4.52,0-6.36,5.08-6.36,9.08v6.28h3.12v2.24h-9Z"/><path d="M388.68,344.05h3.4V320.41h-3.6v-2.24h6.32v11a8.4,8.4,0,0,1-.16,1.64h.08a9,9,0,0,1,8.08-5.16c5,0,6.72,2.84,6.72,7.8v10.56H413v2.24H406.8V334.21c0-3.16-.48-6-4.36-6-4.32,0-7.64,3.6-7.64,8.4v7.4h3.4v2.24h-9.52Z"/><path d="M426.2,325.69a10.54,10.54,0,1,1-10.6,10.44A10.42,10.42,0,0,1,426.2,325.69Zm0,18.64a7.94,7.94,0,0,0,7.84-8.2,7.82,7.82,0,1,0-15.64,0A7.93,7.93,0,0,0,426.2,344.33Z"/><path d="M442.92,328.41h-3.6v-2.24h6.32v12.12c0,3.16.48,6,4.4,6,4.52,0,7.4-4.16,7.4-8.52v-7.32h-3.6v-2.24h6.32v17a.78.78,0,0,0,.88.88h2.28v2.2h-3.4c-1.68,0-2.4-.72-2.4-2.24v-1c0-.8,0-1.44,0-1.44h-.08a8.46,8.46,0,0,1-8,5.16c-4.64,0-6.6-2.56-6.6-7.8Z"/><path d="M466.48,340.05H469v1.44c0,2,2.92,2.92,5.24,2.92,2.56,0,4.72-1.12,4.72-3.16,0-2.32-2.56-3.12-5.44-4.2-3-1.12-6.24-2.48-6.24-6,0-3.68,3.6-5.36,7-5.36,2.72,0,6.68,1.16,6.68,3.92v2.32H478.4v-1.48c0-1.48-2-2.4-4.12-2.4S470,329,470,331c0,2.2,2.44,3.12,5.08,4.08,3.12,1.12,6.56,2.44,6.56,6s-3.12,5.68-7.6,5.68c-3.72,0-7.6-1.68-7.6-4.76Z"/><path d="M495.28,325.69c5.56,0,8.44,4.28,8.44,9.28a11.35,11.35,0,0,1-.12,1.28H488.16c.12,5.16,3.64,8.08,7.8,8.08a9.42,9.42,0,0,0,6.12-2.4l1.24,2a11.4,11.4,0,0,1-7.44,2.8,10.17,10.17,0,0,1-10.52-10.52C485.36,329.65,489.84,325.69,495.28,325.69Zm5.6,8.56c-.16-4.24-2.72-6.28-5.68-6.28-3.36,0-6.28,2.2-6.92,6.28Z"/><path d="M517.4,344.05h3.4V329.29a.78.78,0,0,0-.88-.88H517.2v-2.24H521c1.68,0,2.44.72,2.44,2.24v1.16a6.6,6.6,0,0,1-.16,1.44h.08a8.75,8.75,0,0,1,7.48-5.32c3.64,0,5.56,1.72,6.12,5.12h.08a8.42,8.42,0,0,1,7.43-5.12c4.84,0,6.64,2.84,6.64,7.8v10.56h3.4v2.24h-6.12V334.17c0-3.28-.68-6-4.31-6-4.08,0-6.76,4.32-6.76,8.48v7.4h3.39v2.24h-6.11V334.17c0-3-.4-6-4.24-6-4.12,0-6.88,4.36-6.88,8.56v7.32h3.4v2.24H517.4Z"/><path d="M569,334h1.32v-.84c0-3.76-2-5.08-4.84-5.08a10.17,10.17,0,0,0-5.84,2l-1.28-2a12,12,0,0,1,7.28-2.28c4.88,0,7.4,2.6,7.4,7.56v9.92a.78.78,0,0,0,.88.88h2.2v2.24h-3.28c-1.72,0-2.4-.76-2.4-2.2v-.36a8.77,8.77,0,0,1,.12-1.56h-.08a7.47,7.47,0,0,1-6.88,4.6c-3.28,0-6.72-1.88-6.72-6C556.92,334.25,565.64,334,569,334Zm-5,10.56c4,0,6.32-4,6.32-7.56v-1H569.2c-1.64,0-9.48-.16-9.48,4.48A4,4,0,0,0,564,344.53Z"/><path d="M588.24,325.69a7.24,7.24,0,0,1,6.56,3.92h.08a10,10,0,0,1-.12-1.56v-7.64h-3.6v-2.24h6.32v25a.78.78,0,0,0,.88.88h2.24v2.24h-3.32c-1.72,0-2.4-.76-2.4-2.2v-.36a4,4,0,0,1,.16-1.24H595a7.52,7.52,0,0,1-7.08,4.28c-5.4,0-8.72-4.32-8.72-10.52C579.16,329.85,582.88,325.69,588.24,325.69Zm.08,18.64c3.36,0,6.52-2.4,6.52-8.08,0-4.12-2.08-8.08-6.36-8.08-3.6,0-6.52,3-6.52,8.08C582,341.17,584.56,344.33,588.32,344.33Z"/><path d="M613.6,325.69c5.56,0,8.44,4.28,8.44,9.28a10.51,10.51,0,0,1-.13,1.28H606.48c.12,5.16,3.64,8.08,7.8,8.08a9.42,9.42,0,0,0,6.12-2.4l1.24,2a11.4,11.4,0,0,1-7.44,2.8,10.17,10.17,0,0,1-10.52-10.52C603.68,329.65,608.16,325.69,613.6,325.69Zm5.6,8.56C619,330,616.48,328,613.52,328c-3.36,0-6.28,2.2-6.92,6.28Z"/><path d="M635.68,340.05h2.48v1.44c0,2,2.92,2.92,5.24,2.92,2.56,0,4.72-1.12,4.72-3.16,0-2.32-2.56-3.12-5.44-4.2-3-1.12-6.24-2.48-6.24-6,0-3.68,3.6-5.36,7-5.36,2.72,0,6.68,1.16,6.68,3.92v2.32H647.6v-1.48c0-1.48-2-2.4-4.12-2.4s-4.24,1-4.24,2.92c0,2.2,2.44,3.12,5.08,4.08,3.12,1.12,6.55,2.44,6.55,6s-3.11,5.68-7.59,5.68c-3.72,0-7.6-1.68-7.6-4.76Z"/><path d="M657.32,352.05V329.29a.78.78,0,0,0-.88-.88h-2.72v-2.24h3.8c1.72,0,2.4.72,2.4,2.12v.16a7.91,7.91,0,0,1-.12,1.4h.08a7.36,7.36,0,0,1,7-4.16c5.4,0,8.76,4.32,8.76,10.56s-3.8,10.52-9,10.52a7.36,7.36,0,0,1-6.64-4h-.08a11.83,11.83,0,0,1,.12,1.76v7.52h3.4v2.24h-9.52v-2.24Zm9-7.72c3.55,0,6.51-3,6.51-8.08,0-4.92-2.64-8.08-6.39-8.08-3.36,0-6.48,2.4-6.48,8.12C660,340.33,662.24,344.33,666.36,344.33Z"/><path d="M689.4,325.69c5.55,0,8.43,4.28,8.43,9.28a11.35,11.35,0,0,1-.12,1.28H682.28c.12,5.16,3.64,8.08,7.8,8.08a9.41,9.41,0,0,0,6.11-2.4l1.24,2a11.4,11.4,0,0,1-7.44,2.8,10.17,10.17,0,0,1-10.51-10.52C679.48,329.65,684,325.69,689.4,325.69Zm5.59,8.56c-.16-4.24-2.71-6.28-5.67-6.28-3.36,0-6.28,2.2-6.92,6.28Z"/><path d="M712,325.69c2.51,0,7.43,1,7.43,4.36v2.2H717v-1.48c0-1.8-3-2.64-4.88-2.64-4.39,0-7.75,3.2-7.75,8.08a7.7,7.7,0,0,0,7.87,8.12,9.67,9.67,0,0,0,6.6-2.76l1.16,2.08a11.41,11.41,0,0,1-7.84,3.12,10.54,10.54,0,1,1-.07-21.08Z"/><path d="M723.52,344.05h3.39V328.41h-3.59v-2.24h6.31v17.88H733v2.24h-9.51Zm3.23-25.88h3.08v3.4h-3.08Z"/><path d="M747.87,334h1.32v-.84c0-3.76-2-5.08-4.84-5.08a10.17,10.17,0,0,0-5.84,2l-1.28-2a12,12,0,0,1,7.28-2.28c4.88,0,7.4,2.6,7.4,7.56v9.92a.78.78,0,0,0,.88.88H755v2.24h-3.28c-1.72,0-2.4-.76-2.4-2.2v-.36a8.77,8.77,0,0,1,.12-1.56h-.08a7.47,7.47,0,0,1-6.88,4.6c-3.28,0-6.72-1.88-6.72-6C735.75,334.25,744.47,334,747.87,334Zm-5,10.56c4,0,6.32-4,6.32-7.56v-1H748c-1.64,0-9.48-.16-9.48,4.48A4,4,0,0,0,742.87,344.53Z"/><path d="M759.47,320.41h-3.56v-2.24h6.28v22.88c0,1.64.44,3,2.28,3a6.32,6.32,0,0,0,1.12-.08v2.32a11.37,11.37,0,0,1-1.56.12c-2.64,0-4.56-1.32-4.56-5.16Z"/><path d="M770.91,328.41h-3.6v-2.24H771v-5.56h2.68v5.56h5.08v2.24h-5.08v10.32c0,4.72,3,5.36,4.56,5.36a4.67,4.67,0,0,0,.92-.08v2.36a7.8,7.8,0,0,1-1.16.08c-2.32,0-7-.76-7-7.48Z"/><path d="M782,344.05h3.4V328.41h-3.6v-2.24h6.32v17.88h3.4v2.24H782Zm3.24-25.88h3.08v3.4h-3.08Z"/><path d="M804.35,325.69c5.56,0,8.44,4.28,8.44,9.28a11.35,11.35,0,0,1-.12,1.28H797.23c.12,5.16,3.64,8.08,7.8,8.08a9.42,9.42,0,0,0,6.12-2.4l1.24,2a11.4,11.4,0,0,1-7.44,2.8,10.17,10.17,0,0,1-10.52-10.52C794.43,329.65,798.91,325.69,804.35,325.69Zm5.6,8.56c-.16-4.24-2.72-6.28-5.68-6.28-3.36,0-6.28,2.2-6.92,6.28Z"/><path d="M816.43,340.05h2.48v1.44c0,2,2.92,2.92,5.24,2.92,2.56,0,4.72-1.12,4.72-3.16,0-2.32-2.56-3.12-5.44-4.2-3-1.12-6.24-2.48-6.24-6,0-3.68,3.6-5.36,7-5.36,2.72,0,6.68,1.16,6.68,3.92v2.32h-2.48v-1.48c0-1.48-2-2.4-4.12-2.4S820,329,820,331c0,2.2,2.44,3.12,5.08,4.08,3.12,1.12,6.56,2.44,6.56,6s-3.12,5.68-7.6,5.68c-3.72,0-7.6-1.68-7.6-4.76Z"/><path d="M836.67,343h3.24v3.32h-3.24Z"/><path d="M858.19,338.45v2c0,2.36,2.92,3.72,6.16,3.72,3.64,0,6.28-1.8,6.28-5.08,0-3.68-3.4-5-7-6.32s-7.52-2.88-7.52-7.8,4-7.32,8.56-7.32c4,0,8.12,1.56,8.12,4.4v3h-2.68V323c0-1.8-2.92-2.76-5.44-2.76-3.2,0-5.68,1.56-5.68,4.56,0,3.4,3,4.48,6.44,5.8,4.08,1.52,8.12,3.08,8.12,8.24,0,5-4,7.92-9.16,7.92-4,0-8.84-1.8-8.84-5.64v-2.68Z"/><path d="M889.43,334h1.32v-.84c0-3.76-2-5.08-4.84-5.08a10.17,10.17,0,0,0-5.84,2l-1.28-2a12,12,0,0,1,7.28-2.28c4.88,0,7.4,2.6,7.4,7.56v9.92a.78.78,0,0,0,.88.88h2.2v2.24h-3.28c-1.72,0-2.4-.76-2.4-2.2v-.36a8.77,8.77,0,0,1,.12-1.56h-.08a7.47,7.47,0,0,1-6.88,4.6c-3.28,0-6.72-1.88-6.72-6C877.31,334.25,886,334,889.43,334Zm-5,10.56c4,0,6.32-4,6.32-7.56v-1h-1.16c-1.64,0-9.48-.16-9.48,4.48A4,4,0,0,0,884.43,344.53Z"/><path d="M901,320.41h-3.56v-2.24h6.28v22.88c0,1.64.44,3,2.28,3a6.32,6.32,0,0,0,1.12-.08v2.32a11.37,11.37,0,0,1-1.56.12c-2.64,0-4.56-1.32-4.56-5.16Z"/><path d="M912.47,328.41h-3.6v-2.24h3.64v-5.56h2.68v5.56h5.08v2.24h-5.08v10.32c0,4.72,3,5.36,4.56,5.36a4.67,4.67,0,0,0,.92-.08v2.36a7.8,7.8,0,0,1-1.16.08c-2.32,0-7-.76-7-7.48Z"/><path d="M933.87,344h3.68V320.49h-3.68v-2.32h12a15.16,15.16,0,0,1,5,.64c2.76,1,4.56,3.32,4.56,7,0,4.2-2.4,7.28-6.24,8v.08a3.58,3.58,0,0,1,1,1.16l4.68,8c.44.8,1,.92,2,.92h.8v2.32h-1.52c-2.44,0-2.88-.36-3.88-2.12l-4.72-8.08c-.76-1.36-1.32-1.72-3.16-1.72h-4V344H944v2.32H933.87ZM947,332c3.4,0,5.68-2.32,5.68-5.92,0-2.56-1.12-4.2-3.08-5a11.12,11.12,0,0,0-3.72-.52h-5.48V332Z"/><path d="M960.79,344.05h3.4V328.41h-3.6v-2.24h6.32v17.88h3.4v2.24h-9.52ZM964,318.17h3.08v3.4H964Z"/><path d="M973.31,340.05h2.48v1.44c0,2,2.92,2.92,5.24,2.92,2.56,0,4.72-1.12,4.72-3.16,0-2.32-2.56-3.12-5.44-4.2-3-1.12-6.24-2.48-6.24-6,0-3.68,3.6-5.36,7-5.36,2.72,0,6.68,1.16,6.68,3.92v2.32h-2.48v-1.48c0-1.48-2-2.4-4.12-2.4s-4.24,1-4.24,2.92c0,2.2,2.44,3.12,5.08,4.08,3.12,1.12,6.56,2.44,6.56,6s-3.12,5.68-7.6,5.68c-3.72,0-7.6-1.68-7.6-4.76Z"/><path d="M992.15,344.05h3.4V328.41H992v-2.24h6.32v17.88h3.4v2.24h-9.52Zm3.24-25.88h3.08v3.4h-3.08Z"/><path d="M1004.71,344.05h3.4V329.29a.78.78,0,0,0-.88-.88h-2.72v-2.24h3.84c1.68,0,2.44.72,2.44,2.24v1.16a6.6,6.6,0,0,1-.16,1.44h.08a8.91,8.91,0,0,1,8.2-5.32c5,0,6.68,2.84,6.68,7.8v10.56h3.4v2.24h-6.12V334.21c0-3.16-.52-6-4.4-6-4.44,0-7.64,3.92-7.64,8.36v7.44h3.4v2.24h-9.52Z"/><path d="M1040.07,352.29c3.92,0,7-1.84,7-6.36v-2a9.34,9.34,0,0,1,.12-1.44h-.08a6.79,6.79,0,0,1-6.4,3.68c-5.4,0-9-4.28-9-10.32s3.32-10.16,8.72-10.16c2.84,0,5.68,1.08,6.76,3.56h.08a3.58,3.58,0,0,1-.08-.88c0-1.48.6-2.2,2.32-2.2h3.6v2.24h-2.48a.77.77,0,0,0-.88.84v16.56c0,6.4-4.72,8.88-9.68,8.88a14.71,14.71,0,0,1-6.56-1.6l1-2.2A12.35,12.35,0,0,0,1040.07,352.29Zm7.08-16.44c0-5.88-2.8-7.72-6.36-7.72-3.92,0-6.2,2.88-6.2,7.68s2.6,7.92,6.56,7.92C1044.35,343.73,1047.15,341.77,1047.15,335.85Z"/><path d="M1066.47,344h3.68V320.49h-3.68v-2.32h12.68a10.35,10.35,0,0,1,4.84,1,6.62,6.62,0,0,1,3.44,6.16,6.5,6.5,0,0,1-3.6,6.08v.08c2.88.84,4.72,3.56,4.72,6.92a7.64,7.64,0,0,1-4.76,7.32,11.87,11.87,0,0,1-4.2.6h-13.12Zm13.32-13.6a4.58,4.58,0,0,0,4.76-4.92,4.74,4.74,0,0,0-2-4.16,6.54,6.54,0,0,0-3.36-.72H1073v9.8Zm-.12,13.52a8.23,8.23,0,0,0,2.92-.44,5.65,5.65,0,0,0-2.48-10.68H1073v11.12Z"/><path d="M1093,344.05h3.12V329.29a.78.78,0,0,0-.88-.88h-2.72v-2.24h3.8c1.68,0,2.44.68,2.44,2.28v1.36a14.52,14.52,0,0,1-.08,1.52h.08c1-3,3.24-5.36,6.36-5.36a6.13,6.13,0,0,1,1.12.12v2.68a7.84,7.84,0,0,0-1-.08c-4.52,0-6.36,5.08-6.36,9.08v6.28H1102v2.24h-9Z"/><path d="M1118.47,325.69c5.56,0,8.44,4.28,8.44,9.28a11.35,11.35,0,0,1-.12,1.28h-15.44c.12,5.16,3.64,8.08,7.8,8.08a9.42,9.42,0,0,0,6.12-2.4l1.24,2a11.4,11.4,0,0,1-7.44,2.8,10.17,10.17,0,0,1-10.52-10.52C1108.55,329.65,1113,325.69,1118.47,325.69Zm5.6,8.56c-.16-4.24-2.72-6.28-5.68-6.28-3.36,0-6.28,2.2-6.92,6.28Z"/><path d="M1142.39,334h1.32v-.84c0-3.76-2-5.08-4.84-5.08a10.17,10.17,0,0,0-5.84,2l-1.28-2a12,12,0,0,1,7.28-2.28c4.88,0,7.4,2.6,7.4,7.56v9.92a.78.78,0,0,0,.88.88h2.2v2.24h-3.28c-1.72,0-2.4-.76-2.4-2.2v-.36a8.77,8.77,0,0,1,.12-1.56h-.08a7.47,7.47,0,0,1-6.88,4.6c-3.28,0-6.72-1.88-6.72-6C1130.27,334.25,1139,334,1142.39,334Zm-5,10.56c4,0,6.32-4,6.32-7.56v-1h-1.16c-1.64,0-9.48-.16-9.48,4.48A4,4,0,0,0,1137.39,344.53Z"/><path d="M1161.59,325.69a7.24,7.24,0,0,1,6.56,3.92h.08a10,10,0,0,1-.12-1.56v-7.64h-3.6v-2.24h6.32v25a.78.78,0,0,0,.88.88H1174v2.24h-3.32c-1.72,0-2.4-.76-2.4-2.2v-.36a4,4,0,0,1,.16-1.24h-.08a7.52,7.52,0,0,1-7.08,4.28c-5.4,0-8.72-4.32-8.72-10.52C1152.51,329.85,1156.23,325.69,1161.59,325.69Zm.08,18.64c3.36,0,6.52-2.4,6.52-8.08,0-4.12-2.08-8.08-6.36-8.08-3.6,0-6.52,3-6.52,8.08C1155.31,341.17,1157.91,344.33,1161.67,344.33Z"/><path d="M1187.15,344.05h3.4V328.41H1187v-2.24h6.32v17.88h3.4v2.24h-9.52Zm3.24-25.88h3.08v3.4h-3.08Z"/><path d="M1199.67,340.05h2.48v1.44c0,2,2.92,2.92,5.24,2.92,2.56,0,4.72-1.12,4.72-3.16,0-2.32-2.56-3.12-5.44-4.2-3-1.12-6.24-2.48-6.24-6,0-3.68,3.6-5.36,7-5.36,2.72,0,6.68,1.16,6.68,3.92v2.32h-2.48v-1.48c0-1.48-2-2.4-4.12-2.4s-4.24,1-4.24,2.92c0,2.2,2.44,3.12,5.08,4.08,3.12,1.12,6.56,2.44,6.56,6s-3.12,5.68-7.6,5.68c-3.72,0-7.6-1.68-7.6-4.76Z"/><path d="M1240.31,334h1.32v-.84c0-3.76-2-5.08-4.84-5.08a10.17,10.17,0,0,0-5.84,2l-1.28-2a12,12,0,0,1,7.28-2.28c4.88,0,7.4,2.6,7.4,7.56v9.92a.78.78,0,0,0,.88.88h2.2v2.24h-3.28c-1.72,0-2.4-.76-2.4-2.2v-.36a8.77,8.77,0,0,1,.12-1.56h-.08a7.47,7.47,0,0,1-6.88,4.6c-3.28,0-6.72-1.88-6.72-6C1228.19,334.25,1236.91,334,1240.31,334Zm-5,10.56c4,0,6.32-4,6.32-7.56v-1h-1.16c-1.64,0-9.48-.16-9.48,4.48A4,4,0,0,0,1235.31,344.53Z"/><path d="M1262.83,328.41h-3.6v-2.24h3.64v-5.56h2.68v5.56h5.08v2.24h-5.08v10.32c0,4.72,3,5.36,4.56,5.36a4.67,4.67,0,0,0,.92-.08v2.36a7.8,7.8,0,0,1-1.16.08c-2.32,0-7-.76-7-7.48Z"/><path d="M1274.11,344.05h3.12V329.29a.78.78,0,0,0-.88-.88h-2.72v-2.24h3.8c1.68,0,2.44.68,2.44,2.28v1.36a14.52,14.52,0,0,1-.08,1.52h.08c1-3,3.24-5.36,6.36-5.36a6.13,6.13,0,0,1,1.12.12v2.68a7.84,7.84,0,0,0-1-.08c-4.52,0-6.36,5.08-6.36,9.08v6.28h3.12v2.24h-9Z"/><path d="M1301.67,334H1303v-.84c0-3.76-2-5.08-4.84-5.08a10.17,10.17,0,0,0-5.84,2l-1.28-2a12,12,0,0,1,7.28-2.28c4.88,0,7.39,2.6,7.39,7.56v9.92a.79.79,0,0,0,.88.88h2.21v2.24h-3.28c-1.72,0-2.4-.76-2.4-2.2v-.36a8.77,8.77,0,0,1,.12-1.56h-.08a7.47,7.47,0,0,1-6.88,4.6c-3.28,0-6.72-1.88-6.72-6C1289.55,334.25,1298.27,334,1301.67,334Zm-5,10.56c4,0,6.32-4,6.32-7.56v-1h-1.16c-1.64,0-9.48-.16-9.48,4.48A4,4,0,0,0,1296.67,344.53Z"/><path d="M1320.87,325.69a7.24,7.24,0,0,1,6.55,3.92h.08a10,10,0,0,1-.12-1.56v-7.64h-3.59v-2.24h6.31v25a.78.78,0,0,0,.88.88h2.24v2.24h-3.31c-1.72,0-2.41-.76-2.41-2.2v-.36a4,4,0,0,1,.16-1.24h-.08a7.5,7.5,0,0,1-7.07,4.28c-5.4,0-8.72-4.32-8.72-10.52C1311.79,329.85,1315.51,325.69,1320.87,325.69Zm.08,18.64c3.36,0,6.51-2.4,6.51-8.08,0-4.12-2.07-8.08-6.35-8.08-3.6,0-6.52,3-6.52,8.08C1314.59,341.17,1317.19,344.33,1321,344.33Z"/><path d="M1336.43,344.05h3.4V328.41h-3.6v-2.24h6.32v17.88h3.4v2.24h-9.52Zm3.24-25.88h3.08v3.4h-3.08Z"/><path d="M1351.27,328.41h-3.6v-2.24h3.64v-5.56H1354v5.56h5.08v2.24H1354v10.32c0,4.72,3,5.36,4.56,5.36a4.67,4.67,0,0,0,.92-.08v2.36a7.8,7.8,0,0,1-1.16.08c-2.32,0-7-.76-7-7.48Z"/><path d="M1362.35,344.05h3.4V328.41h-3.6v-2.24h6.32v17.88h3.4v2.24h-9.52Zm3.24-25.88h3.08v3.4h-3.08Z"/><path d="M1385.3,325.69a10.54,10.54,0,1,1-10.59,10.44A10.42,10.42,0,0,1,1385.3,325.69Zm0,18.64a7.94,7.94,0,0,0,7.84-8.2,7.82,7.82,0,1,0-15.63,0A7.93,7.93,0,0,0,1385.3,344.33Z"/><path d="M1399.43,344.05h3.4V329.29a.78.78,0,0,0-.88-.88h-2.72v-2.24h3.84c1.68,0,2.44.72,2.44,2.24v1.16a6.6,6.6,0,0,1-.16,1.44h.08a8.9,8.9,0,0,1,8.19-5.32c5,0,6.68,2.84,6.68,7.8v10.56h3.4v2.24h-6.12V334.21c0-3.16-.52-6-4.39-6-4.44,0-7.64,3.92-7.64,8.36v7.44h3.4v2.24h-9.52Z"/><path d="M1438.18,334h1.32v-.84c0-3.76-2-5.08-4.84-5.08a10.16,10.16,0,0,0-5.83,2l-1.28-2a12,12,0,0,1,7.28-2.28c4.87,0,7.39,2.6,7.39,7.56v9.92a.78.78,0,0,0,.88.88h2.2v2.24H1442c-1.72,0-2.4-.76-2.4-2.2v-.36a8.77,8.77,0,0,1,.12-1.56h-.08a7.47,7.47,0,0,1-6.87,4.6c-3.28,0-6.72-1.88-6.72-6C1426.07,334.25,1434.79,334,1438.18,334Zm-5,10.56c4,0,6.31-4,6.31-7.56v-1h-1.16c-1.64,0-9.47-.16-9.47,4.48A4,4,0,0,0,1433.19,344.53Z"/><path d="M1449.79,320.41h-3.56v-2.24h6.28v22.88c0,1.64.44,3,2.28,3a6.32,6.32,0,0,0,1.12-.08v2.32a11.37,11.37,0,0,1-1.56.12c-2.64,0-4.56-1.32-4.56-5.16Z"/><path d="M1467.51,344h2.88l9.48-25.8h3.07l9.48,25.8h2.88v2.32h-9V344h3.24l-2.68-7.24h-10.95l-2.64,7.24h3.24v2.32h-9Zm18.59-9.6-4.19-11.52a10,10,0,0,1-.45-1.8h-.12a8.87,8.87,0,0,1-.39,1.8l-4.28,11.52Z"/><path d="M1500,352.05V329.29a.78.78,0,0,0-.88-.88h-2.72v-2.24h3.8c1.72,0,2.4.72,2.4,2.12v.16a7.91,7.91,0,0,1-.12,1.4h.08a7.36,7.36,0,0,1,7-4.16c5.4,0,8.76,4.32,8.76,10.56s-3.8,10.52-9,10.52a7.36,7.36,0,0,1-6.64-4h-.08a11.83,11.83,0,0,1,.12,1.76v7.52h3.4v2.24h-9.52v-2.24Zm9-7.72c3.55,0,6.51-3,6.51-8.08,0-4.92-2.64-8.08-6.39-8.08-3.36,0-6.48,2.4-6.48,8.12C1502.63,340.33,1504.87,344.33,1509,344.33Z"/><path d="M1524.87,352.05V329.29a.78.78,0,0,0-.88-.88h-2.72v-2.24h3.8c1.72,0,2.4.72,2.4,2.12v.16a7.91,7.91,0,0,1-.12,1.4h.08a7.36,7.36,0,0,1,7-4.16c5.4,0,8.76,4.32,8.76,10.56s-3.8,10.52-9,10.52a7.36,7.36,0,0,1-6.64-4h-.07a12.88,12.88,0,0,1,.11,1.76v7.52h3.4v2.24h-9.51v-2.24Zm9-7.72c3.56,0,6.52-3,6.52-8.08,0-4.92-2.64-8.08-6.4-8.08-3.36,0-6.48,2.4-6.48,8.12C1527.54,340.33,1529.79,344.33,1533.9,344.33Z"/><path d="M1558.78,334h1.32v-.84c0-3.76-2-5.08-4.84-5.08a10.16,10.16,0,0,0-5.83,2l-1.28-2a12,12,0,0,1,7.27-2.28c4.88,0,7.4,2.6,7.4,7.56v9.92a.78.78,0,0,0,.88.88h2.2v2.24h-3.28c-1.72,0-2.4-.76-2.4-2.2v-.36a8.77,8.77,0,0,1,.12-1.56h-.08a7.47,7.47,0,0,1-6.88,4.6c-3.27,0-6.71-1.88-6.71-6C1546.67,334.25,1555.38,334,1558.78,334Zm-5,10.56c4,0,6.31-4,6.31-7.56v-1h-1.16c-1.64,0-9.47-.16-9.47,4.48A4,4,0,0,0,1553.79,344.53Z"/><path d="M1570.39,320.41h-3.56v-2.24h6.28v22.88c0,1.64.43,3,2.27,3a6.32,6.32,0,0,0,1.12-.08v2.32a11.37,11.37,0,0,1-1.56.12c-2.63,0-4.55-1.32-4.55-5.16Z"/><path d="M1591.3,334h1.32v-.84c0-3.76-2-5.08-4.84-5.08a10.12,10.12,0,0,0-5.83,2l-1.29-2a12,12,0,0,1,7.28-2.28c4.88,0,7.4,2.6,7.4,7.56v9.92a.78.78,0,0,0,.88.88h2.2v2.24h-3.28c-1.72,0-2.4-.76-2.4-2.2v-.36a8.77,8.77,0,0,1,.12-1.56h-.08a7.47,7.47,0,0,1-6.88,4.6c-3.28,0-6.71-1.88-6.71-6C1579.19,334.25,1587.9,334,1591.3,334Zm-5,10.56c4,0,6.32-4,6.32-7.56v-1h-1.16c-1.64,0-9.47-.16-9.47,4.48A4,4,0,0,0,1586.3,344.53Z"/><path d="M1611.86,325.69c2.52,0,7.44,1,7.44,4.36v2.2h-2.52v-1.48c0-1.8-3-2.64-4.88-2.64-4.4,0-7.75,3.2-7.75,8.08a7.7,7.7,0,0,0,7.87,8.12,9.67,9.67,0,0,0,6.6-2.76l1.16,2.08a11.41,11.41,0,0,1-7.84,3.12c-5.76,0-10.59-4.08-10.59-10.48A10.3,10.3,0,0,1,1611.86,325.69Z"/><path d="M1622.71,344.05h3.4V320.41h-3.6v-2.24h6.31v11a8.4,8.4,0,0,1-.16,1.64h.08a9,9,0,0,1,8.08-5.16c5,0,6.72,2.84,6.72,7.8v10.56H1647v2.24h-6.16V334.21c0-3.16-.48-6-4.36-6-4.32,0-7.64,3.6-7.64,8.4v7.4h3.4v2.24h-9.51Z"/><path d="M1649.66,344.05h3.4V328.41h-3.6v-2.24h6.32v17.88h3.4v2.24h-9.52Zm3.24-25.88H1656v3.4h-3.08Z"/><path d="M1674,334h1.32v-.84c0-3.76-2-5.08-4.84-5.08a10.17,10.17,0,0,0-5.84,2l-1.28-2a12,12,0,0,1,7.28-2.28c4.88,0,7.4,2.6,7.4,7.56v9.92a.78.78,0,0,0,.88.88h2.2v2.24h-3.28c-1.72,0-2.4-.76-2.4-2.2v-.36a8.77,8.77,0,0,1,.12-1.56h-.08a7.47,7.47,0,0,1-6.88,4.6c-3.28,0-6.72-1.88-6.72-6C1661.9,334.25,1670.62,334,1674,334Zm-5,10.56c4,0,6.32-4,6.32-7.56v-1h-1.16c-1.64,0-9.48-.16-9.48,4.48A4,4,0,0,0,1669,344.53Z"/><path d="M1684.06,344.05h3.4V329.29a.78.78,0,0,0-.88-.88h-2.72v-2.24h3.84c1.68,0,2.44.72,2.44,2.24v1.16A6.6,6.6,0,0,1,1690,331h.08a8.91,8.91,0,0,1,8.2-5.32c5,0,6.68,2.84,6.68,7.8v10.56h3.4v2.24h-6.12V334.21c0-3.16-.52-6-4.4-6-4.44,0-7.64,3.92-7.64,8.36v7.44h3.4v2.24h-9.52Z"/><path d="M157.32,368.41h-3.6v-2.24H160v9.92a11.33,11.33,0,0,1-.12,1.68H160a7.45,7.45,0,0,1,6.88-4.08c5.4,0,8.76,4.32,8.76,10.56s-3.8,10.52-9.08,10.52a7.38,7.38,0,0,1-6.64-4.12h-.08a11.33,11.33,0,0,1,.12,1.68v2h-2.64Zm9,23.92c3.56,0,6.52-3,6.52-8.08,0-4.92-2.64-8.08-6.4-8.08-3.36,0-6.52,2.4-6.52,8.12C160,388.33,162.08,392.33,166.36,392.33Z"/><path d="M179.6,392.05h3.12V377.29a.78.78,0,0,0-.88-.88h-2.72v-2.24h3.8c1.68,0,2.44.68,2.44,2.28v1.36a14.52,14.52,0,0,1-.08,1.52h.08c1-3,3.24-5.36,6.36-5.36a6.13,6.13,0,0,1,1.12.12v2.68a7.84,7.84,0,0,0-1-.08c-4.52,0-6.36,5.08-6.36,9.08v6.28h3.12v2.24h-9Z"/><path d="M205.08,373.69c5.56,0,8.44,4.28,8.44,9.28a11.35,11.35,0,0,1-.12,1.28H198c.12,5.16,3.64,8.08,7.8,8.08a9.42,9.42,0,0,0,6.12-2.4l1.24,2a11.4,11.4,0,0,1-7.44,2.8,10.17,10.17,0,0,1-10.52-10.52C195.16,377.65,199.64,373.69,205.08,373.69Zm5.6,8.56C210.52,378,208,376,205,376c-3.36,0-6.28,2.2-6.92,6.28Z"/><path d="M229,382h1.32v-.84c0-3.76-2-5.08-4.84-5.08a10.17,10.17,0,0,0-5.84,2l-1.28-2a12,12,0,0,1,7.28-2.28c4.88,0,7.4,2.6,7.4,7.56v9.92a.78.78,0,0,0,.88.88h2.2v2.24h-3.28c-1.72,0-2.4-.76-2.4-2.2v-.36a8.77,8.77,0,0,1,.12-1.56h-.08a7.47,7.47,0,0,1-6.88,4.6c-3.28,0-6.72-1.88-6.72-6C216.88,382.25,225.6,382,229,382Zm-5,10.56c4,0,6.32-4,6.32-7.56v-1h-1.16c-1.64,0-9.48-.16-9.48,4.48A4,4,0,0,0,224,392.53Z"/><path d="M248.2,373.69a7.24,7.24,0,0,1,6.56,3.92h.08a10,10,0,0,1-.12-1.56v-7.64h-3.6v-2.24h6.32v25a.78.78,0,0,0,.88.88h2.24v2.24h-3.32c-1.72,0-2.4-.76-2.4-2.2v-.36a4,4,0,0,1,.16-1.24h-.08a7.52,7.52,0,0,1-7.08,4.28c-5.4,0-8.72-4.32-8.72-10.52C239.12,377.85,242.84,373.69,248.2,373.69Zm.08,18.64c3.36,0,6.52-2.4,6.52-8.08,0-4.12-2.08-8.08-6.36-8.08-3.6,0-6.52,3-6.52,8.08C241.92,389.17,244.52,392.33,248.28,392.33Z"/><path d="M276.24,376.41h-3.6v-2.24h3.64v-5.56H279v5.56H284v2.24H279v10.32c0,4.72,3,5.36,4.56,5.36a4.67,4.67,0,0,0,.92-.08v2.36a7.8,7.8,0,0,1-1.16.08c-2.32,0-7-.76-7-7.48Z"/><path d="M286.68,392.05h3.4V368.41h-3.6v-2.24h6.32v11a8.4,8.4,0,0,1-.16,1.64h.08a9,9,0,0,1,8.08-5.16c5,0,6.72,2.84,6.72,7.8v10.56H311v2.24H304.8V382.21c0-3.16-.48-6-4.36-6-4.32,0-7.64,3.6-7.64,8.4v7.4h3.4v2.24h-9.52Z"/><path d="M325.44,382h1.32v-.84c0-3.76-2-5.08-4.84-5.08a10.17,10.17,0,0,0-5.84,2l-1.28-2a12,12,0,0,1,7.28-2.28c4.88,0,7.4,2.6,7.4,7.56v9.92a.78.78,0,0,0,.88.88h2.2v2.24h-3.28c-1.72,0-2.4-.76-2.4-2.2v-.36a8.77,8.77,0,0,1,.12-1.56h-.08a7.47,7.47,0,0,1-6.88,4.6c-3.28,0-6.72-1.88-6.72-6C313.32,382.25,322,382,325.44,382Zm-5,10.56c4,0,6.32-4,6.32-7.56v-1H325.6c-1.64,0-9.48-.16-9.48,4.48A4,4,0,0,0,320.44,392.53Z"/><path d="M337.68,376.41h-3.6v-2.24h3.64v-5.56h2.68v5.56h5.08v2.24H340.4v10.32c0,4.72,3,5.36,4.56,5.36a4.67,4.67,0,0,0,.92-.08v2.36a7.8,7.8,0,0,1-1.16.08c-2.32,0-7-.76-7-7.48Z"/><path d="M357.32,374.17h8.32v2.24h-3l4.2,13.52a8.19,8.19,0,0,1,.32,1.56h.08a14.48,14.48,0,0,1,.32-1.56l5-15.68h2.68l5,15.68a14.48,14.48,0,0,1,.32,1.56h.08a10.55,10.55,0,0,1,.28-1.56l4.24-13.52h-3v-2.24h8.32v2.24H388l-5.72,17.88h-2.92l-5-15.08a10.39,10.39,0,0,1-.36-1.6h-.12a10.39,10.39,0,0,1-.36,1.6l-5,15.08h-3l-5.72-17.88h-2.56Z"/><path d="M404.6,382h1.32v-.84c0-3.76-2-5.08-4.84-5.08a10.17,10.17,0,0,0-5.84,2L394,376a12,12,0,0,1,7.28-2.28c4.88,0,7.4,2.6,7.4,7.56v9.92a.78.78,0,0,0,.88.88h2.2v2.24h-3.28c-1.72,0-2.4-.76-2.4-2.2v-.36a8.77,8.77,0,0,1,.12-1.56h-.08a7.47,7.47,0,0,1-6.88,4.6c-3.28,0-6.72-1.88-6.72-6C392.48,382.25,401.2,382,404.6,382Zm-5,10.56c4,0,6.32-4,6.32-7.56v-1h-1.16c-1.64,0-9.48-.16-9.48,4.48A4,4,0,0,0,399.6,392.53Z"/><path d="M414.6,388.05h2.48v1.44c0,2,2.92,2.92,5.24,2.92,2.56,0,4.72-1.12,4.72-3.16,0-2.32-2.56-3.12-5.44-4.2-3-1.12-6.24-2.48-6.24-6,0-3.68,3.6-5.36,7-5.36,2.72,0,6.68,1.16,6.68,3.92v2.32h-2.48v-1.48c0-1.48-2-2.4-4.12-2.4s-4.24,1-4.24,2.92c0,2.2,2.44,3.12,5.08,4.08,3.12,1.12,6.56,2.44,6.56,6s-3.12,5.68-7.6,5.68c-3.72,0-7.6-1.68-7.6-4.76Z"/><path d="M454,373.69c2.52,0,7.44,1,7.44,4.36v2.2h-2.52v-1.48c0-1.8-3-2.64-4.88-2.64-4.4,0-7.76,3.2-7.76,8.08a7.71,7.71,0,0,0,7.88,8.12,9.67,9.67,0,0,0,6.6-2.76l1.16,2.08a11.41,11.41,0,0,1-7.84,3.12c-5.76,0-10.6-4.08-10.6-10.48A10.3,10.3,0,0,1,454,373.69Z"/><path d="M465.64,392.05h3.12V377.29a.78.78,0,0,0-.88-.88h-2.72v-2.24H469c1.68,0,2.44.68,2.44,2.28v1.36a14.52,14.52,0,0,1-.08,1.52h.08c1-3,3.24-5.36,6.36-5.36a6.13,6.13,0,0,1,1.12.12v2.68a7.84,7.84,0,0,0-1-.08c-4.52,0-6.36,5.08-6.36,9.08v6.28h3.12v2.24h-9Z"/><path d="M491.12,373.69c5.56,0,8.43,4.28,8.43,9.28a11.35,11.35,0,0,1-.12,1.28H484c.12,5.16,3.64,8.08,7.8,8.08a9.38,9.38,0,0,0,6.11-2.4l1.25,2a11.4,11.4,0,0,1-7.44,2.8,10.17,10.17,0,0,1-10.52-10.52C481.2,377.65,485.68,373.69,491.12,373.69Zm5.6,8.56C496.56,378,494,376,491,376c-3.36,0-6.28,2.2-6.92,6.28Z"/><path d="M515,382h1.32v-.84c0-3.76-2-5.08-4.84-5.08a10.17,10.17,0,0,0-5.84,2l-1.28-2a12,12,0,0,1,7.28-2.28c4.88,0,7.4,2.6,7.4,7.56v9.92a.78.78,0,0,0,.87.88h2.21v2.24h-3.28c-1.72,0-2.4-.76-2.4-2.2v-.36a8.77,8.77,0,0,1,.12-1.56h-.08a7.47,7.47,0,0,1-6.88,4.6c-3.28,0-6.72-1.88-6.72-6C502.92,382.25,511.64,382,515,382Zm-5,10.56c4,0,6.32-4,6.32-7.56v-1H515.2c-1.64,0-9.48-.16-9.48,4.48A4,4,0,0,0,510,392.53Z"/><path d="M527.28,376.41h-3.6v-2.24h3.64v-5.56H530v5.56h5.08v2.24H530v10.32c0,4.72,3,5.36,4.56,5.36a4.67,4.67,0,0,0,.92-.08v2.36a7.8,7.8,0,0,1-1.16.08c-2.32,0-7-.76-7-7.48Z"/><path d="M548.32,373.69c5.55,0,8.43,4.28,8.43,9.28a11.35,11.35,0,0,1-.12,1.28H541.2c.12,5.16,3.64,8.08,7.79,8.08a9.42,9.42,0,0,0,6.12-2.4l1.24,2a11.4,11.4,0,0,1-7.44,2.8,10.17,10.17,0,0,1-10.51-10.52C538.4,377.65,542.88,373.69,548.32,373.69Zm5.59,8.56c-.16-4.24-2.71-6.28-5.67-6.28-3.36,0-6.28,2.2-6.92,6.28Z"/><path d="M569.59,373.69a7.24,7.24,0,0,1,6.56,3.92h.08a10,10,0,0,1-.12-1.56v-7.64h-3.6v-2.24h6.32v25a.78.78,0,0,0,.88.88H582v2.24h-3.32c-1.72,0-2.4-.76-2.4-2.2v-.36a4,4,0,0,1,.16-1.24h-.08a7.52,7.52,0,0,1-7.07,4.28c-5.4,0-8.72-4.32-8.72-10.52C560.52,377.85,564.24,373.69,569.59,373.69Zm.08,18.64c3.36,0,6.52-2.4,6.52-8.08,0-4.12-2.08-8.08-6.36-8.08-3.59,0-6.51,3-6.51,8.08C563.32,389.17,565.91,392.33,569.67,392.33Z"/><path d="M596.92,368.41h-3.6v-2.24h6.32v9.92a11.33,11.33,0,0,1-.12,1.68h.08a7.44,7.44,0,0,1,6.87-4.08c5.4,0,8.76,4.32,8.76,10.56s-3.8,10.52-9.08,10.52a7.37,7.37,0,0,1-6.63-4.12h-.08a11.33,11.33,0,0,1,.12,1.68v2h-2.64Zm9,23.92c3.56,0,6.52-3,6.52-8.08,0-4.92-2.64-8.08-6.4-8.08-3.36,0-6.51,2.4-6.51,8.12C599.56,388.33,601.67,392.33,606,392.33Z"/><path d="M622.2,400.29c1.79,0,3.07-1.44,3.83-3.2l1.12-2.68-7.19-18h-2.64v-2.24h8.43v2.24h-2.92l5.28,13.72a8.76,8.76,0,0,1,.32,1.44h.12a9.39,9.39,0,0,1,.4-1.44l5.28-13.72h-2.92v-2.24h8.32v2.24H637L628.43,398c-1.16,2.88-3.35,4.68-6.15,4.68a6.56,6.56,0,0,1-3.8-1.2l1-2.16A4.65,4.65,0,0,0,622.2,400.29Z"/><path d="M650.4,392h2.88l9.47-25.8h3.08l9.48,25.8h2.88v2.32h-9V392h3.24l-2.68-7.24h-11L656.16,392h3.24v2.32h-9Zm18.59-9.6-4.2-11.52a10.5,10.5,0,0,1-.44-1.8h-.12a8.52,8.52,0,0,1-.4,1.8l-4.27,11.52Z"/><path d="M682.84,400.05V377.29a.78.78,0,0,0-.88-.88h-2.72v-2.24H683c1.72,0,2.4.72,2.4,2.12v.16a7.91,7.91,0,0,1-.12,1.4h.08a7.36,7.36,0,0,1,7-4.16c5.4,0,8.76,4.32,8.76,10.56s-3.8,10.52-9,10.52a7.36,7.36,0,0,1-6.64-4h-.08a11.83,11.83,0,0,1,.12,1.76v7.52H689v2.24h-9.51v-2.24Zm9-7.72c3.56,0,6.52-3,6.52-8.08,0-4.92-2.64-8.08-6.4-8.08-3.35,0-6.47,2.4-6.47,8.12C685.52,388.33,687.76,392.33,691.87,392.33Z"/><path d="M707.75,400.05V377.29a.78.78,0,0,0-.88-.88h-2.71v-2.24H708c1.72,0,2.4.72,2.4,2.12v.16a7.91,7.91,0,0,1-.12,1.4h.08a7.36,7.36,0,0,1,7-4.16c5.4,0,8.76,4.32,8.76,10.56s-3.8,10.52-9,10.52a7.36,7.36,0,0,1-6.64-4h-.08a11.83,11.83,0,0,1,.12,1.76v7.52h3.4v2.24h-9.51v-2.24Zm9-7.72c3.56,0,6.52-3,6.52-8.08,0-4.92-2.64-8.08-6.4-8.08-3.36,0-6.48,2.4-6.48,8.12C710.43,388.33,712.67,392.33,716.79,392.33Z"/><path d="M741.67,382H743v-.84c0-3.76-2-5.08-4.84-5.08a10.17,10.17,0,0,0-5.84,2L731,376a12,12,0,0,1,7.28-2.28c4.88,0,7.4,2.6,7.4,7.56v9.92a.78.78,0,0,0,.88.88h2.2v2.24h-3.28c-1.72,0-2.4-.76-2.4-2.2v-.36a8.77,8.77,0,0,1,.12-1.56h-.08a7.47,7.47,0,0,1-6.88,4.6c-3.28,0-6.72-1.88-6.72-6C729.55,382.25,738.27,382,741.67,382Zm-5,10.56c4,0,6.32-4,6.32-7.56v-1h-1.16c-1.64,0-9.48-.16-9.48,4.48A4,4,0,0,0,736.67,392.53Z"/><path d="M753.28,368.41h-3.56v-2.24H756v22.88c0,1.64.44,3,2.28,3a6.32,6.32,0,0,0,1.12-.08v2.32a11.37,11.37,0,0,1-1.56.12c-2.63,0-4.55-1.32-4.55-5.16Z"/><path d="M774.19,382h1.32v-.84c0-3.76-2-5.08-4.84-5.08a10.17,10.17,0,0,0-5.84,2l-1.28-2a12,12,0,0,1,7.28-2.28c4.88,0,7.4,2.6,7.4,7.56v9.92a.78.78,0,0,0,.88.88h2.2v2.24H778c-1.72,0-2.4-.76-2.4-2.2v-.36a8.77,8.77,0,0,1,.12-1.56h-.08a7.47,7.47,0,0,1-6.88,4.6c-3.28,0-6.71-1.88-6.71-6C762.08,382.25,770.79,382,774.19,382Zm-5,10.56c4,0,6.32-4,6.32-7.56v-1h-1.16c-1.64,0-9.48-.16-9.48,4.48A4,4,0,0,0,769.19,392.53Z"/><path d="M794.75,373.69c2.52,0,7.44,1,7.44,4.36v2.2h-2.52v-1.48c0-1.8-3-2.64-4.88-2.64-4.4,0-7.75,3.2-7.75,8.08a7.7,7.7,0,0,0,7.87,8.12,9.67,9.67,0,0,0,6.6-2.76l1.16,2.08a11.41,11.41,0,0,1-7.84,3.12c-5.76,0-10.59-4.08-10.59-10.48A10.3,10.3,0,0,1,794.75,373.69Z"/><path d="M805.6,392.05H809V368.41H805.4v-2.24h6.31v11a8.4,8.4,0,0,1-.16,1.64h.08a9,9,0,0,1,8.08-5.16c5,0,6.72,2.84,6.72,7.8v10.56h3.44v2.24h-6.16V382.21c0-3.16-.48-6-4.36-6-4.32,0-7.64,3.6-7.64,8.4v7.4h3.4v2.24H805.6Z"/><path d="M832.55,392.05H836V376.41h-3.6v-2.24h6.32v17.88h3.4v2.24h-9.52Zm3.24-25.88h3.08v3.4h-3.08Z"/><path d="M856.91,382h1.32v-.84c0-3.76-2-5.08-4.84-5.08a10.17,10.17,0,0,0-5.84,2l-1.28-2a12,12,0,0,1,7.28-2.28c4.88,0,7.4,2.6,7.4,7.56v9.92a.78.78,0,0,0,.88.88H864v2.24h-3.28c-1.72,0-2.4-.76-2.4-2.2v-.36a8.77,8.77,0,0,1,.12-1.56h-.08a7.47,7.47,0,0,1-6.88,4.6c-3.28,0-6.72-1.88-6.72-6C844.79,382.25,853.51,382,856.91,382Zm-5,10.56c4,0,6.32-4,6.32-7.56v-1h-1.16c-1.64,0-9.48-.16-9.48,4.48A4,4,0,0,0,851.91,392.53Z"/><path d="M867,392.05h3.4V377.29a.78.78,0,0,0-.88-.88h-2.72v-2.24h3.84c1.68,0,2.44.72,2.44,2.24v1.16a6.6,6.6,0,0,1-.16,1.44H873a8.91,8.91,0,0,1,8.2-5.32c5,0,6.68,2.84,6.68,7.8v10.56h3.4v2.24h-6.12V382.21c0-3.16-.52-6-4.4-6-4.44,0-7.64,3.92-7.64,8.36v7.44h3.4v2.24H867Z"/><path d="M903.87,388.05h2.48v1.44c0,2,2.92,2.92,5.24,2.92,2.56,0,4.72-1.12,4.72-3.16,0-2.32-2.56-3.12-5.44-4.2-3-1.12-6.24-2.48-6.24-6,0-3.68,3.6-5.36,7-5.36,2.72,0,6.68,1.16,6.68,3.92v2.32h-2.48v-1.48c0-1.48-2-2.4-4.12-2.4s-4.24,1-4.24,2.92c0,2.2,2.44,3.12,5.08,4.08,3.12,1.12,6.56,2.44,6.56,6s-3.12,5.68-7.6,5.68c-3.72,0-7.6-1.68-7.6-4.76Z"/><path d="M932.67,373.69c5.56,0,8.44,4.28,8.44,9.28a11.35,11.35,0,0,1-.12,1.28H925.55c.12,5.16,3.64,8.08,7.8,8.08a9.42,9.42,0,0,0,6.12-2.4l1.24,2a11.4,11.4,0,0,1-7.44,2.8,10.17,10.17,0,0,1-10.52-10.52C922.75,377.65,927.23,373.69,932.67,373.69Zm5.6,8.56c-.16-4.24-2.72-6.28-5.68-6.28-3.36,0-6.28,2.2-6.92,6.28Z"/><path d="M947.27,376.41h-3.6v-2.24h3.64v-5.56H950v5.56h5.08v2.24H950v10.32c0,4.72,3,5.36,4.56,5.36a4.67,4.67,0,0,0,.92-.08v2.36a7.8,7.8,0,0,1-1.16.08c-2.32,0-7-.76-7-7.48Z"/><path d="M960.83,376.41h-3.6v-2.24h3.64v-5.56h2.68v5.56h5.08v2.24h-5.08v10.32c0,4.72,3,5.36,4.56,5.36A4.67,4.67,0,0,0,969,392v2.36a7.8,7.8,0,0,1-1.16.08c-2.32,0-7-.76-7-7.48Z"/><path d="M973.63,368.41h-3.56v-2.24h6.28v22.88c0,1.64.44,3,2.28,3a6.32,6.32,0,0,0,1.12-.08v2.32a11.37,11.37,0,0,1-1.56.12c-2.64,0-4.56-1.32-4.56-5.16Z"/><path d="M992.71,373.69c5.56,0,8.44,4.28,8.44,9.28a11.35,11.35,0,0,1-.12,1.28H985.59c.12,5.16,3.64,8.08,7.8,8.08a9.42,9.42,0,0,0,6.12-2.4l1.24,2a11.4,11.4,0,0,1-7.44,2.8,10.17,10.17,0,0,1-10.52-10.52C982.79,377.65,987.27,373.69,992.71,373.69Zm5.6,8.56c-.16-4.24-2.72-6.28-5.68-6.28-3.36,0-6.28,2.2-6.92,6.28Z"/><path d="M1005,392.05h3.12V377.29a.78.78,0,0,0-.88-.88h-2.72v-2.24h3.8c1.68,0,2.44.68,2.44,2.28v1.36a14.52,14.52,0,0,1-.08,1.52h.08c1-3,3.24-5.36,6.36-5.36a6.13,6.13,0,0,1,1.12.12v2.68a7.84,7.84,0,0,0-1-.08c-4.52,0-6.36,5.08-6.36,9.08v6.28H1014v2.24h-9Z"/><path d="M1020.75,388.05h2.48v1.44c0,2,2.92,2.92,5.24,2.92,2.56,0,4.72-1.12,4.72-3.16,0-2.32-2.56-3.12-5.44-4.2-3-1.12-6.24-2.48-6.24-6,0-3.68,3.6-5.36,7-5.36,2.72,0,6.68,1.16,6.68,3.92v2.32h-2.48v-1.48c0-1.48-2-2.4-4.12-2.4s-4.24,1-4.24,2.92c0,2.2,2.44,3.12,5.08,4.08,3.12,1.12,6.56,2.44,6.56,6s-3.12,5.68-7.6,5.68c-3.72,0-7.6-1.68-7.6-4.76Z"/><path d="M1041,391h3.24v3.32H1041Z"/></svg>