<svg id="Layer_1" data-name="Layer 1" xmlns="http://www.w3.org/2000/svg" viewBox="0 0 1200 1200"><defs><style>.cls-1{fill:#f1f1f1;}.cls-2,.cls-9{fill:none;}.cls-3{fill:#84897b;}.cls-4{fill:#9bb4b0;}.cls-5{fill:#846c59;}.cls-6{fill:#fff;}.cls-7{fill:#ebac52;}.cls-8{fill:#bd543f;}.cls-9{stroke:#fff;stroke-miterlimit:10;stroke-width:2.62px;}</style></defs><rect class="cls-1" width="1200" height="1200"/><path class="cls-2" d="M600.13,442.47A163.56,163.56,0,1,0,703.44,732.75c-6.41-15.56-15.1-28.94-25.89-39.73-21.48-21.48-36.86-30.49-49.21-37.73-8.62-5-15.42-9-22.28-15.89-14.4-14.4-6.36-30.38-6-31.06a35,35,0,0,1,6.3-8.6l3.29-3.29,38.57-38.57,67.49-67.49a163.62,163.62,0,0,1,10.75,219.53A163.37,163.37,0,0,0,600.13,442.47Z"/><path class="cls-3" d="M726.45,709.92A163.62,163.62,0,0,0,715.7,490.39l-67.49,67.49-38.57,38.57-3.29,3.29a35,35,0,0,0-6.3,8.6c-.35.68-8.39,16.66,6,31.06,6.86,6.86,13.66,10.85,22.28,15.89,12.35,7.24,27.73,16.25,49.21,37.73,10.79,10.79,19.48,24.17,25.89,39.73A165.49,165.49,0,0,0,726.45,709.92Z"/><path class="cls-3" d="M484.3,721.79A164.28,164.28,0,0,0,522,750l4.43-2.36c23.8-12.69,35.87-26.18,35.87-40.11,0-16.25-4.36-21.86-9.41-28.35-5.24-6.73-11.18-14.37-11.18-32.26,0-33,49.4-46.53,51.5-47.09l.37-.1-41.83-41.83L484.3,490.39a163.64,163.64,0,0,0,0,231.4Z"/><path class="cls-4" d="M673.33,697.23c-35.74-35.75-53.61-35.75-71.48-53.62-10.61-10.61-11.11-22-9.77-29.56.21-1.19.47-2.28.74-3.26a34.17,34.17,0,0,1,1.08-3.25c.17-.42.32-.78.45-1.07.26-.59.43-.91.43-.91s-1.65.45-4.34,1.35c-.9.3-1.91.66-3,1.06s-2.3.87-3.57,1.38C570,615,547.71,627.1,547.71,646.9c0,32.47,20.59,24.87,20.59,60.61,0,18.48-16.83,33.54-39,45.37a163.75,163.75,0,0,0,169.32-16.31C693.29,723.24,685.33,709.23,673.33,697.23Z"/><polygon class="cls-5" points="602.54 603.55 609.64 596.45 602.54 603.55 602.54 603.55"/><path class="cls-3" d="M587.43,608c1.1-.4,2.11-.76,3-1.06C589.54,607.21,588.53,607.57,587.43,608Z"/><polygon class="cls-3" points="648.21 557.88 715.7 490.39 715.7 490.39 648.21 557.88 648.21 557.88"/><polygon class="cls-6" points="715.7 490.39 715.7 490.39 715.7 490.39 715.7 490.39 715.7 490.39"/><path class="cls-7" d="M643.8,553.86a68.11,68.11,0,0,0-87.6,0l43.8,43.8Z"/><path class="cls-2" d="M556.2,553.86l43.8,43.8,43.8-43.8a68.11,68.11,0,0,0-87.6,0Z"/><path class="cls-2" d="M556.2,553.86l43.8,43.8,43.8-43.8a68.11,68.11,0,0,0-87.6,0Z"/><path class="cls-8" d="M600,532a74.14,74.14,0,0,1,47.63,17.34l.4.33,63.36-63.35a163.51,163.51,0,0,0-222.78,0L552,549.63l.4-.33A74.14,74.14,0,0,1,600,532Z"/><path class="cls-6" d="M705.81,738.6h0l-.27.21Z"/><path class="cls-6" d="M592.82,610.79c-.27,1-.53,2.07-.74,3.26C592.29,612.86,592.55,611.77,592.82,610.79Z"/><path class="cls-6" d="M594.35,606.47c-.13.29-.28.65-.45,1.07C594.07,607.12,594.22,606.76,594.35,606.47Z"/><path class="cls-5" d="M389.71,587.81a5.65,5.65,0,0,0-2.1-1.51,7.42,7.42,0,0,0-2.28-.55,4.83,4.83,0,0,0-2.46.51,7.64,7.64,0,0,0-2.18,1.62,9.22,9.22,0,0,0-1.56,2.64,10.64,10.64,0,0,0-.73,3.33l-.32,5.06,13.19.83.31-5a11,11,0,0,0-.4-4.21A7.8,7.8,0,0,0,389.71,587.81Z"/><path class="cls-5" d="M669.42,407.94a7.62,7.62,0,0,0,3-.71,5.62,5.62,0,0,0,2-1.63,7.3,7.3,0,0,0,1.12-2.05,4.73,4.73,0,0,0,.16-2.51,7.84,7.84,0,0,0-1-2.53,9.49,9.49,0,0,0-2.15-2.2,10.82,10.82,0,0,0-3-1.57l-4.79-1.64-4.27,12.51,4.75,1.61A11,11,0,0,0,669.42,407.94Z"/><polygon class="cls-5" points="677.61 788.16 677.38 795.6 683.03 793.27 677.61 788.16"/><path class="cls-5" d="M600,349.8c-138.07,0-250,112-250,250.2S461.93,850.2,600,850.2s250-112,250-250.2S738.07,349.8,600,349.8ZM770,605.56a170,170,0,1,1-170-170A170,170,0,0,1,770,605.56Z"/><path class="cls-6" d="M403.29,590.76l.67-4.42-26.76-4.08-.68,4.43-5.16-.79,2.48-16.3a24.56,24.56,0,0,1,1.86-6.91c2-3.9,5.73-6.1,10.95-5.31s8.4,4,9.21,8.55H396a5,5,0,0,1,2.21-1.53l8.37-3.09c1-.38,1.39-1.07,1.58-2.31l.18-1.2,5.11.78-.66,4.32c-.46,3.07-1.23,3.91-3.55,4.73l-10.34,3.8c-1.53.57-2.1,1.18-2.43,3.31l-.52,3.38,9.08,1.39.65-4.27,5.12.78-2.37,15.51Zm-11.91-19.6c.55-3.6-1.23-6.26-5.2-6.87-2.4-.36-4.41.23-5.55,2.14a10.57,10.57,0,0,0-1.32,4.06l-.76,5,11.9,1.81Z"/><path class="cls-6" d="M413.47,542l1.59-4.18-25.31-9.63-1.59,4.18-4.88-1.85,5.65-14.87,4.89,1.86-1.61,4.23,25.3,9.63,1.61-4.23L424,529l-5.66,14.86Z"/><path class="cls-6" d="M424,502.14l2.37,1.49c2.06,1.29,4.89-.54,6.76-3.53,2-3.21,2.06-6.36-.49-8-3.22-2-6.51.94-10.24,3.7-4.27,3.23-8.79,6.17-14.47,2.61-6.39-4-5.6-10.73-2.18-16.17,3.13-5,8.22-8.84,11.88-6.54l4.16,2.61-3.33,5.31-2.15-1.34c-1.61-1-3.94.82-5.42,3.18-1.63,2.59-1.9,5.41.52,6.92,2.9,1.83,5.78-.47,9.1-3,4.67-3.66,9.51-7.21,15.45-3.48,6.49,4.07,6.06,11.39,2.31,17.37-3.3,5.26-9.2,9.4-14,6.4l-3.62-2.28Z"/><path class="cls-6" d="M451.7,475.24l3.07-3.26L435.08,453.4,432,456.65l-3.8-3.58,10.92-11.57,3.8,3.59-3.11,3.29L459.5,467l3.11-3.29,3.76,3.55-10.91,11.57Z"/><path class="cls-6" d="M475.27,451.25l3.73-2.48-15-22.56-3.73,2.47-2.88-4.35,9.48-6.29,26.45,11.4a18.46,18.46,0,0,1,2.89,1.89l.13-.09a29.89,29.89,0,0,1-2.13-2.83L484,413l-3.86,2.56-2.89-4.36,13.34-8.84,2.89,4.35-3.73,2.48L507.59,436l-5.76,3.82-26.39-11.32a21.08,21.08,0,0,1-2.89-1.88l-.18.11a24.74,24.74,0,0,1,2.15,2.76L484.75,445l3.87-2.56,2.85,4.31-13.34,8.85Z"/><path class="cls-6" d="M532.27,385c6.37-2,14.75-1.91,16.19,2.61l1.57,4.93-6,1.9-.83-2.62c-.78-2.46-5.05-2.49-8.86-1.28-7.58,2.41-10.77,8.74-8.36,16.33s8.93,11.73,16.81,9.23c2.86-.91,7.94-3.36,7-6.33L548.59,406l-6.47,2.06-1.57-4.93L553,399.17l3.42,10.76c1.73,5.43-7.21,10.37-12.48,12.05-10.94,3.47-21.3-2-24.68-12.65S521.17,388.57,532.27,385Z"/><path class="cls-6" d="M622.18,375.93c4.52.4,14.4,2.86,13.88,8.75l-.44,5-6.25-.55.26-2.89c.24-2.78-4.61-4.16-7.65-4.43-7.19-.64-12.88,3.95-13.57,11.83-.74,8.41,4.23,14.36,11.58,15,2.26.2,8.14,0,8.4-3l.26-2.89,6.24.55-.45,5.1c-.49,5.57-10.25,6.51-15.39,6.06a19.13,19.13,0,0,1-17.76-21.17A18.83,18.83,0,0,1,622.18,375.93Z"/><path class="cls-6" d="M651.44,413.92l4.21,1.53L664.87,390l-4.21-1.52,1.78-4.91,15.5,5.6a24.63,24.63,0,0,1,6.42,3.16c3.44,2.71,4.87,6.82,3.07,11.78s-5.61,7.45-10.17,7.37l0,.1a5.07,5.07,0,0,1,1.07,2.47l1.4,8.81c.18,1.07.78,1.57,2,2l1.14.41L681,430.13l-4.11-1.49c-2.93-1.06-3.6-2-4-4.4l-1.71-10.89c-.26-1.61-.74-2.29-2.77-3l-3.22-1.16-3.13,8.63,4.06,1.47-1.76,4.87-14.76-5.34ZM673,406.06c3.42,1.24,6.38,0,7.75-3.76.82-2.28.63-4.37-1-5.87a10.67,10.67,0,0,0-3.73-2.08l-4.75-1.72L667.15,404Z"/><path class="cls-6" d="M697.36,433.05l3.71,2.49,15.09-22.48-3.72-2.49,2.91-4.34,23,15.46-5.38,8-4.9-3.28,2.29-3.42-8.7-5.84L716,425.72l10.23,6.86-3.09,4.6-10.23-6.86L707,439.08l9.36,6.28,2.35-3.5,4.9,3.28-5.44,8.11-23.71-15.91Z"/><path class="cls-6" d="M734.39,460.37l3,3.29,19.87-18.4-3-3.28,3.83-3.55L777,458.8l-7.09,6.56-4-4.33,3-2.8-7.12-7.69-7.55,7,8.38,9.05-4.07,3.76-8.37-9-7.75,7.17,7.66,8.27,3.1-2.87,4,4.33L750,484.84,730.6,463.89Z"/><path class="cls-6" d="M764.22,495.37l2.16,3.92,23.71-13.08-2.17-3.92,4.58-2.52,7.23,13.09-4.58,2.53-1.73-3.14-8.92,4.92,2,3.65,12.36,1.3-1.55-2.81,4.57-2.53,6.62,12-4.58,2.53-1.63-3-15.21-1.89-.09.05a6.18,6.18,0,0,1-1.28,3.47l-6.37,10.08a2.45,2.45,0,0,0,0,2.8l.84,1.53-4.53,2.49-2.31-4.19c-1.53-2.77-1.32-4-.1-6L781,505a2.74,2.74,0,0,0-.15-3.11l-1.15-2.07-9.93,5.48,2.09,3.78-4.53,2.5-7.59-13.74Z"/><path class="cls-6" d="M791.06,565c13.39-1.82,17.57,15.69,25.57,14.61,3.5-.48,4.94-3.22,4.52-6.36-.59-4.33-5.61-6.36-5.61-6.36l2.61-5.14a13.85,13.85,0,0,1,9.09,11.26c.88,6.53-2.34,12.65-9.35,13.6-11.5,1.56-16-15.38-23.63-14.5L796,584.94l4.71-.64.79,5.85-10.2,1.38-3.48-25.68A18.57,18.57,0,0,1,791.06,565Z"/><path class="cls-6" d="M454.14,764.49l-4.55-4.33,15-15.76-4.7-4.48,4.22-2.75,12.74,12.14-3.38,3.55-4.33-4.13Z"/><path class="cls-6" d="M475.46,782.17c-6.46-4.59-6.86-10.1-1.71-17.36l8-11.25,5.19,3.69-8,11.25c-3.19,4.49-3.65,7.43-.63,9.58s5.72.85,8.89-3.6l8.05-11.32,5.19,3.69-8.05,11.32C487.24,785.42,482,786.8,475.46,782.17Z"/><path class="cls-6" d="M504.85,799.42l-5.59-2.87,9.94-19.36-5.78-3,3.27-3.83,15.66,8-2.24,4.36-5.32-2.73Z"/><path class="cls-6" d="M529.07,809.59l-5.9-2.16L530.66,787l-6.11-2.23,2.78-4.21,16.53,6.06-1.69,4.6-5.62-2.06Z"/><path class="cls-6" d="M555.57,817.26c-7.66-1.61-12.75-7.78-11-16.28s8.91-12.06,16.57-10.45,12.79,7.78,11,16.28S563.24,818.86,555.57,817.26Zm4.6-21.89c-4.09-.85-8.12,1.59-9.24,6.94s1.58,9.21,5.67,10.06,8.09-1.46,9.23-6.89S564.29,796.24,560.17,795.37Z"/><path class="cls-6" d="M609,821.66c-8.26.29-14.45-4.22-14.76-13.16s5.8-13.8,13.89-14.08a17.6,17.6,0,0,1,9.16,2.13l-.25,5.13a14.73,14.73,0,0,0-8.27-2.42c-4.51.16-8.37,3.26-8.17,9s4.06,8.68,8.49,8.53a12.43,12.43,0,0,0,4.1-1l-.33-9.24,6.37-.22.41,11.73A21.51,21.51,0,0,1,609,821.66Z"/><path class="cls-6" d="M627.06,793.14l15.14-2.85.91,4.82-8.88,1.67.92,4.86,6.51-1.23.92,4.86-6.52,1.23,1.28,6.8L649.61,811l-.23,5.07L632,819.34Z"/><path class="cls-6" d="M651.77,787.82l6.05-2,6.75,20.64,9.57-3.13.44,5.07-14.53,4.75Z"/><path class="cls-6" d="M702.21,795.87l-3.73-2.94L689,797.64l.19,4.72L683,805.45l0-30.57.92-.46,24.41,18.4Zm-13.6-3.07,6.24-3.11-6.57-5.38Z"/><path class="cls-6" d="M722.26,783.43l-5.22,3.5-12.13-18.07-5.39,3.63-1.77-4.72L712.37,758,715.1,762l-5,3.33Z"/><path class="cls-6" d="M744,766.55c-5.82,5.25-13.79,5.72-19.61-.73s-4.49-14.3,1.33-19.55,13.82-5.75,19.64.71S749.83,761.31,744,766.55ZM729,750c-3.1,2.79-3.5,7.49.16,11.55s8.37,4.14,11.47,1.35,3.59-7.4-.13-11.52S732.17,747.12,729,750Z"/><path class="cls-9" d="M770.33,716.63a183.88,183.88,0,0,0,38.26-92.81"/><polygon class="cls-6" points="808.01 618.77 814.79 632.79 799.27 631.65 808.01 618.77"/><polygon class="cls-6" points="761.47 718.14 770.2 716.72 771.62 725.45 778.93 715.3 777.5 706.57 768.78 707.99 761.47 718.14"/><path class="cls-9" d="M429.67,716.63a183.88,183.88,0,0,1-38.26-92.81"/><polygon class="cls-6" points="391.99 618.77 385.2 632.79 400.73 631.65 391.99 618.77"/><polygon class="cls-6" points="438.53 718.14 429.8 716.72 428.38 725.45 421.07 715.3 422.5 706.57 431.22 707.99 438.53 718.14"/></svg>