<svg id="Layer_1" data-name="Layer 1" xmlns="http://www.w3.org/2000/svg" viewBox="0 0 1920 1080"><defs><style>.cls-1{fill:#707e8e;}.cls-2{fill:#fff;}.cls-3{isolation:isolate;}.cls-4{fill:#abcb68;}</style></defs><rect class="cls-1" width="1920" height="1080"/><path class="cls-2" d="M555.7,355a5.85,5.85,0,0,1,2.4,4.81,6.53,6.53,0,0,1-1.84,4.48,5.81,5.81,0,0,1-4.48,2,4.32,4.32,0,0,1-2.83-.85,2.64,2.64,0,0,1-.94-2.35,5.74,5.74,0,0,1,1.46-3.92,8.37,8.37,0,0,1,3.92-2.4c0-.57-.43-1.09-1.28-1.56a6.23,6.23,0,0,0-3.06-.71,8,8,0,0,0-5.47,2.46,13.27,13.27,0,0,0-3.3,5.7q-1.34,3.92-3.31,11.56l-1,4.05v.1h11.13l-.57,1.88H535.37l-16.88,63a30.38,30.38,0,0,0-8.49,1.32l17.17-64.33h-8.49l.56-1.88h8.49v-.1A82.28,82.28,0,0,1,532,365.66a25.88,25.88,0,0,1,5.33-7.88,15.86,15.86,0,0,1,5.33-3.44,17.13,17.13,0,0,1,6.46-1.27A10.36,10.36,0,0,1,555.7,355Z"/><path class="cls-2" d="M547.92,397.35a38.84,38.84,0,0,1,9.52-14.43A20.34,20.34,0,0,1,571.87,377q6,0,9.48,3.72t3.44,11.08a44.48,44.48,0,0,1-3.3,16A38.84,38.84,0,0,1,572,422.25a20.35,20.35,0,0,1-14.43,5.9q-6,0-9.48-3.73t-3.45-11.08A44.3,44.3,0,0,1,547.92,397.35ZM562.2,385a50.59,50.59,0,0,0-6.88,15.33,65.06,65.06,0,0,0-2.59,17.68q0,4.24,1.32,6.23a4.53,4.53,0,0,0,4.05,2q4.81,0,9.1-6.13a50.59,50.59,0,0,0,6.89-15.33,65,65,0,0,0,2.59-17.68q0-4.25-1.32-6.23a4.53,4.53,0,0,0-4.05-2Q566.5,378.91,562.2,385Z"/><g class="cls-3"><path class="cls-2" d="M630,378.53a5.24,5.24,0,0,1,1.51,3.87,6.54,6.54,0,0,1-2,4.81,6.33,6.33,0,0,1-4.62,2,4,4,0,0,1-2.73-.89,3.11,3.11,0,0,1-1-2.5,6,6,0,0,1,1.13-3.68,7.43,7.43,0,0,1,3.11-2.36,1.41,1.41,0,0,0-1-.38q-5.1,0-11.09,11t-11.27,29l-1.88,7.46h-8.21l11.32-40.47a12.31,12.31,0,0,0,.66-3.67c0-1.45-.66-2.17-2-2.17a4.9,4.9,0,0,0-3.82,2.21,26.35,26.35,0,0,0-3.54,7.41l-1.23,3.49H591.5l2.36-6.89q3.39-9.71,11.41-9.71,5.38,0,5.38,5.47a33.71,33.71,0,0,1-1.32,7.73l-3,11.88q5.1-13.67,9.57-19.38t10-5.7A5.47,5.47,0,0,1,630,378.53Z"/></g><g class="cls-3"><path class="cls-4" d="M657.61,396.64A78.45,78.45,0,0,1,638,406a42.74,42.74,0,0,0-1,9.15q0,9.06,6.51,9.06,8.12,0,14.53-9.44l1.51.76a29,29,0,0,1-8.16,8.91,18.17,18.17,0,0,1-10.8,3.73q-5.85,0-9.15-3.4t-3.3-9.9q0-7.17,4.2-16.18a46,46,0,0,1,11.36-15.32q7.17-6.33,15.56-6.32a7.69,7.69,0,0,1,5,1.6,5.6,5.6,0,0,1,2,4.62Q666.19,390.89,657.61,396.64Zm-7.22-14.29a39.13,39.13,0,0,0-7,9.39,53,53,0,0,0-4.95,12.45q9-3.12,12.83-6a19,19,0,0,0,5.42-6.65,18.75,18.75,0,0,0,1.94-8.44,9.8,9.8,0,0,0-.38-3.39,1.21,1.21,0,0,0-1.13-.85Q654.13,378.82,650.39,382.35Z"/><path class="cls-4" d="M707.22,387.21a8.74,8.74,0,0,1-2-5.66,4.44,4.44,0,0,1,1.27-3.49,4.31,4.31,0,0,1,6.84,1.42,15.32,15.32,0,0,1,1.32,7,27.76,27.76,0,0,1-.19,3.77,63.32,63.32,0,0,1-5,18.39,38.46,38.46,0,0,1-10.19,14.1,21.92,21.92,0,0,1-14.66,5.43c-4,0-6.79-1.14-8.49-3.4a12.18,12.18,0,0,1-2.26-8.3q.55-7.72,6.46-17.26a94.56,94.56,0,0,1,15.42-18.58,34.3,34.3,0,0,0-5.38,2.83,36.1,36.1,0,0,1-4,2.31,7.17,7.17,0,0,1-3,.8,3.81,3.81,0,0,1-2-.56,8.06,8.06,0,0,0-1.23-.66,5.42,5.42,0,0,0-2.73-1.14,3,3,0,0,0-2.5,1.28,17.14,17.14,0,0,0-2.13,4.57l-1,3.49H670l2.08-6.88q2.64-9.63,8.87-9.62a4.66,4.66,0,0,1,2.07.42,16.56,16.56,0,0,1,2.17,1.37,13.45,13.45,0,0,0,2.17,1.41,4.71,4.71,0,0,0,2.17.47,11.32,11.32,0,0,0,7.92-2.92l.94-1.79,2,.94a88,88,0,0,0-11.88,18.77,58,58,0,0,0-5.09,19.15,19.38,19.38,0,0,0-.1,2.26q0,7.92,4.15,7.92,6.89,0,12.45-5.75a41.64,41.64,0,0,0,8.77-13.82,44.77,44.77,0,0,0,3.49-14.38A14,14,0,0,1,707.22,387.21Z"/><path class="cls-4" d="M748.34,396.64A78.45,78.45,0,0,1,728.72,406a42.71,42.71,0,0,0-1,9.15q0,9.06,6.5,9.06,8.12,0,14.53-9.44l1.51.76a28.91,28.91,0,0,1-8.16,8.91,18.17,18.17,0,0,1-10.8,3.73q-5.85,0-9.15-3.4t-3.3-9.9q0-7.17,4.2-16.18a46,46,0,0,1,11.36-15.32q7.17-6.33,15.56-6.32a7.67,7.67,0,0,1,5,1.6,5.6,5.6,0,0,1,2,4.62Q756.92,390.89,748.34,396.64Zm-7.21-14.29a38.86,38.86,0,0,0-7,9.39,52.64,52.64,0,0,0-5,12.45q9-3.12,12.83-6a19.07,19.07,0,0,0,5.43-6.65,18.88,18.88,0,0,0,1.93-8.44,9.8,9.8,0,0,0-.38-3.39,1.21,1.21,0,0,0-1.13-.85Q744.86,378.82,741.13,382.35Z"/><path class="cls-4" d="M799.46,378.53A5.24,5.24,0,0,1,801,382.4a6.54,6.54,0,0,1-2,4.81,6.33,6.33,0,0,1-4.62,2,4,4,0,0,1-2.74-.89,3.14,3.14,0,0,1-1-2.5,5.93,5.93,0,0,1,1.14-3.68,7.43,7.43,0,0,1,3.11-2.36,1.41,1.41,0,0,0-1-.38q-5.09,0-11.08,11t-11.27,29l-1.89,7.46h-8.2l11.31-40.47a12.31,12.31,0,0,0,.66-3.67c0-1.45-.66-2.17-2-2.17a4.93,4.93,0,0,0-3.82,2.21,26.66,26.66,0,0,0-3.53,7.41l-1.23,3.49H761l2.36-6.89q3.39-9.71,11.41-9.71c3.58,0,5.38,1.82,5.38,5.47a33.85,33.85,0,0,1-1.33,7.73l-3,11.88q5.09-13.67,9.57-19.38t10-5.7A5.51,5.51,0,0,1,799.46,378.53Z"/></g><g class="cls-3"><path class="cls-4" d="M846.4,360.33a34.21,34.21,0,0,1,7.88,4.53,3.47,3.47,0,0,0,1.88.85c.63,0,1.14-.46,1.51-1.37a16,16,0,0,0,.85-4.29h2.17q-.37,6.42-.38,22.82h-2.16a47,47,0,0,0-2.22-10.37,15.31,15.31,0,0,0-4.86-6.7,15.91,15.91,0,0,0-5.56-3.39,19.36,19.36,0,0,0-6.79-1.23,14.72,14.72,0,0,0-11,4.48,27,27,0,0,0-6.46,11.84,59,59,0,0,0-2.08,16.13q0,32.63,18.11,32.63a11,11,0,0,0,6.7-1.89,4.86,4.86,0,0,0,1.74-2,7,7,0,0,0,.52-2.92v-9.24a20.14,20.14,0,0,0-.75-6.46,4.56,4.56,0,0,0-2.69-2.79,20.89,20.89,0,0,0-6.09-.94v-1.89q5.85.28,16.13.29,8.4,0,12.64-.29V400a6.32,6.32,0,0,0-2.73.75,3.26,3.26,0,0,0-1.18,2.17,28.73,28.73,0,0,0-.33,5.19v18.68h-1.89a10.8,10.8,0,0,0-.8-3.68c-.47-1.13-1.12-1.7-1.93-1.7q-1.6,0-5.1,2-8.2,4.72-15.46,4.72-16.32,0-25-8.92t-8.68-25a38.16,38.16,0,0,1,4.39-18.58,31.43,31.43,0,0,1,12.12-12.45,34.85,34.85,0,0,1,17.64-4.43A26.6,26.6,0,0,1,846.4,360.33Z"/><path class="cls-4" d="M934.82,422.68a15.5,15.5,0,0,1-5.47,4.19,17.62,17.62,0,0,1-7.07,1.28c-3.65,0-6.52-.77-8.63-2.31s-3.47-4.17-4.1-7.88l-1.7-9.43a36.25,36.25,0,0,0-3-10.14,6.08,6.08,0,0,0-5.8-3.26H893v21.7a18.36,18.36,0,0,0,.52,5.19,3.27,3.27,0,0,0,1.93,2.17,16.53,16.53,0,0,0,4.62.75v1.89q-5.09-.29-14.24-.29-10.1,0-14.9.29v-1.89a16.82,16.82,0,0,0,4.57-.75,3.24,3.24,0,0,0,2-2.17,18.36,18.36,0,0,0,.52-5.19V370.05a18.36,18.36,0,0,0-.52-5.19,3.24,3.24,0,0,0-2-2.17,16.06,16.06,0,0,0-4.57-.75v-1.89q4.8.29,14.33.28l10.47-.09c1.26-.06,2.71-.1,4.34-.1q13,0,19.57,4.25a13.64,13.64,0,0,1,6.56,12.16,16.47,16.47,0,0,1-4.91,11.79q-4.9,5.1-16.22,6.42,8.49.75,12.64,3.68a13.58,13.58,0,0,1,5.37,8.77l2.17,9.71A16.16,16.16,0,0,0,927,422.2a3.14,3.14,0,0,0,2.78,1.51,4.56,4.56,0,0,0,1.94-.56,8.72,8.72,0,0,0,1.83-1.61ZM895.07,362.6a3.61,3.61,0,0,0-1.65,2.35,20.25,20.25,0,0,0-.47,5.1v23.2h4q7.74,0,10.61-4.1t2.88-11.56q0-7.72-2.73-11.69t-9-4A8,8,0,0,0,895.07,362.6Z"/><path class="cls-4" d="M988.49,426.83q-6.42-.29-21.6-.29-20.57,0-30.75.29v-1.89a16.9,16.9,0,0,0,4.58-.75,3.29,3.29,0,0,0,2-2.17,18.74,18.74,0,0,0,.52-5.19V370.05a18.74,18.74,0,0,0-.52-5.19,3.29,3.29,0,0,0-2-2.17,16.15,16.15,0,0,0-4.58-.75v-1.89q10.18.29,30.75.28,13.86,0,19.71-.28-.66,7.83-.66,14a54.48,54.48,0,0,0,.29,6.41h-2.17q-1.42-10.1-5.1-14.15t-10.37-4h-3.87a13.86,13.86,0,0,0-4.24.47,2.81,2.81,0,0,0-1.79,1.84,14.39,14.39,0,0,0-.48,4.38v23.4h3a8.73,8.73,0,0,0,7.6-3.68,23.35,23.35,0,0,0,3.63-8.77h2.17q-.28,4-.29,8.86v4.53q0,4.81.57,13.39h-2.17q-2-12.45-11.51-12.45h-3V418a14.46,14.46,0,0,0,.48,4.39,2.83,2.83,0,0,0,1.79,1.84,13.86,13.86,0,0,0,4.24.47h4.62a13.8,13.8,0,0,0,10.8-4.58q4.11-4.57,5.8-15.51h2.17q-.29,3.1-.28,7.92A127.84,127.84,0,0,0,988.49,426.83Z"/><path class="cls-4" d="M1048.29,426.83q-6.42-.29-21.6-.29-20.57,0-30.75.29v-1.89a16.82,16.82,0,0,0,4.57-.75,3.24,3.24,0,0,0,2-2.17,18.36,18.36,0,0,0,.52-5.19V370.05a18.36,18.36,0,0,0-.52-5.19,3.24,3.24,0,0,0-2-2.17,16.06,16.06,0,0,0-4.57-.75v-1.89q10.18.29,30.75.28,13.86,0,19.71-.28-.66,7.83-.66,14a54.9,54.9,0,0,0,.28,6.41h-2.17q-1.41-10.1-5.09-14.15t-10.37-4h-3.87a13.93,13.93,0,0,0-4.25.47,2.83,2.83,0,0,0-1.79,1.84,14.79,14.79,0,0,0-.47,4.38v23.4h3a8.71,8.71,0,0,0,7.59-3.68,23,23,0,0,0,3.63-8.77h2.17q-.29,4-.28,8.86v4.53q0,4.81.56,13.39h-2.16q-2-12.45-11.51-12.45h-3V418a14.87,14.87,0,0,0,.47,4.39,2.85,2.85,0,0,0,1.79,1.84,13.93,13.93,0,0,0,4.25.47h4.62a13.83,13.83,0,0,0,10.8-4.58q4.1-4.57,5.8-15.51h2.17q-.29,3.1-.28,7.92A127.84,127.84,0,0,0,1048.29,426.83Z"/><path class="cls-4" d="M1117.89,361.94a9.88,9.88,0,0,0-4.57,1.6,5.81,5.81,0,0,0-2,3.58,37.48,37.48,0,0,0-.52,7.26V427l-2.27-.09L1106,427l-40.94-51.87v36.22a41.86,41.86,0,0,0,.57,8.16,5.61,5.61,0,0,0,2.45,3.77,15.17,15.17,0,0,0,6.13,1.65v1.89c-2.45-.19-5.85-.29-10.18-.29q-5.19,0-8.21.29v-1.89a10,10,0,0,0,4.58-1.6,5.93,5.93,0,0,0,2-3.59,38.33,38.33,0,0,0,.51-7.26V370.05a18.83,18.83,0,0,0-.51-5.19,3.29,3.29,0,0,0-2-2.17,16.15,16.15,0,0,0-4.58-.75v-1.89q3,.29,8.21.28,4.71,0,8.11-.28l36.5,45V375.52a41.86,41.86,0,0,0-.57-8.16,5.56,5.56,0,0,0-2.45-3.77,15.17,15.17,0,0,0-6.13-1.65v-1.89q3.68.29,10.19.28,5.28,0,8.2-.28Z"/></g><g class="cls-3"><path class="cls-2" d="M1200.32,362.69a3.28,3.28,0,0,0-1.94,2.17,18.83,18.83,0,0,0-.51,5.19v46.78a18.83,18.83,0,0,0,.51,5.19,3.29,3.29,0,0,0,2,2.17,16.9,16.9,0,0,0,4.58.75v1.89q-5.19-.29-14.81-.29-10.1,0-14.9.29v-1.89a19.36,19.36,0,0,0,5-.75,3.37,3.37,0,0,0,2.12-2.17,16.94,16.94,0,0,0,.57-5.19V367.5l-22.73,59.42h-1.51l-25.47-60.74v45.18a41.86,41.86,0,0,0,.57,8.16,5.61,5.61,0,0,0,2.45,3.77,15.17,15.17,0,0,0,6.13,1.65v1.89c-2.45-.19-5.85-.29-10.18-.29q-5.19,0-8.21.29v-1.89a10,10,0,0,0,4.58-1.6,5.93,5.93,0,0,0,2-3.59,38.33,38.33,0,0,0,.51-7.26V370.05a18.83,18.83,0,0,0-.51-5.19,3.29,3.29,0,0,0-2-2.17,16.15,16.15,0,0,0-4.58-.75v-1.89q3,.29,8.21.28,8.67,0,14.9-.28l19,45.93,17.35-45.65h6.7q9.63,0,14.81-.28v1.89A15.81,15.81,0,0,0,1200.32,362.69Z"/><path class="cls-2" d="M1261.29,362.78a28.38,28.38,0,0,1,11.65,11.75q4.15,7.68,4.15,18.34a38.68,38.68,0,0,1-4.24,18.39A30.7,30.7,0,0,1,1261,423.71a33.64,33.64,0,0,1-17.31,4.44,36.26,36.26,0,0,1-17.49-4.06,28.29,28.29,0,0,1-11.65-11.74q-4.15-7.69-4.15-18.35a38.73,38.73,0,0,1,4.24-18.39,30.83,30.83,0,0,1,11.84-12.45,33.73,33.73,0,0,1,17.31-4.43A36.26,36.26,0,0,1,1261.29,362.78Zm-27,1.84q-4,4.2-6.08,11.75a63.66,63.66,0,0,0-2.12,17.26,56.36,56.36,0,0,0,2.4,17.26q2.4,7.44,6.51,11.5a12.66,12.66,0,0,0,9.1,4.06,12.23,12.23,0,0,0,9.15-4.2q4-4.2,6.08-11.74a63.64,63.64,0,0,0,2.13-17.26A56.34,56.34,0,0,0,1259,376q-2.4-7.46-6.51-11.51a12.69,12.69,0,0,0-9.1-4.05A12.26,12.26,0,0,0,1234.27,364.62Z"/></g><path class="cls-2" d="M1346.73,361.94a9.93,9.93,0,0,0-4.58,1.6,5.9,5.9,0,0,0-2,3.58,38.3,38.3,0,0,0-.52,7.26V427l-2.26-.09-2.55.09-40.93-51.87v36.22a41.86,41.86,0,0,0,.57,8.16,5.58,5.58,0,0,0,2.45,3.77,15.12,15.12,0,0,0,6.13,1.65v1.89q-3.68-.29-10.19-.29-5.19,0-8.2.29v-1.89a10,10,0,0,0,4.57-1.6,5.88,5.88,0,0,0,2-3.59,37.34,37.34,0,0,0,.52-7.26V370.05a18.36,18.36,0,0,0-.52-5.19,3.26,3.26,0,0,0-2-2.17,16.06,16.06,0,0,0-4.57-.75v-1.89q3,.29,8.2.28,4.73,0,8.11-.28l36.5,45V375.52a42,42,0,0,0-.56-8.16,5.62,5.62,0,0,0-2.45-3.77,15.22,15.22,0,0,0-6.13-1.65v-1.89q3.67.29,10.18.28,5.28,0,8.21-.28Z"/><path class="cls-2" d="M1409.34,376.08q0,4.44.28,7.17h-2.17q-2.27-11.6-6.17-16.32a13.18,13.18,0,0,0-10.71-4.71h-2.17v53.85a15.26,15.26,0,0,0,.8,5.76,4.31,4.31,0,0,0,2.83,2.4,26.17,26.17,0,0,0,6.46.71v1.89q-11.88-.29-17.92-.29t-17.26.29v-1.89a26.11,26.11,0,0,0,6.46-.71,4.29,4.29,0,0,0,2.83-2.4,15.06,15.06,0,0,0,.8-5.76V362.22h-2.07a14.21,14.21,0,0,0-7.69,2,15.58,15.58,0,0,0-5.42,6.55,52.37,52.37,0,0,0-3.87,12.5h-2.17q.28-2.73.29-7.17c0-4.71-.23-10.06-.66-16q8.58.29,29.14.28t29-.28Q1409.34,369,1409.34,376.08Z"/></svg>