<svg id="Layer_1" data-name="Layer 1" xmlns="http://www.w3.org/2000/svg" viewBox="0 0 1200 1200"><defs><style>.cls-1{isolation:isolate;}.cls-2{fill:#707e8e;}.cls-3{fill:#abcb68;}</style></defs><g class="cls-1"><path class="cls-2" d="M195.7,556.14a5.86,5.86,0,0,1,2.4,4.81,6.49,6.49,0,0,1-1.84,4.48,5.79,5.79,0,0,1-4.48,2,4.32,4.32,0,0,1-2.83-.85,2.65,2.65,0,0,1-.94-2.36,5.72,5.72,0,0,1,1.46-3.91,8.47,8.47,0,0,1,3.92-2.41c0-.56-.43-1.08-1.28-1.55a6.23,6.23,0,0,0-3.06-.71,8,8,0,0,0-5.47,2.45,13.38,13.38,0,0,0-3.3,5.71q-1.34,3.92-3.31,11.55l-1,4.06v.09h11.13l-.57,1.89H175.37l-16.88,63a31.13,31.13,0,0,0-8.49,1.32l17.17-64.32h-8.49l.56-1.89h8.49v-.09A81.9,81.9,0,0,1,172,566.85a25.76,25.76,0,0,1,5.33-7.88,15.86,15.86,0,0,1,5.33-3.44,17.13,17.13,0,0,1,6.46-1.27A10.36,10.36,0,0,1,195.7,556.14Z"/><path class="cls-2" d="M187.92,598.54a38.84,38.84,0,0,1,9.52-14.43,20.35,20.35,0,0,1,14.43-5.9q6,0,9.48,3.73T224.79,593a44.48,44.48,0,0,1-3.3,16A38.84,38.84,0,0,1,212,623.44a20.34,20.34,0,0,1-14.43,5.89q-6,0-9.48-3.72t-3.45-11.08A44.3,44.3,0,0,1,187.92,598.54Zm14.28-12.31a50.59,50.59,0,0,0-6.88,15.33,65,65,0,0,0-2.59,17.68q0,4.25,1.32,6.23a4.53,4.53,0,0,0,4,2q4.82,0,9.1-6.13A50.59,50.59,0,0,0,214.09,606a65.07,65.07,0,0,0,2.59-17.69q0-4.24-1.32-6.22a4.53,4.53,0,0,0-4.05-2Q206.5,580.1,202.2,586.23Z"/><g class="cls-1"><path class="cls-2" d="M270,579.72a5.24,5.24,0,0,1,1.51,3.87,6.56,6.56,0,0,1-2,4.81,6.33,6.33,0,0,1-4.62,2,4,4,0,0,1-2.73-.9,3.09,3.09,0,0,1-1-2.5,6,6,0,0,1,1.13-3.67,7.35,7.35,0,0,1,3.11-2.36,1.41,1.41,0,0,0-1-.38q-5.1,0-11.09,11t-11.27,29L240.09,628h-8.21l11.32-40.46a12.31,12.31,0,0,0,.66-3.68c0-1.44-.66-2.17-2-2.17a4.89,4.89,0,0,0-3.82,2.22,26.4,26.4,0,0,0-3.54,7.4l-1.23,3.49H231.5l2.36-6.88q3.39-9.72,11.41-9.72c3.59,0,5.38,1.83,5.38,5.47a33.86,33.86,0,0,1-1.32,7.74l-3,11.88q5.1-13.68,9.57-19.38t10.05-5.71A5.48,5.48,0,0,1,270,579.72Z"/></g><g class="cls-1"><path class="cls-3" d="M297.61,597.83A78.45,78.45,0,0,1,278,607.17a42.6,42.6,0,0,0-1,9.15q0,9,6.51,9,8.12,0,14.53-9.43l1.51.75a29.18,29.18,0,0,1-8.16,8.92,18.16,18.16,0,0,1-10.8,3.72q-5.85,0-9.15-3.39t-3.3-9.91q0-7.15,4.2-16.17a46,46,0,0,1,11.36-15.33q7.17-6.31,15.56-6.32a7.69,7.69,0,0,1,5,1.61,5.6,5.6,0,0,1,2,4.62Q306.19,592.07,297.61,597.83Zm-7.22-14.29a39.13,39.13,0,0,0-7,9.39,53,53,0,0,0-5,12.45q9-3.12,12.83-6a19,19,0,0,0,5.42-6.65,18.78,18.78,0,0,0,1.94-8.44,9.91,9.91,0,0,0-.38-3.4,1.22,1.22,0,0,0-1.13-.85Q294.13,580,290.39,583.54Z"/><path class="cls-3" d="M347.22,588.4a8.76,8.76,0,0,1-2-5.66,4.43,4.43,0,0,1,1.27-3.49,4.31,4.31,0,0,1,6.84,1.41,15.35,15.35,0,0,1,1.32,7,27.82,27.82,0,0,1-.19,3.78,63.49,63.49,0,0,1-5,18.39,38.62,38.62,0,0,1-10.19,14.1,21.91,21.91,0,0,1-14.66,5.42q-5.94,0-8.49-3.39a12.2,12.2,0,0,1-2.26-8.3q.56-7.74,6.46-17.26a94.27,94.27,0,0,1,15.42-18.58,34.3,34.3,0,0,0-5.38,2.83,39.56,39.56,0,0,1-4.05,2.31,7.32,7.32,0,0,1-3,.8,3.73,3.73,0,0,1-2-.57,10.61,10.61,0,0,0-1.23-.66,5.48,5.48,0,0,0-2.73-1.13,3,3,0,0,0-2.5,1.27,17.24,17.24,0,0,0-2.13,4.58l-1,3.49H310l2.08-6.89q2.64-9.62,8.87-9.62a4.52,4.52,0,0,1,2.07.43,17.43,17.43,0,0,1,2.17,1.36,13.6,13.6,0,0,0,2.17,1.42,4.84,4.84,0,0,0,2.17.47,11.32,11.32,0,0,0,7.92-2.92l.94-1.79,2,.94a87.8,87.8,0,0,0-11.88,18.77A57.93,57.93,0,0,0,323.36,616a19.57,19.57,0,0,0-.1,2.27q0,7.92,4.15,7.92,6.88,0,12.45-5.75a41.75,41.75,0,0,0,8.77-13.82,44.83,44.83,0,0,0,3.49-14.38A14.24,14.24,0,0,1,347.22,588.4Z"/><path class="cls-3" d="M388.34,597.83a78.45,78.45,0,0,1-19.62,9.34,42.57,42.57,0,0,0-1,9.15q0,9,6.5,9,8.12,0,14.53-9.43l1.51.75a29.05,29.05,0,0,1-8.16,8.92,18.16,18.16,0,0,1-10.8,3.72q-5.85,0-9.15-3.39t-3.3-9.91q0-7.15,4.2-16.17a46,46,0,0,1,11.36-15.33q7.17-6.31,15.56-6.32a7.67,7.67,0,0,1,5,1.61,5.6,5.6,0,0,1,2,4.62Q396.92,592.07,388.34,597.83Zm-7.21-14.29a38.86,38.86,0,0,0-7,9.39,52.64,52.64,0,0,0-5,12.45q9-3.12,12.83-6a18.91,18.91,0,0,0,7.36-15.09,9.91,9.91,0,0,0-.38-3.4,1.22,1.22,0,0,0-1.13-.85Q384.86,580,381.13,583.54Z"/><path class="cls-3" d="M439.46,579.72a5.24,5.24,0,0,1,1.51,3.87,6.56,6.56,0,0,1-2,4.81,6.33,6.33,0,0,1-4.62,2,4,4,0,0,1-2.74-.9,3.12,3.12,0,0,1-1-2.5,5.9,5.9,0,0,1,1.14-3.67,7.35,7.35,0,0,1,3.11-2.36,1.41,1.41,0,0,0-1-.38q-5.08,0-11.08,11t-11.27,29L409.56,628h-8.2l11.31-40.46a12.31,12.31,0,0,0,.66-3.68c0-1.44-.66-2.17-2-2.17a4.92,4.92,0,0,0-3.82,2.22,26.72,26.72,0,0,0-3.53,7.4l-1.23,3.49H401l2.36-6.88q3.39-9.72,11.41-9.72c3.58,0,5.38,1.83,5.38,5.47a34,34,0,0,1-1.33,7.74l-3,11.88q5.08-13.68,9.57-19.38t10-5.71A5.52,5.52,0,0,1,439.46,579.72Z"/></g><g class="cls-1"><path class="cls-3" d="M486.4,561.52a34.21,34.21,0,0,1,7.88,4.53,3.44,3.44,0,0,0,1.88.84c.63,0,1.14-.45,1.51-1.36a16,16,0,0,0,.85-4.29h2.17q-.37,6.4-.38,22.82h-2.16a47,47,0,0,0-2.22-10.37,15.2,15.2,0,0,0-4.86-6.7,15.93,15.93,0,0,0-5.56-3.4,19.58,19.58,0,0,0-6.79-1.22,14.72,14.72,0,0,0-11,4.48,26.91,26.91,0,0,0-6.46,11.83,59,59,0,0,0-2.08,16.13q0,32.64,18.11,32.64a11,11,0,0,0,6.7-1.89,5,5,0,0,0,1.74-2,7,7,0,0,0,.52-2.92v-9.25a20.19,20.19,0,0,0-.75-6.46,4.55,4.55,0,0,0-2.69-2.78,20.55,20.55,0,0,0-6.09-.94v-1.89q5.85.28,16.13.28,8.4,0,12.64-.28v1.89a6.05,6.05,0,0,0-2.73.75,3.26,3.26,0,0,0-1.18,2.17,28.73,28.73,0,0,0-.33,5.19V628h-1.89a10.85,10.85,0,0,0-.8-3.68c-.47-1.13-1.12-1.69-1.93-1.69q-1.61,0-5.1,2-8.21,4.71-15.46,4.71-16.32,0-25-8.91t-8.68-25a38.14,38.14,0,0,1,4.39-18.58,31.3,31.3,0,0,1,12.12-12.45,34.76,34.76,0,0,1,17.64-4.44A26.58,26.58,0,0,1,486.4,561.52Z"/><path class="cls-3" d="M574.82,623.86a15.53,15.53,0,0,1-5.47,4.2,17.63,17.63,0,0,1-7.07,1.27c-3.65,0-6.52-.77-8.63-2.31s-3.47-4.16-4.1-7.87l-1.7-9.44a36.16,36.16,0,0,0-3-10.13,6.08,6.08,0,0,0-5.8-3.26H533V618a18.36,18.36,0,0,0,.52,5.19,3.27,3.27,0,0,0,1.93,2.17,16.09,16.09,0,0,0,4.62.76V628q-5.09-.28-14.24-.28-10.1,0-14.9.28v-1.88a16.36,16.36,0,0,0,4.57-.76,3.24,3.24,0,0,0,2-2.17A18.36,18.36,0,0,0,518,618V571.23a18.28,18.28,0,0,0-.52-5.18,3.22,3.22,0,0,0-2-2.17,16.36,16.36,0,0,0-4.57-.76v-1.88q4.8.27,14.33.28l10.47-.1c1.26-.06,2.71-.09,4.34-.09q13,0,19.57,4.24a13.66,13.66,0,0,1,6.56,12.17,16.47,16.47,0,0,1-4.91,11.79q-4.9,5.1-16.22,6.41,8.49.76,12.64,3.68a13.61,13.61,0,0,1,5.37,8.77l2.17,9.72a16.24,16.24,0,0,0,1.75,5.28,3.14,3.14,0,0,0,2.78,1.51,4.42,4.42,0,0,0,1.94-.57,8.34,8.34,0,0,0,1.83-1.6Zm-39.75-60.08a3.63,3.63,0,0,0-1.65,2.36,20.16,20.16,0,0,0-.47,5.09v23.21h4q7.74,0,10.61-4.11t2.88-11.55q0-7.74-2.73-11.7t-9-4A8,8,0,0,0,535.07,563.78Z"/><path class="cls-3" d="M628.49,628q-6.42-.28-21.6-.28-20.57,0-30.75.28v-1.88a16.44,16.44,0,0,0,4.58-.76,3.29,3.29,0,0,0,2-2.17,18.74,18.74,0,0,0,.52-5.19V571.23a18.66,18.66,0,0,0-.52-5.18,3.27,3.27,0,0,0-2-2.17,16.44,16.44,0,0,0-4.58-.76v-1.88q10.18.27,30.75.28,13.86,0,19.71-.28c-.44,5.21-.66,9.87-.66,14a54.67,54.67,0,0,0,.29,6.42h-2.17q-1.42-10.1-5.1-14.15t-10.37-4.06h-3.87a13.48,13.48,0,0,0-4.24.48,2.79,2.79,0,0,0-1.79,1.84,14.39,14.39,0,0,0-.48,4.38v23.39h3a8.7,8.7,0,0,0,7.6-3.68,23.21,23.21,0,0,0,3.63-8.77h2.17q-.28,4-.29,8.87v4.53q0,4.8.57,13.39h-2.17q-2-12.45-11.51-12.45h-3v23.77a14.39,14.39,0,0,0,.48,4.38,2.81,2.81,0,0,0,1.79,1.84,13.55,13.55,0,0,0,4.24.47h4.62a13.79,13.79,0,0,0,10.8-4.57q4.11-4.57,5.8-15.52h2.17q-.29,3.12-.28,7.93A127.64,127.64,0,0,0,628.49,628Z"/><path class="cls-3" d="M688.29,628q-6.42-.28-21.6-.28-20.57,0-30.75.28v-1.88a16.36,16.36,0,0,0,4.57-.76,3.24,3.24,0,0,0,2-2.17A18.36,18.36,0,0,0,643,618V571.23a18.28,18.28,0,0,0-.52-5.18,3.22,3.22,0,0,0-2-2.17,16.36,16.36,0,0,0-4.57-.76v-1.88q10.18.27,30.75.28,13.86,0,19.71-.28c-.44,5.21-.66,9.87-.66,14a55.1,55.1,0,0,0,.28,6.42h-2.17q-1.41-10.1-5.09-14.15t-10.37-4.06h-3.87a13.56,13.56,0,0,0-4.25.48,2.81,2.81,0,0,0-1.79,1.84,14.79,14.79,0,0,0-.47,4.38v23.39h3a8.68,8.68,0,0,0,7.59-3.68,22.89,22.89,0,0,0,3.63-8.77h2.17q-.28,4-.28,8.87v4.53q0,4.8.56,13.39h-2.16q-2-12.45-11.51-12.45h-3v23.77a14.79,14.79,0,0,0,.47,4.38,2.83,2.83,0,0,0,1.79,1.84,13.62,13.62,0,0,0,4.25.47h4.62a13.82,13.82,0,0,0,10.8-4.57q4.09-4.57,5.8-15.52h2.17q-.28,3.12-.28,7.93A127.64,127.64,0,0,0,688.29,628Z"/><path class="cls-3" d="M757.89,563.12a10,10,0,0,0-4.57,1.61,5.78,5.78,0,0,0-2,3.58,37.34,37.34,0,0,0-.52,7.26V628.2l-2.27-.09-2.54.09-40.94-51.87v36.21a41.79,41.79,0,0,0,.57,8.16,5.63,5.63,0,0,0,2.45,3.78,15.5,15.5,0,0,0,6.13,1.65V628c-2.45-.19-5.85-.28-10.18-.28q-5.19,0-8.21.28v-1.88a10,10,0,0,0,4.58-1.61,5.9,5.9,0,0,0,2-3.58,38.47,38.47,0,0,0,.51-7.26V571.23a18.75,18.75,0,0,0-.51-5.18,3.27,3.27,0,0,0-2-2.17,16.44,16.44,0,0,0-4.58-.76v-1.88c2,.18,4.75.28,8.21.28,3.14,0,5.84-.1,8.11-.28l36.5,45V576.7a41.86,41.86,0,0,0-.57-8.16,5.6,5.6,0,0,0-2.45-3.77,15.5,15.5,0,0,0-6.13-1.65v-1.88c2.45.18,5.85.28,10.19.28,3.52,0,6.25-.1,8.2-.28Z"/></g><g class="cls-1"><path class="cls-2" d="M840.32,563.88a3.26,3.26,0,0,0-1.94,2.17,18.75,18.75,0,0,0-.51,5.18V618a18.83,18.83,0,0,0,.51,5.19,3.29,3.29,0,0,0,2,2.17,16.44,16.44,0,0,0,4.58.76V628q-5.19-.28-14.81-.28-10.1,0-14.9.28v-1.88a18.84,18.84,0,0,0,4.95-.76,3.37,3.37,0,0,0,2.12-2.17,16.94,16.94,0,0,0,.57-5.19V568.69l-22.73,59.42h-1.51l-25.47-60.74v45.17a41.79,41.79,0,0,0,.57,8.16,5.63,5.63,0,0,0,2.45,3.78,15.5,15.5,0,0,0,6.13,1.65V628c-2.45-.19-5.85-.28-10.18-.28q-5.19,0-8.21.28v-1.88a10,10,0,0,0,4.58-1.61,5.9,5.9,0,0,0,2-3.58,38.47,38.47,0,0,0,.51-7.26V571.23a18.75,18.75,0,0,0-.51-5.18,3.27,3.27,0,0,0-2-2.17,16.44,16.44,0,0,0-4.58-.76v-1.88c2,.18,4.75.28,8.21.28q8.67,0,14.9-.28l19.05,45.93,17.35-45.65h6.7q9.63,0,14.81-.28v1.88A16.09,16.09,0,0,0,840.32,563.88Z"/><path class="cls-2" d="M901.29,564a28.35,28.35,0,0,1,11.65,11.74q4.15,7.69,4.15,18.35a38.68,38.68,0,0,1-4.24,18.39A30.77,30.77,0,0,1,901,624.9a33.63,33.63,0,0,1-17.31,4.43,36.26,36.26,0,0,1-17.49-4.05,28.32,28.32,0,0,1-11.65-11.75q-4.15-7.68-4.15-18.34a38.68,38.68,0,0,1,4.24-18.39,30.7,30.7,0,0,1,11.84-12.45,33.64,33.64,0,0,1,17.31-4.44A36.26,36.26,0,0,1,901.29,564Zm-27,1.84q-4,4.2-6.08,11.74a63.71,63.71,0,0,0-2.12,17.26,56.31,56.31,0,0,0,2.4,17.26q2.4,7.45,6.51,11.51a12.7,12.7,0,0,0,9.1,4.06,12.23,12.23,0,0,0,9.15-4.2q4-4.2,6.08-11.74a63.69,63.69,0,0,0,2.13-17.26A56.3,56.3,0,0,0,899,577.18q-2.4-7.45-6.51-11.51a12.7,12.7,0,0,0-9.1-4.06A12.23,12.23,0,0,0,874.27,565.81Z"/></g><path class="cls-2" d="M986.73,563.12a10,10,0,0,0-4.58,1.61,5.87,5.87,0,0,0-2,3.58,38.16,38.16,0,0,0-.52,7.26V628.2l-2.26-.09-2.55.09-40.93-51.87v36.21a41.79,41.79,0,0,0,.57,8.16,5.6,5.6,0,0,0,2.45,3.78,15.45,15.45,0,0,0,6.13,1.65V628q-3.67-.28-10.19-.28-5.19,0-8.2.28v-1.88a10,10,0,0,0,4.57-1.61,5.85,5.85,0,0,0,2-3.58,37.48,37.48,0,0,0,.52-7.26V571.23a18.28,18.28,0,0,0-.52-5.18,3.24,3.24,0,0,0-2-2.17,16.36,16.36,0,0,0-4.57-.76v-1.88c2,.18,4.74.28,8.2.28,3.15,0,5.85-.1,8.11-.28l36.5,45V576.7a42,42,0,0,0-.56-8.16,5.67,5.67,0,0,0-2.45-3.77,15.55,15.55,0,0,0-6.13-1.65v-1.88c2.45.18,5.84.28,10.18.28,3.52,0,6.26-.1,8.21-.28Z"/><path class="cls-2" d="M1049.34,577.27c0,3,.09,5.34.28,7.17h-2.17q-2.27-11.61-6.17-16.32a13.19,13.19,0,0,0-10.71-4.72h-2.17v53.86a15.16,15.16,0,0,0,.8,5.75,4.3,4.3,0,0,0,2.83,2.41,26.68,26.68,0,0,0,6.46.71V628q-11.88-.28-17.92-.28t-17.26.28v-1.88a26.61,26.61,0,0,0,6.46-.71,4.28,4.28,0,0,0,2.83-2.41,15,15,0,0,0,.8-5.75V563.4h-2.07a14.13,14.13,0,0,0-7.69,2,15.58,15.58,0,0,0-5.42,6.55,52.37,52.37,0,0,0-3.87,12.5h-2.17c.19-1.83.29-4.21.29-7.17,0-4.72-.23-10.06-.66-16q8.58.27,29.14.28t29-.28Q1049.34,570.2,1049.34,577.27Z"/></g></svg>