<svg id="Layer_1" data-name="Layer 1" xmlns="http://www.w3.org/2000/svg" viewBox="0 0 1920 540"><defs><style>.cls-1{fill:#81bccf;}.cls-2{fill:#837260;}.cls-3{fill:#7fae65;}.cls-4{fill:#3e3b39;}</style></defs><path class="cls-1" d="M941.24,188l1.7.54Z"/><path class="cls-1" d="M1001.85,269.93a85.81,85.81,0,0,0-2.56-20.86,86,86,0,0,1,2.56,20.9Z"/><path class="cls-1" d="M939.17,187.4l1.82.53Z"/><path class="cls-1" d="M1001.81,272.57c0,.36,0,.72,0,1.09C1001.78,273.29,1001.79,272.93,1001.81,272.57Z"/><path class="cls-1" d="M998.21,245.15c.18.6.35,1.2.52,1.81C998.56,246.35,998.39,245.75,998.21,245.15Z"/><path class="cls-1" d="M993.74,233.51c.24.51.47,1,.7,1.54C994.21,234.53,994,234,993.74,233.51Z"/><path class="cls-1" d="M1001.85,270.08q0,.89,0,1.77Q1001.85,271,1001.85,270.08Z"/><path class="cls-1" d="M998.77,247.1q.27,1,.51,2Q999,248.08,998.77,247.1Z"/><path class="cls-1" d="M996.22,239.32c.19.5.37,1,.56,1.51C996.59,240.33,996.41,239.82,996.22,239.32Z"/><path class="cls-1" d="M947.27,190.1l1.48.59Z"/><path class="cls-1" d="M945.3,189.36l1.52.56Z"/><path class="cls-1" d="M996.93,241.26c.19.53.37,1.05.54,1.58C997.3,242.31,997.12,241.79,996.93,241.26Z"/><path class="cls-1" d="M997.59,243.2c.19.56.37,1.12.54,1.69C998,244.32,997.78,243.76,997.59,243.2Z"/><path class="cls-1" d="M994.62,235.45c.22.49.43,1,.64,1.48C995.05,236.43,994.84,235.94,994.62,235.45Z"/><path class="cls-1" d="M943.29,188.66c.53.17,1.06.36,1.59.54C944.35,189,943.82,188.83,943.29,188.66Z"/><path class="cls-1" d="M952.91,192.53l1.66.81Z"/><path class="cls-1" d="M1001.67,275.49c0-.07,0-.13,0-.2S1001.67,275.42,1001.67,275.49Z"/><path class="cls-1" d="M992.72,231.42a86,86,0,0,0-38-38,86.52,86.52,0,0,1,38,38Z"/><path class="cls-1" d="M916.21,184.29h-.05a86.14,86.14,0,0,1,20.91,2.56A85.93,85.93,0,0,0,916.21,184.29Z"/><path class="cls-1" d="M995.45,237.39c.2.48.39,1,.59,1.47C995.84,238.36,995.65,237.87,995.45,237.39Z"/><path class="cls-1" d="M914.78,184.3h0Z"/><path class="cls-1" d="M937.08,186.85c.65.16,1.31.34,1.95.51Q938.07,187.09,937.08,186.85Z"/><path class="cls-1" d="M913.57,184.33l.54,0Z"/><path class="cls-1" d="M861.1,205.4a25.76,25.76,0,0,1,3.93-1.7h0c.4-.14.81-.27,1.22-.38l.37-.1c.31-.09.61-.16.92-.23l.38-.09c.38-.08.76-.16,1.15-.22l.11,0c.42-.07.85-.13,1.27-.18l.37,0,.94-.07.39,0c.37,0,.73,0,1.1,0h.23c.3,0,.6,0,.89,0h.47l.69,0c.23,0,.47,0,.7.06a25,25,0,0,1,6.83,1.73,23.55,23.55,0,0,1,2.54,1.2c.41.22.82.45,1.22.7l1.19.74,1.12.85.42.33.31.24.36.3.51.48.51.48a9.36,9.36,0,0,1,1,1c.32.35.63.72.94,1.07.16.18.3.38.44.57s.27.39.41.59a11.59,11.59,0,0,1,.78,1.19l.35.62.35.62c.22.43.4.87.59,1.3l.29.66.22.67c.15.45.31.9.44,1.35a24.07,24.07,0,0,1,.53,2.79,19,19,0,0,1,.18,2.82,21.36,21.36,0,0,1-.82,5.56,18.79,18.79,0,0,1-1,2.63,19.52,19.52,0,0,1-1.32,2.47c-.11.2-.24.4-.37.59-.39.58-.83,1.12-1.25,1.68-.29.36-.63.69-.94,1a10.29,10.29,0,0,1-1,1,13.47,13.47,0,0,1-1.09.91l-1.16.82-1.24.71c-.41.22-.86.39-1.29.59s-.8.3-1.21.44l-.19.06c-.39.12-.79.22-1.18.31l-.23.06c-.4.08-.81.16-1.21.21l-.18,0c-.4.06-.81.1-1.22.12h-.08l-.84,0h-.31l-.5,0-.83-.06-.49-.06-.88-.14-.41-.08c-.42-.09-.85-.2-1.26-.33a16.29,16.29,0,0,1-5-2.49c-.36-.29-.75-.54-1.08-.86l-1-.95c-.31-.36-.63-.71-.92-1.08s-.56-.76-.8-1.16a13,13,0,0,1-1.9-6,12.77,12.77,0,0,1,1.59-7.2c.14-.25.29-.5.44-.74a12.6,12.6,0,0,1,1.27-1.64,10,10,0,0,1,1-1,10.14,10.14,0,0,1,3.61-2.08h0c.24-.08.49-.16.73-.22l.25,0,.51-.11.28,0,.49-.06.29,0,.5,0h.25c.33,0,.65,0,1,0l.2,0c.33,0,.66.08,1,.15a10.65,10.65,0,0,1,2.58.95,9.84,9.84,0,0,1,1.17.71,8.66,8.66,0,0,1,1,.87,7.79,7.79,0,0,1,1.35,1.57,8.24,8.24,0,0,1,1.26,3.19,8.39,8.39,0,0,1-.89,5.3,8.62,8.62,0,0,1-1.69,2.11c-.17.15-.35.29-.53.43a7.38,7.38,0,0,1-1.19.67c-.21.09-.42.17-.64.24s-.39.11-.59.16l-.18,0-.45.07-.17,0a5.49,5.49,0,0,1-.58,0h0l-.24,0v-1h.32l.34,0,.2,0,.35-.07.17,0,.51-.15a5.34,5.34,0,0,0,1.9-1.2,7.81,7.81,0,0,0,.75-.87c.11-.15.22-.31.32-.47s.19-.33.28-.5a6.83,6.83,0,0,0,.41-1.06c.06-.19.1-.37.14-.55a6.23,6.23,0,0,0,.14-1.13,6.11,6.11,0,0,0,0-1.13,5.25,5.25,0,0,0-.09-.55,6.68,6.68,0,0,0-2.28-3.76,7.77,7.77,0,0,0-1.39-1,9.48,9.48,0,0,0-1-.48,10.29,10.29,0,0,0-1.62-.46h0l-.65-.07-.2,0-.47,0h-.21c-.2,0-.4,0-.59,0h-.09c-.23,0-.45.06-.67.09l-.18,0-.5.11-.19.05-.64.22a7.55,7.55,0,0,0-1.48.73,8.19,8.19,0,0,0-.89.66c-.14.12-.28.24-.41.37a7.29,7.29,0,0,0-.75.82,10.17,10.17,0,0,0-2.06,3.94,10.11,10.11,0,0,0-.33,3.09,8.76,8.76,0,0,0,.09,1,10.36,10.36,0,0,0,1.64,4.32,4.59,4.59,0,0,0,.33.44l.33.43c.24.27.5.53.74.79l.85.74a6.46,6.46,0,0,0,.59.44l.31.21a13.12,13.12,0,0,0,4,1.81c.32.09.64.15,1,.21l.27,0,.78.1.22,0,1,0h.17c.29,0,.57,0,.86,0l.18,0c.32,0,.63-.07,1-.13l.2,0c.29,0,.57-.12.85-.19l.12,0c.31-.08.61-.18.91-.29l.21-.07c.3-.11.6-.23.89-.37h0l.49-.24.48-.25.92-.58.85-.66c.29-.21.53-.49.8-.73a7.08,7.08,0,0,0,.74-.8c.24-.29.5-.55.72-.85s.21-.31.31-.46a9.74,9.74,0,0,0,.89-1.4c.19-.32.36-.64.52-1s.3-.67.44-1a16.15,16.15,0,0,0,1.07-4.8c0-.54,0-1.09,0-1.63a15.83,15.83,0,0,0-.24-2.17,17,17,0,0,0-.5-2.11c-.11-.34-.25-.67-.37-1l-.19-.51-.25-.48c-.16-.32-.3-.65-.48-1l-.57-.91a4.78,4.78,0,0,0-.41-.59l-.22-.28-.22-.29a4.7,4.7,0,0,0-.45-.55,16,16,0,0,0-1.55-1.52l-.83-.72a4.59,4.59,0,0,0-.44-.33l-.46-.32-.9-.63-1-.54a20,20,0,0,0-8.31-2.46c-.38,0-.77,0-1.15,0s-.67,0-1,0h-.13l-.88.06-.35,0-.66.09-.39.06-.62.12-.39.08a6,6,0,0,0-.61.15l-.38.09-.65.2-.32.09-.94.34a18.84,18.84,0,0,0-2.89,1.41c-.31.18-.61.37-.91.56a20.58,20.58,0,0,0-2.43,1.93l-.29.28-.18.17h0l-.07.06-.14.15c-.73.73-1.43,1.47-2.12,2.21a78.67,78.67,0,0,0-20.8,56.85l27.3-20.73,20,15,31.44-39,31.45,39,20-15,27.31,20.73a78.9,78.9,0,0,0-115.29-73.26,27.75,27.75,0,0,0-6.1-.66,29.38,29.38,0,0,0-7.24.91,85.92,85.92,0,0,0-9.76,8.18,26.55,26.55,0,0,1,3.36-2.43C860.26,205.86,860.68,205.63,861.1,205.4Z"/><path class="cls-1" d="M949.2,190.87l1.49.64Z"/><path class="cls-1" d="M992.8,231.57c.27.54.54,1.09.8,1.64C993.34,232.66,993.07,232.11,992.8,231.57Z"/><path class="cls-1" d="M951.08,191.69c.52.23,1,.46,1.55.71C952.12,192.15,951.6,191.92,951.08,191.69Z"/><path class="cls-2" d="M946.4,277.09l-30.27-37.55-30.26,37.55-21.15-15.86-26.58,20.18c.18,1.21.39,2.43.62,3.64,20-2.67,37.88-.5,53.09,6.48,8.94,4.1,15,8.87,20.32,13.13a95.75,95.75,0,0,1,81.05-18.18c.36-1.68.66-3.37.91-5.07l-26.58-20.18Z"/><path class="cls-3" d="M917.75,309a51.75,51.75,0,0,0,14.92,8.1c14,4.8,30.51,3.68,49.05-3.33a78.53,78.53,0,0,0,9.79-20.67A88.94,88.94,0,0,0,917.75,309Z"/><path class="cls-3" d="M930.45,323.6c-9.76-3.34-15.75-8.14-22.1-13.22-5.37-4.3-10.93-8.75-19.36-12.62-13.84-6.35-30.2-8.36-48.63-6a78.82,78.82,0,0,0,131.53,34q1.1-1.1,2.13-2.22a86.35,86.35,0,0,1-23.08,3.36A62.82,62.82,0,0,1,930.45,323.6Z"/><path class="cls-4" d="M950.69,191.51l.39.18Z"/><path class="cls-4" d="M948.75,190.69l.45.18Z"/><path class="cls-4" d="M914.11,184.31h0Z"/><path class="cls-4" d="M916.13,184.29h0Z"/><path class="cls-4" d="M952.63,192.4l.28.13Z"/><path class="cls-4" d="M866.08,200.41l.17,0a85.2,85.2,0,0,1,47.32-16A84.87,84.87,0,0,0,866.08,200.41Z"/><path class="cls-4" d="M937.07,186.85h0Z"/><path class="cls-4" d="M946.82,189.92l.45.18Z"/><path class="cls-4" d="M944.88,189.2l.42.16Z"/><path class="cls-4" d="M939,187.36l.14,0Z"/><path class="cls-4" d="M942.94,188.54l.35.12Z"/><path class="cls-4" d="M941,187.93l.25.07Z"/><path class="cls-4" d="M1001.85,270v0Z"/><path class="cls-4" d="M998.73,247l0,.14Z"/><path class="cls-4" d="M999.28,249.05v0Z"/><path class="cls-4" d="M997.47,242.84l.12.36Z"/><path class="cls-4" d="M998.13,244.89c0,.08,0,.17.08.26C998.18,245.06,998.15,245,998.13,244.89Z"/><path class="cls-4" d="M1001.82,271.85c0,.24,0,.48,0,.72C1001.81,272.33,1001.82,272.09,1001.82,271.85Z"/><path class="cls-4" d="M1001.77,273.66l-.09,1.63Z"/><path class="cls-4" d="M994.44,235.05l.18.4Z"/><path class="cls-4" d="M993.6,233.21l.14.3Z"/><path class="cls-4" d="M996.78,240.83l.15.43Z"/><path class="cls-4" d="M992.72,231.42l.08.15Z"/><path class="cls-4" d="M954.57,193.34l.13.07Z"/><path class="cls-4" d="M996,238.86l.18.46Z"/><path class="cls-4" d="M995.26,236.93c.06.15.13.3.19.46C995.39,237.23,995.32,237.08,995.26,236.93Z"/><path class="cls-4" d="M999.29,249.07v0q-.24-1-.51-2l0-.14c-.17-.61-.34-1.21-.52-1.81,0-.09-.06-.18-.08-.26-.17-.57-.35-1.13-.54-1.69l-.12-.36c-.17-.53-.35-1.05-.54-1.58l-.15-.43c-.19-.5-.37-1-.56-1.51l-.18-.46c-.2-.5-.39-1-.59-1.47-.06-.16-.13-.31-.19-.46-.21-.5-.42-1-.64-1.48l-.18-.4c-.23-.52-.46-1-.7-1.54l-.14-.3c-.26-.55-.53-1.1-.8-1.64l-.08-.15a86.52,86.52,0,0,0-38-38l-.13-.07-1.66-.81-.28-.13c-.51-.25-1-.48-1.55-.71l-.39-.18-1.49-.64-.45-.18-1.48-.59-.45-.18-1.52-.56-.42-.16c-.53-.18-1.06-.37-1.59-.54l-.35-.12-1.7-.54-.25-.07-1.82-.53-.14,0c-.64-.17-1.3-.35-1.95-.51h0a86.14,86.14,0,0,0-20.91-2.56h-2l-.54,0a85.2,85.2,0,0,0-47.32,16,29.38,29.38,0,0,1,7.24-.91,27.75,27.75,0,0,1,6.1.66,78.82,78.82,0,0,1,115.29,73.26l-27.31-20.73-20,15-31.45-39-31.44,39-20-15-27.3,20.73a78.67,78.67,0,0,1,20.8-56.85c.69-.74,1.39-1.48,2.12-2.21l.14-.15.07-.06h0l.18-.17.29-.28a20.58,20.58,0,0,1,2.43-1.93c.3-.19.6-.38.91-.56a18.84,18.84,0,0,1,2.89-1.41l.94-.34.32-.09.65-.2.38-.09a6,6,0,0,1,.61-.15l.39-.08.62-.12.39-.06.66-.09.35,0,.88-.06h.13c.34,0,.67,0,1,0s.77,0,1.15,0a20,20,0,0,1,8.31,2.46l1,.54.9.63.46.32a4.59,4.59,0,0,1,.44.33l.83.72a16,16,0,0,1,1.55,1.52,4.7,4.7,0,0,1,.45.55l.22.29.22.28a4.78,4.78,0,0,1,.41.59l.57.91c.18.31.32.64.48,1l.25.48.19.51c.12.34.26.67.37,1a17,17,0,0,1,.5,2.11,15.83,15.83,0,0,1,.24,2.17c0,.54,0,1.09,0,1.63a16.15,16.15,0,0,1-1.07,4.8c-.14.34-.28.68-.44,1s-.33.65-.52,1a9.74,9.74,0,0,1-.89,1.4c-.1.15-.21.3-.31.46s-.48.56-.72.85a7.08,7.08,0,0,1-.74.8c-.27.24-.51.52-.8.73l-.85.66-.92.58-.48.25-.49.24h0c-.29.14-.59.26-.89.37l-.21.07c-.3.11-.6.21-.91.29l-.12,0c-.28.07-.56.14-.85.19l-.2,0c-.32.06-.63.1-1,.13l-.18,0c-.29,0-.57,0-.86,0h-.17l-1,0-.22,0-.78-.1-.27,0c-.33-.06-.65-.12-1-.21a13.12,13.12,0,0,1-4-1.81l-.31-.21a6.46,6.46,0,0,1-.59-.44l-.85-.74c-.24-.26-.5-.52-.74-.79l-.33-.43a4.59,4.59,0,0,1-.33-.44,10.36,10.36,0,0,1-1.64-4.32,8.76,8.76,0,0,1-.09-1,10.11,10.11,0,0,1,.33-3.09,10.17,10.17,0,0,1,2.06-3.94,7.29,7.29,0,0,1,.75-.82c.13-.13.27-.25.41-.37a8.19,8.19,0,0,1,.89-.66,7.55,7.55,0,0,1,1.48-.73l.64-.22.19-.05.5-.11.18,0c.22,0,.44-.07.67-.09h.09c.19,0,.39,0,.59,0h.21l.47,0,.2,0,.65.07h0a10.29,10.29,0,0,1,1.62.46,9.48,9.48,0,0,1,1,.48,7.77,7.77,0,0,1,1.39,1,6.68,6.68,0,0,1,2.28,3.76,5.25,5.25,0,0,1,.09.55,6.11,6.11,0,0,1,0,1.13,6.23,6.23,0,0,1-.14,1.13c0,.18-.08.36-.14.55a6.83,6.83,0,0,1-.41,1.06c-.09.17-.18.34-.28.5s-.21.32-.32.47a7.81,7.81,0,0,1-.75.87,5.34,5.34,0,0,1-1.9,1.2l-.51.15-.17,0-.35.07-.2,0-.34,0h-.32v1l.24,0h0a5.49,5.49,0,0,0,.58,0l.17,0,.45-.07.18,0c.2-.05.39-.09.59-.16s.43-.15.64-.24a7.38,7.38,0,0,0,1.19-.67c.18-.14.36-.28.53-.43a8.62,8.62,0,0,0,1.69-2.11,8.39,8.39,0,0,0,.89-5.3,8.24,8.24,0,0,0-1.26-3.19,7.79,7.79,0,0,0-1.35-1.57,8.66,8.66,0,0,0-1-.87,9.84,9.84,0,0,0-1.17-.71,10.65,10.65,0,0,0-2.58-.95c-.33-.07-.66-.11-1-.15l-.2,0c-.33,0-.65,0-1,0h-.25l-.5,0-.29,0-.49.06-.28,0-.51.11-.25,0c-.24.06-.49.14-.73.22h0a10.14,10.14,0,0,0-3.61,2.08,10,10,0,0,0-1,1,12.6,12.6,0,0,0-1.27,1.64c-.15.24-.3.49-.44.74a12.77,12.77,0,0,0-1.59,7.2,13,13,0,0,0,1.9,6c.24.4.53.78.8,1.16s.61.72.92,1.08l1,.95c.33.32.72.57,1.08.86a16.29,16.29,0,0,0,5,2.49c.41.13.84.24,1.26.33l.41.08.88.14.49.06.83.06.5,0H880l.84,0h.08c.41,0,.82-.06,1.22-.12l.18,0c.4-.05.81-.13,1.21-.21l.23-.06c.39-.09.79-.19,1.18-.31l.19-.06c.41-.14.81-.28,1.21-.44s.88-.37,1.29-.59l1.24-.71,1.16-.82a13.47,13.47,0,0,0,1.09-.91,10.29,10.29,0,0,0,1-1c.31-.34.65-.67.94-1,.42-.56.86-1.1,1.25-1.68.13-.19.26-.39.37-.59a19.52,19.52,0,0,0,1.32-2.47,18.79,18.79,0,0,0,1-2.63,21.36,21.36,0,0,0,.82-5.56,19,19,0,0,0-.18-2.82,24.07,24.07,0,0,0-.53-2.79c-.13-.45-.29-.9-.44-1.35l-.22-.67-.29-.66c-.19-.43-.37-.87-.59-1.3l-.35-.62-.35-.62a11.59,11.59,0,0,0-.78-1.19c-.14-.2-.28-.39-.41-.59s-.28-.39-.44-.57c-.31-.35-.62-.72-.94-1.07a9.36,9.36,0,0,0-1-1l-.51-.48-.51-.48-.36-.3-.31-.24-.42-.33-1.12-.85-1.19-.74c-.4-.25-.81-.48-1.22-.7a23.55,23.55,0,0,0-2.54-1.2,25,25,0,0,0-6.83-1.73c-.23,0-.47,0-.7-.06l-.69,0h-.47c-.29,0-.59,0-.89,0h-.23c-.37,0-.73,0-1.1,0l-.39,0-.94.07-.37,0c-.42.05-.85.11-1.27.18l-.11,0c-.39.06-.77.14-1.15.22l-.38.09c-.31.07-.61.14-.92.23l-.37.1c-.41.11-.82.24-1.22.38h0a25.76,25.76,0,0,0-3.93,1.7c-.42.23-.84.46-1.25.71a26.55,26.55,0,0,0-3.36,2.43l-.12.1-1,.92-.05.05h0c-.67.68-1.33,1.37-2,2.06a85.71,85.71,0,1,0,148.34,63.82c0-.07,0-.13,0-.2l.09-1.63c0-.37,0-.73,0-1.09s0-.48,0-.72q0-.89,0-1.77V270A86,86,0,0,0,999.29,249.07ZM864.72,261.23l21.15,15.86,30.26-37.55,30.27,37.55,21.15-15.86,26.58,20.18c-.25,1.7-.55,3.39-.91,5.07a95.75,95.75,0,0,0-81.05,18.18c-5.32-4.26-11.38-9-20.32-13.13-15.21-7-33.08-9.15-53.09-6.48-.23-1.21-.44-2.43-.62-3.64Zm117,52.56c-18.54,7-35,8.13-49.05,3.33a51.75,51.75,0,0,1-14.92-8.1,88.94,88.94,0,0,1,73.76-15.9A78.53,78.53,0,0,1,981.72,313.79Zm-9.83,12a78.82,78.82,0,0,1-131.53-34c18.43-2.36,34.79-.35,48.63,6,8.43,3.87,14,8.32,19.36,12.62,6.35,5.08,12.34,9.88,22.1,13.22a62.82,62.82,0,0,0,20.49,3.3A86.35,86.35,0,0,0,974,323.54Q973,324.67,971.89,325.76Z"/><path class="cls-4" d="M1084.43,236.32a11.7,11.7,0,0,0,3.31-8.37,14,14,0,0,0-2.27-7.83,15.34,15.34,0,0,0-7-5.46,29.77,29.77,0,0,0-11.72-2h-23.12v53.44h14.67v-20h3.15a7.26,7.26,0,0,1,4.43,1.16,5.67,5.67,0,0,1,2.07,3,34.91,34.91,0,0,1,.95,5.26,54,54,0,0,0,1,5.85,15.33,15.33,0,0,0,2,4.68h15.82a16.26,16.26,0,0,1-2.4-4.52,46.24,46.24,0,0,1-1.41-5.84,43,43,0,0,0-1.41-5.68,12.21,12.21,0,0,0-2.53-4.18,14,14,0,0,0-5.17-3.4v-.74Q1081.12,239.81,1084.43,236.32Zm-13.84-1.95a8.82,8.82,0,0,1-5.38,1.37h-7V224.56h6.38a12.78,12.78,0,0,1,4.47.66,5.06,5.06,0,0,1,2.53,1.86,5.28,5.28,0,0,1,.79,2.94A5.07,5.07,0,0,1,1070.59,234.37Z"/><path class="cls-4" d="M1157.38,253.93a31.36,31.36,0,0,0,3.19-14.46,35,35,0,0,0-2.85-14.62,21.61,21.61,0,0,0-8.62-9.74,26.86,26.86,0,0,0-14.13-3.48,27.43,27.43,0,0,0-14.08,3.48,23,23,0,0,0-9.12,9.74,31.53,31.53,0,0,0-3.15,14.37,35.19,35.19,0,0,0,2.86,14.71,21.42,21.42,0,0,0,8.58,9.69q5.71,3.45,14.08,3.44a27.65,27.65,0,0,0,14.09-3.44A22.9,22.9,0,0,0,1157.38,253.93Zm-13.09-6.88a10.91,10.91,0,0,1-3.52,5.18,9.69,9.69,0,0,1-6.21,1.91,10.15,10.15,0,0,1-6.47-1.91,9.93,9.93,0,0,1-3.35-5.18,28.05,28.05,0,0,1-1-7.83,24.15,24.15,0,0,1,1.07-7.54,10.7,10.7,0,0,1,3.48-5.13,9.72,9.72,0,0,1,6.22-1.91,10.24,10.24,0,0,1,6.54,1.91,10,10,0,0,1,3.36,5.17,28.17,28.17,0,0,1,1,7.75A23.31,23.31,0,0,1,1144.29,247.05Z"/><polygon class="cls-4" points="1198.11 212.63 1183.53 212.63 1183.53 266.07 1192.97 266.07 1198.11 266.07 1215.51 266.07 1215.51 252.97 1198.11 252.97 1198.11 212.63"/><polygon class="cls-4" points="1252.13 212.63 1237.55 212.63 1237.55 266.07 1246.99 266.07 1252.13 266.07 1269.53 266.07 1269.53 252.97 1252.13 252.97 1252.13 212.63"/><rect class="cls-4" x="1291.57" y="212.63" width="14.58" height="53.44"/><polygon class="cls-4" points="1375.83 212.63 1362.32 212.63 1362.32 245.69 1361.49 245.69 1358.6 238.48 1347.08 212.63 1330.67 212.63 1330.67 266.07 1344.18 266.07 1344.18 234.25 1345.01 234.25 1347.91 241.54 1358.76 266.07 1375.83 266.07 1375.83 212.63"/><path class="cls-4" d="M1446.84,236.4h-22v10.53H1433a6.58,6.58,0,0,1-2.69,4.8,8.94,8.94,0,0,1-5.43,1.74,10.58,10.58,0,0,1-5.93-1.61,10,10,0,0,1-3.72-4.77,20.58,20.58,0,0,1-1.29-7.78,22.83,22.83,0,0,1,1.24-8,10.08,10.08,0,0,1,3.69-4.93,10.49,10.49,0,0,1,6-1.66,8.91,8.91,0,0,1,5.76,1.83,11.05,11.05,0,0,1,3.44,5.3l13.42-2.57a23.82,23.82,0,0,0-4.15-9.53,19,19,0,0,0-7.66-6.05,28.94,28.94,0,0,0-24.36,1.33,23.56,23.56,0,0,0-9.24,9.65,30.81,30.81,0,0,0-3.31,14.63,36.75,36.75,0,0,0,2.73,14.78,21.38,21.38,0,0,0,7.87,9.62,22.15,22.15,0,0,0,12.35,3.35,14.32,14.32,0,0,0,7.54-2,18.26,18.26,0,0,0,6-6.29h.66l3,7.29h8Z"/><polygon class="cls-4" points="1531.84 243.53 1531.84 266.07 1546.42 266.07 1546.42 212.63 1531.84 212.63 1531.84 232.01 1516.35 232.01 1516.35 212.63 1501.77 212.63 1501.77 266.07 1516.35 266.07 1516.35 243.53 1531.84 243.53"/><rect class="cls-4" x="1570.95" y="212.63" width="14.58" height="53.44"/><polygon class="cls-4" points="1624.64 266.07 1642.04 266.07 1642.04 252.97 1624.64 252.97 1624.64 212.63 1610.06 212.63 1610.06 266.07 1619.5 266.07 1624.64 266.07"/><polygon class="cls-4" points="1678.66 266.07 1696.06 266.07 1696.06 252.97 1678.66 252.97 1678.66 212.63 1664.08 212.63 1664.08 266.07 1673.53 266.07 1678.66 266.07"/><path class="cls-4" d="M1741.67,254a12.65,12.65,0,0,1-3.77.46,9.47,9.47,0,0,1-5.8-1.66,8.59,8.59,0,0,1-3.06-5.22l-13.67,3a18.12,18.12,0,0,0,6.42,11.93q5.42,4.56,16.11,4.56a28.58,28.58,0,0,0,11.23-2,15.87,15.87,0,0,0,7.37-6.13,18.38,18.38,0,0,0,2.61-10.07q0-6.29-2.69-9.57a13.16,13.16,0,0,0-6.38-4.39,55.4,55.4,0,0,0-9.24-1.78,41.46,41.46,0,0,1-5.26-.79,7.91,7.91,0,0,1-3.15-1.4,3.26,3.26,0,0,1-1.2-2.7,4.16,4.16,0,0,1,.79-2.61,4.56,4.56,0,0,1,2.23-1.53,11,11,0,0,1,3.53-.5,10.56,10.56,0,0,1,4.26.75,6.41,6.41,0,0,1,2.7,2.15,9.15,9.15,0,0,1,1.41,3.48l12.75-2.15a18.7,18.7,0,0,0-2.61-8.25,15.21,15.21,0,0,0-6.71-5.75,27.06,27.06,0,0,0-11.64-2.16,24.83,24.83,0,0,0-11.68,2.49,16.48,16.48,0,0,0-9.28,14.91q0,6.79,2.73,10.32a13.17,13.17,0,0,0,6.47,4.68,53,53,0,0,0,9.36,1.82c2.21.28,3.89.53,5,.75a6.56,6.56,0,0,1,2.9,1.24,3.06,3.06,0,0,1,1.16,2.57,3.42,3.42,0,0,1-.74,2.28A4.62,4.62,0,0,1,1741.67,254Z"/><path class="cls-4" d="M1072.81,322.93a2.53,2.53,0,0,1-1,.21,2.29,2.29,0,0,1-1.26-.34,3.64,3.64,0,0,1-1.07-1.23,22.67,22.67,0,0,1-1.26-2.53,14.06,14.06,0,0,0-2.28-4.21,8.88,8.88,0,0,0-5.13-3.14,17.92,17.92,0,0,0,5.85-.91,8.43,8.43,0,0,0,4.07-2.87,7.93,7.93,0,0,0,1.39-4.82,7.84,7.84,0,0,0-1.41-4.75,8.41,8.41,0,0,0-4.26-2.87,22.61,22.61,0,0,0-7-.94h-18.05v3.28a30.18,30.18,0,0,1,3,.3,1.65,1.65,0,0,1,1,.44,2,2,0,0,1,.21,1.1v22.82a2,2,0,0,1-.21,1.1,1.59,1.59,0,0,1-1,.44c-.52.1-1.53.2-3,.31v3.28h15.9v-3.28c-1.58-.11-2.62-.21-3.13-.31a1.91,1.91,0,0,1-1-.44,1.68,1.68,0,0,1-.25-1.1v-10.2h2.41a4.48,4.48,0,0,1,2.77.77,4.2,4.2,0,0,1,1.46,2c.29.82.62,2,1,3.53.1.45.19.88.28,1.31s.2.88.33,1.36a24.82,24.82,0,0,0,1.72,4.31,5.21,5.21,0,0,0,2.1,2.18,6.92,6.92,0,0,0,3.11.64,5.91,5.91,0,0,0,3.2-.8,5.13,5.13,0,0,0,1.92-2.15,8.26,8.26,0,0,0,.82-2.9l-.25-.2A2.87,2.87,0,0,1,1072.81,322.93Zm-20-24.4h5.89a8.25,8.25,0,0,1,3.16.51,3.68,3.68,0,0,1,1.82,1.61,5.84,5.84,0,0,1,.61,2.85,5.25,5.25,0,0,1-.69,2.9,4.27,4.27,0,0,1-2,1.59,8.72,8.72,0,0,1-3.31.53h-5.48Z"/><path class="cls-4" d="M1116.42,295.88a16.24,16.24,0,0,0-8.41-2.12,16.65,16.65,0,0,0-8.41,2.12,15,15,0,0,0-5.79,6.05,19,19,0,0,0-2.1,9.11,20,20,0,0,0,2,9.1,14.36,14.36,0,0,0,5.59,6.05,16.19,16.19,0,0,0,8.38,2.13,16.78,16.78,0,0,0,8.49-2.13,14.45,14.45,0,0,0,5.74-6.05,19.59,19.59,0,0,0,2-9.1,20.17,20.17,0,0,0-2-9.13A14.2,14.2,0,0,0,1116.42,295.88Zm-1.25,22.28a8.26,8.26,0,0,1-2.72,4.21,8.41,8.41,0,0,1-9.23,0,8.2,8.2,0,0,1-2.72-4.21,23.79,23.79,0,0,1-.9-7.12,22.91,22.91,0,0,1,.93-7.11,8.31,8.31,0,0,1,2.74-4.17,8.31,8.31,0,0,1,9.2,0,8.24,8.24,0,0,1,2.7,4.15,23.85,23.85,0,0,1,.89,7.13A24.15,24.15,0,0,1,1115.17,318.16Z"/><path class="cls-4" d="M1165.39,314.58c-.61,2.83-1.11,4.86-1.49,6.07a5.25,5.25,0,0,1-1.17,2.33,2.82,2.82,0,0,1-1.85.52h-6.31V299.65a1.48,1.48,0,0,1,.31-1.1,2.49,2.49,0,0,1,1.18-.44q.87-.15,3.54-.3v-3.28h-16.51v3.28a29.53,29.53,0,0,1,3,.3,1.68,1.68,0,0,1,1,.44,2.12,2.12,0,0,1,.2,1.1v22.82a2.07,2.07,0,0,1-.2,1.1,1.62,1.62,0,0,1-1,.44c-.51.1-1.52.2-3,.31v3.28h26.3l-.05-13Z"/><path class="cls-4" d="M1210.82,314.58c-.61,2.83-1.11,4.86-1.48,6.07a5.24,5.24,0,0,1-1.18,2.33,2.8,2.8,0,0,1-1.85.52H1200V299.65a1.52,1.52,0,0,1,.31-1.1,2.54,2.54,0,0,1,1.18-.44q.87-.15,3.54-.3v-3.28h-16.51v3.28a29.53,29.53,0,0,1,3,.3,1.65,1.65,0,0,1,1,.44,2.12,2.12,0,0,1,.2,1.1v22.82a2.07,2.07,0,0,1-.2,1.1,1.59,1.59,0,0,1-1,.44c-.51.1-1.52.2-3,.31v3.28h26.3l0-13Z"/><path class="cls-4" d="M1258.77,315.34a53,53,0,0,1-1.49,5.59,4.77,4.77,0,0,1-1.18,2,2.77,2.77,0,0,1-1.74.49h-8.92V312.4l8.71.28v-4.77l-8.71.24v-9.68h8.4a2.7,2.7,0,0,1,1.67.46,4.52,4.52,0,0,1,1.13,1.95c.36,1,.86,2.81,1.51,5.44H1262l0-11.85h-16.61v0h-5.9l-5.59,0v3.29a29.53,29.53,0,0,1,3,.3,1.65,1.65,0,0,1,1,.44,2,2,0,0,1,.2,1.1v22.82a2,2,0,0,1-.2,1.1,1.59,1.59,0,0,1-1,.44c-.51.1-1.52.2-3,.31v3.28h28.77l-.16-12.21Z"/><path class="cls-4" d="M1306.3,296.45a23.55,23.55,0,0,0-10-1.92h-13.69v3.28a29.5,29.5,0,0,1,3,.3,1.65,1.65,0,0,1,1,.44,2,2,0,0,1,.21,1.1v22.82a2,2,0,0,1-.21,1.1,1.59,1.59,0,0,1-1,.44c-.51.1-1.52.2-3,.31v3.28h13.44a23.3,23.3,0,0,0,9.89-2,14.14,14.14,0,0,0,6.44-5.74,19.48,19.48,0,0,0,.13-17.85A13.47,13.47,0,0,0,1306.3,296.45Zm-.61,21.61a8.11,8.11,0,0,1-3.36,4.13,11,11,0,0,1-5.62,1.31h-2.56v-25h2.26a11.73,11.73,0,0,1,5.87,1.3,8.06,8.06,0,0,1,3.41,3.95,18,18,0,0,1,1.12,7A20.06,20.06,0,0,1,1305.69,318.06Z"/><path class="cls-4" d="M1366.09,294.53h-5.59v3.28a30.18,30.18,0,0,1,3,.3,1.65,1.65,0,0,1,1,.44,2,2,0,0,1,.21,1.1v22.82a2,2,0,0,1-.21,1.1,1.59,1.59,0,0,1-1,.44c-.52.1-1.53.2-3,.31v3.28h15.74v-3.28a29.15,29.15,0,0,1-3-.31,1.83,1.83,0,0,1-1-.44,1.68,1.68,0,0,1-.25-1.1V299.65a1.72,1.72,0,0,1,.25-1.1,1.9,1.9,0,0,1,1-.44,27.33,27.33,0,0,1,3-.3v-3.28h-10.15Z"/><path class="cls-4" d="M1420.52,320.24a10.57,10.57,0,0,1-3.38,1.95,12.18,12.18,0,0,1-4.13.69,10.17,10.17,0,0,1-5.28-1.28,8.23,8.23,0,0,1-3.31-3.92,16.77,16.77,0,0,1-1.15-6.69,21.78,21.78,0,0,1,1-7.06,8.68,8.68,0,0,1,2.77-4.17,6.64,6.64,0,0,1,4.2-1.39,5.8,5.8,0,0,1,3.46,1,9.12,9.12,0,0,1,2.57,2.89,30.35,30.35,0,0,1,2.18,4.85h3.95V293.86h-3.95l-1.79,3.61a6.28,6.28,0,0,0-1.37-1.66,8.17,8.17,0,0,0-2.74-1.51,10.78,10.78,0,0,0-3.49-.54,13.2,13.2,0,0,0-7.33,2.15,15.31,15.31,0,0,0-5.33,6.1,19.52,19.52,0,0,0-2,9,20.08,20.08,0,0,0,2,9.35,14,14,0,0,0,5.64,5.93,17.12,17.12,0,0,0,8.51,2.05,14.91,14.91,0,0,0,6-1.18,9.62,9.62,0,0,0,4.26-3.62,11.23,11.23,0,0,0,1.64-6.07l-.41-.26A12.28,12.28,0,0,1,1420.52,320.24Z"/><path class="cls-4" d="M1468.08,315.34a53,53,0,0,1-1.49,5.59,4.67,4.67,0,0,1-1.18,2,2.77,2.77,0,0,1-1.74.49h-8.92V312.4l8.71.28v-4.77l-8.71.24v-9.68h8.41a2.69,2.69,0,0,1,1.66.46,4.42,4.42,0,0,1,1.13,1.95c.36,1,.86,2.81,1.51,5.44h3.85l0-11.85h-16.61v0h-5.9l-5.59,0v3.29a30.18,30.18,0,0,1,3,.3,1.65,1.65,0,0,1,1,.44,2,2,0,0,1,.21,1.1v22.82a2,2,0,0,1-.21,1.1,1.59,1.59,0,0,1-1,.44c-.52.1-1.53.2-3,.31v3.28H1472l-.16-12.21Z"/><path class="cls-4" d="M1544.45,320.24a10.57,10.57,0,0,1-3.38,1.95,12.14,12.14,0,0,1-4.13.69,10.22,10.22,0,0,1-5.28-1.28,8.28,8.28,0,0,1-3.31-3.92,16.77,16.77,0,0,1-1.15-6.69,22.06,22.06,0,0,1,1-7.06,8.75,8.75,0,0,1,2.77-4.17,6.66,6.66,0,0,1,4.21-1.39,5.82,5.82,0,0,1,3.46,1,9.1,9.1,0,0,1,2.56,2.89,28.67,28.67,0,0,1,2.18,4.85h4V293.86h-4l-1.78,3.61a6.48,6.48,0,0,0-1.37-1.66,8.17,8.17,0,0,0-2.74-1.51,10.82,10.82,0,0,0-3.49-.54,13.18,13.18,0,0,0-7.33,2.15,15.33,15.33,0,0,0-5.34,6.1,19.65,19.65,0,0,0-2,9,20.21,20.21,0,0,0,2,9.35,14.11,14.11,0,0,0,5.64,5.93,17.16,17.16,0,0,0,8.52,2.05,14.94,14.94,0,0,0,6-1.18,9.65,9.65,0,0,0,4.25-3.62,11.14,11.14,0,0,0,1.64-6.07l-.41-.26A12.07,12.07,0,0,1,1544.45,320.24Z"/><path class="cls-4" d="M1598.66,322.93a2.53,2.53,0,0,1-1,.21,2.29,2.29,0,0,1-1.26-.34,3.55,3.55,0,0,1-1.08-1.23,21.25,21.25,0,0,1-1.25-2.53,14.07,14.07,0,0,0-2.29-4.21,9.37,9.37,0,0,0-3.28-2.54,9.12,9.12,0,0,0-1.85-.6,17.92,17.92,0,0,0,5.85-.91,8.42,8.42,0,0,0,4.08-2.87,8,8,0,0,0,1.38-4.82,7.84,7.84,0,0,0-1.41-4.75,8.42,8.42,0,0,0-4.25-2.87,22.66,22.66,0,0,0-7-.94h-18v3.28a29.53,29.53,0,0,1,3,.3,1.65,1.65,0,0,1,1,.44,2.12,2.12,0,0,1,.2,1.1v22.82a2.07,2.07,0,0,1-.2,1.1,1.59,1.59,0,0,1-1,.44c-.51.1-1.52.2-3,.31v3.28h15.89v-3.28c-1.57-.11-2.61-.21-3.12-.31a1.87,1.87,0,0,1-1-.44,1.67,1.67,0,0,1-.26-1.1v-10.2h2.41a4.47,4.47,0,0,1,2.77.77,4.14,4.14,0,0,1,1.46,2c.29.82.63,2,1,3.53.11.45.2.88.28,1.31s.2.88.34,1.36a24,24,0,0,0,1.72,4.31,5.1,5.1,0,0,0,2.1,2.18,6.87,6.87,0,0,0,3.1.64,5.92,5.92,0,0,0,3.21-.8,5.26,5.26,0,0,0,1.92-2.15,8.48,8.48,0,0,0,.82-2.9l-.26-.2A2.72,2.72,0,0,1,1598.66,322.93Zm-20-24.4h5.9a8.16,8.16,0,0,1,3.15.51,3.64,3.64,0,0,1,1.82,1.61,5.84,5.84,0,0,1,.62,2.85,5.25,5.25,0,0,1-.69,2.9,4.27,4.27,0,0,1-2,1.59,8.8,8.8,0,0,1-3.31.53h-5.49Z"/><path class="cls-4" d="M1642,315.34a53,53,0,0,1-1.49,5.59,4.67,4.67,0,0,1-1.18,2,2.77,2.77,0,0,1-1.74.49h-8.92V312.4l8.71.28v-4.77l-8.71.24v-9.68H1637a2.69,2.69,0,0,1,1.66.46,4.52,4.52,0,0,1,1.13,1.95c.36,1,.86,2.81,1.51,5.44h3.85l0-11.85h-16.61v0h-5.9l-5.59,0v3.29a30.18,30.18,0,0,1,3,.3,1.65,1.65,0,0,1,1,.44,2,2,0,0,1,.21,1.1v22.82a2,2,0,0,1-.21,1.1,1.59,1.59,0,0,1-1,.44c-.52.1-1.53.2-3,.31v3.28h28.77l-.16-12.21Z"/><path class="cls-4" d="M1698.72,324.27a6.59,6.59,0,0,1-1.74-.44,2.41,2.41,0,0,1-1-1,15.76,15.76,0,0,1-1-2.43l-10.36-26h-5.79l-9.7,24.05a.69.69,0,0,1,0,.13.35.35,0,0,0,0,.13,27.26,27.26,0,0,1-1.51,3.38,4,4,0,0,1-1.38,1.49,8,8,0,0,1-2.18.77v3.28h13.43v-3.23a8.36,8.36,0,0,1-2.87-.72,1.67,1.67,0,0,1-1-1.39,6,6,0,0,1,.46-2.26l.85-2.3h11l1.57,4.36a2.23,2.23,0,0,1,.23,1.33c-.09.28-.41.48-1,.62a19,19,0,0,1-2.75.36v3.23H1699v-3.28a.48.48,0,0,1-.18,0Zm-22.56-10.41,2.26-6.18,1.89-5.43,1.85,5.45,2.22,6.16Z"/><path class="cls-4" d="M1752.1,294.53H1746l-8.55,20.7-8.63-20.7h-12.56v3.28a32.52,32.52,0,0,1,4.15.88v21.68a6.47,6.47,0,0,1-.25,2.08,2.17,2.17,0,0,1-1.18,1.12,11.62,11.62,0,0,1-2.93.75v3.28h13.44v-3.28a12.09,12.09,0,0,1-3-.75,2.36,2.36,0,0,1-1.26-1.15,5.48,5.48,0,0,1-.31-2.05V302.83l10.67,24.92h1.13l10.72-25.43v20.15a2.36,2.36,0,0,1-.18,1.1,1.45,1.45,0,0,1-.93.44,29.93,29.93,0,0,1-3,.31v3.28H1759v-3.28c-1.53-.11-2.55-.21-3-.31a1.58,1.58,0,0,1-1-.44,2.07,2.07,0,0,1-.2-1.1V299.65a2.12,2.12,0,0,1,.2-1.1,1.64,1.64,0,0,1,1-.44,29.12,29.12,0,0,1,3-.3v-3.28h-6.87Z"/><path class="cls-1" d="M414.5,98.44l2.52.8Z"/><path class="cls-1" d="M504.78,220.47A127.85,127.85,0,0,0,501,189.4a128.68,128.68,0,0,1,3.81,31.15Z"/><path class="cls-1" d="M411.41,97.54c.91.25,1.81.52,2.71.79C413.22,98.06,412.32,97.79,411.41,97.54Z"/><path class="cls-1" d="M504.72,224.41l-.06,1.62Z"/><path class="cls-1" d="M499.36,183.57c.27.89.53,1.79.78,2.69C499.89,185.36,499.63,184.46,499.36,183.57Z"/><path class="cls-1" d="M492.7,166.23c.36.76.71,1.52,1.05,2.29C493.41,167.75,493.06,167,492.7,166.23Z"/><path class="cls-1" d="M504.78,220.7c0,.88,0,1.76,0,2.64Q504.78,222,504.78,220.7Z"/><path class="cls-1" d="M500.2,186.48c.26,1,.52,1.92.76,2.89C500.72,188.4,500.46,187.44,500.2,186.48Z"/><path class="cls-1" d="M496.39,174.89c.29.74.56,1.49.83,2.24C497,176.38,496.68,175.63,496.39,174.89Z"/><path class="cls-1" d="M423.48,101.55l2.21.89Z"/><path class="cls-1" d="M420.54,100.45l2.26.84Z"/><path class="cls-1" d="M497.46,177.78c.27.78.54,1.56.8,2.35C498,179.34,497.73,178.56,497.46,177.78Z"/><path class="cls-1" d="M498.44,180.67c.28.83.54,1.67.8,2.5C499,182.33,498.72,181.5,498.44,180.67Z"/><path class="cls-1" d="M494,169.12c.32.73.63,1.46.94,2.2C494.65,170.58,494.34,169.85,494,169.12Z"/><path class="cls-1" d="M417.54,99.41c.8.27,1.59.54,2.37.82C419.13,100,418.34,99.68,417.54,99.41Z"/><path class="cls-1" d="M431.89,105.18l2.47,1.21Z"/><path class="cls-1" d="M504.51,228.76a2.83,2.83,0,0,0,0-.29A2.83,2.83,0,0,1,504.51,228.76Z"/><path class="cls-1" d="M491.19,163.12a128.12,128.12,0,0,0-56.64-56.63,129,129,0,0,1,56.64,56.63Z"/><path class="cls-1" d="M377.21,92.9h-.08a128.56,128.56,0,0,1,31.15,3.82A127.73,127.73,0,0,0,377.21,92.9Z"/><path class="cls-1" d="M495.25,172q.45,1.09.87,2.19Q495.7,173.1,495.25,172Z"/><path class="cls-1" d="M375.08,92.92l1.81,0Z"/><path class="cls-1" d="M408.3,96.72c1,.24,1.94.5,2.91.77C410.24,97.22,409.28,97,408.3,96.72Z"/><path class="cls-1" d="M373.27,93l.81,0Z"/><path class="cls-1" d="M295.11,124.36a38.86,38.86,0,0,1,5.86-2.54h0q.9-.31,1.83-.57l.55-.15c.45-.12.9-.24,1.36-.34l.57-.13c.57-.12,1.14-.24,1.71-.33l.17,0c.63-.11,1.26-.19,1.89-.26.18,0,.36,0,.55-.06.46,0,.93-.09,1.4-.12l.59,0c.54,0,1.08,0,1.63,0h.35c.44,0,.88,0,1.32,0h.7l1,.08,1.05.09a36.45,36.45,0,0,1,4.16.69,38.4,38.4,0,0,1,6,1.88,40.93,40.93,0,0,1,3.79,1.79c.61.33,1.22.68,1.81,1l1.78,1.11,1.66,1.26.64.49.46.37c.18.15.36.29.53.45l.76.71.76.71a18.79,18.79,0,0,1,1.48,1.48c.47.53.93,1.08,1.4,1.61a9,9,0,0,1,.64.85l.62.87a17.52,17.52,0,0,1,1.16,1.78l.52.92.53.93c.32.63.58,1.29.87,1.93l.43,1,.34,1c.21.67.45,1.34.64,2a34.75,34.75,0,0,1,.8,4.14,31.17,31.17,0,0,1,.27,4.2,31.7,31.7,0,0,1-1.22,8.28,29.7,29.7,0,0,1-1.43,3.93,27.7,27.7,0,0,1-2,3.68c-.17.3-.35.59-.55.88-.58.87-1.24,1.67-1.87,2.5-.43.54-.93,1-1.4,1.53a17.13,17.13,0,0,1-1.48,1.47c-.55.45-1.05.95-1.63,1.36L336.45,178l-1.84,1c-.62.34-1.28.59-1.92.88s-1.2.46-1.81.66l-.28.09c-.58.18-1.17.33-1.76.47l-.35.08c-.59.13-1.19.24-1.8.32l-.26,0c-.6.08-1.21.14-1.83.17h-.11c-.42,0-.84,0-1.25,0l-.46,0-.75,0q-.61,0-1.23-.09l-.73-.08c-.44-.06-.87-.13-1.31-.22l-.61-.11c-.64-.14-1.26-.3-1.88-.49a24.44,24.44,0,0,1-7.39-3.71,18.18,18.18,0,0,1-1.61-1.29l-1.5-1.41c-.46-.54-.94-1.06-1.37-1.6s-.84-1.14-1.2-1.74a19.69,19.69,0,0,1-2-16.06,18.68,18.68,0,0,1,1.54-3.55q.31-.57.66-1.11a21.37,21.37,0,0,1,1.88-2.44,18.3,18.3,0,0,1,1.47-1.45,15.09,15.09,0,0,1,5.38-3.09h0c.36-.12.73-.22,1.1-.32l.36-.08c.25-.06.5-.11.76-.15l.42-.07.73-.08.43,0,.75,0h.37a13.94,13.94,0,0,1,1.45.07l.31,0c.49.06,1,.13,1.47.23a16.22,16.22,0,0,1,3.84,1.41,14.81,14.81,0,0,1,1.75,1.06,15,15,0,0,1,1.57,1.3,11.78,11.78,0,0,1,2,2.33,12.71,12.71,0,0,1,1.87,4.76,12,12,0,0,1-3.84,11,9.75,9.75,0,0,1-.8.64,9.41,9.41,0,0,1-1.77,1,8.41,8.41,0,0,1-.95.36c-.29.09-.59.16-.88.23l-.26.05c-.23,0-.45.08-.68.1l-.25,0a8.12,8.12,0,0,1-.86,0h0l-.37,0v-1.45h.19l.3,0,.5,0,.3,0,.53-.1.24-.06c.26-.07.51-.14.76-.23a8.05,8.05,0,0,0,2.84-1.79,10.61,10.61,0,0,0,1.11-1.29c.17-.23.33-.46.48-.71a7.68,7.68,0,0,0,.41-.74,10.15,10.15,0,0,0,.62-1.58c.08-.27.15-.55.21-.82a12.05,12.05,0,0,0,.21-1.68,10.5,10.5,0,0,0-.07-1.68c0-.28-.08-.56-.13-.83a9.93,9.93,0,0,0-3.4-5.6,11.34,11.34,0,0,0-2.07-1.45,12.34,12.34,0,0,0-1.52-.71,12.84,12.84,0,0,0-2.42-.69h0c-.32-.05-.64-.09-1-.11l-.3,0c-.23,0-.46,0-.7,0h-.31c-.3,0-.59,0-.88,0h-.14c-.33,0-.66.08-1,.14l-.27,0c-.25.05-.5.1-.75.17l-.28.08a9,9,0,0,0-1,.32,11,11,0,0,0-2.2,1.09,12.43,12.43,0,0,0-1.32,1l-.61.55a14.71,14.71,0,0,0-1.13,1.23,15.86,15.86,0,0,0-1.84,2.77,15.12,15.12,0,0,0-1.71,7.7c0,.52.07,1,.14,1.54a15.13,15.13,0,0,0,2.44,6.43c.15.23.32.44.48.66s.34.42.5.64c.36.4.74.78,1.11,1.18l1.26,1.09a7,7,0,0,0,.88.66l.46.32a19.72,19.72,0,0,0,6,2.7q.72.18,1.44.3l.41.07c.38.06.77.1,1.15.14l.34,0c.49,0,1,0,1.46,0h.26c.42,0,.84,0,1.27-.07l.27,0c.47,0,.94-.12,1.41-.2l.3-.06c.43-.08.85-.17,1.27-.28l.18-.05c.46-.12.91-.27,1.35-.42l.31-.12c.45-.17.9-.34,1.33-.54h0c.24-.13.49-.24.73-.36s.48-.24.71-.38l1.37-.85,1.27-1c.43-.32.79-.73,1.19-1.09a10.66,10.66,0,0,0,1.11-1.2c.35-.42.74-.82,1.07-1.26.15-.23.31-.46.47-.68a17.37,17.37,0,0,0,1.32-2.08c.27-.48.53-1,.77-1.46s.45-1,.65-1.5a23.78,23.78,0,0,0,1.6-7.15q.09-1.22.06-2.43a26.8,26.8,0,0,0-.35-3.23,28.11,28.11,0,0,0-.75-3.14c-.17-.51-.38-1-.56-1.51l-.28-.75-.36-.72c-.25-.48-.46-1-.72-1.43l-.85-1.36a7.66,7.66,0,0,0-.61-.88l-.33-.42-.32-.42a9,9,0,0,0-.68-.82,22.34,22.34,0,0,0-2.3-2.26l-1.25-1.08a8,8,0,0,0-.65-.5c-.23-.15-.46-.3-.68-.46l-1.34-1-1.43-.8a29.79,29.79,0,0,0-12.38-3.66c-.58,0-1.15-.05-1.72-.05s-1,0-1.5,0h-.19c-.44,0-.88.06-1.32.1l-.51.06-1,.12-.57.1-.92.17-.59.12-.91.22-.56.14-1,.29-.46.15c-.48.16-.95.32-1.41.5a29.54,29.54,0,0,0-4.31,2.09c-.45.27-.9.56-1.34.85a28.8,28.8,0,0,0-3.63,2.87l-.43.42-.26.25h0l-.1.1-.22.21c-1.08,1.09-2.12,2.19-3.15,3.3a117.21,117.21,0,0,0-31,84.68l40.68-30.88,29.78,22.34,46.85-58.13,46.84,58.13,29.79-22.34L494.4,225.6A117.51,117.51,0,0,0,322.67,116.48a41.34,41.34,0,0,0-4.54-.76c-1.51-.15-3-.24-4.55-.24a43.56,43.56,0,0,0-10.8,1.37A128.19,128.19,0,0,0,288.25,129a39.26,39.26,0,0,1,5-3.61C293.87,125.05,294.49,124.69,295.11,124.36Z"/><path class="cls-1" d="M426.35,102.71c.74.32,1.49.63,2.22,1C427.84,103.34,427.1,103,426.35,102.71Z"/><path class="cls-1" d="M491.29,163.33c.41.81.81,1.63,1.2,2.45C492.1,165,491.7,164.14,491.29,163.33Z"/><path class="cls-1" d="M429.15,103.93q1.17.51,2.31,1Q430.32,104.44,429.15,103.93Z"/><path class="cls-2" d="M422.18,231.15,377.1,175.21,332,231.15l-31.5-23.63-39.59,30q.39,2.73.92,5.44c29.81-4,56.42-.75,79.08,9.65,13.32,6.11,22.35,13.21,30.28,19.55a142.68,142.68,0,0,1,120.73-27.07c.53-2.51,1-5,1.35-7.56l-39.59-30.06Z"/><path class="cls-3" d="M379.5,278.72a77.25,77.25,0,0,0,22.24,12c20.87,7.16,45.44,5.49,73.05-4.95A116.81,116.81,0,0,0,489.38,255,132.35,132.35,0,0,0,379.5,278.72Z"/><path class="cls-3" d="M398.42,300.44c-14.53-5-23.47-12.13-32.92-19.7-8-6.41-16.28-13-28.84-18.8-20.62-9.46-45-12.45-72.44-8.93a117.42,117.42,0,0,0,195.94,50.64c1.09-1.09,2.14-2.2,3.17-3.31a128.56,128.56,0,0,1-34.39,5A93.73,93.73,0,0,1,398.42,300.44Z"/><path class="cls-4" d="M428.57,103.67l.58.26Z"/><path class="cls-4" d="M425.69,102.44l.66.27Z"/><path class="cls-4" d="M374.08,92.94l1,0Z"/><path class="cls-4" d="M377.1,92.9h0Z"/><path class="cls-4" d="M431.46,105l.43.2Z"/><path class="cls-4" d="M302.53,116.92l.25-.07A127,127,0,0,1,373.27,93,126.64,126.64,0,0,0,302.53,116.92Z"/><path class="cls-4" d="M408.28,96.72h0Z"/><path class="cls-4" d="M422.8,101.29l.68.26Z"/><path class="cls-4" d="M419.91,100.23l.63.22Z"/><path class="cls-4" d="M411.21,97.49l.2.05Z"/><path class="cls-4" d="M417,99.24l.52.17Z"/><path class="cls-4" d="M414.12,98.33l.38.11Z"/><path class="cls-4" d="M504.78,220.58v0Z"/><path class="cls-4" d="M500.14,186.26l.06.22Z"/><path class="cls-4" d="M501,189.37v0Z"/><path class="cls-4" d="M498.26,180.13l.18.54Z"/><path class="cls-4" d="M499.24,183.17l.12.4Z"/><path class="cls-4" d="M504.75,223.34l0,1.07Z"/><path class="cls-4" d="M504.66,226c0,.82-.08,1.63-.13,2.44C504.58,227.66,504.62,226.85,504.66,226Z"/><path class="cls-4" d="M493.75,168.52l.27.6Z"/><path class="cls-4" d="M492.49,165.78l.21.45Z"/><path class="cls-4" d="M497.22,177.13l.24.65Z"/><path class="cls-4" d="M491.19,163.12l.1.21Z"/><path class="cls-4" d="M434.36,106.39l.19.1Z"/><path class="cls-4" d="M496.12,174.19l.27.7Z"/><path class="cls-4" d="M495,171.32l.29.68Z"/><path class="cls-4" d="M501,189.4v0c-.24-1-.5-1.93-.76-2.89l-.06-.22c-.25-.9-.51-1.8-.78-2.69l-.12-.4c-.26-.83-.52-1.67-.8-2.5l-.18-.54c-.26-.79-.53-1.57-.8-2.35l-.24-.65c-.27-.75-.54-1.5-.83-2.24l-.27-.7q-.42-1.09-.87-2.19l-.29-.68c-.31-.74-.62-1.47-.94-2.2l-.27-.6c-.34-.77-.69-1.53-1.05-2.29l-.21-.45c-.39-.82-.79-1.64-1.2-2.45l-.1-.21a129,129,0,0,0-56.64-56.63l-.19-.1-2.47-1.21-.43-.2q-1.14-.54-2.31-1l-.58-.26c-.73-.33-1.48-.64-2.22-1l-.66-.27-2.21-.89-.68-.26-2.26-.84-.63-.22c-.78-.28-1.57-.55-2.37-.82l-.52-.17-2.52-.8-.38-.11c-.9-.27-1.8-.54-2.71-.79l-.2-.05c-1-.27-1.94-.53-2.91-.77h0a128.56,128.56,0,0,0-31.15-3.82h-.24l-1.81,0-1,0-.81,0a127,127,0,0,0-70.49,23.89,43.56,43.56,0,0,1,10.8-1.37c1.51,0,3,.09,4.55.24a41.34,41.34,0,0,1,4.54.76A117.4,117.4,0,0,1,494.4,225.6l-40.67-30.88-29.79,22.34L377.1,158.93l-46.85,58.13-29.78-22.34L259.79,225.6a117.21,117.21,0,0,1,31-84.68c1-1.11,2.07-2.21,3.15-3.3l.22-.21.1-.1h0l.26-.25.43-.42a28.8,28.8,0,0,1,3.63-2.87c.44-.29.89-.58,1.34-.85a29.54,29.54,0,0,1,4.31-2.09c.46-.18.93-.34,1.41-.5l.46-.15,1-.29.56-.14.91-.22.59-.12.92-.17.57-.1,1-.12.51-.06c.44,0,.88-.08,1.32-.1h.19q.75,0,1.5,0c.57,0,1.14,0,1.72.05a29.79,29.79,0,0,1,12.38,3.66l1.43.8,1.34,1c.22.16.45.31.68.46a8,8,0,0,1,.65.5l1.25,1.08a22.34,22.34,0,0,1,2.3,2.26,9,9,0,0,1,.68.82l.32.42.33.42a7.66,7.66,0,0,1,.61.88l.85,1.36c.26.46.47.95.72,1.43l.36.72.28.75c.18.5.39,1,.56,1.51a28.11,28.11,0,0,1,.75,3.14,26.8,26.8,0,0,1,.35,3.23q0,1.22-.06,2.43a23.78,23.78,0,0,1-1.6,7.15c-.2.51-.41,1-.65,1.5s-.5,1-.77,1.46a17.37,17.37,0,0,1-1.32,2.08c-.16.22-.32.45-.47.68-.33.44-.72.84-1.07,1.26a10.66,10.66,0,0,1-1.11,1.2c-.4.36-.76.77-1.19,1.09l-1.27,1-1.37.85c-.23.14-.47.26-.71.38s-.49.23-.73.36h0c-.43.2-.88.37-1.33.54l-.31.12c-.44.15-.89.3-1.35.42l-.18.05c-.42.11-.84.2-1.27.28l-.3.06c-.47.08-.94.15-1.41.2l-.27,0c-.43,0-.85.06-1.27.07h-.26c-.49,0-1,0-1.46,0l-.34,0c-.38,0-.77-.08-1.15-.14l-.41-.07q-.72-.12-1.44-.3a19.72,19.72,0,0,1-6-2.7l-.46-.32a7,7,0,0,1-.88-.66l-1.26-1.09c-.37-.4-.75-.78-1.11-1.18-.16-.22-.33-.43-.5-.64s-.33-.43-.48-.66a15.13,15.13,0,0,1-2.44-6.43c-.07-.51-.12-1-.14-1.54a15.12,15.12,0,0,1,1.71-7.7,15.86,15.86,0,0,1,1.84-2.77,14.71,14.71,0,0,1,1.13-1.23l.61-.55a12.43,12.43,0,0,1,1.32-1,11,11,0,0,1,2.2-1.09,9,9,0,0,1,1-.32l.28-.08c.25-.07.5-.12.75-.17l.27,0c.33-.06.66-.11,1-.14h.14c.29,0,.58,0,.88,0h.31c.24,0,.47,0,.7,0l.3,0c.32,0,.64.06,1,.11h0a12.84,12.84,0,0,1,2.42.69,12.34,12.34,0,0,1,1.52.71,11.34,11.34,0,0,1,2.07,1.45,9.93,9.93,0,0,1,3.4,5.6c.05.27.1.55.13.83a10.5,10.5,0,0,1,.07,1.68,12.05,12.05,0,0,1-.21,1.68c-.06.27-.13.55-.21.82a10.15,10.15,0,0,1-.62,1.58,7.68,7.68,0,0,1-.41.74c-.15.25-.31.48-.48.71a10.61,10.61,0,0,1-1.11,1.29,8.05,8.05,0,0,1-2.84,1.79c-.25.09-.5.16-.76.23l-.24.06-.53.1-.3,0-.5,0-.3,0h-.19v1.45l.37,0h0a8.12,8.12,0,0,0,.86,0l.25,0c.23,0,.45-.06.68-.1l.26-.05c.29-.07.59-.14.88-.23a8.41,8.41,0,0,0,.95-.36,9.41,9.41,0,0,0,1.77-1,9.75,9.75,0,0,0,.8-.64,12,12,0,0,0,3.84-11,12.71,12.71,0,0,0-1.87-4.76,11.78,11.78,0,0,0-2-2.33,15,15,0,0,0-1.57-1.3,14.81,14.81,0,0,0-1.75-1.06,16.22,16.22,0,0,0-3.84-1.41c-.49-.1-1-.17-1.47-.23l-.31,0a13.94,13.94,0,0,0-1.45-.07h-.37l-.75,0-.43,0-.73.08-.42.07c-.26,0-.51.09-.76.15l-.36.08c-.37.1-.74.2-1.1.32h0a15.09,15.09,0,0,0-5.38,3.09,18.3,18.3,0,0,0-1.47,1.45,21.37,21.37,0,0,0-1.88,2.44q-.34.54-.66,1.11A18.68,18.68,0,0,0,301.2,155a19.69,19.69,0,0,0,2,16.06c.36.6.8,1.16,1.2,1.74s.91,1.06,1.37,1.6l1.5,1.41a18.18,18.18,0,0,0,1.61,1.29,24.44,24.44,0,0,0,7.39,3.71c.62.19,1.24.35,1.88.49l.61.11c.44.09.87.16,1.31.22l.73.08q.61.06,1.23.09l.75,0,.46,0c.41,0,.83,0,1.25,0h.11c.62,0,1.23-.09,1.83-.17l.26,0c.61-.08,1.21-.19,1.8-.32l.35-.08c.59-.14,1.18-.29,1.76-.47l.28-.09c.61-.2,1.22-.41,1.81-.66s1.3-.54,1.92-.88l1.84-1,1.73-1.22c.58-.41,1.08-.91,1.63-1.36a17.13,17.13,0,0,0,1.48-1.47c.47-.51,1-1,1.4-1.53.63-.83,1.29-1.63,1.87-2.5.2-.29.38-.58.55-.88a27.7,27.7,0,0,0,2-3.68,29.7,29.7,0,0,0,1.43-3.93,31.7,31.7,0,0,0,1.22-8.28,31.17,31.17,0,0,0-.27-4.2,34.75,34.75,0,0,0-.8-4.14c-.19-.68-.43-1.35-.64-2l-.34-1-.43-1c-.29-.64-.55-1.3-.87-1.93l-.53-.93-.52-.92a17.52,17.52,0,0,0-1.16-1.78l-.62-.87a9,9,0,0,0-.64-.85c-.47-.53-.93-1.08-1.4-1.61a18.79,18.79,0,0,0-1.48-1.48l-.76-.71-.76-.71c-.17-.16-.35-.3-.53-.45l-.46-.37-.64-.49-1.66-1.26-1.78-1.11c-.59-.36-1.2-.71-1.81-1a40.93,40.93,0,0,0-3.79-1.79,38.4,38.4,0,0,0-6-1.88,36.45,36.45,0,0,0-4.16-.69l-1.05-.09-1-.08h-.7c-.44,0-.88,0-1.32,0h-.35c-.55,0-1.09,0-1.63,0l-.59,0c-.47,0-.94.07-1.4.12-.19,0-.37,0-.55.06-.63.07-1.26.15-1.89.26l-.17,0c-.57.09-1.14.21-1.71.33l-.57.13c-.46.1-.91.22-1.36.34l-.55.15q-.93.25-1.83.57h0a38.86,38.86,0,0,0-5.86,2.54c-.62.33-1.24.69-1.85,1.06a39.26,39.26,0,0,0-5,3.61l-.18.15c-.51.44-1,.9-1.51,1.37a.46.46,0,0,1-.07.07h0q-1.5,1.51-2.94,3.08a127.68,127.68,0,1,0,221,95.06,2.83,2.83,0,0,0,0-.29c.05-.81.09-1.62.13-2.44l.06-1.62,0-1.07c0-.88,0-1.76,0-2.64v-.15A128.68,128.68,0,0,0,501,189.4ZM300.51,207.52,332,231.15l45.09-55.94,45.08,55.94,31.51-23.63,39.59,30.06c-.36,2.53-.82,5-1.35,7.56A142.68,142.68,0,0,0,371.2,272.21c-7.93-6.34-17-13.44-30.28-19.55-22.66-10.4-49.27-13.64-79.08-9.65q-.52-2.72-.92-5.44Zm174.28,78.3c-27.61,10.44-52.18,12.11-73.05,4.95a77.25,77.25,0,0,1-22.24-12A132.35,132.35,0,0,1,489.38,255,116.81,116.81,0,0,1,474.79,285.82Zm-14.63,17.83A117.42,117.42,0,0,1,264.22,253c27.45-3.52,51.82-.53,72.44,8.93,12.56,5.76,20.84,12.39,28.84,18.8,9.45,7.57,18.39,14.71,32.92,19.7a93.73,93.73,0,0,0,30.52,4.91,128.56,128.56,0,0,0,34.39-5C462.3,301.45,461.25,302.56,460.16,303.65Z"/><path class="cls-4" d="M186.26,392.89a6.9,6.9,0,0,0,2-4.93,8.2,8.2,0,0,0-1.34-4.61,9.1,9.1,0,0,0-4.15-3.22,17.57,17.57,0,0,0-6.91-1.2H162.2v31.48h8.64V398.65h1.85a4.23,4.23,0,0,1,2.61.68,3.36,3.36,0,0,1,1.22,1.78,20.85,20.85,0,0,1,.56,3.1,33.2,33.2,0,0,0,.59,3.44,9.25,9.25,0,0,0,1.17,2.76h9.32a9.71,9.71,0,0,1-1.42-2.66,28.46,28.46,0,0,1-.82-3.44,26.32,26.32,0,0,0-.83-3.35,7.25,7.25,0,0,0-1.49-2.46,8.29,8.29,0,0,0-3-2v-.44A12.86,12.86,0,0,0,186.26,392.89Zm-8.15-1.15a5.22,5.22,0,0,1-3.17.81h-4.1V386h3.76a7.48,7.48,0,0,1,2.63.39,3,3,0,0,1,1.49,1.1,3.08,3.08,0,0,1,.46,1.73A3,3,0,0,1,178.11,391.74Z"/><path class="cls-4" d="M229.22,403.26a18.56,18.56,0,0,0,1.88-8.52,20.6,20.6,0,0,0-1.68-8.61,12.7,12.7,0,0,0-5.08-5.73,15.77,15.77,0,0,0-8.32-2,16.11,16.11,0,0,0-8.29,2,13.45,13.45,0,0,0-5.37,5.73,18.56,18.56,0,0,0-1.86,8.47,20.74,20.74,0,0,0,1.69,8.66,12.59,12.59,0,0,0,5.05,5.71,15.81,15.81,0,0,0,8.29,2,16.33,16.33,0,0,0,8.3-2A13.57,13.57,0,0,0,229.22,403.26Zm-7.71-4.05a6.49,6.49,0,0,1-2.07,3.05,5.73,5.73,0,0,1-3.66,1.12,6,6,0,0,1-3.81-1.12,5.87,5.87,0,0,1-2-3.05,16.43,16.43,0,0,1-.56-4.61,14.11,14.11,0,0,1,.63-4.44,6.31,6.31,0,0,1,2.05-3,5.69,5.69,0,0,1,3.66-1.12,6,6,0,0,1,3.85,1.12,5.83,5.83,0,0,1,2,3.05,16.63,16.63,0,0,1,.56,4.56A13.84,13.84,0,0,1,221.51,399.21Z"/><polygon class="cls-4" points="253.21 378.93 244.62 378.93 244.62 410.41 250.18 410.41 253.21 410.41 263.45 410.41 263.45 402.7 253.21 402.7 253.21 378.93"/><polygon class="cls-4" points="285.02 378.93 276.43 378.93 276.43 410.41 281.99 410.41 285.02 410.41 295.27 410.41 295.27 402.7 285.02 402.7 285.02 378.93"/><rect class="cls-4" x="308.25" y="378.93" width="8.59" height="31.47"/><polygon class="cls-4" points="357.87 378.93 349.92 378.93 349.92 398.4 349.43 398.4 347.72 394.16 340.94 378.93 331.28 378.93 331.28 410.41 339.23 410.41 339.23 391.67 339.72 391.67 341.43 395.96 347.82 410.41 357.87 410.41 357.87 378.93"/><path class="cls-4" d="M399.69,392.94H386.76v6.19h4.78A3.85,3.85,0,0,1,390,402a5.18,5.18,0,0,1-3.19,1,6.22,6.22,0,0,1-3.49-.95,6,6,0,0,1-2.2-2.81,12.23,12.23,0,0,1-.75-4.58,13.24,13.24,0,0,1,.73-4.71,5.91,5.91,0,0,1,2.17-2.91,6.17,6.17,0,0,1,3.54-1,5.31,5.31,0,0,1,3.39,1.07,6.53,6.53,0,0,1,2,3.12l7.91-1.51a14,14,0,0,0-2.44-5.61,11.22,11.22,0,0,0-4.51-3.56,15.5,15.5,0,0,0-6.37-1.22,15.69,15.69,0,0,0-8,2,13.86,13.86,0,0,0-5.44,5.68,18.18,18.18,0,0,0-1.95,8.62,21.53,21.53,0,0,0,1.61,8.71,12.61,12.61,0,0,0,4.63,5.66,13.06,13.06,0,0,0,7.27,2,8.46,8.46,0,0,0,4.44-1.17,10.71,10.71,0,0,0,3.52-3.71h.39l1.76,4.3h4.68Z"/><polygon class="cls-4" points="449.75 397.13 449.75 410.41 458.34 410.41 458.34 378.93 449.75 378.93 449.75 390.35 440.63 390.35 440.63 378.93 432.04 378.93 432.04 410.41 440.63 410.41 440.63 397.13 449.75 397.13"/><rect class="cls-4" x="472.79" y="378.93" width="8.59" height="31.47"/><polygon class="cls-4" points="504.4 410.41 514.65 410.41 514.65 402.7 504.4 402.7 504.4 378.93 495.82 378.93 495.82 410.41 501.38 410.41 504.4 410.41"/><polygon class="cls-4" points="536.22 410.41 546.47 410.41 546.47 402.7 536.22 402.7 536.22 378.93 527.63 378.93 527.63 410.41 533.19 410.41 536.22 410.41"/><path class="cls-4" d="M573.33,403.31a7.54,7.54,0,0,1-2.22.27,5.61,5.61,0,0,1-3.42-1,5.06,5.06,0,0,1-1.8-3.07l-8,1.75a10.7,10.7,0,0,0,3.78,7q3.2,2.69,9.49,2.68a16.89,16.89,0,0,0,6.61-1.19,9.32,9.32,0,0,0,4.34-3.61,10.79,10.79,0,0,0,1.54-5.93,8.7,8.7,0,0,0-1.59-5.64,7.75,7.75,0,0,0-3.75-2.59,33.61,33.61,0,0,0-5.44-1,24.46,24.46,0,0,1-3.1-.47,4.57,4.57,0,0,1-1.86-.83,1.9,1.9,0,0,1-.71-1.58,2.48,2.48,0,0,1,.47-1.54,2.65,2.65,0,0,1,1.32-.9,7.34,7.34,0,0,1,4.58.14,3.8,3.8,0,0,1,1.59,1.27,5.36,5.36,0,0,1,.83,2.05l7.51-1.27a11,11,0,0,0-1.53-4.85,9,9,0,0,0-4-3.39,15.9,15.9,0,0,0-6.85-1.27,14.71,14.71,0,0,0-6.88,1.46,9.7,9.7,0,0,0-5.47,8.78,9.8,9.8,0,0,0,1.61,6.08,7.79,7.79,0,0,0,3.81,2.76,31.66,31.66,0,0,0,5.51,1.07c1.3.16,2.3.31,3,.44a3.92,3.92,0,0,1,1.71.73,1.82,1.82,0,0,1,.68,1.51,2,2,0,0,1-.44,1.35A2.73,2.73,0,0,1,573.33,403.31Z"/><path class="cls-4" d="M179.41,443.9a1.48,1.48,0,0,1-.59.12,1.41,1.41,0,0,1-.74-.2,2.1,2.1,0,0,1-.63-.72,14,14,0,0,1-.74-1.5,8.1,8.1,0,0,0-1.34-2.47,5.46,5.46,0,0,0-1.94-1.5,5.57,5.57,0,0,0-1.09-.36,10.56,10.56,0,0,0,3.45-.53,4.93,4.93,0,0,0,2.4-1.69,4.73,4.73,0,0,0,.82-2.84,4.59,4.59,0,0,0-.83-2.79,4.9,4.9,0,0,0-2.51-1.69,13.05,13.05,0,0,0-4.15-.56H160.89v1.93a17.23,17.23,0,0,1,1.78.18.94.94,0,0,1,.57.26,1.19,1.19,0,0,1,.12.65v13.43a1.19,1.19,0,0,1-.12.65.89.89,0,0,1-.57.26,17.23,17.23,0,0,1-1.78.18v1.93h9.36v-1.93a17.39,17.39,0,0,1-1.84-.18,1.05,1.05,0,0,1-.61-.26,1,1,0,0,1-.15-.65v-6h1.42a2.67,2.67,0,0,1,1.63.45,2.44,2.44,0,0,1,.86,1.18c.17.48.37,1.17.59,2.08.06.26.12.52.17.77s.11.52.19.8a15.47,15.47,0,0,0,1,2.54,3.07,3.07,0,0,0,1.24,1.28,4.06,4.06,0,0,0,1.83.38,3.53,3.53,0,0,0,1.89-.47,3.09,3.09,0,0,0,1.13-1.27,5,5,0,0,0,.48-1.71l-.15-.12A1.55,1.55,0,0,1,179.41,443.9Zm-11.76-14.38h3.47a4.82,4.82,0,0,1,1.86.3,2.21,2.21,0,0,1,1.07.95,3.37,3.37,0,0,1,.37,1.68,3.09,3.09,0,0,1-.41,1.71,2.52,2.52,0,0,1-1.18.93,5,5,0,0,1-2,.32h-3.23Z"/><path class="cls-4" d="M205.1,428a9.49,9.49,0,0,0-4.95-1.26,9.7,9.7,0,0,0-5,1.26,8.8,8.8,0,0,0-3.41,3.56,11.13,11.13,0,0,0-1.24,5.36,11.72,11.72,0,0,0,1.17,5.36,8.34,8.34,0,0,0,3.29,3.56,9.49,9.49,0,0,0,4.93,1.26,9.83,9.83,0,0,0,5-1.26,8.42,8.42,0,0,0,3.38-3.56,11.48,11.48,0,0,0,1.2-5.36,12,12,0,0,0-1.15-5.38A8.4,8.4,0,0,0,205.1,428Zm-.74,13.12a4.81,4.81,0,0,1-1.6,2.47,4.32,4.32,0,0,1-2.7.82,4.38,4.38,0,0,1-2.74-.82,4.81,4.81,0,0,1-1.6-2.47,14.18,14.18,0,0,1-.53-4.2,13.31,13.31,0,0,1,.55-4.18,4.9,4.9,0,0,1,1.61-2.46,4.33,4.33,0,0,1,2.71-.82,4.27,4.27,0,0,1,2.71.82,4.83,4.83,0,0,1,1.59,2.44,14,14,0,0,1,.53,4.2A14.18,14.18,0,0,1,204.36,441.09Z"/><path class="cls-4" d="M233.94,439c-.36,1.68-.66,2.87-.88,3.58a3.06,3.06,0,0,1-.69,1.38,1.69,1.69,0,0,1-1.09.3h-3.71v-14a.87.87,0,0,1,.18-.65,1.43,1.43,0,0,1,.69-.26c.34-.06,1-.12,2.09-.18v-1.93H220.8v1.93a16.9,16.9,0,0,1,1.78.18.94.94,0,0,1,.58.26,1.19,1.19,0,0,1,.12.65v13.43a1.19,1.19,0,0,1-.12.65.89.89,0,0,1-.58.26,16.9,16.9,0,0,1-1.78.18v1.93h15.49l0-7.67Z"/><path class="cls-4" d="M260.69,439c-.36,1.68-.65,2.87-.87,3.58a3.05,3.05,0,0,1-.7,1.38,1.66,1.66,0,0,1-1.08.3h-3.72v-14a.87.87,0,0,1,.18-.65,1.43,1.43,0,0,1,.7-.26c.34-.06,1-.12,2.08-.18v-1.93h-9.72v1.93a17.23,17.23,0,0,1,1.78.18.94.94,0,0,1,.57.26,1.19,1.19,0,0,1,.12.65v13.43a1.19,1.19,0,0,1-.12.65.89.89,0,0,1-.57.26,17.23,17.23,0,0,1-1.78.18v1.93h15.49l0-7.67Z"/><path class="cls-4" d="M288.93,439.43a28.3,28.3,0,0,1-.88,3.29,2.77,2.77,0,0,1-.69,1.19,1.62,1.62,0,0,1-1,.29h-5.25v-6.51l5.13.17v-2.81l-5.13.14v-5.7H286a1.57,1.57,0,0,1,1,.27,2.65,2.65,0,0,1,.67,1.15c.21.58.51,1.65.89,3.2h2.26l0-7h-9.78v0h-3.47l-3.3,0v1.93a17.53,17.53,0,0,1,1.79.18.94.94,0,0,1,.57.26,1.19,1.19,0,0,1,.12.65v13.43a1.19,1.19,0,0,1-.12.65.94.94,0,0,1-.57.26,17.53,17.53,0,0,1-1.79.18v1.93h16.95l-.1-7.18Z"/><path class="cls-4" d="M316.92,428.3a13.75,13.75,0,0,0-5.85-1.13H303v1.93a16.9,16.9,0,0,1,1.78.18.94.94,0,0,1,.58.26,1.19,1.19,0,0,1,.12.65v13.43a1.19,1.19,0,0,1-.12.65.89.89,0,0,1-.58.26,16.9,16.9,0,0,1-1.78.18v1.93h7.91a13.81,13.81,0,0,0,5.83-1.14,8.39,8.39,0,0,0,3.79-3.38,11.43,11.43,0,0,0,.08-10.51A8,8,0,0,0,316.92,428.3ZM316.56,441a4.67,4.67,0,0,1-2,2.43,6.45,6.45,0,0,1-3.3.77h-1.51V429.52h1.33a6.88,6.88,0,0,1,3.45.77,4.71,4.71,0,0,1,2,2.33,10.57,10.57,0,0,1,.67,4.09A11.87,11.87,0,0,1,316.56,441Z"/><path class="cls-4" d="M352.14,427.17h-3.3v1.93a17.53,17.53,0,0,1,1.79.18.94.94,0,0,1,.57.26,1.19,1.19,0,0,1,.12.65v13.43a1.19,1.19,0,0,1-.12.65.89.89,0,0,1-.57.26,17.53,17.53,0,0,1-1.79.18v1.93h9.28v-1.93a16,16,0,0,1-1.79-.18,1,1,0,0,1-.57-.26,1,1,0,0,1-.15-.65V430.19a1,1,0,0,1,.15-.65,1.08,1.08,0,0,1,.57-.26,16,16,0,0,1,1.79-.18v-1.93h-6Z"/><path class="cls-4" d="M384.19,442.31a6.14,6.14,0,0,1-2,1.15,7.21,7.21,0,0,1-2.43.41,6,6,0,0,1-3.11-.76,4.77,4.77,0,0,1-2-2.31,10,10,0,0,1-.68-3.94,12.86,12.86,0,0,1,.57-4.15,5.19,5.19,0,0,1,1.63-2.46,3.92,3.92,0,0,1,2.48-.82,3.4,3.4,0,0,1,2,.61,5.37,5.37,0,0,1,1.51,1.7,17.59,17.59,0,0,1,1.28,2.86h2.33v-7.83h-2.33l-1.05,2.13a3.56,3.56,0,0,0-.81-1,4.92,4.92,0,0,0-1.61-.89,6.39,6.39,0,0,0-2.05-.32A7.85,7.85,0,0,0,373.7,428a9,9,0,0,0-3.14,3.6,11.46,11.46,0,0,0-1.18,5.28,11.83,11.83,0,0,0,1.18,5.51,8.23,8.23,0,0,0,3.32,3.49,10.1,10.1,0,0,0,5,1.21,8.57,8.57,0,0,0,3.56-.7,5.6,5.6,0,0,0,2.51-2.13,6.5,6.5,0,0,0,1-3.57l-.24-.16A7.19,7.19,0,0,1,384.19,442.31Z"/><path class="cls-4" d="M412.2,439.43a28.3,28.3,0,0,1-.88,3.29,2.77,2.77,0,0,1-.69,1.19,1.62,1.62,0,0,1-1,.29h-5.25v-6.51l5.13.17v-2.81l-5.13.14v-5.7h4.95a1.57,1.57,0,0,1,1,.27,2.65,2.65,0,0,1,.67,1.15c.21.58.51,1.65.89,3.2h2.26l0-7h-9.78v0h-3.47l-3.3,0v1.93a17.53,17.53,0,0,1,1.79.18.94.94,0,0,1,.57.26,1.19,1.19,0,0,1,.12.65v13.43a1.19,1.19,0,0,1-.12.65.94.94,0,0,1-.57.26,17.53,17.53,0,0,1-1.79.18v1.93h16.95l-.09-7.18Z"/><path class="cls-4" d="M457.18,442.31a6.14,6.14,0,0,1-2,1.15,7.21,7.21,0,0,1-2.43.41,6,6,0,0,1-3.11-.76,4.77,4.77,0,0,1-1.95-2.31,10,10,0,0,1-.68-3.94,12.86,12.86,0,0,1,.57-4.15,5.19,5.19,0,0,1,1.63-2.46,3.92,3.92,0,0,1,2.48-.82,3.44,3.44,0,0,1,2,.61,5.49,5.49,0,0,1,1.51,1.7,17.59,17.59,0,0,1,1.28,2.86h2.33v-7.83h-2.33l-1,2.13a3.56,3.56,0,0,0-.81-1,4.92,4.92,0,0,0-1.61-.89,6.43,6.43,0,0,0-2.05-.32,7.83,7.83,0,0,0-4.32,1.27,9,9,0,0,0-3.14,3.6,11.46,11.46,0,0,0-1.18,5.28,11.83,11.83,0,0,0,1.18,5.51,8.23,8.23,0,0,0,3.32,3.49,10.1,10.1,0,0,0,5,1.21,8.57,8.57,0,0,0,3.56-.7,5.6,5.6,0,0,0,2.51-2.13,6.58,6.58,0,0,0,1-3.57l-.24-.16A7.41,7.41,0,0,1,457.18,442.31Z"/><path class="cls-4" d="M489.1,443.9a1.52,1.52,0,0,1-.59.12,1.39,1.39,0,0,1-.74-.2,2.1,2.1,0,0,1-.63-.72,14,14,0,0,1-.74-1.5,7.91,7.91,0,0,0-1.35-2.47,5.34,5.34,0,0,0-1.93-1.5,5.81,5.81,0,0,0-1.09-.36,10.6,10.6,0,0,0,3.45-.53,5,5,0,0,0,2.4-1.69,4.72,4.72,0,0,0,.81-2.84,4.53,4.53,0,0,0-.83-2.79,4.87,4.87,0,0,0-2.5-1.69,13.12,13.12,0,0,0-4.16-.56H470.57v1.93a17.53,17.53,0,0,1,1.79.18.94.94,0,0,1,.57.26,1.19,1.19,0,0,1,.12.65v13.43a1.19,1.19,0,0,1-.12.65.89.89,0,0,1-.57.26,17.53,17.53,0,0,1-1.79.18v1.93h9.37v-1.93a18,18,0,0,1-1.85-.18,1.05,1.05,0,0,1-.6-.26,1,1,0,0,1-.15-.65v-6h1.42a2.67,2.67,0,0,1,1.63.45,2.44,2.44,0,0,1,.86,1.18c.17.48.37,1.17.59,2.08.06.26.11.52.16.77s.12.52.2.8a14.63,14.63,0,0,0,1,2.54,3,3,0,0,0,1.24,1.28,4,4,0,0,0,1.83.38,3.47,3.47,0,0,0,1.88-.47,3,3,0,0,0,1.14-1.27,5,5,0,0,0,.48-1.71l-.15-.12A1.55,1.55,0,0,1,489.1,443.9Zm-11.76-14.38h3.47a4.82,4.82,0,0,1,1.86.3,2.21,2.21,0,0,1,1.07.95,3.48,3.48,0,0,1,.36,1.68,3.09,3.09,0,0,1-.4,1.71,2.57,2.57,0,0,1-1.18.93,5,5,0,0,1-1.95.32h-3.23Z"/><path class="cls-4" d="M514.6,439.43a31.24,31.24,0,0,1-.87,3.29,2.77,2.77,0,0,1-.7,1.19,1.61,1.61,0,0,1-1,.29h-5.26v-6.51l5.14.17v-2.81l-5.14.14v-5.7h4.95a1.6,1.6,0,0,1,1,.27,2.65,2.65,0,0,1,.66,1.15c.21.58.51,1.65.89,3.2h2.27l0-7h-9.79v0h-3.47l-3.29,0v1.93a17.23,17.23,0,0,1,1.78.18.94.94,0,0,1,.57.26,1.19,1.19,0,0,1,.12.65v13.43a1.19,1.19,0,0,1-.12.65.94.94,0,0,1-.57.26,17.23,17.23,0,0,1-1.78.18v1.93h16.94l-.09-7.18Z"/><path class="cls-4" d="M548,444.68a3.78,3.78,0,0,1-1-.25,1.51,1.51,0,0,1-.62-.61,9.47,9.47,0,0,1-.62-1.43l-6.1-15.31h-3.41l-5.71,14.16a.25.25,0,0,1,0,.07.25.25,0,0,0,0,.08,15.68,15.68,0,0,1-.89,2,2.27,2.27,0,0,1-.82.88,4.59,4.59,0,0,1-1.28.45v1.93h7.91v-1.9a4.92,4.92,0,0,1-1.69-.42,1,1,0,0,1-.6-.82,3.5,3.5,0,0,1,.27-1.33l.49-1.35h6.49l.93,2.56a1.39,1.39,0,0,1,.14.79c-.05.16-.25.28-.58.36a11.66,11.66,0,0,1-1.61.21v1.9h8.94v-1.93h-.11Zm-13.29-6.13,1.34-3.64,1.11-3.2,1.09,3.22,1.31,3.62Z"/><path class="cls-4" d="M579.47,427.17h-3.62l-5,12.19-5.08-12.19h-7.4v1.93a19.52,19.52,0,0,1,2.45.52v12.77a3.74,3.74,0,0,1-.15,1.22,1.27,1.27,0,0,1-.7.66,6.23,6.23,0,0,1-1.72.44v1.93h7.91v-1.93a6.6,6.6,0,0,1-1.76-.44,1.32,1.32,0,0,1-.74-.68,3.13,3.13,0,0,1-.19-1.2V432.06l6.29,14.68h.66l6.31-15v11.86a1.35,1.35,0,0,1-.1.65c-.07.12-.26.2-.55.26a16.32,16.32,0,0,1-1.76.18v1.93h9.24v-1.93a16.54,16.54,0,0,1-1.8-.18.88.88,0,0,1-.56-.26,1.19,1.19,0,0,1-.12-.65V430.19a1.19,1.19,0,0,1,.12-.65.94.94,0,0,1,.56-.26,16.54,16.54,0,0,1,1.8-.18v-1.93h-4Z"/></svg>