<svg xmlns="http://www.w3.org/2000/svg" viewBox="0 0 1600 295.34"><defs><style>.cls-1{fill:#71bed3;}.cls-2{fill:#87725e;}.cls-3{fill:#7fae65;}.cls-4{fill:#3e3b39;}</style></defs><g id="Layer_2" data-name="Layer 2"><g id="Layer_1-2" data-name="Layer 1"><path class="cls-1" d="M190.93,6.41c1,.29,1.95.6,2.92.92C192.88,7,191.91,6.7,190.93,6.41Z"/><path class="cls-1" d="M295.34,147.54a147.76,147.76,0,0,0-4.41-35.93,148.36,148.36,0,0,1,4.41,36Z"/><path class="cls-1" d="M187.36,5.37c1,.29,2.09.59,3.13.9C189.45,6,188.41,5.66,187.36,5.37Z"/><path class="cls-1" d="M295.27,152.1c0,.62,0,1.25-.07,1.87C295.23,153.35,295.25,152.72,295.27,152.1Z"/><path class="cls-1" d="M289.07,104.86c.31,1,.62,2.07.9,3.11C289.68,106.93,289.38,105.89,289.07,104.86Z"/><path class="cls-1" d="M281.38,84.81c.41.87.81,1.76,1.21,2.64C282.19,86.56,281.79,85.68,281.38,84.81Z"/><path class="cls-1" d="M295.34,147.81c0,1,0,2,0,3C295.33,149.84,295.34,148.83,295.34,147.81Z"/><path class="cls-1" d="M290,108.23c.31,1.11.6,2.22.88,3.34C290.64,110.45,290.35,109.34,290,108.23Z"/><path class="cls-1" d="M285.64,94.82c.33.86.65,1.73,1,2.59C286.29,96.55,286,95.68,285.64,94.82Z"/><path class="cls-1" d="M201.31,10c.86.33,1.71.67,2.56,1C203,10.68,202.17,10.34,201.31,10Z"/><path class="cls-1" d="M197.92,8.73l2.61,1Z"/><path class="cls-1" d="M286.87,98.16c.33.9.64,1.81.94,2.72C287.51,100,287.2,99.06,286.87,98.16Z"/><path class="cls-1" d="M288,101.51c.31,1,.62,1.92.91,2.89C288.64,103.43,288.33,102.47,288,101.51Z"/><path class="cls-1" d="M282.9,88.15c.37.84.73,1.69,1.09,2.54C283.63,89.84,283.27,89,282.9,88.15Z"/><path class="cls-1" d="M194.45,7.53l2.74.94Z"/><path class="cls-1" d="M211,14.2c1,.46,1.91.92,2.86,1.4Z"/><path class="cls-1" d="M295,157.12c0-.11,0-.22,0-.33C295.05,156.9,295,157,295,157.12Z"/><path class="cls-1" d="M279.62,81.21a148.17,148.17,0,0,0-65.5-65.5,149.12,149.12,0,0,1,65.5,65.5Z"/><path class="cls-1" d="M147.8,0h-.08a148.42,148.42,0,0,1,36,4.41A147.78,147.78,0,0,0,147.8,0Z"/><path class="cls-1" d="M284.32,91.48c.34.84.68,1.69,1,2.53C285,93.17,284.66,92.32,284.32,91.48Z"/><path class="cls-1" d="M145.33,0l2.1,0Z"/><path class="cls-1" d="M183.76,4.42c1.13.28,2.25.57,3.37.88C186,5,184.89,4.7,183.76,4.42Z"/><path class="cls-1" d="M143.25.07l.93,0Z"/><path class="cls-1" d="M52.86,36.38a44.12,44.12,0,0,1,6.77-2.94h0c.7-.24,1.4-.45,2.11-.65l.64-.18c.52-.14,1-.27,1.57-.39l.66-.15q1-.21,2-.39l.2,0c.72-.12,1.45-.22,2.18-.3l.64-.07c.54-.05,1.08-.1,1.61-.13l.69,0c.63,0,1.26-.05,1.88-.05h.41c.51,0,1,0,1.53,0l.81,0,1.18.09,1.22.1a43.29,43.29,0,0,1,4.8.8,44.45,44.45,0,0,1,7,2.18,45,45,0,0,1,4.39,2.07q1.06.57,2.1,1.2l2,1.28,1.92,1.47.74.56.53.43a5.89,5.89,0,0,1,.61.51l.88.82.88.83a19.71,19.71,0,0,1,1.71,1.71c.55.61,1.08,1.25,1.62,1.86a12.08,12.08,0,0,1,.75,1c.23.34.46.68.71,1a18.63,18.63,0,0,1,1.34,2.06l.61,1.07.6,1.07c.37.73.68,1.49,1,2.24l.49,1.12.39,1.16c.25.78.52,1.55.75,2.34a41.29,41.29,0,0,1,.92,4.79,35.84,35.84,0,0,1,.31,4.86,36.79,36.79,0,0,1-1.41,9.57A35.6,35.6,0,0,1,113,83.82a33.45,33.45,0,0,1-2.28,4.26c-.2.35-.41.69-.64,1-.67,1-1.43,1.93-2.16,2.89-.5.62-1.08,1.18-1.61,1.77a17.3,17.3,0,0,1-1.73,1.69c-.62.53-1.2,1.11-1.87,1.58l-2,1.41-2.13,1.21c-.71.39-1.48.68-2.22,1s-1.38.53-2.09.75l-.32.11c-.68.21-1.36.39-2,.55l-.4.08c-.69.15-1.39.28-2.09.38l-.29,0c-.7.1-1.41.17-2.12.2h-.13c-.48,0-1,0-1.45,0l-.53,0q-.43,0-.87,0c-.47,0-1-.06-1.42-.11-.28,0-.56,0-.84-.09-.51-.07-1-.15-1.52-.25l-.7-.13c-.74-.16-1.46-.34-2.18-.56a28.33,28.33,0,0,1-8.54-4.29,22.73,22.73,0,0,1-1.87-1.5L65.18,94.2c-.54-.61-1.08-1.21-1.59-1.84s-1-1.31-1.38-2a22.43,22.43,0,0,1-.54-22.69c.25-.43.5-.86.77-1.27a21.41,21.41,0,0,1,2.18-2.82,19.25,19.25,0,0,1,1.69-1.69,17.48,17.48,0,0,1,6.23-3.57h0c.42-.14.85-.26,1.27-.37l.42-.09c.29-.07.59-.13.88-.18l.49-.07c.28,0,.56-.08.84-.1l.5-.05.87,0h.43q.84,0,1.68.09l.35,0c.57.07,1.14.15,1.7.26a18.84,18.84,0,0,1,4.45,1.63,15.89,15.89,0,0,1,2,1.23,15.26,15.26,0,0,1,1.82,1.5,13,13,0,0,1,2.32,2.7,14.54,14.54,0,0,1,2.17,5.5,14.36,14.36,0,0,1-1.54,9.13,14.77,14.77,0,0,1-2.9,3.63,11.41,11.41,0,0,1-3,1.9,11.3,11.3,0,0,1-1.1.42c-.34.11-.68.19-1,.27l-.3.06c-.26,0-.52.09-.79.12l-.28,0c-.33,0-.67,0-1,0h0c-.15,0-.29,0-.43,0V84.26l-.25,0h.46l.35,0,.59,0,.33,0,.62-.12.28-.07a8.94,8.94,0,0,0,.88-.27,9.44,9.44,0,0,0,3.28-2.06,13.13,13.13,0,0,0,1.29-1.49c.19-.27.38-.54.55-.82s.33-.57.48-.86A12.36,12.36,0,0,0,92,76.62c.09-.32.17-.63.24-1a12.71,12.71,0,0,0,.25-1.94,11.57,11.57,0,0,0-.08-2c0-.32-.09-.64-.16-1a11.48,11.48,0,0,0-3.92-6.47,13.63,13.63,0,0,0-2.4-1.68,13.35,13.35,0,0,0-1.76-.82,15.07,15.07,0,0,0-2.79-.8h0c-.37-.06-.75-.1-1.12-.13l-.34,0-.81,0H78.7c-.34,0-.68,0-1,0h-.16a11,11,0,0,0-1.15.15l-.31.06c-.29.06-.58.12-.86.2l-.33.09c-.37.11-.74.23-1.1.37a13,13,0,0,0-2.56,1.26,13.92,13.92,0,0,0-1.52,1.13c-.24.2-.48.41-.71.64a17.51,17.51,0,0,0-1.3,1.41,18.68,18.68,0,0,0-2.14,3.21A17.7,17.7,0,0,0,64.15,73a18,18,0,0,0-.42,7.1,18,18,0,0,0,.48,2.32,17,17,0,0,0,2.35,5.12c.17.26.36.51.56.76l.57.74c.41.47.86.91,1.28,1.37l1.46,1.26a8.52,8.52,0,0,0,1,.77c.18.12.36.23.53.36a22.55,22.55,0,0,0,6.93,3.12c.55.14,1.11.26,1.67.35l.47.08c.44.07.89.12,1.33.16l.39,0c.56,0,1.13.05,1.69.05h.29c.5,0,1,0,1.47-.08l.32,0c.55-.06,1.09-.13,1.63-.23l.35-.07q.74-.13,1.47-.33l.2,0c.53-.14,1-.31,1.57-.49l.36-.13c.52-.2,1-.4,1.54-.63h0l.84-.42a6.47,6.47,0,0,0,.82-.44l1.58-1,1.47-1.14c.5-.37.91-.85,1.38-1.26A12.19,12.19,0,0,0,101,89c.41-.49.86-1,1.23-1.46.18-.27.37-.53.55-.79a17.83,17.83,0,0,0,1.53-2.41c.32-.55.61-1.11.89-1.68s.53-1.15.76-1.73a28.1,28.1,0,0,0,1.85-8.27q.09-1.41.06-2.82a29.13,29.13,0,0,0-.4-3.73,32,32,0,0,0-.87-3.63c-.19-.59-.43-1.16-.65-1.75l-.32-.87-.42-.83c-.28-.55-.53-1.12-.83-1.66l-1-1.57a8.66,8.66,0,0,0-.7-1l-.38-.49c-.13-.16-.25-.32-.37-.49s-.5-.65-.78-.95a27.49,27.49,0,0,0-2.67-2.61L97.08,49a7.17,7.17,0,0,0-.76-.57c-.26-.18-.53-.35-.78-.54L94,46.75l-1.66-.92A34.32,34.32,0,0,0,78,41.58c-.66,0-1.32,0-2-.06s-1.15,0-1.73,0l-.22,0c-.51,0-1,.06-1.53.11l-.59.07-1.15.14-.66.11-1.07.2-.67.14-1.06.25-.64.17-1.13.34-.54.16c-.55.19-1.1.38-1.63.59a34.14,34.14,0,0,0-5,2.41c-.53.32-1.05.64-1.56,1a32.77,32.77,0,0,0-4.2,3.32c-.17.15-.33.31-.49.47l-.31.3h0l-.12.11-.25.25C50.24,53,49,54.25,47.84,55.54A135.55,135.55,0,0,0,12,153.48l47-35.72,34.44,25.83,54.18-67.22,54.18,67.22,34.45-25.83,47,35.72A135.92,135.92,0,0,0,84.72,27.27a46.55,46.55,0,0,0-5.24-.87,49,49,0,0,0-5.27-.28A50.36,50.36,0,0,0,61.72,27.7a149.82,149.82,0,0,0-16.8,14.08,46.49,46.49,0,0,1,5.79-4.18C51.41,37.18,52.13,36.77,52.86,36.38Z"/><path class="cls-1" d="M204.64,11.35c.86.36,1.71.72,2.57,1.1C206.36,12.07,205.5,11.71,204.64,11.35Z"/><path class="cls-1" d="M279.75,81.46c.47.94.93,1.88,1.38,2.83C280.68,83.34,280.22,82.39,279.75,81.46Z"/><path class="cls-1" d="M207.88,12.75,210.55,14Z"/><path class="cls-2" d="M199.81,159.89l-52.14-64.7-52.14,64.7L59.09,132.56,13.31,167.32c.3,2.1.65,4.2,1.06,6.28,34.48-4.61,65.26-.86,91.46,11.17,15.4,7.06,25.85,15.28,35,22.61a165,165,0,0,1,139.63-31.31q.93-4.35,1.57-8.74l-45.8-34.77Z"/><path class="cls-3" d="M150.45,214.9a89.47,89.47,0,0,0,25.72,13.95c24.14,8.27,52.56,6.34,84.49-5.73a135,135,0,0,0,16.87-35.61A153.13,153.13,0,0,0,150.45,214.9Z"/><path class="cls-3" d="M172.34,240c-16.82-5.76-27.14-14-38.08-22.78-9.26-7.41-18.83-15.07-33.35-21.74-23.85-10.93-52-14.4-83.79-10.33a135,135,0,0,0,34.49,58.57c53,53,139.16,53,192.13,0q1.88-1.89,3.67-3.83a148.88,148.88,0,0,1-39.78,5.8A108.15,108.15,0,0,1,172.34,240Z"/><path class="cls-4" d="M207.21,12.45l.67.3Z"/><path class="cls-4" d="M203.87,11l.77.32Z"/><path class="cls-4" d="M144.18,0l1.15,0Z"/><path class="cls-4" d="M147.67,0h0Z"/><path class="cls-4" d="M210.55,14l.49.23Z"/><path class="cls-4" d="M61.43,27.77l.29-.07A146.86,146.86,0,0,1,143.25.07,146.43,146.43,0,0,0,61.43,27.77Z"/><path class="cls-4" d="M183.74,4.41h0Z"/><path class="cls-4" d="M200.53,9.7l.78.31Z"/><path class="cls-4" d="M197.19,8.47l.73.26Z"/><path class="cls-4" d="M187.13,5.3l.23.07Z"/><path class="cls-4" d="M193.85,7.33l.6.2Z"/><path class="cls-4" d="M190.49,6.27l.44.14Z"/><path class="cls-4" d="M295.34,147.67v0Z"/><path class="cls-4" d="M290,108a2.5,2.5,0,0,1,.07.26A2.5,2.5,0,0,0,290,108Z"/><path class="cls-4" d="M290.92,111.57v0Z"/><path class="cls-4" d="M287.81,100.88l.21.63Z"/><path class="cls-4" d="M288.93,104.4c.05.16.1.31.14.46C289,104.71,289,104.56,288.93,104.4Z"/><path class="cls-4" d="M295.31,150.85c0,.42,0,.83,0,1.25C295.28,151.68,295.3,151.27,295.31,150.85Z"/><path class="cls-4" d="M295.2,154c0,.94-.08,1.88-.14,2.82C295.11,155.85,295.16,154.91,295.2,154Z"/><path class="cls-4" d="M282.59,87.45c.1.23.21.46.31.7C282.8,87.91,282.69,87.68,282.59,87.45Z"/><path class="cls-4" d="M281.13,84.29c.08.17.17.34.25.52C281.3,84.63,281.21,84.46,281.13,84.29Z"/><path class="cls-4" d="M286.61,97.41c.09.25.18.5.26.75C286.79,97.91,286.7,97.66,286.61,97.41Z"/><path class="cls-4" d="M279.62,81.21c0,.08.09.16.13.25C279.71,81.37,279.66,81.29,279.62,81.21Z"/><path class="cls-4" d="M213.9,15.6l.22.11Z"/><path class="cls-4" d="M285.33,94c.11.27.21.54.31.81C285.54,94.55,285.44,94.28,285.33,94Z"/><path class="cls-4" d="M284,90.69l.33.79Z"/><path class="cls-4" d="M290.93,111.61v0c-.28-1.12-.57-2.23-.88-3.34A2.5,2.5,0,0,0,290,108c-.28-1-.59-2.08-.9-3.11,0-.15-.09-.3-.14-.46-.29-1-.6-1.93-.91-2.89l-.21-.63c-.3-.91-.61-1.82-.94-2.72-.08-.25-.17-.5-.26-.75-.32-.86-.64-1.73-1-2.59-.1-.27-.2-.54-.31-.81-.33-.84-.67-1.69-1-2.53l-.33-.79c-.36-.85-.72-1.7-1.09-2.54-.1-.24-.21-.47-.31-.7-.4-.88-.8-1.77-1.21-2.64-.08-.18-.17-.35-.25-.52-.45-1-.91-1.89-1.38-2.83,0-.09-.09-.17-.13-.25a149.12,149.12,0,0,0-65.5-65.5l-.22-.11c-1-.48-1.9-.94-2.86-1.4l-.49-.23-2.67-1.22-.67-.3c-.86-.38-1.71-.74-2.57-1.1l-.77-.32c-.85-.35-1.7-.69-2.56-1l-.78-.31-2.61-1-.73-.26-2.74-.94-.6-.2c-1-.32-1.95-.63-2.92-.92l-.44-.14c-1-.31-2.08-.61-3.13-.9l-.23-.07c-1.12-.31-2.24-.6-3.37-.88h0a148.42,148.42,0,0,0-36-4.41h-.29l-2.1,0-1.15,0-.93,0A146.86,146.86,0,0,0,61.72,27.7a50.36,50.36,0,0,1,12.49-1.58,49,49,0,0,1,5.27.28,46.55,46.55,0,0,1,5.24.87A135.79,135.79,0,0,1,283.34,153.48l-47-35.72-34.45,25.83L147.67,76.37,93.49,143.59,59.05,117.76,12,153.48A135.55,135.55,0,0,1,47.84,55.54c1.19-1.29,2.4-2.56,3.65-3.82l.25-.25.12-.11h0l.31-.3c.16-.16.32-.32.49-.47a32.77,32.77,0,0,1,4.2-3.32c.51-.35,1-.67,1.56-1a34.14,34.14,0,0,1,5-2.41c.53-.21,1.08-.4,1.63-.59l.54-.16,1.13-.34.64-.17,1.06-.25.67-.14,1.07-.2.66-.11L72,41.76l.59-.07c.51,0,1-.09,1.53-.11l.22,0c.58,0,1.16,0,1.73,0s1.33,0,2,.06a34.32,34.32,0,0,1,14.32,4.25l1.66.92,1.55,1.09c.25.19.52.36.78.54a7.17,7.17,0,0,1,.76.57l1.44,1.25a27.49,27.49,0,0,1,2.67,2.61c.28.3.53.63.78.95s.24.33.37.49l.38.49a8.66,8.66,0,0,1,.7,1l1,1.57c.3.54.55,1.11.83,1.66l.42.83.32.87c.22.59.46,1.16.65,1.75a32,32,0,0,1,.87,3.63,29.13,29.13,0,0,1,.4,3.73q0,1.41-.06,2.82A28.1,28.1,0,0,1,106,80.88c-.23.58-.49,1.16-.76,1.73s-.57,1.13-.89,1.68a17.83,17.83,0,0,1-1.53,2.41c-.18.26-.37.52-.55.79-.37.51-.82,1-1.23,1.46a12.19,12.19,0,0,1-1.28,1.39c-.47.41-.88.89-1.38,1.26L96.9,92.74l-1.58,1a6.47,6.47,0,0,1-.82.44l-.84.42h0c-.51.23-1,.43-1.54.63l-.36.13c-.52.18-1,.35-1.57.49l-.2,0q-.73.2-1.47.33l-.35.07c-.54.1-1.08.17-1.63.23l-.32,0c-.48,0-1,.07-1.47.08h-.29c-.56,0-1.13,0-1.69-.05l-.39,0c-.44,0-.89-.09-1.33-.16l-.47-.08c-.56-.09-1.12-.21-1.67-.35A22.55,22.55,0,0,1,72,92.82c-.17-.13-.35-.24-.53-.36a8.52,8.52,0,0,1-1-.77L69,90.43c-.42-.46-.87-.9-1.28-1.37l-.57-.74c-.2-.25-.39-.5-.56-.76a17,17,0,0,1-2.35-5.12,18,18,0,0,1-.48-2.32,17.68,17.68,0,0,1,1.81-10.68,18.68,18.68,0,0,1,2.14-3.21A17.51,17.51,0,0,1,69,64.82c.23-.23.47-.44.71-.64a13.92,13.92,0,0,1,1.52-1.13,13,13,0,0,1,2.56-1.26c.36-.14.73-.26,1.1-.37l.33-.09c.28-.08.57-.14.86-.2l.31-.06a11,11,0,0,1,1.15-.15h.16c.34,0,.68,0,1,0h.36l.81,0,.34,0c.37,0,.75.07,1.12.13h0a15.07,15.07,0,0,1,2.79.8,13.35,13.35,0,0,1,1.76.82,13.63,13.63,0,0,1,2.4,1.68,11.48,11.48,0,0,1,3.92,6.47c.07.32.12.64.16,1a11.57,11.57,0,0,1,.08,2,12.71,12.71,0,0,1-.25,1.94c-.07.32-.15.63-.24,1a12.36,12.36,0,0,1-.71,1.83c-.15.29-.31.58-.48.86s-.36.55-.55.82a13.13,13.13,0,0,1-1.29,1.49,9.44,9.44,0,0,1-3.28,2.06,8.94,8.94,0,0,1-.88.27l-.28.07-.62.12-.33,0-.59,0-.35,0h-.46l.25,0v1.67c.14,0,.28,0,.43,0h0c.33,0,.67,0,1,0l.28,0c.27,0,.53-.07.79-.12l.3-.06c.34-.08.68-.16,1-.27a11.3,11.3,0,0,0,1.1-.42,11.41,11.41,0,0,0,3-1.9,14.77,14.77,0,0,0,2.9-3.63,14.36,14.36,0,0,0,1.54-9.13,14.54,14.54,0,0,0-2.17-5.5,13,13,0,0,0-2.32-2.7,15.26,15.26,0,0,0-1.82-1.5,15.89,15.89,0,0,0-2-1.23A18.84,18.84,0,0,0,82,57.79c-.56-.11-1.13-.19-1.7-.26l-.35,0q-.84-.08-1.68-.09h-.43l-.87,0-.5.05c-.28,0-.56.06-.84.1l-.49.07c-.29.05-.59.11-.88.18l-.42.09c-.42.11-.85.23-1.27.37h0a17.48,17.48,0,0,0-6.23,3.57,19.25,19.25,0,0,0-1.69,1.69,21.41,21.41,0,0,0-2.18,2.82c-.27.41-.52.84-.77,1.27a22.66,22.66,0,0,0,.54,22.69c.42.7.92,1.34,1.38,2s1,1.23,1.59,1.84l1.73,1.64a22.73,22.73,0,0,0,1.87,1.5,28.33,28.33,0,0,0,8.54,4.29c.72.22,1.44.4,2.18.56l.7.13c.51.1,1,.18,1.52.25.28,0,.56.06.84.09.47,0,1,.09,1.42.11q.43,0,.87,0l.53,0c.48,0,1,0,1.45,0H87c.71,0,1.42-.1,2.12-.2l.29,0c.7-.1,1.4-.23,2.09-.38l.4-.08c.68-.16,1.36-.34,2-.55l.32-.11c.71-.22,1.41-.47,2.09-.75s1.51-.63,2.22-1l2.13-1.21,2-1.41c.67-.47,1.25-1,1.87-1.58a17.3,17.3,0,0,0,1.73-1.69c.53-.59,1.11-1.15,1.61-1.77.73-1,1.49-1.89,2.16-2.89.23-.33.44-.67.64-1A33.45,33.45,0,0,0,113,83.82a35.6,35.6,0,0,0,1.65-4.54A36.79,36.79,0,0,0,116,69.71a35.84,35.84,0,0,0-.31-4.86,41.29,41.29,0,0,0-.92-4.79c-.23-.79-.5-1.56-.75-2.34l-.39-1.16-.49-1.12c-.34-.75-.65-1.51-1-2.24l-.6-1.07-.61-1.07A18.63,18.63,0,0,0,109.59,49c-.25-.33-.48-.67-.71-1a12.08,12.08,0,0,0-.75-1c-.54-.61-1.07-1.25-1.62-1.86a19.71,19.71,0,0,0-1.71-1.71l-.88-.83-.88-.82a5.89,5.89,0,0,0-.61-.51l-.53-.43-.74-.56-1.92-1.47-2-1.28q-1-.63-2.1-1.2a45,45,0,0,0-4.39-2.07,44.45,44.45,0,0,0-7-2.18,43.29,43.29,0,0,0-4.8-.8l-1.22-.1-1.18-.09-.81,0c-.51,0-1,0-1.53,0H73.8c-.62,0-1.25,0-1.88.05l-.69,0c-.53,0-1.07.08-1.61.13l-.64.07c-.73.08-1.46.18-2.18.3l-.2,0q-1,.18-2,.39l-.66.15c-.52.12-1.05.25-1.57.39l-.64.18c-.71.2-1.41.41-2.11.65h0a44.12,44.12,0,0,0-6.77,2.94c-.73.39-1.45.8-2.15,1.22a46.49,46.49,0,0,0-5.79,4.18l-.21.18c-.59.51-1.18,1-1.75,1.59l-.08.07h0q-1.74,1.75-3.41,3.55A147.66,147.66,0,0,0,147.67,295.34,147.67,147.67,0,0,0,295,157.12c0-.11,0-.22,0-.33.06-.94.1-1.88.14-2.82,0-.62.05-1.25.07-1.87,0-.42,0-.83,0-1.25,0-1,0-2,0-3v-.18A148.36,148.36,0,0,0,290.93,111.61Zm-231.84,21,36.44,27.33,52.14-64.7,52.14,64.7,36.44-27.33,45.8,34.77q-.65,4.39-1.57,8.74a165,165,0,0,0-139.63,31.31c-9.17-7.33-19.62-15.55-35-22.61-26.2-12-57-15.78-91.46-11.17-.41-2.08-.76-4.18-1.06-6.28Zm201.57,90.56c-31.93,12.07-60.35,14-84.49,5.73a89.47,89.47,0,0,1-25.72-13.95,153.13,153.13,0,0,1,127.08-27.39A135,135,0,0,1,260.66,223.12Zm-16.92,20.62c-53,53-139.16,53-192.13,0a135,135,0,0,1-34.49-58.57c31.75-4.07,59.94-.6,83.79,10.33,14.52,6.67,24.09,14.33,33.35,21.74,10.94,8.75,21.26,17,38.08,22.78a108.15,108.15,0,0,0,35.29,5.69,148.88,148.88,0,0,0,39.78-5.8Q245.61,241.84,243.74,243.74Z"/><path class="cls-4" d="M437.62,89.65a20.15,20.15,0,0,0,5.71-14.42,23.93,23.93,0,0,0-3.92-13.49q-3.93-5.93-12.14-9.42t-20.2-3.5H367.25V140.9h25.26V106.49h5.43c3.33,0,5.87.67,7.64,2a9.81,9.81,0,0,1,3.56,5.21,60.37,60.37,0,0,1,1.64,9.07,92.68,92.68,0,0,0,1.72,10.06,26.4,26.4,0,0,0,3.43,8.07h27.26a27.13,27.13,0,0,1-4.14-7.78,80.17,80.17,0,0,1-2.43-10.07,76.49,76.49,0,0,0-2.42-9.78,20.86,20.86,0,0,0-4.36-7.2,24.23,24.23,0,0,0-8.92-5.86V98.93Q431.92,95.64,437.62,89.65Zm-23.84-3.36c-2.09,1.58-5.18,2.36-9.27,2.36h-12V69.38h11a21.91,21.91,0,0,1,7.7,1.14,8.7,8.7,0,0,1,4.36,3.21,9.08,9.08,0,0,1,1.35,5.07C416.92,82.23,415.87,84.72,413.78,86.29Z"/><path class="cls-4" d="M563.31,120q5.49-10.77,5.5-24.91,0-14.41-4.93-25.19A37.09,37.09,0,0,0,549,53.11q-9.93-6-24.34-6-14,0-24.27,6a39.5,39.5,0,0,0-15.7,16.77,54.33,54.33,0,0,0-5.43,24.77q0,14.55,4.93,25.33A36.8,36.8,0,0,0,499,136.68q9.86,5.94,24.27,5.93,14,0,24.27-5.93A39.5,39.5,0,0,0,563.31,120Zm-22.55-11.85a18.85,18.85,0,0,1-6.07,8.93q-4.14,3.28-10.71,3.28-7,0-11.13-3.28a17.1,17.1,0,0,1-5.78-8.93,48.35,48.35,0,0,1-1.64-13.48,41.14,41.14,0,0,1,1.85-13,18.36,18.36,0,0,1,6-8.84q4.14-3.28,10.7-3.29,7.14,0,11.28,3.29A17.07,17.07,0,0,1,541,81.73a48.22,48.22,0,0,1,1.64,13.34A40.45,40.45,0,0,1,540.76,108.13Z"/><polygon class="cls-4" points="633.47 48.82 608.35 48.82 608.35 140.9 624.62 140.9 633.47 140.9 663.45 140.9 663.45 118.34 633.47 118.34 633.47 48.82"/><polygon class="cls-4" points="726.54 48.82 701.41 48.82 701.41 140.9 717.69 140.9 726.54 140.9 756.51 140.9 756.51 118.34 726.54 118.34 726.54 48.82"/><rect class="cls-4" x="794.49" y="48.82" width="25.12" height="92.07"/><polygon class="cls-4" points="939.66 48.82 916.39 48.82 916.39 105.78 914.96 105.78 909.97 93.36 890.12 48.82 861.86 48.82 861.86 140.9 885.13 140.9 885.13 86.08 886.56 86.08 891.55 98.64 910.25 140.9 939.66 140.9 939.66 48.82"/><path class="cls-4" d="M1062,89.79h-37.83v18.13h14a11.34,11.34,0,0,1-4.64,8.28,15.34,15.34,0,0,1-9.35,3,18,18,0,0,1-10.2-2.79,17.35,17.35,0,0,1-6.43-8.2,35.78,35.78,0,0,1-2.21-13.42A38.92,38.92,0,0,1,1007.46,81a17.42,17.42,0,0,1,6.35-8.49,18.06,18.06,0,0,1,10.35-2.86,15.33,15.33,0,0,1,9.92,3.15,19,19,0,0,1,5.93,9.13l23.12-4.42A40.81,40.81,0,0,0,1056,61.1a32.69,32.69,0,0,0-13.2-10.42,45.63,45.63,0,0,0-18.63-3.57A46.12,46.12,0,0,0,1000.82,53a40.7,40.7,0,0,0-15.91,16.63q-5.71,10.78-5.71,25.2,0,14.7,4.71,25.48a36.79,36.79,0,0,0,13.56,16.56q8.85,5.78,21.27,5.78a24.72,24.72,0,0,0,13-3.43q5.7-3.42,10.28-10.85h1.14l5.14,12.57H1062Z"/><polygon class="cls-4" points="1208.45 102.07 1208.45 140.9 1233.57 140.9 1233.57 48.82 1208.45 48.82 1208.45 82.23 1181.75 82.23 1181.75 48.82 1156.63 48.82 1156.63 140.9 1181.75 140.9 1181.75 102.07 1208.45 102.07"/><rect class="cls-4" x="1275.82" y="48.82" width="25.12" height="92.07"/><polygon class="cls-4" points="1368.32 140.9 1398.3 140.9 1398.3 118.34 1368.32 118.34 1368.32 48.82 1343.2 48.82 1343.2 140.9 1359.47 140.9 1368.32 140.9"/><polygon class="cls-4" points="1461.39 140.9 1491.37 140.9 1491.37 118.34 1461.39 118.34 1461.39 48.82 1436.27 48.82 1436.27 140.9 1452.54 140.9 1461.39 140.9"/><path class="cls-4" d="M1570,120.13a22.32,22.32,0,0,1-6.49.78,16.39,16.39,0,0,1-10-2.85c-2.57-1.91-4.33-4.9-5.28-9l-23.55,5.14a31.34,31.34,0,0,0,11.06,20.56q9.35,7.85,27.77,7.85a49.15,49.15,0,0,0,19.34-3.5,27.26,27.26,0,0,0,12.7-10.56q4.5-7.07,4.5-17.35,0-10.85-4.64-16.48a22.56,22.56,0,0,0-11-7.57,96.06,96.06,0,0,0-15.92-3.07,72,72,0,0,1-9.06-1.36A13.63,13.63,0,0,1,1554,80.3a5.57,5.57,0,0,1-2.07-4.64,7.19,7.19,0,0,1,1.36-4.5,8,8,0,0,1,3.85-2.64,18.89,18.89,0,0,1,6.07-.86,18.44,18.44,0,0,1,7.35,1.29,11,11,0,0,1,4.64,3.71,15.7,15.7,0,0,1,2.43,6l22-3.71a32.55,32.55,0,0,0-4.5-14.21,26.3,26.3,0,0,0-11.56-9.92q-7.79-3.7-20-3.71-12,0-20.13,4.28a28.43,28.43,0,0,0-16,25.7q0,11.7,4.71,17.77a22.49,22.49,0,0,0,11.14,8.07,92.16,92.16,0,0,0,16.13,3.14c3.8.47,6.71.9,8.7,1.28a11.46,11.46,0,0,1,5,2.14,5.32,5.32,0,0,1,2,4.43,5.81,5.81,0,0,1-1.29,3.92A8,8,0,0,1,1570,120.13Z"/><path class="cls-4" d="M417.6,238.87a4.48,4.48,0,0,1-1.72.35,4.06,4.06,0,0,1-2.17-.57,6.31,6.31,0,0,1-1.85-2.13,39.23,39.23,0,0,1-2.17-4.37,24.14,24.14,0,0,0-3.93-7.24,16,16,0,0,0-5.65-4.37,15.3,15.3,0,0,0-3.19-1A31,31,0,0,0,407,217.93a14.5,14.5,0,0,0,7-5,13.73,13.73,0,0,0,2.39-8.3,13.44,13.44,0,0,0-2.43-8.17,14.38,14.38,0,0,0-7.33-4.95,38.83,38.83,0,0,0-12.15-1.64H363.4v5.66a49.72,49.72,0,0,1,5.21.53,2.85,2.85,0,0,1,1.69.75,3.57,3.57,0,0,1,.35,1.9v39.31a3.54,3.54,0,0,1-.35,1.9,2.79,2.79,0,0,1-1.69.75,49.72,49.72,0,0,1-5.21.53v5.66h27.39v-5.66a51.16,51.16,0,0,1-5.39-.53,3.34,3.34,0,0,1-1.77-.75,2.94,2.94,0,0,1-.44-1.9V220.49h4.15a7.75,7.75,0,0,1,4.78,1.33,7.24,7.24,0,0,1,2.51,3.44c.5,1.42,1.08,3.45,1.72,6.1.18.76.34,1.51.49,2.25s.34,1.52.57,2.34a43.25,43.25,0,0,0,3,7.42,8.81,8.81,0,0,0,3.63,3.76,11.73,11.73,0,0,0,5.34,1.1,10.17,10.17,0,0,0,5.52-1.37,9,9,0,0,0,3.32-3.71,14.68,14.68,0,0,0,1.41-5l-.44-.35A4.93,4.93,0,0,1,417.6,238.87Zm-34.41-42.05h10.16a14.09,14.09,0,0,1,5.44.88,6.31,6.31,0,0,1,3.13,2.78,10,10,0,0,1,1.06,4.91,9.07,9.07,0,0,1-1.19,5,7.35,7.35,0,0,1-3.45,2.73,15,15,0,0,1-5.69.93h-9.46Z"/><path class="cls-4" d="M492.74,192.27a27.82,27.82,0,0,0-14.49-3.67,28.43,28.43,0,0,0-14.49,3.67,25.78,25.78,0,0,0-10,10.42,32.64,32.64,0,0,0-3.62,15.68,34.38,34.38,0,0,0,3.4,15.68,24.69,24.69,0,0,0,9.63,10.43,28,28,0,0,0,14.44,3.66,28.93,28.93,0,0,0,14.62-3.66,24.93,24.93,0,0,0,9.9-10.43,33.77,33.77,0,0,0,3.49-15.68,34.68,34.68,0,0,0-3.36-15.72A24.48,24.48,0,0,0,492.74,192.27Zm-2.16,38.38a14.17,14.17,0,0,1-4.69,7.24,12.67,12.67,0,0,1-7.9,2.39,12.83,12.83,0,0,1-8-2.39,14.1,14.1,0,0,1-4.68-7.24,41.18,41.18,0,0,1-1.55-12.28,39.62,39.62,0,0,1,1.59-12.23,14.35,14.35,0,0,1,4.73-7.2,14.35,14.35,0,0,1,15.86,0,14.29,14.29,0,0,1,4.64,7.15,41,41,0,0,1,1.54,12.28A41.54,41.54,0,0,1,490.58,230.65Z"/><path class="cls-4" d="M577.11,224.47q-1.59,7.34-2.57,10.46t-2,4a4.83,4.83,0,0,1-3.18.89H558.46V198.76a2.58,2.58,0,0,1,.53-1.9,4.33,4.33,0,0,1,2-.75c1-.18,3-.35,6.09-.53v-5.66H538.68v5.66a50.05,50.05,0,0,1,5.21.53,2.85,2.85,0,0,1,1.68.75,3.57,3.57,0,0,1,.35,1.9v39.31a3.54,3.54,0,0,1-.35,1.9,2.79,2.79,0,0,1-1.68.75,50.05,50.05,0,0,1-5.21.53v5.66H584l-.08-22.44Z"/><path class="cls-4" d="M655.38,224.47q-1.59,7.34-2.57,10.46t-2,4a4.79,4.79,0,0,1-3.18.89H636.74V198.76a2.54,2.54,0,0,1,.53-1.9,4.28,4.28,0,0,1,2-.75c1-.18,3-.35,6.09-.53v-5.66H617v5.66a49.72,49.72,0,0,1,5.21.53,2.85,2.85,0,0,1,1.68.75,3.57,3.57,0,0,1,.35,1.9v39.31a3.54,3.54,0,0,1-.35,1.9,2.79,2.79,0,0,1-1.68.75,49.72,49.72,0,0,1-5.21.53v5.66h45.32l-.09-22.44Z"/><path class="cls-4" d="M738,225.79a90.41,90.41,0,0,1-2.56,9.63,8.17,8.17,0,0,1-2,3.49,4.75,4.75,0,0,1-3,.84H715v-19l15,.48V213l-15,.41V196.73H729.5a4.56,4.56,0,0,1,2.87.79,7.66,7.66,0,0,1,1.94,3.36q.93,2.56,2.61,9.36h6.63l.08-20.4H715v-.05H704.85l-9.63.05v5.65a49.72,49.72,0,0,1,5.21.53,2.78,2.78,0,0,1,1.68.75,3.47,3.47,0,0,1,.36,1.9V238a3.43,3.43,0,0,1-.36,1.9,2.67,2.67,0,0,1-1.68.75,47,47,0,0,1-5.21.53v5.66h49.56l-.26-21Z"/><path class="cls-4" d="M819.87,193.24a40.48,40.48,0,0,0-17.13-3.32H779.15v5.66a49.72,49.72,0,0,1,5.21.53,2.85,2.85,0,0,1,1.68.75,3.57,3.57,0,0,1,.35,1.9v39.31A3.54,3.54,0,0,1,786,240a2.79,2.79,0,0,1-1.68.75,49.72,49.72,0,0,1-5.21.53v5.66h23.14a40.18,40.18,0,0,0,17.05-3.36,24.43,24.43,0,0,0,11.09-9.89,33.56,33.56,0,0,0,.22-30.75A23.26,23.26,0,0,0,819.87,193.24Zm-1.06,37.23a13.87,13.87,0,0,1-5.78,7.12,18.94,18.94,0,0,1-9.68,2.25h-4.42v-43h3.89a20.22,20.22,0,0,1,10.12,2.25,13.77,13.77,0,0,1,5.87,6.8q2,4.55,2,12A34.35,34.35,0,0,1,818.81,230.47Z"/><path class="cls-4" d="M922.88,189.92h-9.63v5.66a49.72,49.72,0,0,1,5.21.53,2.82,2.82,0,0,1,1.68.75,3.57,3.57,0,0,1,.35,1.9v39.31a3.54,3.54,0,0,1-.35,1.9,2.76,2.76,0,0,1-1.68.75,49.72,49.72,0,0,1-5.21.53v5.66h27.12v-5.66a46,46,0,0,1-5.21-.53,3.13,3.13,0,0,1-1.68-.75,2.94,2.94,0,0,1-.44-1.9V198.76a3,3,0,0,1,.44-1.9,3.21,3.21,0,0,1,1.68-.75,46,46,0,0,1,5.21-.53v-5.66H922.88Z"/><path class="cls-4" d="M1016.65,234.23a18.46,18.46,0,0,1-5.83,3.36,21,21,0,0,1-7.11,1.19,17.55,17.55,0,0,1-9.1-2.21,14.17,14.17,0,0,1-5.7-6.76,29,29,0,0,1-2-11.53,37.35,37.35,0,0,1,1.68-12.14,14.87,14.87,0,0,1,4.77-7.2,11.51,11.51,0,0,1,7.24-2.39,10.07,10.07,0,0,1,6,1.77,15.73,15.73,0,0,1,4.42,5,49.83,49.83,0,0,1,3.75,8.35h6.81V188.78h-6.81l-3.07,6.22a11,11,0,0,0-2.36-2.87,14.32,14.32,0,0,0-4.73-2.6,18.51,18.51,0,0,0-6-.93A22.79,22.79,0,0,0,986,192.31a26.36,26.36,0,0,0-9.19,10.51,33.72,33.72,0,0,0-3.45,15.46,34.71,34.71,0,0,0,3.45,16.12,24.1,24.1,0,0,0,9.72,10.21,29.4,29.4,0,0,0,14.66,3.53,25.39,25.39,0,0,0,10.42-2,16.55,16.55,0,0,0,7.34-6.23,19.22,19.22,0,0,0,2.82-10.47l-.7-.44A21.38,21.38,0,0,1,1016.65,234.23Z"/><path class="cls-4" d="M1098.59,225.79a90.41,90.41,0,0,1-2.56,9.63,8.17,8.17,0,0,1-2,3.49,4.74,4.74,0,0,1-3,.84h-15.38v-19l15,.48V213l-15,.41V196.73h14.49a4.56,4.56,0,0,1,2.87.79,7.65,7.65,0,0,1,2,3.36c.62,1.71,1.48,4.83,2.6,9.36h6.63l.09-20.4h-28.63v-.05h-10.16l-9.63.05v5.65a50.35,50.35,0,0,1,5.22.53,2.85,2.85,0,0,1,1.68.75,3.59,3.59,0,0,1,.35,1.9V238a3.54,3.54,0,0,1-.35,1.9,2.73,2.73,0,0,1-1.68.75,47.6,47.6,0,0,1-5.22.53v5.66h49.56l-.26-21Z"/><path class="cls-4" d="M1230.18,234.23a18.69,18.69,0,0,1-5.83,3.36,21,21,0,0,1-7.12,1.19,17.55,17.55,0,0,1-9.1-2.21,14.1,14.1,0,0,1-5.69-6.76,28.82,28.82,0,0,1-2-11.53,37.35,37.35,0,0,1,1.68-12.14,15,15,0,0,1,4.77-7.2,11.51,11.51,0,0,1,7.24-2.39,10.12,10.12,0,0,1,6,1.77,15.83,15.83,0,0,1,4.41,5,50.59,50.59,0,0,1,3.76,8.35h6.8V188.78h-6.8L1225.2,195a11,11,0,0,0-2.36-2.87,14.37,14.37,0,0,0-4.72-2.6,18.61,18.61,0,0,0-6-.93,22.81,22.81,0,0,0-12.63,3.71,26.36,26.36,0,0,0-9.19,10.51,33.72,33.72,0,0,0-3.45,15.46,34.71,34.71,0,0,0,3.45,16.12,24.1,24.1,0,0,0,9.72,10.21,29.43,29.43,0,0,0,14.66,3.53,25.47,25.47,0,0,0,10.43-2,16.58,16.58,0,0,0,7.33-6.23,19.31,19.31,0,0,0,2.83-10.47l-.71-.44A21.35,21.35,0,0,1,1230.18,234.23Z"/><path class="cls-4" d="M1323.56,238.87a4.57,4.57,0,0,1-1.73.35,4,4,0,0,1-2.16-.57,6.21,6.21,0,0,1-1.86-2.13,37.77,37.77,0,0,1-2.16-4.37,24.14,24.14,0,0,0-3.93-7.24,16.1,16.1,0,0,0-5.66-4.37,15.3,15.3,0,0,0-3.19-1,30.93,30.93,0,0,0,10.08-1.56,14.48,14.48,0,0,0,7-5,13.73,13.73,0,0,0,2.38-8.3,13.44,13.44,0,0,0-2.43-8.17,14.38,14.38,0,0,0-7.33-4.95,38.83,38.83,0,0,0-12.15-1.64h-31.09v5.66a49.72,49.72,0,0,1,5.21.53,2.85,2.85,0,0,1,1.68.75,3.57,3.57,0,0,1,.35,1.9v39.31a3.54,3.54,0,0,1-.35,1.9,2.79,2.79,0,0,1-1.68.75,49.72,49.72,0,0,1-5.21.53v5.66h27.38v-5.66a51.48,51.48,0,0,1-5.39-.53,3.26,3.26,0,0,1-1.76-.75,2.87,2.87,0,0,1-.45-1.9V220.49h4.16a7.74,7.74,0,0,1,4.77,1.33,7.26,7.26,0,0,1,2.52,3.44q.75,2.13,1.72,6.1c.17.76.34,1.51.48,2.25s.34,1.52.58,2.34a42.45,42.45,0,0,0,3,7.42,8.79,8.79,0,0,0,3.62,3.76,11.74,11.74,0,0,0,5.35,1.1,10.22,10.22,0,0,0,5.52-1.37,9,9,0,0,0,3.31-3.71,14.46,14.46,0,0,0,1.41-5l-.44-.35A5,5,0,0,1,1323.56,238.87Zm-34.42-42.05h10.16a14.09,14.09,0,0,1,5.44.88,6.31,6.31,0,0,1,3.13,2.78,10,10,0,0,1,1.06,4.91,9,9,0,0,1-1.19,5,7.28,7.28,0,0,1-3.44,2.73,15.1,15.1,0,0,1-5.7.93h-9.46Z"/><path class="cls-4" d="M1398.16,225.79a90.41,90.41,0,0,1-2.56,9.63,8.17,8.17,0,0,1-2,3.49,4.75,4.75,0,0,1-3,.84h-15.37v-19l15,.48V213l-15,.41V196.73h14.49a4.56,4.56,0,0,1,2.87.79,7.56,7.56,0,0,1,1.94,3.36q.93,2.56,2.61,9.36h6.63l.08-20.4h-28.62v-.05H1365l-9.63.05v5.65a49.72,49.72,0,0,1,5.21.53,2.78,2.78,0,0,1,1.68.75,3.47,3.47,0,0,1,.36,1.9V238a3.43,3.43,0,0,1-.36,1.9,2.67,2.67,0,0,1-1.68.75,47,47,0,0,1-5.21.53v5.66H1405l-.26-21Z"/><path class="cls-4" d="M1496,241.16a10.65,10.65,0,0,1-3-.75,4.17,4.17,0,0,1-1.81-1.76,28.85,28.85,0,0,1-1.81-4.2l-17.84-44.79h-10l-16.69,41.43a.68.68,0,0,1,0,.22.73.73,0,0,0,0,.22,46.6,46.6,0,0,1-2.61,5.83,6.78,6.78,0,0,1-2.38,2.57,13.43,13.43,0,0,1-3.76,1.32v5.66h23.15v-5.57a14.15,14.15,0,0,1-4.95-1.24,2.87,2.87,0,0,1-1.77-2.39,10.07,10.07,0,0,1,.8-3.89l1.45-4h19l2.7,7.5a3.85,3.85,0,0,1,.4,2.3c-.15.47-.7.83-1.68,1.06a33.84,33.84,0,0,1-4.72.62v5.57h26.15v-5.66a1,1,0,0,1-.31,0A.82.82,0,0,0,1496,241.16Zm-38.88-17.93,3.89-10.65,3.27-9.35,3.18,9.4,3.83,10.6Z"/><path class="cls-4" d="M1587.92,189.92h-10.6l-14.73,35.68-14.87-35.68h-21.64v5.66a56.68,56.68,0,0,1,7.16,1.52v37.35a11.09,11.09,0,0,1-.44,3.58,3.71,3.71,0,0,1-2,1.94,19.54,19.54,0,0,1-5,1.28v5.66h23.14v-5.66a20.59,20.59,0,0,1-5.17-1.28,4,4,0,0,1-2.16-2,9.32,9.32,0,0,1-.53-3.53V204.24l18.38,42.93h1.94l18.46-43.81v34.71a4,4,0,0,1-.3,1.9,2.48,2.48,0,0,1-1.59.75,47.92,47.92,0,0,1-5.17.53v5.66h27v-5.66a48.64,48.64,0,0,1-5.26-.53,2.68,2.68,0,0,1-1.63-.75,3.45,3.45,0,0,1-.35-1.9V198.76a3.47,3.47,0,0,1,.35-1.9,2.73,2.73,0,0,1,1.63-.75,48.64,48.64,0,0,1,5.26-.53v-5.66h-11.84Z"/></g></g></svg>