<svg id="Layer_1" data-name="Layer 1" xmlns="http://www.w3.org/2000/svg" viewBox="0 0 1920 540"><defs><style>.cls-1{fill:#81bccf;}</style></defs><path class="cls-1" d="M171.57,114.17H183.5v48.37H171.57Zm7.8,38.85h11.55a7.67,7.67,0,0,0,5.1-1.43,5.33,5.33,0,0,0,1.65-4.27,5.24,5.24,0,0,0-.86-3,5.13,5.13,0,0,0-2.55-1.84,12.3,12.3,0,0,0-4.09-.6H179.3l1.2-8.62,8.7-.08a9.85,9.85,0,0,0,3.56-.56A5,5,0,0,0,195,131a4.3,4.3,0,0,0,.79-2.63,4,4,0,0,0-1.62-3.52,8.3,8.3,0,0,0-4.76-1.13h-10v-9.52H189.5a30.86,30.86,0,0,1,10.08,1.42,12.72,12.72,0,0,1,6.15,4.13,10.16,10.16,0,0,1,2.07,6.37,9.22,9.22,0,0,1-1.17,4.62,11.12,11.12,0,0,1-3.07,3.48,18.53,18.53,0,0,1-4.46,2.4v.68a15.83,15.83,0,0,1,5.55,2.06,10.47,10.47,0,0,1,5,9.34,13,13,0,0,1-2.06,7.27,13.26,13.26,0,0,1-6.19,4.88,26.25,26.25,0,0,1-10.12,1.72H179.37Z"/><path class="cls-1" d="M215.9,114.17h11.92v48.37H215.9Zm26,48.37a17.73,17.73,0,0,1-1.91-4.27,44.82,44.82,0,0,1-1.16-5.4,28.48,28.48,0,0,0-1.17-5.06,6.17,6.17,0,0,0-2.21-2.93,7.52,7.52,0,0,0-4.5-1.16h-4.12l-1.13-8.4h8.78a10.09,10.09,0,0,0,5.81-1.39,5,5,0,0,0,2-4.39,5.19,5.19,0,0,0-.87-3,5.33,5.33,0,0,0-2.66-2,13.17,13.17,0,0,0-4.57-.67h-8.48v-9.75h10.13a27.09,27.09,0,0,1,10.5,1.8,14,14,0,0,1,6.37,4.87,12.2,12.2,0,0,1,2.1,7,10.32,10.32,0,0,1-3.15,7.62,19.9,19.9,0,0,1-8.85,4.68v.6a12.26,12.26,0,0,1,4.61,3,10.41,10.41,0,0,1,2.29,3.78,50,50,0,0,1,1.35,5.18q.75,3.3,1.46,5.51a14.77,14.77,0,0,0,2.29,4.31Z"/><path class="cls-1" d="M261.12,114.17h11.93v48.37H261.12Z"/><path class="cls-1" d="M281.45,114.17h13.34l12.61,25,3,6.67h.67V114.17h11v48.37H308.15l-12-23.92-3-6.83h-.68v30.75h-11Z"/><path class="cls-1" d="M349.7,163.44a19.82,19.82,0,0,1-11.14-3.07,19.6,19.6,0,0,1-7.2-8.74,32.49,32.49,0,0,1-2.52-13.31,28.16,28.16,0,0,1,3-13.2,21.25,21.25,0,0,1,8.21-8.78,23.42,23.42,0,0,1,12.07-3.07,24.13,24.13,0,0,1,9.38,1.72,17.18,17.18,0,0,1,6.82,5,19.64,19.64,0,0,1,3.83,7.87l-11,2.7a9.86,9.86,0,0,0-3.3-4.87,9,9,0,0,0-5.62-1.73,9.8,9.8,0,0,0-9.75,6.6,21,21,0,0,0-1.28,7.73,20.4,20.4,0,0,0,1.28,7.65,10.26,10.26,0,0,0,3.71,4.8,10.16,10.16,0,0,0,5.82,1.65,8.48,8.48,0,0,0,5.84-2,7.34,7.34,0,0,0,2.48-5.21h-7.73v-8.85h19.28v26.17H365L362.59,156h-.67a15.89,15.89,0,0,1-5.29,5.59A13.16,13.16,0,0,1,349.7,163.44Z"/><path class="cls-1" d="M379.69,114.17h11.93v48.37H379.69Z"/><path class="cls-1" d="M400,114.17h13.35l12.6,25,3,6.67h.67V114.17h11v48.37H426.72l-12-23.92-3-6.83H411v30.75H400Z"/><path class="cls-1" d="M468.27,163.44a19,19,0,0,1-18.34-11.81,32.65,32.65,0,0,1-2.51-13.31,28.28,28.28,0,0,1,3-13.2,21.32,21.32,0,0,1,8.21-8.78,23.46,23.46,0,0,1,12.08-3.07A24.08,24.08,0,0,1,480,115a17.29,17.29,0,0,1,6.83,5,19.62,19.62,0,0,1,3.82,7.87l-11,2.7a9.86,9.86,0,0,0-3.3-4.87,9,9,0,0,0-5.63-1.73,9.8,9.8,0,0,0-9.75,6.6,21,21,0,0,0-1.27,7.73A20.41,20.41,0,0,0,461,146a10.22,10.22,0,0,0,3.72,4.8,10.1,10.1,0,0,0,5.81,1.65,8.49,8.49,0,0,0,5.85-2,7.33,7.33,0,0,0,2.47-5.21h-7.72v-8.85h19.27v26.17h-6.82l-2.4-6.52h-.68a16,16,0,0,1-5.28,5.59A13.2,13.2,0,0,1,468.27,163.44Z"/><path class="cls-1" d="M528.34,163.44q-9.37,0-14.21-4.05a16.3,16.3,0,0,1-5.74-10.72l11.18-2.4a8.58,8.58,0,0,0,3.07,5.25,9.39,9.39,0,0,0,5.7,1.65,12.47,12.47,0,0,0,3.83-.49,4.89,4.89,0,0,0,2.29-1.42,3.6,3.6,0,0,0,.78-2.37,3.74,3.74,0,0,0-1.16-2.92,6.45,6.45,0,0,0-2.92-1.46c-1.18-.28-2.84-.59-5-.94a47.81,47.81,0,0,1-8.33-1.76,11.57,11.57,0,0,1-5.66-4.24q-2.35-3.15-2.36-9a14.59,14.59,0,0,1,2-7.46,14.82,14.82,0,0,1,6.19-5.67,22.07,22.07,0,0,1,10.31-2.17,23.47,23.47,0,0,1,10.13,1.91,14.27,14.27,0,0,1,6,5.06,15.79,15.79,0,0,1,2.4,7.2l-10.65,1.8a8.46,8.46,0,0,0-1.35-3.33,6.32,6.32,0,0,0-2.63-2.14,10,10,0,0,0-4.12-.75,10.39,10.39,0,0,0-3.6.56,4.86,4.86,0,0,0-2.29,1.65,4.46,4.46,0,0,0-.79,2.66,3.5,3.5,0,0,0,1.2,2.82,7.81,7.81,0,0,0,3,1.5,46.19,46.19,0,0,0,5.06.93,46.81,46.81,0,0,1,8.33,1.77,11.86,11.86,0,0,1,5.66,4.05q2.35,3,2.36,8.51a16.14,16.14,0,0,1-2.29,8.85,13.69,13.69,0,0,1-6.48,5.36A25.62,25.62,0,0,1,528.34,163.44Z"/><path class="cls-1" d="M553.62,114.17h14.92L576,133.52l2.47,7.2h.68l2.55-7.2,8-19.35h15.3v48.37H593v-30h-.67l-2.4,6.68-9.83,23.32h-2.92l-9.6-23.92-2.25-6.45h-.68v30.37h-11Z"/><path class="cls-1" d="M613.24,114.17h11.93v48.37H613.24Z"/><path class="cls-1" d="M633.57,114.17h11.92v48.37H633.57Zm7.72,37.72h21.45v10.65H641.29Z"/><path class="cls-1" d="M668.37,114.17h11.92v48.37H668.37Zm7.72,0h24.08v10.2H676.09Zm0,18.45h22v10.12h-22Zm0,19.65h24.75v10.27H676.09Z"/><path class="cls-1" d="M723.94,163.44q-9.37,0-14.21-4.05A16.26,16.26,0,0,1,704,148.67l11.18-2.4a8.53,8.53,0,0,0,3.07,5.25,9.39,9.39,0,0,0,5.7,1.65,12.51,12.51,0,0,0,3.83-.49,4.85,4.85,0,0,0,2.28-1.42,3.55,3.55,0,0,0,.79-2.37,3.74,3.74,0,0,0-1.16-2.92,6.44,6.44,0,0,0-2.93-1.46c-1.17-.28-2.84-.59-5-.94a47.81,47.81,0,0,1-8.33-1.76,11.57,11.57,0,0,1-5.66-4.24c-1.58-2.1-2.36-5.1-2.36-9a14.59,14.59,0,0,1,2-7.46,14.82,14.82,0,0,1,6.19-5.67,22.07,22.07,0,0,1,10.31-2.17,23.5,23.5,0,0,1,10.13,1.91,14.39,14.39,0,0,1,6,5.06,15.78,15.78,0,0,1,2.39,7.2l-10.64,1.8a8.62,8.62,0,0,0-1.36-3.33,6.29,6.29,0,0,0-2.62-2.14,10,10,0,0,0-4.13-.75,10.33,10.33,0,0,0-3.59.56,4.82,4.82,0,0,0-2.29,1.65,4.39,4.39,0,0,0-.79,2.66,3.5,3.5,0,0,0,1.2,2.82,7.81,7.81,0,0,0,3,1.5,46.19,46.19,0,0,0,5.06.93,47,47,0,0,1,8.33,1.77,11.91,11.91,0,0,1,5.66,4.05q2.35,3,2.36,8.51a16.14,16.14,0,0,1-2.29,8.85,13.74,13.74,0,0,1-6.48,5.36A25.66,25.66,0,0,1,723.94,163.44Z"/><path class="cls-1" d="M759.26,114.17h38.1v10.57h-38.1Zm13,0h12.08v48.37H772.31Z"/><path class="cls-1" d="M822.41,163.44a23.59,23.59,0,0,1-12.48-3.11,19.63,19.63,0,0,1-7.77-8.77,31.44,31.44,0,0,1-2.62-13.32,28.57,28.57,0,0,1,2.85-13,20.92,20.92,0,0,1,8.21-8.81,24.22,24.22,0,0,1,12.49-3.15,23.63,23.63,0,0,1,12.52,3.15,19.84,19.84,0,0,1,7.8,8.81A31.22,31.22,0,0,1,846,138.47a28.39,28.39,0,0,1-2.89,13.09,20.8,20.8,0,0,1-8.25,8.77A24.37,24.37,0,0,1,822.41,163.44Zm.38-10.57a9.63,9.63,0,0,0,6-1.88,11.19,11.19,0,0,0,3.63-5.1,21.19,21.19,0,0,0,1.2-7.42,24.81,24.81,0,0,0-1-7.65,10,10,0,0,0-3.48-5.06,10.24,10.24,0,0,0-6.34-1.84,9.82,9.82,0,0,0-6.11,1.84,10.86,10.86,0,0,0-3.64,5.06,21.19,21.19,0,0,0-1.2,7.42,24.22,24.22,0,0,0,1.09,7.69,9.54,9.54,0,0,0,9.86,6.94Z"/><path class="cls-1" d="M886.84,163.44a23.62,23.62,0,0,1-12.49-3.11,19.61,19.61,0,0,1-7.76-8.77A31.44,31.44,0,0,1,864,138.24a28.57,28.57,0,0,1,2.85-13,20.92,20.92,0,0,1,8.21-8.81,24.22,24.22,0,0,1,12.49-3.15A23.67,23.67,0,0,1,900,116.42a19.84,19.84,0,0,1,7.8,8.81,31.22,31.22,0,0,1,2.62,13.24,28.39,28.39,0,0,1-2.89,13.09,20.8,20.8,0,0,1-8.25,8.77A24.34,24.34,0,0,1,886.84,163.44Zm.37-10.57a9.63,9.63,0,0,0,6-1.88,11.21,11.21,0,0,0,3.64-5.1,21.19,21.19,0,0,0,1.2-7.42,24.81,24.81,0,0,0-1.05-7.65,10,10,0,0,0-3.49-5.06,10.24,10.24,0,0,0-6.34-1.84,9.82,9.82,0,0,0-6.11,1.84,10.86,10.86,0,0,0-3.64,5.06,21.19,21.19,0,0,0-1.2,7.42,24.22,24.22,0,0,0,1.09,7.69,9.54,9.54,0,0,0,9.86,6.94Z"/><path class="cls-1" d="M936.49,163.44q-9.82,0-14.74-5.21t-4.91-15.64V114.17h11.92v28.27a18.65,18.65,0,0,0,.71,5.63,6.42,6.42,0,0,0,2.37,3.34,8,8,0,0,0,4.65,1.16,8.41,8.41,0,0,0,4.61-1.09,5.92,5.92,0,0,0,2.4-3.3,19.3,19.3,0,0,0,.71-5.74V114.17h12v28.42q0,10.35-5,15.6T936.49,163.44Z"/><path class="cls-1" d="M964.16,114.17h11.93v48.37H964.16Zm26,48.37a17.77,17.77,0,0,1-1.92-4.27,46.85,46.85,0,0,1-1.16-5.4,29.55,29.55,0,0,0-1.16-5.06,6.24,6.24,0,0,0-2.21-2.93,7.52,7.52,0,0,0-4.5-1.16h-4.13l-1.12-8.4h8.77a10.07,10.07,0,0,0,5.81-1.39,5,5,0,0,0,2-4.39,5.26,5.26,0,0,0-.86-3,5.37,5.37,0,0,0-2.66-2,13.23,13.23,0,0,0-4.58-.67H974v-9.75h10.12a27.09,27.09,0,0,1,10.5,1.8,14.05,14.05,0,0,1,6.38,4.87,12.28,12.28,0,0,1,2.1,7,10.32,10.32,0,0,1-3.15,7.62,20,20,0,0,1-8.85,4.68v.6a12.42,12.42,0,0,1,4.61,3,10.55,10.55,0,0,1,2.29,3.78,50,50,0,0,1,1.35,5.18q.74,3.3,1.46,5.51a14.53,14.53,0,0,0,2.29,4.31Z"/><path class="cls-1" d="M192.57,238.44a23.39,23.39,0,0,1-12.3-3.07,19.47,19.47,0,0,1-7.72-8.74,31.36,31.36,0,0,1-2.63-13.31,28.52,28.52,0,0,1,2.93-13.2,21.14,21.14,0,0,1,8.13-8.78,23.13,23.13,0,0,1,12-3.07q8,0,13.12,4.12t6.6,12l-11,2.18a10.17,10.17,0,0,0-3-5.66A8.3,8.3,0,0,0,193,199a9.9,9.9,0,0,0-5.93,1.73,10.33,10.33,0,0,0-3.6,4.95,21.94,21.94,0,0,0-1.2,7.65,21.44,21.44,0,0,0,1.24,7.72A10.54,10.54,0,0,0,187,226a9.47,9.47,0,0,0,5.7,1.68,8.92,8.92,0,0,0,5.74-1.76,13.06,13.06,0,0,0,3.71-5.81l10.65,2.85a22.07,22.07,0,0,1-4.54,8.85,18.39,18.39,0,0,1-7.05,5.06A22.88,22.88,0,0,1,192.57,238.44Z"/><path class="cls-1" d="M239.07,238.44a23.65,23.65,0,0,1-12.49-3.11,19.67,19.67,0,0,1-7.76-8.77,31.44,31.44,0,0,1-2.62-13.32,28.57,28.57,0,0,1,2.85-13,20.86,20.86,0,0,1,8.21-8.81,24.2,24.2,0,0,1,12.49-3.15,23.63,23.63,0,0,1,12.52,3.15,19.84,19.84,0,0,1,7.8,8.81,31.22,31.22,0,0,1,2.63,13.24,28.51,28.51,0,0,1-2.89,13.09,20.92,20.92,0,0,1-8.25,8.77A24.4,24.4,0,0,1,239.07,238.44Zm.38-10.57a9.63,9.63,0,0,0,6-1.88,11.19,11.19,0,0,0,3.63-5.1,21.19,21.19,0,0,0,1.2-7.42,24.81,24.81,0,0,0-1-7.65,10,10,0,0,0-3.48-5.06,10.24,10.24,0,0,0-6.34-1.84,9.87,9.87,0,0,0-6.12,1.84,10.91,10.91,0,0,0-3.63,5.06,21.19,21.19,0,0,0-1.2,7.42,24.52,24.52,0,0,0,1.08,7.69,9.56,9.56,0,0,0,9.87,6.94Z"/><path class="cls-1" d="M269.45,189.17h14.92l7.43,19.35,2.47,7.2H295l2.55-7.2,7.95-19.35h15.3v48.37H308.82v-30h-.67l-2.4,6.68-9.83,23.32H293l-9.6-23.92-2.25-6.45h-.68v30.37h-11Z"/><path class="cls-1" d="M329.07,189.17H344l7.42,19.35,2.48,7.2h.67l2.55-7.2,7.95-19.35h15.3v48.37H368.45v-30h-.68l-2.4,6.68-9.82,23.32h-2.93L343,213.62l-2.25-6.45h-.67v30.37h-11Z"/><path class="cls-1" d="M408,238.44q-9.83,0-14.74-5.21t-4.91-15.64V189.17h11.93v28.27a18.34,18.34,0,0,0,.71,5.63,6.35,6.35,0,0,0,2.36,3.34,8,8,0,0,0,4.65,1.16,8.39,8.39,0,0,0,4.61-1.09,5.83,5.83,0,0,0,2.4-3.3,18.94,18.94,0,0,0,.72-5.74V189.17h12v28.42q0,10.35-4.95,15.6T408,238.44Z"/><path class="cls-1" d="M435.65,189.17H449l12.6,25.05,3,6.67h.67V189.17h11v48.37H462.35l-12-23.92-3-6.83h-.68v30.75h-11Z"/><path class="cls-1" d="M484.7,189.17h11.92v48.37H484.7Z"/><path class="cls-1" d="M502.25,189.17h38.1v10.57h-38.1Zm13,0h12.08v48.37H515.29Z"/><path class="cls-1" d="M559.39,222.77l-15.9-33.6h13.58l5.4,13.72,3.07,8.48h.68l3-8.48,5.25-13.72h12.82l-16,33.6v14.77H559.39Z"/><path class="cls-1" d="M604.54,189.17h11.93v48.37H604.54Zm7.73,0h24.07v10.2H612.27Zm0,18.45h22.05v10.12H612.27Zm0,19.65H637v10.27H612.27Z"/><path class="cls-1" d="M639.64,189.17h13.43l6.45,27.67,2,9.75h.6l1.87-9.75,6.38-27.67h12.9l-14.1,48.37H653.67Z"/><path class="cls-1" d="M688.17,189.17h11.92v48.37H688.17Zm7.72,0H720v10.2H695.89Zm0,18.45h22.05v10.12H695.89Zm0,19.65h24.75v10.27H695.89Z"/><path class="cls-1" d="M726.79,189.17h11.93v48.37H726.79Zm26,48.37a18.17,18.17,0,0,1-1.92-4.27,46.85,46.85,0,0,1-1.16-5.4,29.55,29.55,0,0,0-1.16-5.06,6.24,6.24,0,0,0-2.21-2.93,7.52,7.52,0,0,0-4.5-1.16h-4.13l-1.12-8.4h8.77a10.07,10.07,0,0,0,5.81-1.39,5,5,0,0,0,2-4.39,5.26,5.26,0,0,0-.86-3,5.37,5.37,0,0,0-2.66-1.95,13.23,13.23,0,0,0-4.58-.67h-8.47v-9.75h10.12a27.09,27.09,0,0,1,10.5,1.8,14.05,14.05,0,0,1,6.38,4.87,12.2,12.2,0,0,1,2.1,7,10.32,10.32,0,0,1-3.15,7.62,19.9,19.9,0,0,1-8.85,4.68v.6a12.34,12.34,0,0,1,4.61,3,10.55,10.55,0,0,1,2.29,3.78,50,50,0,0,1,1.35,5.18c.5,2.2,1,4,1.46,5.51a14.53,14.53,0,0,0,2.29,4.31Z"/><path class="cls-1" d="M783.94,222.77,768,189.17h13.58l5.4,13.72,3.07,8.48h.68l3-8.48L799,189.17h12.82l-16.05,33.6v14.77H783.94Z"/><path class="cls-1" d="M813.34,189.17h12.75l4.95,26.7,1.65,9.82h.68l2-9.82,6.82-26.7h13.2l6.9,26.7,2,9.82h.67l1.58-9.82,5-26.7h12.15l-11.4,48.37H856.77l-6-24.15-1.95-9.82h-.68l-2,9.82-5.93,24.15H824.82Z"/><path class="cls-1" d="M889.09,189.17H901v48.37H889.09ZM896.82,207h24.52v9.67H896.82Zm19.87-17.85h11.93v48.37H916.69Z"/><path class="cls-1" d="M937,189.17h11.92v48.37H937Zm7.72,0h24.08v10.2H944.74Zm0,18.45h22v10.12h-22Zm0,19.65h24.75v10.27H944.74Z"/><path class="cls-1" d="M975.64,189.17h11.93v48.37H975.64Zm26,48.37a17.77,17.77,0,0,1-1.92-4.27,46.85,46.85,0,0,1-1.16-5.4,29.55,29.55,0,0,0-1.16-5.06,6.24,6.24,0,0,0-2.21-2.93,7.52,7.52,0,0,0-4.5-1.16h-4.13l-1.12-8.4h8.77a10.07,10.07,0,0,0,5.81-1.39,5,5,0,0,0,2-4.39,5.26,5.26,0,0,0-.86-3,5.37,5.37,0,0,0-2.66-1.95,13.23,13.23,0,0,0-4.58-.67h-8.47v-9.75h10.12a27.09,27.09,0,0,1,10.5,1.8,14.05,14.05,0,0,1,6.38,4.87,12.28,12.28,0,0,1,2.1,7,10.32,10.32,0,0,1-3.15,7.62,20,20,0,0,1-8.85,4.68v.6a12.42,12.42,0,0,1,4.61,3,10.55,10.55,0,0,1,2.29,3.78,50,50,0,0,1,1.35,5.18q.73,3.3,1.46,5.51a14.53,14.53,0,0,0,2.29,4.31Z"/><path class="cls-1" d="M1020.87,189.17h11.92v48.37h-11.92Zm7.72,0h24.08v10.2h-24.08Zm0,18.45h22.05v10.12h-22.05Zm0,19.65h24.75v10.27h-24.75Z"/><path class="cls-1" d="M1069.39,189.17h12.75l4.95,26.7,1.65,9.82h.67l1.95-9.82,6.83-26.7h13.2l6.9,26.7,2,9.82h.68l1.57-9.82,5-26.7h12.15l-11.4,48.37h-15.45l-6-24.15-2-9.82h-.67l-2,9.82-5.92,24.15h-15.38Z"/><path class="cls-1" d="M1145.14,189.17h11.92v48.37h-11.92Zm7.72,0h24.08v10.2h-24.08Zm0,18.45h22.05v10.12h-22.05Zm0,19.65h24.75v10.27h-24.75Z"/><path class="cls-1" d="M1215.79,238.44a19.84,19.84,0,0,1-11.14-3.07,19.6,19.6,0,0,1-7.2-8.74,32.49,32.49,0,0,1-2.51-13.31,28.16,28.16,0,0,1,3-13.2,21.25,21.25,0,0,1,8.21-8.78,23.46,23.46,0,0,1,12.08-3.07,24.08,24.08,0,0,1,9.37,1.72,17.29,17.29,0,0,1,6.83,5,19.62,19.62,0,0,1,3.82,7.87l-11,2.7a9.86,9.86,0,0,0-3.3-4.87,9,9,0,0,0-5.63-1.73,9.8,9.8,0,0,0-9.75,6.6,21,21,0,0,0-1.27,7.73,20.41,20.41,0,0,0,1.27,7.65,10.22,10.22,0,0,0,3.72,4.8,10.1,10.1,0,0,0,5.81,1.65,8.49,8.49,0,0,0,5.85-2,7.33,7.33,0,0,0,2.47-5.21h-7.72v-8.85h19.27v26.17h-6.82l-2.4-6.52H1228a16,16,0,0,1-5.28,5.59A13.2,13.2,0,0,1,1215.79,238.44Z"/><path class="cls-1" d="M1266.64,238.44a23.62,23.62,0,0,1-12.49-3.11,19.61,19.61,0,0,1-7.76-8.77,31.44,31.44,0,0,1-2.63-13.32,28.57,28.57,0,0,1,2.85-13,20.88,20.88,0,0,1,8.22-8.81,24.16,24.16,0,0,1,12.48-3.15,23.67,23.67,0,0,1,12.53,3.15,19.84,19.84,0,0,1,7.8,8.81,31.22,31.22,0,0,1,2.62,13.24,28.39,28.39,0,0,1-2.89,13.09,20.8,20.8,0,0,1-8.25,8.77A24.34,24.34,0,0,1,1266.64,238.44Zm.37-10.57a9.63,9.63,0,0,0,6-1.88,11.21,11.21,0,0,0,3.64-5.1,21.19,21.19,0,0,0,1.2-7.42,24.81,24.81,0,0,0-1.05-7.65,10,10,0,0,0-3.49-5.06,10.24,10.24,0,0,0-6.34-1.84,9.82,9.82,0,0,0-6.11,1.84,10.93,10.93,0,0,0-3.64,5.06,21.19,21.19,0,0,0-1.2,7.42,24.22,24.22,0,0,0,1.09,7.69,9.56,9.56,0,0,0,9.86,6.94Z"/><path d="M200.47,303.09c-.55,2.85-1.9,4.9-4.85,4.9s-4.4-1.6-6.2-7.6c-1.7-5.5-2.45-8.4-8.3-8.4h-3.7v12.45c0,.75,0,.75,4.5.9v2.2h-12.7v-2.2c4.5-.15,4.5-.15,4.5-.9V278.39c0-.75,0-.75-4.5-.9v-2.2h15.9c7.75,0,12.1,2.9,12.1,8.4,0,5.3-4.35,8-11.15,7.95h-.3c3.85.7,5.8,3.2,7.4,7.65s2.7,5.5,4.2,5.5a2.92,2.92,0,0,0,2.7-1.85Zm-23.05-13.55h7.9c4.7,0,8-1.85,8-5.7s-2.75-5.9-8.2-5.9h-7.65Z"/><path d="M202.07,296.24c0-7.1,4.7-11.85,10.65-11.85,6.2,0,10.75,4.55,10.75,11.8S218.77,308,212.87,308C206.57,308,202.07,303.54,202.07,296.24Zm17.85-.05c0-5.65-2.9-8.8-7.15-8.8-4.05,0-7.15,3.15-7.15,8.85s2.9,8.8,7.15,8.8C216.82,305,219.92,301.94,219.92,296.19Z"/><path d="M226.17,305.39c3.65-.15,3.65-.15,3.65-1.05V278.49c0-.6,0-.6-3.9-.8v-2.4c4-.1,5.85-.2,7.3-.35v29.4c0,.9,0,.9,3.65,1.05v2.15h-10.7Z"/><path d="M238.17,305.39c3.65-.15,3.65-.15,3.65-1.05V278.49c0-.6,0-.6-3.9-.8v-2.4c4-.1,5.85-.2,7.3-.35v29.4c0,.9,0,.9,3.65,1.05v2.15h-10.7Z"/><path d="M250.62,305.39c3.65-.15,3.65-.15,3.65-1.05V288.09c0-.6,0-.6-3.9-.8v-2.4c4-.1,5.85-.2,7.3-.35v19.8c0,.9,0,.9,3.65,1.05v2.15h-10.7Zm1.95-28.3a2.5,2.5,0,1,1,2.5,2.5A2.38,2.38,0,0,1,252.57,277.09Z"/><path d="M288.92,305.39v2.15h-7.05v-14.4c0-3.5-2.05-5.3-5.4-5.3a8.48,8.48,0,0,0-6.2,3.15v13.35c0,.9,0,.9,3.65,1.05v2.15h-10.7v-2.15c3.65-.15,3.65-.15,3.65-1.05V288.09c0-.6,0-.6-3.9-.8v-2.4c3.85-.1,5.6-.2,7.1-.35l-.1,4.95.2.3c1.6-3.2,4.25-5.4,7.95-5.4a6.91,6.91,0,0,1,7.15,7.3v12.65C285.27,305.24,285.27,305.24,288.92,305.39Z"/><path d="M311.67,309.49c0,4.35-4.5,7.35-11.5,7.35-6,0-9.35-1.8-9.35-5.5,0-2.25,1.55-4.15,4.65-4.65-2.25-.55-3.55-1.95-3.55-3.85s1.15-3.3,3.4-4.3a6.93,6.93,0,0,1-3.45-6.4c0-4.7,3.65-7.75,8.8-7.75a11.11,11.11,0,0,1,5.65,1.3,20.15,20.15,0,0,0,1.2-5.3h3.8a9.35,9.35,0,0,1-4.15,5.9,7.17,7.17,0,0,1,2.55,5.85c0,4.65-3.6,7.7-8.85,7.7a11.57,11.57,0,0,1-5-1,3.56,3.56,0,0,0-1.2,2.55c0,1.55,1.1,2.35,3.65,2.35h6.15C309.42,303.74,311.67,306.14,311.67,309.49Zm-3.35.35c0-1.8-1.25-2.9-4-2.9h-5.2c-3.6,0-5.25,1.3-5.25,3.35,0,2.3,1.85,3.55,6.6,3.55S308.32,312.44,308.32,309.84Zm-12.9-17.7c0,3.05,1.95,4.95,5.4,4.95s5.35-1.95,5.35-4.95c0-3.2-1.95-5.05-5.45-5.05C297.42,287.09,295.42,289,295.42,292.14Z"/><path d="M354,278.39v26.05c0,.75,0,.75,4.5.9v2.2h-12.7v-2.2c4.55-.15,4.55-.15,4.55-.9v-12.6H334v12.6c0,.75,0,.75,4.5.9v2.2h-12.7v-2.2c4.5-.15,4.5-.15,4.5-.9V278.39c0-.75,0-.75-4.5-.9v-2.2h12.7v2.2c-4.5.15-4.5.15-4.5.9v10.8h16.4v-10.8c0-.75,0-.75-4.55-.9v-2.2h12.7v2.2C354,277.64,354,277.64,354,278.39Z"/><path d="M361.47,305.39c3.65-.15,3.65-.15,3.65-1.05V288.09c0-.6,0-.6-3.9-.8v-2.4c4-.1,5.85-.2,7.3-.35v19.8c0,.9,0,.9,3.65,1.05v2.15h-10.7Zm1.95-28.3a2.5,2.5,0,1,1,2.5,2.5A2.38,2.38,0,0,1,363.42,277.09Z"/><path d="M373.47,305.39c3.65-.15,3.65-.15,3.65-1.05V278.49c0-.6,0-.6-3.9-.8v-2.4c4-.1,5.85-.2,7.3-.35v29.4c0,.9,0,.9,3.65,1.05v2.15h-10.7Z"/><path d="M385.46,305.39c3.65-.15,3.65-.15,3.65-1.05V278.49c0-.6,0-.6-3.9-.8v-2.4c4-.1,5.85-.2,7.3-.35v29.4c0,.9,0,.9,3.66,1.05v2.15H385.46Z"/><path d="M401.76,303.94l-.2.05-.39,3.9h-2.25v-8.05h1.84a7,7,0,0,0,7.11,5.45c2.55,0,4.35-1.3,4.35-3.55,0-1.8-.8-3-3.9-3.8l-3.76-.95c-4.1-1-5.6-3.1-5.6-6.3,0-3.45,2.5-6.3,6.86-6.3a5.72,5.72,0,0,1,5.8,3.75l.2-.05.4-3.55h2.35V292h-2a5.59,5.59,0,0,0-5.9-5c-3,0-4.41,1.55-4.41,3.4,0,1.65.8,2.7,3.45,3.4l3.81,1c4.25,1,6,3,6,6.4,0,4.55-3.2,6.85-6.95,6.85A7,7,0,0,1,401.76,303.94Z"/><path d="M461.67,303.09c-.55,2.85-1.9,4.9-4.85,4.9s-4.4-1.6-6.2-7.6c-1.7-5.5-2.45-8.4-8.31-8.4h-3.7v12.45c0,.75,0,.75,4.5.9v2.2h-12.7v-2.2c4.5-.15,4.5-.15,4.5-.9V278.39c0-.75,0-.75-4.5-.9v-2.2h15.9c7.76,0,12.11,2.9,12.11,8.4,0,5.3-4.35,8-11.16,7.95H447c3.85.7,5.8,3.2,7.41,7.65s2.7,5.5,4.2,5.5a2.92,2.92,0,0,0,2.7-1.85Zm-23.06-13.55h7.9c4.7,0,7.95-1.85,7.95-5.7s-2.75-5.9-8.2-5.9h-7.65Z"/><path d="M463.26,296.24c0-7.1,4.7-11.85,10.66-11.85,6.2,0,10.75,4.55,10.75,11.8S480,308,474.06,308C467.76,308,463.26,303.54,463.26,296.24Zm17.86-.05c0-5.65-2.91-8.8-7.16-8.8-4,0-7.15,3.15-7.15,8.85s2.9,8.8,7.15,8.8C478,305,481.12,301.94,481.12,296.19Z"/><path d="M487.36,305.39c3.65-.15,3.65-.15,3.65-1.05V278.49c0-.6,0-.6-3.9-.8v-2.4c4-.1,5.85-.2,7.3-.35v29.4c0,.9,0,.9,3.65,1.05v2.15h-10.7Z"/><path d="M499.36,305.39c3.65-.15,3.65-.15,3.65-1.05V278.49c0-.6,0-.6-3.9-.8v-2.4c4-.1,5.85-.2,7.3-.35v29.4c0,.9,0,.9,3.65,1.05v2.15h-10.7Z"/><path d="M532.07,296.64H516c0,5.3,2.95,8.3,8.21,8.3a9,9,0,0,0,7.09-2.9l.41.35c-1.16,3.45-3.91,5.65-8.41,5.65-6.5,0-10.75-4.35-10.75-11.3,0-6.6,3.85-12.35,10.35-12.35C528.87,284.39,532.42,289.44,532.07,296.64ZM516.16,294h12.3c-.25-4.75-2.59-6.75-5.65-6.75C519.51,287.24,516.91,289.74,516.16,294Z"/><path d="M560.67,305.29v2.25c-3.85.1-5.66.2-7.11.35l.11-4.7-.21-.25a8,8,0,0,1-7.8,5.1c-5.15,0-9.35-4.5-9.35-11.5,0-7.25,5-12.15,10.3-12.15a9.83,9.83,0,0,1,6.7,2.3v-8.2c0-.6,0-.6-3.85-.8v-2.4c4-.1,5.86-.2,7.3-.35v29.6C556.76,305.09,556.76,305.09,560.67,305.29Zm-7.3-3.4-.06-11.5a7.78,7.78,0,0,0-6.15-3.05c-4.1,0-7.3,3.45-7.3,8.9s2.65,8.5,7.15,8.5A8.37,8.37,0,0,0,553.37,301.89Z"/><path d="M574.16,305.34c4.5-.15,4.5-.15,4.5-.9V278.39c0-.75,0-.75-4.5-.9v-2.2h12.7v2.2c-4.5.15-4.5.15-4.5.9v26.05c0,.75,0,.75,4.5.9v2.2h-12.7Z"/><path d="M590.21,296.29c0-6.4,4.25-11.7,10.4-11.7,4.7,0,7.6,2.25,8.35,6.45l-3.15.65c-.75-2.9-2.55-4.3-5.25-4.3-4,0-6.9,3.7-6.9,8.95,0,5.7,3.35,8.65,7.5,8.65a9.34,9.34,0,0,0,7.1-3l.45.35c-1,3.35-3.65,5.7-8.2,5.7C594.56,308,590.21,303.59,590.21,296.29Z"/><path d="M632.11,296.64H616c0,5.3,3,8.3,8.2,8.3a9,9,0,0,0,7.1-2.9l.4.35c-1.15,3.45-3.9,5.65-8.4,5.65-6.5,0-10.75-4.35-10.75-11.3,0-6.6,3.85-12.35,10.35-12.35C628.91,284.39,632.46,289.44,632.11,296.64ZM616.21,294h12.3c-.25-4.75-2.6-6.75-5.65-6.75C619.56,287.24,617,289.74,616.21,294Z"/><path d="M651.76,291.44c0,8.25,4.4,13.35,11.25,13.35a11.18,11.18,0,0,0,10.3-6l.45.4c-1,5.65-5.3,8.75-11.5,8.75-8.5,0-14.45-6.45-14.45-16.55s6.25-16.65,14-16.65c4,0,7.4,2,8.65,5.4l.9-5.2h2.5v11.7h-2.2c-1.2-5.75-4.45-8.85-9.15-8.85C656.21,277.84,651.76,283,651.76,291.44Z"/><path d="M693.71,284.59v3.55a10.56,10.56,0,0,0-1.3-.1c-3,0-5.5,1.85-7.4,4.35v11.95c0,.9,0,.9,4.7,1.05v2.15H678v-2.15c3.65-.15,3.65-.15,3.65-1.05V288.09c0-.6,0-.6-3.9-.8v-2.4c3.85-.1,5.6-.2,7.1-.35l-.1,6,.2.3c1.85-3.75,4.1-6.4,7.65-6.4A5.19,5.19,0,0,1,693.71,284.59Z"/><path d="M715.66,296.64h-16.1c0,5.3,3,8.3,8.2,8.3a9,9,0,0,0,7.1-2.9l.4.35c-1.15,3.45-3.9,5.65-8.4,5.65-6.5,0-10.75-4.35-10.75-11.3,0-6.6,3.85-12.35,10.35-12.35C712.46,284.39,716,289.44,715.66,296.64ZM699.76,294h12.3c-.25-4.75-2.6-6.75-5.65-6.75C703.11,287.24,700.51,289.74,699.76,294Z"/><path d="M741.11,304.39a4.54,4.54,0,0,1-4.45,3.65c-1.95,0-3.1-1.15-3.1-3.55v-1.4l-.3-.3c-1.55,3.35-4.15,5.25-7.7,5.25-3.9,0-6.1-2.45-6.1-6s2.2-5.4,7.45-6.7l6.25-1.55v-2.4c0-2.65-1.2-4.25-4.55-4.25s-5,1.9-5.05,4.6l-3.25-.5c0-4.25,3.4-6.65,8.5-6.65,5.5,0,7.75,2.5,7.75,6.55v11.7c0,1.35.5,2,1.75,2a3.91,3.91,0,0,0,2.5-.9Zm-8-2.65v-5.6l-5.5,1.55c-3.35.95-4.7,2.2-4.7,4.25s1.35,3.3,3.8,3.3A7.8,7.8,0,0,0,733.16,301.74Z"/><path d="M781.61,305.39v2.15h-7.05V293c0-3.4-1.6-5.2-4.9-5.2a7.27,7.27,0,0,0-5.95,3.35,4.85,4.85,0,0,1,0,.85v12.3c0,.9,0,.9,3.65,1.05v2.15h-7V293c0-3.4-1.6-5.2-4.85-5.2a7.48,7.48,0,0,0-5.9,3v13.5c0,.9,0,.9,3.65,1.05v2.15h-10.7v-2.15c3.65-.15,3.65-.15,3.65-1.05V288.09c0-.6,0-.6-3.9-.8v-2.4c3.85-.1,5.6-.2,7.1-.35l-.1,4.95.2.3c1.45-3.2,3.9-5.4,7.5-5.4,3.25,0,6,2,6.6,5.85,1.25-3.4,3.85-5.85,7.6-5.85s6.75,2.5,6.75,7.4v12.55C778,305.24,778,305.24,781.61,305.39Z"/><path d="M794.31,305.39c3.65-.15,3.65-.15,3.65-1.05V288.09c0-.6,0-.6-3.9-.8v-2.4c4-.1,5.85-.2,7.3-.35v19.8c0,.9,0,.9,3.65,1.05v2.15h-10.7Zm2-28.3a2.5,2.5,0,1,1,2.5,2.5A2.38,2.38,0,0,1,796.26,277.09Z"/><path d="M810.61,303.94l-.2.05-.4,3.9h-2.25v-8.05h1.85a6.94,6.94,0,0,0,7.1,5.45c2.55,0,4.35-1.3,4.35-3.55,0-1.8-.8-3-3.9-3.8l-3.75-.95c-4.1-1-5.6-3.1-5.6-6.3,0-3.45,2.5-6.3,6.85-6.3a5.72,5.72,0,0,1,5.8,3.75l.2-.05.4-3.55h2.35V292h-2a5.58,5.58,0,0,0-5.9-5c-3,0-4.4,1.55-4.4,3.4,0,1.65.8,2.7,3.45,3.4l3.8,1c4.25,1,6,3,6,6.4,0,4.55-3.2,6.85-7,6.85A7,7,0,0,1,810.61,303.94Z"/><path d="M860.91,304.39a4.54,4.54,0,0,1-4.45,3.65c-2,0-3.1-1.15-3.1-3.55v-1.4l-.3-.3c-1.55,3.35-4.15,5.25-7.7,5.25-3.9,0-6.1-2.45-6.1-6s2.2-5.4,7.45-6.7l6.25-1.55v-2.4c0-2.65-1.2-4.25-4.55-4.25s-5,1.9-5,4.6l-3.25-.5c0-4.25,3.4-6.65,8.5-6.65,5.5,0,7.75,2.5,7.75,6.55v11.7c0,1.35.5,2,1.75,2a3.91,3.91,0,0,0,2.5-.9ZM853,301.74v-5.6l-5.5,1.55c-3.35.95-4.7,2.2-4.7,4.25s1.35,3.3,3.8,3.3A7.8,7.8,0,0,0,853,301.74Z"/><path d="M899.06,305.39v2.15h-7v-14.4c0-3.5-2-5.3-5.4-5.3a8.48,8.48,0,0,0-6.2,3.15v13.35c0,.9,0,.9,3.65,1.05v2.15H873.35v-2.15c3.65-.15,3.65-.15,3.65-1.05V288.09c0-.6,0-.6-3.9-.8v-2.4c3.86-.1,5.61-.2,7.11-.35l-.1,4.95.2.3c1.6-3.2,4.25-5.4,8-5.4a6.91,6.91,0,0,1,7.15,7.3v12.65C895.41,305.24,895.41,305.24,899.06,305.39Z"/><path d="M921.21,296.64H905.1c0,5.3,2.95,8.3,8.21,8.3a9,9,0,0,0,7.1-2.9l.4.35c-1.15,3.45-3.9,5.65-8.4,5.65-6.5,0-10.76-4.35-10.76-11.3,0-6.6,3.85-12.35,10.35-12.35C918,284.39,921.56,289.44,921.21,296.64ZM905.3,294h12.31c-.25-4.75-2.6-6.75-5.65-6.75C908.66,287.24,906.05,289.74,905.3,294Z"/><path d="M960,284.89v2.4c-3.05.35-3.15.35-3.35,1l-6.2,19.25h-3.2l-4.7-12.7-1.1-3.15-1.1,3.15-4.65,12.7h-3.2l-6.25-19.25c-.2-.6-.25-.65-3.35-1v-2.4h10.25v2.4c-3.2.2-3.25.25-3.05.85l3.4,11.75.95,3.25,1.1-3.25,5-14.1h2l5.25,14.45,1.25,3.4.9-3.4L953.41,288c.1-.45.05-.5-3.45-.7v-2.4Z"/><path d="M1011.61,305.39v2.15h-7.05V293c0-3.4-1.6-5.2-4.9-5.2a7.27,7.27,0,0,0-5.95,3.35,4.85,4.85,0,0,1,0,.85v12.3c0,.9,0,.9,3.65,1.05v2.15h-7V293c0-3.4-1.61-5.2-4.86-5.2a7.48,7.48,0,0,0-5.9,3v13.5c0,.9,0,.9,3.65,1.05v2.15h-10.7v-2.15c3.65-.15,3.65-.15,3.65-1.05V288.09c0-.6,0-.6-3.9-.8v-2.4c3.85-.1,5.6-.2,7.1-.35l-.1,4.95.2.3c1.46-3.2,3.91-5.4,7.5-5.4,3.25,0,6,2,6.61,5.85,1.25-3.4,3.85-5.85,7.6-5.85s6.75,2.5,6.75,7.4v12.55C1008,305.24,1008,305.24,1011.61,305.39Z"/><path d="M1014.25,296.24c0-7.1,4.7-11.85,10.65-11.85,6.2,0,10.75,4.55,10.75,11.8S1031,308,1025.05,308C1018.75,308,1014.25,303.54,1014.25,296.24Zm17.85-.05c0-5.65-2.9-8.8-7.15-8.8-4.05,0-7.15,3.15-7.15,8.85s2.9,8.8,7.15,8.8C1029,305,1032.1,301.94,1032.1,296.19Z"/><path d="M1061.55,295.89c0,7.25-5,12.15-10.3,12.15a10,10,0,0,1-7-2.55l-.4,2.25h-2.7V278.49c0-.6,0-.6-3.9-.8v-2.4c4-.1,5.9-.2,7.3-.35v14.9c1.15-2.75,3.35-5.45,7.9-5.45C1057.6,284.39,1061.55,288.89,1061.55,295.89Zm-3.5.3c0-5.35-2.75-8.5-7.2-8.5a7.55,7.55,0,0,0-6.35,3.2V302a7.71,7.71,0,0,0,6.2,3.1C1054.8,305.09,1058.05,301.64,1058.05,296.19Z"/><path d="M1064.7,305.39c3.65-.15,3.65-.15,3.65-1.05V288.09c0-.6,0-.6-3.9-.8v-2.4c4-.1,5.85-.2,7.3-.35v19.8c0,.9,0,.9,3.65,1.05v2.15h-10.7Zm2-28.3a2.5,2.5,0,1,1,2.5,2.5A2.38,2.38,0,0,1,1066.65,277.09Z"/><path d="M1076.7,305.39c3.65-.15,3.65-.15,3.65-1.05V278.49c0-.6,0-.6-3.9-.8v-2.4c4-.1,5.85-.2,7.3-.35v29.4c0,.9,0,.9,3.65,1.05v2.15h-10.7Z"/><path d="M1109.4,296.64h-16.1c0,5.3,3,8.3,8.2,8.3a9,9,0,0,0,7.1-2.9l.4.35c-1.15,3.45-3.9,5.65-8.4,5.65-6.5,0-10.75-4.35-10.75-11.3,0-6.6,3.85-12.35,10.35-12.35C1106.2,284.39,1109.75,289.44,1109.4,296.64ZM1093.5,294h12.3c-.25-4.75-2.6-6.75-5.65-6.75C1096.85,287.24,1094.25,289.74,1093.5,294Z"/><path d="M1123.7,305.39c3.65-.15,3.65-.15,3.65-1.05V288.09c0-.6,0-.6-3.9-.8v-2.4c4-.1,5.85-.2,7.3-.35v19.8c0,.9,0,.9,3.65,1.05v2.15h-10.7Zm2-28.3a2.5,2.5,0,1,1,2.5,2.5A2.38,2.38,0,0,1,1125.65,277.09Z"/><path d="M1137.1,296.29c0-6.4,4.25-11.7,10.4-11.7,4.7,0,7.6,2.25,8.35,6.45l-3.15.65c-.75-2.9-2.55-4.3-5.25-4.3-4,0-6.9,3.7-6.9,8.95,0,5.7,3.35,8.65,7.5,8.65a9.34,9.34,0,0,0,7.1-3l.45.35c-1,3.35-3.65,5.7-8.2,5.7C1141.45,308,1137.1,303.59,1137.1,296.29Z"/><path d="M1179,296.64h-16.1c0,5.3,2.95,8.3,8.2,8.3a9,9,0,0,0,7.1-2.9l.4.35c-1.15,3.45-3.9,5.65-8.4,5.65-6.5,0-10.75-4.35-10.75-11.3,0-6.6,3.85-12.35,10.35-12.35C1175.8,284.39,1179.35,289.44,1179,296.64ZM1163.1,294h12.3c-.25-4.75-2.6-6.75-5.65-6.75C1166.45,287.24,1163.85,289.74,1163.1,294Z"/><path d="M1194.25,296.29c0-6.4,4.25-11.7,10.4-11.7,4.7,0,7.6,2.25,8.35,6.45l-3.15.65c-.75-2.9-2.55-4.3-5.25-4.3-4,0-6.9,3.7-6.9,8.95,0,5.7,3.35,8.65,7.5,8.65a9.34,9.34,0,0,0,7.1-3l.45.35c-1,3.35-3.65,5.7-8.2,5.7C1198.6,308,1194.25,303.59,1194.25,296.29Z"/><path d="M1232.15,284.59v3.55a10.56,10.56,0,0,0-1.3-.1c-3,0-5.5,1.85-7.4,4.35v11.95c0,.9,0,.9,4.7,1.05v2.15H1216.4v-2.15c3.65-.15,3.65-.15,3.65-1.05V288.09c0-.6,0-.6-3.9-.8v-2.4c3.85-.1,5.6-.2,7.1-.35l-.1,6,.2.3c1.85-3.75,4.1-6.4,7.65-6.4A5.19,5.19,0,0,1,1232.15,284.59Z"/><path d="M1254.1,296.64H1238c0,5.3,3,8.3,8.2,8.3a9,9,0,0,0,7.1-2.9l.4.35c-1.15,3.45-3.9,5.65-8.4,5.65-6.5,0-10.75-4.35-10.75-11.3,0-6.6,3.85-12.35,10.35-12.35C1250.9,284.39,1254.45,289.44,1254.1,296.64ZM1238.2,294h12.3c-.25-4.75-2.6-6.75-5.65-6.75C1241.55,287.24,1239,289.74,1238.2,294Z"/><path d="M1279.55,304.39a4.54,4.54,0,0,1-4.45,3.65c-1.95,0-3.1-1.15-3.1-3.55v-1.4l-.3-.3c-1.55,3.35-4.15,5.25-7.7,5.25-3.9,0-6.1-2.45-6.1-6s2.2-5.4,7.45-6.7l6.25-1.55v-2.4c0-2.65-1.2-4.25-4.55-4.25s-5,1.9-5,4.6l-3.25-.5c0-4.25,3.4-6.65,8.5-6.65,5.5,0,7.75,2.5,7.75,6.55v11.7c0,1.35.5,2,1.75,2a3.91,3.91,0,0,0,2.5-.9Zm-8-2.65v-5.6l-5.5,1.55c-3.35.95-4.7,2.2-4.7,4.25s1.35,3.3,3.8,3.3A7.8,7.8,0,0,0,1271.6,301.74Z"/><path d="M1320.05,305.39v2.15h-7V293c0-3.4-1.6-5.2-4.9-5.2a7.27,7.27,0,0,0-5.95,3.35,4.85,4.85,0,0,1,0,.85v12.3c0,.9,0,.9,3.65,1.05v2.15h-7V293c0-3.4-1.6-5.2-4.85-5.2a7.48,7.48,0,0,0-5.9,3v13.5c0,.9,0,.9,3.65,1.05v2.15H1281v-2.15c3.65-.15,3.65-.15,3.65-1.05V288.09c0-.6,0-.6-3.9-.8v-2.4c3.85-.1,5.6-.2,7.1-.35l-.1,4.95.2.3c1.45-3.2,3.9-5.4,7.5-5.4,3.25,0,6,2,6.6,5.85,1.25-3.4,3.85-5.85,7.6-5.85s6.75,2.5,6.75,7.4v12.55C1316.4,305.24,1316.4,305.24,1320.05,305.39Z"/><path d="M1356,295.89c0,7.25-5,12.15-10.3,12.15a10,10,0,0,1-7-2.55l-.4,2.25h-2.7V278.49c0-.6,0-.6-3.9-.8v-2.4c4-.1,5.9-.2,7.3-.35v14.9c1.15-2.75,3.35-5.45,7.9-5.45C1352.05,284.39,1356,288.89,1356,295.89Zm-3.5.3c0-5.35-2.75-8.5-7.2-8.5a7.55,7.55,0,0,0-6.35,3.2V302a7.71,7.71,0,0,0,6.2,3.1C1349.25,305.09,1352.5,301.64,1352.5,296.19Z"/><path d="M1384.55,305.29v2.25c-3.85.1-5.65.2-7.15.35l.1-4.7-.2-.3c-1.5,3-4,5.15-7.8,5.15-4.3,0-7-2.85-7-7.4V288.09c0-.6,0-.6-3.9-.8v-2.4c4-.1,5.85-.2,7.3-.35v14.85c0,3.4,1.7,5.25,4.9,5.25a8.29,8.29,0,0,0,6.4-3.05v-13.5c0-.6,0-.6-3.9-.8v-2.4c4-.1,5.85-.2,7.3-.35v20C1380.65,305.09,1380.65,305.09,1384.55,305.29Z"/><path d="M1390.15,303.94l-.2.05-.4,3.9h-2.25v-8.05h1.85a6.94,6.94,0,0,0,7.1,5.45c2.55,0,4.35-1.3,4.35-3.55,0-1.8-.8-3-3.9-3.8L1393,297c-4.1-1-5.6-3.1-5.6-6.3,0-3.45,2.5-6.3,6.85-6.3a5.72,5.72,0,0,1,5.8,3.75l.2-.05.4-3.55H1403V292h-2a5.58,5.58,0,0,0-5.9-5c-3,0-4.4,1.55-4.4,3.4,0,1.65.8,2.7,3.45,3.4l3.8,1c4.25,1,6,3,6,6.4,0,4.55-3.2,6.85-7,6.85A7,7,0,0,1,1390.15,303.94Z"/><path d="M1407.05,305.39c3.65-.15,3.65-.15,3.65-1.05V288.09c0-.6,0-.6-3.9-.8v-2.4c4-.1,5.85-.2,7.3-.35v19.8c0,.9,0,.9,3.65,1.05v2.15h-10.7Zm2-28.3a2.5,2.5,0,1,1,2.5,2.5A2.38,2.38,0,0,1,1409,277.09Z"/><path d="M1445.35,305.39v2.15h-7v-14.4c0-3.5-2-5.3-5.4-5.3a8.48,8.48,0,0,0-6.2,3.15v13.35c0,.9,0,.9,3.65,1.05v2.15h-10.7v-2.15c3.65-.15,3.65-.15,3.65-1.05V288.09c0-.6,0-.6-3.9-.8v-2.4c3.85-.1,5.6-.2,7.1-.35l-.1,4.95.2.3c1.6-3.2,4.25-5.4,8-5.4a6.91,6.91,0,0,1,7.15,7.3v12.65C1441.7,305.24,1441.7,305.24,1445.35,305.39Z"/><path d="M1467.5,296.64h-16.1c0,5.3,2.95,8.3,8.2,8.3a9,9,0,0,0,7.1-2.9l.4.35c-1.15,3.45-3.9,5.65-8.4,5.65-6.5,0-10.75-4.35-10.75-11.3,0-6.6,3.85-12.35,10.35-12.35C1464.3,284.39,1467.85,289.44,1467.5,296.64ZM1451.6,294h12.3c-.25-4.75-2.6-6.75-5.65-6.75C1455,287.24,1452.35,289.74,1451.6,294Z"/><path d="M1474.9,303.94l-.2.05-.4,3.9h-2.25v-8.05h1.85a6.94,6.94,0,0,0,7.1,5.45c2.55,0,4.35-1.3,4.35-3.55,0-1.8-.8-3-3.9-3.8l-3.75-.95c-4.1-1-5.6-3.1-5.6-6.3,0-3.45,2.5-6.3,6.85-6.3a5.72,5.72,0,0,1,5.8,3.75l.2-.05.4-3.55h2.35V292h-2a5.58,5.58,0,0,0-5.9-5c-3,0-4.4,1.55-4.4,3.4,0,1.65.8,2.7,3.45,3.4l3.8,1c4.25,1,6,3,6,6.4,0,4.55-3.2,6.85-7,6.85A7,7,0,0,1,1474.9,303.94Z"/><path d="M1495.65,303.94l-.2.05-.4,3.9h-2.25v-8.05h1.85a6.94,6.94,0,0,0,7.1,5.45c2.55,0,4.35-1.3,4.35-3.55,0-1.8-.8-3-3.9-3.8l-3.75-.95c-4.1-1-5.6-3.1-5.6-6.3,0-3.45,2.5-6.3,6.85-6.3a5.72,5.72,0,0,1,5.8,3.75l.2-.05.4-3.55h2.35V292h-2a5.58,5.58,0,0,0-5.9-5c-3,0-4.4,1.55-4.4,3.4,0,1.65.8,2.7,3.45,3.4l3.8,1c4.25,1,6,3,6,6.4,0,4.55-3.2,6.85-7,6.85A7,7,0,0,1,1495.65,303.94Z"/><path d="M1527.09,301.59V287.64h-4.15v-2.75l2.45-.05c1.65-.2,1.86-.5,2.5-5.9h2.65v5.95h8v2.75h-8v13.25c0,2.6,1.16,3.95,3.66,3.95a6.52,6.52,0,0,0,4.45-1.5l.39.3a6.3,6.3,0,0,1-6.29,4.25C1528.79,307.89,1527.09,305.39,1527.09,301.59Z"/><path d="M1566.65,305.39v2.15h-7.06v-14.4c0-3.5-2-5.3-5.34-5.3a8.68,8.68,0,0,0-6.26,3v13.5c0,.9,0,.9,3.65,1.05v2.15h-10.7v-2.15c3.6-.15,3.6-.15,3.6-1.05l0-25.85c0-.6,0-.6-3.9-.8v-2.4c4-.1,5.85-.2,7.3-.35v14.7c1.65-3.15,4.26-5.25,7.85-5.25a6.92,6.92,0,0,1,7.16,7.3v12.65C1563,305.24,1563,305.24,1566.65,305.39Z"/><path d="M1590.74,304.39a4.54,4.54,0,0,1-4.45,3.65c-2,0-3.1-1.15-3.1-3.55v-1.4l-.3-.3c-1.55,3.35-4.15,5.25-7.7,5.25-3.9,0-6.1-2.45-6.1-6s2.2-5.4,7.45-6.7l6.25-1.55v-2.4c0-2.65-1.2-4.25-4.55-4.25s-5,1.9-5,4.6l-3.25-.5c0-4.25,3.4-6.65,8.5-6.65,5.5,0,7.75,2.5,7.75,6.55v11.7c0,1.35.5,2,1.75,2a3.91,3.91,0,0,0,2.5-.9Zm-8-2.65v-5.6l-5.5,1.55c-3.35.95-4.7,2.2-4.7,4.25s1.35,3.3,3.8,3.3A7.8,7.8,0,0,0,1582.79,301.74Z"/><path d="M1595,301.59V287.64h-4.15v-2.75l2.45-.05c1.65-.2,1.85-.5,2.5-5.9h2.65v5.95h8v2.75h-8v13.25c0,2.6,1.15,3.95,3.65,3.95a6.52,6.52,0,0,0,4.45-1.5l.4.3a6.31,6.31,0,0,1-6.3,4.25C1596.69,307.89,1595,305.39,1595,301.59Z"/><path d="M169.42,356.29c0-6.4,4.25-11.7,10.4-11.7,4.7,0,7.6,2.25,8.35,6.45l-3.15.65c-.75-2.9-2.55-4.3-5.25-4.3-4.05,0-6.9,3.7-6.9,8.95,0,5.7,3.35,8.65,7.5,8.65a9.34,9.34,0,0,0,7.1-3l.45.35c-1,3.35-3.65,5.7-8.2,5.7C173.77,368,169.42,363.59,169.42,356.29Z"/><path d="M191.77,356.24c0-7.1,4.7-11.85,10.65-11.85,6.2,0,10.75,4.55,10.75,11.8S208.47,368,202.57,368C196.27,368,191.77,363.54,191.77,356.24Zm17.85-.05c0-5.65-2.9-8.8-7.15-8.8-4.05,0-7.15,3.15-7.15,8.85s2.9,8.8,7.15,8.8C206.52,365,209.62,361.94,209.62,356.19Z"/><path d="M242,365.39v2.15H235v-14.4c0-3.5-2.05-5.3-5.4-5.3a8.48,8.48,0,0,0-6.2,3.15v13.35c0,.9,0,.9,3.65,1.05v2.15h-10.7v-2.15c3.65-.15,3.65-.15,3.65-1.05V348.09c0-.6,0-.6-3.9-.8v-2.4c3.85-.1,5.6-.2,7.1-.35l-.1,4.95.2.3c1.6-3.2,4.25-5.4,7.95-5.4a6.91,6.91,0,0,1,7.15,7.3v12.65C238.37,365.24,238.37,365.24,242,365.39Z"/><path d="M267.67,344.89v2.4c-3.05.35-3.05.35-3.35,1l-7.95,19.25h-3.55L245,348.29c-.25-.65-.3-.65-3.3-1v-2.4h10.45v2.4c-3.5.2-3.5.25-3.25.9l4.6,12.05,1.5,3.9,1.45-3.9,4.7-12.05c.2-.65.25-.65-3.4-.9v-2.4Z"/><path d="M288.72,356.64h-16.1c0,5.3,2.95,8.3,8.2,8.3a9,9,0,0,0,7.1-2.9l.4.35c-1.15,3.45-3.9,5.65-8.4,5.65-6.5,0-10.75-4.35-10.75-11.3,0-6.6,3.85-12.35,10.35-12.35C285.52,344.39,289.07,349.44,288.72,356.64ZM272.82,354h12.3c-.25-4.75-2.6-6.75-5.65-6.75C276.17,347.24,273.57,349.74,272.82,354Z"/><path d="M317.72,365.39v2.15h-7.05v-14.4c0-3.5-2.05-5.3-5.4-5.3a8.48,8.48,0,0,0-6.2,3.15v13.35c0,.9,0,.9,3.65,1.05v2.15H292v-2.15c3.65-.15,3.65-.15,3.65-1.05V348.09c0-.6,0-.6-3.9-.8v-2.4c3.85-.1,5.6-.2,7.1-.35l-.1,4.95.2.3c1.6-3.2,4.25-5.4,7.95-5.4a6.91,6.91,0,0,1,7.15,7.3v12.65C314.07,365.24,314.07,365.24,317.72,365.39Z"/><path d="M319.37,365.39c3.65-.15,3.65-.15,3.65-1.05V348.09c0-.6,0-.6-3.9-.8v-2.4c4-.1,5.85-.2,7.3-.35v19.8c0,.9,0,.9,3.65,1.05v2.15h-10.7Zm1.95-28.3a2.5,2.5,0,1,1,2.5,2.5A2.38,2.38,0,0,1,321.32,337.09Z"/><path d="M352.32,356.64h-16.1c0,5.3,2.95,8.3,8.2,8.3a9,9,0,0,0,7.1-2.9l.4.35c-1.15,3.45-3.9,5.65-8.4,5.65-6.5,0-10.75-4.35-10.75-11.3,0-6.6,3.85-12.35,10.35-12.35C349.12,344.39,352.67,349.44,352.32,356.64ZM336.42,354h12.3c-.25-4.75-2.6-6.75-5.65-6.75C339.77,347.24,337.17,349.74,336.42,354Z"/><path d="M381.32,365.39v2.15h-7.05v-14.4c0-3.5-2-5.3-5.4-5.3a8.48,8.48,0,0,0-6.2,3.15v13.35c0,.9,0,.9,3.65,1.05v2.15h-10.7v-2.15c3.65-.15,3.65-.15,3.65-1.05V348.09c0-.6,0-.6-3.9-.8v-2.4c3.85-.1,5.6-.2,7.1-.35l-.1,4.95.2.3c1.6-3.2,4.25-5.4,7.95-5.4a6.91,6.91,0,0,1,7.15,7.3v12.65C377.67,365.24,377.67,365.24,381.32,365.39Z"/><path d="M386,361.59V347.64h-4.15v-2.75l2.45-.05c1.65-.2,1.85-.5,2.5-5.9h2.65v5.95h8v2.75h-8v13.25c0,2.6,1.15,3.95,3.65,3.95a6.52,6.52,0,0,0,4.45-1.5l.4.3a6.31,6.31,0,0,1-6.3,4.25C387.72,367.89,386,365.39,386,361.59Z"/><path d="M399.87,365.39c3.65-.15,3.65-.15,3.65-1.05V338.49c0-.6,0-.6-3.9-.8v-2.4c4-.1,5.85-.2,7.3-.35v29.4c0,.9,0,.9,3.65,1.05v2.15h-10.7Z"/><path d="M436.52,344.89v2.4c-3,.35-3,.35-3.3,1l-8.8,22.4c-1.7,4.4-3.8,6-6.95,6A11.7,11.7,0,0,1,414,376l.7-2.9a5.68,5.68,0,0,0,2.45.55c2,0,3.5-1,4.55-3.7l.9-2.5-8.3-19.2c-.25-.65-.3-.65-3.3-1v-2.4h10.45v2.4c-3.55.2-3.55.2-3.3.9l4.55,10.95,1.65,4.1,1.4-4.1,4.05-10.95c.25-.7.25-.7-3.4-.9v-2.4Z"/><path d="M472.42,355.89c0,7.25-4.95,12.15-10.3,12.15a10,10,0,0,1-7.05-2.55l-.4,2.25H452V338.49c0-.6,0-.6-3.9-.8v-2.4c4-.1,5.9-.2,7.3-.35v14.9c1.15-2.75,3.35-5.45,7.9-5.45C468.47,344.39,472.42,348.89,472.42,355.89Zm-3.5.3c0-5.35-2.75-8.5-7.2-8.5a7.55,7.55,0,0,0-6.35,3.2V362a7.71,7.71,0,0,0,6.2,3.1C465.67,365.09,468.92,361.64,468.92,356.19Z"/><path d="M491.32,344.59v3.55a10.56,10.56,0,0,0-1.3-.1c-3,0-5.5,1.85-7.4,4.35v11.95c0,.9,0,.9,4.7,1.05v2.15H475.57v-2.15c3.65-.15,3.65-.15,3.65-1.05V348.09c0-.6,0-.6-3.9-.8v-2.4c3.85-.1,5.6-.2,7.1-.35l-.1,6,.2.3c1.85-3.75,4.1-6.4,7.65-6.4A5.19,5.19,0,0,1,491.32,344.59Z"/><path d="M494.62,365.39c3.65-.15,3.65-.15,3.65-1.05V348.09c0-.6,0-.6-3.9-.8v-2.4c4-.1,5.85-.2,7.3-.35v19.8c0,.9,0,.9,3.65,1.05v2.15h-10.7Zm1.95-28.3a2.5,2.5,0,1,1,2.5,2.5A2.38,2.38,0,0,1,496.57,337.09Z"/><path d="M532.92,365.39v2.15h-7v-14.4c0-3.5-2-5.3-5.4-5.3a8.48,8.48,0,0,0-6.2,3.15v13.35c0,.9,0,.9,3.65,1.05v2.15h-10.7v-2.15c3.65-.15,3.65-.15,3.65-1.05V348.09c0-.6,0-.6-3.9-.8v-2.4c3.85-.1,5.6-.2,7.1-.35l-.1,4.95.2.3c1.6-3.2,4.25-5.4,8-5.4a6.91,6.91,0,0,1,7.15,7.3v12.65C529.27,365.24,529.27,365.24,532.92,365.39Z"/><path d="M555.67,369.49c0,4.35-4.5,7.35-11.5,7.35-6,0-9.35-1.8-9.35-5.5,0-2.25,1.55-4.15,4.65-4.65-2.25-.55-3.55-1.95-3.55-3.85s1.15-3.3,3.4-4.3a6.93,6.93,0,0,1-3.45-6.4c0-4.7,3.65-7.75,8.8-7.75a11.11,11.11,0,0,1,5.65,1.3,20.15,20.15,0,0,0,1.2-5.3h3.8a9.35,9.35,0,0,1-4.15,5.9,7.17,7.17,0,0,1,2.55,5.85c0,4.65-3.6,7.7-8.85,7.7a11.57,11.57,0,0,1-5-1,3.56,3.56,0,0,0-1.2,2.55c0,1.55,1.1,2.35,3.65,2.35h6.15C553.42,363.74,555.67,366.14,555.67,369.49Zm-3.35.35c0-1.8-1.25-2.9-4-2.9h-5.2c-3.6,0-5.25,1.3-5.25,3.35,0,2.3,1.85,3.55,6.6,3.55S552.32,372.44,552.32,369.84Zm-12.9-17.7c0,3.05,2,4.95,5.4,4.95,3.3,0,5.35-1.95,5.35-4.95,0-3.2-1.95-5.05-5.45-5.05C541.42,347.09,539.42,349,539.42,352.14Z"/><path d="M561.52,363.94l-.2.05-.4,3.9h-2.25v-8.05h1.85a6.94,6.94,0,0,0,7.1,5.45c2.55,0,4.35-1.3,4.35-3.55,0-1.8-.8-3-3.9-3.8l-3.75-.95c-4.1-1-5.6-3.1-5.6-6.3,0-3.45,2.5-6.3,6.85-6.3a5.72,5.72,0,0,1,5.8,3.75l.2-.05.4-3.55h2.35V352h-2a5.58,5.58,0,0,0-5.9-5c-2.95,0-4.4,1.55-4.4,3.4,0,1.65.8,2.7,3.45,3.4l3.8,1c4.25,1,6,3,6,6.4,0,4.55-3.2,6.85-6.95,6.85A7,7,0,0,1,561.52,363.94Z"/><path d="M611.82,364.39a4.54,4.54,0,0,1-4.45,3.65c-2,0-3.1-1.15-3.1-3.55v-1.4l-.3-.3c-1.55,3.35-4.15,5.25-7.7,5.25-3.9,0-6.1-2.45-6.1-6s2.2-5.4,7.45-6.7l6.25-1.55v-2.4c0-2.65-1.2-4.25-4.55-4.25s-5,1.9-5.05,4.6l-3.25-.5c0-4.25,3.4-6.65,8.5-6.65,5.5,0,7.75,2.5,7.75,6.55v11.7c0,1.35.5,2,1.75,2a3.91,3.91,0,0,0,2.5-.9Zm-8-2.65v-5.6l-5.5,1.55c-3.35.95-4.7,2.2-4.7,4.25s1.35,3.3,3.8,3.3A7.8,7.8,0,0,0,603.87,361.74Z"/><path d="M649.57,365.29v2.25c-3.85.1-5.65.2-7.1.35l.1-4.7-.2-.25a8,8,0,0,1-7.8,5.1c-5.15,0-9.36-4.5-9.36-11.5,0-7.25,5-12.15,10.31-12.15a9.85,9.85,0,0,1,6.7,2.3v-8.2c0-.6,0-.6-3.85-.8v-2.4c4-.1,5.85-.2,7.3-.35v29.6C645.67,365.09,645.67,365.09,649.57,365.29Zm-7.3-3.4,0-11.5a7.78,7.78,0,0,0-6.15-3.05c-4.1,0-7.3,3.45-7.3,8.9s2.65,8.5,7.15,8.5A8.33,8.33,0,0,0,642.27,361.89Z"/><path d="M671.57,356.64H655.46c0,5.3,2.95,8.3,8.21,8.3a9,9,0,0,0,7.09-2.9l.41.35c-1.16,3.45-3.91,5.65-8.41,5.65-6.5,0-10.75-4.35-10.75-11.3,0-6.6,3.85-12.35,10.35-12.35C668.37,344.39,671.92,349.44,671.57,356.64ZM655.66,354H668c-.25-4.75-2.59-6.75-5.65-6.75C659,347.24,656.41,349.74,655.66,354Z"/><path d="M674.41,365.39c3.65-.15,3.65-.15,3.65-1.05V338.49c0-.6,0-.6-3.9-.8v-2.4c4-.1,5.85-.2,7.3-.35v29.4c0,.9,0,.9,3.65,1.05v2.15h-10.7Z"/><path d="M686.86,365.39c3.65-.15,3.65-.15,3.65-1.05V348.09c0-.6,0-.6-3.9-.8v-2.4c4-.1,5.85-.2,7.3-.35v19.8c0,.9,0,.9,3.65,1.05v2.15h-10.7Zm1.95-28.3a2.5,2.5,0,1,1,2.5,2.5A2.38,2.38,0,0,1,688.81,337.09Z"/><path d="M700.26,356.29c0-6.4,4.25-11.7,10.4-11.7,4.7,0,7.6,2.25,8.35,6.45l-3.15.65c-.75-2.9-2.55-4.3-5.25-4.3-4.05,0-6.9,3.7-6.9,8.95,0,5.7,3.35,8.65,7.5,8.65a9.34,9.34,0,0,0,7.1-3l.45.35c-1,3.35-3.65,5.7-8.2,5.7C704.61,368,700.26,363.59,700.26,356.29Z"/><path d="M722.41,365.39c3.65-.15,3.65-.15,3.65-1.05V348.09c0-.6,0-.6-3.9-.8v-2.4c4-.1,5.85-.2,7.3-.35v19.8c0,.9,0,.9,3.65,1.05v2.15h-10.7Zm2-28.3a2.5,2.5,0,1,1,2.5,2.5A2.38,2.38,0,0,1,724.36,337.09Z"/><path d="M735.81,356.24c0-7.1,4.7-11.85,10.65-11.85,6.2,0,10.75,4.55,10.75,11.8S752.51,368,746.61,368C740.31,368,735.81,363.54,735.81,356.24Zm17.85-.05c0-5.65-2.9-8.8-7.15-8.8-4,0-7.15,3.15-7.15,8.85s2.9,8.8,7.15,8.8C750.56,365,753.66,361.94,753.66,356.19Z"/><path d="M785.76,365.29v2.25c-3.85.1-5.65.2-7.15.35l.1-4.7-.2-.3c-1.5,3-4,5.15-7.8,5.15-4.3,0-7-2.85-7-7.4V348.09c0-.6,0-.6-3.9-.8v-2.4c4-.1,5.85-.2,7.3-.35v14.85c0,3.4,1.7,5.25,4.9,5.25a8.29,8.29,0,0,0,6.4-3.05v-13.5c0-.6,0-.6-3.9-.8v-2.4c4-.1,5.85-.2,7.3-.35v20C781.86,365.09,781.86,365.09,785.76,365.29Z"/><path d="M791.36,363.94l-.2.05-.4,3.9h-2.25v-8.05h1.85a6.94,6.94,0,0,0,7.1,5.45c2.55,0,4.35-1.3,4.35-3.55,0-1.8-.8-3-3.9-3.8l-3.75-.95c-4.1-1-5.6-3.1-5.6-6.3,0-3.45,2.5-6.3,6.85-6.3a5.72,5.72,0,0,1,5.8,3.75l.2-.05.4-3.55h2.35V352h-2a5.58,5.58,0,0,0-5.9-5c-3,0-4.4,1.55-4.4,3.4,0,1.65.8,2.7,3.45,3.4l3.8,1c4.25,1,6,3,6,6.4,0,4.55-3.2,6.85-7,6.85A7,7,0,0,1,791.36,363.94Z"/><path d="M841.66,364.39a4.54,4.54,0,0,1-4.45,3.65c-2,0-3.1-1.15-3.1-3.55v-1.4l-.3-.3c-1.55,3.35-4.15,5.25-7.7,5.25-3.9,0-6.1-2.45-6.1-6s2.2-5.4,7.45-6.7l6.25-1.55v-2.4c0-2.65-1.2-4.25-4.55-4.25s-5,1.9-5,4.6l-3.25-.5c0-4.25,3.4-6.65,8.5-6.65,5.5,0,7.75,2.5,7.75,6.55v11.7c0,1.35.5,2,1.75,2a3.91,3.91,0,0,0,2.5-.9Zm-7.95-2.65v-5.6l-5.5,1.55c-3.35.95-4.7,2.2-4.7,4.25s1.35,3.3,3.8,3.3A7.8,7.8,0,0,0,833.71,361.74Z"/><path d="M868.81,365.39v2.15h-7v-14.4c0-3.5-2-5.3-5.4-5.3a8.48,8.48,0,0,0-6.2,3.15v13.35c0,.9,0,.9,3.65,1.05v2.15h-10.7v-2.15c3.65-.15,3.65-.15,3.65-1.05V348.09c0-.6,0-.6-3.9-.8v-2.4c3.85-.1,5.6-.2,7.1-.35l-.1,4.95.2.3c1.6-3.2,4.25-5.4,8-5.4a6.91,6.91,0,0,1,7.15,7.3v12.65C865.16,365.24,865.16,365.24,868.81,365.39Z"/><path d="M895.76,365.29v2.25c-3.85.1-5.65.2-7.1.35l.1-4.7-.2-.25a8,8,0,0,1-7.8,5.1c-5.15,0-9.35-4.5-9.35-11.5,0-7.25,5-12.15,10.3-12.15a9.85,9.85,0,0,1,6.7,2.3v-8.2c0-.6,0-.6-3.85-.8v-2.4c4-.1,5.85-.2,7.3-.35v29.6C891.86,365.09,891.86,365.09,895.76,365.29Zm-7.3-3.4-.05-11.5a7.78,7.78,0,0,0-6.15-3.05c-4.1,0-7.3,3.45-7.3,8.9s2.65,8.5,7.15,8.5A8.33,8.33,0,0,0,888.46,361.89Z"/><path d="M933.91,365.29v2.25c-3.85.1-5.65.2-7.15.35l.1-4.7-.2-.3c-1.5,3-4,5.15-7.8,5.15-4.3,0-7-2.85-7-7.4V348.09c0-.6,0-.6-3.9-.8v-2.4c4-.1,5.85-.2,7.3-.35v14.85c0,3.4,1.7,5.25,4.9,5.25a8.29,8.29,0,0,0,6.4-3.05v-13.5c0-.6,0-.6-3.9-.8v-2.4c4-.1,5.85-.2,7.3-.35v20C930,365.09,930,365.09,933.91,365.29Z"/><path d="M961.36,365.39v2.15h-7.05v-14.4c0-3.5-2-5.3-5.4-5.3a8.48,8.48,0,0,0-6.2,3.15v13.35c0,.9,0,.9,3.65,1.05v2.15h-10.7v-2.15c3.65-.15,3.65-.15,3.65-1.05V348.09c0-.6,0-.6-3.9-.8v-2.4c3.85-.1,5.6-.2,7.1-.35l-.1,4.95.2.3c1.6-3.2,4.25-5.4,7.95-5.4a6.91,6.91,0,0,1,7.15,7.3v12.65C957.71,365.24,957.71,365.24,961.36,365.39Z"/><path d="M963,365.39c3.65-.15,3.65-.15,3.65-1.05V348.09c0-.6,0-.6-3.9-.8v-2.4c4-.1,5.85-.2,7.3-.35v19.8c0,.9,0,.9,3.65,1.05v2.15H963Zm2-28.3a2.5,2.5,0,1,1,2.5,2.5A2.38,2.38,0,0,1,965,337.09Z"/><path d="M1000.46,374.19v2.15H989.11v-2.15c4.35-.15,4.35-.15,4.35-1.05V362.59c-1.15,2.75-3.35,5.45-7.9,5.45-5.15,0-9.15-4.5-9.15-11.5,0-7.25,5-12.15,10.3-12.15a9.78,9.78,0,0,1,7.1,2.65l.4-2.15h2.65v28.25C996.86,374,996.86,374,1000.46,374.19Zm-7-12.65v-11.1a7.85,7.85,0,0,0-6.2-3.1c-4.1,0-7.3,3.5-7.3,8.9s2.65,8.5,7.15,8.5A7.62,7.62,0,0,0,993.46,361.54Z"/><path d="M1027.26,365.29v2.25c-3.85.1-5.65.2-7.15.35l.1-4.7-.2-.3c-1.5,3-4,5.15-7.8,5.15-4.3,0-7-2.85-7-7.4V348.09c0-.6,0-.6-3.9-.8v-2.4c4-.1,5.85-.2,7.3-.35v14.85c0,3.4,1.7,5.25,4.9,5.25a8.29,8.29,0,0,0,6.4-3.05v-13.5c0-.6,0-.6-3.9-.8v-2.4c4-.1,5.85-.2,7.3-.35v20C1023.36,365.09,1023.36,365.09,1027.26,365.29Z"/><path d="M1049.51,356.64h-16.1c0,5.3,2.95,8.3,8.2,8.3a9,9,0,0,0,7.1-2.9l.4.35c-1.15,3.45-3.9,5.65-8.4,5.65-6.5,0-10.75-4.35-10.75-11.3,0-6.6,3.85-12.35,10.35-12.35C1046.31,344.39,1049.86,349.44,1049.51,356.64Zm-15.9-2.65h12.3c-.25-4.75-2.6-6.75-5.65-6.75C1037,347.24,1034.36,349.74,1033.61,354Z"/><path d="M1084.31,356.64h-16.1c0,5.3,3,8.3,8.2,8.3a9,9,0,0,0,7.1-2.9l.4.35c-1.15,3.45-3.9,5.65-8.4,5.65-6.5,0-10.75-4.35-10.75-11.3,0-6.6,3.85-12.35,10.35-12.35C1081.11,344.39,1084.66,349.44,1084.31,356.64Zm-15.9-2.65h12.3c-.25-4.75-2.6-6.75-5.65-6.75C1071.76,347.24,1069.16,349.74,1068.41,354Z"/><path d="M1112.26,365.39v2.15h-10.75v-2.15c3.35-.3,3.35-.3,2.8-.9l-5.3-6.55-5.55,6.55c-.65.7-.65.7,2.85.9v2.15h-10.15v-2.15c2.85-.3,2.85-.3,3.65-1.05l7.5-8.2-6.65-7.75c-.6-.65-.85-.8-3.65-1.1v-2.4h10.55v2.4c-3.25.15-3.25.2-2.65.9l4.75,5.8,4.85-5.8c.65-.7.6-.8-2.65-.9v-2.4h10v2.4c-2.8.3-3,.45-3.55.95l-7,7.6,7.4,8.5C1109.41,365,1109.41,365,1112.26,365.39Z"/><path d="M1138,355.89c0,7.25-5,12.15-10.3,12.15a9.76,9.76,0,0,1-6.75-2.35v7.45c0,.9,0,.9,4.35,1.05v2.15h-11.4v-2.15c3.6-.15,3.6-.15,3.6-1.05l0-25.05c0-.6,0-.6-3.9-.8v-2.4c3.85-.1,5.65-.2,7.1-.35l-.1,4.95.2.25c1.2-2.7,3.35-5.35,7.8-5.35C1133.76,344.39,1138,348.89,1138,355.89Zm-3.55.3c0-5.35-2.65-8.5-7.15-8.5a8.13,8.13,0,0,0-6.35,2.9V362a7.71,7.71,0,0,0,6.2,3.1C1131.21,365.09,1134.41,361.64,1134.41,356.19Z"/><path d="M1161.61,356.64h-16.1c0,5.3,3,8.3,8.2,8.3a9,9,0,0,0,7.1-2.9l.4.35c-1.15,3.45-3.9,5.65-8.4,5.65-6.5,0-10.75-4.35-10.75-11.3,0-6.6,3.85-12.35,10.35-12.35C1158.41,344.39,1162,349.44,1161.61,356.64Zm-15.9-2.65H1158c-.25-4.75-2.6-6.75-5.65-6.75C1149.06,347.24,1146.46,349.74,1145.71,354Z"/><path d="M1180.66,344.59v3.55a10.56,10.56,0,0,0-1.3-.1c-3,0-5.5,1.85-7.4,4.35v11.95c0,.9,0,.9,4.7,1.05v2.15h-11.75v-2.15c3.65-.15,3.65-.15,3.65-1.05V348.09c0-.6,0-.6-3.9-.8v-2.4c3.85-.1,5.6-.2,7.1-.35l-.1,6,.2.3c1.85-3.75,4.1-6.4,7.65-6.4A5.19,5.19,0,0,1,1180.66,344.59Z"/><path d="M1184,365.39c3.65-.15,3.65-.15,3.65-1.05V348.09c0-.6,0-.6-3.9-.8v-2.4c4-.1,5.85-.2,7.3-.35v19.8c0,.9,0,.9,3.65,1.05v2.15H1184Zm2-28.3a2.5,2.5,0,1,1,2.5,2.5A2.38,2.38,0,0,1,1185.91,337.09Z"/><path d="M1216.91,356.64H1200.8c0,5.3,3,8.3,8.21,8.3a9,9,0,0,0,7.1-2.9l.4.35c-1.15,3.45-3.9,5.65-8.4,5.65-6.5,0-10.76-4.35-10.76-11.3,0-6.6,3.86-12.35,10.36-12.35C1213.71,344.39,1217.26,349.44,1216.91,356.64ZM1201,354h12.31c-.25-4.75-2.6-6.75-5.65-6.75C1204.36,347.24,1201.75,349.74,1201,354Z"/><path d="M1245.91,365.39v2.15h-7.05v-14.4c0-3.5-2-5.3-5.4-5.3a8.5,8.5,0,0,0-6.21,3.15v13.35c0,.9,0,.9,3.66,1.05v2.15H1220.2v-2.15c3.65-.15,3.65-.15,3.65-1.05V348.09c0-.6,0-.6-3.9-.8v-2.4c3.85-.1,5.6-.2,7.1-.35l-.09,4.95.2.3c1.59-3.2,4.25-5.4,7.95-5.4a6.91,6.91,0,0,1,7.15,7.3v12.65C1242.26,365.24,1242.26,365.24,1245.91,365.39Z"/><path d="M1248.5,356.29c0-6.4,4.25-11.7,10.41-11.7,4.7,0,7.59,2.25,8.34,6.45l-3.14.65c-.75-2.9-2.56-4.3-5.26-4.3-4,0-6.9,3.7-6.9,8.95,0,5.7,3.35,8.65,7.51,8.65a9.34,9.34,0,0,0,7.1-3l.44.35c-1,3.35-3.64,5.7-8.2,5.7C1252.85,368,1248.5,363.59,1248.5,356.29Z"/><path d="M1290.41,356.64H1274.3c0,5.3,3,8.3,8.2,8.3a9,9,0,0,0,7.1-2.9l.4.35c-1.15,3.45-3.9,5.65-8.4,5.65-6.5,0-10.75-4.35-10.75-11.3,0-6.6,3.85-12.35,10.35-12.35C1287.21,344.39,1290.75,349.44,1290.41,356.64ZM1274.5,354h12.3c-.25-4.75-2.59-6.75-5.65-6.75C1277.85,347.24,1275.25,349.74,1274.5,354Z"/><path d="M1308.25,361.59V347.64h-4.15v-2.75l2.45-.05c1.65-.2,1.85-.5,2.5-5.9h2.65v5.95h8v2.75h-8v13.25c0,2.6,1.15,3.95,3.65,3.95a6.52,6.52,0,0,0,4.45-1.5l.4.3a6.31,6.31,0,0,1-6.3,4.25C1310,367.89,1308.25,365.39,1308.25,361.59Z"/><path d="M1322.3,356.24c0-7.1,4.7-11.85,10.65-11.85,6.2,0,10.75,4.55,10.75,11.8S1339,368,1333.1,368C1326.8,368,1322.3,363.54,1322.3,356.24Zm17.85-.05c0-5.65-2.9-8.8-7.15-8.8-4,0-7.15,3.15-7.15,8.85s2.9,8.8,7.15,8.8C1337.05,365,1340.15,361.94,1340.15,356.19Z"/><path d="M1382.8,344.89v2.4c-3,.35-3,.35-3.3,1l-8.8,22.4c-1.7,4.4-3.8,6-7,6a11.7,11.7,0,0,1-3.45-.65l.7-2.9a5.68,5.68,0,0,0,2.45.55c2,0,3.5-1,4.55-3.7l.9-2.5-8.3-19.2c-.25-.65-.3-.65-3.3-1v-2.4h10.45v2.4c-3.55.2-3.55.2-3.3.9l4.55,10.95,1.65,4.1,1.4-4.1,4-10.95c.25-.7.25-.7-3.4-.9v-2.4Z"/><path d="M1384.3,356.24c0-7.1,4.7-11.85,10.65-11.85,6.2,0,10.75,4.55,10.75,11.8S1401,368,1395.1,368C1388.8,368,1384.3,363.54,1384.3,356.24Zm17.85-.05c0-5.65-2.9-8.8-7.15-8.8-4,0-7.15,3.15-7.15,8.85s2.9,8.8,7.15,8.8C1399.05,365,1402.15,361.94,1402.15,356.19Z"/><path d="M1434.25,365.29v2.25c-3.85.1-5.65.2-7.15.35l.1-4.7-.2-.3c-1.5,3-4,5.15-7.8,5.15-4.3,0-7-2.85-7-7.4V348.09c0-.6,0-.6-3.9-.8v-2.4c4-.1,5.85-.2,7.3-.35v14.85c0,3.4,1.7,5.25,4.9,5.25a8.29,8.29,0,0,0,6.4-3.05v-13.5c0-.6,0-.6-3.9-.8v-2.4c4-.1,5.85-.2,7.3-.35v20C1430.35,365.09,1430.35,365.09,1434.25,365.29Z"/><path d="M1437.45,365.54a2.43,2.43,0,0,1,4.85,0,2.43,2.43,0,0,1-4.85,0Z"/><path d="M1504.5,335.29v2.2c-3.65.2-3.65.25-3.85.8l-9.55,29.25h-2.7l-8.1-23.05-8.15,23.05h-2.65l-9.85-29.25c-.2-.65-.25-.65-3.85-.8v-2.2h12.7v2.2c-4.8.1-4.8.15-4.6.8l7.4,24,8.6-24.85h1.65l8.6,24.8,7-24c.15-.6.15-.65-4.85-.75v-2.2Z"/><path d="M1523.1,356.64H1507c0,5.3,3,8.3,8.2,8.3a9,9,0,0,0,7.1-2.9l.4.35c-1.15,3.45-3.9,5.65-8.4,5.65-6.5,0-10.75-4.35-10.75-11.3,0-6.6,3.85-12.35,10.35-12.35C1519.9,344.39,1523.45,349.44,1523.1,356.64ZM1507.2,354h12.3c-.25-4.75-2.6-6.75-5.65-6.75C1510.55,347.24,1508,349.74,1507.2,354Z"/><path d="M1541,361.59V347.64h-4.15v-2.75l2.45-.05c1.65-.2,1.85-.5,2.5-5.9h2.65v5.95h8v2.75h-8v13.25c0,2.6,1.15,3.95,3.65,3.95a6.52,6.52,0,0,0,4.45-1.5l.4.3a6.31,6.31,0,0,1-6.3,4.25C1542.65,367.89,1541,365.39,1541,361.59Z"/><path d="M1577.4,364.39A4.54,4.54,0,0,1,1573,368c-2,0-3.1-1.15-3.1-3.55v-1.4l-.3-.3c-1.55,3.35-4.15,5.25-7.7,5.25-3.9,0-6.1-2.45-6.1-6s2.2-5.4,7.45-6.7l6.25-1.55v-2.4c0-2.65-1.2-4.25-4.55-4.25s-5,1.9-5.05,4.6l-3.25-.5c0-4.25,3.4-6.65,8.5-6.65,5.5,0,7.75,2.5,7.75,6.55v11.7c0,1.35.5,2,1.75,2a3.91,3.91,0,0,0,2.5-.9Zm-8-2.65v-5.6l-5.5,1.55c-3.35.95-4.7,2.2-4.7,4.25s1.35,3.3,3.8,3.3A7.8,7.8,0,0,0,1569.45,361.74Z"/><path d="M1601.75,366.34v1.2h-3.6L1589,356.79l-3.55,2.75v4.8c0,.9,0,.9,3.25,1.05v2.15h-10.3v-2.15c3.65-.15,3.65-.15,3.65-1.05V338.49c0-.6,0-.6-3.9-.8v-2.4c4-.1,5.85-.2,7.3-.35v21.95l.2.05,9-8.8c.8-.75.75-.75-3.65-.9v-2.35h10.7v2.4c-2.2.35-2.55.55-3.7,1.5l-6.55,5.95Z"/><path d="M1623.1,356.64H1607c0,5.3,3,8.3,8.2,8.3a9,9,0,0,0,7.1-2.9l.4.35c-1.15,3.45-3.9,5.65-8.4,5.65-6.5,0-10.75-4.35-10.75-11.3,0-6.6,3.85-12.35,10.35-12.35C1619.9,344.39,1623.45,349.44,1623.1,356.64ZM1607.2,354h12.3c-.25-4.75-2.6-6.75-5.65-6.75C1610.55,347.24,1608,349.74,1607.2,354Z"/><path d="M1638.35,356.24c0-7.1,4.7-11.85,10.65-11.85,6.2,0,10.75,4.55,10.75,11.8s-4.7,11.85-10.6,11.85C1642.85,368,1638.35,363.54,1638.35,356.24Zm17.85-.05c0-5.65-2.9-8.8-7.15-8.8-4,0-7.15,3.15-7.15,8.85s2.9,8.8,7.15,8.8C1653.1,365,1656.2,361.94,1656.2,356.19Z"/><path d="M1688.3,365.29v2.25c-3.85.1-5.65.2-7.15.35l.1-4.7-.2-.3c-1.5,3-4,5.15-7.8,5.15-4.3,0-7-2.85-7-7.4V348.09c0-.6,0-.6-3.9-.8v-2.4c4-.1,5.85-.2,7.3-.35v14.85c0,3.4,1.7,5.25,4.9,5.25a8.29,8.29,0,0,0,6.4-3.05v-13.5c0-.6,0-.6-3.9-.8v-2.4c4-.1,5.85-.2,7.3-.35v20C1684.4,365.09,1684.4,365.09,1688.3,365.29Z"/><path d="M1705.8,344.59v3.55a10.56,10.56,0,0,0-1.3-.1c-3,0-5.5,1.85-7.4,4.35v11.95c0,.9,0,.9,4.7,1.05v2.15h-11.75v-2.15c3.65-.15,3.65-.15,3.65-1.05V348.09c0-.6,0-.6-3.9-.8v-2.4c3.85-.1,5.6-.2,7.1-.35l-.1,6,.2.3c1.85-3.75,4.1-6.4,7.65-6.4A5.19,5.19,0,0,1,1705.8,344.59Z"/><path d="M172.32,423.94l-.2.05-.4,3.9h-2.25v-8.05h1.85a6.94,6.94,0,0,0,7.1,5.45c2.55,0,4.35-1.3,4.35-3.55,0-1.8-.8-3-3.9-3.8l-3.75-.95c-4.1-1-5.6-3.1-5.6-6.3,0-3.45,2.5-6.3,6.85-6.3a5.72,5.72,0,0,1,5.8,3.75l.2-.05.4-3.55h2.35V412h-2a5.58,5.58,0,0,0-5.9-5c-2.95,0-4.4,1.55-4.4,3.4,0,1.65.8,2.7,3.45,3.4l3.8,1c4.25,1,6,3,6,6.4,0,4.55-3.2,6.85-6.95,6.85A7,7,0,0,1,172.32,423.94Z"/><path d="M212.87,415.89c0,7.25-5,12.15-10.3,12.15a9.76,9.76,0,0,1-6.75-2.35v7.45c0,.9,0,.9,4.35,1.05v2.15h-11.4v-2.15c3.6-.15,3.6-.15,3.6-1.05l0-25.05c0-.6,0-.6-3.9-.8v-2.4c3.85-.1,5.65-.2,7.1-.35l-.1,4.95.2.25c1.2-2.7,3.35-5.35,7.8-5.35C208.67,404.39,212.87,408.89,212.87,415.89Zm-3.55.3c0-5.35-2.65-8.5-7.15-8.5a8.13,8.13,0,0,0-6.35,2.9V422a7.71,7.71,0,0,0,6.2,3.1C206.12,425.09,209.32,421.64,209.32,416.19Z"/><path d="M236.52,416.64h-16.1c0,5.3,3,8.3,8.2,8.3a9,9,0,0,0,7.1-2.9l.4.35c-1.15,3.45-3.9,5.65-8.4,5.65-6.5,0-10.75-4.35-10.75-11.3,0-6.6,3.85-12.35,10.35-12.35C233.32,404.39,236.87,409.44,236.52,416.64ZM220.62,414h12.3c-.25-4.75-2.6-6.75-5.65-6.75C224,407.24,221.37,409.74,220.62,414Z"/><path d="M240.77,416.29c0-6.4,4.25-11.7,10.4-11.7,4.7,0,7.6,2.25,8.35,6.45l-3.15.65c-.75-2.9-2.55-4.3-5.25-4.3-4.05,0-6.9,3.7-6.9,8.95,0,5.7,3.35,8.65,7.5,8.65a9.34,9.34,0,0,0,7.1-3l.45.35c-1,3.35-3.65,5.7-8.2,5.7C245.12,428,240.77,423.59,240.77,416.29Z"/><path d="M262.92,425.39c3.65-.15,3.65-.15,3.65-1.05V408.09c0-.6,0-.6-3.9-.8v-2.4c4-.1,5.85-.2,7.3-.35v19.8c0,.9,0,.9,3.65,1.05v2.15h-10.7Zm1.95-28.3a2.5,2.5,0,1,1,2.5,2.5A2.38,2.38,0,0,1,264.87,397.09Z"/><path d="M297.77,424.39a4.54,4.54,0,0,1-4.45,3.65c-1.95,0-3.1-1.15-3.1-3.55v-1.4l-.3-.3c-1.55,3.35-4.15,5.25-7.7,5.25-3.9,0-6.1-2.45-6.1-6s2.2-5.4,7.45-6.7l6.25-1.55v-2.4c0-2.65-1.2-4.25-4.55-4.25s-5,1.9-5,4.6l-3.25-.5c0-4.25,3.4-6.65,8.5-6.65,5.5,0,7.75,2.5,7.75,6.55v11.7c0,1.35.5,2,1.75,2a3.91,3.91,0,0,0,2.5-.9Zm-7.95-2.65v-5.6l-5.5,1.55c-3.35.95-4.7,2.2-4.7,4.25s1.35,3.3,3.8,3.3A7.8,7.8,0,0,0,289.82,421.74Z"/><path d="M298.77,425.39c3.65-.15,3.65-.15,3.65-1.05V398.49c0-.6,0-.6-3.9-.8v-2.4c4-.1,5.85-.2,7.3-.35v29.4c0,.9,0,.9,3.65,1.05v2.15h-10.7Z"/><path d="M314.52,421.59V407.64h-4.15v-2.75l2.45-.05c1.65-.2,1.85-.5,2.5-5.9H318v5.95h8v2.75h-8v13.25c0,2.6,1.15,3.95,3.65,3.95a6.52,6.52,0,0,0,4.45-1.5l.4.3a6.31,6.31,0,0,1-6.3,4.25C316.22,427.89,314.52,425.39,314.52,421.59Z"/><path d="M353.37,404.89v2.4c-3.05.35-3.05.35-3.3,1l-8.8,22.4c-1.7,4.4-3.8,6-6.95,6a11.7,11.7,0,0,1-3.45-.65l.7-2.9a5.68,5.68,0,0,0,2.45.55c2,0,3.5-1,4.55-3.7l.9-2.5-8.3-19.2c-.25-.65-.3-.65-3.3-1v-2.4h10.45v2.4c-3.55.2-3.55.2-3.3.9l4.55,10.95,1.65,4.1,1.4-4.1,4.05-10.95c.25-.7.25-.7-3.4-.9v-2.4Z"/><path d="M369.57,421.59V407.64h-4.15v-2.75l2.45-.05c1.65-.2,1.85-.5,2.5-5.9H373v5.95h8v2.75h-8v13.25c0,2.6,1.15,3.95,3.65,3.95a6.52,6.52,0,0,0,4.45-1.5l.4.3a6.31,6.31,0,0,1-6.3,4.25C371.27,427.89,369.57,425.39,369.57,421.59Z"/><path d="M383.62,416.24c0-7.1,4.7-11.85,10.65-11.85,6.2,0,10.75,4.55,10.75,11.8S400.32,428,394.42,428C388.12,428,383.62,423.54,383.62,416.24Zm17.85-.05c0-5.65-2.9-8.8-7.15-8.8-4.05,0-7.15,3.15-7.15,8.85s2.9,8.8,7.15,8.8C398.37,425,401.47,421.94,401.47,416.19Z"/><path d="M420.12,416.24c0-7.1,4.7-11.85,10.65-11.85,6.2,0,10.75,4.55,10.75,11.8S436.82,428,430.92,428C424.62,428,420.12,423.54,420.12,416.24Zm17.85-.05c0-5.65-2.9-8.8-7.15-8.8-4.05,0-7.15,3.15-7.15,8.85s2.9,8.8,7.15,8.8C434.87,425,438,421.94,438,416.19Z"/><path d="M448,421.59V407.64h-4.15v-2.75l2.45-.05c1.65-.2,1.85-.5,2.5-5.9h2.65v5.95h8v2.75h-8v13.25c0,2.6,1.15,3.95,3.65,3.95a6.52,6.52,0,0,0,4.45-1.5l.4.3a6.31,6.31,0,0,1-6.3,4.25C449.67,427.89,448,425.39,448,421.59Z"/><path d="M487.52,425.39v2.15h-7v-14.4c0-3.5-2.05-5.3-5.35-5.3a8.68,8.68,0,0,0-6.25,3v13.5c0,.9,0,.9,3.65,1.05v2.15h-10.7v-2.15c3.6-.15,3.6-.15,3.6-1.05l.05-25.85c0-.6,0-.6-3.9-.8v-2.4c4-.1,5.85-.2,7.3-.35v14.7c1.65-3.15,4.25-5.25,7.85-5.25a6.91,6.91,0,0,1,7.15,7.3v12.65C483.87,425.24,483.87,425.24,487.52,425.39Z"/><path d="M509.72,416.64h-16.1c0,5.3,2.95,8.3,8.2,8.3a9,9,0,0,0,7.1-2.9l.4.35c-1.15,3.45-3.9,5.65-8.4,5.65-6.5,0-10.75-4.35-10.75-11.3,0-6.6,3.85-12.35,10.35-12.35C506.52,404.39,510.07,409.44,509.72,416.64ZM493.82,414h12.3c-.25-4.75-2.6-6.75-5.65-6.75C497.17,407.24,494.57,409.74,493.82,414Z"/><path d="M528.77,404.59v3.55a10.56,10.56,0,0,0-1.3-.1c-3,0-5.5,1.85-7.4,4.35v11.95c0,.9,0,.9,4.7,1.05v2.15H513v-2.15c3.65-.15,3.65-.15,3.65-1.05V408.09c0-.6,0-.6-3.9-.8v-2.4c3.85-.1,5.6-.2,7.1-.35l-.1,6,.2.3c1.85-3.75,4.1-6.4,7.65-6.4A5.19,5.19,0,0,1,528.77,404.59Z"/><path d="M542.62,425.39c3.65-.15,3.65-.15,3.65-1.05V398.49c0-.6,0-.6-3.9-.8v-2.4c4-.1,5.85-.2,7.3-.35v29.4c0,.9,0,.9,3.65,1.05v2.15h-10.7Z"/><path d="M555.77,416.24c0-7.1,4.7-11.85,10.65-11.85,6.2,0,10.75,4.55,10.75,11.8S572.47,428,566.57,428C560.27,428,555.77,423.54,555.77,416.24Zm17.85-.05c0-5.65-2.9-8.8-7.15-8.8-4.05,0-7.15,3.15-7.15,8.85s2.9,8.8,7.15,8.8C570.52,425,573.62,421.94,573.62,416.19Z"/><path d="M581.27,416.29c0-6.4,4.25-11.7,10.4-11.7,4.7,0,7.6,2.25,8.35,6.45l-3.15.65c-.75-2.9-2.55-4.3-5.25-4.3-4,0-6.9,3.7-6.9,8.95,0,5.7,3.35,8.65,7.5,8.65a9.34,9.34,0,0,0,7.1-3l.45.35c-1,3.35-3.65,5.7-8.2,5.7C585.62,428,581.27,423.59,581.27,416.29Z"/><path d="M625.07,424.39a4.54,4.54,0,0,1-4.45,3.65c-2,0-3.1-1.15-3.1-3.55v-1.4l-.3-.3c-1.55,3.35-4.15,5.25-7.7,5.25-3.9,0-6.1-2.45-6.1-6s2.2-5.4,7.45-6.7l6.25-1.55v-2.4c0-2.65-1.2-4.25-4.55-4.25s-5,1.9-5.05,4.6l-3.25-.5c0-4.25,3.4-6.65,8.5-6.65,5.5,0,7.75,2.5,7.75,6.55v11.7c0,1.35.5,2,1.75,2a3.91,3.91,0,0,0,2.5-.9Zm-8-2.65v-5.6l-5.5,1.55c-3.35.95-4.7,2.2-4.7,4.25s1.35,3.3,3.8,3.3A7.8,7.8,0,0,0,617.12,421.74Z"/><path d="M626.07,425.39c3.64-.15,3.64-.15,3.64-1.05V398.49c0-.6,0-.6-3.89-.8v-2.4c4-.1,5.85-.2,7.3-.35v29.4c0,.9,0,.9,3.65,1.05v2.15h-10.7Z"/><path d="M672.77,415.89c0,7.25-4.95,12.15-10.31,12.15a10,10,0,0,1-7.05-2.55l-.4,2.25h-2.7V398.49c0-.6,0-.6-3.9-.8v-2.4c4-.1,5.9-.2,7.3-.35v14.9c1.15-2.75,3.35-5.45,7.91-5.45C668.82,404.39,672.77,408.89,672.77,415.89Zm-3.5.3c0-5.35-2.75-8.5-7.21-8.5a7.58,7.58,0,0,0-6.35,3.2V422a7.72,7.72,0,0,0,6.21,3.1C666,425.09,669.27,421.64,669.27,416.19Z"/><path d="M701.32,425.29v2.25c-3.85.1-5.65.2-7.15.35l.1-4.7-.2-.3c-1.5,3-4,5.15-7.8,5.15-4.31,0-7-2.85-7-7.4V408.09c0-.6,0-.6-3.9-.8v-2.4c4-.1,5.85-.2,7.3-.35v14.85c0,3.4,1.71,5.25,4.91,5.25a8.29,8.29,0,0,0,6.4-3.05v-13.5c0-.6,0-.6-3.9-.8v-2.4c4-.1,5.85-.2,7.3-.35v20C697.42,425.09,697.42,425.09,701.32,425.29Z"/><path d="M706.92,423.94l-.21.05-.39,3.9h-2.25v-8.05h1.85a6.94,6.94,0,0,0,7.1,5.45c2.55,0,4.35-1.3,4.35-3.55,0-1.8-.8-3-3.9-3.8l-3.76-.95c-4.09-1-5.59-3.1-5.59-6.3,0-3.45,2.5-6.3,6.85-6.3a5.72,5.72,0,0,1,5.8,3.75l.2-.05.4-3.55h2.35V412h-2a5.58,5.58,0,0,0-5.9-5c-3,0-4.4,1.55-4.4,3.4,0,1.65.79,2.7,3.45,3.4l3.8,1c4.25,1,6,3,6,6.4,0,4.55-3.2,6.85-6.95,6.85A7,7,0,0,1,706.92,423.94Z"/><path d="M723.81,425.39c3.65-.15,3.65-.15,3.65-1.05V408.09c0-.6,0-.6-3.9-.8v-2.4c4-.1,5.86-.2,7.31-.35v19.8c0,.9,0,.9,3.65,1.05v2.15H723.81Zm2-28.3a2.51,2.51,0,1,1,2.51,2.5A2.38,2.38,0,0,1,725.76,397.09Z"/><path d="M762.12,425.39v2.15h-7.06v-14.4c0-3.5-2-5.3-5.4-5.3a8.48,8.48,0,0,0-6.2,3.15v13.35c0,.9,0,.9,3.65,1.05v2.15h-10.7v-2.15c3.65-.15,3.65-.15,3.65-1.05V408.09c0-.6,0-.6-3.9-.8v-2.4c3.85-.1,5.6-.2,7.1-.35l-.1,4.95.2.3c1.6-3.2,4.25-5.4,7.95-5.4a6.91,6.91,0,0,1,7.15,7.3v12.65C758.46,425.24,758.46,425.24,762.12,425.39Z"/><path d="M784.26,416.64h-16.1c0,5.3,3,8.3,8.2,8.3a9,9,0,0,0,7.1-2.9l.4.35c-1.15,3.45-3.9,5.65-8.4,5.65-6.5,0-10.75-4.35-10.75-11.3,0-6.6,3.85-12.35,10.35-12.35C781.06,404.39,784.61,409.44,784.26,416.64ZM768.36,414h12.3c-.25-4.75-2.6-6.75-5.65-6.75C771.71,407.24,769.11,409.74,768.36,414Z"/><path d="M791.66,423.94l-.2.05-.4,3.9h-2.25v-8.05h1.85a6.94,6.94,0,0,0,7.1,5.45c2.55,0,4.35-1.3,4.35-3.55,0-1.8-.8-3-3.9-3.8l-3.75-.95c-4.1-1-5.6-3.1-5.6-6.3,0-3.45,2.5-6.3,6.85-6.3a5.72,5.72,0,0,1,5.8,3.75l.2-.05.4-3.55h2.35V412h-2a5.58,5.58,0,0,0-5.9-5c-2.95,0-4.4,1.55-4.4,3.4,0,1.65.8,2.7,3.45,3.4l3.8,1c4.25,1,6,3,6,6.4,0,4.55-3.2,6.85-6.95,6.85A7,7,0,0,1,791.66,423.94Z"/><path d="M812.41,423.94l-.2.05-.4,3.9h-2.25v-8.05h1.85a6.94,6.94,0,0,0,7.1,5.45c2.55,0,4.35-1.3,4.35-3.55,0-1.8-.8-3-3.9-3.8l-3.75-.95c-4.1-1-5.6-3.1-5.6-6.3,0-3.45,2.5-6.3,6.85-6.3a5.72,5.72,0,0,1,5.8,3.75l.2-.05.4-3.55h2.35V412h-2a5.58,5.58,0,0,0-5.9-5c-2.95,0-4.4,1.55-4.4,3.4,0,1.65.8,2.7,3.45,3.4l3.8,1c4.25,1,6,3,6,6.4,0,4.55-3.2,6.85-6.95,6.85A7,7,0,0,1,812.41,423.94Z"/><path d="M849.81,416.64h-16.1c0,5.3,2.95,8.3,8.2,8.3A9,9,0,0,0,849,422l.4.35c-1.15,3.45-3.9,5.65-8.4,5.65-6.5,0-10.75-4.35-10.75-11.3,0-6.6,3.85-12.35,10.35-12.35C846.61,404.39,850.16,409.44,849.81,416.64ZM833.91,414h12.3c-.25-4.75-2.6-6.75-5.65-6.75C837.26,407.24,834.66,409.74,833.91,414Z"/><path d="M857.21,423.94l-.2.05-.4,3.9h-2.25v-8.05h1.85a6.94,6.94,0,0,0,7.1,5.45c2.55,0,4.35-1.3,4.35-3.55,0-1.8-.8-3-3.9-3.8L860,417c-4.1-1-5.6-3.1-5.6-6.3,0-3.45,2.5-6.3,6.85-6.3a5.72,5.72,0,0,1,5.8,3.75l.2-.05.4-3.55H870V412h-2a5.58,5.58,0,0,0-5.9-5c-3,0-4.4,1.55-4.4,3.4,0,1.65.8,2.7,3.45,3.4l3.8,1c4.25,1,6,3,6,6.4,0,4.55-3.2,6.85-7,6.85A7,7,0,0,1,857.21,423.94Z"/><path d="M874.26,432c2.45-1.15,3.85-2.8,3.75-4.65l-.1-.05a1.92,1.92,0,0,1-2.9-1.7,2.39,2.39,0,0,1,2.35-2.4c1.75,0,2.75,1.55,2.75,3.65,0,2.5-1.2,5.25-5,6.9Z"/><path d="M917.66,415.89c0,7.25-4.95,12.15-10.3,12.15a9.76,9.76,0,0,1-6.75-2.35v7.45c0,.9,0,.9,4.35,1.05v2.15h-11.4v-2.15c3.6-.15,3.6-.15,3.6-1.05l.05-25.05c0-.6,0-.6-3.9-.8v-2.4c3.85-.1,5.65-.2,7.1-.35l-.1,4.95.2.25c1.2-2.7,3.35-5.35,7.8-5.35C913.46,404.39,917.66,408.89,917.66,415.89Zm-3.55.3c0-5.35-2.65-8.5-7.15-8.5a8.13,8.13,0,0,0-6.35,2.9V422a7.71,7.71,0,0,0,6.2,3.1C910.91,425.09,914.11,421.64,914.11,416.19Z"/><path d="M946.21,425.29v2.25c-3.85.1-5.65.2-7.15.35l.1-4.7-.2-.3c-1.5,3-4,5.15-7.8,5.15-4.3,0-6.95-2.85-6.95-7.4V408.09c0-.6,0-.6-3.9-.8v-2.4c4-.1,5.85-.2,7.3-.35v14.85c0,3.4,1.7,5.25,4.9,5.25a8.29,8.29,0,0,0,6.4-3.05v-13.5c0-.6,0-.6-3.9-.8v-2.4c4-.1,5.85-.2,7.3-.35v20C942.31,425.09,942.31,425.09,946.21,425.29Z"/><path d="M971.21,415.89c0,7.25-5,12.15-10.3,12.15a10,10,0,0,1-7-2.55l-.4,2.25h-2.7V398.49c0-.6,0-.6-3.9-.8v-2.4c4-.1,5.9-.2,7.3-.35v14.9c1.15-2.75,3.35-5.45,7.9-5.45C967.26,404.39,971.21,408.89,971.21,415.89Zm-3.5.3c0-5.35-2.75-8.5-7.2-8.5a7.55,7.55,0,0,0-6.35,3.2V422a7.71,7.71,0,0,0,6.2,3.1C964.46,425.09,967.71,421.64,967.71,416.19Z"/><path d="M973.91,425.39c3.65-.15,3.65-.15,3.65-1.05V398.49c0-.6,0-.6-3.9-.8v-2.4c4-.1,5.85-.2,7.3-.35v29.4c0,.9,0,.9,3.65,1.05v2.15h-10.7Z"/><path d="M986.36,425.39c3.65-.15,3.65-.15,3.65-1.05V408.09c0-.6,0-.6-3.9-.8v-2.4c4-.1,5.85-.2,7.3-.35v19.8c0,.9,0,.9,3.65,1.05v2.15h-10.7Zm1.95-28.3a2.5,2.5,0,1,1,2.5,2.5A2.38,2.38,0,0,1,988.31,397.09Z"/><path d="M999.76,416.29c0-6.4,4.25-11.7,10.4-11.7,4.7,0,7.6,2.25,8.35,6.45l-3.15.65c-.75-2.9-2.55-4.3-5.25-4.3-4.05,0-6.9,3.7-6.9,8.95,0,5.7,3.35,8.65,7.5,8.65a9.34,9.34,0,0,0,7.1-3l.45.35c-1,3.35-3.65,5.7-8.2,5.7C1004.11,428,999.76,423.59,999.76,416.29Z"/><path d="M1053.41,416.64h-16.1c0,5.3,3,8.3,8.2,8.3a9,9,0,0,0,7.1-2.9l.4.35c-1.15,3.45-3.9,5.65-8.4,5.65-6.5,0-10.75-4.35-10.75-11.3,0-6.6,3.85-12.35,10.35-12.35C1050.21,404.39,1053.76,409.44,1053.41,416.64Zm-15.9-2.65h12.3c-.25-4.75-2.6-6.75-5.65-6.75C1040.86,407.24,1038.26,409.74,1037.51,414Z"/><path d="M1081.06,404.89v2.4c-3,.35-3,.35-3.35,1l-8,19.25h-3.55l-7.85-19.25c-.25-.65-.3-.65-3.3-1v-2.4h10.45v2.4c-3.5.2-3.5.25-3.25.9l4.6,12.05,1.5,3.9,1.45-3.9,4.7-12.05c.2-.65.25-.65-3.4-.9v-2.4Z"/><path d="M1102.11,416.64H1086c0,5.3,3,8.3,8.2,8.3a9,9,0,0,0,7.1-2.9l.4.35c-1.15,3.45-3.9,5.65-8.4,5.65-6.5,0-10.75-4.35-10.75-11.3,0-6.6,3.85-12.35,10.35-12.35C1098.91,404.39,1102.46,409.44,1102.11,416.64Zm-15.9-2.65h12.3c-.25-4.75-2.6-6.75-5.65-6.75C1089.56,407.24,1087,409.74,1086.21,414Z"/><path d="M1131.11,425.39v2.15h-7v-14.4c0-3.5-2-5.3-5.4-5.3a8.48,8.48,0,0,0-6.2,3.15v13.35c0,.9,0,.9,3.65,1.05v2.15h-10.7v-2.15c3.65-.15,3.65-.15,3.65-1.05V408.09c0-.6,0-.6-3.9-.8v-2.4c3.85-.1,5.6-.2,7.1-.35l-.1,4.95.2.3c1.6-3.2,4.25-5.4,8-5.4a6.91,6.91,0,0,1,7.15,7.3v12.65C1127.46,425.24,1127.46,425.24,1131.11,425.39Z"/><path d="M1135.81,421.59V407.64h-4.15v-2.75l2.45-.05c1.65-.2,1.85-.5,2.5-5.9h2.65v5.95h8v2.75h-8v13.25c0,2.6,1.15,3.95,3.65,3.95a6.52,6.52,0,0,0,4.45-1.5l.4.3a6.31,6.31,0,0,1-6.3,4.25C1137.51,427.89,1135.81,425.39,1135.81,421.59Z"/><path d="M1153.46,423.94l-.2.05-.4,3.9h-2.25v-8.05h1.85a6.94,6.94,0,0,0,7.1,5.45c2.55,0,4.35-1.3,4.35-3.55,0-1.8-.8-3-3.9-3.8l-3.75-.95c-4.1-1-5.6-3.1-5.6-6.3,0-3.45,2.5-6.3,6.85-6.3a5.72,5.72,0,0,1,5.8,3.75l.2-.05.4-3.55h2.35V412h-2a5.58,5.58,0,0,0-5.9-5c-2.95,0-4.4,1.55-4.4,3.4,0,1.65.8,2.7,3.45,3.4l3.8,1c4.25,1,6,3,6,6.4,0,4.55-3.2,6.85-7,6.85A7,7,0,0,1,1153.46,423.94Z"/><path d="M1170.51,432c2.45-1.15,3.85-2.8,3.75-4.65l-.1-.05a1.92,1.92,0,0,1-2.9-1.7,2.39,2.39,0,0,1,2.35-2.4c1.75,0,2.75,1.55,2.75,3.65,0,2.5-1.2,5.25-4.95,6.9Z"/><path d="M1212.66,424.39a4.54,4.54,0,0,1-4.45,3.65c-2,0-3.1-1.15-3.1-3.55v-1.4l-.3-.3c-1.55,3.35-4.15,5.25-7.7,5.25-3.9,0-6.1-2.45-6.1-6s2.2-5.4,7.45-6.7l6.25-1.55v-2.4c0-2.65-1.2-4.25-4.55-4.25s-5,1.9-5.05,4.6l-3.25-.5c0-4.25,3.4-6.65,8.5-6.65,5.5,0,7.75,2.5,7.75,6.55v11.7c0,1.35.5,2,1.75,2a3.91,3.91,0,0,0,2.5-.9Zm-8-2.65v-5.6l-5.5,1.55c-3.35.95-4.7,2.2-4.7,4.25s1.35,3.3,3.8,3.3A7.8,7.8,0,0,0,1204.71,421.74Z"/><path d="M1239.81,425.39v2.15h-7v-14.4c0-3.5-2-5.3-5.4-5.3a8.48,8.48,0,0,0-6.2,3.15v13.35c0,.9,0,.9,3.65,1.05v2.15h-10.7v-2.15c3.65-.15,3.65-.15,3.65-1.05V408.09c0-.6,0-.6-3.9-.8v-2.4c3.85-.1,5.6-.2,7.1-.35l-.1,4.95.2.3c1.6-3.2,4.25-5.4,8-5.4a6.91,6.91,0,0,1,7.15,7.3v12.65C1236.16,425.24,1236.16,425.24,1239.81,425.39Z"/><path d="M1266.76,425.29v2.25c-3.85.1-5.65.2-7.1.35l.1-4.7-.2-.25a8,8,0,0,1-7.8,5.1c-5.15,0-9.35-4.5-9.35-11.5,0-7.25,4.95-12.15,10.3-12.15a9.85,9.85,0,0,1,6.7,2.3v-8.2c0-.6,0-.6-3.85-.8v-2.4c4-.1,5.85-.2,7.3-.35v29.6C1262.86,425.09,1262.86,425.09,1266.76,425.29Zm-7.3-3.4,0-11.5a7.78,7.78,0,0,0-6.15-3.05c-4.1,0-7.3,3.45-7.3,8.9s2.65,8.5,7.15,8.5A8.33,8.33,0,0,0,1259.46,421.89Z"/><path d="M1303.16,415.89c0,7.25-5,12.15-10.3,12.15a9.79,9.79,0,0,1-6.76-2.35v7.45c0,.9,0,.9,4.36,1.05v2.15h-11.41v-2.15c3.6-.15,3.6-.15,3.6-1.05l0-25.05c0-.6,0-.6-3.9-.8v-2.4c3.85-.1,5.66-.2,7.1-.35l-.1,4.95.2.25c1.21-2.7,3.35-5.35,7.81-5.35C1299,404.39,1303.16,408.89,1303.16,415.89Zm-3.55.3c0-5.35-2.65-8.5-7.15-8.5a8.15,8.15,0,0,0-6.36,2.9V422a7.71,7.71,0,0,0,6.2,3.1C1296.41,425.09,1299.61,421.64,1299.61,416.19Z"/><path d="M1322.05,404.59v3.55a10.26,10.26,0,0,0-1.3-.1c-3,0-5.5,1.85-7.4,4.35v11.95c0,.9,0,.9,4.7,1.05v2.15H1306.3v-2.15c3.65-.15,3.65-.15,3.65-1.05V408.09c0-.6,0-.6-3.9-.8v-2.4c3.85-.1,5.6-.2,7.1-.35l-.1,6,.2.3c1.85-3.75,4.1-6.4,7.66-6.4A5.11,5.11,0,0,1,1322.05,404.59Z"/><path d="M1325.35,425.39c3.65-.15,3.65-.15,3.65-1.05V408.09c0-.6,0-.6-3.9-.8v-2.4c4-.1,5.85-.2,7.3-.35v19.8c0,.9,0,.9,3.65,1.05v2.15h-10.7Zm2-28.3a2.5,2.5,0,1,1,2.5,2.5A2.38,2.38,0,0,1,1327.3,397.09Z"/><path d="M1362.75,404.89v2.4c-3,.35-3,.35-3.35,1l-8,19.25h-3.55l-7.85-19.25c-.25-.65-.3-.65-3.3-1v-2.4h10.45v2.4c-3.5.2-3.5.25-3.25.9l4.6,12.05,1.5,3.9,1.45-3.9,4.7-12.05c.2-.65.25-.65-3.4-.9v-2.4Z"/><path d="M1385.8,424.39a4.53,4.53,0,0,1-4.45,3.65c-1.95,0-3.1-1.15-3.1-3.55v-1.4l-.29-.3c-1.56,3.35-4.16,5.25-7.71,5.25-3.9,0-6.1-2.45-6.1-6s2.2-5.4,7.45-6.7l6.25-1.55v-2.4c0-2.65-1.2-4.25-4.55-4.25s-5,1.9-5,4.6l-3.25-.5c0-4.25,3.4-6.65,8.5-6.65,5.5,0,7.75,2.5,7.75,6.55v11.7c0,1.35.5,2,1.75,2a3.91,3.91,0,0,0,2.5-.9Zm-8-2.65v-5.6l-5.5,1.55c-3.35.95-4.7,2.2-4.7,4.25s1.35,3.3,3.8,3.3A7.8,7.8,0,0,0,1377.85,421.74Z"/><path d="M1390.05,421.59V407.64h-4.15v-2.75l2.45-.05c1.65-.2,1.85-.5,2.5-5.9h2.65v5.95h8v2.75h-8v13.25c0,2.6,1.15,3.95,3.65,3.95a6.52,6.52,0,0,0,4.45-1.5l.4.3a6.31,6.31,0,0,1-6.3,4.25C1391.75,427.89,1390.05,425.39,1390.05,421.59Z"/><path d="M1423.66,416.64h-16.11c0,5.3,3,8.3,8.2,8.3a9,9,0,0,0,7.1-2.9l.4.35c-1.15,3.45-3.9,5.65-8.4,5.65-6.5,0-10.75-4.35-10.75-11.3,0-6.6,3.85-12.35,10.35-12.35C1420.46,404.39,1424,409.44,1423.66,416.64ZM1407.75,414h12.3c-.25-4.75-2.59-6.75-5.65-6.75C1411.1,407.24,1408.5,409.74,1407.75,414Z"/><path d="M1458.45,416.64h-16.1c0,5.3,3,8.3,8.2,8.3a9,9,0,0,0,7.1-2.9l.4.35c-1.15,3.45-3.9,5.65-8.4,5.65-6.5,0-10.75-4.35-10.75-11.3,0-6.6,3.85-12.35,10.35-12.35C1455.25,404.39,1458.8,409.44,1458.45,416.64Zm-15.9-2.65h12.3c-.25-4.75-2.6-6.75-5.65-6.75C1445.9,407.24,1443.3,409.74,1442.55,414Z"/><path d="M1486.1,404.89v2.4c-3,.35-3,.35-3.35,1l-8,19.25h-3.55l-7.85-19.25c-.25-.65-.3-.65-3.3-1v-2.4h10.45v2.4c-3.5.2-3.5.25-3.25.9l4.6,12.05,1.5,3.9,1.45-3.9,4.7-12.05c.2-.65.25-.65-3.4-.9v-2.4Z"/><path d="M1507.15,416.64h-16.1c0,5.3,3,8.3,8.2,8.3a9,9,0,0,0,7.1-2.9l.4.35c-1.15,3.45-3.9,5.65-8.4,5.65-6.5,0-10.75-4.35-10.75-11.3,0-6.6,3.85-12.35,10.35-12.35C1504,404.39,1507.5,409.44,1507.15,416.64Zm-15.9-2.65h12.3c-.25-4.75-2.6-6.75-5.65-6.75C1494.6,407.24,1492,409.74,1491.25,414Z"/><path d="M1536.15,425.39v2.15h-7.05v-14.4c0-3.5-2-5.3-5.4-5.3a8.48,8.48,0,0,0-6.2,3.15v13.35c0,.9,0,.9,3.65,1.05v2.15h-10.7v-2.15c3.65-.15,3.65-.15,3.65-1.05V408.09c0-.6,0-.6-3.9-.8v-2.4c3.85-.1,5.6-.2,7.1-.35l-.1,4.95.2.3c1.6-3.2,4.25-5.4,7.95-5.4a6.91,6.91,0,0,1,7.15,7.3v12.65C1532.5,425.24,1532.5,425.24,1536.15,425.39Z"/><path d="M1540.85,421.59V407.64h-4.15v-2.75l2.45-.05c1.65-.2,1.85-.5,2.5-5.9h2.65v5.95h8v2.75h-8v13.25c0,2.6,1.15,3.95,3.65,3.95a6.52,6.52,0,0,0,4.45-1.5l.4.3a6.31,6.31,0,0,1-6.3,4.25C1542.55,427.89,1540.85,425.39,1540.85,421.59Z"/><path d="M1558.5,423.94l-.2.05-.4,3.9h-2.25v-8.05h1.85a6.94,6.94,0,0,0,7.1,5.45c2.55,0,4.35-1.3,4.35-3.55,0-1.8-.8-3-3.9-3.8l-3.75-.95c-4.1-1-5.6-3.1-5.6-6.3,0-3.45,2.5-6.3,6.85-6.3a5.72,5.72,0,0,1,5.8,3.75l.2-.05.4-3.55h2.35V412h-2a5.58,5.58,0,0,0-5.9-5c-3,0-4.4,1.55-4.4,3.4,0,1.65.8,2.7,3.45,3.4l3.8,1c4.25,1,6,3,6,6.4,0,4.55-3.2,6.85-7,6.85A7,7,0,0,1,1558.5,423.94Z"/><path d="M1576.35,425.54a2.43,2.43,0,0,1,4.85,0,2.43,2.43,0,0,1-4.85,0Z"/></svg>