<svg id="Layer_1" data-name="Layer 1" xmlns="http://www.w3.org/2000/svg" viewBox="0 0 1200 1200"><defs><style>.cls-1{fill:#f1f1f1;}.cls-2{fill:#71bed3;}.cls-3{fill:#87725e;}.cls-4{fill:#7fae65;}.cls-5{fill:#3e3b39;}</style></defs><rect class="cls-1" width="1200" height="1200"/><path class="cls-2" d="M660,356.49c1.19.36,2.39.74,3.58,1.13C662.37,357.23,661.18,356.86,660,356.49Z"/><path class="cls-2" d="M788.12,529.7a181.61,181.61,0,0,0-5.41-44.1,182.12,182.12,0,0,1,5.41,44.21Z"/><path class="cls-2" d="M655.6,355.21c1.28.36,2.57.73,3.84,1.12C658.17,355.94,656.89,355.57,655.6,355.21Z"/><path class="cls-2" d="M788,535.29c0,.77,0,1.53-.08,2.3C788,536.83,788,536.06,788,535.29Z"/><path class="cls-2" d="M780.43,477.32c.38,1.27.75,2.54,1.1,3.82C781.18,479.86,780.81,478.59,780.43,477.32Z"/><path class="cls-2" d="M771,452.71c.51,1.07,1,2.16,1.49,3.24C772,454.86,771.49,453.78,771,452.71Z"/><path class="cls-2" d="M788.12,530c0,1.25,0,2.49,0,3.74C788.1,532.52,788.12,531.28,788.12,530Z"/><path class="cls-2" d="M781.62,481.45c.37,1.36.74,2.73,1.08,4.11Q782.18,483.49,781.62,481.45Z"/><path class="cls-2" d="M776.22,465c.4,1.06.79,2.12,1.18,3.18C777,467.12,776.62,466.05,776.22,465Z"/><path class="cls-2" d="M672.72,360.91c1,.41,2.1.82,3.14,1.25C674.82,361.73,673.77,361.32,672.72,360.91Z"/><path class="cls-2" d="M668.55,359.34q1.62.59,3.21,1.2Q670.17,359.92,668.55,359.34Z"/><path class="cls-2" d="M777.73,469.1c.39,1.1.77,2.22,1.15,3.33C778.5,471.32,778.12,470.2,777.73,469.1Z"/><path class="cls-2" d="M779.13,473.2c.39,1.18.76,2.37,1.13,3.56C779.89,475.57,779.52,474.38,779.13,473.2Z"/><path class="cls-2" d="M772.85,456.81c.45,1,.9,2.08,1.34,3.12C773.75,458.88,773.3,457.84,772.85,456.81Z"/><path class="cls-2" d="M664.3,357.87c1.13.37,2.25.76,3.36,1.15C666.55,358.63,665.43,358.24,664.3,357.87Z"/><path class="cls-2" d="M684.66,366.06q1.76.84,3.51,1.71Q686.42,366.9,684.66,366.06Z"/><path class="cls-2" d="M787.75,541.46c0-.13,0-.27,0-.41C787.76,541.19,787.75,541.33,787.75,541.46Z"/><path class="cls-2" d="M768.83,448.29a181.86,181.86,0,0,0-80.39-80.38,183.08,183.08,0,0,1,80.39,80.38Z"/><path class="cls-2" d="M607.05,348.63h-.11A182.27,182.27,0,0,1,651.16,354,181.69,181.69,0,0,0,607.05,348.63Z"/><path class="cls-2" d="M774.59,460.9c.43,1,.84,2.07,1.24,3.11C775.43,463,775,461.93,774.59,460.9Z"/><path class="cls-2" d="M604,348.65l2.57,0Z"/><path class="cls-2" d="M651.18,354.05c1.38.34,2.76.71,4.13,1.08C653.94,354.76,652.56,354.39,651.18,354.05Z"/><path class="cls-2" d="M601.46,348.72l1.14,0Z"/><path class="cls-2" d="M490.52,393.27a54.15,54.15,0,0,1,8.32-3.6h0c.85-.3,1.72-.56,2.59-.81l.79-.21c.64-.17,1.28-.33,1.93-.48L505,388c.8-.17,1.61-.33,2.43-.47l.23,0c.89-.15,1.79-.27,2.68-.37l.79-.08c.66-.07,1.32-.12,2-.17l.84-.05c.77,0,1.54-.06,2.31-.07h.5c.63,0,1.25,0,1.88,0,.33,0,.66,0,1,0s1,.07,1.45.11,1,.06,1.49.12a50.76,50.76,0,0,1,5.9,1,54.11,54.11,0,0,1,8.53,2.68,52.75,52.75,0,0,1,5.38,2.53c.87.47,1.73,1,2.58,1.48l2.52,1.57,2.36,1.8c.29.24.6.46.9.69l.65.52c.26.21.52.41.76.63l1.08,1,1.08,1a23,23,0,0,1,2.09,2.1c.67.75,1.33,1.53,2,2.28.33.38.63.79.92,1.2s.57.83.87,1.24a23.35,23.35,0,0,1,1.65,2.53l.74,1.31.74,1.32c.46.89.84,1.83,1.25,2.74l.6,1.38.48,1.43c.31.95.65,1.9.92,2.86a51.44,51.44,0,0,1,1.14,5.89,45.64,45.64,0,0,1,.37,6,44.88,44.88,0,0,1-1.73,11.75,43.53,43.53,0,0,1-2,5.57,40.88,40.88,0,0,1-2.8,5.22c-.24.43-.51.85-.78,1.26-.83,1.22-1.77,2.37-2.65,3.54-.62.77-1.33,1.45-2,2.18a23.07,23.07,0,0,1-2.11,2.08c-.77.64-1.48,1.35-2.31,1.93l-2.45,1.73-2.62,1.48c-.88.48-1.82.84-2.72,1.25s-1.7.65-2.57.93l-.4.13c-.82.26-1.66.48-2.5.67l-.49.11c-.85.18-1.7.34-2.56.46l-.36,0c-.86.12-1.73.2-2.6.25h-.16c-.59,0-1.19.05-1.78.05-.22,0-.44,0-.65,0s-.71,0-1.07,0c-.58,0-1.16-.08-1.74-.14l-1-.11c-.63-.08-1.25-.19-1.86-.31l-.87-.16q-1.35-.29-2.67-.69a34.81,34.81,0,0,1-10.49-5.26c-.76-.62-1.59-1.15-2.29-1.84l-2.12-2c-.66-.75-1.33-1.49-1.95-2.27s-1.19-1.61-1.7-2.46a27.94,27.94,0,0,1-2.84-22.8,26.59,26.59,0,0,1,2.19-5c.29-.54.61-1.06.94-1.57a28,28,0,0,1,2.67-3.46,25.27,25.27,0,0,1,2.07-2.07,21.76,21.76,0,0,1,7.65-4.39h0c.51-.17,1-.32,1.55-.46l.52-.11c.36-.08.72-.16,1.08-.22l.6-.09c.34-.05.69-.09,1-.12l.61-.05c.36,0,.71,0,1.07,0l.39,0h.13c.69,0,1.38,0,2.06.1l.44.05a21.12,21.12,0,0,1,2.09.33,22.81,22.81,0,0,1,5.45,2,21.58,21.58,0,0,1,2.48,1.51,20.55,20.55,0,0,1,2.23,1.84,17,17,0,0,1,2.85,3.31,18,18,0,0,1,2.66,6.76,17.05,17.05,0,0,1-5.46,15.66,13.93,13.93,0,0,1-1.13.9,13,13,0,0,1-2.51,1.43,11,11,0,0,1-1.35.51c-.41.13-.83.24-1.25.33l-.37.07q-.48.09-1,.15l-.35,0q-.62.06-1.23.06h0c-.17,0-.35,0-.52,0V452l-.31,0H527l.43,0c.24,0,.47,0,.71-.06s.28,0,.42-.06l.75-.14.35-.08c.37-.1.72-.2,1.07-.33a11.52,11.52,0,0,0,4-2.53,15.47,15.47,0,0,0,1.58-1.84c.24-.32.47-.66.68-1s.41-.7.59-1.06a13.85,13.85,0,0,0,.87-2.24q.18-.59.3-1.17a15.8,15.8,0,0,0,.3-2.38,13.62,13.62,0,0,0-.09-2.39c0-.39-.11-.78-.2-1.17A14.06,14.06,0,0,0,534,427.6a16.38,16.38,0,0,0-2.94-2.06,17.11,17.11,0,0,0-2.17-1,18.74,18.74,0,0,0-3.42-1h0c-.46-.08-.92-.13-1.37-.17l-.43,0-1,0h-.44c-.42,0-.84,0-1.25.06h-.2c-.47,0-.94.11-1.41.19l-.38.07c-.36.07-.71.15-1.06.24l-.4.11c-.46.14-.91.28-1.35.46a16.09,16.09,0,0,0-3.14,1.55,17.9,17.9,0,0,0-1.86,1.38q-.45.38-.87.78a19,19,0,0,0-1.6,1.74,22.48,22.48,0,0,0-2.62,3.94,21.35,21.35,0,0,0-2.43,10.93c0,.73.1,1.46.2,2.18a21.81,21.81,0,0,0,3.47,9.13c.21.32.45.62.68.93s.48.6.71.91c.51.57,1,1.11,1.57,1.68l1.79,1.54a10.65,10.65,0,0,0,1.26,1c.22.14.44.29.64.44a27.77,27.77,0,0,0,8.51,3.83c.68.18,1.36.32,2,.44l.58.09c.55.08,1.09.15,1.64.2l.48,0c.69.05,1.38.07,2.07.07h.36c.61,0,1.21-.05,1.81-.1l.38,0c.67-.07,1.34-.16,2-.28l.43-.08c.61-.12,1.21-.25,1.8-.41l.26-.06c.65-.18,1.29-.38,1.92-.61l.44-.16c.64-.24,1.27-.49,1.89-.77h0c.34-.18.69-.34,1-.51s.68-.34,1-.54l1.94-1.21,1.81-1.4c.61-.46,1.11-1,1.68-1.54a15.24,15.24,0,0,0,1.58-1.71c.5-.6,1.05-1.16,1.51-1.79.22-.33.44-.65.67-1a21.65,21.65,0,0,0,1.88-2.95c.39-.68.75-1.36,1.09-2.06s.65-1.41.93-2.13A34.19,34.19,0,0,0,558,437.74c.08-1.15.11-2.31.08-3.46a33.41,33.41,0,0,0-.5-4.58,38.51,38.51,0,0,0-1.06-4.46c-.24-.72-.53-1.42-.79-2.14l-.41-1.07-.51-1c-.35-.67-.65-1.37-1-2l-1.21-1.93a9.47,9.47,0,0,0-.86-1.24l-.46-.6c-.16-.19-.31-.4-.46-.6a13.57,13.57,0,0,0-1-1.17,35.48,35.48,0,0,0-3.27-3.21l-1.77-1.52a7.89,7.89,0,0,0-.93-.71c-.32-.22-.65-.43-1-.66L541,406l-2-1.13a42,42,0,0,0-17.57-5.21c-.82-.05-1.63-.07-2.44-.07s-1.42,0-2.13,0l-.27,0c-.63,0-1.25.08-1.87.14l-.73.08-1.41.19-.81.13c-.44.07-.88.15-1.31.24l-.83.17-1.3.31-.79.21-1.39.41-.66.21c-.67.22-1.34.46-2,.71a41.52,41.52,0,0,0-6.11,3c-.65.38-1.29.78-1.91,1.2a41.48,41.48,0,0,0-5.16,4.08l-.6.58c-.12.13-.25.25-.37.37h0a1.85,1.85,0,0,0-.14.14l-.31.3c-1.54,1.54-3,3.11-4.48,4.69a166.33,166.33,0,0,0-44,120.19l57.73-43.83,42.27,31.7,66.5-82.5,66.49,82.5,42.28-31.7L773.39,537A166.8,166.8,0,0,0,529.63,382.09,61.58,61.58,0,0,0,523.2,381a61.54,61.54,0,0,0-21.79,1.6,181.34,181.34,0,0,0-20.62,17.29,54,54,0,0,1,7.1-5.13C488.75,394.25,489.63,393.75,490.52,393.27Z"/><path class="cls-2" d="M676.8,362.55l3.16,1.36Z"/><path class="cls-2" d="M769,448.6c.58,1.15,1.15,2.31,1.7,3.47C770.13,450.91,769.56,449.75,769,448.6Z"/><path class="cls-2" d="M680.78,364.27c1.1.49,2.19,1,3.28,1.51C683,365.26,681.88,364.76,680.78,364.27Z"/><path class="cls-3" d="M670.88,544.85l-64-79.39-64,79.39-44.72-33.54L442,554q.56,3.85,1.3,7.71c42.32-5.66,80.09-1.06,112.25,13.69,18.9,8.67,31.72,18.76,43,27.76a202.47,202.47,0,0,1,171.37-38.43Q771,559.37,771.8,554l-56.2-42.67Z"/><path class="cls-4" d="M610.3,612.37c9.06,6.77,18.5,12.64,31.56,17.12,29.63,10.15,64.51,7.78,103.7-7a165.23,165.23,0,0,0,20.7-43.7,187.93,187.93,0,0,0-156,33.62Z"/><path class="cls-4" d="M637.16,643.2c-20.64-7.07-33.31-17.22-46.73-28-11.36-9.1-23.11-18.5-40.93-26.68-29.27-13.42-63.86-17.67-102.83-12.68A165.63,165.63,0,0,0,489,647.76c65,65,170.79,65,235.8,0,1.54-1.54,3-3.11,4.5-4.7a182.52,182.52,0,0,1-48.81,7.11A132.81,132.81,0,0,1,637.16,643.2Z"/><path class="cls-5" d="M680,363.91l.82.36Z"/><path class="cls-5" d="M675.86,362.16l.94.39Z"/><path class="cls-5" d="M602.6,348.68l1.42,0Z"/><path class="cls-5" d="M606.89,348.63h0Z"/><path class="cls-5" d="M684.06,365.78l.6.28Z"/><path class="cls-5" d="M501,382.71l.37-.09a180.14,180.14,0,0,1,100.05-33.9A179.65,179.65,0,0,0,501,382.71Z"/><path class="cls-5" d="M651.16,354h0Z"/><path class="cls-5" d="M671.76,360.54l1,.37Z"/><path class="cls-5" d="M667.66,359l.89.32Z"/><path class="cls-5" d="M655.31,355.13l.29.08Z"/><path class="cls-5" d="M663.56,357.62l.74.25Z"/><path class="cls-5" d="M659.44,356.33l.54.16Z"/><path class="cls-5" d="M788.12,529.86v0Z"/><path class="cls-5" d="M781.53,481.14l.09.31Z"/><path class="cls-5" d="M782.7,485.56v0Z"/><path class="cls-5" d="M778.88,472.43c.08.26.17.52.25.77C779.05,473,779,472.69,778.88,472.43Z"/><path class="cls-5" d="M780.26,476.76c0,.18.11.37.17.56C780.37,477.13,780.31,476.94,780.26,476.76Z"/><path class="cls-5" d="M788.07,533.77c0,.51,0,1,0,1.52C788.05,534.78,788.06,534.28,788.07,533.77Z"/><path class="cls-5" d="M788,537.59c-.05,1.16-.11,2.31-.18,3.46C787.84,539.9,787.9,538.75,788,537.59Z"/><path class="cls-5" d="M772.47,456l.38.86Z"/><path class="cls-5" d="M770.68,452.07l.3.64Z"/><path class="cls-5" d="M777.4,468.18l.33.92Z"/><path class="cls-5" d="M768.83,448.29l.15.31Z"/><path class="cls-5" d="M688.17,367.77l.27.14Z"/><path class="cls-5" d="M775.83,464l.39,1Z"/><path class="cls-5" d="M774.19,459.93l.4,1Z"/><path class="cls-5" d="M782.71,485.6v0c-.34-1.38-.71-2.75-1.08-4.11l-.09-.31c-.35-1.28-.72-2.55-1.1-3.82-.06-.19-.12-.38-.17-.56-.37-1.19-.74-2.38-1.13-3.56-.08-.25-.17-.51-.25-.77-.38-1.11-.76-2.23-1.15-3.33l-.33-.92c-.39-1.06-.78-2.12-1.18-3.18l-.39-1c-.4-1-.81-2.08-1.24-3.11l-.4-1c-.44-1-.89-2.09-1.34-3.12l-.38-.86c-.49-1.08-1-2.17-1.49-3.24l-.3-.64c-.55-1.16-1.12-2.32-1.7-3.47l-.15-.31a183.08,183.08,0,0,0-80.39-80.38l-.27-.14q-1.75-.87-3.51-1.71l-.6-.28c-1.09-.52-2.18-1-3.28-1.51l-.82-.36-3.16-1.36-.94-.39c-1-.43-2.09-.84-3.14-1.25l-1-.37q-1.59-.62-3.21-1.2l-.89-.32c-1.11-.39-2.23-.78-3.36-1.15l-.74-.25c-1.19-.39-2.39-.77-3.58-1.13l-.54-.16c-1.27-.39-2.56-.76-3.84-1.12l-.29-.08c-1.37-.37-2.75-.74-4.13-1.08h0a182.27,182.27,0,0,0-44.22-5.41h-.35l-2.57,0-1.42,0-1.14,0a180.14,180.14,0,0,0-100.05,33.9,59.81,59.81,0,0,1,28.22-.53A166.65,166.65,0,0,1,773.39,537l-57.73-43.83-42.28,31.7-66.49-82.5-66.5,82.5-42.27-31.7L440.39,537a166.33,166.33,0,0,1,44-120.19c1.46-1.58,2.94-3.15,4.48-4.69l.31-.3a1.85,1.85,0,0,1,.14-.14h0c.12-.12.25-.24.37-.37l.6-.58a41.48,41.48,0,0,1,5.16-4.08c.62-.42,1.26-.82,1.91-1.2a41.52,41.52,0,0,1,6.11-3c.66-.25,1.33-.49,2-.71l.66-.21,1.39-.41.79-.21,1.3-.31.83-.17c.43-.09.87-.17,1.31-.24l.81-.13,1.41-.19.73-.08c.62-.06,1.24-.11,1.87-.14l.27,0c.71,0,1.42,0,2.13,0s1.62,0,2.44.07A42,42,0,0,1,539,404.87l2,1.13,1.9,1.34c.31.23.64.44,1,.66a7.89,7.89,0,0,1,.93.71l1.77,1.52a35.48,35.48,0,0,1,3.27,3.21,13.57,13.57,0,0,1,1,1.17c.15.2.3.41.46.6l.46.6a9.47,9.47,0,0,1,.86,1.24l1.21,1.93c.37.66.67,1.36,1,2l.51,1,.41,1.07c.26.72.55,1.42.79,2.14a38.51,38.51,0,0,1,1.06,4.46,33.41,33.41,0,0,1,.5,4.58c0,1.15,0,2.31-.08,3.46a34.19,34.19,0,0,1-2.27,10.15q-.42,1.08-.93,2.13c-.34.7-.7,1.38-1.09,2.06a21.65,21.65,0,0,1-1.88,2.95c-.23.32-.45.64-.67,1-.46.63-1,1.19-1.51,1.79a15.24,15.24,0,0,1-1.58,1.71c-.57.5-1.07,1.08-1.68,1.54l-1.81,1.4-1.94,1.21c-.33.2-.67.37-1,.54s-.69.33-1,.51h0c-.62.28-1.25.53-1.89.77l-.44.16c-.63.23-1.27.43-1.92.61l-.26.06c-.59.16-1.19.29-1.8.41l-.43.08c-.66.12-1.33.21-2,.28l-.38,0c-.6,0-1.2.08-1.81.1h-.36c-.69,0-1.38,0-2.07-.07l-.48,0c-.55-.05-1.09-.12-1.64-.2l-.58-.09c-.68-.12-1.36-.26-2-.44a27.77,27.77,0,0,1-8.51-3.83c-.2-.15-.42-.3-.64-.44a10.65,10.65,0,0,1-1.26-1l-1.79-1.54c-.52-.57-1.06-1.11-1.57-1.68-.23-.31-.47-.61-.71-.91s-.47-.61-.68-.93a21.81,21.81,0,0,1-3.47-9.13c-.1-.72-.17-1.45-.2-2.18a21.35,21.35,0,0,1,2.43-10.93,22.48,22.48,0,0,1,2.62-3.94,19,19,0,0,1,1.6-1.74q.42-.41.87-.78a17.9,17.9,0,0,1,1.86-1.38,16.09,16.09,0,0,1,3.14-1.55c.44-.18.89-.32,1.35-.46l.4-.11c.35-.09.7-.17,1.06-.24l.38-.07c.47-.08.94-.15,1.41-.19h.2c.41,0,.83-.05,1.25-.06h.44l1,0,.43,0c.45,0,.91.09,1.37.17h0a18.74,18.74,0,0,1,3.42,1,17.11,17.11,0,0,1,2.17,1A16.38,16.38,0,0,1,534,427.6a14.06,14.06,0,0,1,4.81,7.95c.09.39.15.78.2,1.17a13.62,13.62,0,0,1,.09,2.39,15.8,15.8,0,0,1-.3,2.38q-.12.58-.3,1.17a13.85,13.85,0,0,1-.87,2.24c-.18.36-.38.71-.59,1.06s-.44.68-.68,1a15.47,15.47,0,0,1-1.58,1.84,11.52,11.52,0,0,1-4,2.53c-.35.13-.7.23-1.07.33l-.35.08-.75.14c-.14,0-.28,0-.42.06s-.47.05-.71.06l-.43,0h-.57l.31,0v2.05c.17,0,.35,0,.52,0h0q.61,0,1.23-.06l.35,0q.48-.06,1-.15l.37-.07c.42-.09.84-.2,1.25-.33a11,11,0,0,0,1.35-.51,13,13,0,0,0,2.51-1.43,13.93,13.93,0,0,0,1.13-.9A17.05,17.05,0,0,0,541.93,435a18,18,0,0,0-2.66-6.76,17,17,0,0,0-2.85-3.31,20.55,20.55,0,0,0-2.23-1.84,21.58,21.58,0,0,0-2.48-1.51,22.81,22.81,0,0,0-5.45-2,21.12,21.12,0,0,0-2.09-.33l-.44-.05c-.68-.06-1.37-.1-2.06-.1h-.13l-.39,0c-.36,0-.71,0-1.07,0l-.61.05c-.34,0-.69.07-1,.12l-.6.09c-.36.06-.72.14-1.08.22l-.52.11c-.52.14-1,.29-1.55.46h0a21.76,21.76,0,0,0-7.65,4.39,25.27,25.27,0,0,0-2.07,2.07,28,28,0,0,0-2.67,3.46c-.33.51-.65,1-.94,1.57a26.59,26.59,0,0,0-2.19,5,27.94,27.94,0,0,0,2.84,22.8c.51.85,1.13,1.64,1.7,2.46s1.29,1.52,1.95,2.27l2.12,2c.7.69,1.53,1.22,2.29,1.84a34.81,34.81,0,0,0,10.49,5.26q1.32.4,2.67.69l.87.16c.61.12,1.23.23,1.86.31l1,.11c.58.06,1.16.11,1.74.14.36,0,.71,0,1.07,0s.43,0,.65,0c.59,0,1.19,0,1.78-.05h.16c.87-.05,1.74-.13,2.6-.25l.36,0c.86-.12,1.71-.28,2.56-.46l.49-.11c.84-.19,1.68-.41,2.5-.67l.4-.13c.87-.28,1.72-.58,2.57-.93s1.84-.77,2.72-1.25l2.62-1.48,2.45-1.73c.83-.58,1.54-1.29,2.31-1.93a23.07,23.07,0,0,0,2.11-2.08c.66-.73,1.37-1.41,2-2.18.88-1.17,1.82-2.32,2.65-3.54.27-.41.54-.83.78-1.26a40.88,40.88,0,0,0,2.8-5.22,43.53,43.53,0,0,0,2-5.57A44.88,44.88,0,0,0,568,434.18a45.64,45.64,0,0,0-.37-6,51.44,51.44,0,0,0-1.14-5.89c-.27-1-.61-1.91-.92-2.86l-.48-1.43-.6-1.38c-.41-.91-.79-1.85-1.25-2.74l-.74-1.32-.74-1.31a23.35,23.35,0,0,0-1.65-2.53c-.3-.41-.58-.82-.87-1.24s-.59-.82-.92-1.2c-.66-.75-1.32-1.53-2-2.28a23,23,0,0,0-2.09-2.1l-1.08-1-1.08-1c-.24-.22-.5-.42-.76-.63l-.65-.52c-.3-.23-.61-.45-.9-.69l-2.36-1.8-2.52-1.57c-.85-.52-1.71-1-2.58-1.48a52.75,52.75,0,0,0-5.38-2.53,54.11,54.11,0,0,0-8.53-2.68,50.76,50.76,0,0,0-5.9-1c-.49-.06-1-.08-1.49-.12s-1-.09-1.45-.11-.66,0-1,0c-.63,0-1.25,0-1.88,0h-.5c-.77,0-1.54,0-2.31.07l-.84.05c-.66,0-1.32.1-2,.17l-.79.08c-.89.1-1.79.22-2.68.37l-.23,0c-.82.14-1.63.3-2.43.47l-.81.19c-.65.15-1.29.31-1.93.48l-.79.21c-.87.25-1.74.51-2.59.81h0a54.15,54.15,0,0,0-8.32,3.6c-.89.48-1.77,1-2.63,1.51a54,54,0,0,0-7.1,5.13l-.26.21c-.73.63-1.45,1.28-2.15,1.95l-.1.09h0c-1.43,1.43-2.82,2.89-4.19,4.36A181.23,181.23,0,1,0,787.75,541.46c0-.13,0-.27,0-.41.07-1.15.13-2.3.18-3.46,0-.77.06-1.53.08-2.3,0-.51,0-1,0-1.52,0-1.25,0-2.49,0-3.74v-.22A182.12,182.12,0,0,0,782.71,485.6ZM498.18,511.31l44.72,33.54,64-79.39,64,79.39,44.72-33.54L771.8,554q-.78,5.4-1.92,10.73a202.47,202.47,0,0,0-171.37,38.43c-11.25-9-24.07-19.09-43-27.76-32.16-14.75-69.93-19.35-112.25-13.69q-.75-3.86-1.3-7.71ZM745.56,622.45c-39.19,14.82-74.07,17.19-103.7,7-13.06-4.48-22.5-10.35-31.56-17.12a187.93,187.93,0,0,1,156-33.62A165.23,165.23,0,0,1,745.56,622.45Zm-20.77,25.31c-65,65-170.79,65-235.8,0a165.63,165.63,0,0,1-42.32-71.88c39-5,73.56-.74,102.83,12.68,17.82,8.18,29.57,17.58,40.93,26.68,13.42,10.74,26.09,20.89,46.73,28a132.81,132.81,0,0,0,43.32,7,182.52,182.52,0,0,0,48.81-7.11C727.82,644.65,726.33,646.22,724.79,647.76Z"/><path class="cls-5" d="M336,774.43a9.77,9.77,0,0,0,2.77-7,11.56,11.56,0,0,0-1.9-6.54,12.83,12.83,0,0,0-5.89-4.57,25.05,25.05,0,0,0-9.8-1.7H301.87v44.67h12.25V782.6h2.64a6,6,0,0,1,3.7,1,4.77,4.77,0,0,1,1.73,2.53,29.39,29.39,0,0,1,.8,4.4,45.75,45.75,0,0,0,.83,4.88,12.87,12.87,0,0,0,1.66,3.91h13.23a13.43,13.43,0,0,1-2-3.77,40.68,40.68,0,0,1-1.17-4.88,37.65,37.65,0,0,0-1.18-4.75,10.31,10.31,0,0,0-2.11-3.5,12,12,0,0,0-4.33-2.84v-.62A18.12,18.12,0,0,0,336,774.43Zm-11.57-1.63a7.43,7.43,0,0,1-4.5,1.14h-5.82v-9.35h5.34a10.64,10.64,0,0,1,3.74.56,4.21,4.21,0,0,1,2.11,1.56,4.35,4.35,0,0,1,.66,2.45A4.24,4.24,0,0,1,324.44,772.8Z"/><path class="cls-5" d="M397,789.15a26.38,26.38,0,0,0,2.66-12.09,29,29,0,0,0-2.39-12.22,18,18,0,0,0-7.2-8.14,22.45,22.45,0,0,0-11.81-2.91,22.91,22.91,0,0,0-11.77,2.91,19.14,19.14,0,0,0-7.62,8.14,26.28,26.28,0,0,0-2.64,12,29.43,29.43,0,0,0,2.39,12.3,18,18,0,0,0,7.17,8.1,22.45,22.45,0,0,0,11.78,2.87,23.12,23.12,0,0,0,11.77-2.87A19.26,19.26,0,0,0,397,789.15Zm-10.95-5.75a9.16,9.16,0,0,1-2.94,4.33,8.12,8.12,0,0,1-5.2,1.59,8.47,8.47,0,0,1-5.4-1.59,8.35,8.35,0,0,1-2.8-4.33,23.33,23.33,0,0,1-.8-6.55,19.94,19.94,0,0,1,.9-6.3,8.9,8.9,0,0,1,2.91-4.29,8.06,8.06,0,0,1,5.19-1.6,8.5,8.5,0,0,1,5.47,1.6,8.3,8.3,0,0,1,2.81,4.32,23.42,23.42,0,0,1,.8,6.48A19.72,19.72,0,0,1,386.05,783.4Z"/><polygon class="cls-5" points="431.04 754.62 418.85 754.62 418.85 799.29 426.74 799.29 431.04 799.29 445.58 799.29 445.58 788.35 431.04 788.35 431.04 754.62"/><polygon class="cls-5" points="476.19 754.62 464 754.62 464 799.29 471.9 799.29 476.19 799.29 490.74 799.29 490.74 788.35 476.19 788.35 476.19 754.62"/><rect class="cls-5" x="509.16" y="754.62" width="12.19" height="44.67"/><polygon class="cls-5" points="579.6 754.62 568.31 754.62 568.31 782.25 567.62 782.25 565.19 776.23 555.57 754.62 541.85 754.62 541.85 799.29 553.14 799.29 553.14 772.7 553.84 772.7 556.26 778.79 565.33 799.29 579.6 799.29 579.6 754.62"/><path class="cls-5" d="M639,774.5H620.6v8.79h6.79a5.5,5.5,0,0,1-2.25,4,7.46,7.46,0,0,1-4.54,1.45,8.76,8.76,0,0,1-5-1.34,8.5,8.5,0,0,1-3.12-4,17.38,17.38,0,0,1-1.07-6.51,18.93,18.93,0,0,1,1-6.68,8.39,8.39,0,0,1,3.08-4.12,8.7,8.7,0,0,1,5-1.39,7.46,7.46,0,0,1,4.82,1.53,9.21,9.21,0,0,1,2.87,4.43l11.22-2.15a19.88,19.88,0,0,0-3.46-8,15.91,15.91,0,0,0-6.41-5.06,24.2,24.2,0,0,0-20.36,1.11,19.64,19.64,0,0,0-7.72,8.07,25.68,25.68,0,0,0-2.78,12.22,30.79,30.79,0,0,0,2.29,12.37,17.84,17.84,0,0,0,6.58,8,18.44,18.44,0,0,0,10.32,2.8,12,12,0,0,0,6.3-1.66,15.3,15.3,0,0,0,5-5.26h.55l2.5,6.09H639Z"/><polygon class="cls-5" points="710.02 780.45 710.02 799.29 722.21 799.29 722.21 754.62 710.02 754.62 710.02 770.83 697.07 770.83 697.07 754.62 684.88 754.62 684.88 799.29 697.07 799.29 697.07 780.45 710.02 780.45"/><rect class="cls-5" x="742.71" y="754.62" width="12.19" height="44.67"/><polygon class="cls-5" points="787.59 799.29 802.13 799.29 802.13 788.35 787.59 788.35 787.59 754.62 775.4 754.62 775.4 799.29 783.3 799.29 787.59 799.29"/><polygon class="cls-5" points="832.75 799.29 847.29 799.29 847.29 788.35 832.75 788.35 832.75 754.62 820.56 754.62 820.56 799.29 828.45 799.29 832.75 799.29"/><path class="cls-5" d="M885.42,789.22a10.91,10.91,0,0,1-3.15.38,7.9,7.9,0,0,1-4.85-1.39,7.19,7.19,0,0,1-2.56-4.36l-11.43,2.49a15.17,15.17,0,0,0,5.37,10q4.53,3.81,13.47,3.8a23.81,23.81,0,0,0,9.38-1.69,13.24,13.24,0,0,0,6.17-5.13,15.38,15.38,0,0,0,2.18-8.41q0-5.26-2.25-8a10.91,10.91,0,0,0-5.33-3.67,45.38,45.38,0,0,0-7.73-1.49,38.12,38.12,0,0,1-4.4-.66,6.59,6.59,0,0,1-2.63-1.18,2.7,2.7,0,0,1-1-2.25,3.49,3.49,0,0,1,.66-2.18,3.78,3.78,0,0,1,1.87-1.28,9,9,0,0,1,2.94-.42,8.85,8.85,0,0,1,3.57.63,5.28,5.28,0,0,1,2.25,1.8,7.72,7.72,0,0,1,1.18,2.9l10.66-1.8a15.8,15.8,0,0,0-2.18-6.89,12.71,12.71,0,0,0-5.61-4.81,22.69,22.69,0,0,0-9.73-1.8,20.74,20.74,0,0,0-9.77,2.08,13.76,13.76,0,0,0-7.75,12.46c0,3.79.76,6.66,2.28,8.63a11,11,0,0,0,5.4,3.91,44.18,44.18,0,0,0,7.83,1.52q2.78.35,4.23.63a5.5,5.5,0,0,1,2.42,1,2.54,2.54,0,0,1,1,2.14,2.87,2.87,0,0,1-.62,1.91A4,4,0,0,1,885.42,789.22Z"/><path class="cls-5" d="M326.3,846.83a2.21,2.21,0,0,1-.84.17,1.92,1.92,0,0,1-1-.28,3,3,0,0,1-.9-1,19,19,0,0,1-1.05-2.12,11.41,11.41,0,0,0-1.91-3.51,7.68,7.68,0,0,0-2.74-2.12,7.23,7.23,0,0,0-1.55-.51,14.9,14.9,0,0,0,4.89-.76,7,7,0,0,0,3.41-2.4,6.68,6.68,0,0,0,1.16-4,6.48,6.48,0,0,0-1.18-4,6.89,6.89,0,0,0-3.56-2.4,18.75,18.75,0,0,0-5.89-.8H300v2.75a24.85,24.85,0,0,1,2.53.25,1.32,1.32,0,0,1,.81.37,1.62,1.62,0,0,1,.17.92v19.07a1.62,1.62,0,0,1-.17.92,1.32,1.32,0,0,1-.81.37A23.92,23.92,0,0,1,300,848v2.74h13.29V848a24.64,24.64,0,0,1-2.62-.26,1.57,1.57,0,0,1-.85-.37,1.35,1.35,0,0,1-.22-.92v-8.53h2a3.75,3.75,0,0,1,2.31.65,3.47,3.47,0,0,1,1.22,1.67c.25.68.52,1.67.84,3,.08.37.16.73.23,1.09s.17.73.28,1.13a21,21,0,0,0,1.44,3.61,4.3,4.3,0,0,0,1.76,1.82,5.74,5.74,0,0,0,2.59.53,5,5,0,0,0,2.68-.66,4.39,4.39,0,0,0,1.61-1.8,7,7,0,0,0,.68-2.42l-.21-.18A2.31,2.31,0,0,1,326.3,846.83Zm-16.7-20.4h4.93a6.94,6.94,0,0,1,2.64.42,3.09,3.09,0,0,1,1.52,1.35,4.91,4.91,0,0,1,.51,2.38,4.37,4.37,0,0,1-.58,2.43,3.54,3.54,0,0,1-1.67,1.32,7.31,7.31,0,0,1-2.76.45H309.6Z"/><path class="cls-5" d="M362.75,824.22a13.48,13.48,0,0,0-7-1.78,13.79,13.79,0,0,0-7,1.78,12.5,12.5,0,0,0-4.84,5.06,15.85,15.85,0,0,0-1.76,7.6,16.69,16.69,0,0,0,1.65,7.61,11.89,11.89,0,0,0,4.68,5.06,13.5,13.5,0,0,0,7,1.78,14,14,0,0,0,7.1-1.78,12,12,0,0,0,4.8-5.06,16.32,16.32,0,0,0,1.69-7.61,16.85,16.85,0,0,0-1.63-7.63A11.81,11.81,0,0,0,362.75,824.22Zm-1.05,18.62a6.81,6.81,0,0,1-2.27,3.52,6.14,6.14,0,0,1-3.83,1.15,6.21,6.21,0,0,1-3.88-1.15,6.75,6.75,0,0,1-2.27-3.52,19.64,19.64,0,0,1-.76-6,19,19,0,0,1,.78-5.93,6.89,6.89,0,0,1,2.29-3.49,7,7,0,0,1,7.69,0,6.88,6.88,0,0,1,2.25,3.47,19.69,19.69,0,0,1,.75,6A20,20,0,0,1,361.7,842.84Z"/><path class="cls-5" d="M403.69,839.84c-.52,2.37-.93,4.07-1.24,5.08a4.37,4.37,0,0,1-1,2,2.34,2.34,0,0,1-1.54.43h-5.28V827.37a1.23,1.23,0,0,1,.26-.92,2.05,2.05,0,0,1,1-.37c.48-.08,1.47-.17,3-.25v-2.75H385v2.75a24.85,24.85,0,0,1,2.53.25,1.39,1.39,0,0,1,.82.37,1.72,1.72,0,0,1,.17.92v19.07a1.72,1.72,0,0,1-.17.92,1.39,1.39,0,0,1-.82.37A23.92,23.92,0,0,1,385,848v2.74h22l0-10.89Z"/><path class="cls-5" d="M441.67,839.84c-.52,2.37-.93,4.07-1.25,5.08a4.28,4.28,0,0,1-1,2,2.37,2.37,0,0,1-1.55.43h-5.27V827.37a1.23,1.23,0,0,1,.26-.92,2.05,2.05,0,0,1,1-.37c.49-.08,1.48-.17,3-.25v-2.75H423v2.75a24.85,24.85,0,0,1,2.53.25,1.32,1.32,0,0,1,.81.37,1.61,1.61,0,0,1,.18.92v19.07a1.61,1.61,0,0,1-.18.92,1.32,1.32,0,0,1-.81.37A23.92,23.92,0,0,1,423,848v2.74h22l0-10.89Z"/><path class="cls-5" d="M481.75,840.48a44.38,44.38,0,0,1-1.25,4.68,3.87,3.87,0,0,1-1,1.69,2.33,2.33,0,0,1-1.46.41H470.6V838l7.29.23v-4l-7.29.2v-8.09h7a2.19,2.19,0,0,1,1.39.39,3.72,3.72,0,0,1,1,1.63c.3.83.72,2.34,1.26,4.54h3.22l0-9.9H470.6v0h-4.93L461,823v2.74a23.92,23.92,0,0,1,2.53.26,1.38,1.38,0,0,1,.81.36,1.69,1.69,0,0,1,.17.93V846.4a1.62,1.62,0,0,1-.17.92,1.32,1.32,0,0,1-.81.37,24.85,24.85,0,0,1-2.53.25v2.75h24.05l-.13-10.21Z"/><path class="cls-5" d="M521.48,824.69a19.69,19.69,0,0,0-8.32-1.61H501.72v2.75a24.85,24.85,0,0,1,2.53.25,1.32,1.32,0,0,1,.81.37,1.62,1.62,0,0,1,.17.92v19.07a1.62,1.62,0,0,1-.17.92,1.32,1.32,0,0,1-.81.37,23.92,23.92,0,0,1-2.53.26v2.74H513a19.43,19.43,0,0,0,8.27-1.63,11.77,11.77,0,0,0,5.38-4.8,16.24,16.24,0,0,0,.11-14.92A11.31,11.31,0,0,0,521.48,824.69ZM521,842.76a6.75,6.75,0,0,1-2.81,3.45,9.18,9.18,0,0,1-4.7,1.09h-2.14V826.43h1.89a9.81,9.81,0,0,1,4.91,1.09,6.72,6.72,0,0,1,2.85,3.3,15.16,15.16,0,0,1,.94,5.81A16.94,16.94,0,0,1,521,842.76Z"/><path class="cls-5" d="M571.46,823.08h-4.67v2.75a25.19,25.19,0,0,1,2.53.25,1.35,1.35,0,0,1,.81.37,1.72,1.72,0,0,1,.17.92v19.07a1.72,1.72,0,0,1-.17.92,1.35,1.35,0,0,1-.81.37,24.25,24.25,0,0,1-2.53.26v2.74H580V848a22.1,22.1,0,0,1-2.53-.26,1.61,1.61,0,0,1-.82-.37,1.42,1.42,0,0,1-.21-.92V827.37a1.42,1.42,0,0,1,.21-.92,1.61,1.61,0,0,1,.82-.37,23,23,0,0,1,2.53-.25v-2.75h-8.49Z"/><path class="cls-5" d="M617,844.58a9.11,9.11,0,0,1-2.83,1.63,10.24,10.24,0,0,1-3.45.58,8.59,8.59,0,0,1-4.42-1.07,6.88,6.88,0,0,1-2.76-3.28,14.15,14.15,0,0,1-1-5.6,18.23,18.23,0,0,1,.81-5.89,7.24,7.24,0,0,1,2.31-3.49,5.56,5.56,0,0,1,3.52-1.16,4.9,4.9,0,0,1,2.89.85,7.68,7.68,0,0,1,2.15,2.43,24.79,24.79,0,0,1,1.82,4h3.3v-11.1H616l-1.49,3a5.24,5.24,0,0,0-1.15-1.4,7,7,0,0,0-2.29-1.26,9.08,9.08,0,0,0-2.92-.45,11.07,11.07,0,0,0-6.13,1.8,12.79,12.79,0,0,0-4.45,5.1,16.3,16.3,0,0,0-1.68,7.5,16.76,16.76,0,0,0,1.68,7.82,11.62,11.62,0,0,0,4.71,5,14.19,14.19,0,0,0,7.12,1.72,12.3,12.3,0,0,0,5-1,7.94,7.94,0,0,0,3.56-3,9.23,9.23,0,0,0,1.37-5.08l-.34-.21A10.44,10.44,0,0,1,617,844.58Z"/><path class="cls-5" d="M656.72,840.48a44.38,44.38,0,0,1-1.25,4.68,3.87,3.87,0,0,1-1,1.69,2.33,2.33,0,0,1-1.46.41h-7.46V838l7.29.23v-4l-7.29.2v-8.09h7a2.19,2.19,0,0,1,1.39.39,3.72,3.72,0,0,1,1,1.63c.3.83.72,2.34,1.26,4.54h3.22l0-9.9H645.57v0h-4.93L636,823v2.74a23.92,23.92,0,0,1,2.53.26,1.38,1.38,0,0,1,.81.36,1.69,1.69,0,0,1,.17.93V846.4a1.62,1.62,0,0,1-.17.92,1.32,1.32,0,0,1-.81.37,24.85,24.85,0,0,1-2.53.25v2.75h24l-.13-10.21Z"/><path class="cls-5" d="M720.56,844.58a9,9,0,0,1-2.83,1.63,10.24,10.24,0,0,1-3.45.58,8.52,8.52,0,0,1-4.41-1.07,6.9,6.9,0,0,1-2.77-3.28,14.15,14.15,0,0,1-1-5.6A18.23,18.23,0,0,1,707,831a7.25,7.25,0,0,1,2.32-3.49,5.53,5.53,0,0,1,3.51-1.16,4.9,4.9,0,0,1,2.89.85,7.68,7.68,0,0,1,2.15,2.43,24.79,24.79,0,0,1,1.82,4h3.3v-11.1h-3.3l-1.49,3a5.24,5.24,0,0,0-1.15-1.4,6.94,6.94,0,0,0-2.29-1.26,9.08,9.08,0,0,0-2.92-.45,11,11,0,0,0-6.12,1.8,12.73,12.73,0,0,0-4.46,5.1,16.29,16.29,0,0,0-1.67,7.5,16.76,16.76,0,0,0,1.67,7.82,11.62,11.62,0,0,0,4.71,5,14.19,14.19,0,0,0,7.12,1.72,12.38,12.38,0,0,0,5.06-1,8,8,0,0,0,3.55-3,9.32,9.32,0,0,0,1.38-5.08l-.35-.21A10.22,10.22,0,0,1,720.56,844.58Z"/><path class="cls-5" d="M765.87,846.83a2.21,2.21,0,0,1-.84.17,1.92,1.92,0,0,1-1-.28,3,3,0,0,1-.9-1,19,19,0,0,1-1.05-2.12,11.41,11.41,0,0,0-1.91-3.51,7.68,7.68,0,0,0-2.74-2.12,7.23,7.23,0,0,0-1.55-.51,14.9,14.9,0,0,0,4.89-.76,7,7,0,0,0,3.41-2.4,6.68,6.68,0,0,0,1.16-4,6.48,6.48,0,0,0-1.18-4,6.89,6.89,0,0,0-3.56-2.4,18.75,18.75,0,0,0-5.89-.8H739.57v2.75a24.85,24.85,0,0,1,2.53.25,1.32,1.32,0,0,1,.81.37,1.61,1.61,0,0,1,.18.92v19.07a1.61,1.61,0,0,1-.18.92,1.32,1.32,0,0,1-.81.37,23.92,23.92,0,0,1-2.53.26v2.74h13.29V848a24.64,24.64,0,0,1-2.62-.26,1.57,1.57,0,0,1-.85-.37,1.35,1.35,0,0,1-.22-.92v-8.53h2a3.75,3.75,0,0,1,2.31.65,3.47,3.47,0,0,1,1.22,1.67c.25.68.52,1.67.84,3,.08.37.16.73.23,1.09s.17.73.28,1.13a21,21,0,0,0,1.44,3.61,4.3,4.3,0,0,0,1.76,1.82,5.74,5.74,0,0,0,2.59.53,5,5,0,0,0,2.68-.66,4.32,4.32,0,0,0,1.61-1.8,7,7,0,0,0,.68-2.42l-.21-.18A2.31,2.31,0,0,1,765.87,846.83Zm-16.7-20.4h4.93a6.94,6.94,0,0,1,2.64.42,3.09,3.09,0,0,1,1.52,1.35,4.91,4.91,0,0,1,.51,2.38,4.46,4.46,0,0,1-.57,2.43,3.61,3.61,0,0,1-1.68,1.32,7.31,7.31,0,0,1-2.76.45h-4.59Z"/><path class="cls-5" d="M802.07,840.48a44.38,44.38,0,0,1-1.25,4.68,3.87,3.87,0,0,1-1,1.69,2.33,2.33,0,0,1-1.46.41h-7.46V838l7.29.23v-4l-7.29.2v-8.09h7a2.17,2.17,0,0,1,1.39.39,3.72,3.72,0,0,1,.95,1.63c.3.83.72,2.34,1.26,4.54h3.22l0-9.9H790.92v0H786l-4.67,0v2.74a23.92,23.92,0,0,1,2.53.26,1.38,1.38,0,0,1,.81.36,1.67,1.67,0,0,1,.18.93V846.4a1.61,1.61,0,0,1-.18.92,1.32,1.32,0,0,1-.81.37,24.85,24.85,0,0,1-2.53.25v2.75h24l-.13-10.21Z"/><path class="cls-5" d="M849.52,847.94a5.06,5.06,0,0,1-1.46-.36,2,2,0,0,1-.88-.86,14.39,14.39,0,0,1-.88-2L837.64,823H832.8l-8.1,20.11a.44.44,0,0,1,0,.1.26.26,0,0,0,0,.11,23.2,23.2,0,0,1-1.27,2.83,3.18,3.18,0,0,1-1.16,1.24,6.32,6.32,0,0,1-1.82.65v2.74h11.23V848a6.83,6.83,0,0,1-2.4-.6,1.38,1.38,0,0,1-.85-1.16,4.76,4.76,0,0,1,.38-1.89l.71-1.92h9.21L840,846.1a1.84,1.84,0,0,1,.19,1.12c-.07.22-.34.4-.81.51a18.06,18.06,0,0,1-2.29.3v2.7h12.69V848l-.15,0Zm-18.87-8.7,1.89-5.16,1.59-4.54,1.54,4.56,1.86,5.14Z"/><path class="cls-5" d="M894.14,823.08H889l-7.15,17.31-7.21-17.31H864.13v2.75a28.93,28.93,0,0,1,3.48.73v18.13a5.29,5.29,0,0,1-.22,1.73,1.74,1.74,0,0,1-1,.94A9.19,9.19,0,0,1,864,848v2.74h11.23V848a9.44,9.44,0,0,1-2.5-.63,1.92,1.92,0,0,1-1.05-1,4.32,4.32,0,0,1-.26-1.71V830l8.91,20.83h1l9-21.26v16.84a1.87,1.87,0,0,1-.15.92,1.25,1.25,0,0,1-.78.37,22.75,22.75,0,0,1-2.5.26v2.74h13.11V848a23.55,23.55,0,0,1-2.55-.26,1.31,1.31,0,0,1-.79-.37,1.62,1.62,0,0,1-.17-.92V827.37a1.62,1.62,0,0,1,.17-.92,1.31,1.31,0,0,1,.79-.37,24.46,24.46,0,0,1,2.55-.25v-2.75h-5.74Z"/></svg>