<svg id="Layer_1" data-name="Layer 1" xmlns="http://www.w3.org/2000/svg" viewBox="0 0 1920 540"><defs><style>.cls-1{fill:#894d3f;}.cls-2{fill:#dfdbc8;}.cls-3{fill:#8fa29b;}.cls-4{fill:#778581;}.cls-19,.cls-21,.cls-23,.cls-5{fill:#fff;}.cls-6{fill:#adadad;}.cls-7{fill:#958677;}.cls-8{fill:#524842;}.cls-14,.cls-18,.cls-20,.cls-22,.cls-9{fill:none;}.cls-10,.cls-17{fill:#807265;}.cls-11,.cls-12,.cls-15{fill:#e6e6e6;}.cls-11,.cls-12,.cls-15,.cls-16,.cls-17{stroke:#fff;}.cls-11,.cls-12,.cls-15,.cls-16,.cls-17,.cls-18,.cls-19,.cls-20,.cls-21,.cls-22,.cls-23{stroke-miterlimit:10;}.cls-11{stroke-width:3.96px;}.cls-12{stroke-width:2.44px;}.cls-13{fill:#788481;}.cls-14{stroke:#4d4e4e;stroke-linejoin:round;stroke-width:10.23px;}.cls-14,.cls-18,.cls-20,.cls-22{stroke-linecap:round;}.cls-15,.cls-16,.cls-17{stroke-width:3.41px;}.cls-16{fill:#4d4e4e;}.cls-18,.cls-19{stroke:#4d4d4f;}.cls-18,.cls-20,.cls-22{stroke-width:12.78px;}.cls-19,.cls-21,.cls-23{stroke-width:6.87px;}.cls-20,.cls-21{stroke:#788481;}.cls-22,.cls-23{stroke:#894e3f;}.cls-24{fill:#c2af9f;}</style></defs><path class="cls-1" d="M222.22,299.11h4.09v6.13h-4.06a14.38,14.38,0,0,0-14.38,14.38h0A14.38,14.38,0,0,0,222.25,334h5.34l.12.49a41.63,41.63,0,0,0,1.92,5.64h-7.41a20.51,20.51,0,0,1-20.51-20.51h0A20.51,20.51,0,0,1,222.22,299.11Z"/><path class="cls-1" d="M319.43,323.58a39.08,39.08,0,0,1-39,39H269.21a39.05,39.05,0,0,1-35.7-23.26,38.55,38.55,0,0,1-2-5.84,39.47,39.47,0,0,1-1.27-9.93V294.41h89.24Z"/><path class="cls-2" d="M237.8,287.86s-.53-4,6.55-6.57-1.38-.81-1.77-3.76,4.13-3.93,10.23-6.49-2-2.36,2.55-6.29,21.83-4.52,19.86-8.46-10.81-6.09-10.81-6.09a19.26,19.26,0,0,1,13.17,0c6.73,2.33,17.35,8.61,14.55,10.68-2.5,1.85-1.38,3.08,1,3.67s12.9,3.26,12.78,5.9c-.15,3.37-7.69,3.83.18,7.86,2.73,1.41,8.1,5.87,4.55,10.51H237.8Z"/><path class="cls-3" d="M442,301.71a15.36,15.36,0,1,0,15.36,15.36A15.36,15.36,0,0,0,442,301.71Zm0,25.77a10.41,10.41,0,1,1,10.4-10.41A10.41,10.41,0,0,1,442,327.48Z"/><path class="cls-4" d="M553.74,277.26a15.36,15.36,0,1,0,15.36,15.36A15.36,15.36,0,0,0,553.74,277.26Zm0,25.76a10.4,10.4,0,1,1,10.4-10.4A10.4,10.4,0,0,1,553.74,303Z"/><path class="cls-4" d="M551.74,273.54H479.05a45.72,45.72,0,0,1,7.77,29.82,32.6,32.6,0,0,0,.83,11.44c0,.16.08.31.13.47,8,27.41,47.28,27.41,55.23,0,0-.16.09-.31.13-.47a32.6,32.6,0,0,0,.83-11.44,45.72,45.72,0,0,1,7.77-29.82Z"/><path class="cls-5" d="M551.74,273.54A45.72,45.72,0,0,0,544,303.36a32.6,32.6,0,0,1-.83,11.44c0,.16-.09.31-.13.47-4,13.7-15.8,20.55-27.62,20.55s-23.63-6.85-27.61-20.55c0-.16-.09-.31-.13-.47a32.6,32.6,0,0,1-.83-11.44,45.72,45.72,0,0,0-7.77-29.82h72.69m9.38-5H469.67l5.28,7.75a40.73,40.73,0,0,1,6.93,26.59,37.31,37.31,0,0,0,1,13.2l.15.53c4.25,14.66,17,24.13,32.37,24.13s28.13-9.47,32.38-24.13l.15-.53a37.31,37.31,0,0,0,1-13.2,40.73,40.73,0,0,1,6.93-26.59l5.28-7.75Z"/><path class="cls-3" d="M513.52,295.36h-72.7a45.81,45.81,0,0,1,7.78,29.82,32.43,32.43,0,0,0,.82,11.45c.05.15.09.31.13.46,8,27.41,47.28,27.41,55.23,0,.05-.15.09-.31.13-.46a32.44,32.44,0,0,0,.83-11.45,45.65,45.65,0,0,1,7.78-29.82Z"/><path class="cls-5" d="M513.52,295.36a45.65,45.65,0,0,0-7.78,29.82,32.44,32.44,0,0,1-.83,11.45c0,.15-.08.31-.13.46-4,13.7-15.79,20.56-27.61,20.56s-23.64-6.86-27.62-20.56c0-.15-.08-.31-.13-.46a32.43,32.43,0,0,1-.82-11.45,45.81,45.81,0,0,0-7.78-29.82h72.7m9.37-5H431.45l5.27,7.75a40.83,40.83,0,0,1,6.94,26.6,37,37,0,0,0,1,13.19l.15.53c4.25,14.66,17,24.14,32.38,24.14s28.12-9.48,32.38-24.14l.15-.53a37,37,0,0,0,1-13.19,40.83,40.83,0,0,1,6.94-26.6l5.27-7.75Z"/><path class="cls-6" d="M494.62,213c-10.72-12.77-23.75-17.54-31.29-13.34-4.66,2.6-7.39,8.72-7.51,14.38-.41,19.29,29.52,29.36,26.4,42.8-1,4.35-4.29,4-8.9,12.35a47.53,47.53,0,0,0-5.6,18.65,37.1,37.1,0,0,1,1.95-19.27c2.68-6.69,5.31-6.81,5.94-10.29,2.52-13.77-36.41-23.1-37.07-42.59-.27-8,6-16.89,12.77-21.38A28.14,28.14,0,0,1,462,190.18a29.5,29.5,0,0,1,15.38,1.72C490.43,197.26,494.2,211.34,494.62,213Z"/><path class="cls-6" d="M496.91,207.26c3.35-8.11,11.54-20.14,19.17-19.13,6.28.83,13.2,6.28,14.43,13.25,3,17.08-28.46,37.47-27.91,51.69a28,28,0,0,0,1.43,7.46c1.57,3.78,4.15,6,6.43,9.73.11-6.54-3.45-12.83-1.14-18.82,4.57-11.81,26-18.85,33.55-38.45.89-2.34,4.35-11.77.16-20.91s-15.29-16.54-27.1-14.28A24.57,24.57,0,0,0,498,192.72,25,25,0,0,0,496.91,207.26Z"/><path class="cls-7" d="M713.13,245.4s-26.43,3.52-32.75,15.06,6.74,22.15,10.64,22.15,6.75-3.77,9.62-10.3S713.13,245.4,713.13,245.4Z"/><path class="cls-7" d="M753.68,244.65s24,3.66,29.68,15.66-6.11,23-9.64,23-6.12-3.92-8.72-10.71S753.68,244.65,753.68,244.65Z"/><path class="cls-8" d="M753.25,249.63a6.47,6.47,0,0,0-4.31-3.83,34.26,34.26,0,0,0-8.79-1.15H725.32a20,20,0,0,0-3,.27,13,13,0,0,0-9.87,7.34c-3.06,6.54-7.84,16.76-9.7,21l-.07.15a6.55,6.55,0,0,0,6,9.2h48.13A6.55,6.55,0,0,0,763,273.7l-.1-.26C761,268.58,755.92,256.13,753.25,249.63Z"/><path class="cls-9" d="M682.45,261.6c-2,3.64-1.88,7.45.33,11.34,2.45,4.29,6.37,6.78,7.85,7.22v-.25a35.83,35.83,0,0,1,10.86-25.58,33.56,33.56,0,0,1,7.41-5.49c.06-.11.12-.24.17-.35C700.44,250.22,686.38,254.42,682.45,261.6Z"/><path class="cls-9" d="M774.84,279.91v.63a18.14,18.14,0,0,0,5.78-6.36,13.7,13.7,0,0,0,.67-12.89c-3.79-7.93-17.07-12-23.87-13.56.26.65.56,1.36.86,2.11a33.7,33.7,0,0,1,5.7,4.49A35.83,35.83,0,0,1,774.84,279.91Z"/><path class="cls-8" d="M773.72,281a3.44,3.44,0,0,0,1.12-.5v-.63A35.83,35.83,0,0,0,764,254.33a33.7,33.7,0,0,0-5.7-4.49c2.79,6.82,7.14,17.51,8.85,22C769.52,278,771.67,281,773.72,281Z"/><path class="cls-8" d="M690.63,279.91v.25a1.77,1.77,0,0,0,.39.09c2.46,0,4.76-2.74,7.47-8.89,2-4.6,7.41-16.12,10.41-22.52a33.56,33.56,0,0,0-7.41,5.49A35.83,35.83,0,0,0,690.63,279.91Z"/><path class="cls-5" d="M690.63,280.16c-1.48-.44-5.4-2.93-7.85-7.22-2.21-3.89-2.33-7.7-.33-11.34,3.93-7.18,18-11.38,26.62-13.11-.05.11-.11.24-.17.35a33.54,33.54,0,0,1,6.5-2.73l1.7-3.61-4.29.57c-1.12.15-27.68,3.82-34.49,16.26-2.82,5.14-2.62,10.9.54,16.24,3,5,8.64,9.39,12.15,9.39a8.59,8.59,0,0,0,5.82-2.35h-6.2Z"/><path class="cls-5" d="M702.8,273.26c2.83-6.43,12.36-26.65,12.46-26.85l.14-.3a33.54,33.54,0,0,0-6.5,2.73c-3,6.4-8.39,17.92-10.41,22.52-2.71,6.15-5,8.89-7.47,8.89a1.77,1.77,0,0,1-.39-.09v2.45h6.2C699.38,280.35,701.25,276.78,702.8,273.26Z"/><path class="cls-5" d="M785.42,259.32c-6.18-12.94-30.37-16.78-31.39-16.94l-4-.61,1.54,3.75.52,1.28a33.51,33.51,0,0,1,6.19,3c-.3-.75-.6-1.46-.86-2.11,6.8,1.59,20.08,5.63,23.87,13.56a13.7,13.7,0,0,1-.67,12.89,18.14,18.14,0,0,1-5.78,6.36v2.07h-7.05a7.79,7.79,0,0,0,5.93,3c2.92,0,7.32-3.47,10.23-8.08C787.68,271.61,788.2,265.14,785.42,259.32Z"/><path class="cls-5" d="M774.84,280.54a3.44,3.44,0,0,1-1.12.5c-2.05,0-4.2-3-6.59-9.24-1.71-4.45-6.06-15.14-8.85-22a33.51,33.51,0,0,0-6.19-3c1.92,4.68,8.57,20.91,10.77,26.64,1.3,3.39,2.85,6.82,4.93,9.17h7.05Z"/><path d="M720.5,284.77V282a9.38,9.38,0,0,1,3.33-7.08,10.8,10.8,0,0,1,7.13-2.6h3.55a10.82,10.82,0,0,1,7.13,2.6A9.38,9.38,0,0,1,745,282v2.74Z"/><path class="cls-5" d="M734.51,274.51a8.59,8.59,0,0,1,5.7,2.07,7.24,7.24,0,0,1,2.6,5.45v.58H722.66V282a7.21,7.21,0,0,1,2.6-5.45,8.59,8.59,0,0,1,5.7-2.07h3.55m0-4.32H731a12.93,12.93,0,0,0-8.55,3.14,11.5,11.5,0,0,0-4.07,8.7v4.89h28.79V282a11.5,11.5,0,0,0-4.07-8.7,12.93,12.93,0,0,0-8.55-3.14Z"/><path class="cls-1" d="M793.14,292h-4.55v6.82h4.52a16,16,0,0,1,16,16h0a16,16,0,0,1-16,16h-5.94c0,.18-.09.37-.14.55a48.35,48.35,0,0,1-2.13,6.28h8.24A22.83,22.83,0,0,0,816,314.77h0A22.83,22.83,0,0,0,793.14,292Z"/><path class="cls-1" d="M685,319.18a43.48,43.48,0,0,0,43.43,43.43h12.45a43.39,43.39,0,0,0,43.43-43.43V286.72H685Z"/><circle cx="721.45" cy="260.46" r="5.32"/><path class="cls-5" d="M721.45,257.3a3.17,3.17,0,1,1-3.16,3.16,3.17,3.17,0,0,1,3.16-3.16m0-4.32a7.48,7.48,0,1,0,7.49,7.48,7.49,7.49,0,0,0-7.49-7.48Z"/><circle cx="744.11" cy="260.46" r="5.32"/><path class="cls-5" d="M744.11,257.3a3.17,3.17,0,1,1-3.16,3.16,3.16,3.16,0,0,1,3.16-3.16m0-4.32a7.48,7.48,0,1,0,7.48,7.48,7.49,7.49,0,0,0-7.48-7.48Z"/><path class="cls-10" d="M968.09,362.52h-1.73a35.24,35.24,0,0,1-35.15-35.15l1.22-49.55c0-19.34,14.59-37.68,33.93-37.68h1.73c19.33,0,33.58,16.14,33.58,35.48l1.57,51.75A35.25,35.25,0,0,1,968.09,362.52Z"/><path class="cls-8" d="M968.53,240.26c-.47,2.52-.86,5.07-1.17,7.62s-.61,5.11-.8,7.66a116.31,116.31,0,0,0-.32,15.26,73.77,73.77,0,0,0,.7,7.47c.18,1.22.37,2.44.64,3.7s.49,2.49.76,3.73c1,5,2.29,9.92,3.58,14.92s2.84,10,3.62,15.71c.07.73.17,1.44.18,2.21a18.26,18.26,0,0,1,0,2.34l-.07,1.19-.12,1c-.08.68-.16,1.34-.26,2-.39,2.61-.88,5.15-1.43,7.7q-1.7,7.61-4,15.08a125.3,125.3,0,0,1-5.47,14.77l-.89-.17a133.11,133.11,0,0,1,0-15.73c.28-5.19.74-10.34,1.33-15.46.29-2.55.64-5.1,1-7.6l.29-1.85.15-.91.08-.74a12.12,12.12,0,0,0,.13-1.54c.05-.51,0-1.09,0-1.65a95,95,0,0,0-1.75-14.79c-.89-5.1-1.79-10.27-2.43-15.48-.16-1.3-.3-2.61-.42-3.92s-.22-2.64-.29-4a79.22,79.22,0,0,1,0-8,112.74,112.74,0,0,1,2-15.62A130.68,130.68,0,0,1,967.65,240Z"/><path class="cls-11" d="M935.42,303.65H999a10.23,10.23,0,0,1,10.23,10.23v5.33a28.56,28.56,0,0,1-28.56,28.56h-27a28.56,28.56,0,0,1-28.56-28.56v-5.33a10.23,10.23,0,0,1,10.23-10.23Z"/><path class="cls-12" d="M929.24,303.65h10.91a8.47,8.47,0,0,1,8.47,8.47v0a8.47,8.47,0,0,1-8.47,8.47h-15a0,0,0,0,1,0,0V307.71A4.06,4.06,0,0,1,929.24,303.65Z"/><path class="cls-12" d="M985.83,303.65h15a8.47,8.47,0,0,1,8.47,8.47v0a8.47,8.47,0,0,1-8.47,8.47H989.88a4.06,4.06,0,0,1-4.06-4.06V303.65A0,0,0,0,1,985.83,303.65Z" transform="translate(1995.09 624.24) rotate(180)"/><path class="cls-10" d="M1664.32,282.73h-.48c.19,1,.39,2,.61,3,1,5,2.28,9.92,3.58,14.92s2.84,10,3.62,15.71a26.93,26.93,0,0,1,.18,4.55l-.09,1.18-.11,1c-.08.68-.15,1.34-.26,2-.38,2.61-.89,5.15-1.43,7.7-1.11,5.07-2.46,10.09-4,15.07a119.92,119.92,0,0,1-5.38,14.6c.63,0,1.25.09,1.88.09h1.73a35.24,35.24,0,0,0,35.15-35.15l-1.49-49.19A133.61,133.61,0,0,1,1664.32,282.73Z"/><path class="cls-10" d="M1659.65,346.71q.42-7.79,1.31-15.46c.32-2.55.65-5.1,1-7.6l.29-1.85.15-.91.08-.74a20.32,20.32,0,0,0,.14-3.19,94.93,94.93,0,0,0-1.74-14.79c-1.09-6.4-2.29-12.91-2.87-19.54a131.1,131.1,0,0,1-14.69-1.41v22l5.38,10.73h-13.84l4.5-9v-24.4q-5.48-1-10.87-2.45l-1.21,49.27a35.26,35.26,0,0,0,32.3,35A132.06,132.06,0,0,1,1659.65,346.71Z"/><path class="cls-13" d="M1659.61,362.44l.9.17.07-.18-1-.05Z"/><path class="cls-13" d="M1663.33,271.43l-1-.33-4.48-1.54-14.54-5V277.2a130.6,130.6,0,0,0,14.42,1.42c1.78.08,3.57.13,5.37.13l1.15,0a129.12,129.12,0,0,0,33.41-4.65c1.32-.36,2.63-.74,3.94-1.14V258.26l-7,2.39Z"/><path class="cls-13" d="M1639.39,276.53V263.2l-7-2.41-7.37-2.53V273c1.23.38,2.46.73,3.7,1.07Q1634,275.52,1639.39,276.53Z"/><polygon class="cls-13" points="1663.33 229.45 1608.36 248.34 1621.05 252.71 1623.04 253.39 1625.02 254.07 1634.27 257.25 1639.39 259.01 1639.39 253.71 1646.84 250.33 1651.2 248.34 1655.55 246.36 1659.24 244.69 1660 246.36 1660.88 248.29 1660.77 248.34 1656.41 250.33 1643.35 256.26 1643.35 260.37 1658.26 265.5 1662.22 266.86 1663.33 267.24 1692.9 257.07 1701.64 254.07 1703.62 253.39 1705.6 252.71 1718.29 248.34 1663.33 229.45"/><polyline class="cls-14" points="1204.14 252.34 1227.41 252.34 1227.41 291.22"/><path class="cls-15" d="M1213.31,360.9H1138.2a18,18,0,0,1-17.56-22l13.92-60.82a18,18,0,0,1,17.55-14h46.21a18,18,0,0,1,17.49,13.7l15,60.81A18,18,0,0,1,1213.31,360.9Z"/><path class="cls-16" d="M1211.51,240.6h-78.33a3,3,0,0,0-3,3l6.82,17.51a3,3,0,0,0,3,3h71.51a3,3,0,0,0,3-3V243.58A3,3,0,0,0,1211.51,240.6Z"/><path class="cls-17" d="M1221,298.86H1129.8l-9.16,40a18,18,0,0,0,17.56,22h75.11a18,18,0,0,0,17.48-22.32Z"/><polyline class="cls-14" points="1204.14 252.34 1227.41 252.34 1227.41 291.22"/><path class="cls-15" d="M1213.31,360.9H1138.2a18,18,0,0,1-17.56-22l13.92-60.82a18,18,0,0,1,17.55-14h46.21a18,18,0,0,1,17.49,13.7l15,60.81A18,18,0,0,1,1213.31,360.9Z"/><path class="cls-16" d="M1211.51,240.6h-78.33a3,3,0,0,0-3,3l6.82,17.51a3,3,0,0,0,3,3h71.51a3,3,0,0,0,3-3V243.58A3,3,0,0,0,1211.51,240.6Z"/><path class="cls-17" d="M1221,298.86H1129.8l-9.16,40a18,18,0,0,0,17.56,22h75.11a18,18,0,0,0,17.48-22.32Z"/><line class="cls-18" x1="1420.7" y1="249.8" x2="1420.7" y2="235.04"/><circle class="cls-19" cx="1420.7" cy="276.93" r="27.13"/><line class="cls-20" x1="1479.98" y1="332.04" x2="1494.74" y2="332.04"/><circle class="cls-21" cx="1452.85" cy="332.04" r="27.13"/><line class="cls-22" x1="1361.41" y1="332.04" x2="1346.65" y2="332.04"/><circle class="cls-23" cx="1388.54" cy="332.04" r="27.13"/><circle class="cls-10" cx="1452.85" cy="332.04" r="17.83"/><circle class="cls-8" cx="1388.54" cy="332.04" r="17.83"/><circle class="cls-24" cx="1420.7" cy="276.93" r="17.83"/></svg>