<svg id="Layer_1" data-name="Layer 1" xmlns="http://www.w3.org/2000/svg" viewBox="0 0 1920 540"><defs><style>.cls-1{fill:#958677;}.cls-2{fill:#fff;}.cls-3{fill:#894d3f;}.cls-4,.cls-6{fill:#4d4e4e;stroke:#4d4e4e;stroke-miterlimit:10;}.cls-4{stroke-width:2.64px;}.cls-5{fill:#221f20;}.cls-6{stroke-width:2.43px;}</style></defs><circle class="cls-1" cx="317.72" cy="265.1" r="52.86"/><path class="cls-2" d="M339.69,243.17c-.16-.24-3.94-5.66-9.22-5.66-7.19,0-13,8.65-13,19.32,0-10.67-5.84-19.32-13-19.32-5.28,0-9.06,5.42-9.22,5.66-3.72,5.6-1.78,12.52.68,16.35s5.63,4.85,8.54,6.74c5,3.26,10.59,6.8,13,22,2.43-15.19,8-18.73,13-22,2.91-1.89,6.08-2.91,8.54-6.74S343.41,248.77,339.69,243.17Z"/><path class="cls-2" d="M362.72,255.8a10.14,10.14,0,0,0-.26-1.12,8.51,8.51,0,0,0-8.12-6,8.79,8.79,0,0,0-1,.07A8.51,8.51,0,0,0,350.93,265h0s5.43,2.23,5.19,9.51a39.4,39.4,0,0,1-36.91,30.56,13.68,13.68,0,0,1,4.13-4.54c1.67-1.14,2.71-1.26,6.47-2.67,5.68-2.13,8.52-3.19,10.52-4.76.41-.32,7.6-6.12,6-13.79-.65-3.19-3-7.12-6.73-8.47-6.76-2.46-15.2,3.67-18.85,13.7q-1.67,4.59-3.34,9.19-1.68-4.61-3.35-9.19c-3.65-10-12.09-16.16-18.85-13.7-3.72,1.35-6.06,5.29-6.72,8.47-1.53,7.44,5.12,13.1,5.58,13.48,1.23,1,4.48,2.36,11,5.07,4.13,1.72,5.46,2.14,7.2,3.56a15,15,0,0,1,3.2,3.62,39.42,39.42,0,0,1-36.2-30.64c-.15-6.3,3.94-8.78,5-9.29a8.51,8.51,0,1,0-11.43-9.77c0,.06,0,.13,0,.2a46.08,46.08,0,1,0,89.94.24Z"/><path class="cls-3" d="M248.75,231.62H162.21v77.54H255a76.68,76.68,0,0,1-6.24-77.54Z"/><path class="cls-4" d="M261.18,316.86h-99v12.38a6.34,6.34,0,0,0,6.34,6.35h119A76.91,76.91,0,0,1,261.18,316.86Z"/><path class="cls-4" d="M347.88,335.59h119a6.34,6.34,0,0,0,6.34-6.35V316.86h-99A76.85,76.85,0,0,1,347.88,335.59Z"/><path class="cls-4" d="M386.45,265.1a68.74,68.74,0,1,0-81.51,67.52V362.9a10.6,10.6,0,0,0,10.58,10.57H319a10.59,10.59,0,0,0,10.57-10.57V332.78A68.73,68.73,0,0,0,386.45,265.1Zm-68.73,60.8a60.8,60.8,0,1,1,60.8-60.8A60.81,60.81,0,0,1,317.72,325.9Z"/><polygon class="cls-4" points="345.91 163.78 289.52 163.78 276.31 186.69 359.13 186.69 345.91 163.78"/><circle class="cls-4" cx="434.18" cy="227.72" r="12.17"/><path class="cls-3" d="M434.11,247.82a20.16,20.16,0,0,1-19.77-16.2H386.69a76.74,76.74,0,0,1-6.24,77.54h92.78V231.62H453.88A20.16,20.16,0,0,1,434.11,247.82Z"/><path class="cls-4" d="M466.89,194.61h-119a77,77,0,0,1,34.35,29.08h32.11a20.16,20.16,0,0,1,39.54,0h19.35V201A6.35,6.35,0,0,0,466.89,194.61Z"/><path class="cls-4" d="M162.21,201v22.73h91a77.07,77.07,0,0,1,34.35-29.08h-119A6.35,6.35,0,0,0,162.21,201Zm55.9,14.8H187.6V202.54h30.51Z"/><path class="cls-5" d="M211.42,157.31l-4.7-4.26c-.91-.82-1.34-.77-2,0l-.49.54c-.34.38-.48.39-.79.11l-1-.9c-.38-.35-.34-.53,0-.86l5.2-5.76c.3-.33.46-.36.84,0l1,.9c.31.28.32.41,0,.77l-.51.57c-.69.76-.74,1.11.23,2l11.27,10.19c1,.88,1.36.75,2.05,0l.47-.52c.34-.38.48-.39.76-.13l1.05.94c.31.28.34.49,0,.84l-5.2,5.76c-.31.33-.49.34-.82,0l-1.05-.95c-.26-.24-.29-.39,0-.75l.48-.52c.69-.76.71-1.22-.19-2L213.25,159l-6.94,7.68,4.73,4.28c1,.89,1.35.75,2,0l.47-.52c.37-.4.48-.39.77-.13l1,1c.31.28.35.48,0,.84l-5.2,5.75c-.3.33-.48.34-.82,0l-1-1c-.26-.23-.29-.39,0-.75l.47-.52c.69-.76.71-1.22-.19-2l-11.27-10.2c-.9-.81-1.33-.77-2,0l-.5.55c-.34.38-.48.38-.78.1l-1-.9c-.38-.34-.35-.53-.05-.86l5.21-5.75c.3-.34.46-.37.84,0l1,.9c.3.28.31.42,0,.77l-.52.57c-.69.76-.74,1.11.24,2l4.71,4.26Z"/><path class="cls-5" d="M222.15,133.74c6.83-5.16,12.75-2.28,16.38,2.53,3.28,4.35,5.22,11.12-1.94,16.53-6.85,5.18-12.74,2.27-16.37-2.53C216.89,145.87,215,139.13,222.15,133.74Zm1,14.21c2.4,3.18,6.85,6.52,11.86,2.73s3-8.82.56-12.07-6.81-6.58-11.88-2.76C218.9,139.49,220.6,144.55,223.17,148Z"/><path class="cls-5" d="M259.53,135.28l-2.06-20.87c0-.49.07-.68.68-1l4.65-2.18c.4-.19.56-.16.76.28l.51,1.07a.56.56,0,0,1-.25.83l-.95.48c-.41.19-.92.53-.41,1.61l6.61,14.1c.49,1.05.73,1.19,1.57.79l1-.46c.46-.22.67-.14.85.24l.56,1.19c.2.43.07.6-.37.8l-6.93,3.25c-.41.19-.6.18-.8-.26l-.56-1.19c-.17-.38-.16-.56.31-.78l.84-.4c.84-.39,1.05-.77.58-1.79l-5.57-11.87,1.74,17.53c0,.44,0,.54-.55.78L259,138.75c-.44.21-.58.2-.89-.08l-12.92-12.92L251,138.23c.47,1,.76,1,1.72.58l.84-.4c.43-.2.55-.18.73.2l.6,1.27c.2.44.09.59-.28.77l-6.59,3.09c-.38.17-.57.16-.76-.25l-.61-1.31c-.18-.37-.12-.47.32-.68l.81-.38c1-.46,1.15-.71.69-1.7l-6.65-14.2c-.59-1.1-1.05-1-1.82-.63l-.44.2c-.47.19-.64.06-.78-.23l-.54-1.16c-.21-.44-.13-.58.31-.78l5.16-2.43a.85.85,0,0,1,1.07.32Z"/><path class="cls-5" d="M273,110.94l-1.12.28c-.4.1-.56,0-.67-.43l-.32-1.3c-.12-.47,0-.59.48-.72l14.34-3.58c1.15-.29,1.35-.27,1.79,1.1l1.11,3.53c.18.58.16.75-.37.88l-1.34.34c-.46.11-.64.06-.85-.52l-.44-1.24c-.52-1.39-1.21-1.25-3.76-.62l-4.42,1.11,2,7.84,3-.74a.87.87,0,0,0,.74-1.11l-.16-1.05c-.06-.52,0-.6.48-.72l1.22-.3c.46-.12.53,0,.64.46l1.53,6.13c.1.41.12.6-.32.71l-1.24.31c-.44.11-.59,0-.76-.4l-.35-1a.92.92,0,0,0-1.19-.66l-3,.74,1.88,7.53,5.69-1.43c2.06-.51,2.3-.73,2.27-2.41l-.25-2a.62.62,0,0,1,.57-.74l1.34-.34c.47-.11.61.05.65.5l.77,5c.14,1-.09,1.11-.84,1.3l-15.11,3.77c-.41.11-.62.06-.73-.41l-.31-1.21c-.11-.47,0-.67.38-.75,1.71-.43,2-.74,1.72-2L274.26,112C274,111.1,273.71,110.86,273,110.94Z"/><path class="cls-5" d="M306.41,104.8l-1.16,0c-.42,0-.55-.15-.56-.57l0-1.34c0-.48.12-.58.63-.59l8.3-.2c5.51-.12,8.66,1.22,8.75,5.38a4.87,4.87,0,0,1-4.27,5.3v0c3.34.18,5.76,2.17,5.84,5.6.13,5.74-4.14,6.7-9.24,6.82l-8.88.21c-.41,0-.61-.08-.62-.57l0-1.25c0-.48.18-.64.53-.65,1.76,0,2.14-.27,2.11-1.56l-.35-15.32C307.41,105.2,307.14,104.88,306.41,104.8Zm4.74,6.91,3.14-.07c3-.07,4.33-1.22,4.27-3.82s-2-3.25-4.49-3.2l-3.08.08Zm.26,11.13,3.62-.09c2.37,0,5.12-.63,5-4.19-.07-3.33-2.25-4.34-5.8-4.26l-3.05.08Z"/><path class="cls-5" d="M334.84,116.83l-.76,5.33c-.19,1.3.17,1.55,1.21,1.7l.89.12c.54.08.59.18.54.57l-.2,1.39c-.06.41-.18.56-.69.49l-8.12-1.17c-.48-.06-.58-.21-.52-.65l.2-1.4c.05-.35.16-.46.67-.39l.86.12c1,.15,1.47-.08,1.64-1.28l2.17-15.17c.13-.92-.08-1.31-.83-1.48l-1.2-.17c-.42-.06-.7-.13-.62-.67l.19-1.33c.07-.48.21-.56.75-.48l8,1.14c6.19.89,9.33,3.18,8.63,8.07-.53,3.71-2.72,5.44-5.79,5.84,1.47,1,2.11,2.93,3.3,6.82.33,1,.62,1.32,1.48,1.44a4.27,4.27,0,0,0,1.13,0c.26,0,.45,0,.4.35l-.2,1.4c0,.35-.14.56-.68.71a6.4,6.4,0,0,1-2.1,0c-2-.29-2.9-1.26-3.55-3.26-.78-2.51-1.43-7.26-5-7.77Zm3-1.87c3.62.52,5.61-.75,6.05-3.83s-1.24-4.64-5-5.18l-2.47-.35-1.29,9Z"/><path class="cls-5" d="M358,109.69l-1.1-.35c-.4-.13-.47-.32-.35-.72l.41-1.28c.14-.46.29-.51.78-.36l14.09,4.47c1.13.35,1.3.47.95,1.88l-.9,3.58c-.15.59-.26.72-.78.56l-1.31-.42c-.46-.14-.59-.28-.46-.88l.27-1.29c.29-1.46-.37-1.7-2.87-2.5L362.42,111l-2.44,7.7,2.9.92a.87.87,0,0,0,1.22-.55l.41-1c.22-.47.33-.51.78-.36l1.2.38c.45.14.44.3.3.73l-1.91,6c-.12.4-.21.57-.64.44l-1.22-.39c-.43-.14-.51-.3-.44-.74l.23-1a.92.92,0,0,0-.67-1.19l-2.9-.92-2.34,7.4,5.59,1.77c2,.64,2.34.57,3.2-.87l.81-1.8a.61.61,0,0,1,.87-.32l1.32.41c.45.15.49.36.29.77l-2,4.68c-.39.92-.65.9-1.38.67L350.75,129c-.39-.13-.55-.28-.4-.74l.37-1.19c.15-.46.38-.55.72-.44,1.68.53,2.11.43,2.5-.79l4.63-14.61C358.85,110.38,358.7,110,358,109.69Z"/><path class="cls-5" d="M379.65,136.13l13-14.38c.47-.51.54-.58.93-.36l2.42,1.34c.39.21.31.35.17,1l-4.54,18,10.33-11.1a4.55,4.55,0,0,0,.58-.7c.28-.51-.06-.77-1.21-1.4a.5.5,0,0,1-.22-.79l.65-1.18c.23-.42.29-.46.88-.13l5.58,3.09c.37.2.41.33.17.76l-.62,1.12c-.16.28-.32.51-.74.28-1.43-.79-1.61-.81-2.79.47l-13.14,13.72c-.51.53-.64.57-1.2.25l-2.13-1.18c-.51-.28-.44-.6-.32-1.09l4.5-17.3-11.82,13.25c-.48.54-.67.54-1.09.31l-2.83-1.57c-.36-.2-.5-.42-.33-1.06l4.51-18.58c.4-1.65.28-1.82-.9-2.48-.65-.35-.65-.54-.34-1.1l.54-1c.22-.4.35-.43.74-.22l6.73,3.73c.4.22.42.38.22.74l-.67,1.21c-.17.31-.35.43-.69.24-1.23-.68-1.64-.87-1.94-.34a6.17,6.17,0,0,0-.32.92Z"/><path class="cls-5" d="M413.22,137.07l-.88-.75c-.32-.27-.31-.47,0-.79l.87-1c.31-.37.48-.36.87,0l11.25,9.58c.91.77,1,.94.15,2.1l-2.22,3c-.37.48-.52.56-.94.21l-1-.89c-.36-.31-.42-.49-.08-1l.76-1.08c.83-1.23.31-1.71-1.69-3.41L416.75,140l-5.23,6.15,2.32,2a.88.88,0,0,0,1.34,0l.75-.74c.39-.35.5-.34.87,0l.95.81c.37.31.29.45,0,.79l-4.1,4.81c-.27.32-.42.45-.76.15l-1-.83c-.34-.29-.35-.47-.11-.85l.61-.87a.91.91,0,0,0-.15-1.35l-2.32-2-5,5.91,4.47,3.81c1.61,1.37,1.93,1.43,3.29.44l1.43-1.35a.63.63,0,0,1,.94,0l1,.89c.37.32.32.52,0,.82l-3.64,3.55c-.72.7-1,.58-1.54.08L399,152.09c-.32-.27-.4-.47-.09-.83l.81-1c.31-.36.56-.36.83-.13,1.34,1.14,1.78,1.22,2.61.24l9.94-11.67C413.71,138,413.72,137.62,413.22,137.07Z"/><path class="cls-5" d="M430.91,155c.81-.68.85-1.08-.35-2.51-.26-.32-.22-.52.09-.79l1-.86c.37-.31.52-.27.85.12l5.11,6.09c5.63,6.7,5.28,12.31-.64,17.28s-11.74,4-17.1-2.42l-5.12-6.09c-.26-.32-.32-.53,0-.84l1-.8c.37-.31.62-.27.84,0,1.14,1.35,1.56,1.51,2.54.68Zm-9,15.17c4.07,4.84,7.89,5.36,12.7,1.32,5-4.23,4.95-8.18.93-13l-1.34-1.6-13.73,11.53Z"/><path class="cls-5" d="M202.43,376.88l-3.49,3.21c-1,.88-.85,1.3-.16,2.05l.48.52c.34.38.32.49,0,.75l-1,1c-.31.28-.49.32-.81,0l-5.25-5.72c-.3-.33-.31-.53,0-.83l1-1c.26-.24.42-.25.76.13l.48.52c.67.73,1.14.82,2,0l11.3-10.35c.68-.63.74-1,.32-1.65l-.78-.85c-.29-.3-.25-.51,0-.79l1-.91c.35-.32.51-.29.85.08l5.12,5.58c4.55,5,5.66,8.73,1.69,12.37-3.64,3.34-7.69,2.44-11.11-1.3Zm3.53.24c2.71,3,5.22,3.22,7.58,1.06,2.53-2.32,2.09-4.66-.69-7.68l-1.58-1.72-7,6.45Z"/><path class="cls-5" d="M229.65,396.19l3.9-5c.76-1,.68-1.38-.13-2l-.58-.45c-.4-.32-.42-.45-.16-.78l.83-1.06c.31-.4.5-.38.85-.1l6.11,4.77c.36.28.4.44.08.84l-.83,1.06c-.25.33-.39.34-.77.05l-.6-.48c-.81-.63-1.16-.65-2,.38l-9.35,12c-.81,1-.66,1.41.15,2l.56.43c.4.32.42.45.18.76l-.87,1.11c-.25.33-.45.37-.83.08L220.11,405c-.36-.28-.38-.46-.1-.81l.87-1.11c.21-.28.37-.32.75,0l.55.43c.81.63,1.27.62,2-.34l3.93-5L220,391.76l-3.93,5c-.81,1-.65,1.41.16,2l.55.44c.43.33.42.45.19.75l-.87,1.11c-.26.33-.46.38-.84.08l-6.11-4.78c-.35-.27-.38-.45-.1-.81l.87-1.11c.22-.28.37-.32.75,0l.56.43c.8.63,1.26.62,2-.34l9.36-12c.75-1,.67-1.38-.13-2l-.59-.46c-.4-.31-.42-.45-.16-.78l.83-1.06c.32-.4.5-.38.85-.1l6.12,4.78c.35.27.39.43.08.83l-.83,1.06c-.26.33-.39.35-.77.05l-.61-.47c-.81-.64-1.15-.66-2,.37l-3.91,5Z"/><path class="cls-5" d="M253.07,398.12c7.57,4,7.48,10.57,4.67,15.91-2.54,4.82-7.84,9.46-15.79,5.28-7.6-4-7.48-10.57-4.67-15.91C239.85,398.52,245.15,394,253.07,398.12Zm-12.44,7c-1.85,3.52-3,9,2.58,11.9s9.27-1,11.17-4.62,3.05-9-2.57-11.93C246.48,397.63,242.61,401.32,240.63,405.09Z"/><path class="cls-5" d="M262.65,427.42l.45-1.34c.11-.33.24-.42.7-.27l.67.22c.88.29,1.32.17,1.7-.76l5.26-15.95-2.22-.74c-1.73-.57-2.17-.68-2.61.26l-.71,1.62c-.21.44-.35.46-.81.31l-1.37-.46c-.52-.17-.48-.29-.3-.74l1.56-4c.39-.95.56-1,1.32-.71l15.31,5.06c.77.25.93.37.67,1.36l-1.14,4.15c-.11.44-.16.59-.67.42l-1.37-.45c-.46-.15-.58-.29-.5-.74l.43-1.71c.2-1-.25-1.2-2.11-1.81l-2.07-.69-5.18,15.71c-.41,1.25-.14,1.55.83,1.87l.7.23c.49.16.52.27.4.64l-.44,1.34c-.13.39-.3.5-.73.36l-7.4-2.44C262.6,428,262.51,427.85,262.65,427.42Z"/><path class="cls-5" d="M296.23,412.39c8.46,1.31,10.51,7.56,9.58,13.52C305,431.3,301.47,437.4,292.6,436c-8.49-1.32-10.51-7.57-9.58-13.52C283.86,417.06,287.39,411,296.23,412.39ZM286.73,423c-.61,3.93.09,9.45,6.3,10.42s8.44-4,9.06-8c.6-3.86,0-9.48-6.29-10.45C289.84,414.06,287.39,418.8,286.73,423Z"/><path class="cls-5" d="M322.58,426.93c0-.42.12-.65.5-.66l6.77-.12a.47.47,0,0,1,.52.51l.18,10c0,.45-.15.71-.57.72l-1.25,0c-.51,0-.7-.11-.84-.53l-.17-.48a12.17,12.17,0,0,1-5.87,1.52c-6.51.12-11.51-3.54-11.66-11.65-.12-7,3.92-12,11.36-12.16,6.28-.12,8.51,2.79,8.56,5.64a2.25,2.25,0,0,1-2.36,2.35,2.14,2.14,0,0,1-2.25-2.23,2.28,2.28,0,0,1,1.08-2,8.17,8.17,0,0,0-4.73-1.1c-5.58.1-8,4.41-7.9,9.57.09,5.48,3,8.89,8.07,8.8a9.78,9.78,0,0,0,5.11-1.44l-.08-4a.67.67,0,0,0-.78-.72l-3.11,0c-.38,0-.55-.18-.55-.6Z"/><path class="cls-5" d="M342.06,426.29l1,5.3c.23,1.29.65,1.41,1.69,1.22l.88-.16c.54-.1.62,0,.69.36l.25,1.39c.08.41,0,.59-.49.68L338,436.56c-.47.09-.62,0-.7-.46l-.25-1.38c-.07-.35,0-.5.51-.59l.85-.15c1-.19,1.37-.55,1.15-1.75l-2.77-15.07c-.17-.91-.48-1.21-1.25-1.14l-1.2.22c-.41.08-.7.1-.8-.44l-.24-1.32c-.09-.48,0-.59.56-.69l7.95-1.46c6.14-1.13,9.85.05,10.74,4.91.68,3.69-.85,6-3.63,7.38,1.72.53,2.92,2.1,5.29,5.41.65.9,1,1.06,1.86.9a4.42,4.42,0,0,0,1.08-.36c.24-.11.43-.11.49.21l.25,1.38c.07.35.05.58-.42.89a6.08,6.08,0,0,1-2,.66c-2,.37-3.14-.27-4.4-2-1.53-2.13-3.66-6.43-7.19-5.79Zm2.27-2.73c3.59-.66,5.08-2.49,4.52-5.55s-2.66-4-6.38-3.33l-2.46.45,1.64,8.93Z"/><path class="cls-5" d="M374.08,419.56l-8,2.88.11,4c0,1,.39,1.09,1.27.87l.54-.2c.57-.13.71,0,.85.38l.42,1.14c.16.46,0,.6-.44.78l-6.12,2.21c-.39.14-.58.1-.74-.35l-.43-1.17c-.14-.4-.11-.61.33-.8l.86-.35c.53-.23.73-.43.72-1.59l-.34-20c0-.42.05-.53.62-.74l2.72-1a.65.65,0,0,1,.84.17L379.71,421c1,1.26,1.23,1.33,2.24,1l.55-.17c.55-.19.72-.09.86.3l.45,1.24c.16.45.1.58-.44.77l-6.9,2.5c-.51.18-.67.14-.83-.32l-.42-1.14c-.14-.39-.09-.55.43-.8l.39-.14c.72-.37,1-.58.86-1a3.74,3.74,0,0,0-.58-.85Zm-8,.34,6.43-2.32-6.66-8.33Z"/><path class="cls-5" d="M389.63,411l2.3,4.16c.64,1.15,1.07,1.13,2,.63l.62-.34c.45-.25.55-.19.74.14l.68,1.24c.2.36.2.55-.22.78l-6.79,3.76c-.4.22-.6.18-.81-.21l-.69-1.24c-.17-.3-.15-.46.3-.71l.62-.34c.87-.48,1.07-.92.48-2l-7.43-13.41c-.45-.81-.83-1-1.52-.7l-1,.56c-.36.2-.55.13-.75-.24l-.66-1.18c-.23-.42-.16-.56.29-.81l6.62-3.67c5.89-3.26,9.81-3.45,12.42,1.26,2.39,4.32.57,8-3.87,10.5Zm1.07-3.37c3.5-1.94,4.35-4.32,2.8-7.12-1.66-3-4-3.12-7.63-1.13l-2.05,1.13,4.63,8.36Z"/><path class="cls-5" d="M414.79,389.11l-4-5c-.76-1-1.19-1-2-.34l-.58.45c-.4.32-.54.31-.79,0l-.84-1.05c-.32-.41-.25-.58.1-.86l6.07-4.82c.35-.28.51-.29.83.12l.84,1.05c.26.33.24.46-.13.76l-.61.48c-.8.64-.9,1-.09,2l9.45,11.9c.82,1,1.21,1,2,.32l.56-.44c.4-.32.53-.3.77,0l.88,1.11c.26.32.26.53-.12.83l-6.07,4.82c-.36.28-.54.26-.82-.09l-.87-1.11c-.22-.28-.23-.44.15-.73l.55-.44c.81-.64.9-1.09.15-2l-4-5-8.11,6.44,4,5c.81,1,1.21,1,2,.32l.55-.44c.43-.34.54-.3.78,0l.88,1.1c.26.33.26.54-.12.83l-6.08,4.83c-.35.28-.53.26-.81-.1l-.87-1.1c-.22-.28-.23-.44.15-.74l.55-.43c.8-.64.9-1.09.14-2l-9.44-11.9c-.76-1-1.19-1-2-.35l-.58.46c-.4.32-.54.31-.8,0l-.83-1c-.32-.41-.26-.58.1-.86l6.07-4.82c.35-.28.51-.29.83.12l.84,1c.26.33.24.46-.13.76l-.61.48c-.8.64-.91,1-.09,2l3.95,5Z"/><path class="cls-5" d="M434.19,382.62l-4.07-3.68-10.79-2.4c-1.46-.29-1.91-.22-2.43.35l-.43.47c-.32.36-.6.28-.91,0l-.93-.83c-.35-.33-.34-.49,0-.82l4.82-5.33c.3-.33.48-.39.83-.06l.88.79c.31.28.42.55.09.91l-.38.42c-.52.57-.44.77.43,1l8.33,2.12-2.74-8.35c-.27-.85-.62-.69-1-.31l-.41.45c-.34.38-.62.26-.93,0l-.88-.8c-.36-.32-.34-.48,0-.83l4.17-4.62c.3-.33.46-.32.8,0l.92.84c.31.28.41.5.09.86l-.49.55c-.35.38-.4.58,0,1.79l3.34,11.09,4.37,4c.81.68,1.19.5,1.83-.21l.5-.55c.34-.38.45-.36.74-.1l1.05.94c.31.28.34.49,0,.82l-5.23,5.78c-.3.33-.48.34-.81,0l-1.05-.95c-.26-.23-.29-.39,0-.75l.47-.52C435.07,383.89,435.1,383.43,434.19,382.62Z"/><ellipse class="cls-1" cx="974.06" cy="266.76" rx="48.49" ry="48.59"/><path class="cls-2" d="M994.21,246.6c-.14-.22-3.6-5.2-8.45-5.2-6.6,0-12,7.95-12,17.75,0-9.8-5.35-17.75-11.95-17.75-4.84,0-8.3,5-8.45,5.2-3.41,5.15-1.64,11.51.63,15s5.16,4.46,7.82,6.2c4.6,3,9.72,6.25,11.95,20.2,2.24-13.95,7.35-17.21,12-20.2,2.67-1.74,5.57-2.67,7.83-6.2S997.63,251.75,994.21,246.6Z"/><path class="cls-2" d="M1015.34,258.21a9.05,9.05,0,0,0-.24-1,7.81,7.81,0,0,0-7.45-5.48,7.46,7.46,0,0,0-.95.06,7.82,7.82,0,0,0-2.17,14.92h0s5,2.05,4.76,8.74a36.16,36.16,0,0,1-33.86,28.09,12.71,12.71,0,0,1,3.79-4.17c1.53-1,2.49-1.16,5.94-2.45,5.2-2,7.8-2.93,9.65-4.38.37-.29,7-5.63,5.53-12.67-.6-2.93-2.75-6.54-6.16-7.79-6.21-2.26-13.95,3.38-17.29,12.59-1,2.82-2,5.63-3.07,8.45-1-2.82-2.05-5.63-3.07-8.45-3.35-9.21-11.09-14.85-17.29-12.59-3.41,1.25-5.56,4.86-6.17,7.79-1.4,6.84,4.7,12,5.13,12.39,1.12.93,4.1,2.17,10.06,4.66,3.79,1.58,5,2,6.61,3.27a13.84,13.84,0,0,1,2.93,3.33,36.18,36.18,0,0,1-33.2-28.17c-.14-5.79,3.61-8.06,4.55-8.54a7.82,7.82,0,0,0-1.93-15,7.42,7.42,0,0,0-.94-.06,7.8,7.8,0,0,0-7.61,6.1c0,.07,0,.13,0,.19a42.94,42.94,0,0,0-1,9.35,42.27,42.27,0,1,0,84.53,0A42.85,42.85,0,0,0,1015.34,258.21Z"/><path class="cls-3" d="M910.8,236H831.43v71.26h85.1A70.66,70.66,0,0,1,910.8,236Z"/><path class="cls-6" d="M922.2,314.33H831.43v11.38a5.83,5.83,0,0,0,5.82,5.84H946.4A70.67,70.67,0,0,1,922.2,314.33Z"/><path class="cls-6" d="M1001.73,331.55h109.15a5.83,5.83,0,0,0,5.82-5.84V314.33h-90.78A70.54,70.54,0,0,1,1001.73,331.55Z"/><path class="cls-6" d="M1037.11,266.76a63,63,0,1,0-74.76,62.06v27.83a9.74,9.74,0,0,0,9.69,9.72h3.24a9.74,9.74,0,0,0,9.69-9.72V329A63.13,63.13,0,0,0,1037.11,266.76Zm-63,55.88a55.88,55.88,0,1,1,55.77-55.88A55.82,55.82,0,0,1,974.06,322.64Z"/><polygon class="cls-6" points="999.92 173.63 948.21 173.63 936.08 194.69 1012.05 194.69 999.92 173.63"/><ellipse class="cls-6" cx="1080.88" cy="232.4" rx="11.16" ry="11.19"/><path class="cls-3" d="M1080.82,250.88A18.5,18.5,0,0,1,1062.69,236h-25.36a70.66,70.66,0,0,1-5.73,71.26h85.1V236H1099A18.52,18.52,0,0,1,1080.82,250.88Z"/><path class="cls-6" d="M1110.88,202H1001.73a70.58,70.58,0,0,1,31.51,26.72h29.45a18.49,18.49,0,0,1,36.27,0h17.74V207.81A5.83,5.83,0,0,0,1110.88,202Z"/><path class="cls-6" d="M831.43,207.81V228.7h83.46A70.58,70.58,0,0,1,946.4,202H837.25A5.83,5.83,0,0,0,831.43,207.81Zm51.27,13.6h-28V209.26h28Z"/><path d="M1208.51,203.22v42c0,1.21,0,1.21,7.24,1.46v3.54h-20.43v-3.54c7.32-.25,7.32-.25,7.32-1.46V224.9h-26.39v20.31c0,1.21,0,1.21,7.24,1.46v3.54h-20.43v-3.54c7.24-.25,7.24-.25,7.24-1.46v-42c0-1.21,0-1.21-7.24-1.45v-3.55h20.43v3.55c-7.24.24-7.24.24-7.24,1.45v17.41h26.39V203.22c0-1.21,0-1.21-7.32-1.45v-3.55h20.43v3.55C1208.51,202,1208.51,202,1208.51,203.22Z"/><path d="M1222.75,224.26c0-16.85,10.78-26.84,24.45-26.84,13.91,0,24.13,10.07,24.13,26.76s-10.78,26.76-24.45,26.76C1233,250.94,1222.75,240.94,1222.75,224.26Zm42.31-.08c0-13.71-7.24-21.93-18-21.93-10.54,0-17.94,8.14-17.94,22,0,13.62,7.24,21.84,18,21.84C1257.58,246.1,1265.06,238,1265.06,224.18Z"/><path d="M1336.73,203.22v42c0,1.21,0,1.21,7.24,1.46v3.54h-20.43v-3.54c7.23-.25,7.23-.25,7.23-1.46V205.88l-19.7,44.33h-1.53l-19.14-43.77v38.94c0,1,0,1,7.56,1.29v3.54h-19.63v-3.54c7.4-.25,7.4-.25,7.4-1.29V202.66c-1.61-.25-3.94-.57-7.4-.89v-3.55h14.88L1311,239.41l18.1-41.19H1344v3.55C1336.73,202,1336.73,202,1336.73,203.22Z"/><path d="M1392.63,250.21h-42.71v-3.54c7.24-.25,7.24-.25,7.24-1.46v-42c0-1.21,0-1.21-7.24-1.45v-3.55h41.51l-.16,15.64h-4.19c-.56-11.29-.72-11.37-1.6-11.37h-22.37v18.3l16.49-.32v5.08l-16.49-.33v20.64h23.49c1,0,1.05,0,1.69-12.33h4.1Z"/><path d="M1461.89,236.19c0,8.78-6.6,14-19.06,14h-24.38v-3.54c7.24-.25,7.24-.25,7.24-1.46v-42c0-1.21,0-1.21-7.24-1.45v-3.55h21.88c12.47,0,19.07,4.35,19.07,12.58,0,6.36-4.18,10.39-11.42,11.93C1456.66,223.93,1461.89,228.77,1461.89,236.19Zm-30.24-33.7v18.22h9.49c7.32,0,11.9-3.3,11.9-9.27,0-5.72-4-8.95-12.71-8.95Zm24,33c0-6.85-5.07-10.56-12.63-10.56h-11.34v20.88h11.18C1451.51,245.86,1455.62,241.83,1455.62,235.54Z"/><path d="M1518.28,243c-.89,4.59-3.06,7.9-7.8,7.9-4.59,0-7.08-2.58-10-12.25-2.73-8.87-3.94-13.55-13.35-13.55h-6v20.07c0,1.21,0,1.21,7.24,1.46v3.54H1468v-3.54c7.24-.25,7.24-.25,7.24-1.46v-42c0-1.21,0-1.21-7.24-1.45v-3.55h25.58c12.47,0,19.47,4.68,19.47,13.54,0,8.55-7,12.9-17.94,12.82h-.48c6.19,1.13,9.33,5.16,11.9,12.33,2.58,7.42,4.35,8.87,6.76,8.87,1.85,0,3.22-.89,4.34-3Zm-37.08-21.85h12.71c7.56,0,12.79-3,12.79-9.18,0-6-4.43-9.52-13.2-9.52h-12.3Z"/><path d="M1564.05,250.21h-42.71v-3.54c7.24-.25,7.24-.25,7.24-1.46v-42c0-1.21,0-1.21-7.24-1.45v-3.55h41.5l-.16,15.64h-4.18c-.56-11.29-.73-11.37-1.61-11.37h-22.36v18.3l16.49-.32v5.08l-16.49-.33v20.64H1558c1,0,1,0,1.69-12.33h4.1Z"/><path d="M1647.14,198.22v3.55c-5.87.32-5.87.4-6.19,1.29l-15.37,47.15h-4.34l-13-37.16-13.11,37.16h-4.26L1575,203.06c-.32-1.05-.4-1.05-6.19-1.29v-3.55h20.43v3.55c-7.72.16-7.72.24-7.4,1.29l11.9,38.69,13.84-40.06h2.65l13.84,40L1635.32,203c.24-1,.24-1-7.8-1.21v-3.55Z"/><path d="M1693.8,250.21h-42.72v-3.54c7.24-.25,7.24-.25,7.24-1.46v-42c0-1.21,0-1.21-7.24-1.45v-3.55h41.51l-.16,15.64h-4.18c-.57-11.29-.73-11.37-1.61-11.37h-22.36v18.3l16.49-.32v5.08l-16.49-.33v20.64h23.48c1,0,1,0,1.69-12.33h4.11Z"/><path d="M1749.06,224.1c0,16.68-10.78,26.11-27.75,26.11h-19.39v-3.54c7.24-.25,7.24-.25,7.24-1.46v-42c0-1.21,0-1.21-7.24-1.45v-3.55h19.63C1738.84,198.22,1749.06,207.41,1749.06,224.1Zm-6.36,0c0-13.71-7.07-21.61-20.91-21.61h-6.68v43.37h6.76C1735.38,245.86,1742.7,237.72,1742.7,224.1Z"/><path d="M1176.25,310.83v15c0,1.21,0,1.21,8.69,1.45v3.55h-21.88v-3.55c7.24-.24,7.24-.24,7.24-1.45v-42c0-1.21,0-1.21-7.24-1.45v-3.55h21.88c12.79,0,19.87,6,19.87,15.56s-6.68,16.44-20.67,16.44Zm0-27.73v23.46h7.89c9.81,0,14.31-4.43,14.31-12.17,0-6.45-4.5-11.29-13.51-11.29Z"/><path d="M1256.61,283.83v42c0,1.21,0,1.21,7.24,1.45v3.55h-20.43v-3.55c7.32-.24,7.32-.24,7.32-1.45V305.51h-26.38v20.31c0,1.21,0,1.21,7.23,1.45v3.55h-20.43v-3.55c7.24-.24,7.24-.24,7.24-1.45v-42c0-1.21,0-1.21-7.24-1.45v-3.55h20.43v3.55c-7.23.24-7.23.24-7.23,1.45v17.41h26.38V283.83c0-1.21,0-1.21-7.32-1.45v-3.55h20.43v3.55C1256.61,282.62,1256.61,282.62,1256.61,283.83Z"/><path d="M1270.85,304.87c0-16.85,10.78-26.85,24.45-26.85,13.92,0,24.13,10.08,24.13,26.76s-10.78,26.77-24.45,26.77C1281.15,331.55,1270.85,321.55,1270.85,304.87Zm42.31-.09c0-13.7-7.24-21.92-18-21.92-10.54,0-17.94,8.14-17.94,22,0,13.62,7.24,21.84,18,21.84C1305.68,326.71,1313.16,318.57,1313.16,304.78Z"/><path d="M1373.33,278.83l-.24,17.41h-4c-.72-13.14-.72-13.14-1.77-13.14h-14.47v42.72c0,1.21,0,1.21,8.68,1.45v3.55h-23.32v-3.55c8.68-.24,8.68-.24,8.68-1.45V283.1h-14.39c-1.13,0-1.13,0-1.77,13.14h-4.11l-.24-17.41Z"/><path d="M1380.25,304.87C1380.25,288,1391,278,1404.7,278c13.91,0,24.13,10.08,24.13,26.76s-10.78,26.77-24.45,26.77C1390.54,331.55,1380.25,321.55,1380.25,304.87Zm42.31-.09c0-13.7-7.24-21.92-18-21.92-10.54,0-17.94,8.14-17.94,22,0,13.62,7.24,21.84,18,21.84C1415.08,326.71,1422.56,318.57,1422.56,304.78Z"/><path d="M1487.63,306.16v3.54c-6.19.24-6.19.24-6.19,1.45v20.32h-3.38l-2-10c-2.09,5.88-8,10.08-15.85,10.08-13.11,0-23-10.4-23-26.68,0-16.53,10.45-26.85,23.24-26.85,6.84,0,12.87,3.47,15,8.79l1.45-8.46h4.1v18.86h-3.53c-1.77-9.67-8.53-14.27-15.93-14.27-10.86,0-17.94,8.38-17.94,21.93s6.68,21.84,17.38,21.84c8.44,0,14.72-5.64,14.72-12.66v-2.9c0-1.21,0-1.21-9.58-1.45v-3.54Z"/><path d="M1542.73,323.65c-.88,4.59-3,7.9-7.8,7.9-4.58,0-7.08-2.58-10-12.26-2.74-8.86-4-13.54-13.36-13.54h-5.95v20.07c0,1.21,0,1.21,7.24,1.45v3.55h-20.43v-3.55c7.24-.24,7.24-.24,7.24-1.45v-42c0-1.21,0-1.21-7.24-1.45v-3.55H1518c12.47,0,19.46,4.68,19.46,13.54,0,8.55-7,12.9-17.93,12.82h-.49c6.2,1.13,9.34,5.16,11.91,12.33,2.57,7.42,4.34,8.87,6.76,8.87,1.85,0,3.21-.89,4.34-3Zm-37.08-21.85h12.71c7.56,0,12.79-3,12.79-9.19,0-6-4.42-9.51-13.19-9.51h-12.31Z"/><path d="M1599.28,327.27v3.55h-20.91v-3.55c8.2-.24,8.2-.24,7.8-1.29l-4.59-11.84h-21l-4.5,11.84c-.49,1.13-.49,1.13,7.8,1.29v3.55h-19.71v-3.55c5.87-.24,5.79-.24,6.2-1.29l19.22-47.15h4.26L1592.93,326C1593.33,327,1593.33,327,1599.28,327.27ZM1580,309.94l-6.28-16L1571,287l-2.66,6.93-6.11,16Z"/><path d="M1615.93,310.83v15c0,1.21,0,1.21,8.69,1.45v3.55h-21.88v-3.55c7.24-.24,7.24-.24,7.24-1.45v-42c0-1.21,0-1.21-7.24-1.45v-3.55h21.88c12.79,0,19.87,6,19.87,15.56s-6.68,16.44-20.67,16.44Zm0-27.73v23.46h7.89c9.81,0,14.31-4.43,14.31-12.17,0-6.45-4.5-11.29-13.51-11.29Z"/><path d="M1696.29,283.83v42c0,1.21,0,1.21,7.24,1.45v3.55H1683.1v-3.55c7.32-.24,7.32-.24,7.32-1.45V305.51H1664v20.31c0,1.21,0,1.21,7.24,1.45v3.55h-20.44v-3.55c7.24-.24,7.24-.24,7.24-1.45v-42c0-1.21,0-1.21-7.24-1.45v-3.55h20.44v3.55c-7.24.24-7.24.24-7.24,1.45v17.41h26.38V283.83c0-1.21,0-1.21-7.32-1.45v-3.55h20.43v3.55C1696.29,282.62,1696.29,282.62,1696.29,283.83Z"/><path d="M1759.11,278.83v3.55c-5.95.4-5.95.4-6.75,1.37l-16.57,24.58v17.49c0,1.21,0,1.21,8.68,1.45v3.55h-23.32v-3.55c8.68-.24,8.68-.24,8.68-1.45V308.73l-16.24-25.06c-.73-1-.73-1-6.68-1.29v-3.55h21.32v3.55c-7.73.24-7.73.24-7,1.29l12.39,20.47,12.7-20.39c.65-1.05.65-1.05-6.43-1.37v-3.55Z"/></svg>