<svg id="Layer_1" data-name="Layer 1" xmlns="http://www.w3.org/2000/svg" viewBox="0 0 1200 1200"><defs><style>.cls-1{fill:#988575;}.cls-2{fill:#924a3b;}.cls-3{fill:#4d4e4e;stroke:#4d4e4e;stroke-miterlimit:10;stroke-width:5.05px;}.cls-4{fill:#231f20;}</style></defs><path class="cls-1" d="M600,489.65a101,101,0,1,0,101,101A101,101,0,0,0,600,489.65Zm-43,59.09c.31-.46,7.52-10.81,17.6-10.81,13.75,0,24.89,16.52,24.89,36.9,0-20.38,11.14-36.9,24.88-36.9,10.09,0,17.3,10.35,17.6,10.81,7.12,10.69,3.42,23.91-1.29,31.24s-10.76,9.27-16.31,12.87c-9.57,6.22-20.23,13-24.88,42-4.65-29-15.31-35.78-24.89-42-5.55-3.6-11.6-5.55-16.3-12.87S549.87,559.43,557,548.74Zm43,131.12a88,88,0,0,1-85.85-107.45l.09-.39a16.26,16.26,0,0,1,15.85-12.69,16,16,0,0,1,2,.13,16.24,16.24,0,0,1,4,31.22c-2,1-9.77,5.72-9.47,17.75A75.29,75.29,0,0,0,595.75,667a29.32,29.32,0,0,0-6.11-6.92c-3.33-2.71-5.88-3.52-13.77-6.8-12.41-5.17-18.61-7.75-21-9.68-.88-.73-13.6-11.54-10.66-25.76,1.25-6.07,5.73-13.59,12.84-16.17,12.91-4.71,29,7,36,26.16l6.39,17.56q3.19-8.79,6.4-17.56c7-19.15,23.09-30.87,36-26.16,7.11,2.58,11.6,10.08,12.84,16.17,3,14.65-10.75,25.74-11.52,26.35-3.84,3-9.26,5-20.1,9.09-7.18,2.68-9.18,2.93-12.36,5.09a26.39,26.39,0,0,0-7.89,8.68,75.26,75.26,0,0,0,70.5-58.38c.45-13.9-9.9-18.16-9.9-18.16h0a16.25,16.25,0,1,1,22-19.74,15.12,15.12,0,0,1,.49,2.14,88,88,0,0,1-86,107Z"/><path class="cls-2" d="M468.25,526.68H303V674.79H480.17a146.58,146.58,0,0,1-11.92-148.11Z"/><path class="cls-3" d="M492,689.5H303v23.66a12.12,12.12,0,0,0,12.11,12.12H542.38A146.88,146.88,0,0,1,492,689.5Z"/><path class="cls-3" d="M657.62,725.28H884.94a12.12,12.12,0,0,0,12.11-12.12V689.5H708A146.88,146.88,0,0,1,657.62,725.28Z"/><path class="cls-3" d="M731.3,590.64a131.3,131.3,0,1,0-155.7,129v57.84a20.25,20.25,0,0,0,20.19,20.2h6.73a20.26,20.26,0,0,0,20.2-20.2V719.91A131.28,131.28,0,0,0,731.3,590.64ZM600,706.77A116.13,116.13,0,1,1,716.15,590.64,116.14,116.14,0,0,1,600,706.77Z"/><polygon class="cls-3" points="653.86 397.09 546.14 397.09 520.9 440.85 679.1 440.85 653.86 397.09"/><circle class="cls-3" cx="822.46" cy="519.22" r="23.25"/><path class="cls-2" d="M822.34,557.62a38.52,38.52,0,0,1-37.77-30.94H731.75a146.58,146.58,0,0,1-11.92,148.11H897.05V526.68H860.1A38.52,38.52,0,0,1,822.34,557.62Z"/><path class="cls-3" d="M884.94,456H657.62a147.12,147.12,0,0,1,65.62,55.54h61.33a38.52,38.52,0,0,1,75.53,0h36.95V468.11A12.12,12.12,0,0,0,884.94,456Z"/><path class="cls-3" d="M303,468.11v43.42H476.76A147.12,147.12,0,0,1,542.38,456H315.06A12.12,12.12,0,0,0,303,468.11Zm106.77,28.28H351.44V471.14h58.28Z"/><path class="cls-4" d="M397,384.7l-9-8.13c-1.72-1.56-2.54-1.48-3.85,0l-.95,1c-.66.72-.92.74-1.51.2l-1.9-1.72c-.73-.66-.66-1-.09-1.64l9.95-11c.57-.64.87-.7,1.6,0l1.9,1.72c.59.54.61.8,0,1.48l-1,1.09c-1.32,1.45-1.42,2.11.44,3.79L414.12,391c1.86,1.69,2.59,1.43,3.9,0l.9-1c.66-.72.92-.74,1.47-.24l2,1.8c.59.54.66.92,0,1.6l-9.94,11c-.58.64-.92.66-1.56.08l-2-1.81c-.5-.45-.56-.75.06-1.43l.91-1c1.31-1.45,1.35-2.32-.37-3.88l-9-8.18-13.27,14.67,9,8.18c1.86,1.68,2.58,1.43,3.9,0l.9-1c.7-.77.92-.74,1.46-.24l2,1.81c.59.53.66.92,0,1.6l-9.94,11c-.58.63-.92.65-1.56.08l-2-1.81c-.5-.45-.55-.76.06-1.44l.91-1c1.31-1.46,1.35-2.33-.37-3.89l-21.53-19.47c-1.72-1.56-2.54-1.48-3.86,0l-.94,1c-.66.73-.92.74-1.51.21l-1.91-1.73c-.72-.66-.65-1-.08-1.64l9.94-11c.58-.64.88-.7,1.61,0l1.91,1.73c.59.53.6.79,0,1.47l-1,1.09c-1.32,1.45-1.42,2.11.44,3.79l9,8.14Z"/><path class="cls-4" d="M417.54,339.63c13-9.85,24.35-4.34,31.29,4.85,6.27,8.31,10,21.25-3.71,31.58-13.1,9.89-24.35,4.34-31.29-4.85C407.48,362.8,403.9,349.93,417.54,339.63Zm1.93,27.16c4.58,6.06,13.09,12.46,22.67,5.23s5.77-16.87,1.08-23.08c-4.5-6-13-12.57-22.7-5.26C411.33,350.61,414.57,360.29,419.47,366.79Z"/><path class="cls-4" d="M488.84,342.67l-3.94-39.86c0-.94.14-1.29,1.3-1.83l8.87-4.16c.78-.36,1.08-.3,1.47.53l1,2A1.06,1.06,0,0,1,497,301l-1.8.91c-.78.36-1.76,1-.8,3.07l12.63,26.94c.94,2,1.39,2.25,3,1.5l1.89-.88c.88-.42,1.29-.27,1.63.45l1.06,2.27c.39.83.14,1.16-.69,1.55L500.69,343c-.78.37-1.13.33-1.52-.5l-1.07-2.27c-.33-.72-.3-1.08.59-1.49l1.61-.76c1.6-.75,2-1.48,1.1-3.42l-10.63-22.67,3.32,33.47c.05.85-.06,1-1.06,1.5l-5.21,2.44c-.83.39-1.1.39-1.69-.15l-24.68-24.67,11.17,23.84c.91,1.94,1.46,1.95,3.29,1.09l1.61-.75c.83-.39,1.05-.36,1.38.36l1.15,2.44c.39.83.19,1.13-.53,1.47l-12.58,5.89c-.73.34-1.08.3-1.44-.47l-1.17-2.5c-.34-.72-.23-.9.6-1.29l1.56-.73c1.88-.88,2.19-1.37,1.31-3.25l-12.7-27.11c-1.13-2.11-2-1.83-3.48-1.21l-.83.39c-.91.36-1.23.11-1.49-.45l-1-2.21c-.39-.84-.25-1.11.58-1.49l9.87-4.63a1.59,1.59,0,0,1,2,.6Z"/><path class="cls-4" d="M514.6,296.16l-2.14.53c-.77.19-1.08,0-1.27-.82l-.63-2.49c-.22-.89,0-1.13.93-1.37l27.38-6.82c2.2-.55,2.58-.52,3.43,2.11l2.12,6.73c.34,1.11.29,1.44-.72,1.69l-2.55.64c-.89.22-1.23.11-1.63-1l-.85-2.38c-1-2.66-2.3-2.39-7.17-1.18l-8.43,2.1,3.73,15,5.64-1.4a1.68,1.68,0,0,0,1.43-2.13l-.31-2c-.12-1,0-1.14.92-1.37l2.32-.57c.89-.23,1,.06,1.23.89l2.91,11.7c.2.77.22,1.14-.61,1.35L538,316c-.84.21-1.13,0-1.46-.77l-.66-1.92a1.75,1.75,0,0,0-2.28-1.26l-5.64,1.41,3.58,14.37,10.87-2.71c3.92-1,4.38-1.4,4.34-4.61l-.48-3.73c0-.81.21-1.18,1.1-1.41l2.55-.63c.89-.23,1.16.09,1.25.95l1.44,9.6c.28,1.89-.16,2.13-1.59,2.48l-28.87,7.2c-.77.19-1.17.1-1.39-.79l-.58-2.32c-.22-.89.06-1.28.71-1.44,3.27-.81,3.88-1.41,3.29-3.78l-7.07-28.4C516.64,296.47,516,296,514.6,296.16Z"/><path class="cls-4" d="M578.39,284.44l-2.21.05c-.79,0-1-.28-1.06-1.08l-.06-2.57c0-.91.22-1.1,1.2-1.13l15.85-.36c10.53-.24,16.53,2.31,16.71,10.27.16,6.55-4,9.4-8.15,10.11v.06c6.38.34,11,4.16,11.15,10.71.25,11-7.92,12.8-17.65,13l-17,.39c-.79,0-1.16-.15-1.18-1.07l-.06-2.39c0-.92.34-1.23,1-1.25,3.37-.08,4.09-.52,4-3L580.35,287C580.3,285.19,579.8,284.59,578.39,284.44Zm9.06,13.21,6-.14c5.82-.13,8.28-2.34,8.16-7.29-.12-5.27-3.76-6.23-8.59-6.12l-5.88.14Zm.49,21.24,6.92-.16c4.53-.1,9.77-1.21,9.61-8-.14-6.37-4.29-8.29-11.09-8.14l-5.81.14Z"/><path class="cls-4" d="M632.7,307.41l-1.45,10.18c-.36,2.49.32,3,2.32,3.24l1.7.25c1,.14,1.12.34,1,1.07l-.38,2.67c-.11.78-.34,1.06-1.31.92l-15.52-2.21c-.91-.13-1.11-.41-1-1.26l.38-2.67c.09-.66.31-.88,1.28-.74l1.64.23c2,.29,2.8-.15,3.13-2.46l4.14-29c.25-1.76-.14-2.49-1.58-2.82l-2.3-.33c-.79-.11-1.32-.25-1.18-1.28l.37-2.55c.13-.91.39-1.05,1.43-.91L640.67,282c11.82,1.68,17.81,6.07,16.48,15.4-1,7.09-5.2,10.39-11.06,11.16,2.81,2,4,5.58,6.3,13,.65,2,1.19,2.52,2.83,2.76a8.67,8.67,0,0,0,2.16,0c.5-.06.86.06.77.66l-.38,2.67c-.09.67-.28,1.07-1.31,1.36a11.94,11.94,0,0,1-4,0c-3.88-.55-5.54-2.4-6.78-6.22-1.48-4.79-2.72-13.87-9.51-14.84Zm5.77-3.57c6.91,1,10.72-1.43,11.56-7.31s-2.38-8.88-9.53-9.9l-4.73-.67-2.45,17.15Z"/><path class="cls-4" d="M677.07,293.77,675,293.1c-.76-.24-.89-.6-.65-1.36l.77-2.46c.28-.87.57-1,1.5-.68l26.93,8.54c2.16.69,2.47.92,1.81,3.6l-1.72,6.85c-.29,1.12-.5,1.38-1.49,1.06l-2.52-.79c-.87-.28-1.11-.55-.87-1.7l.52-2.46c.56-2.78-.7-3.25-5.49-4.77l-8.3-2.63L680.79,311l5.54,1.76a1.67,1.67,0,0,0,2.33-1.06l.79-1.87c.41-.9.62-1,1.5-.69l2.28.73c.88.27.84.59.58,1.4l-3.65,11.51c-.24.76-.41,1.09-1.23.83l-2.33-.74c-.82-.26-1-.57-.84-1.42l.44-2a1.74,1.74,0,0,0-1.27-2.26l-5.55-1.76-4.49,14.13L685.58,333c3.86,1.22,4.48,1.1,6.12-1.66l1.54-3.43a1.18,1.18,0,0,1,1.67-.63l2.52.8c.87.28.93.68.56,1.46l-3.8,9c-.75,1.76-1.26,1.72-2.66,1.28l-28.38-9c-.76-.24-1-.53-.78-1.41l.73-2.27c.27-.88.72-1.06,1.36-.86,3.21,1,4,.84,4.78-1.5l8.86-27.91C678.64,295.1,678.35,294.37,677.07,293.77Z"/><path class="cls-4" d="M718.34,344.31l24.75-27.46c.89-1,1-1.11,1.79-.69l4.6,2.55c.75.42.6.69.33,1.93L741.14,355l19.73-21.2a7.06,7.06,0,0,0,1.1-1.35c.54-1-.1-1.46-2.3-2.67a1,1,0,0,1-.42-1.5l1.24-2.25c.45-.81.56-.88,1.69-.26l10.66,5.91c.69.39.76.64.32,1.44L772,335.24c-.3.54-.62,1-1.42.55-2.73-1.52-3.06-1.56-5.33.89l-25.11,26.21c-1,1-1.22,1.07-2.29.48l-4.08-2.26c-1-.53-.82-1.16-.59-2.08l8.59-33-22.57,25.3c-.92,1-1.28,1-2.08.59l-5.41-3c-.7-.38-1-.8-.63-2l8.61-35.49c.77-3.14.54-3.48-1.71-4.73-1.23-.68-1.25-1-.65-2.11l1-1.88c.41-.75.66-.82,1.41-.4l12.86,7.13c.75.41.79.71.41,1.41l-1.28,2.3c-.33.59-.67.83-1.31.47-2.36-1.31-3.14-1.67-3.7-.65a8.81,8.81,0,0,0-.62,1.75Z"/><path class="cls-4" d="M782.37,346l-1.68-1.42c-.6-.52-.59-.91-.08-1.52l1.67-2c.6-.7.9-.68,1.65,0l21.51,18.28c1.73,1.47,1.93,1.8.28,4L801.49,369c-.71.92-1,1.08-1.79.4l-2-1.7c-.7-.6-.82-.94-.16-1.9l1.45-2.08c1.59-2.34.6-3.26-3.23-6.51l-6.62-5.64-10,11.76,4.43,3.77a1.66,1.66,0,0,0,2.56-.08l1.45-1.42c.73-.66.95-.64,1.65,0l1.82,1.55c.7.59.54.86,0,1.52l-7.82,9.19c-.51.61-.8.85-1.45.29l-1.87-1.59c-.65-.55-.68-.9-.21-1.63l1.17-1.66a1.74,1.74,0,0,0-.3-2.58l-4.43-3.77-9.61,11.29,8.55,7.26c3.08,2.62,3.69,2.75,6.28.84l2.74-2.57a1.19,1.19,0,0,1,1.79.08l2,1.7c.7.6.6,1,0,1.57l-7,6.78c-1.37,1.33-1.82,1.1-2.94.15l-22.68-19.28c-.61-.52-.77-.89-.17-1.59l1.54-1.82c.6-.7,1.08-.7,1.59-.26,2.57,2.18,3.4,2.33,5,.46l19-22.31C783.3,347.87,783.33,347.09,782.37,346Z"/><path class="cls-4" d="M816.2,380.3c1.54-1.3,1.61-2.08-.67-4.8-.51-.61-.44-1,.17-1.51l2-1.65c.71-.59,1-.52,1.64.23l9.76,11.64c10.75,12.8,10.07,23.53-1.24,33s-22.44,7.56-32.68-4.64l-9.76-11.64c-.51-.6-.61-1,.1-1.59l1.83-1.54c.7-.59,1.17-.51,1.61,0,2.16,2.58,3,2.87,4.84,1.29Zm-17.19,29c7.76,9.24,15.06,10.23,24.25,2.51,9.62-8.07,9.46-15.61,1.78-24.75l-2.56-3-26.23,22Z"/><path class="cls-4" d="M379.68,804,373,810.15c-1.84,1.7-1.62,2.49-.3,3.93l.91,1c.67.72.61.93.07,1.43l-2,1.82c-.58.54-.93.61-1.55-.07l-10-10.93c-.58-.63-.6-1,0-1.6l2-1.82c.49-.45.8-.49,1.46.24l.91,1c1.28,1.4,2.19,1.57,3.9,0L390,785.36c1.3-1.2,1.43-2,.61-3.14l-1.49-1.63c-.54-.58-.48-1,.11-1.51l1.9-1.74c.67-.62,1-.56,1.64.16l9.76,10.66c8.69,9.48,10.81,16.68,3.22,23.64-6.95,6.37-14.68,4.64-21.22-2.49Zm6.74.46c5.17,5.65,10,6.16,14.48,2,4.83-4.43,4-8.88-1.31-14.66l-3-3.3-13.46,12.33Z"/><path class="cls-4" d="M431.71,841l7.47-9.55c1.43-1.83,1.28-2.64-.26-3.85l-1.11-.87c-.77-.6-.8-.86-.31-1.49l1.58-2c.61-.78,1-.73,1.64-.2l11.67,9.12c.67.53.75.83.15,1.6l-1.59,2c-.48.63-.74.66-1.46.1l-1.16-.91c-1.55-1.21-2.21-1.26-3.75.72L426.7,858.54c-1.54,2-1.24,2.68.31,3.89l1.06.83c.77.6.8.86.35,1.44l-1.66,2.12c-.49.63-.87.72-1.6.15l-11.67-9.12c-.67-.53-.71-.87-.19-1.55l1.66-2.12c.42-.53.71-.61,1.44,0l1.06.83c1.54,1.21,2.41,1.19,3.84-.64l7.51-9.6-15.58-12.18-7.5,9.6c-1.55,2-1.25,2.68.3,3.89l1.06.83c.82.64.8.86.35,1.44l-1.66,2.12c-.49.63-.87.72-1.59.15l-11.68-9.12c-.67-.53-.71-.88-.19-1.55l1.66-2.12c.42-.53.71-.61,1.44,0l1.06.83c1.54,1.21,2.41,1.19,3.84-.64l17.88-22.86c1.43-1.84,1.29-2.65-.26-3.85l-1.11-.87c-.77-.61-.8-.86-.31-1.49l1.58-2c.61-.78,1-.73,1.64-.2l11.67,9.12c.67.53.75.82.15,1.6l-1.58,2c-.49.63-.75.66-1.48.09l-1.15-.9c-1.55-1.21-2.21-1.26-3.75.72l-7.47,9.55Z"/><path class="cls-4" d="M476.4,844.71c14.46,7.62,14.28,20.18,8.91,30.37-4.85,9.2-15,18.06-30.15,10.06-14.52-7.65-14.28-20.19-8.91-30.37C451.16,845.45,461.29,836.74,476.4,844.71ZM452.65,858c-3.54,6.72-5.71,17.13,4.91,22.73,10.45,5.51,17.7-2,21.33-8.83,3.48-6.61,5.84-17.13-4.89-22.78C463.82,843.75,456.44,850.8,452.65,858Z"/><path class="cls-4" d="M494.81,900.7l.85-2.56c.21-.64.46-.81,1.33-.53l1.28.43c1.69.55,2.54.32,3.25-1.45l10.05-30.47-4.24-1.4c-3.32-1.09-4.15-1.3-5,.48L501,868.31c-.4.83-.67.87-1.54.58l-2.62-.86c-1-.33-.91-.56-.57-1.41l3-7.66c.73-1.82,1.06-1.84,2.51-1.36L531,867.24c1.46.48,1.77.72,1.27,2.61l-2.17,7.93c-.21.83-.3,1.12-1.29.8l-2.62-.86c-.87-.29-1.1-.56-.95-1.42l.82-3.27c.38-1.94-.47-2.28-4-3.45l-4-1.31-9.89,30c-.79,2.38-.27,2.94,1.59,3.55l1.34.44c.93.31,1,.52.76,1.22l-.85,2.56c-.24.76-.57,1-1.39.7l-14.13-4.66C494.7,901.82,494.54,901.51,494.81,900.7Z"/><path class="cls-4" d="M558.94,872c16.16,2.5,20.07,14.44,18.31,25.82-1.59,10.28-8.29,22-25.23,19.33-16.22-2.51-20.07-14.45-18.31-25.82C535.32,880.91,542.06,869.37,558.94,872Zm-18.13,20.3c-1.17,7.5.17,18.06,12,19.89,11.68,1.81,16.11-7.6,17.31-15.29,1.14-7.38-.06-18.1-12-19.95C546.74,875.18,542.05,884.24,540.81,892.29Z"/><path class="cls-4" d="M609.31,899.75c0-.79.23-1.22,1-1.24l12.92-.23a.88.88,0,0,1,1,1l.34,19c0,.86-.28,1.35-1.08,1.37l-2.39,0c-1,0-1.35-.22-1.61-1l-.32-.91a23.61,23.61,0,0,1-11.21,2.89c-12.43.23-22-6.76-22.27-22.25-.24-13.35,7.49-23,21.69-23.24,12-.21,16.26,5.34,16.36,10.79a4.31,4.31,0,0,1-4.51,4.49,4.1,4.1,0,0,1-4.3-4.27,4.34,4.34,0,0,1,2.07-3.89c-2.05-1.37-5.06-2.18-9-2.1-10.65.19-15.28,8.42-15.1,18.27.19,10.47,5.69,17,15.43,16.81a18.69,18.69,0,0,0,9.74-2.75l-.13-7.71a1.31,1.31,0,0,0-1.5-1.39l-5.94.11c-.73,0-1-.35-1.06-1.14Z"/><path class="cls-4" d="M646.48,898.55l1.85,10.11c.46,2.47,1.25,2.7,3.24,2.33l1.68-.31c1-.18,1.18,0,1.31.7l.49,2.65c.14.78,0,1.11-.94,1.29l-15.42,2.84c-.9.16-1.19,0-1.34-.88l-.49-2.65c-.12-.66,0-.93,1-1.11l1.62-.3c2-.36,2.61-1,2.19-3.33l-5.29-28.78c-.32-1.74-.93-2.32-2.39-2.17l-2.29.42c-.79.14-1.34.18-1.53-.84l-.46-2.53c-.17-.9,0-1.13,1.06-1.32l15.18-2.79c11.74-2.16,18.81.09,20.52,9.36,1.29,7-1.62,11.5-6.93,14.1,3.29,1,5.59,4,10.11,10.34,1.25,1.7,1.93,2,3.56,1.71a7.86,7.86,0,0,0,2-.69c.46-.21.83-.21.94.39l.49,2.65c.12.66.08,1.1-.81,1.7a11.7,11.7,0,0,1-3.81,1.26c-3.86.71-6-.51-8.41-3.74-2.93-4.07-7-12.28-13.73-11Zm4.33-5.22c6.86-1.26,9.7-4.77,8.62-10.61s-5.07-7.66-12.18-6.35l-4.7.86,3.14,17Z"/><path class="cls-4" d="M707.71,885.66l-15.21,5.5.22,7.61c0,1.88.75,2.07,2.42,1.66l1-.37c1.08-.26,1.35,0,1.63.71l.79,2.19c.31.86.08,1.14-.84,1.47l-11.69,4.24c-.75.27-1.1.2-1.41-.67l-.81-2.24c-.27-.75-.23-1.16.62-1.53l1.65-.66c1-.43,1.39-.83,1.37-3l-.66-38.19c0-.79.09-1,1.18-1.4l5.19-1.88a1.24,1.24,0,0,1,1.61.33l23.66,29c2,2.41,2.35,2.53,4.27,1.9l1.06-.31c1-.38,1.37-.18,1.64.57l.86,2.37c.31.86.2,1.09-.84,1.47l-13.18,4.77c-1,.36-1.28.27-1.59-.6l-.79-2.19c-.27-.74-.18-1,.81-1.53l.75-.27c1.38-.69,1.95-1.09,1.64-2A6.94,6.94,0,0,0,712,891Zm-15.33.66,12.27-4.44L691.92,866Z"/><path class="cls-4" d="M737.42,869.38l4.39,7.93c1.21,2.2,2,2.16,3.75,1.21l1.17-.65c.86-.47,1.06-.37,1.41.27l1.31,2.36c.38.69.37,1-.43,1.5l-13,7.17c-.75.42-1.13.35-1.55-.4l-1.3-2.36c-.33-.59-.29-.89.57-1.36l1.18-.66c1.66-.92,2-1.75.91-3.79L721.68,855c-.86-1.56-1.58-1.85-2.9-1.33l-1.93,1.07c-.69.38-1.06.23-1.44-.47L714.16,852c-.44-.81-.32-1.09.54-1.56l12.64-7c11.25-6.23,18.74-6.6,23.72,2.4,4.57,8.25,1.09,15.36-7.38,20Zm2-6.44c6.69-3.71,8.31-8.24,5.35-13.6-3.17-5.73-7.71-6-14.56-2.16l-3.91,2.17,8.83,16Z"/><path class="cls-4" d="M785.5,827.42,778,817.93c-1.45-1.83-2.27-1.88-3.81-.66l-1.1.88c-.77.61-1,.58-1.52,0l-1.6-2c-.61-.77-.49-1.1.18-1.64l11.61-9.22c.68-.53,1-.54,1.59.23l1.6,2c.5.63.47.88-.25,1.46l-1.15.91c-1.54,1.22-1.74,1.85-.18,3.82l18.06,22.74c1.57,2,2.32,1.83,3.86.61l1-.83c.77-.61,1-.58,1.49,0l1.68,2.11c.49.63.49,1-.23,1.59l-11.61,9.22c-.67.54-1,.5-1.55-.18l-1.68-2.11c-.42-.52-.43-.83.29-1.4l1.06-.84c1.53-1.22,1.72-2.07.27-3.89l-7.58-9.55-15.5,12.31,7.59,9.55c1.56,2,2.31,1.83,3.85.61l1-.84c.82-.64,1-.58,1.49,0l1.67,2.11c.5.62.5,1-.22,1.59l-11.61,9.22c-.67.53-1,.49-1.55-.18l-1.68-2.11c-.42-.53-.42-.83.29-1.4l1.06-.84c1.54-1.22,1.72-2.07.27-3.9L757.09,834.5c-1.45-1.82-2.27-1.87-3.81-.65l-1.1.88c-.77.61-1,.58-1.52-.05l-1.6-2c-.61-.77-.49-1.11.18-1.64l11.61-9.22c.68-.53,1-.54,1.59.22l1.6,2c.5.62.47.88-.25,1.45l-1.15.92c-1.54,1.22-1.74,1.85-.18,3.82l7.55,9.49Z"/><path class="cls-4" d="M822.56,815l-7.78-7-20.61-4.58c-2.81-.55-3.67-.42-4.65.67l-.82.91c-.62.68-1.14.53-1.73,0l-1.78-1.6c-.68-.62-.65-.92-.08-1.56l9.19-10.18c.58-.64.92-.74,1.6-.12l1.68,1.51c.6.54.8,1,.18,1.73l-.74.82c-1,1.09-.84,1.47.83,1.91l15.91,4-5.24-16c-.52-1.62-1.2-1.33-1.85-.6l-.78.86c-.66.73-1.19.5-1.78,0l-1.68-1.52c-.69-.62-.66-.92,0-1.6l8-8.82c.57-.64.87-.61,1.51,0l1.77,1.6c.6.54.79,1,.18,1.64l-.95,1c-.66.72-.77,1.12,0,3.42l6.38,21.18,8.36,7.55c1.54,1.31,2.26,1,3.49-.39l1-1c.65-.73.87-.69,1.42-.2l2,1.8c.6.54.66.92.09,1.56l-10,11.05c-.58.63-.92.65-1.56.08l-2-1.81c-.5-.45-.56-.75,0-1.43l.91-1C824.24,817.46,824.28,816.59,822.56,815Z"/></svg>