<svg xmlns="http://www.w3.org/2000/svg" width="33" height="32.989" viewBox="0 0 33 32.989">
  <g id="Group_25" data-name="Group 25" transform="translate(0 0)">
    <path id="Path_86" data-name="Path 86" d="M0,16.5A16.5,16.5,0,1,1,16.528,32.989,16.508,16.508,0,0,1,0,16.5Zm5.64,6.52c.13.009.237.024.345.024q3.442,0,6.883,0a5.516,5.516,0,0,0,.845-.081,3.684,3.684,0,0,0,3.248-2.866,5.08,5.08,0,0,0-.11-2.7,2.311,2.311,0,0,0-1.8-1.721c-.1-.02-.2-.032-.353-.057a1.673,1.673,0,0,1,.181-.1,2.319,2.319,0,0,0,1.709-2.4,3.32,3.32,0,0,0-1.661-3.239,4.284,4.284,0,0,0-2.169-.517H6.021c-.12,0-.24.012-.381.02Zm19.641-3.272a2.353,2.353,0,0,1-3.13,1.352,2.064,2.064,0,0,1-1.516-2.348h7.131c-.061-.75-.059-1.443-.182-2.114a4.14,4.14,0,0,0-3.157-3.611,6.259,6.259,0,0,0-2.5-.108,4.514,4.514,0,0,0-3.5,2.374,6.072,6.072,0,0,0-.629,4.227A4.334,4.334,0,0,0,21,23.085a7.3,7.3,0,0,0,3.767.047,4.056,4.056,0,0,0,1.8-.9A3.156,3.156,0,0,0,27.6,19.748Zm.3-9.554H20.017v1.58h5.568Z" transform="translate(0)" fill="#333"/>
    <path id="Path_87" data-name="Path 87" d="M22.5,43.669c1.416,0,2.785-.02,4.153.009a1.381,1.381,0,0,1,1.233,1.16,3.418,3.418,0,0,1,.087.842,1.5,1.5,0,0,1-1.577,1.669c-1.231.05-2.467.018-3.7.019a.989.989,0,0,1-.195-.043Z" transform="translate(-13.762 -26.711)" fill="#333"/>
    <path id="Path_88" data-name="Path 88" d="M22.5,30.286h.9c.962,0,1.924,0,2.886,0a1,1,0,0,1,1.14.916,4.927,4.927,0,0,1-.071,1.461.848.848,0,0,1-.882.706c-1.282.012-2.565.007-3.847.006a.537.537,0,0,1-.128-.038Z" transform="translate(-13.768 -18.528)" fill="#333"/>
    <path id="Path_89" data-name="Path 89" d="M57.521,40.314H53.042a2.332,2.332,0,0,1,2.438-2.146A1.989,1.989,0,0,1,57.521,40.314Z" transform="translate(-32.449 -23.35)" fill="#333"/>
  </g>
</svg>
