<svg id="Group_22" data-name="Group 22" xmlns="http://www.w3.org/2000/svg" width="33" height="33" viewBox="0 0 33 33">
  <circle id="Ellipse_1" data-name="Ellipse 1" cx="3.106" cy="3.106" r="3.106" transform="translate(13.394 13.394)" fill="#333"/>
  <path id="Path_83" data-name="Path 83" d="M37.726,24.967A3.085,3.085,0,0,0,35.958,23.2a5.155,5.155,0,0,0-1.73-.321c-.983-.045-1.277-.054-3.765-.054s-2.782.01-3.765.054a5.15,5.15,0,0,0-1.73.321A3.085,3.085,0,0,0,23.2,24.967a5.155,5.155,0,0,0-.321,1.73c-.045.983-.054,1.277-.054,3.765s.01,2.782.054,3.765a5.15,5.15,0,0,0,.321,1.73,3.084,3.084,0,0,0,1.768,1.768,5.15,5.15,0,0,0,1.73.321c.983.045,1.277.054,3.765.054s2.783-.01,3.765-.054a5.155,5.155,0,0,0,1.73-.321,3.085,3.085,0,0,0,1.768-1.768,5.15,5.15,0,0,0,.321-1.73c.045-.983.054-1.277.054-3.765s-.01-2.782-.054-3.765A5.155,5.155,0,0,0,37.726,24.967Zm-7.263,10.28a4.785,4.785,0,1,1,4.785-4.785A4.784,4.784,0,0,1,30.463,35.248Zm4.974-8.641a1.118,1.118,0,1,1,1.118-1.118A1.118,1.118,0,0,1,35.437,26.607Z" transform="translate(-13.963 -13.963)" fill="#333"/>
  <path id="Path_84" data-name="Path 84" d="M16.5,0A16.5,16.5,0,1,0,33,16.5,16.5,16.5,0,0,0,16.5,0Zm9.261,20.342a6.837,6.837,0,0,1-.433,2.262A4.764,4.764,0,0,1,22.6,25.328a6.837,6.837,0,0,1-2.261.433c-.994.045-1.311.056-3.842.056s-2.848-.011-3.842-.056a6.837,6.837,0,0,1-2.262-.433A4.764,4.764,0,0,1,7.672,22.6a6.837,6.837,0,0,1-.433-2.262c-.045-.994-.056-1.311-.056-3.842s.011-2.848.056-3.842A6.837,6.837,0,0,1,7.672,10.4,4.764,4.764,0,0,1,10.4,7.672a6.846,6.846,0,0,1,2.262-.433c.994-.045,1.311-.056,3.842-.056s2.848.01,3.842.056a6.846,6.846,0,0,1,2.261.433A4.764,4.764,0,0,1,25.328,10.4a6.837,6.837,0,0,1,.433,2.261c.046.994.056,1.311.056,3.842S25.807,19.348,25.761,20.342Z" fill="#333"/>
</svg>
