<svg xmlns="http://www.w3.org/2000/svg" viewBox="0 0 85 84.97"><defs><style>.cls-1{fill:#333;}</style></defs><g id="Layer_4" data-name="Layer 4"><path class="cls-1" d="M42.5.61A42.18,42.18,0,1,0,84.69,42.79,42.18,42.18,0,0,0,42.5.61ZM29.33,63.7h-10v-32h10Zm-5-36.21a5.87,5.87,0,0,1,.06-11.74,5.87,5.87,0,0,1-.06,11.74ZM66.5,62.89c0,.24,0,.48,0,.82h-10c0-.38-.07-.73-.07-1.07,0-5.32,0-10.64,0-16a16.47,16.47,0,0,0-.31-2.88c-.69-3.62-3.1-4.38-6.06-3.9-2.55.41-4,2.16-4.3,5-.12,1.1-.17,2.21-.18,3.31,0,4.79,0,9.59,0,14.38,0,.35,0,.7-.06,1.11h-10v-32h9.59v4.06c.29-.33.41-.46.51-.59A10.46,10.46,0,0,1,54,30.87a15.66,15.66,0,0,1,5.57.69c3.49,1.19,5.38,3.79,6.19,7.22a25.29,25.29,0,0,1,.69,5.41C66.55,50.42,66.5,56.65,66.5,62.89Z"/></g></svg>