<svg id="Layer_1" data-name="Layer 1" xmlns="http://www.w3.org/2000/svg" viewBox="0 0 1200 1200"><defs><style>.cls-1{fill:#f1f1f1;}.cls-2{fill:#a2bd70;}.cls-3{fill:#7198b5;}.cls-4{fill:#545456;}</style></defs><rect class="cls-1" width="1200" height="1200"/><path class="cls-2" d="M600.52,673.66l8.18,4.26H850v-54a430.26,430.26,0,0,1-47.47,2.86,404.06,404.06,0,0,1-69.09-5.88c-60.13-10.41-100.14-31.4-142.51-53.59-37.86-19.85-77-40.37-133.53-53.88A484.06,484.06,0,0,0,350,500.65v104A504.86,504.86,0,0,1,462.2,618C521.19,632.12,561.52,653.24,600.52,673.66Z"/><path class="cls-3" d="M350,615v62.94H584.34c-33-18-69.21-35.29-116.55-47.64A487.87,487.87,0,0,0,350,615Z"/><path class="cls-4" d="M600.53,559.34C641.42,580.76,680,601,737,610.87c36.59,6.36,74.61,7.11,113,2.61V525l-52-55-52.05,55V467.43H699.43v-59.9H595.34v59.9H565.29V394.11l-38.16-55-38.17,55v42.58H454.09V407.53H350v82.81a505.12,505.12,0,0,1,112.19,13.33C521.19,517.78,561.53,538.9,600.53,559.34Z"/><path class="cls-2" d="M366.8,700.9l12,34,12-34h12.64v46.84h-9.67V734.92l1-22.09-12.64,34.9h-6.62l-12.64-34.87,1,22.06v12.81h-9.66V700.88Z"/><path class="cls-2" d="M453.64,725.38a28,28,0,0,1-2.44,12.11,18.37,18.37,0,0,1-7,8,20.67,20.67,0,0,1-20.82,0,18.58,18.58,0,0,1-7.08-8,27.59,27.59,0,0,1-2.54-11.89v-2.32a28,28,0,0,1,2.49-12.17,18.55,18.55,0,0,1,7-8.07,20.67,20.67,0,0,1,20.82,0,18.55,18.55,0,0,1,7,8.07,27.91,27.91,0,0,1,2.49,12.14Zm-9.77-2.13q0-7.37-2.64-11.15a9.32,9.32,0,0,0-13-2.05,9.43,9.43,0,0,0-2,2q-2.66,3.78-2.67,11.08v2.29q0,7.17,2.63,11.16A9.23,9.23,0,0,0,439,738.86a9,9,0,0,0,2.2-2.15q2.61-3.81,2.64-11.11Z"/><path class="cls-2" d="M481.29,730.58h-7.68v17.15h-9.67V700.88h17.4q8.3,0,12.8,3.72c3,2.48,4.5,6,4.5,10.46a13.07,13.07,0,0,1-8.36,13.09l10.13,19.13v.45H490.07Zm-7.68-7.81h7.78a8,8,0,0,0,5.63-1.85,6.58,6.58,0,0,0,2-5.1,7,7,0,0,0-1.88-5.2q-1.87-1.9-5.77-1.9h-7.75Z"/><path class="cls-2" d="M546.34,741.81a16.89,16.89,0,0,1-7.37,4.84,30.79,30.79,0,0,1-10.55,1.71,20.81,20.81,0,0,1-10.66-2.62,17.61,17.61,0,0,1-7.07-7.7,27,27,0,0,1-2.56-11.9V723a28.84,28.84,0,0,1,2.36-12.16,17.52,17.52,0,0,1,6.82-7.85,19.54,19.54,0,0,1,10.41-2.71q8.32,0,13,4t5.57,11.56h-9.38a9.34,9.34,0,0,0-2.84-5.89A9.14,9.14,0,0,0,528,708a8.52,8.52,0,0,0-7.48,3.72q-2.58,3.72-2.61,11v3q0,7.38,2.8,11.16a9.53,9.53,0,0,0,8.18,3.76c3.62,0,6.2-.78,7.74-2.32v-8.07h-8.78v-7.11h18.44Z"/><path class="cls-2" d="M583.88,738.07H567l-3.22,9.67H553.49l17.44-46.84h8.92l17.52,46.84H587.13Zm-14.31-7.81h11.7l-5.88-17.52Z"/><path class="cls-2" d="M643.13,747.73h-9.67l-18.78-30.82v30.82H605V700.88h9.67l18.81,30.88V700.9h9.64Z"/><path class="cls-2" d="M690.11,708.71H675.77v39H666.1v-39H652V700.9h38.15Z"/><path class="cls-2" d="M736.47,725.38A28.17,28.17,0,0,1,734,737.49a18.33,18.33,0,0,1-7,8,20.62,20.62,0,0,1-20.82,0,18.62,18.62,0,0,1-7.07-8,27.42,27.42,0,0,1-2.55-11.89v-2.32a28.34,28.34,0,0,1,2.49-12.17,18.64,18.64,0,0,1,7-8.07,20.62,20.62,0,0,1,20.82,0,18.55,18.55,0,0,1,7,8.07,28.07,28.07,0,0,1,2.5,12.14Zm-9.77-2.13q0-7.37-2.64-11.15a9.32,9.32,0,0,0-13-2,9.16,9.16,0,0,0-2,2q-2.64,3.78-2.67,11.08v2.29q0,7.17,2.64,11.16a9.23,9.23,0,0,0,12.85,2.29,9,9,0,0,0,2.2-2.15q2.61-3.81,2.64-11.11Z"/><path class="cls-2" d="M783.25,734.22l6.3-33.32h9.62l-10.41,46.84h-9.69l-7.62-31.32-7.62,31.32h-9.71L743.71,700.9h9.62l6.33,33.25,7.72-33.25h8.18Z"/><path class="cls-2" d="M845.75,747.73h-9.66l-18.78-30.82v30.82h-9.67V700.88h9.67l18.82,30.88V700.9h9.61Z"/><path class="cls-4" d="M362.62,800.76h18.69v7.07H353.8V765.07h8.8Z"/><path class="cls-4" d="M411.62,799H396.19l-2.93,8.79H383.9l15.9-42.72H408l16,42.71h-9.38Zm-13.05-7.16h10.67l-5.37-16Z"/><path class="cls-4" d="M463.26,807.79h-8.8l-17.1-28.09v28.09h-8.83V765.07h8.8l17.15,28.16V765.07h8.78Z"/><path class="cls-4" d="M471.54,807.79V765.07h13.15a20,20,0,0,1,10.07,2.54,17.68,17.68,0,0,1,6.94,7.22,22.3,22.3,0,0,1,2.49,10.63v2A22.28,22.28,0,0,1,501.74,798a17.59,17.59,0,0,1-6.91,7.19,20,20,0,0,1-10.07,2.59Zm8.8-35.57v28.54h4.26q5.16,0,7.89-3.37c1.81-2.24,2.74-5.47,2.78-9.66V785.5q0-6.53-2.7-9.88t-7.88-3.35Z"/><path class="cls-4" d="M544.08,792.16h-7v15.61h-8.81v-42.7h15.88q7.56,0,11.67,3.38t4.1,9.53a11.9,11.9,0,0,1-7.62,11.94l9.24,17.45v.41h-9.45Zm-7-7.13h7.1a7.26,7.26,0,0,0,5.13-1.68,6.05,6.05,0,0,0,1.82-4.65A6.41,6.41,0,0,0,549.4,774c-1.14-1.16-2.9-1.73-5.26-1.73h-7.07Z"/><path class="cls-4" d="M592.9,789.29H576v11.47h19.83v7.07H567.2V765.07h28.57v7.13H576v10.2h16.9Z"/><path class="cls-4" d="M633.92,765.07V793.2q0,7-4.38,11.09t-12,4.08q-7.47,0-11.9-4t-4.46-10.88V765.07H610v28.19c0,2.79.67,4.84,2,6.12a7.81,7.81,0,0,0,5.56,1.92q7.43,0,7.54-7.8V765.07Z"/><path class="cls-4" d="M663.88,796.59a4.53,4.53,0,0,0-1.76-3.83,22.78,22.78,0,0,0-6.33-2.81,45,45,0,0,1-7.25-2.92q-7.27-3.93-7.27-10.59a10.3,10.3,0,0,1,2-6.18,12.71,12.71,0,0,1,5.6-4.24,21.18,21.18,0,0,1,8.18-1.48,19.17,19.17,0,0,1,8.18,1.65,13.12,13.12,0,0,1,5.56,4.68,12.28,12.28,0,0,1,2,6.86H664a5.74,5.74,0,0,0-1.85-4.55,7.58,7.58,0,0,0-5.2-1.63,8.12,8.12,0,0,0-5,1.36,4.33,4.33,0,0,0-1.79,3.6,4.1,4.1,0,0,0,2.09,3.48,23,23,0,0,0,6.18,2.64q7.51,2.24,10.94,5.61a11.15,11.15,0,0,1,3.43,8.33,10.28,10.28,0,0,1-4.19,8.7q-4.2,3.15-11.29,3.15a21.82,21.82,0,0,1-9-1.81,14.24,14.24,0,0,1-6.18-4.94A12.69,12.69,0,0,1,640,794.4h8.81q0,7.07,8.44,7.07a8.23,8.23,0,0,0,4.9-1.28A4.14,4.14,0,0,0,663.88,796.59Z"/><path class="cls-4" d="M705,789.29h-16.9v11.47h19.83v7.07H679.27V765.07h28.54v7.13H688.06v10.2H705Z"/><path class="cls-4" d="M754.85,799H739.42l-2.93,8.79h-9.35L743,765.07h8.18l16,42.71h-9.38Zm-13.05-7.16h10.67l-5.36-16Z"/><path class="cls-4" d="M806.49,807.79h-8.8l-17.1-28.09v28.09h-8.84V765.07h8.8l17.16,28.16V765.07h8.77Z"/><path class="cls-4" d="M814.77,807.79V765.07h13.14A19.93,19.93,0,0,1,838,767.61a17.55,17.55,0,0,1,6.94,7.22,22.08,22.08,0,0,1,2.5,10.63v2A22.37,22.37,0,0,1,845,798a17.59,17.59,0,0,1-6.91,7.19A20,20,0,0,1,828,807.78Zm8.8-35.57v28.54h4.25q5.17,0,7.9-3.37c1.82-2.24,2.75-5.47,2.79-9.66V785.5q0-6.53-2.7-9.88t-7.9-3.35Z"/><path class="cls-4" d="M359.11,849.67v10.82h-6.32V829.8h12a13.7,13.7,0,0,1,6.08,1.27,9.28,9.28,0,0,1,4,3.59,9.87,9.87,0,0,1,1.41,5.3,8.8,8.8,0,0,1-3.08,7.11q-3.09,2.61-8.55,2.61Zm0-5.12h5.65a5.49,5.49,0,0,0,3.82-1.18A4.3,4.3,0,0,0,369.9,840a5.07,5.07,0,0,0-1.33-3.65,5,5,0,0,0-3.66-1.43h-5.8Z"/><path class="cls-4" d="M392.38,849.25h-5v11.24H381V829.8h11.41q5.43,0,8.39,2.42a8.41,8.41,0,0,1,3,6.85,9.46,9.46,0,0,1-1.36,5.21,9.29,9.29,0,0,1-4.12,3.34L405,860.16v.3h-6.79Zm-5-5.12h5.1a5.25,5.25,0,0,0,3.72-1.21,4.35,4.35,0,0,0,1.3-3.34,4.61,4.61,0,0,0-1.23-3.41,5.07,5.07,0,0,0-3.78-1.25h-5.11Z"/><path class="cls-4" d="M427.46,847.18H415.32v8.23h14.25v5.08H409V829.8h20.53v5.12H415.32v7.31h12.14Z"/><path class="cls-4" d="M449.62,852.43a3.24,3.24,0,0,0-1.26-2.75,16.62,16.62,0,0,0-4.56-2,32.51,32.51,0,0,1-5.2-2.1c-3.48-1.88-5.21-4.46-5.21-7.6a7.42,7.42,0,0,1,1.41-4.46,9.06,9.06,0,0,1,4-3,15.26,15.26,0,0,1,5.9-1.09,13.71,13.71,0,0,1,5.85,1.18,9.43,9.43,0,0,1,4,3.37,8.85,8.85,0,0,1,1.42,4.92h-6.32a4.14,4.14,0,0,0-1.33-3.27,5.5,5.5,0,0,0-3.72-1.17,5.81,5.81,0,0,0-3.6,1,3.09,3.09,0,0,0-1.29,2.58,3,3,0,0,0,1.49,2.51,17.23,17.23,0,0,0,4.46,1.9c3.6,1.07,6.22,2.42,7.86,4a8,8,0,0,1,2.47,6,7.42,7.42,0,0,1-3,6.25,13.31,13.31,0,0,1-8.11,2.23,15.69,15.69,0,0,1-6.45-1.29A10.18,10.18,0,0,1,434,856a9.07,9.07,0,0,1-1.53-5.2h6.35q0,5.09,6.06,5.08a5.86,5.86,0,0,0,3.53-.92A3,3,0,0,0,449.62,852.43Z"/><path class="cls-4" d="M479.14,847.18H467v8.23h14.24v5.08H460.68V829.8H481.2v5.12H467v7.31h12.14Z"/><path class="cls-4" d="M496.75,849.25H491.7v11.24h-6.32V829.8h11.41q5.43,0,8.39,2.42a8.41,8.41,0,0,1,3,6.85,9.46,9.46,0,0,1-1.36,5.21,9.29,9.29,0,0,1-4.12,3.34l6.63,12.57v.3h-6.79Zm-5.05-5.12h5.11a5.22,5.22,0,0,0,3.71-1.21,4.31,4.31,0,0,0,1.31-3.34,4.61,4.61,0,0,0-1.23-3.41,5,5,0,0,0-3.78-1.25h-5.09Z"/><path class="cls-4" d="M524.3,852.87l7-23h7l-10.68,30.69H521l-10.64-30.69h7Z"/><path class="cls-4" d="M557.36,854.16H546.27l-2.1,6.33h-6.7L548.9,829.8h5.86l11.49,30.69h-6.69ZM548,849h7.66l-3.85-11.48Z"/><path class="cls-4" d="M590.08,834.92h-9.41v25.57h-6.32V834.92h-9.29V829.8h25Z"/><path class="cls-4" d="M600.84,860.49h-6.33V829.8h6.33Z"/><path class="cls-4" d="M632.33,845.84a18.56,18.56,0,0,1-1.6,7.94,12.07,12.07,0,0,1-4.58,5.27,13.59,13.59,0,0,1-13.65,0,12.16,12.16,0,0,1-4.64-5.2A18.1,18.1,0,0,1,606.2,846v-1.49a18.44,18.44,0,0,1,1.63-8,12.08,12.08,0,0,1,4.62-5.28,13.53,13.53,0,0,1,13.64,0,12.17,12.17,0,0,1,4.61,5.28,18.36,18.36,0,0,1,1.63,8Zm-6.41-1.39q0-4.83-1.72-7.34a6.12,6.12,0,0,0-8.55-1.3,6.41,6.41,0,0,0-1.3,1.3q-1.73,2.48-1.74,7.26v1.48c0,3.14.57,5.56,1.72,7.29a6.06,6.06,0,0,0,8.43,1.51,6.22,6.22,0,0,0,1.44-1.41q1.71-2.5,1.72-7.28Z"/><path class="cls-4" d="M662.31,860.49H656l-12.31-20.2v20.2h-6.32V829.8h6.32L656,850V829.8h6.3Z"/><path class="cls-4" d="M699.78,854.16H688.7l-2.11,6.33H679.9l11.42-30.69h5.86l11.49,30.69H702ZM690.41,849h7.67l-3.86-11.48Z"/><path class="cls-4" d="M736.21,856.6a11,11,0,0,1-4.82,3.18,20.32,20.32,0,0,1-6.92,1.12,13.73,13.73,0,0,1-7-1.73,11.62,11.62,0,0,1-4.64-5,17.84,17.84,0,0,1-1.68-7.78v-2.09a18.91,18.91,0,0,1,1.56-8,11.45,11.45,0,0,1,4.46-5.15,12.93,12.93,0,0,1,6.84-1.77c3.63,0,6.48.86,8.53,2.6a11.08,11.08,0,0,1,3.65,7.58h-6.16a6.13,6.13,0,0,0-1.87-3.86,5.91,5.91,0,0,0-4-1.22,5.61,5.61,0,0,0-4.9,2.42q-1.69,2.42-1.71,7.21v2q0,4.83,1.83,7.29a6.25,6.25,0,0,0,5.37,2.46q3.57,0,5.09-1.48v-5.29h-5.72v-4.66h12Z"/><path class="cls-4" d="M760.23,847.18H748.09v8.23h14.24v5.08H741.77V829.8H762.3v5.12H748.09v7.31h12.14Z"/><path class="cls-4" d="M791.43,860.49h-6.29l-12.31-20.2v20.2h-6.36V829.8h6.33L785.14,850V829.8h6.29Z"/><path class="cls-4" d="M821.47,850.26a10.84,10.84,0,0,1-3.62,7.8,12.79,12.79,0,0,1-8.69,2.84,11.57,11.57,0,0,1-9.29-4q-3.39-4-3.38-10.91v-1.87a18.38,18.38,0,0,1,1.56-7.8,11.75,11.75,0,0,1,4.46-5.2,13.88,13.88,0,0,1,15.25,1,11.58,11.58,0,0,1,3.72,8h-6.33a6.38,6.38,0,0,0-1.65-4.31,6.12,6.12,0,0,0-4.33-1.34,5.38,5.38,0,0,0-4.73,2.23q-1.58,2.24-1.62,7v2.32c0,3.31.5,5.74,1.49,7.27a5.25,5.25,0,0,0,4.75,2.3,6.23,6.23,0,0,0,4.37-1.34,6,6,0,0,0,1.66-4.14Z"/><path class="cls-4" d="M836.64,843.62,843,829.8h6.91l-10.07,19.56v11.15h-6.4V849.36L823.39,829.8h6.93Z"/></svg>