<svg id="Layer_1" data-name="Layer 1" xmlns="http://www.w3.org/2000/svg" viewBox="0 0 1920 540"><defs><style>.cls-1{fill:#fff;}.cls-2{fill:#8e7f4f;}.cls-3{isolation:isolate;}</style></defs><path d="M278.53,178.09l.17.09.16-.09Z"/><polygon class="cls-1" points="278.7 178.39 277.74 177.91 279.65 177.91 278.7 178.39"/><path class="cls-2" d="M278.19,190.82a240.56,240.56,0,0,1,36.17,2.68,44,44,0,0,0-30.14-13.4,6,6,0,0,1-11.38,0,44,44,0,0,0-30.16,13.4,241.88,241.88,0,0,1,36.17-2.68"/><path class="cls-2" d="M270.31,169.23a5.53,5.53,0,0,1,2.63,2.29,5.44,5.44,0,0,1,.73,2.89,4.86,4.86,0,0,0,9.72.42v-.42a6.26,6.26,0,0,1,3.79-5.18Z"/><path class="cls-2" d="M282.85,159.61a6.73,6.73,0,0,1-3.13-4l-1.15-4h-.09l-1.23,4.21a6.92,6.92,0,0,1-2.94,4,8.45,8.45,0,0,0-4,7.17h16.87A8.44,8.44,0,0,0,282.85,159.61Z"/><path class="cls-2" d="M292.47,249.89c-7.16,14.48-20.44,14.48-27.61,0,3.75,1.23,8.1,3.68,14,3.56C284,253.34,289.07,251,292.47,249.89Z"/><path class="cls-2" d="M238.77,196.52a15.29,15.29,0,0,1-10.14-3.69,11,11,0,0,1-3.81-5.66,29.92,29.92,0,0,1-.7-3.36c-.1-.91-7.1,0-7.1,0s-.1.62-.25,2.07-.31,2.91-.37,4.37a62,62,0,0,0,0,8.62A30.7,30.7,0,0,0,218,207a19,19,0,0,0,4.16,6.06c4.45,4.36,9.09,4.23,13.17,5.94,2.84,1.2,6.14,3.59,9.13,8.68a1.49,1.49,0,0,1-2.26,1.87l-.05,0c-1.09-.94-5.43-4.3-6.56-5a26.94,26.94,0,0,0-7.52-3.28c-1.41-.42-2.9-.82-4.46-1.4a18.14,18.14,0,0,1-4.66-2.48,15.56,15.56,0,0,1-3.68-3.91,20.83,20.83,0,0,1-2.3-4.6,35.45,35.45,0,0,1-1.89-9.5,63.71,63.71,0,0,1,0-9.37c.06-1.56.25-3.08.38-4.61s.38-3.05.57-4.57l.29-2.3h17.25a21.36,21.36,0,0,0,9.23,18.11Z"/><path class="cls-2" d="M318.72,196.18a15.26,15.26,0,0,0,10.14-3.68,11.08,11.08,0,0,0,3.81-5.67,29.8,29.8,0,0,0,.7-3.38c.1-.92,7.11,0,7.11,0s.09.62.25,2.08.31,2.91.36,4.36a62.14,62.14,0,0,1,0,8.63,30.53,30.53,0,0,1-1.58,8.09,19,19,0,0,1-4.17,6.07c-4.45,4.36-9.09,4.22-13.17,5.94-2.84,1.19-6.14,3.59-9.12,8.67a1.49,1.49,0,0,0,2.26,1.88l.05,0c1.09-.93,5.44-4.3,6.57-5a26.85,26.85,0,0,1,7.51-3.27c1.4-.42,2.9-.83,4.46-1.41a17.85,17.85,0,0,0,4.65-2.45,15.73,15.73,0,0,0,3.67-3.92,20.34,20.34,0,0,0,2.3-4.59,35.93,35.93,0,0,0,1.9-9.51,66.6,66.6,0,0,0,0-9.37c-.06-1.55-.25-3.07-.38-4.61s-.39-3-.58-4.56l-.28-2.3H328a21.22,21.22,0,0,1-9.24,18.07Z"/><path class="cls-2" d="M287.58,262.49a12.39,12.39,0,1,1-17.51.65c.21-.22.42-.44.64-.65A18.7,18.7,0,0,0,287.58,262.49Z"/><path class="cls-2" d="M302.38,291a36,36,0,0,1-1.11-12.05h-7c-2.15,5.25-8.06,9.05-15,9.05s-12.88-3.78-15-9.05h-7a36.72,36.72,0,0,1-.83,10.71,43,43,0,0,1-5.89,13.72H308A42.38,42.38,0,0,1,302.38,291Z"/><path class="cls-2" d="M314.33,196.06a261.12,261.12,0,0,0-71.3,0v.12a63.29,63.29,0,0,1,3.68,7.37c5.91,14.07,3.82,23.36,6,31.48a12.49,12.49,0,0,0,2.56,4.14,30.59,30.59,0,0,0,46.75,0,12.32,12.32,0,0,0,2.56-4.14c2.23-8.12.13-17.41,6.05-31.48a64,64,0,0,1,3.67-7.37Zm-49.47,42.6a22.14,22.14,0,0,1-6-5,9.06,9.06,0,0,1-1.81-2.9,37.87,37.87,0,0,1-1-7,48,48,0,0,0-3.59-16.63,50.08,50.08,0,0,0-2.41-4.94c3.62-.49,7.3-.88,10.95-1.16C262,203.39,266.73,216.73,264.86,238.66Z"/><path d="M243.37,313.76V330A101.45,101.45,0,0,0,315,330V313.76a6.76,6.76,0,0,0-6.73-6.75H250.12A6.77,6.77,0,0,0,243.37,313.76Z"/><path d="M278.89,97.81A126.57,126.57,0,1,1,152.32,224.38,126.57,126.57,0,0,1,278.89,97.81m0-4.91a131.05,131.05,0,1,0,51.18,10.34A131.05,131.05,0,0,0,278.89,92.9Z"/><path d="M278.89,113.81A110.57,110.57,0,1,1,168.33,224.38,110.57,110.57,0,0,1,278.89,113.81m0-9.7a120,120,0,1,0,46.82,9.46A120,120,0,0,0,278.89,104.11Z"/><g class="cls-3"><g class="cls-3"><path d="M152.26,376.24a18.93,18.93,0,0,1,4.52,2.64,1.8,1.8,0,0,0,1.05.5c.73,0,1.21-1.1,1.43-3.31h1.27q-.22,3.75-.22,13.35H159a27.53,27.53,0,0,0-1.32-6.23,8.82,8.82,0,0,0-2.81-3.75,9.3,9.3,0,0,0-3.2-2,10.67,10.67,0,0,0-3.81-.69q-5.57,0-8.27,5.44a30.25,30.25,0,0,0-2.7,13.53q0,8.06,2.81,13.46t8.38,5.41a10.64,10.64,0,0,0,3.73-.69,8.18,8.18,0,0,0,3.11-2A8,8,0,0,0,157.8,408a31.36,31.36,0,0,0,1.24-6.78h1.27q0,10,.22,13.9h-1.27a9.42,9.42,0,0,0-.47-2.51c-.2-.5-.48-.75-.85-.75a2.38,2.38,0,0,0-1.16.45A23.54,23.54,0,0,1,152,415a14.58,14.58,0,0,1-5.46.91,21.17,21.17,0,0,1-10.23-2.37,16.46,16.46,0,0,1-6.81-6.87,22.22,22.22,0,0,1-2.43-10.72,22.71,22.71,0,0,1,2.48-10.76,18.06,18.06,0,0,1,6.92-7.28,19.69,19.69,0,0,1,10.12-2.59A14.94,14.94,0,0,1,152.26,376.24Z"/><path d="M203.22,377.61a2,2,0,0,0-1.13,1.27,10.91,10.91,0,0,0-.31,3v27.35a10.91,10.91,0,0,0,.31,3,1.91,1.91,0,0,0,1.13,1.26,9.59,9.59,0,0,0,2.7.45v1.1c-1.8-.11-4.6-.17-8.38-.17s-6.6.06-8.66.17V414a9.76,9.76,0,0,0,2.67-.45,1.9,1.9,0,0,0,1.16-1.26,10.91,10.91,0,0,0,.31-3V396H178.4v13.23a11,11,0,0,0,.3,3,1.93,1.93,0,0,0,1.13,1.26,9.74,9.74,0,0,0,2.71.45v1.1q-3-.17-8.33-.17c-3.94,0-6.84.06-8.72.17V414a9.78,9.78,0,0,0,2.68-.45,1.92,1.92,0,0,0,1.16-1.26,11,11,0,0,0,.3-3V381.92a11,11,0,0,0-.3-3,2,2,0,0,0-1.16-1.27,9.85,9.85,0,0,0-2.68-.44v-1.1c1.88.11,4.78.17,8.72.17q5.34,0,8.33-.17v1.1a9.82,9.82,0,0,0-2.71.44,2,2,0,0,0-1.13,1.27,11,11,0,0,0-.3,3v13H193v-13a10.91,10.91,0,0,0-.31-3,1.94,1.94,0,0,0-1.16-1.27,9.84,9.84,0,0,0-2.67-.44v-1.1c2.06.11,4.94.17,8.66.17s6.58-.06,8.38-.17v1.1A9.66,9.66,0,0,0,203.22,377.61Z"/></g><g class="cls-3"><path d="M243.1,413.13a3.13,3.13,0,0,0,1.82.89v1.1c-2.21-.11-5-.17-8.39-.17q-5.62,0-8.38.17V414a8.76,8.76,0,0,0,3-.53A1.47,1.47,0,0,0,232,412a7.7,7.7,0,0,0-.66-2.65l-3.31-9H216l-1.44,3.8a18.52,18.52,0,0,0-1.54,6.12,3.13,3.13,0,0,0,1.24,2.85A7.59,7.59,0,0,0,218,414v1.1q-3.75-.17-6.84-.17c-1.69,0-3.09.06-4.19.17V414q2.7-.51,4.74-5.8L224.24,376c.4,0,1,.06,1.93.06s1.5,0,1.87-.06l13.4,34.53A6.78,6.78,0,0,0,243.1,413.13Zm-15.45-13.9-5.46-14.89-5.73,14.89Z"/></g><g class="cls-3"><path d="M290,377.61a2,2,0,0,0-1.13,1.27,11,11,0,0,0-.3,3v27.35a11,11,0,0,0,.3,3,1.9,1.9,0,0,0,1.16,1.26,9.76,9.76,0,0,0,2.67.45v1.1q-3-.17-8.65-.17c-3.94,0-6.84.06-8.72.17V414a11.23,11.23,0,0,0,2.9-.45,2,2,0,0,0,1.24-1.26,10,10,0,0,0,.33-3V380.43l-13.29,34.74h-.88l-14.9-35.51v26.41a23.72,23.72,0,0,0,.34,4.77,3.25,3.25,0,0,0,1.43,2.21,9,9,0,0,0,3.58,1v1.1c-1.43-.11-3.42-.17-6-.17-2,0-3.62.06-4.8.17V414a5.93,5.93,0,0,0,2.67-.94,3.42,3.42,0,0,0,1.16-2.1,22.08,22.08,0,0,0,.31-4.24V381.92a10.91,10.91,0,0,0-.31-3,1.94,1.94,0,0,0-1.16-1.27,9.84,9.84,0,0,0-2.67-.44v-1.1c1.18.11,2.78.17,4.8.17,3.38,0,6.29-.06,8.71-.17L270,402.93l10.15-26.69h3.92q5.63,0,8.65-.17v1.1A9.66,9.66,0,0,0,290,377.61Z"/></g><g class="cls-3"><path d="M309.33,399.34v9.6a8.29,8.29,0,0,0,.47,3.23,2.44,2.44,0,0,0,1.66,1.35,16.92,16.92,0,0,0,3.77.39v1.21q-6.78-.17-10.09-.17c-1.84,0-4.15,0-6.95.11l-1.76.06V414a9.76,9.76,0,0,0,2.67-.45,1.9,1.9,0,0,0,1.16-1.26,11,11,0,0,0,.3-3V381.92a11,11,0,0,0-.3-3,1.94,1.94,0,0,0-1.16-1.27,9.84,9.84,0,0,0-2.67-.44v-1.1c1.87.11,4.67.17,8.38.17l6.12-.06c.74,0,1.58-.05,2.54-.05q7.44,0,11.36,2.95a9.39,9.39,0,0,1,3.92,7.91A11.36,11.36,0,0,1,322,397.47a21.5,21.5,0,0,1-9.73,1.87Zm1.24-21.78a2.13,2.13,0,0,0-1,1.38,11.59,11.59,0,0,0-.28,3v16.32h2.37c3,0,5-.95,6.18-2.87a15.12,15.12,0,0,0,1.71-7.77q0-5.36-1.57-7.89c-1-1.69-2.8-2.54-5.27-2.54A4.63,4.63,0,0,0,310.57,377.56Z"/></g><g class="cls-3"><path d="M348.55,377.17a9.66,9.66,0,0,0-2.7.44,2,2,0,0,0-1.14,1.27,11,11,0,0,0-.3,3v27.35a11,11,0,0,0,.3,3,1.92,1.92,0,0,0,1.14,1.26,9.59,9.59,0,0,0,2.7.45v1.1c-2-.11-4.76-.17-8.33-.17q-5.91,0-8.71.17V414a9.76,9.76,0,0,0,2.67-.45,1.9,1.9,0,0,0,1.16-1.26,11,11,0,0,0,.3-3V381.92a11,11,0,0,0-.3-3,1.94,1.94,0,0,0-1.16-1.27,9.84,9.84,0,0,0-2.67-.44v-1.1q2.81.17,8.71.17c3.57,0,6.34-.06,8.33-.17Z"/><path d="M381.56,377.67a16.58,16.58,0,0,1,6.81,6.87,22.33,22.33,0,0,1,2.42,10.72A22.59,22.59,0,0,1,388.31,406a18,18,0,0,1-6.92,7.28,19.67,19.67,0,0,1-10.12,2.59A21.17,21.17,0,0,1,361,413.52a16.58,16.58,0,0,1-6.81-6.87,22.22,22.22,0,0,1-2.43-10.72,22.71,22.71,0,0,1,2.48-10.76,18,18,0,0,1,6.93-7.28,19.64,19.64,0,0,1,10.12-2.59A21.23,21.23,0,0,1,381.56,377.67Zm-15.81,1.08a16.15,16.15,0,0,0-3.55,6.86A37.26,37.26,0,0,0,361,395.7a33.17,33.17,0,0,0,1.4,10.1,16.41,16.41,0,0,0,3.81,6.73,7.42,7.42,0,0,0,5.32,2.37,7.15,7.15,0,0,0,5.35-2.46,16.27,16.27,0,0,0,3.56-6.86,37.68,37.68,0,0,0,1.24-10.1,32.83,32.83,0,0,0-1.41-10.09,16.4,16.4,0,0,0-3.8-6.73,7.44,7.44,0,0,0-5.33-2.37A7.16,7.16,0,0,0,365.75,378.75Z"/></g><g class="cls-3"><path d="M431.44,377.17a5.93,5.93,0,0,0-2.67.94,3.42,3.42,0,0,0-1.16,2.1,22.25,22.25,0,0,0-.3,4.24v30.78l-1.33-.06-1.49.06L400.56,384.9v21.17a24.68,24.68,0,0,0,.33,4.77,3.28,3.28,0,0,0,1.43,2.21,9.06,9.06,0,0,0,3.59,1v1.1c-1.44-.11-3.42-.17-6-.17-2,0-3.62.06-4.8.17V414a5.93,5.93,0,0,0,2.68-.94A3.47,3.47,0,0,0,399,411a22.25,22.25,0,0,0,.3-4.24V381.92a11,11,0,0,0-.3-3,2,2,0,0,0-1.16-1.27,9.85,9.85,0,0,0-2.68-.44v-1.1c1.18.11,2.78.17,4.8.17,1.84,0,3.42-.06,4.74-.17L426,402.38V385.12a24.68,24.68,0,0,0-.33-4.77,3.26,3.26,0,0,0-1.44-2.21,9,9,0,0,0-3.58-1v-1.1q2.15.17,6,.17c2.05,0,3.65-.06,4.79-.17Z"/></g><g class="cls-3"><path d="M145.72,431.5c0,.88,0,1.6.08,2.15h-.65a11.27,11.27,0,0,0-1.85-4.89,3.93,3.93,0,0,0-3.21-1.42h-.65v16.14a4.48,4.48,0,0,0,.24,1.72,1.33,1.33,0,0,0,.85.73,8.16,8.16,0,0,0,1.94.21v.56c-2.38-.05-4.17-.08-5.37-.08s-2.91,0-5.17.08v-.56a8.06,8.06,0,0,0,1.93-.21,1.3,1.3,0,0,0,.85-.73,4.48,4.48,0,0,0,.24-1.72V427.34h-.62a4.25,4.25,0,0,0-2.31.6,4.64,4.64,0,0,0-1.62,2,15.64,15.64,0,0,0-1.16,3.75h-.65a20.67,20.67,0,0,0,.09-2.15c0-1.42-.07-3-.2-4.81q2.57.09,8.73.09t8.7-.09C145.78,428.48,145.72,430.08,145.72,431.5Z"/><path d="M166.77,445.46a4.76,4.76,0,0,1-1.64,1.26,5.36,5.36,0,0,1-2.12.38,4.29,4.29,0,0,1-2.58-.69,3.54,3.54,0,0,1-1.23-2.36l-.51-2.83a10.89,10.89,0,0,0-.89-3,1.82,1.82,0,0,0-1.74-1h-1.84v6.5a5.64,5.64,0,0,0,.16,1.55,1,1,0,0,0,.58.65,4.94,4.94,0,0,0,1.38.23v.56c-1-.05-2.44-.08-4.26-.08-2,0-3.51,0-4.47.08v-.56a5.08,5.08,0,0,0,1.37-.23,1,1,0,0,0,.59-.65,5.27,5.27,0,0,0,.16-1.55v-14a5.3,5.3,0,0,0-.16-1.56,1,1,0,0,0-.59-.65,5.16,5.16,0,0,0-1.37-.22v-.57c1,.06,2.39.09,4.3.09l3.13,0c.38,0,.81,0,1.3,0a11,11,0,0,1,5.87,1.27,4.1,4.1,0,0,1,2,3.65,4.93,4.93,0,0,1-1.47,3.53,7.83,7.83,0,0,1-4.86,1.92,7.78,7.78,0,0,1,3.79,1.11,4.09,4.09,0,0,1,1.61,2.62l.65,2.91a4.76,4.76,0,0,0,.52,1.59,1,1,0,0,0,.84.45,1.46,1.46,0,0,0,.58-.17,2.65,2.65,0,0,0,.55-.48Zm-11.91-18a1,1,0,0,0-.49.7,5.81,5.81,0,0,0-.15,1.53v6.95h1.22a3.64,3.64,0,0,0,3.18-1.23,6,6,0,0,0,.86-3.46,6.14,6.14,0,0,0-.82-3.5,3,3,0,0,0-2.68-1.19A2.31,2.31,0,0,0,154.86,427.46Z"/></g><g class="cls-3"><path d="M182.67,427.51a8.58,8.58,0,0,1,3.49,3.52,11.54,11.54,0,0,1,1.24,5.5,11.69,11.69,0,0,1-1.27,5.51,9.25,9.25,0,0,1-3.55,3.73,10.08,10.08,0,0,1-5.19,1.33,10.87,10.87,0,0,1-5.24-1.22,8.46,8.46,0,0,1-3.49-3.52,11.36,11.36,0,0,1-1.24-5.49,11.55,11.55,0,0,1,1.27-5.51,9.12,9.12,0,0,1,3.55-3.73,10,10,0,0,1,5.18-1.33A10.88,10.88,0,0,1,182.67,427.51Zm-8.1.55a8.35,8.35,0,0,0-1.82,3.52,18.9,18.9,0,0,0-.64,5.17,16.93,16.93,0,0,0,.72,5.18,8.39,8.39,0,0,0,1.95,3.44,3.81,3.81,0,0,0,2.73,1.22,3.67,3.67,0,0,0,2.74-1.26,8.29,8.29,0,0,0,1.82-3.52,18.85,18.85,0,0,0,.64-5.17,16.86,16.86,0,0,0-.72-5.17,8.37,8.37,0,0,0-2-3.45,3.8,3.8,0,0,0-2.73-1.21A3.68,3.68,0,0,0,174.57,428.06Z"/></g><g class="cls-3"><path d="M196,438.62v4.92a4.21,4.21,0,0,0,.24,1.65,1.25,1.25,0,0,0,.85.69,8.28,8.28,0,0,0,1.94.2v.62c-2.32-.05-4-.08-5.17-.08-.95,0-2.13,0-3.56.05l-.91,0v-.56a5.08,5.08,0,0,0,1.37-.23,1,1,0,0,0,.6-.65,5.73,5.73,0,0,0,.15-1.55v-14a5.76,5.76,0,0,0-.15-1.56,1,1,0,0,0-.6-.65,5.16,5.16,0,0,0-1.37-.22v-.57c1,.06,2.39.09,4.3.09l3.13,0c.38,0,.81,0,1.3,0a9.63,9.63,0,0,1,5.83,1.51,4.84,4.84,0,0,1,2,4.06,6,6,0,0,1-.79,3,6.12,6.12,0,0,1-2.67,2.39,11,11,0,0,1-5,1Zm.64-11.16a1,1,0,0,0-.49.7,5.81,5.81,0,0,0-.15,1.53v8.36h1.22a3.36,3.36,0,0,0,3.16-1.47,7.65,7.65,0,0,0,.88-4,8,8,0,0,0-.8-4,2.93,2.93,0,0,0-2.7-1.3A2.31,2.31,0,0,0,196.6,427.46Z"/></g><g class="cls-3"><path d="M226.65,427.48a1,1,0,0,0-.58.65,5.76,5.76,0,0,0-.15,1.56v14a5.73,5.73,0,0,0,.15,1.55,1,1,0,0,0,.58.65,5,5,0,0,0,1.39.23v.56c-.93-.05-2.36-.08-4.3-.08s-3.38,0-4.44.08v-.56a5.08,5.08,0,0,0,1.37-.23,1,1,0,0,0,.6-.65,5.73,5.73,0,0,0,.15-1.55v-6.79h-7.49v6.79a5.64,5.64,0,0,0,.16,1.55,1,1,0,0,0,.58.65,4.94,4.94,0,0,0,1.38.23v.56c-1-.05-2.44-.08-4.26-.08-2,0-3.51,0-4.47.08v-.56a5.08,5.08,0,0,0,1.37-.23,1,1,0,0,0,.59-.65,5.27,5.27,0,0,0,.16-1.55v-14a5.3,5.3,0,0,0-.16-1.56,1,1,0,0,0-.59-.65,5.16,5.16,0,0,0-1.37-.22v-.57q1.44.09,4.47.09c1.82,0,3.25,0,4.26-.09v.57a5,5,0,0,0-1.38.22,1,1,0,0,0-.58.65,5.67,5.67,0,0,0-.16,1.56v6.67h7.49v-6.67a5.76,5.76,0,0,0-.15-1.56,1,1,0,0,0-.6-.65,5.16,5.16,0,0,0-1.37-.22v-.57q1.59.09,4.44.09c1.94,0,3.37,0,4.3-.09v.57A5.11,5.11,0,0,0,226.65,427.48Z"/><path d="M238.66,427.26a5,5,0,0,0-1.38.22,1,1,0,0,0-.58.65,5.3,5.3,0,0,0-.16,1.56v14a5.27,5.27,0,0,0,.16,1.55,1,1,0,0,0,.58.65,4.94,4.94,0,0,0,1.38.23v.56c-1-.05-2.44-.08-4.27-.08-2,0-3.5,0-4.46.08v-.56a5.08,5.08,0,0,0,1.37-.23,1,1,0,0,0,.59-.65,5.27,5.27,0,0,0,.16-1.55v-14a5.3,5.3,0,0,0-.16-1.56,1,1,0,0,0-.59-.65,5.16,5.16,0,0,0-1.37-.22v-.57c1,.06,2.45.09,4.46.09,1.83,0,3.25,0,4.27-.09Z"/><path d="M256.24,446.7q-1.92-.07-6.47-.08-6.17,0-9.21.08v-.56a5.15,5.15,0,0,0,1.37-.23,1,1,0,0,0,.59-.65,5.64,5.64,0,0,0,.16-1.55v-14a5.67,5.67,0,0,0-.16-1.56,1,1,0,0,0-.59-.65,5.23,5.23,0,0,0-1.37-.22v-.57q3,.09,9.21.09,4.15,0,5.91-.09c-.14,1.57-.2,3-.2,4.19a18.32,18.32,0,0,0,.08,1.92h-.65a8.07,8.07,0,0,0-1.52-4.24,4,4,0,0,0-3.11-1.22h-1.16a4.21,4.21,0,0,0-1.27.14.84.84,0,0,0-.54.56,4.52,4.52,0,0,0-.14,1.31v7h.9a2.63,2.63,0,0,0,2.28-1.1,6.93,6.93,0,0,0,1.09-2.63h.65c-.06.79-.09,1.68-.09,2.65v1.36c0,1,.06,2.3.17,4h-.65c-.39-2.48-1.54-3.73-3.45-3.73h-.9v7.13a4.52,4.52,0,0,0,.14,1.31.83.83,0,0,0,.54.55,3.9,3.9,0,0,0,1.27.14h1.38a4.12,4.12,0,0,0,3.24-1.37,9.1,9.1,0,0,0,1.74-4.65h.65c-.06.62-.09,1.42-.09,2.38A38.57,38.57,0,0,0,256.24,446.7Z"/><path d="M267.88,426.61a8.54,8.54,0,0,1,1.78.82l.56.28a.9.9,0,0,0,.41.11.43.43,0,0,0,.39-.29,3.35,3.35,0,0,0,.23-.95h.65c-.1,1.26-.14,3.41-.14,6.44h-.65a9.39,9.39,0,0,0-.7-2.91,5.52,5.52,0,0,0-1.64-2.24,3.76,3.76,0,0,0-2.47-.87,3.24,3.24,0,0,0-2.25.78,2.71,2.71,0,0,0-.86,2.11,3.3,3.3,0,0,0,.43,1.72A4.62,4.62,0,0,0,264.8,433c.51.41,1.29,1,2.35,1.66l.9.62a25.37,25.37,0,0,1,2.63,1.92,6.86,6.86,0,0,1,1.57,1.91,5,5,0,0,1,.61,2.53,4.91,4.91,0,0,1-.93,3,5.86,5.86,0,0,1-2.53,1.85,9.83,9.83,0,0,1-3.55.62,10.68,10.68,0,0,1-2.63-.28,8.65,8.65,0,0,1-1.92-.77,2.1,2.1,0,0,0-1-.39.45.45,0,0,0-.4.29,3.41,3.41,0,0,0-.22.95h-.65q.1-1.78.11-7.63h.65a11,11,0,0,0,1.41,5.13,4.08,4.08,0,0,0,3.73,2,3.8,3.8,0,0,0,2.52-.82,2.85,2.85,0,0,0,1-2.34,3.93,3.93,0,0,0-1-2.72,16.25,16.25,0,0,0-3.22-2.54,30.54,30.54,0,0,1-2.71-1.92,6.89,6.89,0,0,1-1.67-1.94,5,5,0,0,1-.65-2.58,4.68,4.68,0,0,1,.86-2.87,5.1,5.1,0,0,1,2.3-1.74,8.55,8.55,0,0,1,3.17-.56A7.77,7.77,0,0,1,267.88,426.61Z"/><path d="M304.07,433.55a10.11,10.11,0,0,1-4.28,1.76l-.51.17a4,4,0,0,1,2,1.81,6,6,0,0,1,.68,2.88,5.65,5.65,0,0,1-1.21,3.55,8,8,0,0,1-3.44,2.47,13.3,13.3,0,0,1-5.1.91,16,16,0,0,1-5.47-.85,8.05,8.05,0,0,1-3.64-2.44,5.81,5.81,0,0,1-1.29-3.75,5.14,5.14,0,0,1,1-3.24,7.16,7.16,0,0,1,2.3-2,11,11,0,0,1,2.42-1c-2.13-.85-3.2-2-3.2-3.56a3,3,0,0,1,1.67-2.7,7.7,7.7,0,0,1,4-1,8.27,8.27,0,0,1,1.72.14,4,4,0,0,1,1.22.45,3.85,3.85,0,0,1,1.24.93,2,2,0,0,1,.48,1.36,1.64,1.64,0,0,1-.64,1.34,2.32,2.32,0,0,1-1.54.52,2.35,2.35,0,0,1-1.48-.45,1.53,1.53,0,0,1-.58-1.3,1.88,1.88,0,0,1,.51-1.28,2.14,2.14,0,0,1,1.3-.72,1.86,1.86,0,0,0-.76-.37,3.9,3.9,0,0,0-1.1-.14,3.51,3.51,0,0,0-2.55,1,3.64,3.64,0,0,0-1,2.74,4.23,4.23,0,0,0,1.1,2.88,8.21,8.21,0,0,1,1.59-.22,1.2,1.2,0,0,1,.77.21.66.66,0,0,1,.27.55.51.51,0,0,1-.22.44,1,1,0,0,1-.57.15,1.74,1.74,0,0,1-.82-.2l-1-.53a6.08,6.08,0,0,0-2.22,1.82,4.69,4.69,0,0,0-.77,2.76,4.54,4.54,0,0,0,2.19,4.11,11.43,11.43,0,0,0,6.06,1.37,11.94,11.94,0,0,0,3.74-.58,7.17,7.17,0,0,0,2.92-1.7,3.92,3.92,0,0,0-1-6.23l-1.8.51-1.59.45a14.86,14.86,0,0,0-3.47,1.13,1.81,1.81,0,0,0-1.11,1.61,1.94,1.94,0,0,0,.95,1.66,3.71,3.71,0,0,0,2.11.63,3.29,3.29,0,0,0,.66-.08,1,1,0,0,0,.47-.2,2.12,2.12,0,0,1-1.05-.71,1.86,1.86,0,0,1-.37-1.15,1.66,1.66,0,0,1,.64-1.38,2.6,2.6,0,0,1,1.62-.49,2.3,2.3,0,0,1,1.6.52,1.79,1.79,0,0,1,.58,1.4,2.09,2.09,0,0,1-1.13,1.92,5.63,5.63,0,0,1-2.88.65,4.76,4.76,0,0,1-3-.93,3.2,3.2,0,0,1-1.2-2.68,4,4,0,0,1,1.61-3.37,11,11,0,0,1,4.72-1.83l1.21-.31c1.23-.29,2.23-.56,3-.82a11.9,11.9,0,0,0,3.22-1.18,1.86,1.86,0,0,0,1.05-1.62,2.22,2.22,0,0,0-1-1.84,3.59,3.59,0,0,0-2.22-.73,1.8,1.8,0,0,0-.82.14,2.26,2.26,0,0,1,1,.75,1.73,1.73,0,0,1,.37,1,1.57,1.57,0,0,1-.64,1.33,2.6,2.6,0,0,1-1.62.48,2.45,2.45,0,0,1-1.6-.5,1.65,1.65,0,0,1-.61-1.37,2,2,0,0,1,1-1.74,4.63,4.63,0,0,1,2.57-.63,4.82,4.82,0,0,1,3.27,1.06,3.64,3.64,0,0,1,1.23,2.92A4,4,0,0,1,304.07,433.55Z"/></g><g class="cls-3"><path d="M329.57,445.68a1.57,1.57,0,0,0,.94.46v.56c-1.13-.05-2.57-.08-4.3-.08-1.92,0-3.35,0-4.3.08v-.56a4.56,4.56,0,0,0,1.53-.27.76.76,0,0,0,.45-.75,3.86,3.86,0,0,0-.34-1.36l-1.69-4.63H315.7l-.74,1.95a9.38,9.38,0,0,0-.79,3.14,1.58,1.58,0,0,0,.64,1.45,3.88,3.88,0,0,0,1.88.47v.56c-1.29-.05-2.45-.08-3.51-.08-.87,0-1.58,0-2.15.08v-.56q1.39-.25,2.43-3l6.45-16.53c.21,0,.54,0,1,0s.77,0,1,0l6.87,17.69A3.41,3.41,0,0,0,329.57,445.68Zm-7.91-7.12-2.8-7.63-2.94,7.63Z"/></g><g class="cls-3"><path d="M355.91,426.69v.57a3.52,3.52,0,0,0-1.37,1.09,6.75,6.75,0,0,0-1.12,2.27l-5,16.14q-.31,0-1,0t-1,0l-4.15-12.61-4.18,12.61q-.31,0-1,0t-1,0l-6.33-17.69a3.33,3.33,0,0,0-.82-1.36,1.63,1.63,0,0,0-1-.45v-.57c1.13.06,2.53.09,4.21.09s2.74,0,3.47-.09v.57a1,1,0,0,0-1,1.1,4.64,4.64,0,0,0,.26,1.27l4.12,12,2.86-8.43-1.44-4.38a2.61,2.61,0,0,0-.67-1.14,1.59,1.59,0,0,0-.89-.38v-.57c1.06.06,2.41.09,4,.09,1.85,0,3.21,0,4.07-.09v.57a4.11,4.11,0,0,0-1.47.24.8.8,0,0,0-.45.8,4.51,4.51,0,0,0,.28,1.33l3.88,11.82,2.68-8.54a12.2,12.2,0,0,0,.65-3.28,2.24,2.24,0,0,0-.61-1.76,2.82,2.82,0,0,0-1.82-.61v-.57q1.92.09,3.51.09A21.23,21.23,0,0,0,355.91,426.69Z"/></g><g class="cls-3"><path d="M371.85,445.68a1.57,1.57,0,0,0,.94.46v.56c-1.13-.05-2.57-.08-4.3-.08-1.92,0-3.35,0-4.3.08v-.56a4.56,4.56,0,0,0,1.53-.27.76.76,0,0,0,.45-.75,3.86,3.86,0,0,0-.34-1.36l-1.69-4.63H358l-.74,1.95a9.38,9.38,0,0,0-.79,3.14,1.58,1.58,0,0,0,.64,1.45,3.88,3.88,0,0,0,1.88.47v.56c-1.29-.05-2.45-.08-3.51-.08-.87,0-1.58,0-2.15.08v-.56q1.4-.25,2.43-3l6.45-16.53c.2,0,.53,0,1,0s.77,0,1,0L371,444.33A3.41,3.41,0,0,0,371.85,445.68Zm-7.91-7.12-2.8-7.63-2.94,7.63Z"/></g><g class="cls-3"><path d="M392.14,445.46a4.76,4.76,0,0,1-1.64,1.26,5.36,5.36,0,0,1-2.12.38,4.29,4.29,0,0,1-2.58-.69,3.46,3.46,0,0,1-1.23-2.36l-.51-2.83a10.89,10.89,0,0,0-.89-3,1.82,1.82,0,0,0-1.74-1h-1.84v6.5a5.27,5.27,0,0,0,.16,1.55,1,1,0,0,0,.58.65,4.94,4.94,0,0,0,1.38.23v.56c-1-.05-2.44-.08-4.26-.08-2,0-3.51,0-4.47.08v-.56a5.08,5.08,0,0,0,1.37-.23,1,1,0,0,0,.59-.65,5.27,5.27,0,0,0,.16-1.55v-14a5.3,5.3,0,0,0-.16-1.56,1,1,0,0,0-.59-.65,5.16,5.16,0,0,0-1.37-.22v-.57c1,.06,2.39.09,4.3.09l3.13,0c.38,0,.81,0,1.3,0a11,11,0,0,1,5.87,1.27,4.1,4.1,0,0,1,2,3.65,4.93,4.93,0,0,1-1.47,3.53,7.83,7.83,0,0,1-4.86,1.92A7.78,7.78,0,0,1,387,438.2a4.09,4.09,0,0,1,1.61,2.62l.65,2.91a4.76,4.76,0,0,0,.52,1.59,1,1,0,0,0,.84.45,1.41,1.41,0,0,0,.57-.17,2.43,2.43,0,0,0,.56-.48Zm-11.91-18a1.08,1.08,0,0,0-.5.7,6.38,6.38,0,0,0-.14,1.53v6.95h1.22a3.64,3.64,0,0,0,3.18-1.23,6,6,0,0,0,.86-3.46,6.14,6.14,0,0,0-.82-3.5,3,3,0,0,0-2.69-1.19A2.26,2.26,0,0,0,380.23,427.46Z"/><path d="M409.52,429.19q2.75,2.51,2.74,7.28a10.47,10.47,0,0,1-1.34,5.39,9.12,9.12,0,0,1-3.87,3.57,13.29,13.29,0,0,1-6,1.27l-1.75,0c-1.09,0-1.88-.05-2.37-.05-1.94,0-3.39,0-4.35.08v-.56a5.15,5.15,0,0,0,1.37-.23,1,1,0,0,0,.59-.65,5.64,5.64,0,0,0,.16-1.55v-14a5.67,5.67,0,0,0-.16-1.56,1,1,0,0,0-.59-.65,5.23,5.23,0,0,0-1.37-.22v-.57q1.18.09,3.42.09h.87l1.13,0c1.55,0,2.65-.06,3.31-.06C404.94,426.69,407.69,427.53,409.52,429.19Zm-9.59-1.79a1.09,1.09,0,0,0-.61.71,5.19,5.19,0,0,0-.17,1.52v14.13a5.27,5.27,0,0,0,.17,1.53,1.12,1.12,0,0,0,.61.71,3.49,3.49,0,0,0,1.34.19q3.42,0,4.86-2.38c1-1.6,1.44-4,1.44-7.23s-.49-5.59-1.48-7.1a5.36,5.36,0,0,0-4.85-2.28A3.35,3.35,0,0,0,399.93,427.4Z"/><path d="M423.88,426.61a8.78,8.78,0,0,1,1.78.82c.21.11.39.21.55.28a.93.93,0,0,0,.41.11.45.45,0,0,0,.4-.29,3.81,3.81,0,0,0,.22-.95h.65q-.13,1.89-.14,6.44h-.65a9.66,9.66,0,0,0-.69-2.91,5.7,5.7,0,0,0-1.64-2.24,3.78,3.78,0,0,0-2.47-.87,3.21,3.21,0,0,0-2.25.78,2.68,2.68,0,0,0-.86,2.11,3.4,3.4,0,0,0,.42,1.72A4.66,4.66,0,0,0,420.8,433c.51.41,1.29,1,2.34,1.66l.91.62a26.52,26.52,0,0,1,2.63,1.92,6.82,6.82,0,0,1,1.56,1.91,5,5,0,0,1,.61,2.53,4.91,4.91,0,0,1-.93,3,5.8,5.8,0,0,1-2.53,1.85,9.8,9.8,0,0,1-3.55.62,10.74,10.74,0,0,1-2.63-.28,9.06,9.06,0,0,1-1.92-.77,2,2,0,0,0-1-.39.43.43,0,0,0-.39.29,3.35,3.35,0,0,0-.23.95h-.65c.08-1.19.11-3.73.11-7.63h.65a11.08,11.08,0,0,0,1.42,5.13,4.07,4.07,0,0,0,3.73,2,3.79,3.79,0,0,0,2.51-.82,2.85,2.85,0,0,0,1-2.34,3.93,3.93,0,0,0-1-2.72,16,16,0,0,0-3.22-2.54,32.11,32.11,0,0,1-2.71-1.92,6.89,6.89,0,0,1-1.67-1.94,5,5,0,0,1-.65-2.58,4.74,4.74,0,0,1,.86-2.87,5.19,5.19,0,0,1,2.31-1.74,8.5,8.5,0,0,1,3.16-.56A7.89,7.89,0,0,1,423.88,426.61Z"/></g></g><path d="M921.4,225.59l.16.08.17-.08Z"/><polygon class="cls-1" points="921.56 225.88 920.64 225.41 922.49 225.41 921.56 225.88"/><path class="cls-2" d="M921.08,237.92a233.24,233.24,0,0,1,35,2.59,42.55,42.55,0,0,0-29.18-13,5.85,5.85,0,0,1-11,0,42.58,42.58,0,0,0-29.2,13,233.24,233.24,0,0,1,35-2.59"/><path class="cls-2" d="M913.45,217a5.36,5.36,0,0,1,2.54,2.21,5.3,5.3,0,0,1,.71,2.81,4.7,4.7,0,0,0,9.4.4,2.67,2.67,0,0,0,0-.4,6,6,0,0,1,3.68-5Z"/><path class="cls-2" d="M925.58,207.69a6.54,6.54,0,0,1-3-3.91L921.44,200h-.09L920.17,204a6.69,6.69,0,0,1-2.85,3.84,8.17,8.17,0,0,0-3.87,7h16.33A8.18,8.18,0,0,0,925.58,207.69Z"/><path class="cls-2" d="M934.9,295.12c-6.93,14-19.79,14-26.74,0,3.63,1.18,7.85,3.56,13.59,3.44C926.73,298.46,931.61,296.19,934.9,295.12Z"/><path class="cls-2" d="M882.9,243.43a14.77,14.77,0,0,1-9.82-3.57,10.69,10.69,0,0,1-3.69-5.48,27.71,27.71,0,0,1-.67-3.26c-.1-.87-6.88,0-6.88,0s-.1.6-.25,2-.3,2.82-.35,4.23a58.18,58.18,0,0,0,0,8.35,29.15,29.15,0,0,0,1.54,7.84,18.1,18.1,0,0,0,4,5.87c4.31,4.22,8.8,4.09,12.75,5.75,2.75,1.16,6,3.48,8.84,8.41a1.44,1.44,0,0,1-2.19,1.81l-.05,0c-1-.91-5.26-4.17-6.35-4.86a26,26,0,0,0-7.28-3.18c-1.36-.4-2.81-.79-4.32-1.36a17.48,17.48,0,0,1-4.52-2.39,15.28,15.28,0,0,1-3.56-3.79,20.11,20.11,0,0,1-2.22-4.45,34.47,34.47,0,0,1-1.84-9.21,65.37,65.37,0,0,1,0-9.07c.06-1.5.25-3,.37-4.46s.37-3,.56-4.43l.27-2.22H874a20.67,20.67,0,0,0,8.94,17.53Z"/><path class="cls-2" d="M960.32,243.11a14.85,14.85,0,0,0,9.82-3.57,10.73,10.73,0,0,0,3.69-5.49,27.9,27.9,0,0,0,.68-3.27c.09-.9,6.88,0,6.88,0s.09.6.24,2,.3,2.82.35,4.23a58.18,58.18,0,0,1,0,8.35,29.13,29.13,0,0,1-1.53,7.84,18.41,18.41,0,0,1-4,5.87c-4.31,4.22-8.8,4.09-12.76,5.75-2.75,1.16-5.94,3.48-8.83,8.4a1.45,1.45,0,0,0,.55,2,1.43,1.43,0,0,0,1.64-.15l.05,0c1-.91,5.26-4.17,6.36-4.87a26.09,26.09,0,0,1,7.28-3.17c1.35-.41,2.8-.8,4.31-1.36a17.33,17.33,0,0,0,4.5-2.38,15.23,15.23,0,0,0,3.56-3.78,20.22,20.22,0,0,0,2.23-4.46,34.79,34.79,0,0,0,1.84-9.2,65.51,65.51,0,0,0,0-9.08c-.06-1.5-.25-3-.37-4.46s-.38-2.95-.56-4.42l-.28-2.23H969.27a20.6,20.6,0,0,1-8.95,17.51Z"/><path class="cls-2" d="M930.16,307.32a12,12,0,1,1-16.95.62c.2-.21.41-.42.62-.62A18.13,18.13,0,0,0,930.16,307.32Z"/><path class="cls-2" d="M944.5,334.88a34.53,34.53,0,0,1-1.07-11.67h-6.81c-2.09,5.09-7.81,8.76-14.56,8.76s-12.48-3.66-14.56-8.76h-6.79a35.1,35.1,0,0,1-.8,10.37,41.37,41.37,0,0,1-5.7,13.29h55.73A41.12,41.12,0,0,1,944.5,334.88Z"/><path class="cls-2" d="M956.07,243a253.38,253.38,0,0,0-69,0v.12a59.17,59.17,0,0,1,3.55,7.13c5.73,13.63,3.7,22.62,5.86,30.48a11.75,11.75,0,0,0,2.48,4,29.6,29.6,0,0,0,45.26,0,11.81,11.81,0,0,0,2.49-4c2.16-7.86.12-16.85,5.85-30.48a61.54,61.54,0,0,1,3.56-7.13Zm-47.91,41.26a21.44,21.44,0,0,1-5.77-4.83,8.39,8.39,0,0,1-1.76-2.8,35.8,35.8,0,0,1-.92-6.83,46.6,46.6,0,0,0-3.49-16.1,46,46,0,0,0-2.33-4.79c3.51-.47,7.07-.85,10.61-1.12C905.41,250.08,910,263,908.16,284.25Z"/><path d="M887.36,357V372.7a98.27,98.27,0,0,0,69.4,0V357a6.55,6.55,0,0,0-6.52-6.54H893.89A6.54,6.54,0,0,0,887.36,357Z"/><path d="M921.75,147.84A122.57,122.57,0,1,1,799.18,270.41,122.57,122.57,0,0,1,921.75,147.84m0-4.75a126.91,126.91,0,1,0,49.56,10A126.91,126.91,0,0,0,921.75,143.09Z"/><path d="M921.75,163.34A107.07,107.07,0,1,1,814.68,270.41,107.07,107.07,0,0,1,921.75,163.34m0-9.39a116.16,116.16,0,1,0,45.34,9.16A116.15,116.15,0,0,0,921.75,154Z"/><g class="cls-3"><g class="cls-3"><path d="M1146.16,204.3a39.54,39.54,0,0,1,9.36,5.48,3.69,3.69,0,0,0,2.17,1q2.28,0,3-6.84h2.63q-.46,7.75-.46,27.61h-2.62a57.16,57.16,0,0,0-2.74-12.89,18.38,18.38,0,0,0-5.82-7.76,19.43,19.43,0,0,0-6.62-4.17,22,22,0,0,0-7.87-1.42q-11.52,0-17.11,11.24t-5.59,28q0,16.67,5.81,27.84t17.35,11.18a21.92,21.92,0,0,0,7.7-1.42,17,17,0,0,0,6.44-4.17,16.71,16.71,0,0,0,5.88-8,65.63,65.63,0,0,0,2.57-14h2.62q0,20.66.46,28.75h-2.63a20.26,20.26,0,0,0-1-5.19c-.42-1-1-1.54-1.77-1.54a5,5,0,0,0-2.39.92,48.77,48.77,0,0,1-9.81,5.53,30.4,30.4,0,0,1-11.3,1.88,43.79,43.79,0,0,1-21.16-4.9,34.22,34.22,0,0,1-14.09-14.21q-5-9.3-5-22.19a46.9,46.9,0,0,1,5.13-22.25,37.26,37.26,0,0,1,14.32-15.06,40.79,40.79,0,0,1,20.94-5.36A31.06,31.06,0,0,1,1146.16,204.3Z"/><path d="M1251.58,207.15a4,4,0,0,0-2.34,2.63,22.24,22.24,0,0,0-.63,6.27v56.59a22.37,22.37,0,0,0,.63,6.28,4,4,0,0,0,2.34,2.62,19.28,19.28,0,0,0,5.59.91v2.28q-5.6-.33-17.34-.34-11.52,0-17.91.34v-2.28a19.59,19.59,0,0,0,5.53-.91,4,4,0,0,0,2.4-2.62,22.85,22.85,0,0,0,.62-6.28V245.26h-30.23v27.38a22.37,22.37,0,0,0,.63,6.28,3.93,3.93,0,0,0,2.34,2.62,19.28,19.28,0,0,0,5.59.91v2.28q-6.16-.33-17.23-.34-12.21,0-18,.34v-2.28a19.68,19.68,0,0,0,5.54-.91,4,4,0,0,0,2.39-2.62,22.37,22.37,0,0,0,.63-6.28V216.05a22.24,22.24,0,0,0-.63-6.27,4,4,0,0,0-2.39-2.63,20.05,20.05,0,0,0-5.54-.91V204q5.82.34,18,.34,11.07,0,17.23-.34v2.28a19.64,19.64,0,0,0-5.59.91,3.94,3.94,0,0,0-2.34,2.63,22.24,22.24,0,0,0-.63,6.27V243h30.23V216.05a22.72,22.72,0,0,0-.62-6.27,4,4,0,0,0-2.4-2.63,20,20,0,0,0-5.53-.91V204q6.38.34,17.91.34,11.75,0,17.34-.34v2.28A19.64,19.64,0,0,0,1251.58,207.15Z"/></g><g class="cls-3"><path d="M1334.07,280.63a6.41,6.41,0,0,0,3.77,1.82v2.28q-6.85-.33-17.34-.34-11.64,0-17.34.34v-2.28a18.1,18.1,0,0,0,6.16-1.08,3.07,3.07,0,0,0,1.82-3,15.85,15.85,0,0,0-1.37-5.48l-6.84-18.71h-24.87l-3,7.87q-3.19,8.22-3.19,12.66,0,4.23,2.56,5.88t7.59,1.88v2.28q-7.75-.33-14.15-.34c-3.5,0-6.39.12-8.67.34v-2.28q5.6-1,9.81-12l26-66.74q1.25.12,4,.12c1.82,0,3.12,0,3.88-.12l27.72,71.42A14.19,14.19,0,0,0,1334.07,280.63Zm-31.94-28.75-11.3-30.81L1279,251.88Z"/></g><g class="cls-3"><path d="M1431.17,207.15a3.94,3.94,0,0,0-2.34,2.63,22.24,22.24,0,0,0-.63,6.27v56.59a22.37,22.37,0,0,0,.63,6.28,3.93,3.93,0,0,0,2.39,2.62,19.68,19.68,0,0,0,5.54.91v2.28q-6.29-.33-17.92-.34-12.21,0-18,.34v-2.28a22.53,22.53,0,0,0,6-.91,4.1,4.1,0,0,0,2.56-2.62,20.52,20.52,0,0,0,.69-6.28V213l-27.5,71.88h-1.82l-30.81-73.47V266a50.56,50.56,0,0,0,.69,9.87,6.77,6.77,0,0,0,3,4.57q2.28,1.43,7.41,2v2.28q-4.45-.33-12.32-.34c-4.18,0-7.49.12-9.93.34v-2.28a12.06,12.06,0,0,0,5.54-1.94,7.07,7.07,0,0,0,2.39-4.33,45.6,45.6,0,0,0,.63-8.79V216.05a22.24,22.24,0,0,0-.63-6.27,4,4,0,0,0-2.39-2.63,20.05,20.05,0,0,0-5.54-.91V204q3.66.34,9.93.34,10.5,0,18-.34l23,55.56,21-55.22h8.1q11.64,0,17.92-.34v2.28A19.64,19.64,0,0,0,1431.17,207.15Z"/></g><g class="cls-3"><path d="M1471.09,252.1V272a16.93,16.93,0,0,0,1,6.67,5.05,5.05,0,0,0,3.42,2.8,34.88,34.88,0,0,0,7.82.79v2.51q-14-.33-20.88-.34c-3.8,0-8.6.08-14.37.23l-3.66.11v-2.28a19.68,19.68,0,0,0,5.54-.91,4,4,0,0,0,2.39-2.62,22.37,22.37,0,0,0,.63-6.28V216.05a22.24,22.24,0,0,0-.63-6.27,4,4,0,0,0-2.39-2.63,20.05,20.05,0,0,0-5.54-.91V204q5.82.34,17.35.34l12.66-.11q2.28-.12,5.25-.12,15.4,0,23.5,6.11a19.45,19.45,0,0,1,8.1,16.37,24.6,24.6,0,0,1-3.19,12q-3.19,5.76-10.79,9.64t-20.13,3.87Zm2.57-45.06a4.41,4.41,0,0,0-2,2.85,24.72,24.72,0,0,0-.57,6.16v33.77H1476q9.24,0,12.78-5.93t3.53-16.09q0-11.06-3.25-16.31t-10.9-5.25A9.63,9.63,0,0,0,1473.66,207Z"/></g><g class="cls-3"><path d="M1552.21,206.24a19.71,19.71,0,0,0-5.59.91,4,4,0,0,0-2.34,2.63,22.33,22.33,0,0,0-.62,6.27v56.59a22.46,22.46,0,0,0,.62,6.28,4,4,0,0,0,2.34,2.62,19.35,19.35,0,0,0,5.59.91v2.28c-4.1-.22-9.85-.34-17.22-.34q-12.23,0-18,.34v-2.28a19.59,19.59,0,0,0,5.53-.91,4,4,0,0,0,2.4-2.62,22.76,22.76,0,0,0,.63-6.28V216.05a22.63,22.63,0,0,0-.63-6.27,4,4,0,0,0-2.4-2.63,20,20,0,0,0-5.53-.91V204q5.82.34,18,.34c7.37,0,13.12-.11,17.22-.34Z"/><path d="M1620.49,207.27a34.2,34.2,0,0,1,14.09,14.2q5,9.3,5,22.19a46.85,46.85,0,0,1-5.13,22.25A37.26,37.26,0,0,1,1620.15,281a40.68,40.68,0,0,1-20.93,5.36,43.83,43.83,0,0,1-21.17-4.9A34.34,34.34,0,0,1,1564,267.22q-5-9.3-5-22.19a46.79,46.79,0,0,1,5.14-22.25,37.2,37.2,0,0,1,14.32-15.06,40.78,40.78,0,0,1,20.93-5.36A43.79,43.79,0,0,1,1620.49,207.27Zm-32.68,2.22q-4.8,5.08-7.36,14.21a77.25,77.25,0,0,0-2.57,20.87,67.94,67.94,0,0,0,2.91,20.88q2.91,9,7.87,13.92t11,4.91a14.81,14.81,0,0,0,11.07-5.08q4.79-5.07,7.36-14.2a77.38,77.38,0,0,0,2.57-20.88,68,68,0,0,0-2.91-20.88q-2.91-9-7.88-13.92a15.35,15.35,0,0,0-11-4.9A14.8,14.8,0,0,0,1587.81,209.49Z"/></g><g class="cls-3"><path d="M1723.69,206.24a12.12,12.12,0,0,0-5.53,1.94,7.1,7.1,0,0,0-2.4,4.34,45.57,45.57,0,0,0-.62,8.78V285l-2.74-.11-3.08.11-49.52-62.75V266a50.56,50.56,0,0,0,.69,9.87,6.76,6.76,0,0,0,3,4.57c1.52,1,4,1.61,7.42,2v2.28q-4.45-.33-12.32-.34c-4.19,0-7.49.12-9.93.34v-2.28a12.06,12.06,0,0,0,5.54-1.94,7.12,7.12,0,0,0,2.39-4.33,45.6,45.6,0,0,0,.63-8.79V216.05a22.24,22.24,0,0,0-.63-6.27,4,4,0,0,0-2.39-2.63,20.05,20.05,0,0,0-5.54-.91V204c2.44.23,5.74.34,9.93.34q5.7,0,9.81-.34l44.15,54.42V222.67a51.56,51.56,0,0,0-.68-9.87,6.8,6.8,0,0,0-3-4.56q-2.28-1.43-7.41-2V204q4.44.34,12.32.34c4.26,0,7.56-.11,9.92-.34Z"/></g><g class="cls-3"><path d="M1132.63,318.62a43.81,43.81,0,0,0,.18,4.44h-1.35c-.93-4.79-2.21-8.17-3.83-10.11A8.17,8.17,0,0,0,1121,310h-1.35V343.4a9.38,9.38,0,0,0,.5,3.57,2.63,2.63,0,0,0,1.75,1.49,16.08,16.08,0,0,0,4,.44v1.17c-4.91-.12-8.62-.18-11.11-.18s-6,.06-10.7.18V348.9a16.14,16.14,0,0,0,4-.44,2.66,2.66,0,0,0,1.75-1.49,9.38,9.38,0,0,0,.5-3.57V310h-1.29a8.76,8.76,0,0,0-4.76,1.23,9.7,9.7,0,0,0-3.37,4.06,32.68,32.68,0,0,0-2.39,7.75h-1.35a43.81,43.81,0,0,0,.18-4.44q0-4.39-.41-9.94,5.31.17,18.06.17t18-.17Q1132.64,314.23,1132.63,318.62Z"/><path d="M1176.19,347.5a9.77,9.77,0,0,1-3.4,2.6,11,11,0,0,1-4.38.79,8.94,8.94,0,0,1-5.35-1.43,7.26,7.26,0,0,1-2.54-4.89l-1-5.84a22.49,22.49,0,0,0-1.85-6.29,3.76,3.76,0,0,0-3.59-2h-3.8v13.44a11.3,11.3,0,0,0,.32,3.22,2,2,0,0,0,1.2,1.34,9.8,9.8,0,0,0,2.86.47v1.17c-2.1-.12-5-.18-8.83-.18-4.17,0-7.24.06-9.23.18V348.9a10,10,0,0,0,2.83-.47,2,2,0,0,0,1.23-1.34,11.68,11.68,0,0,0,.32-3.22v-29a11.6,11.6,0,0,0-.32-3.21,2,2,0,0,0-1.23-1.35,10.4,10.4,0,0,0-2.83-.46v-1.17q3,.17,8.88.17l6.49-.06c.78,0,1.68-.05,2.69-.05q8.07,0,12.13,2.63a8.45,8.45,0,0,1,4.07,7.54,10.26,10.26,0,0,1-3,7.31q-3,3.15-10.06,4,5.26.46,7.83,2.28a8.46,8.46,0,0,1,3.34,5.44l1.34,6a9.86,9.86,0,0,0,1.08,3.27,2,2,0,0,0,1.73.94,2.87,2.87,0,0,0,1.2-.35,5.75,5.75,0,0,0,1.14-1Zm-24.65-37.24a2.26,2.26,0,0,0-1,1.46,12.39,12.39,0,0,0-.29,3.15v14.39h2.51q4.8,0,6.58-2.55t1.78-7.16q0-4.79-1.69-7.25c-1.13-1.63-3-2.45-5.56-2.45A4.86,4.86,0,0,0,1151.54,310.26Z"/></g><g class="cls-3"><path d="M1209.06,310.37a17.59,17.59,0,0,1,7.22,7.28,23.57,23.57,0,0,1,2.57,11.37,23.91,23.91,0,0,1-2.63,11.4,19,19,0,0,1-7.33,7.72,20.92,20.92,0,0,1-10.73,2.75,22.44,22.44,0,0,1-10.85-2.52,17.63,17.63,0,0,1-7.22-7.27,23.7,23.7,0,0,1-2.57-11.38,24.08,24.08,0,0,1,2.63-11.4,19.08,19.08,0,0,1,7.34-7.71,20.9,20.9,0,0,1,10.73-2.75A22.51,22.51,0,0,1,1209.06,310.37Zm-16.75,1.14a17.36,17.36,0,0,0-3.77,7.28,39.93,39.93,0,0,0-1.31,10.7,34.7,34.7,0,0,0,1.49,10.7,17.29,17.29,0,0,0,4,7.13,7.87,7.87,0,0,0,5.64,2.52,7.55,7.55,0,0,0,5.67-2.61,17.09,17.09,0,0,0,3.77-7.27,39.51,39.51,0,0,0,1.32-10.7,35,35,0,0,0-1.49-10.7,17.29,17.29,0,0,0-4-7.13,7.87,7.87,0,0,0-5.65-2.52A7.61,7.61,0,0,0,1192.31,311.51Z"/></g><g class="cls-3"><path d="M1236.57,333.35v10.17a8.72,8.72,0,0,0,.5,3.42,2.58,2.58,0,0,0,1.75,1.43,17,17,0,0,0,4,.41v1.29c-4.8-.12-8.36-.18-10.7-.18q-2.93,0-7.37.12l-1.87.06V348.9a10,10,0,0,0,2.84-.47,2,2,0,0,0,1.23-1.34,11.68,11.68,0,0,0,.32-3.22v-29a11.6,11.6,0,0,0-.32-3.21,2.08,2.08,0,0,0-1.23-1.35,10.49,10.49,0,0,0-2.84-.46v-1.17q3,.17,8.89.17l6.49-.06c.78,0,1.67-.05,2.69-.05q7.89,0,12,3.12a10,10,0,0,1,4.15,8.39,12,12,0,0,1-7.16,11.11q-3.88,2-10.32,2Zm1.32-23.09a2.23,2.23,0,0,0-1,1.46,12.3,12.3,0,0,0-.3,3.15v17.31h2.52c3.15,0,5.34-1,6.54-3a16,16,0,0,0,1.82-8.24q0-5.67-1.67-8.36c-1.11-1.8-3-2.69-5.58-2.69A4.86,4.86,0,0,0,1237.89,310.26Z"/></g><g class="cls-3"><path d="M1300.05,310.31a2,2,0,0,0-1.19,1.35,11.14,11.14,0,0,0-.33,3.21v29a11.22,11.22,0,0,0,.33,3.22,2,2,0,0,0,1.19,1.34,9.88,9.88,0,0,0,2.87.47v1.17q-2.87-.18-8.89-.18c-3.94,0-7,.06-9.18.18V348.9a10,10,0,0,0,2.84-.47,2,2,0,0,0,1.23-1.34,11.68,11.68,0,0,0,.32-3.22v-14h-15.49v14a11.3,11.3,0,0,0,.32,3.22,2,2,0,0,0,1.2,1.34,9.73,9.73,0,0,0,2.86.47v1.17c-2.1-.12-5.05-.18-8.83-.18q-6.25,0-9.24.18V348.9a10,10,0,0,0,2.84-.47,2,2,0,0,0,1.23-1.34,11.68,11.68,0,0,0,.32-3.22v-29a11.6,11.6,0,0,0-.32-3.21,2.08,2.08,0,0,0-1.23-1.35,10.42,10.42,0,0,0-2.84-.46v-1.17q3,.17,9.24.17c3.78,0,6.73-.06,8.83-.17v1.17a10.16,10.16,0,0,0-2.86.46,2,2,0,0,0-1.2,1.35,11.22,11.22,0,0,0-.32,3.21v13.8h15.49v-13.8a11.6,11.6,0,0,0-.32-3.21,2.08,2.08,0,0,0-1.23-1.35,10.49,10.49,0,0,0-2.84-.46v-1.17c2.19.11,5.24.17,9.18.17s7-.06,8.89-.17v1.17A10.32,10.32,0,0,0,1300.05,310.31Z"/><path d="M1324.9,309.85a10.32,10.32,0,0,0-2.87.46,2,2,0,0,0-1.19,1.35,11.22,11.22,0,0,0-.32,3.21v29a11.3,11.3,0,0,0,.32,3.22,2,2,0,0,0,1.19,1.34,9.88,9.88,0,0,0,2.87.47v1.17q-3.17-.18-8.83-.18-6.25,0-9.24.18V348.9a10,10,0,0,0,2.84-.47,2,2,0,0,0,1.23-1.34,11.68,11.68,0,0,0,.32-3.22v-29a11.6,11.6,0,0,0-.32-3.21,2.08,2.08,0,0,0-1.23-1.35,10.42,10.42,0,0,0-2.84-.46v-1.17q3,.17,9.24.17,5.67,0,8.83-.17Z"/><path d="M1361.26,350.07q-4-.18-13.39-.18-12.73,0-19,.18V348.9a10,10,0,0,0,2.83-.47,2,2,0,0,0,1.23-1.34,11.68,11.68,0,0,0,.32-3.22v-29a11.6,11.6,0,0,0-.32-3.21,2.08,2.08,0,0,0-1.23-1.35,10.4,10.4,0,0,0-2.83-.46v-1.17q6.32.17,19,.17,8.6,0,12.22-.17c-.27,3.23-.41,6.12-.41,8.65a33.42,33.42,0,0,0,.18,4h-1.35c-.58-4.17-1.63-7.1-3.15-8.77a8.24,8.24,0,0,0-6.43-2.52h-2.4a8.65,8.65,0,0,0-2.63.29,1.75,1.75,0,0,0-1.11,1.14,9,9,0,0,0-.29,2.72v14.5h1.87a5.39,5.39,0,0,0,4.7-2.28,14.12,14.12,0,0,0,2.25-5.44h1.35c-.12,1.64-.18,3.47-.18,5.5v2.81q0,3,.35,8.3h-1.34q-1.23-7.72-7.13-7.72h-1.87v14.73a8.92,8.92,0,0,0,.29,2.72,1.71,1.71,0,0,0,1.11,1.14,8.34,8.34,0,0,0,2.63.29h2.86a8.57,8.57,0,0,0,6.7-2.83q2.54-2.83,3.59-9.62H1361c-.12,1.29-.18,2.92-.18,4.91A79.85,79.85,0,0,0,1361.26,350.07Z"/><path d="M1385.35,308.5a18.24,18.24,0,0,1,3.68,1.7c.43.23.81.43,1.14.58a2,2,0,0,0,.85.24.92.92,0,0,0,.82-.62,7.25,7.25,0,0,0,.47-2h1.34q-.29,3.93-.29,13.33H1392a19,19,0,0,0-1.43-6,11.7,11.7,0,0,0-3.39-4.65,7.91,7.91,0,0,0-5.11-1.78,6.69,6.69,0,0,0-4.65,1.61,5.56,5.56,0,0,0-1.79,4.35,7,7,0,0,0,.88,3.57,10,10,0,0,0,2.46,2.78q1.57,1.26,4.85,3.42l1.87,1.28a58,58,0,0,1,5.44,4,14.33,14.33,0,0,1,3.24,3.95,10.52,10.52,0,0,1,1.26,5.23,10.06,10.06,0,0,1-1.93,6.28,11.67,11.67,0,0,1-5.23,3.83,20.06,20.06,0,0,1-7.34,1.29,21.24,21.24,0,0,1-5.44-.59,17.5,17.5,0,0,1-4-1.58,4.26,4.26,0,0,0-2-.81.9.9,0,0,0-.82.61,7.25,7.25,0,0,0-.47,2h-1.34q.23-3.69.23-15.79h1.35a22.58,22.58,0,0,0,2.92,10.61,8.46,8.46,0,0,0,7.72,4.07,7.88,7.88,0,0,0,5.2-1.7,6,6,0,0,0,2-4.85,8.07,8.07,0,0,0-2.11-5.61,33.32,33.32,0,0,0-6.66-5.26q-3.51-2.28-5.61-4a14.18,14.18,0,0,1-3.45-4,10.42,10.42,0,0,1-1.35-5.35,9.75,9.75,0,0,1,1.78-5.94,10.59,10.59,0,0,1,4.77-3.59,17.79,17.79,0,0,1,6.55-1.17A16.32,16.32,0,0,1,1385.35,308.5Z"/><path d="M1460.21,322.85q-3,2.43-8.86,3.66l-1,.35a8.36,8.36,0,0,1,4,3.74,12.21,12.21,0,0,1,1.41,6,11.65,11.65,0,0,1-2.52,7.34,16.72,16.72,0,0,1-7.1,5.12,27.93,27.93,0,0,1-10.55,1.87,33.33,33.33,0,0,1-11.31-1.76,16.65,16.65,0,0,1-7.55-5.05,12,12,0,0,1-2.66-7.75,10.55,10.55,0,0,1,2.11-6.69,14.75,14.75,0,0,1,4.76-4.13,22.9,22.9,0,0,1,5-2q-6.6-2.64-6.61-7.37a6.19,6.19,0,0,1,3.45-5.58,15.89,15.89,0,0,1,8.19-2,18.46,18.46,0,0,1,3.57.29,8.54,8.54,0,0,1,2.51.94,7.73,7.73,0,0,1,2.57,1.93,4.19,4.19,0,0,1,1,2.8,3.42,3.42,0,0,1-1.32,2.78,5.38,5.38,0,0,1-6.26.15,3.24,3.24,0,0,1-1.19-2.69,3.93,3.93,0,0,1,1.05-2.66,4.5,4.5,0,0,1,2.69-1.49,3.94,3.94,0,0,0-1.58-.76,8.27,8.27,0,0,0-2.28-.3,7.25,7.25,0,0,0-5.26,2,7.54,7.54,0,0,0-2,5.67,8.74,8.74,0,0,0,2.28,6,16.31,16.31,0,0,1,3.28-.47,2.48,2.48,0,0,1,1.6.44,1.38,1.38,0,0,1,.56,1.14,1,1,0,0,1-.47.9,2,2,0,0,1-1.17.32,3.75,3.75,0,0,1-1.69-.4c-.55-.28-1.23-.65-2-1.12a12.48,12.48,0,0,0-4.59,3.78,9.58,9.58,0,0,0-1.61,5.7,9.36,9.36,0,0,0,4.53,8.5q4.53,2.83,12.54,2.84a25.07,25.07,0,0,0,7.75-1.2,14.79,14.79,0,0,0,6-3.51,7.47,7.47,0,0,0,2.31-5.46q0-5.38-4.44-7.43l-3.74,1.05-3.28.94a30.16,30.16,0,0,0-7.19,2.34,3.7,3.7,0,0,0-2.28,3.33,4,4,0,0,0,2,3.42,7.63,7.63,0,0,0,4.36,1.31,5.76,5.76,0,0,0,1.37-.17,2.07,2.07,0,0,0,1-.41,4.4,4.4,0,0,1-2.16-1.46,3.8,3.8,0,0,1-.76-2.4,3.37,3.37,0,0,1,1.32-2.83,5.24,5.24,0,0,1,3.36-1,4.75,4.75,0,0,1,3.3,1.08,3.73,3.73,0,0,1,1.2,2.9,4.31,4.31,0,0,1-2.34,4,11.81,11.81,0,0,1-6,1.35,9.83,9.83,0,0,1-6.23-1.93,6.6,6.6,0,0,1-2.48-5.55,8.32,8.32,0,0,1,3.33-7q3.33-2.58,9.76-3.8l2.52-.65a62.87,62.87,0,0,0,6.19-1.69,24.8,24.8,0,0,0,6.67-2.43,3.85,3.85,0,0,0,2.16-3.36,4.59,4.59,0,0,0-2-3.8,7.42,7.42,0,0,0-4.58-1.52,4,4,0,0,0-1.7.29,4.6,4.6,0,0,1,2.1,1.55,3.54,3.54,0,0,1,.76,2.14,3.22,3.22,0,0,1-1.31,2.74,5.39,5.39,0,0,1-3.36,1,5.09,5.09,0,0,1-3.31-1,3.49,3.49,0,0,1-1.25-2.84,4.11,4.11,0,0,1,2-3.6,9.59,9.59,0,0,1,5.32-1.31,10,10,0,0,1,6.76,2.19,7.58,7.58,0,0,1,2.54,6.05A8.16,8.16,0,0,1,1460.21,322.85Z"/></g><g class="cls-3"><path d="M1513,348a3.28,3.28,0,0,0,1.93.94v1.17q-3.51-.18-8.89-.18-6,0-8.88.18V348.9a9,9,0,0,0,3.15-.56,1.55,1.55,0,0,0,.94-1.54,8,8,0,0,0-.7-2.81L1497,334.4h-12.74l-1.52,4a19.38,19.38,0,0,0-1.64,6.48,3.33,3.33,0,0,0,1.31,3,8,8,0,0,0,3.89,1v1.17c-2.65-.12-5.06-.18-7.25-.18q-2.68,0-4.44.18V348.9q2.87-.52,5-6.14l13.33-34.2q.65.06,2,.06c.94,0,1.6,0,2-.06l14.21,36.6A7.17,7.17,0,0,0,1513,348Zm-16.37-14.73-5.79-15.78-6.08,15.78Z"/></g><g class="cls-3"><path d="M1567.45,308.68v1.17a7.34,7.34,0,0,0-2.84,2.25,13.63,13.63,0,0,0-2.31,4.7L1552,350.19q-.65-.06-2-.06c-.94,0-1.62,0-2,.06l-8.6-26.08-8.65,26.08q-.64-.06-2-.06c-.94,0-1.62,0-2.05.06l-13.1-36.6a6.75,6.75,0,0,0-1.69-2.81,3.36,3.36,0,0,0-2-.93v-1.17q3.51.17,8.71.17c3.28,0,5.67-.06,7.19-.17v1.17a2.09,2.09,0,0,0-2,2.28,9.6,9.6,0,0,0,.52,2.63l8.54,24.73,5.9-17.42-3-9.07a5.38,5.38,0,0,0-1.37-2.36,3.36,3.36,0,0,0-1.84-.79v-1.17q3.27.17,8.36.17,5.73,0,8.41-.17v1.17a8.37,8.37,0,0,0-3,.49,1.68,1.68,0,0,0-.93,1.67,8.89,8.89,0,0,0,.58,2.75l8,24.43,5.56-17.65a25.26,25.26,0,0,0,1.34-6.78,4.75,4.75,0,0,0-1.25-3.66,5.91,5.91,0,0,0-3.78-1.25v-1.17q4,.17,7.25.17C1564.78,308.85,1566.28,308.79,1567.45,308.68Z"/></g><g class="cls-3"><path d="M1600.42,348a3.28,3.28,0,0,0,1.93.94v1.17q-3.51-.18-8.89-.18-6,0-8.88.18V348.9a9.15,9.15,0,0,0,3.16-.56,1.56,1.56,0,0,0,.93-1.54,8,8,0,0,0-.7-2.81l-3.51-9.59h-12.74l-1.52,4a19.63,19.63,0,0,0-1.64,6.48,3.33,3.33,0,0,0,1.31,3,8,8,0,0,0,3.89,1v1.17c-2.65-.12-5.06-.18-7.25-.18q-2.68,0-4.44.18V348.9q2.87-.52,5-6.14l13.33-34.2q.64.06,2,.06c.94,0,1.6,0,2-.06l14.21,36.6A7.17,7.17,0,0,0,1600.42,348Zm-16.37-14.73-5.79-15.78-6.08,15.78Z"/></g><g class="cls-3"><path d="M1642.39,347.5a9.65,9.65,0,0,1-3.39,2.6,11.06,11.06,0,0,1-4.38.79,8.9,8.9,0,0,1-5.35-1.43,7.26,7.26,0,0,1-2.55-4.89l-1-5.84a22.54,22.54,0,0,0-1.84-6.29,3.76,3.76,0,0,0-3.6-2h-3.8v13.44a11.68,11.68,0,0,0,.32,3.22,2,2,0,0,0,1.2,1.34,9.88,9.88,0,0,0,2.87.47v1.17q-3.16-.18-8.83-.18-6.26,0-9.24.18V348.9a10,10,0,0,0,2.84-.47,2,2,0,0,0,1.23-1.34,11.68,11.68,0,0,0,.32-3.22v-29a11.6,11.6,0,0,0-.32-3.21,2.08,2.08,0,0,0-1.23-1.35,10.49,10.49,0,0,0-2.84-.46v-1.17q3,.17,8.89.17l6.49-.06c.78,0,1.67-.05,2.69-.05q8.07,0,12.13,2.63a8.44,8.44,0,0,1,4.06,7.54,10.22,10.22,0,0,1-3,7.31c-2,2.1-5.38,3.43-10,4q5.25.46,7.83,2.28a8.45,8.45,0,0,1,3.33,5.44l1.35,6a9.86,9.86,0,0,0,1.08,3.27,1.93,1.93,0,0,0,1.72.94,2.87,2.87,0,0,0,1.2-.35,5.75,5.75,0,0,0,1.14-1Zm-24.64-37.24a2.23,2.23,0,0,0-1,1.46,12.3,12.3,0,0,0-.3,3.15v14.39H1619q4.79,0,6.57-2.55a12.32,12.32,0,0,0,1.79-7.16q0-4.79-1.7-7.25t-5.55-2.45A4.86,4.86,0,0,0,1617.75,310.26Z"/><path d="M1678.34,313.85Q1684,319,1684,328.91a21.71,21.71,0,0,1-2.78,11.13,18.79,18.79,0,0,1-8,7.4,27.56,27.56,0,0,1-12.48,2.63l-3.63-.06c-2.26-.08-3.9-.12-4.91-.12q-6,0-9,.18V348.9a10,10,0,0,0,2.83-.47,2,2,0,0,0,1.23-1.34,11.3,11.3,0,0,0,.32-3.22v-29a11.22,11.22,0,0,0-.32-3.21,2,2,0,0,0-1.23-1.35,10.4,10.4,0,0,0-2.83-.46v-1.17c1.64.11,4,.17,7.07.17h1.81l2.34-.06q4.8-.1,6.84-.11Q1672.67,308.68,1678.34,313.85Zm-19.84-3.71a2.29,2.29,0,0,0-1.26,1.46,10.76,10.76,0,0,0-.35,3.16V344a10.85,10.85,0,0,0,.35,3.16,2.29,2.29,0,0,0,1.26,1.46,7.13,7.13,0,0,0,2.77.41q7.08,0,10.06-4.94t3-14.94q0-10-3.07-14.7t-10-4.71A6.93,6.93,0,0,0,1658.5,310.14Z"/><path d="M1708,308.5a18.31,18.31,0,0,1,3.69,1.7c.42.23.8.43,1.14.58a2,2,0,0,0,.84.24.91.91,0,0,0,.82-.62,6.88,6.88,0,0,0,.47-2h1.34q-.28,3.93-.29,13.33h-1.34a19.55,19.55,0,0,0-1.43-6,11.63,11.63,0,0,0-3.4-4.65,7.89,7.89,0,0,0-5.11-1.78,6.69,6.69,0,0,0-4.65,1.61,5.55,5.55,0,0,0-1.78,4.35,7,7,0,0,0,.87,3.57,10.12,10.12,0,0,0,2.46,2.78q1.57,1.26,4.85,3.42l1.87,1.28a58,58,0,0,1,5.44,4,14.36,14.36,0,0,1,3.25,3.95,10.62,10.62,0,0,1,1.25,5.23,10.06,10.06,0,0,1-1.93,6.28,11.62,11.62,0,0,1-5.23,3.83,20,20,0,0,1-7.34,1.29,21.16,21.16,0,0,1-5.43-.59,17.58,17.58,0,0,1-4-1.58,4.26,4.26,0,0,0-2-.81.9.9,0,0,0-.82.61,7,7,0,0,0-.46,2h-1.35q.24-3.69.24-15.79h1.34a22.69,22.69,0,0,0,2.92,10.61,8.46,8.46,0,0,0,7.72,4.07,7.86,7.86,0,0,0,5.2-1.7,5.93,5.93,0,0,0,2-4.85,8.11,8.11,0,0,0-2.1-5.61,33.73,33.73,0,0,0-6.67-5.26q-3.51-2.28-5.61-4a14.51,14.51,0,0,1-3.45-4,10.42,10.42,0,0,1-1.35-5.35,9.76,9.76,0,0,1,1.79-5.94,10.57,10.57,0,0,1,4.76-3.59,17.79,17.79,0,0,1,6.55-1.17A16.28,16.28,0,0,1,1708,308.5Z"/></g></g></svg>