<svg id="Layer_1" data-name="Layer 1" xmlns="http://www.w3.org/2000/svg" viewBox="0 0 1920 540"><path d="M219.54,200.31q7,2.85,10.15,7.08a14.62,14.62,0,0,1,3.18,8.94q0,10.75-8.56,16T200,237.62c-2.12,0-3.91,0-5.37-.11q-7.47-.22-14.6-.22-12.84,0-19.09.33v-2.2a17.35,17.35,0,0,0,5.1-.87,3.68,3.68,0,0,0,2.14-2.53,23.77,23.77,0,0,0,.55-6V171.56a21.25,21.25,0,0,0-.61-6,3.83,3.83,0,0,0-2.14-2.52,16.55,16.55,0,0,0-5-.88v-2.2q6.26.33,18.87.33l12.62-.11c1.46-.07,3.15-.11,5.05-.11q14.49,0,22.11,4.67t7.63,12.56a14.28,14.28,0,0,1-2.86,8.18,24,24,0,0,1-8.55,7.19,39.13,39.13,0,0,1-13.94,4.06v.22Q212.58,197.45,219.54,200.31Zm-26.45-37.42a4,4,0,0,0-1.7,2.74,29.73,29.73,0,0,0-.44,5.93v24.8h3q5.93,0,8.28-4.89t2.36-13q0-8.34-1.81-12.35a6.09,6.09,0,0,0-5.87-4A7.46,7.46,0,0,0,193.09,162.89Zm16.74,53q0-8.67-4.17-13.17t-13.17-4.5H191V226a22.6,22.6,0,0,0,.55,5.81,3.91,3.91,0,0,0,2,2.58,11,11,0,0,0,4.56.71Q209.83,235.09,209.83,215.89Z"/><path d="M301.68,237.62q-7.47-.33-25.13-.33-25.68,0-38.41.33v-2.2a17.35,17.35,0,0,0,5.1-.87,3.65,3.65,0,0,0,2.14-2.53,23.31,23.31,0,0,0,.55-6V171.56a21.72,21.72,0,0,0-.6-6,3.86,3.86,0,0,0-2.14-2.52,16.69,16.69,0,0,0-5.05-.88v-2.2q12.74.33,38.41.33,16.13,0,22.93-.33-.76,10.32-.76,18.44a72.75,72.75,0,0,0,.33,7.9h-2.53q-2-12.72-7.35-18.27a17.3,17.3,0,0,0-12.84-5.54H274.9a13.81,13.81,0,0,0-4.33.49,3,3,0,0,0-1.87,1.87,14.79,14.79,0,0,0-.49,4.55v28.09h1.1a12.67,12.67,0,0,0,9.76-4.49,20.81,20.81,0,0,0,5.16-10h2.52q-.31,4.6-.32,10.31v5.27q0,5.59.65,15.58h-2.52a18.31,18.31,0,0,0-5.1-10.37,13.82,13.82,0,0,0-10.15-4.11h-1.1v28.53a14.91,14.91,0,0,0,.49,4.56,3,3,0,0,0,1.87,1.86,13.81,13.81,0,0,0,4.33.49h3.62q6.38,0,12.08-6.2t8.12-19.8h2.52c-.22,2.63-.33,6-.33,10.09A181.27,181.27,0,0,0,301.68,237.62Z"/><path d="M399.62,233.61a5.33,5.33,0,0,0,3.35,1.81v2.2q-7.91-.33-20-.33-12.51,0-18.43.33v-2.2a17.15,17.15,0,0,0,5.92-1,3,3,0,0,0,1.76-2.91,15.12,15.12,0,0,0-1.32-5.26l-6.47-18H342.28l-1.86,4.94q-3.63,9.33-3.63,14.26,0,4.5,2.53,6.15t7.46,1.86v2.2q-8.23-.33-14.37-.33-5.16,0-8.45.33v-2.2a8.54,8.54,0,0,0,5.15-3.4,36.21,36.21,0,0,0,4.94-9.44l24.36-62.66q3.51.22,5.82.22c1.46,0,3.36-.07,5.71-.22l26.55,68.48A15.61,15.61,0,0,0,399.62,233.61ZM363.68,206l-10-27.43L343.16,206Z"/><path d="M483.29,160.25a38.28,38.28,0,0,1,9,5.27,3.22,3.22,0,0,0,2.08,1q2.2,0,2.86-6.59h2.52q-.44,7.8-.44,27.44h-2.52a48.69,48.69,0,0,0-2.85-13.83,18.64,18.64,0,0,0-7.25-8.45,18.93,18.93,0,0,0-10.2-3.29q-11.42,0-16,11T455.86,199q0,15.25,4.61,26.23t16,11a18.93,18.93,0,0,0,10.2-3.29,17.15,17.15,0,0,0,7.25-8.56q2.07-5.37,2.85-15.25h2.52q0,20.52.44,28.53h-2.52a19.49,19.49,0,0,0-.93-5c-.41-1-1-1.49-1.71-1.49a4.88,4.88,0,0,0-2.3.88,46,46,0,0,1-9.44,5.32A29,29,0,0,1,472,239.15a47.61,47.61,0,0,1-21.73-4.71,34.07,34.07,0,0,1-14.48-13.67q-5.16-8.94-5.16-21.34a42.78,42.78,0,0,1,5.26-21.4,36.92,36.92,0,0,1,14.71-14.48,44.09,44.09,0,0,1,21.51-5.16A29.91,29.91,0,0,1,483.29,160.25Z"/><path d="M588.15,163a3.64,3.64,0,0,0-2.14,2.52,23.45,23.45,0,0,0-.55,6V226a21.59,21.59,0,0,0,.6,6,3.83,3.83,0,0,0,2.14,2.53,16.69,16.69,0,0,0,5,.87v2.2q-5.93-.33-18.44-.33t-19.42.33v-2.2a17.35,17.35,0,0,0,5.1-.87,3.68,3.68,0,0,0,2.14-2.53,23.31,23.31,0,0,0,.55-6V199.65H538.49V226a21.59,21.59,0,0,0,.6,6,3.85,3.85,0,0,0,2.14,2.53,16.76,16.76,0,0,0,5,.87v2.2q-6.36-.33-18.33-.33-13.28,0-19.53.33v-2.2a17.35,17.35,0,0,0,5.1-.87,3.65,3.65,0,0,0,2.14-2.53,23.31,23.31,0,0,0,.55-6V171.56a21.72,21.72,0,0,0-.6-6,3.86,3.86,0,0,0-2.14-2.52,16.69,16.69,0,0,0-5.05-.88v-2.2q6.26.33,19.53.33,11.85,0,18.33-.33v2.2a17.29,17.29,0,0,0-5.1.88,3.66,3.66,0,0,0-2.14,2.52,23.45,23.45,0,0,0-.55,6v25.89h24.69V171.56a21.72,21.72,0,0,0-.6-6,3.88,3.88,0,0,0-2.14-2.52,16.69,16.69,0,0,0-5.05-.88v-2.2q6.79.33,19.42.33t18.44-.33v2.2A17.22,17.22,0,0,0,588.15,163Z"/><path d="M669.68,233.61a5.33,5.33,0,0,0,3.35,1.81v2.2q-7.9-.33-20-.33-12.51,0-18.43.33v-2.2a17.15,17.15,0,0,0,5.92-1,3,3,0,0,0,1.76-2.91,15.12,15.12,0,0,0-1.32-5.26l-6.47-18H612.34l-1.86,4.94q-3.63,9.33-3.63,14.26c0,3,.85,5.05,2.53,6.15s4.17,1.72,7.46,1.86v2.2q-8.24-.33-14.37-.33-5.16,0-8.45.33v-2.2a8.51,8.51,0,0,0,5.15-3.4,36.21,36.21,0,0,0,4.94-9.44l24.36-62.66q3.51.22,5.82.22c1.46,0,3.36-.07,5.71-.22l26.55,68.48A15.61,15.61,0,0,0,669.68,233.61ZM633.74,206l-10-27.43L613.22,206Z"/><path d="M767.78,163a3.65,3.65,0,0,0-2.13,2.52,23.45,23.45,0,0,0-.55,6V226a21.59,21.59,0,0,0,.6,6,3.83,3.83,0,0,0,2.14,2.53,16.69,16.69,0,0,0,5,.87v2.2q-6.71-.33-19.43-.33-13.28,0-19.53.33v-2.2a22.08,22.08,0,0,0,5.76-.87,3.94,3.94,0,0,0,2.47-2.53,19.72,19.72,0,0,0,.66-6V169.91l-26.45,67.6h-1.75l-31-70.45v49.05a72.26,72.26,0,0,0,.66,11.69,7.91,7.91,0,0,0,2.91,5.21q2.25,1.65,7.51,2.41v2.2q-4.5-.33-12.29-.33c-3.87,0-6.91.11-9.1.33v-2.2a10.36,10.36,0,0,0,5-2.36,8.55,8.55,0,0,0,2.2-4.88,66,66,0,0,0,.55-9.88V171.56a21.63,21.63,0,0,0-.61-6A3.83,3.83,0,0,0,678.4,163a16.55,16.55,0,0,0-5-.88v-2.2c2.19.22,5.23.33,9.1.33q13.17,0,22.72-.33l20.74,46.64,18-46.31h9.54q12.74,0,19.43-.33v2.2A17.37,17.37,0,0,0,767.78,163Z"/><path d="M809.1,206.23v18.66a17.6,17.6,0,0,0,.93,6.69,5,5,0,0,0,3.41,2.8,30.74,30.74,0,0,0,7.84.71v2.53q-14.82-.33-22.6-.33-5.16,0-14.38.22l-5.27.11v-2.2a17.35,17.35,0,0,0,5.1-.87,3.65,3.65,0,0,0,2.14-2.53,23.31,23.31,0,0,0,.55-6V171.56a21.72,21.72,0,0,0-.6-6,3.86,3.86,0,0,0-2.14-2.52,16.69,16.69,0,0,0-5.05-.88v-2.2q6.26.33,18.88.33l12.62-.11c1.46-.07,3.14-.11,5-.11q16.24,0,24.64,5.88t8.4,15.74a22.29,22.29,0,0,1-3.3,11.58q-3.28,5.53-11.19,9.27t-21,3.73Zm2.14-43.34a4,4,0,0,0-1.7,2.74,29.73,29.73,0,0,0-.44,5.93V204h3q7.68,0,10.59-5.71t2.91-15.47q0-10.65-2.41-15.69a8.34,8.34,0,0,0-8.12-5A7.43,7.43,0,0,0,811.24,162.89Z"/><path d="M890.42,162.12a17.3,17.3,0,0,0-5.11.88,3.68,3.68,0,0,0-2.14,2.52,23.92,23.92,0,0,0-.55,6V226a21.12,21.12,0,0,0,.61,6,3.83,3.83,0,0,0,2.14,2.53,16.63,16.63,0,0,0,5,.87v2.2q-6.37-.33-18.33-.33-13.27,0-19.53.33v-2.2a17.35,17.35,0,0,0,5.1-.87A3.68,3.68,0,0,0,859.8,232a23.77,23.77,0,0,0,.55-6V171.56a21.25,21.25,0,0,0-.61-6A3.83,3.83,0,0,0,857.6,163a16.55,16.55,0,0,0-5-.88v-2.2q6.26.33,19.53.33,11.85,0,18.33-.33Z"/><path d="M959.77,163.11a34.11,34.11,0,0,1,14.48,13.66q5.16,8.94,5.16,21.34a42.68,42.68,0,0,1-5.27,21.4A36.86,36.86,0,0,1,959.44,234a44.09,44.09,0,0,1-21.51,5.15,47.61,47.61,0,0,1-21.73-4.71,34.13,34.13,0,0,1-14.48-13.67q-5.16-8.94-5.16-21.34a42.78,42.78,0,0,1,5.27-21.4,36.84,36.84,0,0,1,14.7-14.48A44.09,44.09,0,0,1,938,158.39Q950.45,158.39,959.77,163.11Zm-31.66,2.14q-4.11,4.88-6.31,13.66A83.27,83.27,0,0,0,919.6,199a71.76,71.76,0,0,0,2.53,20.08q2.52,8.67,6.8,13.39t9.44,4.72q5.37,0,9.49-4.88t6.31-13.67a83.21,83.21,0,0,0,2.2-20.08,72.13,72.13,0,0,0-2.53-20.08q-2.52-8.67-6.8-13.39t-9.44-4.72Q932.23,160.36,928.11,165.25Z"/><path d="M1060.18,162.12a10.49,10.49,0,0,0-5,2.36,8.51,8.51,0,0,0-2.19,4.88,64.76,64.76,0,0,0-.55,9.88v58.38c-1.47-.15-2.67-.22-3.62-.22s-2.16.07-4.06.22l-48.62-53.11v31.6a72.26,72.26,0,0,0,.66,11.69,7.91,7.91,0,0,0,2.91,5.21c1.5,1.1,4,1.9,7.52,2.41v2.2c-3-.22-7.1-.33-12.3-.33-3.87,0-6.91.11-9.1.33v-2.2a10.36,10.36,0,0,0,5-2.36,8.55,8.55,0,0,0,2.2-4.88,66,66,0,0,0,.55-9.88V171.56a21.25,21.25,0,0,0-.61-6,3.83,3.83,0,0,0-2.14-2.52,16.55,16.55,0,0,0-5-.88v-2.2c2.19.22,5.23.33,9.1.33s7.32-.11,10.1-.33l44.88,47.41v-25.9a72,72,0,0,0-.66-11.68,7.89,7.89,0,0,0-2.9-5.22c-1.5-1.09-4-1.9-7.52-2.41v-2.2q4.5.33,12.29.33c3.88,0,6.91-.11,9.11-.33Z"/><path d="M161.45,324.69v-28.4h18.64v2.48H164.25v10.44h13.36v2.32H164.25v13.16Z"/><path d="M186.29,325.09a7.42,7.42,0,0,1-2.74-.5,6.73,6.73,0,0,1-2.2-1.38,6,6,0,0,1-1.46-2.06,6.14,6.14,0,0,1-.52-2.54,5.13,5.13,0,0,1,.64-2.52,6,6,0,0,1,1.8-2,8.82,8.82,0,0,1,2.76-1.3,12.93,12.93,0,0,1,3.52-.46,20.07,20.07,0,0,1,3.24.28,14.88,14.88,0,0,1,2.92.8v-1.88a6,6,0,0,0-1.56-4.38,5.72,5.72,0,0,0-4.32-1.62,9.31,9.31,0,0,0-3.28.64,15.81,15.81,0,0,0-3.4,1.84l-1-1.8a14.07,14.07,0,0,1,7.84-2.72,8.46,8.46,0,0,1,6.16,2.2,8.16,8.16,0,0,1,2.24,6.08v9.4c0,.75.33,1.12,1,1.12v2.4a6.57,6.57,0,0,1-1,.12,2.3,2.3,0,0,1-1.62-.52,1.9,1.9,0,0,1-.62-1.44l-.08-1.64a9.35,9.35,0,0,1-3.62,2.88A11.11,11.11,0,0,1,186.29,325.09Zm.64-2.08a9.32,9.32,0,0,0,3.9-.8,6.43,6.43,0,0,0,2.7-2.12,2.49,2.49,0,0,0,.54-.78,2,2,0,0,0,.18-.78v-3.4a17.85,17.85,0,0,0-2.82-.8,16.44,16.44,0,0,0-3-.28,8.29,8.29,0,0,0-4.68,1.2,3.66,3.66,0,0,0-1.8,3.16,4.21,4.21,0,0,0,.38,1.8,4.48,4.48,0,0,0,1,1.46,4.69,4.69,0,0,0,1.58,1A5.29,5.29,0,0,0,186.93,323Z"/><path d="M233.85,324.69h-2.72V313.05a9.8,9.8,0,0,0-1.16-5.36,3.9,3.9,0,0,0-3.44-1.72,5.87,5.87,0,0,0-2.26.44,7.13,7.13,0,0,0-2,1.24,8.64,8.64,0,0,0-1.58,1.9,9,9,0,0,0-1,2.42v12.72H217V313.05a10.07,10.07,0,0,0-1.12-5.4,3.86,3.86,0,0,0-3.44-1.68,6.13,6.13,0,0,0-4.2,1.64,9.15,9.15,0,0,0-2.64,4.32v12.76h-2.72V303.85h2.48v4.72a9.85,9.85,0,0,1,3.36-3.74,8.33,8.33,0,0,1,4.6-1.34,6,6,0,0,1,4.22,1.48,6.47,6.47,0,0,1,1.94,3.88q2.91-5.36,8-5.36a6.46,6.46,0,0,1,3,.64,5.19,5.19,0,0,1,2,1.82,8.76,8.76,0,0,1,1.08,2.84,19,19,0,0,1,.34,3.7Z"/><path d="M239.61,299.49v-4h2.72v4Zm0,25.2V303.85h2.72v20.84Z"/><path d="M248.45,295.49h2.72V320a2.48,2.48,0,0,0,.64,1.82,2.37,2.37,0,0,0,1.8.66,5.44,5.44,0,0,0,1-.12,6.34,6.34,0,0,0,1.12-.32l.48,2.2a8.5,8.5,0,0,1-1.86.52,10.32,10.32,0,0,1-1.9.2,4,4,0,0,1-3-1.06,4,4,0,0,1-1.08-3Z"/><path d="M260,331.09l.61.06.59,0a2.77,2.77,0,0,0,1.14-.2,2.13,2.13,0,0,0,.81-.88,13.57,13.57,0,0,0,.9-2c.34-.85.81-2,1.43-3.44l-9.08-20.84h2.8l7.72,18.32L274,303.85h2.61l-10.8,26.88a5,5,0,0,1-1.46,2,4.16,4.16,0,0,1-2.79.86l-.75,0a8.79,8.79,0,0,1-.88-.1Z"/><path d="M298.44,325.09a9.73,9.73,0,0,1-4.15-.86,10.09,10.09,0,0,1-3.27-2.34,10.57,10.57,0,0,1-2.14-3.44,11.41,11.41,0,0,1-.76-4.12,11.11,11.11,0,0,1,2.94-7.6,10.69,10.69,0,0,1,3.26-2.36,10.13,10.13,0,0,1,8.26,0,10.54,10.54,0,0,1,3.28,2.36,10.84,10.84,0,0,1,2.16,3.44,11.38,11.38,0,0,1,0,8.28,10.4,10.4,0,0,1-2.14,3.44,10,10,0,0,1-3.28,2.34A9.89,9.89,0,0,1,298.44,325.09Zm-7.56-10.72a8.67,8.67,0,0,0,.6,3.26,8.85,8.85,0,0,0,1.62,2.64,7.33,7.33,0,0,0,2.4,1.78,6.85,6.85,0,0,0,2.94.64,6.73,6.73,0,0,0,2.94-.66,7.81,7.81,0,0,0,2.43-1.8,8.54,8.54,0,0,0,1.63-2.66,8.82,8.82,0,0,0,.6-3.28,8.94,8.94,0,0,0-.6-3.26,8.64,8.64,0,0,0-1.63-2.68,7.81,7.81,0,0,0-2.43-1.8,6.73,6.73,0,0,0-2.94-.66,6.61,6.61,0,0,0-2.92.66,8,8,0,0,0-2.4,1.82,8.95,8.95,0,0,0-2.24,6Z"/><path d="M338.84,303.85h2.68l-9,20.84h-2.24l-4.48-10.64-4.44,10.64h-2.24l-9-20.84h2.64l7.6,18,4-9.52-3.56-8.48h2.28l2.72,6.8,2.72-6.8h2.32l-3.56,8.48,4,9.52Z"/><path d="M362.64,324.69h-2.72V313.05c0-2.48-.36-4.28-1.1-5.4a3.75,3.75,0,0,0-3.38-1.68,7,7,0,0,0-2.4.44,8.36,8.36,0,0,0-2.22,1.24,10,10,0,0,0-1.82,1.9,7.62,7.62,0,0,0-1.16,2.38v12.76h-2.72V303.85h2.48v4.72a9.94,9.94,0,0,1,3.66-3.68,10.09,10.09,0,0,1,5.18-1.4,6.21,6.21,0,0,1,2.92.64,5,5,0,0,1,1.92,1.8,8.27,8.27,0,0,1,1,2.84,19.39,19.39,0,0,1,.32,3.72Z"/><path d="M377.44,325.09a9.93,9.93,0,0,1-4.18-.86,10.34,10.34,0,0,1-3.3-2.36,11,11,0,0,1-2.18-3.46,11.2,11.2,0,0,1-.78-4.2,11,11,0,0,1,.78-4.14,10.83,10.83,0,0,1,2.16-3.4,10.41,10.41,0,0,1,3.3-2.32,10.15,10.15,0,0,1,11.6,2.34,10.77,10.77,0,0,1,2.12,3.4,10.92,10.92,0,0,1,.76,4.08v.64a1.46,1.46,0,0,1,0,.44H369.84a8.74,8.74,0,0,0,.78,3.1,8.5,8.5,0,0,0,1.7,2.46,7.51,7.51,0,0,0,2.38,1.62,7.1,7.1,0,0,0,2.86.58,7.21,7.21,0,0,0,2-.28,7.74,7.74,0,0,0,1.84-.76,6.67,6.67,0,0,0,1.52-1.18,4.87,4.87,0,0,0,1-1.54l2.36.64A6.71,6.71,0,0,1,385,322a8.9,8.9,0,0,1-2,1.64,9.62,9.62,0,0,1-2.56,1.08A11.18,11.18,0,0,1,377.44,325.09Zm7.68-11.92a8.36,8.36,0,0,0-2.46-5.44,7.58,7.58,0,0,0-2.36-1.56,7.37,7.37,0,0,0-2.86-.56,7.58,7.58,0,0,0-2.88.56,7.67,7.67,0,0,0-2.38,1.56,7.86,7.86,0,0,0-1.64,2.4,9.23,9.23,0,0,0-.74,3Z"/><path d="M400.48,325.09a9,9,0,0,1-4-.9,10.2,10.2,0,0,1-3.16-2.38,10.92,10.92,0,0,1-2.06-3.42,11.33,11.33,0,0,1-.74-4.06,12.16,12.16,0,0,1,.72-4.18,11.21,11.21,0,0,1,2-3.46,9.52,9.52,0,0,1,3-2.34,8.57,8.57,0,0,1,3.82-.86,8.15,8.15,0,0,1,4.68,1.38,10.48,10.48,0,0,1,3.2,3.34V295.49h2.72v25.68c0,.75.32,1.12,1,1.12v2.4a5.16,5.16,0,0,1-1,.12,2.46,2.46,0,0,1-1.68-.62,1.9,1.9,0,0,1-.72-1.5v-2a9,9,0,0,1-3.36,3.24A8.81,8.81,0,0,1,400.48,325.09Zm.6-2.4a6.38,6.38,0,0,0,2.14-.4,8.34,8.34,0,0,0,2.14-1.1,7,7,0,0,0,1.7-1.64,4.3,4.3,0,0,0,.86-2v-6.44a7,7,0,0,0-1.16-2,9.14,9.14,0,0,0-1.74-1.66,8.17,8.17,0,0,0-2.1-1.12,6.65,6.65,0,0,0-2.2-.4,6.4,6.4,0,0,0-3,.72,8,8,0,0,0-2.34,1.9,8.68,8.68,0,0,0-1.5,2.7,9.82,9.82,0,0,0-.52,3.12,8.74,8.74,0,0,0,2.24,5.86A8,8,0,0,0,398,322,6.92,6.92,0,0,0,401.08,322.69Z"/><path d="M432.24,325.09a7.46,7.46,0,0,1-2.74-.5,6.84,6.84,0,0,1-2.2-1.38,6.22,6.22,0,0,1-2-4.6,5.24,5.24,0,0,1,.64-2.52,6.21,6.21,0,0,1,1.8-2,9,9,0,0,1,2.76-1.3,13,13,0,0,1,3.52-.46,19.88,19.88,0,0,1,3.24.28,14.5,14.5,0,0,1,2.92.8v-1.88a6,6,0,0,0-1.56-4.38,5.72,5.72,0,0,0-4.32-1.62,9.36,9.36,0,0,0-3.28.64,16,16,0,0,0-3.4,1.84l-1-1.8a14.12,14.12,0,0,1,7.84-2.72,8.42,8.42,0,0,1,6.16,2.2,8.12,8.12,0,0,1,2.24,6.08v9.4c0,.75.34,1.12,1,1.12v2.4a6.44,6.44,0,0,1-1,.12,2.34,2.34,0,0,1-1.62-.52,2,2,0,0,1-.62-1.44l-.08-1.64a9.28,9.28,0,0,1-3.62,2.88A11.08,11.08,0,0,1,432.24,325.09Zm.64-2.08a9.26,9.26,0,0,0,3.9-.8,6.3,6.3,0,0,0,2.7-2.12,2.49,2.49,0,0,0,.54-.78,2,2,0,0,0,.18-.78v-3.4a17.27,17.27,0,0,0-2.82-.8,16.27,16.27,0,0,0-3-.28,8.29,8.29,0,0,0-4.68,1.2,3.66,3.66,0,0,0-1.8,3.16,4.37,4.37,0,0,0,.38,1.8,4.63,4.63,0,0,0,1,1.46,4.79,4.79,0,0,0,1.58,1A5.37,5.37,0,0,0,432.88,323Z"/><path d="M466.32,324.69H463.6V313.05c0-2.48-.36-4.28-1.1-5.4a3.75,3.75,0,0,0-3.38-1.68,7,7,0,0,0-2.4.44,8.36,8.36,0,0,0-2.22,1.24,10,10,0,0,0-1.82,1.9,7.62,7.62,0,0,0-1.16,2.38v12.76H448.8V303.85h2.48v4.72a9.94,9.94,0,0,1,3.66-3.68,10.09,10.09,0,0,1,5.18-1.4,6.21,6.21,0,0,1,2.92.64,5,5,0,0,1,1.92,1.8,8.27,8.27,0,0,1,1,2.84,19.39,19.39,0,0,1,.32,3.72Z"/><path d="M480.68,325.09a9,9,0,0,1-4-.9,10.2,10.2,0,0,1-3.16-2.38,10.92,10.92,0,0,1-2.06-3.42,11.33,11.33,0,0,1-.74-4.06,12.16,12.16,0,0,1,.72-4.18,11.21,11.21,0,0,1,2-3.46,9.52,9.52,0,0,1,3-2.34,8.57,8.57,0,0,1,3.82-.86,8.15,8.15,0,0,1,4.68,1.38,10.48,10.48,0,0,1,3.2,3.34V295.49h2.72v25.68c0,.75.32,1.12,1,1.12v2.4a5.16,5.16,0,0,1-1,.12,2.46,2.46,0,0,1-1.68-.62,1.9,1.9,0,0,1-.72-1.5v-2a9,9,0,0,1-3.36,3.24A8.81,8.81,0,0,1,480.68,325.09Zm.6-2.4a6.38,6.38,0,0,0,2.14-.4,8.34,8.34,0,0,0,2.14-1.1,7,7,0,0,0,1.7-1.64,4.3,4.3,0,0,0,.86-2v-6.44a7,7,0,0,0-1.16-2,9.14,9.14,0,0,0-1.74-1.66,8.17,8.17,0,0,0-2.1-1.12,6.65,6.65,0,0,0-2.2-.4,6.4,6.4,0,0,0-3,.72,8,8,0,0,0-2.34,1.9,8.68,8.68,0,0,0-1.5,2.7,9.82,9.82,0,0,0-.52,3.12,8.74,8.74,0,0,0,2.24,5.86,8,8,0,0,0,2.46,1.82A6.92,6.92,0,0,0,481.28,322.69Z"/><path d="M516.08,325.09a9.8,9.8,0,0,1-4.16-.86,10.16,10.16,0,0,1-3.26-2.34,10.57,10.57,0,0,1-2.14-3.44,11.41,11.41,0,0,1-.76-4.12,11.18,11.18,0,0,1,.78-4.16,11,11,0,0,1,2.16-3.44,10.69,10.69,0,0,1,3.26-2.36,10.13,10.13,0,0,1,8.26,0,10.54,10.54,0,0,1,3.28,2.36,11,11,0,0,1,2.16,3.44,11.52,11.52,0,0,1,0,8.28,10.4,10.4,0,0,1-2.14,3.44,10,10,0,0,1-3.28,2.34A9.89,9.89,0,0,1,516.08,325.09Zm-7.56-10.72a8.67,8.67,0,0,0,.6,3.26,8.85,8.85,0,0,0,1.62,2.64,7.23,7.23,0,0,0,2.4,1.78,6.85,6.85,0,0,0,2.94.64A6.73,6.73,0,0,0,519,322a7.77,7.77,0,0,0,2.42-1.8,8.38,8.38,0,0,0,1.64-2.66,8.82,8.82,0,0,0,.6-3.28,8.94,8.94,0,0,0-.6-3.26,8.47,8.47,0,0,0-1.64-2.68,7.77,7.77,0,0,0-2.42-1.8,6.73,6.73,0,0,0-2.94-.66,6.61,6.61,0,0,0-2.92.66,8,8,0,0,0-2.4,1.82,8.95,8.95,0,0,0-2.24,6Z"/><path d="M541.64,325.09a8.19,8.19,0,0,1-4.66-1.34,10.62,10.62,0,0,1-3.26-3.38v12.84H531V303.85h2.44v4a10.2,10.2,0,0,1,3.32-3.18,8.53,8.53,0,0,1,4.44-1.22,8.73,8.73,0,0,1,4,.9,10.18,10.18,0,0,1,3.12,2.4,11.15,11.15,0,0,1,2.06,3.46,11.46,11.46,0,0,1,.74,4,12.65,12.65,0,0,1-.68,4.16,10.45,10.45,0,0,1-1.94,3.44,9.24,9.24,0,0,1-3,2.34A8.4,8.4,0,0,1,541.64,325.09Zm-.76-2.4a6.51,6.51,0,0,0,3.06-.72,7.53,7.53,0,0,0,2.36-1.9,8.58,8.58,0,0,0,1.5-2.68,9.3,9.3,0,0,0,.52-3.1,8.66,8.66,0,0,0-.6-3.2,9,9,0,0,0-1.64-2.68,7.86,7.86,0,0,0-2.46-1.84,7.06,7.06,0,0,0-3.06-.68,6.32,6.32,0,0,0-2.18.42,9.14,9.14,0,0,0-2.12,1.12,7.93,7.93,0,0,0-1.68,1.64,4.45,4.45,0,0,0-.86,2v6.4a9.62,9.62,0,0,0,1.22,2.08,8.25,8.25,0,0,0,1.68,1.66,7.79,7.79,0,0,0,2,1.1A6.34,6.34,0,0,0,540.88,322.69Z"/><path d="M564.68,325.09a9.93,9.93,0,0,1-4.18-.86,10.12,10.12,0,0,1-3.3-2.36,11,11,0,0,1-2.18-3.46,11.2,11.2,0,0,1-.78-4.2,11,11,0,0,1,.78-4.14,10.83,10.83,0,0,1,2.16-3.4,10.41,10.41,0,0,1,3.3-2.32,10.15,10.15,0,0,1,11.6,2.34,11,11,0,0,1,2.88,7.48v.64a1.46,1.46,0,0,1,0,.44H557.08a8.74,8.74,0,0,0,.78,3.1,8.5,8.5,0,0,0,1.7,2.46,7.4,7.4,0,0,0,2.38,1.62,7.07,7.07,0,0,0,2.86.58,7.26,7.26,0,0,0,2-.28,7.74,7.74,0,0,0,1.84-.76,6.67,6.67,0,0,0,1.52-1.18,5,5,0,0,0,1-1.54l2.36.64a6.71,6.71,0,0,1-1.36,2.1,9.36,9.36,0,0,1-2,1.64,9.76,9.76,0,0,1-2.56,1.08A11.24,11.24,0,0,1,564.68,325.09Zm7.68-11.92a8.36,8.36,0,0,0-2.46-5.44,7.7,7.7,0,0,0-2.36-1.56,7.4,7.4,0,0,0-2.86-.56,7.49,7.49,0,0,0-5.26,2.12,7.69,7.69,0,0,0-1.64,2.4,9.23,9.23,0,0,0-.74,3Z"/><path d="M589.56,306.25a8.61,8.61,0,0,0-4.8,1.52,7.66,7.66,0,0,0-2.88,4v13h-2.72V303.85h2.56v5a9.45,9.45,0,0,1,3.12-3.76,7.29,7.29,0,0,1,4.2-1.36,3.44,3.44,0,0,1,.52,0Z"/><path d="M598.16,325.09a7.42,7.42,0,0,1-2.74-.5,6.84,6.84,0,0,1-2.2-1.38,6.22,6.22,0,0,1-2-4.6,5.13,5.13,0,0,1,.64-2.52,6.21,6.21,0,0,1,1.8-2,8.82,8.82,0,0,1,2.76-1.3,13,13,0,0,1,3.52-.46,19.88,19.88,0,0,1,3.24.28,14.69,14.69,0,0,1,2.92.8v-1.88a6,6,0,0,0-1.56-4.38,5.72,5.72,0,0,0-4.32-1.62,9.31,9.31,0,0,0-3.28.64,16,16,0,0,0-3.4,1.84l-1-1.8a14.1,14.1,0,0,1,7.84-2.72,8.44,8.44,0,0,1,6.16,2.2,8.16,8.16,0,0,1,2.24,6.08v9.4c0,.75.33,1.12,1,1.12v2.4a6.44,6.44,0,0,1-1,.12,2.34,2.34,0,0,1-1.62-.52,1.93,1.93,0,0,1-.62-1.44l-.08-1.64a9.35,9.35,0,0,1-3.62,2.88A11.08,11.08,0,0,1,598.16,325.09Zm.64-2.08a9.32,9.32,0,0,0,3.9-.8,6.3,6.3,0,0,0,2.7-2.12,2.49,2.49,0,0,0,.54-.78,2,2,0,0,0,.18-.78v-3.4a17.85,17.85,0,0,0-2.82-.8,16.36,16.36,0,0,0-3-.28,8.29,8.29,0,0,0-4.68,1.2,3.66,3.66,0,0,0-1.8,3.16,4.37,4.37,0,0,0,.38,1.8,4.48,4.48,0,0,0,1,1.46,4.79,4.79,0,0,0,1.58,1A5.33,5.33,0,0,0,598.8,323Z"/><path d="M624.56,323.69c-.16.08-.39.19-.7.32a10.38,10.38,0,0,1-1.06.4,9.86,9.86,0,0,1-1.36.36,7.55,7.55,0,0,1-1.6.16,5.78,5.78,0,0,1-1.68-.24,3.84,3.84,0,0,1-1.4-.74,3.58,3.58,0,0,1-1-1.26,4,4,0,0,1-.36-1.76V306h-2.88v-2.16h2.88v-7h2.72v7H623V306h-4.8v14.16a2.15,2.15,0,0,0,.82,1.7,2.8,2.8,0,0,0,1.7.54,5,5,0,0,0,2-.38,7.89,7.89,0,0,0,1.12-.54Z"/><path d="M636.44,325.09a9.93,9.93,0,0,1-4.18-.86,10.12,10.12,0,0,1-3.3-2.36,11,11,0,0,1-2.18-3.46,11.2,11.2,0,0,1-.78-4.2,11,11,0,0,1,.78-4.14,10.83,10.83,0,0,1,2.16-3.4,10.41,10.41,0,0,1,3.3-2.32,10.15,10.15,0,0,1,11.6,2.34,11,11,0,0,1,2.88,7.48v.64a1.46,1.46,0,0,1,0,.44H628.84a8.74,8.74,0,0,0,.78,3.1,8.5,8.5,0,0,0,1.7,2.46,7.4,7.4,0,0,0,2.38,1.62,7.07,7.07,0,0,0,2.86.58,7.26,7.26,0,0,0,2-.28,7.74,7.74,0,0,0,1.84-.76,6.67,6.67,0,0,0,1.52-1.18,5,5,0,0,0,1-1.54l2.36.64A6.71,6.71,0,0,1,644,322a9.36,9.36,0,0,1-2,1.64,9.76,9.76,0,0,1-2.56,1.08A11.24,11.24,0,0,1,636.44,325.09Zm7.68-11.92a8.36,8.36,0,0,0-2.46-5.44,7.7,7.7,0,0,0-2.36-1.56,7.4,7.4,0,0,0-2.86-.56,7.49,7.49,0,0,0-5.26,2.12,7.69,7.69,0,0,0-1.64,2.4,9.23,9.23,0,0,0-.74,3Z"/><path d="M659.48,325.09a9,9,0,0,1-4-.9,10.09,10.09,0,0,1-3.16-2.38,10.74,10.74,0,0,1-2.06-3.42,11.33,11.33,0,0,1-.74-4.06,12.16,12.16,0,0,1,.72-4.18,11.21,11.21,0,0,1,2-3.46,9.52,9.52,0,0,1,3-2.34,8.54,8.54,0,0,1,3.82-.86,8.15,8.15,0,0,1,4.68,1.38,10.48,10.48,0,0,1,3.2,3.34V295.49h2.72v25.68c0,.75.32,1.12,1,1.12v2.4a5.16,5.16,0,0,1-1,.12,2.46,2.46,0,0,1-1.68-.62,1.9,1.9,0,0,1-.72-1.5v-2a9.16,9.16,0,0,1-3.36,3.24A8.81,8.81,0,0,1,659.48,325.09Zm.6-2.4a6.38,6.38,0,0,0,2.14-.4,8.51,8.51,0,0,0,2.14-1.1,7.17,7.17,0,0,0,1.7-1.64,4.41,4.41,0,0,0,.86-2v-6.44a7.2,7.2,0,0,0-1.16-2,9.78,9.78,0,0,0-1.74-1.66,8.17,8.17,0,0,0-2.1-1.12,6.7,6.7,0,0,0-2.2-.4,6.4,6.4,0,0,0-3,.72,7.71,7.71,0,0,0-2.34,1.9,8.68,8.68,0,0,0-1.5,2.7,9.55,9.55,0,0,0-.52,3.12,8.74,8.74,0,0,0,2.24,5.86A7.8,7.8,0,0,0,657,322,6.92,6.92,0,0,0,660.08,322.69Z"/><path d="M692.92,325.09a14.33,14.33,0,0,1-4.76-.8,11.26,11.26,0,0,1-4-2.32l1.24-1.84a13.56,13.56,0,0,0,3.58,2.16,10.48,10.48,0,0,0,3.9.72,7,7,0,0,0,4-1,3.29,3.29,0,0,0,1.5-2.9,2.51,2.51,0,0,0-.4-1.46,3.65,3.65,0,0,0-1.18-1,9.5,9.5,0,0,0-2-.78c-.79-.22-1.7-.46-2.74-.7-1.2-.29-2.24-.58-3.12-.88a9.07,9.07,0,0,1-2.18-1,3.59,3.59,0,0,1-1.28-1.38,4.47,4.47,0,0,1-.42-2.06,6,6,0,0,1,.62-2.76,5.56,5.56,0,0,1,1.68-2,7.7,7.7,0,0,1,2.48-1.18,11.36,11.36,0,0,1,3-.4,11.71,11.71,0,0,1,4.36.78,8.63,8.63,0,0,1,3.16,2.06l-1.32,1.6a7.27,7.27,0,0,0-2.82-1.8,10.11,10.11,0,0,0-3.46-.6,8.94,8.94,0,0,0-2,.22,4.94,4.94,0,0,0-1.62.7,3.48,3.48,0,0,0-1.1,1.22,3.6,3.6,0,0,0-.4,1.74,2.81,2.81,0,0,0,.28,1.36,2.34,2.34,0,0,0,.92.9,7.31,7.31,0,0,0,1.62.68c.65.2,1.45.41,2.38.62,1.33.32,2.51.64,3.52,1a11.42,11.42,0,0,1,2.54,1.12,4.13,4.13,0,0,1,2.06,3.8,5.42,5.42,0,0,1-2.2,4.56A9.52,9.52,0,0,1,692.92,325.09Z"/><path d="M705.48,299.49v-4h2.72v4Zm0,25.2V303.85h2.72v20.84Z"/><path d="M731.72,324.69H729V313.05a10.19,10.19,0,0,0-1.1-5.4,3.75,3.75,0,0,0-3.38-1.68,7,7,0,0,0-2.4.44,8.36,8.36,0,0,0-2.22,1.24,9.67,9.67,0,0,0-1.82,1.9,7.62,7.62,0,0,0-1.16,2.38v12.76H714.2V303.85h2.48v4.72a9.79,9.79,0,0,1,3.66-3.68,10.07,10.07,0,0,1,5.18-1.4,6.21,6.21,0,0,1,2.92.64,5,5,0,0,1,1.92,1.8,8.27,8.27,0,0,1,1,2.84,20.23,20.23,0,0,1,.32,3.72Z"/><path d="M736.08,314.21a11.37,11.37,0,0,1,.76-4.16,10.58,10.58,0,0,1,2.14-3.42,10,10,0,0,1,3.3-2.3,10.45,10.45,0,0,1,4.24-.84,9.77,9.77,0,0,1,5.16,1.34,8.65,8.65,0,0,1,3.32,3.62l-2.64.84a6.43,6.43,0,0,0-2.46-2.5,6.94,6.94,0,0,0-3.5-.9,7.09,7.09,0,0,0-3,.64,7.7,7.7,0,0,0-2.4,1.74,8.16,8.16,0,0,0-1.6,2.62,9.64,9.64,0,0,0,0,6.64,8.53,8.53,0,0,0,1.64,2.7,7.77,7.77,0,0,0,2.42,1.8,6.73,6.73,0,0,0,2.94.66,7,7,0,0,0,2-.28,7.19,7.19,0,0,0,1.82-.78,6.36,6.36,0,0,0,1.44-1.14,3.65,3.65,0,0,0,.84-1.36l2.68.8a6.64,6.64,0,0,1-1.28,2.06,8.57,8.57,0,0,1-2,1.64,9.49,9.49,0,0,1-2.52,1.08,10.84,10.84,0,0,1-2.86.38,10.12,10.12,0,0,1-7.52-3.22,11,11,0,0,1-2.18-3.46A11.2,11.2,0,0,1,736.08,314.21Z"/><path d="M768.28,325.09a9.93,9.93,0,0,1-4.18-.86,10.12,10.12,0,0,1-3.3-2.36,11,11,0,0,1-2.18-3.46,11.2,11.2,0,0,1-.78-4.2,11,11,0,0,1,.78-4.14,10.83,10.83,0,0,1,2.16-3.4,10.41,10.41,0,0,1,3.3-2.32,10.15,10.15,0,0,1,11.6,2.34,11,11,0,0,1,2.88,7.48v.64a1.46,1.46,0,0,1,0,.44H760.68a8.74,8.74,0,0,0,.78,3.1,8.5,8.5,0,0,0,1.7,2.46,7.4,7.4,0,0,0,2.38,1.62,7.07,7.07,0,0,0,2.86.58,7.26,7.26,0,0,0,2-.28,7.74,7.74,0,0,0,1.84-.76,6.67,6.67,0,0,0,1.52-1.18,5,5,0,0,0,1-1.54l2.36.64a6.71,6.71,0,0,1-1.36,2.1,9.36,9.36,0,0,1-2,1.64,9.76,9.76,0,0,1-2.56,1.08A11.24,11.24,0,0,1,768.28,325.09ZM776,313.17a8.36,8.36,0,0,0-2.46-5.44,7.7,7.7,0,0,0-2.36-1.56,7.4,7.4,0,0,0-2.86-.56,7.49,7.49,0,0,0-5.26,2.12,7.69,7.69,0,0,0-1.64,2.4,9.23,9.23,0,0,0-.74,3Z"/><path d="M793,299.49v-4h2.72v4Zm0,25.2V303.85h2.72v20.84Z"/><path d="M811.68,323.69c-.16.08-.39.19-.7.32a10.38,10.38,0,0,1-1.06.4,9.86,9.86,0,0,1-1.36.36,7.55,7.55,0,0,1-1.6.16,5.78,5.78,0,0,1-1.68-.24,3.84,3.84,0,0,1-1.4-.74,3.58,3.58,0,0,1-1-1.26,4,4,0,0,1-.36-1.76V306h-2.88v-2.16h2.88v-7h2.72v7h4.8V306h-4.8v14.16a2.15,2.15,0,0,0,.82,1.7,2.8,2.8,0,0,0,1.7.54,5,5,0,0,0,2-.38,7.89,7.89,0,0,0,1.12-.54Z"/><path d="M822,325.09a14.29,14.29,0,0,1-4.76-.8,11.26,11.26,0,0,1-4-2.32l1.24-1.84a13.4,13.4,0,0,0,3.58,2.16,10.48,10.48,0,0,0,3.9.72,7,7,0,0,0,4-1,3.29,3.29,0,0,0,1.5-2.9,2.59,2.59,0,0,0-.4-1.46,3.65,3.65,0,0,0-1.18-1,9.5,9.5,0,0,0-2-.78c-.79-.22-1.7-.46-2.74-.7-1.2-.29-2.24-.58-3.12-.88a9.07,9.07,0,0,1-2.18-1,3.51,3.51,0,0,1-1.28-1.38,4.47,4.47,0,0,1-.42-2.06,5.85,5.85,0,0,1,.62-2.76,5.56,5.56,0,0,1,1.68-2,7.7,7.7,0,0,1,2.48-1.18,11.3,11.3,0,0,1,3-.4,11.71,11.71,0,0,1,4.36.78,8.63,8.63,0,0,1,3.16,2.06l-1.32,1.6a7.42,7.42,0,0,0-2.82-1.8,10.11,10.11,0,0,0-3.46-.6,8.94,8.94,0,0,0-2,.22,4.76,4.76,0,0,0-1.62.7,3.38,3.38,0,0,0-1.1,1.22,3.6,3.6,0,0,0-.4,1.74,2.81,2.81,0,0,0,.28,1.36,2.28,2.28,0,0,0,.92.9,6.92,6.92,0,0,0,1.62.68c.65.2,1.44.41,2.38.62,1.33.32,2.5.64,3.52,1a11.42,11.42,0,0,1,2.54,1.12,4.5,4.5,0,0,1,1.54,1.56,4.58,4.58,0,0,1,.52,2.24,5.45,5.45,0,0,1-2.2,4.56A9.52,9.52,0,0,1,822,325.09Z"/><path d="M855,325.09a8.58,8.58,0,0,1-4.54-1.24,9,9,0,0,1-3.22-3.2v4h-2.44v-29.2h2.72v12.72a11.91,11.91,0,0,1,3.36-3.42,8.08,8.08,0,0,1,4.56-1.3,8.36,8.36,0,0,1,3.94.92,9.5,9.5,0,0,1,3,2.46,11.69,11.69,0,0,1,1.88,3.48,12.31,12.31,0,0,1,.66,4,11.51,11.51,0,0,1-.76,4.16,10.93,10.93,0,0,1-2.08,3.42,9.76,9.76,0,0,1-3.14,2.32A9,9,0,0,1,855,325.09Zm-.64-2.4a7,7,0,0,0,3.14-.7,7.61,7.61,0,0,0,2.44-1.88,9,9,0,0,0,1.6-2.68,8.65,8.65,0,0,0,.58-3.1,9.41,9.41,0,0,0-.54-3.16,8.94,8.94,0,0,0-1.52-2.7,7.58,7.58,0,0,0-2.36-1.88,6.67,6.67,0,0,0-3-.7,6.33,6.33,0,0,0-2.32.42,7.78,7.78,0,0,0-2,1.14,9.2,9.2,0,0,0-1.64,1.66,10.67,10.67,0,0,0-1.2,2v6.48a4.3,4.3,0,0,0,.86,2,6.81,6.81,0,0,0,1.68,1.62,8.31,8.31,0,0,0,2.12,1.08A6.47,6.47,0,0,0,854.32,322.69Z"/><path d="M878.44,325.09a9.89,9.89,0,0,1-4.18-.86,10.12,10.12,0,0,1-3.3-2.36,10.81,10.81,0,0,1-2.18-3.46,11.2,11.2,0,0,1-.78-4.2,11,11,0,0,1,.78-4.14,10.83,10.83,0,0,1,2.16-3.4,10.41,10.41,0,0,1,3.3-2.32,10.54,10.54,0,0,1,8.34,0,10.24,10.24,0,0,1,3.26,2.34,11,11,0,0,1,2.88,7.48v.64a1.89,1.89,0,0,1,0,.44H870.84a8.74,8.74,0,0,0,.78,3.1,8.31,8.31,0,0,0,1.7,2.46,7.29,7.29,0,0,0,2.38,1.62,7,7,0,0,0,2.86.58,7.31,7.31,0,0,0,2-.28,7.91,7.91,0,0,0,1.84-.76,6.9,6.9,0,0,0,1.52-1.18,5,5,0,0,0,1-1.54l2.36.64A6.89,6.89,0,0,1,886,322a9.36,9.36,0,0,1-2,1.64,9.91,9.91,0,0,1-2.56,1.08A11.3,11.3,0,0,1,878.44,325.09Zm7.68-11.92a8.36,8.36,0,0,0-2.46-5.44,7.7,7.7,0,0,0-2.36-1.56,7.63,7.63,0,0,0-5.74,0,7.56,7.56,0,0,0-2.38,1.56,7.69,7.69,0,0,0-1.64,2.4,9,9,0,0,0-.74,3Z"/><path d="M901.28,325a8.59,8.59,0,0,1-3.94-.9,10,10,0,0,1-3.08-2.38,10.76,10.76,0,0,1-2-3.4,11.19,11.19,0,0,1-.72-4,12.25,12.25,0,0,1,.7-4.14,10.46,10.46,0,0,1,2-3.46,9.73,9.73,0,0,1,3.06-2.36,8.84,8.84,0,0,1,3.94-.88,8.07,8.07,0,0,1,4.64,1.34,13.17,13.17,0,0,1,3.36,3.38v-4.36h2.44v20.92a8.62,8.62,0,0,1-.82,3.82,8.25,8.25,0,0,1-2.2,2.78,9.25,9.25,0,0,1-3.24,1.68,13.74,13.74,0,0,1-3.94.56,11.49,11.49,0,0,1-5.8-1.28,10.11,10.11,0,0,1-3.56-3.44l1.68-1.32a7.44,7.44,0,0,0,3.28,2.94,10.31,10.31,0,0,0,4.4.94,9.74,9.74,0,0,0,2.88-.42,7.1,7.1,0,0,0,2.38-1.24,5.79,5.79,0,0,0,1.62-2.08,6.77,6.77,0,0,0,.6-2.94v-4.12a8.66,8.66,0,0,1-3.28,3.16A8.77,8.77,0,0,1,901.28,325Zm.76-2.28a6.49,6.49,0,0,0,2.36-.44,7.91,7.91,0,0,0,3.68-2.84,5.32,5.32,0,0,0,.84-1.88v-6.44a8.38,8.38,0,0,0-2.92-3.72,9,9,0,0,0-2.06-1.08,6.68,6.68,0,0,0-2.22-.4,6.56,6.56,0,0,0-3.14.74,7.59,7.59,0,0,0-2.34,1.94,8.6,8.6,0,0,0-1.46,2.72,9.64,9.64,0,0,0-.5,3.08,8.62,8.62,0,0,0,.6,3.2,8.25,8.25,0,0,0,1.66,2.66A7.82,7.82,0,0,0,899,322,7,7,0,0,0,902,322.69Z"/><path d="M917.64,299.49v-4h2.72v4Zm0,25.2V303.85h2.72v20.84Z"/><path d="M943.88,324.69h-2.72V313.05a10.19,10.19,0,0,0-1.1-5.4,3.77,3.77,0,0,0-3.38-1.68,7,7,0,0,0-2.4.44,8.36,8.36,0,0,0-2.22,1.24,9.67,9.67,0,0,0-1.82,1.9,7.41,7.41,0,0,0-1.16,2.38v12.76h-2.72V303.85h2.48v4.72a9.79,9.79,0,0,1,3.66-3.68,10,10,0,0,1,5.18-1.4,6.23,6.23,0,0,1,2.92.64,5,5,0,0,1,1.92,1.8,8.49,8.49,0,0,1,1,2.84,20.23,20.23,0,0,1,.32,3.72Z"/><path d="M967.2,324.69h-2.72V313.05a10.19,10.19,0,0,0-1.1-5.4A3.77,3.77,0,0,0,960,306a7,7,0,0,0-2.4.44,8.36,8.36,0,0,0-2.22,1.24,9.67,9.67,0,0,0-1.82,1.9,7.41,7.41,0,0,0-1.16,2.38v12.76h-2.72V303.85h2.48v4.72a9.79,9.79,0,0,1,3.66-3.68,10,10,0,0,1,5.18-1.4,6.23,6.23,0,0,1,2.92.64,5,5,0,0,1,1.92,1.8,8.49,8.49,0,0,1,1,2.84,20.23,20.23,0,0,1,.32,3.72Z"/><path d="M973,299.49v-4h2.72v4Zm0,25.2V303.85h2.72v20.84Z"/><path d="M999.24,324.69h-2.72V313.05a10.19,10.19,0,0,0-1.1-5.4A3.77,3.77,0,0,0,992,306a7,7,0,0,0-2.4.44,8.36,8.36,0,0,0-2.22,1.24,9.67,9.67,0,0,0-1.82,1.9,7.41,7.41,0,0,0-1.16,2.38v12.76h-2.72V303.85h2.48v4.72a9.79,9.79,0,0,1,3.66-3.68,10,10,0,0,1,5.18-1.4,6.23,6.23,0,0,1,2.92.64,5,5,0,0,1,1.92,1.8,8.49,8.49,0,0,1,1,2.84,20.23,20.23,0,0,1,.32,3.72Z"/><path d="M1013.4,325a8.59,8.59,0,0,1-3.94-.9,10,10,0,0,1-3.08-2.38,10.76,10.76,0,0,1-2-3.4,11.19,11.19,0,0,1-.72-4,12.25,12.25,0,0,1,.7-4.14,10.46,10.46,0,0,1,2-3.46,9.73,9.73,0,0,1,3.06-2.36,8.84,8.84,0,0,1,3.94-.88,8.07,8.07,0,0,1,4.64,1.34,13.17,13.17,0,0,1,3.36,3.38v-4.36h2.44v20.92a8.62,8.62,0,0,1-.82,3.82,8.25,8.25,0,0,1-2.2,2.78,9.25,9.25,0,0,1-3.24,1.68,13.74,13.74,0,0,1-3.94.56,11.49,11.49,0,0,1-5.8-1.28,10.11,10.11,0,0,1-3.56-3.44l1.68-1.32a7.44,7.44,0,0,0,3.28,2.94,10.31,10.31,0,0,0,4.4.94,9.74,9.74,0,0,0,2.88-.42,7.1,7.1,0,0,0,2.38-1.24,5.79,5.79,0,0,0,1.62-2.08,6.77,6.77,0,0,0,.6-2.94v-4.12a8.66,8.66,0,0,1-3.28,3.16A8.77,8.77,0,0,1,1013.4,325Zm.76-2.28a6.49,6.49,0,0,0,2.36-.44,7.91,7.91,0,0,0,3.68-2.84,5.32,5.32,0,0,0,.84-1.88v-6.44a8.38,8.38,0,0,0-2.92-3.72,9,9,0,0,0-2.06-1.08,6.68,6.68,0,0,0-2.22-.4,6.56,6.56,0,0,0-3.14.74,7.59,7.59,0,0,0-2.34,1.94,8.6,8.6,0,0,0-1.46,2.72,9.64,9.64,0,0,0-.5,3.08,8.62,8.62,0,0,0,.6,3.2,8.25,8.25,0,0,0,1.66,2.66,7.82,7.82,0,0,0,2.46,1.8A7,7,0,0,0,1014.16,322.69Z"/><path d="M1036.68,325.09a14.29,14.29,0,0,1-4.76-.8,11.26,11.26,0,0,1-4-2.32l1.24-1.84a13.4,13.4,0,0,0,3.58,2.16,10.48,10.48,0,0,0,3.9.72,7,7,0,0,0,4-1,3.29,3.29,0,0,0,1.5-2.9,2.59,2.59,0,0,0-.4-1.46,3.65,3.65,0,0,0-1.18-1,9.74,9.74,0,0,0-2-.78c-.79-.22-1.7-.46-2.74-.7-1.2-.29-2.24-.58-3.12-.88a9.07,9.07,0,0,1-2.18-1,3.51,3.51,0,0,1-1.28-1.38,4.47,4.47,0,0,1-.42-2.06,5.85,5.85,0,0,1,.62-2.76,5.56,5.56,0,0,1,1.68-2,7.6,7.6,0,0,1,2.48-1.18,11.3,11.3,0,0,1,3-.4,11.71,11.71,0,0,1,4.36.78,8.72,8.72,0,0,1,3.16,2.06l-1.32,1.6a7.42,7.42,0,0,0-2.82-1.8,10.11,10.11,0,0,0-3.46-.6,8.94,8.94,0,0,0-2,.22,4.76,4.76,0,0,0-1.62.7,3.38,3.38,0,0,0-1.1,1.22,3.6,3.6,0,0,0-.4,1.74,2.81,2.81,0,0,0,.28,1.36,2.28,2.28,0,0,0,.92.9,6.92,6.92,0,0,0,1.62.68c.65.2,1.44.41,2.38.62,1.33.32,2.5.64,3.52,1a11.42,11.42,0,0,1,2.54,1.12,4.5,4.5,0,0,1,1.54,1.56,4.58,4.58,0,0,1,.52,2.24,5.45,5.45,0,0,1-2.2,4.56A9.52,9.52,0,0,1,1036.68,325.09Z"/><path d="M1049,307.89V304h2.32v3.92Zm.24,20,.68-3.36H1049v-3.8h2.64v3.8l-1,3.36Z"/><path d="M1066.31,310.29a15.24,15.24,0,0,1,.9-5.1,14.37,14.37,0,0,1,2.62-4.54,13.53,13.53,0,0,1,4.24-3.26,12.63,12.63,0,0,1,5.72-1.26,11.89,11.89,0,0,1,6.5,1.72,10.46,10.46,0,0,1,4,4.48l-2.2,1.36a8.25,8.25,0,0,0-1.66-2.36,9,9,0,0,0-4.42-2.42,11.3,11.3,0,0,0-2.36-.26,9.57,9.57,0,0,0-4.52,1,10.65,10.65,0,0,0-3.3,2.72,12.07,12.07,0,0,0-2,3.78,13.85,13.85,0,0,0-.68,4.26,12.75,12.75,0,0,0,.82,4.52,13,13,0,0,0,2.24,3.82,10.75,10.75,0,0,0,3.36,2.64,9.16,9.16,0,0,0,4.22,1,10.6,10.6,0,0,0,2.46-.3,9.39,9.39,0,0,0,2.44-1,9.82,9.82,0,0,0,2.18-1.64,8.21,8.21,0,0,0,1.68-2.38l2.32,1.2a8.51,8.51,0,0,1-1.92,2.82,12.12,12.12,0,0,1-2.76,2.06,13.44,13.44,0,0,1-3.22,1.28,12.94,12.94,0,0,1-3.34.44,11.31,11.31,0,0,1-5.36-1.28,14.07,14.07,0,0,1-4.2-3.34,15.63,15.63,0,0,1-2.74-4.68A15.15,15.15,0,0,1,1066.31,310.29Z"/><path d="M1112.59,324.69h-2.72V313.05a9.36,9.36,0,0,0-1.22-5.32,4.07,4.07,0,0,0-3.58-1.76,6.25,6.25,0,0,0-2.3.46,8.78,8.78,0,0,0-2.14,1.26,9.17,9.17,0,0,0-1.74,1.88,8.08,8.08,0,0,0-1.1,2.36v12.76h-2.72v-29.2h2.72v13.08a9.57,9.57,0,0,1,3.44-3.72,9,9,0,0,1,4.76-1.36,6.39,6.39,0,0,1,3,.66,5.63,5.63,0,0,1,2,1.84,8,8,0,0,1,1.16,2.84,17.34,17.34,0,0,1,.36,3.66Z"/><path d="M1123.63,325.09a7.46,7.46,0,0,1-2.74-.5,6.84,6.84,0,0,1-2.2-1.38,6.22,6.22,0,0,1-2-4.6,5.24,5.24,0,0,1,.64-2.52,6.21,6.21,0,0,1,1.8-2,9,9,0,0,1,2.76-1.3,13,13,0,0,1,3.52-.46,19.88,19.88,0,0,1,3.24.28,14.5,14.5,0,0,1,2.92.8v-1.88a6,6,0,0,0-1.56-4.38,5.72,5.72,0,0,0-4.32-1.62,9.36,9.36,0,0,0-3.28.64A16,16,0,0,0,1119,308l-1-1.8a14.12,14.12,0,0,1,7.84-2.72,8.42,8.42,0,0,1,6.16,2.2,8.12,8.12,0,0,1,2.24,6.08v9.4c0,.75.34,1.12,1,1.12v2.4a6.44,6.44,0,0,1-1,.12,2.34,2.34,0,0,1-1.62-.52,2,2,0,0,1-.62-1.44l-.08-1.64a9.28,9.28,0,0,1-3.62,2.88A11.08,11.08,0,0,1,1123.63,325.09Zm.64-2.08a9.26,9.26,0,0,0,3.9-.8,6.3,6.3,0,0,0,2.7-2.12,2.49,2.49,0,0,0,.54-.78,2,2,0,0,0,.18-.78v-3.4a17.27,17.27,0,0,0-2.82-.8,16.27,16.27,0,0,0-3-.28,8.29,8.29,0,0,0-4.68,1.2,3.66,3.66,0,0,0-1.8,3.16,4.37,4.37,0,0,0,.38,1.8,4.63,4.63,0,0,0,1,1.46,4.79,4.79,0,0,0,1.58,1A5.37,5.37,0,0,0,1124.27,323Z"/><path d="M1171.19,324.69h-2.72V313.05a9.71,9.71,0,0,0-1.16-5.36,3.89,3.89,0,0,0-3.44-1.72,5.91,5.91,0,0,0-2.26.44,7.28,7.28,0,0,0-2,1.24,8.92,8.92,0,0,0-1.58,1.9,9.36,9.36,0,0,0-1,2.42v12.72h-2.72V313.05q0-3.72-1.12-5.4a3.84,3.84,0,0,0-3.44-1.68,6.16,6.16,0,0,0-4.2,1.64,9.31,9.31,0,0,0-2.64,4.32v12.76h-2.72V303.85h2.48v4.72a10,10,0,0,1,3.36-3.74,8.35,8.35,0,0,1,4.6-1.34,6,6,0,0,1,4.22,1.48,6.42,6.42,0,0,1,1.94,3.88q2.93-5.36,8-5.36a6.41,6.41,0,0,1,3,.64,5,5,0,0,1,2,1.82,8.33,8.33,0,0,1,1.08,2.84,18.28,18.28,0,0,1,.34,3.7Z"/><path d="M1187.59,325.09a8.19,8.19,0,0,1-4.66-1.34,10.73,10.73,0,0,1-3.26-3.38v12.84H1177V303.85h2.44v4a10.3,10.3,0,0,1,3.32-3.18,8.53,8.53,0,0,1,4.44-1.22,8.73,8.73,0,0,1,4,.9,10.18,10.18,0,0,1,3.12,2.4,11.49,11.49,0,0,1,2.8,7.5,12.39,12.39,0,0,1-.68,4.16,10.45,10.45,0,0,1-1.94,3.44,9.24,9.24,0,0,1-3,2.34A8.4,8.4,0,0,1,1187.59,325.09Zm-.76-2.4a6.51,6.51,0,0,0,3.06-.72,7.53,7.53,0,0,0,2.36-1.9,8.2,8.2,0,0,0,1.5-2.68,9.3,9.3,0,0,0,.52-3.1,8.66,8.66,0,0,0-.6-3.2,8.82,8.82,0,0,0-1.64-2.68,7.86,7.86,0,0,0-2.46-1.84,7,7,0,0,0-3.06-.68,6.32,6.32,0,0,0-2.18.42,9.35,9.35,0,0,0-2.12,1.12,7.93,7.93,0,0,0-1.68,1.64,4.56,4.56,0,0,0-.86,2v6.4a9.62,9.62,0,0,0,1.22,2.08,8.79,8.79,0,0,0,1.68,1.66,7.79,7.79,0,0,0,2,1.1A6.34,6.34,0,0,0,1186.83,322.69Z"/><path d="M1201.63,299.49v-4h2.72v4Zm0,25.2V303.85h2.72v20.84Z"/><path d="M1219.23,325.09a9.8,9.8,0,0,1-4.16-.86,10.16,10.16,0,0,1-3.26-2.34,10.57,10.57,0,0,1-2.14-3.44,11.41,11.41,0,0,1-.76-4.12,11.18,11.18,0,0,1,.78-4.16,11,11,0,0,1,2.16-3.44,10.69,10.69,0,0,1,3.26-2.36,10.13,10.13,0,0,1,8.26,0,10.54,10.54,0,0,1,3.28,2.36,11,11,0,0,1,2.16,3.44,11.52,11.52,0,0,1,0,8.28,10.4,10.4,0,0,1-2.14,3.44,10,10,0,0,1-3.28,2.34A9.89,9.89,0,0,1,1219.23,325.09Zm-7.56-10.72a8.67,8.67,0,0,0,.6,3.26,8.85,8.85,0,0,0,1.62,2.64,7.23,7.23,0,0,0,2.4,1.78,6.85,6.85,0,0,0,2.94.64,6.73,6.73,0,0,0,2.94-.66,7.77,7.77,0,0,0,2.42-1.8,8.38,8.38,0,0,0,1.64-2.66,8.82,8.82,0,0,0,.6-3.28,8.94,8.94,0,0,0-.6-3.26,8.47,8.47,0,0,0-1.64-2.68,7.77,7.77,0,0,0-2.42-1.8,6.73,6.73,0,0,0-2.94-.66,6.61,6.61,0,0,0-2.92.66,8,8,0,0,0-2.4,1.82,8.95,8.95,0,0,0-2.24,6Z"/><path d="M1251.67,324.69H1249V313.05a10.19,10.19,0,0,0-1.1-5.4,3.75,3.75,0,0,0-3.38-1.68,7,7,0,0,0-2.4.44,8.36,8.36,0,0,0-2.22,1.24,9.67,9.67,0,0,0-1.82,1.9,7.62,7.62,0,0,0-1.16,2.38v12.76h-2.72V303.85h2.48v4.72a9.86,9.86,0,0,1,3.66-3.68,10.07,10.07,0,0,1,5.18-1.4,6.21,6.21,0,0,1,2.92.64,5,5,0,0,1,1.92,1.8,8.27,8.27,0,0,1,1,2.84,20.23,20.23,0,0,1,.32,3.72Z"/><path d="M1287.27,298.77h-10.12v25.92h-2.8V298.77h-10.12v-2.48h23Z"/><path d="M1297,306.25a8.61,8.61,0,0,0-4.8,1.52,7.66,7.66,0,0,0-2.88,4v13h-2.72V303.85h2.56v5a9.45,9.45,0,0,1,3.12-3.76,7.29,7.29,0,0,1,4.2-1.36,3.33,3.33,0,0,1,.52,0Z"/><path d="M1308.43,325.09a9.8,9.8,0,0,1-4.16-.86,10.16,10.16,0,0,1-3.26-2.34,10.57,10.57,0,0,1-2.14-3.44,11.41,11.41,0,0,1-.76-4.12,11.18,11.18,0,0,1,.78-4.16,11,11,0,0,1,2.16-3.44,10.69,10.69,0,0,1,3.26-2.36,10.13,10.13,0,0,1,8.26,0,10.54,10.54,0,0,1,3.28,2.36,11,11,0,0,1,2.16,3.44,11.52,11.52,0,0,1,0,8.28,10.4,10.4,0,0,1-2.14,3.44,10,10,0,0,1-3.28,2.34A9.89,9.89,0,0,1,1308.43,325.09Zm-7.56-10.72a8.67,8.67,0,0,0,.6,3.26,8.85,8.85,0,0,0,1.62,2.64,7.23,7.23,0,0,0,2.4,1.78,6.85,6.85,0,0,0,2.94.64,6.73,6.73,0,0,0,2.94-.66,7.77,7.77,0,0,0,2.42-1.8,8.38,8.38,0,0,0,1.64-2.66,8.82,8.82,0,0,0,.6-3.28,8.94,8.94,0,0,0-.6-3.26,8.47,8.47,0,0,0-1.64-2.68,7.77,7.77,0,0,0-2.42-1.8,6.73,6.73,0,0,0-2.94-.66,6.61,6.61,0,0,0-2.92.66,8,8,0,0,0-2.4,1.82,8.95,8.95,0,0,0-2.24,6Z"/><path d="M1334,325.09a8.19,8.19,0,0,1-4.66-1.34,10.62,10.62,0,0,1-3.26-3.38v12.84h-2.72V303.85h2.44v4a10.2,10.2,0,0,1,3.32-3.18,8.53,8.53,0,0,1,4.44-1.22,8.73,8.73,0,0,1,4,.9,10.18,10.18,0,0,1,3.12,2.4,11.15,11.15,0,0,1,2.06,3.46,11.46,11.46,0,0,1,.74,4,12.65,12.65,0,0,1-.68,4.16,10.45,10.45,0,0,1-1.94,3.44,9.24,9.24,0,0,1-3,2.34A8.4,8.4,0,0,1,1334,325.09Zm-.76-2.4a6.51,6.51,0,0,0,3.06-.72,7.53,7.53,0,0,0,2.36-1.9,8.58,8.58,0,0,0,1.5-2.68,9.3,9.3,0,0,0,.52-3.1,8.66,8.66,0,0,0-.6-3.2,9,9,0,0,0-1.64-2.68,7.86,7.86,0,0,0-2.46-1.84,7.06,7.06,0,0,0-3.06-.68,6.32,6.32,0,0,0-2.18.42,9.14,9.14,0,0,0-2.12,1.12,7.93,7.93,0,0,0-1.68,1.64,4.45,4.45,0,0,0-.86,2v6.4a9.62,9.62,0,0,0,1.22,2.08,8.25,8.25,0,0,0,1.68,1.66,7.79,7.79,0,0,0,2,1.1A6.34,6.34,0,0,0,1333.23,322.69Z"/><path d="M1365.55,324.69h-2.72V313.05a9.44,9.44,0,0,0-1.22-5.32A4.09,4.09,0,0,0,1358,306a6.25,6.25,0,0,0-2.3.46,8.78,8.78,0,0,0-2.14,1.26,8.65,8.65,0,0,0-1.74,1.88,8.08,8.08,0,0,0-1.1,2.36v12.76H1348v-29.2h2.72v13.08a9.49,9.49,0,0,1,3.44-3.72,9,9,0,0,1,4.76-1.36,6.41,6.41,0,0,1,3,.66,5.63,5.63,0,0,1,2,1.84,8.19,8.19,0,0,1,1.16,2.84,17.34,17.34,0,0,1,.36,3.66Z"/><path d="M1371.35,299.49v-4h2.72v4Zm0,25.2V303.85h2.72v20.84Z"/><path d="M1389.07,325.09a9.93,9.93,0,0,1-4.18-.86,10.12,10.12,0,0,1-3.3-2.36,11,11,0,0,1-2.18-3.46,11.2,11.2,0,0,1-.78-4.2,11,11,0,0,1,.78-4.14,10.83,10.83,0,0,1,2.16-3.4,10.41,10.41,0,0,1,3.3-2.32,10.15,10.15,0,0,1,11.6,2.34,11,11,0,0,1,2.88,7.48v.64a1.46,1.46,0,0,1,0,.44h-17.84a8.74,8.74,0,0,0,.78,3.1,8.5,8.5,0,0,0,1.7,2.46,7.4,7.4,0,0,0,2.38,1.62,7.07,7.07,0,0,0,2.86.58,7.26,7.26,0,0,0,2-.28A7.74,7.74,0,0,0,1393,322a6.67,6.67,0,0,0,1.52-1.18,5,5,0,0,0,1-1.54l2.36.64a6.71,6.71,0,0,1-1.36,2.1,9.36,9.36,0,0,1-2,1.64,9.76,9.76,0,0,1-2.56,1.08A11.24,11.24,0,0,1,1389.07,325.09Zm7.68-11.92a8.36,8.36,0,0,0-2.46-5.44,7.7,7.7,0,0,0-2.36-1.56,7.4,7.4,0,0,0-2.86-.56,7.49,7.49,0,0,0-5.26,2.12,7.69,7.69,0,0,0-1.64,2.4,9.23,9.23,0,0,0-.74,3Z"/><path d="M1410.47,325.09a14.33,14.33,0,0,1-4.76-.8,11.26,11.26,0,0,1-4-2.32l1.24-1.84a13.56,13.56,0,0,0,3.58,2.16,10.48,10.48,0,0,0,3.9.72,7,7,0,0,0,4-1,3.29,3.29,0,0,0,1.5-2.9,2.51,2.51,0,0,0-.4-1.46,3.65,3.65,0,0,0-1.18-1,9.5,9.5,0,0,0-2-.78c-.79-.22-1.7-.46-2.74-.7-1.2-.29-2.24-.58-3.12-.88a9.07,9.07,0,0,1-2.18-1,3.59,3.59,0,0,1-1.28-1.38,4.47,4.47,0,0,1-.42-2.06,6,6,0,0,1,.62-2.76,5.56,5.56,0,0,1,1.68-2,7.7,7.7,0,0,1,2.48-1.18,11.36,11.36,0,0,1,3-.4,11.71,11.71,0,0,1,4.36.78,8.63,8.63,0,0,1,3.16,2.06l-1.32,1.6a7.27,7.27,0,0,0-2.82-1.8,10.11,10.11,0,0,0-3.46-.6,8.94,8.94,0,0,0-2,.22,4.94,4.94,0,0,0-1.62.7,3.48,3.48,0,0,0-1.1,1.22,3.6,3.6,0,0,0-.4,1.74,2.81,2.81,0,0,0,.28,1.36,2.34,2.34,0,0,0,.92.9,7.31,7.31,0,0,0,1.62.68c.65.2,1.45.41,2.38.62,1.33.32,2.51.64,3.52,1a11.42,11.42,0,0,1,2.54,1.12,4.13,4.13,0,0,1,2.06,3.8,5.42,5.42,0,0,1-2.2,4.56A9.52,9.52,0,0,1,1410.47,325.09Z"/><path d="M1453.07,324.69l-3.28-3.44a12.51,12.51,0,0,1-3.86,2.82,11.5,11.5,0,0,1-8.28.46,8.72,8.72,0,0,1-2.88-1.58,7.68,7.68,0,0,1-1.94-2.44,6.81,6.81,0,0,1-.72-3.14,7,7,0,0,1,.48-2.64,8.36,8.36,0,0,1,1.32-2.22,13.81,13.81,0,0,1,1.92-1.9q1.08-.87,2.28-1.68c-.72-.77-1.33-1.46-1.82-2.08a15.12,15.12,0,0,1-1.2-1.7,6,6,0,0,1-.66-1.5,5.76,5.76,0,0,1,.34-3.94,6,6,0,0,1,1.5-2,7.12,7.12,0,0,1,2.26-1.32,8.11,8.11,0,0,1,2.82-.48,8.38,8.38,0,0,1,2.6.4,6.64,6.64,0,0,1,2.1,1.14,5.56,5.56,0,0,1,1.42,1.78,5,5,0,0,1,.52,2.28,5.1,5.1,0,0,1-.5,2.26,8.13,8.13,0,0,1-1.34,1.94,13.5,13.5,0,0,1-2,1.76q-1.12.84-2.4,1.68l8,8.32a15.46,15.46,0,0,0,1.26-3.3,14.68,14.68,0,0,0,.46-3.74h2.32a18.49,18.49,0,0,1-.66,4.68,15.18,15.18,0,0,1-1.78,4l5.32,5.52Zm-11.6-1.8a8.21,8.21,0,0,0,3.76-.86,9.64,9.64,0,0,0,3-2.38l-8.6-9.08a19.09,19.09,0,0,0-3.52,3.1,5.62,5.62,0,0,0-1.4,3.78,4.62,4.62,0,0,0,.58,2.34,5.4,5.4,0,0,0,1.54,1.72,6.56,6.56,0,0,0,2.16,1A8.77,8.77,0,0,0,1441.47,322.89Zm-4.72-20.8a3.54,3.54,0,0,0,.14,1,4.09,4.09,0,0,0,.54,1.1,16.11,16.11,0,0,0,1.06,1.44c.44.55,1,1.2,1.74,1.94a28.41,28.41,0,0,0,3.78-2.86,4.06,4.06,0,0,0,1.46-3.06,3.24,3.24,0,0,0-1.16-2.56,4.4,4.4,0,0,0-3-1,5.19,5.19,0,0,0-1.84.32,4.74,4.74,0,0,0-1.46.88,4.22,4.22,0,0,0-1,1.28A3.56,3.56,0,0,0,1436.75,302.09Z"/><path d="M1478.23,296.29h2.36l11.8,28.4h-3l-3.68-8.88H1473l-3.64,8.88h-3Zm6.88,17.32-5.72-14-5.8,14Z"/><path d="M1520.83,303.85h2.68l-9,20.84h-2.24l-4.48-10.64-4.44,10.64h-2.24l-9-20.84h2.64l7.6,18,4-9.52-3.56-8.48h2.28l2.72,6.8,2.72-6.8h2.32l-3.56,8.48,4,9.52Z"/><path d="M1531.83,325.09a7.42,7.42,0,0,1-2.74-.5,6.84,6.84,0,0,1-2.2-1.38,6.22,6.22,0,0,1-2-4.6,5.13,5.13,0,0,1,.64-2.52,6.21,6.21,0,0,1,1.8-2,8.82,8.82,0,0,1,2.76-1.3,13,13,0,0,1,3.52-.46,19.88,19.88,0,0,1,3.24.28,14.69,14.69,0,0,1,2.92.8v-1.88a6,6,0,0,0-1.56-4.38,5.72,5.72,0,0,0-4.32-1.62,9.31,9.31,0,0,0-3.28.64,16,16,0,0,0-3.4,1.84l-1-1.8a14.1,14.1,0,0,1,7.84-2.72,8.44,8.44,0,0,1,6.16,2.2,8.16,8.16,0,0,1,2.24,6.08v9.4c0,.75.33,1.12,1,1.12v2.4a6.44,6.44,0,0,1-1,.12,2.34,2.34,0,0,1-1.62-.52,1.93,1.93,0,0,1-.62-1.44l-.08-1.64a9.35,9.35,0,0,1-3.62,2.88A11.08,11.08,0,0,1,1531.83,325.09Zm.64-2.08a9.32,9.32,0,0,0,3.9-.8,6.3,6.3,0,0,0,2.7-2.12,2.49,2.49,0,0,0,.54-.78,2,2,0,0,0,.18-.78v-3.4a17.85,17.85,0,0,0-2.82-.8,16.36,16.36,0,0,0-3-.28,8.29,8.29,0,0,0-4.68,1.2,3.66,3.66,0,0,0-1.8,3.16,4.37,4.37,0,0,0,.38,1.8,4.48,4.48,0,0,0,1,1.46,4.79,4.79,0,0,0,1.58,1A5.33,5.33,0,0,0,1532.47,323Z"/><path d="M1558.79,306.25a8.61,8.61,0,0,0-4.8,1.52,7.66,7.66,0,0,0-2.88,4v13h-2.72V303.85H1551v5a9.45,9.45,0,0,1,3.12-3.76,7.29,7.29,0,0,1,4.2-1.36,3.44,3.44,0,0,1,.52,0Z"/><path d="M1570,325.09a9,9,0,0,1-4-.9,10.09,10.09,0,0,1-3.16-2.38,10.74,10.74,0,0,1-2.06-3.42,11.33,11.33,0,0,1-.74-4.06,12.16,12.16,0,0,1,.72-4.18,11.21,11.21,0,0,1,2-3.46,9.52,9.52,0,0,1,3-2.34,8.54,8.54,0,0,1,3.82-.86,8.15,8.15,0,0,1,4.68,1.38,10.48,10.48,0,0,1,3.2,3.34V295.49h2.72v25.68c0,.75.32,1.12,1,1.12v2.4a5.16,5.16,0,0,1-1,.12,2.46,2.46,0,0,1-1.68-.62,1.9,1.9,0,0,1-.72-1.5v-2a9.16,9.16,0,0,1-3.36,3.24A8.81,8.81,0,0,1,1570,325.09Zm.6-2.4a6.38,6.38,0,0,0,2.14-.4,8.51,8.51,0,0,0,2.14-1.1,7.17,7.17,0,0,0,1.7-1.64,4.41,4.41,0,0,0,.86-2v-6.44a7.2,7.2,0,0,0-1.16-2,9.78,9.78,0,0,0-1.74-1.66,8.17,8.17,0,0,0-2.1-1.12,6.7,6.7,0,0,0-2.2-.4,6.4,6.4,0,0,0-3,.72,7.71,7.71,0,0,0-2.34,1.9,8.68,8.68,0,0,0-1.5,2.7,9.55,9.55,0,0,0-.52,3.12,8.74,8.74,0,0,0,2.24,5.86,7.8,7.8,0,0,0,2.46,1.82A6.92,6.92,0,0,0,1570.55,322.69Z"/><path d="M1593.19,325.09a14.33,14.33,0,0,1-4.76-.8,11.26,11.26,0,0,1-4-2.32l1.24-1.84a13.56,13.56,0,0,0,3.58,2.16,10.48,10.48,0,0,0,3.9.72,7,7,0,0,0,4-1,3.29,3.29,0,0,0,1.5-2.9,2.51,2.51,0,0,0-.4-1.46,3.65,3.65,0,0,0-1.18-1,9.5,9.5,0,0,0-2-.78c-.79-.22-1.7-.46-2.74-.7-1.2-.29-2.24-.58-3.12-.88a9.07,9.07,0,0,1-2.18-1,3.59,3.59,0,0,1-1.28-1.38,4.47,4.47,0,0,1-.42-2.06,6,6,0,0,1,.62-2.76,5.56,5.56,0,0,1,1.68-2,7.7,7.7,0,0,1,2.48-1.18,11.36,11.36,0,0,1,3-.4,11.71,11.71,0,0,1,4.36.78,8.63,8.63,0,0,1,3.16,2.06l-1.32,1.6a7.27,7.27,0,0,0-2.82-1.8,10.11,10.11,0,0,0-3.46-.6,8.94,8.94,0,0,0-2,.22,4.94,4.94,0,0,0-1.62.7,3.48,3.48,0,0,0-1.1,1.22,3.6,3.6,0,0,0-.4,1.74,2.81,2.81,0,0,0,.28,1.36,2.34,2.34,0,0,0,.92.9,7.31,7.31,0,0,0,1.62.68c.65.2,1.45.41,2.38.62,1.33.32,2.51.64,3.52,1a11.42,11.42,0,0,1,2.54,1.12,4.13,4.13,0,0,1,2.06,3.8,5.42,5.42,0,0,1-2.2,4.56A9.52,9.52,0,0,1,1593.19,325.09Z"/><path d="M1633.47,324.69h-2.72V313.05a9.44,9.44,0,0,0-1.22-5.32A4.09,4.09,0,0,0,1626,306a6.25,6.25,0,0,0-2.3.46,8.78,8.78,0,0,0-2.14,1.26,8.65,8.65,0,0,0-1.74,1.88,8.08,8.08,0,0,0-1.1,2.36v12.76H1616v-29.2h2.72v13.08a9.49,9.49,0,0,1,3.44-3.72,9,9,0,0,1,4.76-1.36,6.41,6.41,0,0,1,3,.66,5.63,5.63,0,0,1,2,1.84,8.19,8.19,0,0,1,1.16,2.84,17.34,17.34,0,0,1,.36,3.66Z"/><path d="M1644.51,325.09a7.42,7.42,0,0,1-2.74-.5,6.84,6.84,0,0,1-2.2-1.38,6.22,6.22,0,0,1-2-4.6,5.13,5.13,0,0,1,.64-2.52,6.21,6.21,0,0,1,1.8-2,8.82,8.82,0,0,1,2.76-1.3,13,13,0,0,1,3.52-.46,19.88,19.88,0,0,1,3.24.28,14.69,14.69,0,0,1,2.92.8v-1.88a6,6,0,0,0-1.56-4.38,5.72,5.72,0,0,0-4.32-1.62,9.31,9.31,0,0,0-3.28.64,16,16,0,0,0-3.4,1.84l-1-1.8a14.1,14.1,0,0,1,7.84-2.72,8.44,8.44,0,0,1,6.16,2.2,8.16,8.16,0,0,1,2.24,6.08v9.4c0,.75.33,1.12,1,1.12v2.4a6.44,6.44,0,0,1-1,.12,2.34,2.34,0,0,1-1.62-.52,1.93,1.93,0,0,1-.62-1.44l-.08-1.64a9.35,9.35,0,0,1-3.62,2.88A11.08,11.08,0,0,1,1644.51,325.09Zm.64-2.08a9.32,9.32,0,0,0,3.9-.8,6.3,6.3,0,0,0,2.7-2.12,2.49,2.49,0,0,0,.54-.78,2,2,0,0,0,.18-.78v-3.4a17.85,17.85,0,0,0-2.82-.8,16.36,16.36,0,0,0-3-.28,8.29,8.29,0,0,0-4.68,1.2,3.66,3.66,0,0,0-1.8,3.16,4.37,4.37,0,0,0,.38,1.8,4.48,4.48,0,0,0,1,1.46,4.79,4.79,0,0,0,1.58,1A5.33,5.33,0,0,0,1645.15,323Z"/><path d="M1668,325.09a14.29,14.29,0,0,1-4.76-.8,11.26,11.26,0,0,1-4-2.32l1.24-1.84a13.4,13.4,0,0,0,3.58,2.16,10.48,10.48,0,0,0,3.9.72,7,7,0,0,0,4-1,3.29,3.29,0,0,0,1.5-2.9,2.59,2.59,0,0,0-.4-1.46,3.65,3.65,0,0,0-1.18-1,9.5,9.5,0,0,0-2-.78c-.79-.22-1.7-.46-2.74-.7-1.2-.29-2.24-.58-3.12-.88a9.07,9.07,0,0,1-2.18-1,3.51,3.51,0,0,1-1.28-1.38,4.47,4.47,0,0,1-.42-2.06,6,6,0,0,1,.62-2.76,5.56,5.56,0,0,1,1.68-2,7.7,7.7,0,0,1,2.48-1.18,11.36,11.36,0,0,1,3-.4,11.71,11.71,0,0,1,4.36.78,8.63,8.63,0,0,1,3.16,2.06l-1.32,1.6a7.27,7.27,0,0,0-2.82-1.8,10.11,10.11,0,0,0-3.46-.6,8.94,8.94,0,0,0-2,.22,4.76,4.76,0,0,0-1.62.7,3.48,3.48,0,0,0-1.1,1.22,3.6,3.6,0,0,0-.4,1.74,2.81,2.81,0,0,0,.28,1.36,2.28,2.28,0,0,0,.92.9,7.31,7.31,0,0,0,1.62.68c.65.2,1.45.41,2.38.62,1.33.32,2.51.64,3.52,1a11.42,11.42,0,0,1,2.54,1.12,4.13,4.13,0,0,1,2.06,3.8,5.45,5.45,0,0,1-2.2,4.56A9.52,9.52,0,0,1,1668,325.09Z"/><path d="M171.09,373.09a8.58,8.58,0,0,1-4.54-1.24,9,9,0,0,1-3.22-3.2v4h-2.44v-29.2h2.72v12.72a11.91,11.91,0,0,1,3.36-3.42,8.08,8.08,0,0,1,4.56-1.3,8.36,8.36,0,0,1,3.94.92,9.5,9.5,0,0,1,3,2.46,11.69,11.69,0,0,1,1.88,3.48,12.31,12.31,0,0,1,.66,4,11.51,11.51,0,0,1-.76,4.16,10.93,10.93,0,0,1-2.08,3.42,9.76,9.76,0,0,1-3.14,2.32A9,9,0,0,1,171.09,373.09Zm-.64-2.4a7,7,0,0,0,3.14-.7,7.61,7.61,0,0,0,2.44-1.88,9,9,0,0,0,1.6-2.68,8.65,8.65,0,0,0,.58-3.1,9.41,9.41,0,0,0-.54-3.16,8.94,8.94,0,0,0-1.52-2.7,7.58,7.58,0,0,0-2.36-1.88,6.67,6.67,0,0,0-3-.7,6.33,6.33,0,0,0-2.32.42,7.78,7.78,0,0,0-2,1.14,9.2,9.2,0,0,0-1.64,1.66,10.67,10.67,0,0,0-1.2,2v6.48a4.3,4.3,0,0,0,.86,2,6.81,6.81,0,0,0,1.68,1.62,8.31,8.31,0,0,0,2.12,1.08A6.47,6.47,0,0,0,170.45,370.69Z"/><path d="M194.57,373.09a9.89,9.89,0,0,1-4.18-.86,10.12,10.12,0,0,1-3.3-2.36,10.81,10.81,0,0,1-2.18-3.46,11.2,11.2,0,0,1-.78-4.2,11,11,0,0,1,.78-4.14,10.83,10.83,0,0,1,2.16-3.4,10.41,10.41,0,0,1,3.3-2.32,10.54,10.54,0,0,1,8.34,0,10.24,10.24,0,0,1,3.26,2.34,11,11,0,0,1,2.88,7.48v.64a1.89,1.89,0,0,1,0,.44H187a8.74,8.74,0,0,0,.78,3.1,8.31,8.31,0,0,0,1.7,2.46,7.29,7.29,0,0,0,2.38,1.62,7,7,0,0,0,2.86.58,7.31,7.31,0,0,0,2-.28,7.91,7.91,0,0,0,1.84-.76,6.9,6.9,0,0,0,1.52-1.18,5,5,0,0,0,1-1.54l2.36.64a6.89,6.89,0,0,1-1.36,2.1,9.36,9.36,0,0,1-2,1.64,9.91,9.91,0,0,1-2.56,1.08A11.3,11.3,0,0,1,194.57,373.09Zm7.68-11.92a8.36,8.36,0,0,0-2.46-5.44,7.7,7.7,0,0,0-2.36-1.56,7.63,7.63,0,0,0-5.74,0,7.56,7.56,0,0,0-2.38,1.56,7.69,7.69,0,0,0-1.64,2.4,9,9,0,0,0-.74,3Z"/><path d="M218.05,373.09a9.89,9.89,0,0,1-4.18-.86,10.12,10.12,0,0,1-3.3-2.36,10.81,10.81,0,0,1-2.18-3.46,11.2,11.2,0,0,1-.78-4.2,11,11,0,0,1,.78-4.14,10.83,10.83,0,0,1,2.16-3.4,10.41,10.41,0,0,1,3.3-2.32,10.54,10.54,0,0,1,8.34,0,10.24,10.24,0,0,1,3.26,2.34,11,11,0,0,1,2.88,7.48v.64a1.89,1.89,0,0,1,0,.44H210.45a8.74,8.74,0,0,0,.78,3.1,8.31,8.31,0,0,0,1.7,2.46,7.29,7.29,0,0,0,2.38,1.62,7,7,0,0,0,2.86.58,7.31,7.31,0,0,0,2-.28A7.91,7.91,0,0,0,222,370a6.9,6.9,0,0,0,1.52-1.18,5,5,0,0,0,1-1.54l2.36.64a6.89,6.89,0,0,1-1.36,2.1,9.36,9.36,0,0,1-2,1.64,9.91,9.91,0,0,1-2.56,1.08A11.3,11.3,0,0,1,218.05,373.09Zm7.68-11.92a8.36,8.36,0,0,0-2.46-5.44,7.7,7.7,0,0,0-2.36-1.56,7.63,7.63,0,0,0-5.74,0,7.56,7.56,0,0,0-2.38,1.56,7.69,7.69,0,0,0-1.64,2.4,9,9,0,0,0-.74,3Z"/><path d="M250.05,372.69h-2.72V361.05a10.19,10.19,0,0,0-1.1-5.4,3.77,3.77,0,0,0-3.38-1.68,7,7,0,0,0-2.4.44,8.36,8.36,0,0,0-2.22,1.24,9.67,9.67,0,0,0-1.82,1.9,7.41,7.41,0,0,0-1.16,2.38v12.76h-2.72V351.85H235v4.72a9.79,9.79,0,0,1,3.66-3.68,10,10,0,0,1,5.18-1.4,6.23,6.23,0,0,1,2.92.64,5,5,0,0,1,1.92,1.8,8.49,8.49,0,0,1,1,2.84,20.23,20.23,0,0,1,.32,3.72Z"/><path d="M276,371.69c-.16.08-.39.19-.7.32a9.34,9.34,0,0,1-1,.4,10.42,10.42,0,0,1-1.37.36,7.48,7.48,0,0,1-1.6.16,5.76,5.76,0,0,1-1.67-.24,3.76,3.76,0,0,1-1.4-.74,3.36,3.36,0,0,1-1-1.26,3.9,3.9,0,0,1-.37-1.76V354H264v-2.16h2.88v-7h2.73v7h4.79V354h-4.79v14.16a2.14,2.14,0,0,0,.81,1.7,2.83,2.83,0,0,0,1.71.54,5,5,0,0,0,2-.38,7.57,7.57,0,0,0,1.11-.54Z"/><path d="M297,372.69h-2.72V361.05a9.36,9.36,0,0,0-1.22-5.32,4.07,4.07,0,0,0-3.58-1.76,6.16,6.16,0,0,0-2.29.46,8.66,8.66,0,0,0-2.15,1.26,9.17,9.17,0,0,0-1.74,1.88,7.81,7.81,0,0,0-1.09,2.36v12.76h-2.73v-29.2h2.73v13.08a9.47,9.47,0,0,1,3.43-3.72,9,9,0,0,1,4.76-1.36,6.39,6.39,0,0,1,3,.66,5.63,5.63,0,0,1,2,1.84,8,8,0,0,1,1.16,2.84,17.34,17.34,0,0,1,.36,3.66Z"/><path d="M311.76,373.09a9.93,9.93,0,0,1-4.18-.86,10.34,10.34,0,0,1-3.3-2.36,11,11,0,0,1-2.18-3.46,11.2,11.2,0,0,1-.78-4.2,11,11,0,0,1,.78-4.14,10.83,10.83,0,0,1,2.16-3.4,10.41,10.41,0,0,1,3.3-2.32,10.15,10.15,0,0,1,11.6,2.34,10.77,10.77,0,0,1,2.12,3.4,10.92,10.92,0,0,1,.76,4.08v.64a1.46,1.46,0,0,1,0,.44H304.16a8.74,8.74,0,0,0,.78,3.1,8.5,8.5,0,0,0,1.7,2.46,7.51,7.51,0,0,0,2.38,1.62,7.1,7.1,0,0,0,2.86.58,7.21,7.21,0,0,0,2-.28,7.74,7.74,0,0,0,1.84-.76,6.67,6.67,0,0,0,1.52-1.18,4.87,4.87,0,0,0,1-1.54l2.36.64a6.71,6.71,0,0,1-1.36,2.1,8.9,8.9,0,0,1-2,1.64,9.62,9.62,0,0,1-2.56,1.08A11.18,11.18,0,0,1,311.76,373.09Zm7.68-11.92a8.36,8.36,0,0,0-2.46-5.44,7.58,7.58,0,0,0-2.36-1.56,7.37,7.37,0,0,0-2.86-.56,7.58,7.58,0,0,0-2.88.56,7.67,7.67,0,0,0-2.38,1.56,7.86,7.86,0,0,0-1.64,2.4,9.23,9.23,0,0,0-.74,3Z"/><path d="M347.08,373.09a8.19,8.19,0,0,1-4.66-1.34,10.73,10.73,0,0,1-3.26-3.38v12.84h-2.72V351.85h2.44v4a10.3,10.3,0,0,1,3.32-3.18,8.53,8.53,0,0,1,4.44-1.22,8.73,8.73,0,0,1,4,.9,10.18,10.18,0,0,1,3.12,2.4,11.49,11.49,0,0,1,2.8,7.5,12.39,12.39,0,0,1-.68,4.16,10.45,10.45,0,0,1-1.94,3.44,9.24,9.24,0,0,1-3,2.34A8.4,8.4,0,0,1,347.08,373.09Zm-.76-2.4a6.51,6.51,0,0,0,3.06-.72,7.53,7.53,0,0,0,2.36-1.9,8.2,8.2,0,0,0,1.5-2.68,9.3,9.3,0,0,0,.52-3.1,8.66,8.66,0,0,0-.6-3.2,8.82,8.82,0,0,0-1.64-2.68,7.86,7.86,0,0,0-2.46-1.84,7,7,0,0,0-3.06-.68,6.32,6.32,0,0,0-2.18.42,9.35,9.35,0,0,0-2.12,1.12,7.93,7.93,0,0,0-1.68,1.64,4.56,4.56,0,0,0-.86,2v6.4a9.62,9.62,0,0,0,1.22,2.08,8.79,8.79,0,0,0,1.68,1.66,7.79,7.79,0,0,0,2,1.1A6.34,6.34,0,0,0,346.32,370.69Z"/><path d="M371.52,354.25a8.61,8.61,0,0,0-4.8,1.52,7.66,7.66,0,0,0-2.88,4v13h-2.72V351.85h2.56v5a9.61,9.61,0,0,1,3.12-3.76,7.29,7.29,0,0,1,4.2-1.36,3.33,3.33,0,0,1,.52,0Z"/><path d="M383.12,373.09a9.93,9.93,0,0,1-4.18-.86,10.34,10.34,0,0,1-3.3-2.36,11,11,0,0,1-2.18-3.46,11.2,11.2,0,0,1-.78-4.2,11,11,0,0,1,.78-4.14,10.83,10.83,0,0,1,2.16-3.4,10.41,10.41,0,0,1,3.3-2.32,10.15,10.15,0,0,1,11.6,2.34,10.77,10.77,0,0,1,2.12,3.4,10.92,10.92,0,0,1,.76,4.08v.64a1.46,1.46,0,0,1,0,.44H375.52a8.74,8.74,0,0,0,.78,3.1,8.5,8.5,0,0,0,1.7,2.46,7.51,7.51,0,0,0,2.38,1.62,7.1,7.1,0,0,0,2.86.58,7.21,7.21,0,0,0,2-.28,7.74,7.74,0,0,0,1.84-.76,6.67,6.67,0,0,0,1.52-1.18,4.87,4.87,0,0,0,1-1.54l2.36.64a6.71,6.71,0,0,1-1.36,2.1,8.9,8.9,0,0,1-2,1.64,9.62,9.62,0,0,1-2.56,1.08A11.18,11.18,0,0,1,383.12,373.09Zm7.68-11.92a8.36,8.36,0,0,0-2.46-5.44,7.58,7.58,0,0,0-2.36-1.56,7.37,7.37,0,0,0-2.86-.56,7.58,7.58,0,0,0-2.88.56,7.67,7.67,0,0,0-2.38,1.56,7.86,7.86,0,0,0-1.64,2.4,9.23,9.23,0,0,0-.74,3Z"/><path d="M428.6,372.69h-2.72V361.05a9.71,9.71,0,0,0-1.16-5.36,3.89,3.89,0,0,0-3.44-1.72,5.91,5.91,0,0,0-2.26.44,7.28,7.28,0,0,0-2,1.24,8.92,8.92,0,0,0-1.58,1.9,9.36,9.36,0,0,0-1,2.42v12.72h-2.72V361.05q0-3.72-1.12-5.4a3.84,3.84,0,0,0-3.44-1.68,6.16,6.16,0,0,0-4.2,1.64,9.31,9.31,0,0,0-2.64,4.32v12.76H397.6V351.85h2.48v4.72a10,10,0,0,1,3.36-3.74,8.35,8.35,0,0,1,4.6-1.34,6,6,0,0,1,4.22,1.48,6.42,6.42,0,0,1,1.94,3.88q2.93-5.36,8-5.36a6.41,6.41,0,0,1,3,.64,5,5,0,0,1,2,1.82,8.33,8.33,0,0,1,1.08,2.84,18.28,18.28,0,0,1,.34,3.7Z"/><path d="M434.36,347.49v-4h2.72v4Zm0,25.2V351.85h2.72v20.84Z"/><path d="M452.08,373.09a9.93,9.93,0,0,1-4.18-.86,10.34,10.34,0,0,1-3.3-2.36,11,11,0,0,1-2.18-3.46,11.2,11.2,0,0,1-.78-4.2,11,11,0,0,1,.78-4.14,10.83,10.83,0,0,1,2.16-3.4,10.41,10.41,0,0,1,3.3-2.32,10.15,10.15,0,0,1,11.6,2.34,10.77,10.77,0,0,1,2.12,3.4,10.92,10.92,0,0,1,.76,4.08v.64a1.46,1.46,0,0,1,0,.44H444.48a8.74,8.74,0,0,0,.78,3.1,8.5,8.5,0,0,0,1.7,2.46,7.51,7.51,0,0,0,2.38,1.62,7.1,7.1,0,0,0,2.86.58,7.21,7.21,0,0,0,2-.28A7.74,7.74,0,0,0,456,370a6.67,6.67,0,0,0,1.52-1.18,4.87,4.87,0,0,0,1-1.54l2.36.64a6.71,6.71,0,0,1-1.36,2.1,8.9,8.9,0,0,1-2,1.64,9.62,9.62,0,0,1-2.56,1.08A11.18,11.18,0,0,1,452.08,373.09Zm7.68-11.92a8.36,8.36,0,0,0-2.46-5.44,7.58,7.58,0,0,0-2.36-1.56,7.37,7.37,0,0,0-2.86-.56,7.58,7.58,0,0,0-2.88.56,7.67,7.67,0,0,0-2.38,1.56,7.86,7.86,0,0,0-1.64,2.4,9.23,9.23,0,0,0-.74,3Z"/><path d="M477,354.25a8.61,8.61,0,0,0-4.8,1.52,7.66,7.66,0,0,0-2.88,4v13h-2.72V351.85h2.56v5a9.61,9.61,0,0,1,3.12-3.76,7.29,7.29,0,0,1,4.2-1.36,3.33,3.33,0,0,1,.52,0Z"/><path d="M500.48,373.09a8.19,8.19,0,0,1-4.66-1.34,10.73,10.73,0,0,1-3.26-3.38v12.84h-2.72V351.85h2.44v4a10.3,10.3,0,0,1,3.32-3.18,8.53,8.53,0,0,1,4.44-1.22,8.73,8.73,0,0,1,4,.9,10.18,10.18,0,0,1,3.12,2.4,11.49,11.49,0,0,1,2.8,7.5,12.39,12.39,0,0,1-.68,4.16,10.45,10.45,0,0,1-1.94,3.44,9.24,9.24,0,0,1-3,2.34A8.4,8.4,0,0,1,500.48,373.09Zm-.76-2.4a6.51,6.51,0,0,0,3.06-.72,7.53,7.53,0,0,0,2.36-1.9,8.2,8.2,0,0,0,1.5-2.68,9.3,9.3,0,0,0,.52-3.1,8.66,8.66,0,0,0-.6-3.2,8.82,8.82,0,0,0-1.64-2.68,7.86,7.86,0,0,0-2.46-1.84,7,7,0,0,0-3.06-.68,6.32,6.32,0,0,0-2.18.42,9.35,9.35,0,0,0-2.12,1.12,7.93,7.93,0,0,0-1.68,1.64,4.56,4.56,0,0,0-.86,2v6.4a9.62,9.62,0,0,0,1.22,2.08,8.79,8.79,0,0,0,1.68,1.66,7.79,7.79,0,0,0,2,1.1A6.34,6.34,0,0,0,499.72,370.69Z"/><path d="M524.92,354.25a8.61,8.61,0,0,0-4.8,1.52,7.66,7.66,0,0,0-2.88,4v13h-2.72V351.85h2.56v5a9.61,9.61,0,0,1,3.12-3.76,7.29,7.29,0,0,1,4.2-1.36,3.33,3.33,0,0,1,.52,0Z"/><path d="M536.4,373.09a9.8,9.8,0,0,1-4.16-.86,10.16,10.16,0,0,1-3.26-2.34,10.57,10.57,0,0,1-2.14-3.44,11.41,11.41,0,0,1-.76-4.12,11.18,11.18,0,0,1,.78-4.16,11,11,0,0,1,2.16-3.44,10.69,10.69,0,0,1,3.26-2.36,10.13,10.13,0,0,1,8.26,0,10.54,10.54,0,0,1,3.28,2.36,11,11,0,0,1,2.16,3.44,11.52,11.52,0,0,1,0,8.28,10.4,10.4,0,0,1-2.14,3.44,10,10,0,0,1-3.28,2.34A9.89,9.89,0,0,1,536.4,373.09Zm-7.56-10.72a8.67,8.67,0,0,0,.6,3.26,8.85,8.85,0,0,0,1.62,2.64,7.23,7.23,0,0,0,2.4,1.78,6.85,6.85,0,0,0,2.94.64,6.73,6.73,0,0,0,2.94-.66,7.77,7.77,0,0,0,2.42-1.8,8.38,8.38,0,0,0,1.64-2.66,8.82,8.82,0,0,0,.6-3.28,8.94,8.94,0,0,0-.6-3.26,8.47,8.47,0,0,0-1.64-2.68,7.77,7.77,0,0,0-2.42-1.8,6.73,6.73,0,0,0-2.94-.66,6.61,6.61,0,0,0-2.92.66,8,8,0,0,0-2.4,1.82,8.95,8.95,0,0,0-2.24,6Z"/><path d="M556.8,372.69l-8.48-20.84h2.8l7.16,18.32,7.2-18.32h2.64l-8.48,20.84Z"/><path d="M571.88,347.49v-4h2.72v4Zm0,25.2V351.85h2.72v20.84Z"/><path d="M589.16,373.09a9,9,0,0,1-4-.9,10.09,10.09,0,0,1-3.16-2.38,10.74,10.74,0,0,1-2.06-3.42,11.33,11.33,0,0,1-.74-4.06,12.16,12.16,0,0,1,.72-4.18,11.21,11.21,0,0,1,2-3.46,9.52,9.52,0,0,1,3-2.34,8.54,8.54,0,0,1,3.82-.86,8.15,8.15,0,0,1,4.68,1.38,10.48,10.48,0,0,1,3.2,3.34V343.49h2.72v25.68c0,.75.32,1.12,1,1.12v2.4a5.16,5.16,0,0,1-1,.12,2.46,2.46,0,0,1-1.68-.62,1.9,1.9,0,0,1-.72-1.5v-2a9.16,9.16,0,0,1-3.36,3.24A8.81,8.81,0,0,1,589.16,373.09Zm.6-2.4a6.38,6.38,0,0,0,2.14-.4,8.51,8.51,0,0,0,2.14-1.1,7.17,7.17,0,0,0,1.7-1.64,4.41,4.41,0,0,0,.86-2v-6.44a7.2,7.2,0,0,0-1.16-2,9.78,9.78,0,0,0-1.74-1.66,8.17,8.17,0,0,0-2.1-1.12,6.7,6.7,0,0,0-2.2-.4,6.4,6.4,0,0,0-3,.72,7.71,7.71,0,0,0-2.34,1.9,8.68,8.68,0,0,0-1.5,2.7,9.55,9.55,0,0,0-.52,3.12,8.74,8.74,0,0,0,2.24,5.86A7.8,7.8,0,0,0,586.7,370,6.92,6.92,0,0,0,589.76,370.69Z"/><path d="M614.48,373.09a9.93,9.93,0,0,1-4.18-.86,10.12,10.12,0,0,1-3.3-2.36,11,11,0,0,1-2.18-3.46,11.2,11.2,0,0,1-.78-4.2,11,11,0,0,1,.78-4.14,10.83,10.83,0,0,1,2.16-3.4,10.41,10.41,0,0,1,3.3-2.32,10.15,10.15,0,0,1,11.6,2.34,11,11,0,0,1,2.88,7.48v.64a1.46,1.46,0,0,1,0,.44H606.88a8.74,8.74,0,0,0,.78,3.1,8.5,8.5,0,0,0,1.7,2.46,7.4,7.4,0,0,0,2.38,1.62,7.07,7.07,0,0,0,2.86.58,7.26,7.26,0,0,0,2-.28,7.74,7.74,0,0,0,1.84-.76,6.67,6.67,0,0,0,1.52-1.18,5,5,0,0,0,1-1.54l2.36.64A6.71,6.71,0,0,1,622,370a9.36,9.36,0,0,1-2,1.64,9.76,9.76,0,0,1-2.56,1.08A11.24,11.24,0,0,1,614.48,373.09Zm7.68-11.92a8.36,8.36,0,0,0-2.46-5.44,7.7,7.7,0,0,0-2.36-1.56,7.4,7.4,0,0,0-2.86-.56,7.49,7.49,0,0,0-5.26,2.12,7.69,7.69,0,0,0-1.64,2.4,9.23,9.23,0,0,0-.74,3Z"/><path d="M639.36,354.25a8.61,8.61,0,0,0-4.8,1.52,7.66,7.66,0,0,0-2.88,4v13H629V351.85h2.56v5a9.45,9.45,0,0,1,3.12-3.76,7.29,7.29,0,0,1,4.2-1.36,3.44,3.44,0,0,1,.52,0Z"/><path d="M661.12,373.09a9.77,9.77,0,0,1-4.16-.86,10.16,10.16,0,0,1-3.26-2.34,10.57,10.57,0,0,1-2.14-3.44,11.52,11.52,0,0,1,0-8.28,11,11,0,0,1,2.16-3.44,10.69,10.69,0,0,1,3.26-2.36,9.7,9.7,0,0,1,4.12-.88,9.85,9.85,0,0,1,4.14.88,10.54,10.54,0,0,1,3.28,2.36,11,11,0,0,1,2.16,3.44,11.52,11.52,0,0,1,0,8.28,10.57,10.57,0,0,1-2.14,3.44,10,10,0,0,1-3.28,2.34A9.93,9.93,0,0,1,661.12,373.09Zm-7.56-10.72a8.67,8.67,0,0,0,.6,3.26,8.85,8.85,0,0,0,1.62,2.64,7.23,7.23,0,0,0,2.4,1.78,6.85,6.85,0,0,0,2.94.64,6.73,6.73,0,0,0,2.94-.66,7.77,7.77,0,0,0,2.42-1.8,8.56,8.56,0,0,0,1.64-2.66,8.82,8.82,0,0,0,.6-3.28,8.94,8.94,0,0,0-.6-3.26,8.66,8.66,0,0,0-1.64-2.68,7.77,7.77,0,0,0-2.42-1.8,6.73,6.73,0,0,0-2.94-.66,6.61,6.61,0,0,0-2.92.66,7.71,7.71,0,0,0-2.4,1.82,8.95,8.95,0,0,0-2.24,6Z"/><path d="M676.72,372.69V354h-2.88v-2.16h2.88v-.56a9.85,9.85,0,0,1,1.64-6,5.31,5.31,0,0,1,4.48-2.18,8,8,0,0,1,2.4.36,7,7,0,0,1,2,1l-.84,2a4,4,0,0,0-1.38-.68,5.9,5.9,0,0,0-1.66-.24,3.32,3.32,0,0,0-2.92,1.48,7.63,7.63,0,0,0-1,4.28v.64h5.76V354h-5.76v18.68Z"/><path d="M703.52,373.09a7.42,7.42,0,0,1-2.74-.5,6.84,6.84,0,0,1-2.2-1.38,6.22,6.22,0,0,1-2-4.6,5.13,5.13,0,0,1,.64-2.52,6.21,6.21,0,0,1,1.8-2,8.82,8.82,0,0,1,2.76-1.3,13,13,0,0,1,3.52-.46,19.88,19.88,0,0,1,3.24.28,14.69,14.69,0,0,1,2.92.8v-1.88a6,6,0,0,0-1.56-4.38,5.72,5.72,0,0,0-4.32-1.62,9.31,9.31,0,0,0-3.28.64,16,16,0,0,0-3.4,1.84l-1-1.8a14.1,14.1,0,0,1,7.84-2.72,8.44,8.44,0,0,1,6.16,2.2,8.16,8.16,0,0,1,2.24,6.08v9.4c0,.75.33,1.12,1,1.12v2.4a6.44,6.44,0,0,1-1,.12,2.34,2.34,0,0,1-1.62-.52,1.93,1.93,0,0,1-.62-1.44l-.08-1.64a9.35,9.35,0,0,1-3.62,2.88A11.08,11.08,0,0,1,703.52,373.09Zm.64-2.08a9.32,9.32,0,0,0,3.9-.8,6.3,6.3,0,0,0,2.7-2.12,2.49,2.49,0,0,0,.54-.78,2,2,0,0,0,.18-.78v-3.4a17.85,17.85,0,0,0-2.82-.8,16.36,16.36,0,0,0-3-.28,8.29,8.29,0,0,0-4.68,1.2,3.66,3.66,0,0,0-1.8,3.16,4.37,4.37,0,0,0,.38,1.8,4.48,4.48,0,0,0,1,1.46,4.79,4.79,0,0,0,1.58,1A5.33,5.33,0,0,0,704.16,371Z"/><path d="M745.76,351.85h2.68l-9,20.84h-2.24l-4.48-10.64-4.44,10.64h-2.24l-9-20.84h2.64l7.6,18,4-9.52-3.56-8.48H730l2.72,6.8,2.72-6.8h2.32l-3.56,8.48,4,9.52Z"/><path d="M756.76,373.09a7.42,7.42,0,0,1-2.74-.5,6.84,6.84,0,0,1-2.2-1.38,6.22,6.22,0,0,1-2-4.6,5.13,5.13,0,0,1,.64-2.52,6.21,6.21,0,0,1,1.8-2,8.82,8.82,0,0,1,2.76-1.3,13,13,0,0,1,3.52-.46,19.88,19.88,0,0,1,3.24.28,14.69,14.69,0,0,1,2.92.8v-1.88a6,6,0,0,0-1.56-4.38,5.72,5.72,0,0,0-4.32-1.62,9.31,9.31,0,0,0-3.28.64,16,16,0,0,0-3.4,1.84l-1-1.8a14.1,14.1,0,0,1,7.84-2.72,8.44,8.44,0,0,1,6.16,2.2,8.16,8.16,0,0,1,2.24,6.08v9.4c0,.75.33,1.12,1,1.12v2.4a6.44,6.44,0,0,1-1,.12,2.34,2.34,0,0,1-1.62-.52,1.93,1.93,0,0,1-.62-1.44l-.08-1.64a9.35,9.35,0,0,1-3.62,2.88A11.08,11.08,0,0,1,756.76,373.09Zm.64-2.08a9.32,9.32,0,0,0,3.9-.8,6.3,6.3,0,0,0,2.7-2.12,2.49,2.49,0,0,0,.54-.78,2,2,0,0,0,.18-.78v-3.4a17.85,17.85,0,0,0-2.82-.8,16.36,16.36,0,0,0-3-.28,8.29,8.29,0,0,0-4.68,1.2,3.66,3.66,0,0,0-1.8,3.16,4.37,4.37,0,0,0,.38,1.8,4.48,4.48,0,0,0,1,1.46,4.79,4.79,0,0,0,1.58,1A5.33,5.33,0,0,0,757.4,371Z"/><path d="M783.72,354.25a8.61,8.61,0,0,0-4.8,1.52,7.66,7.66,0,0,0-2.88,4v13h-2.72V351.85h2.56v5a9.45,9.45,0,0,1,3.12-3.76,7.29,7.29,0,0,1,4.2-1.36,3.44,3.44,0,0,1,.52,0Z"/><path d="M794.88,373.09a9,9,0,0,1-4-.9,10.09,10.09,0,0,1-3.16-2.38,10.74,10.74,0,0,1-2.06-3.42,11.33,11.33,0,0,1-.74-4.06,12.16,12.16,0,0,1,.72-4.18,11.21,11.21,0,0,1,2-3.46,9.52,9.52,0,0,1,3-2.34,8.54,8.54,0,0,1,3.82-.86,8.15,8.15,0,0,1,4.68,1.38,10.48,10.48,0,0,1,3.2,3.34V343.49H805v25.68c0,.75.32,1.12,1,1.12v2.4a5.16,5.16,0,0,1-1,.12,2.46,2.46,0,0,1-1.68-.62,1.9,1.9,0,0,1-.72-1.5v-2a9.16,9.16,0,0,1-3.36,3.24A8.81,8.81,0,0,1,794.88,373.09Zm.6-2.4a6.38,6.38,0,0,0,2.14-.4,8.51,8.51,0,0,0,2.14-1.1,7.17,7.17,0,0,0,1.7-1.64,4.41,4.41,0,0,0,.86-2v-6.44a7.2,7.2,0,0,0-1.16-2,9.78,9.78,0,0,0-1.74-1.66,8.17,8.17,0,0,0-2.1-1.12,6.7,6.7,0,0,0-2.2-.4,6.4,6.4,0,0,0-3,.72,7.71,7.71,0,0,0-2.34,1.9,8.68,8.68,0,0,0-1.5,2.7,9.55,9.55,0,0,0-.52,3.12,8.74,8.74,0,0,0,2.24,5.86,7.8,7.8,0,0,0,2.46,1.82A6.92,6.92,0,0,0,795.48,370.69Z"/><path d="M818.12,373.09a14.33,14.33,0,0,1-4.76-.8,11.26,11.26,0,0,1-4-2.32l1.24-1.84a13.56,13.56,0,0,0,3.58,2.16,10.48,10.48,0,0,0,3.9.72,7,7,0,0,0,4-1,3.29,3.29,0,0,0,1.5-2.9,2.51,2.51,0,0,0-.4-1.46,3.65,3.65,0,0,0-1.18-1,9.5,9.5,0,0,0-2-.78c-.79-.22-1.7-.46-2.74-.7-1.2-.29-2.24-.58-3.12-.88a9.07,9.07,0,0,1-2.18-1,3.59,3.59,0,0,1-1.28-1.38,4.47,4.47,0,0,1-.42-2.06,6,6,0,0,1,.62-2.76,5.56,5.56,0,0,1,1.68-2,7.7,7.7,0,0,1,2.48-1.18,11.36,11.36,0,0,1,3-.4,11.71,11.71,0,0,1,4.36.78,8.63,8.63,0,0,1,3.16,2.06l-1.32,1.6a7.27,7.27,0,0,0-2.82-1.8,10.11,10.11,0,0,0-3.46-.6,8.94,8.94,0,0,0-2,.22,4.94,4.94,0,0,0-1.62.7,3.48,3.48,0,0,0-1.1,1.22,3.6,3.6,0,0,0-.4,1.74,2.81,2.81,0,0,0,.28,1.36,2.34,2.34,0,0,0,.92.9,7.31,7.31,0,0,0,1.62.68c.65.2,1.45.41,2.38.62,1.33.32,2.51.64,3.52,1a11.42,11.42,0,0,1,2.54,1.12,4.13,4.13,0,0,1,2.06,3.8,5.42,5.42,0,0,1-2.2,4.56A9.52,9.52,0,0,1,818.12,373.09Z"/><path d="M841.88,372.69V354H839v-2.16h2.88v-.56a9.85,9.85,0,0,1,1.64-6,5.31,5.31,0,0,1,4.48-2.18,8,8,0,0,1,2.4.36,7,7,0,0,1,2,1l-.84,2a4,4,0,0,0-1.38-.68,5.9,5.9,0,0,0-1.66-.24,3.32,3.32,0,0,0-2.92,1.48,7.63,7.63,0,0,0-1,4.28v.64h5.76V354H844.6v18.68Z"/><path d="M861.92,373.09a9.77,9.77,0,0,1-4.16-.86,10.16,10.16,0,0,1-3.26-2.34,10.57,10.57,0,0,1-2.14-3.44,11.52,11.52,0,0,1,0-8.28,11,11,0,0,1,2.16-3.44,10.69,10.69,0,0,1,3.26-2.36,9.7,9.7,0,0,1,4.12-.88,9.85,9.85,0,0,1,4.14.88,10.54,10.54,0,0,1,3.28,2.36,11,11,0,0,1,2.16,3.44,11.52,11.52,0,0,1,0,8.28,10.57,10.57,0,0,1-2.14,3.44,10,10,0,0,1-3.28,2.34A9.93,9.93,0,0,1,861.92,373.09Zm-7.56-10.72a8.67,8.67,0,0,0,.6,3.26,8.85,8.85,0,0,0,1.62,2.64,7.23,7.23,0,0,0,2.4,1.78,6.85,6.85,0,0,0,2.94.64,6.73,6.73,0,0,0,2.94-.66,7.77,7.77,0,0,0,2.42-1.8,8.56,8.56,0,0,0,1.64-2.66,8.82,8.82,0,0,0,.6-3.28,8.94,8.94,0,0,0-.6-3.26,8.66,8.66,0,0,0-1.64-2.68,7.77,7.77,0,0,0-2.42-1.8,6.73,6.73,0,0,0-2.94-.66,6.61,6.61,0,0,0-2.92.66,7.71,7.71,0,0,0-2.4,1.82,8.95,8.95,0,0,0-2.24,6Z"/><path d="M887.24,354.25a8.61,8.61,0,0,0-4.8,1.52,7.66,7.66,0,0,0-2.88,4v13h-2.72V351.85h2.56v5a9.45,9.45,0,0,1,3.12-3.76,7.29,7.29,0,0,1,4.2-1.36,3.44,3.44,0,0,1,.52,0Z"/><path d="M910.12,371.69c-.16.08-.39.19-.7.32a10.38,10.38,0,0,1-1.06.4,9.86,9.86,0,0,1-1.36.36,7.55,7.55,0,0,1-1.6.16,5.78,5.78,0,0,1-1.68-.24,3.84,3.84,0,0,1-1.4-.74,3.58,3.58,0,0,1-1-1.26,4,4,0,0,1-.36-1.76V354h-2.88v-2.16H901v-7h2.72v7h4.8V354h-4.8v14.16a2.15,2.15,0,0,0,.82,1.7,2.8,2.8,0,0,0,1.7.54,5,5,0,0,0,2-.38,7.89,7.89,0,0,0,1.12-.54Z"/><path d="M931,372.69h-2.72V361.05a9.44,9.44,0,0,0-1.22-5.32,4.09,4.09,0,0,0-3.58-1.76,6.25,6.25,0,0,0-2.3.46,8.78,8.78,0,0,0-2.14,1.26,8.65,8.65,0,0,0-1.74,1.88,8.08,8.08,0,0,0-1.1,2.36v12.76h-2.72v-29.2h2.72v13.08a9.49,9.49,0,0,1,3.44-3.72,9,9,0,0,1,4.76-1.36,6.41,6.41,0,0,1,3,.66,5.63,5.63,0,0,1,2,1.84,8.19,8.19,0,0,1,1.16,2.84,17.34,17.34,0,0,1,.36,3.66Z"/><path d="M945.84,373.09a9.93,9.93,0,0,1-4.18-.86,10.12,10.12,0,0,1-3.3-2.36,11,11,0,0,1-2.18-3.46,11.2,11.2,0,0,1-.78-4.2,11,11,0,0,1,.78-4.14,10.83,10.83,0,0,1,2.16-3.4,10.41,10.41,0,0,1,3.3-2.32,10.15,10.15,0,0,1,11.6,2.34,11,11,0,0,1,2.88,7.48v.64a1.46,1.46,0,0,1,0,.44H938.24a8.74,8.74,0,0,0,.78,3.1,8.5,8.5,0,0,0,1.7,2.46,7.4,7.4,0,0,0,2.38,1.62A7.07,7.07,0,0,0,946,371a7.26,7.26,0,0,0,2-.28,7.74,7.74,0,0,0,1.84-.76,6.67,6.67,0,0,0,1.52-1.18,5,5,0,0,0,1-1.54l2.36.64a6.71,6.71,0,0,1-1.36,2.1,9.36,9.36,0,0,1-2,1.64,9.76,9.76,0,0,1-2.56,1.08A11.24,11.24,0,0,1,945.84,373.09Zm7.68-11.92a8.36,8.36,0,0,0-2.46-5.44,7.7,7.7,0,0,0-2.36-1.56,7.4,7.4,0,0,0-2.86-.56,7.49,7.49,0,0,0-5.26,2.12,7.69,7.69,0,0,0-1.64,2.4,9.23,9.23,0,0,0-.74,3Z"/><path d="M978.88,373a8.59,8.59,0,0,1-3.94-.9,10,10,0,0,1-3.08-2.38,10.76,10.76,0,0,1-2-3.4,11.19,11.19,0,0,1-.72-4,12.25,12.25,0,0,1,.7-4.14,10.46,10.46,0,0,1,2-3.46,9.73,9.73,0,0,1,3.06-2.36,8.84,8.84,0,0,1,3.94-.88,8.07,8.07,0,0,1,4.64,1.34,13.17,13.17,0,0,1,3.36,3.38v-4.36h2.44v20.92a8.62,8.62,0,0,1-.82,3.82,8.25,8.25,0,0,1-2.2,2.78,9.25,9.25,0,0,1-3.24,1.68,13.74,13.74,0,0,1-3.94.56,11.49,11.49,0,0,1-5.8-1.28,10.11,10.11,0,0,1-3.56-3.44l1.68-1.32a7.44,7.44,0,0,0,3.28,2.94,10.31,10.31,0,0,0,4.4.94,9.74,9.74,0,0,0,2.88-.42,7.1,7.1,0,0,0,2.38-1.24,5.79,5.79,0,0,0,1.62-2.08,6.77,6.77,0,0,0,.6-2.94v-4.12a8.66,8.66,0,0,1-3.28,3.16A8.77,8.77,0,0,1,978.88,373Zm.76-2.28a6.49,6.49,0,0,0,2.36-.44,7.91,7.91,0,0,0,3.68-2.84,5.32,5.32,0,0,0,.84-1.88v-6.44a8.38,8.38,0,0,0-2.92-3.72,9,9,0,0,0-2.06-1.08,6.68,6.68,0,0,0-2.22-.4,6.59,6.59,0,0,0-3.14.74,7.59,7.59,0,0,0-2.34,1.94,8.6,8.6,0,0,0-1.46,2.72,9.64,9.64,0,0,0-.5,3.08,8.62,8.62,0,0,0,.6,3.2,8.25,8.25,0,0,0,1.66,2.66,7.93,7.93,0,0,0,2.46,1.8A7,7,0,0,0,979.64,370.69Z"/><path d="M1005.64,354.25a8.61,8.61,0,0,0-4.8,1.52,7.66,7.66,0,0,0-2.88,4v13h-2.72V351.85h2.56v5a9.45,9.45,0,0,1,3.12-3.76,7.25,7.25,0,0,1,4.2-1.36,3.55,3.55,0,0,1,.52,0Z"/><path d="M1017.24,373.09a9.93,9.93,0,0,1-4.18-.86,10.12,10.12,0,0,1-3.3-2.36,11,11,0,0,1-2.18-3.46,11.2,11.2,0,0,1-.78-4.2,11,11,0,0,1,.78-4.14,10.83,10.83,0,0,1,2.16-3.4,10.41,10.41,0,0,1,3.3-2.32,10.15,10.15,0,0,1,11.6,2.34,11.14,11.14,0,0,1,2.12,3.4,10.92,10.92,0,0,1,.76,4.08v.64a1.89,1.89,0,0,1,0,.44h-17.84a8.74,8.74,0,0,0,.78,3.1,8.31,8.31,0,0,0,1.7,2.46,7.29,7.29,0,0,0,2.38,1.62,7.07,7.07,0,0,0,2.86.58,7.31,7.31,0,0,0,2-.28,7.91,7.91,0,0,0,1.84-.76,6.67,6.67,0,0,0,1.52-1.18,5,5,0,0,0,1-1.54l2.36.64a6.71,6.71,0,0,1-1.36,2.1,9.36,9.36,0,0,1-2,1.64,9.91,9.91,0,0,1-2.56,1.08A11.24,11.24,0,0,1,1017.24,373.09Zm7.68-11.92a8.36,8.36,0,0,0-2.46-5.44,7.7,7.7,0,0,0-2.36-1.56,7.4,7.4,0,0,0-2.86-.56,7.49,7.49,0,0,0-5.26,2.12,7.69,7.69,0,0,0-1.64,2.4,9,9,0,0,0-.74,3Z"/><path d="M1037,373.09a7.42,7.42,0,0,1-2.74-.5,6.73,6.73,0,0,1-2.2-1.38,6,6,0,0,1-1.46-2.06,6.14,6.14,0,0,1-.52-2.54,5.13,5.13,0,0,1,.64-2.52,6,6,0,0,1,1.8-2,8.82,8.82,0,0,1,2.76-1.3,12.93,12.93,0,0,1,3.52-.46,20.07,20.07,0,0,1,3.24.28,14.88,14.88,0,0,1,2.92.8v-1.88a6,6,0,0,0-1.56-4.38,5.72,5.72,0,0,0-4.32-1.62,9.31,9.31,0,0,0-3.28.64,15.81,15.81,0,0,0-3.4,1.84l-1-1.8a14.07,14.07,0,0,1,7.84-2.72,8.46,8.46,0,0,1,6.16,2.2,8.16,8.16,0,0,1,2.24,6.08v9.4c0,.75.33,1.12,1,1.12v2.4a6.57,6.57,0,0,1-1,.12,2.3,2.3,0,0,1-1.62-.52,1.9,1.9,0,0,1-.62-1.44l-.08-1.64a9.35,9.35,0,0,1-3.62,2.88A11.11,11.11,0,0,1,1037,373.09Zm.64-2.08a9.32,9.32,0,0,0,3.9-.8,6.43,6.43,0,0,0,2.7-2.12,2.49,2.49,0,0,0,.54-.78,2,2,0,0,0,.18-.78v-3.4a17.85,17.85,0,0,0-2.82-.8,16.44,16.44,0,0,0-3-.28,8.29,8.29,0,0,0-4.68,1.2,3.66,3.66,0,0,0-1.8,3.16,4.21,4.21,0,0,0,.38,1.8,4.48,4.48,0,0,0,1,1.46,4.69,4.69,0,0,0,1.58,1A5.29,5.29,0,0,0,1037.6,371Z"/><path d="M1063.36,371.69l-.7.32a10.38,10.38,0,0,1-1.06.4,10.26,10.26,0,0,1-1.36.36,7.55,7.55,0,0,1-1.6.16,5.78,5.78,0,0,1-1.68-.24,3.76,3.76,0,0,1-1.4-.74,3.58,3.58,0,0,1-1-1.26,4,4,0,0,1-.36-1.76V354h-2.88v-2.16h2.88v-7H1057v7h4.8V354H1057v14.16a2.12,2.12,0,0,0,.82,1.7,2.8,2.8,0,0,0,1.7.54,5,5,0,0,0,2-.38,8.52,8.52,0,0,0,1.12-.54Z"/><path d="M1075.24,373.09a9.89,9.89,0,0,1-4.18-.86,10.12,10.12,0,0,1-3.3-2.36,10.81,10.81,0,0,1-2.18-3.46,11.2,11.2,0,0,1-.78-4.2,11,11,0,0,1,.78-4.14,10.83,10.83,0,0,1,2.16-3.4,10.41,10.41,0,0,1,3.3-2.32,10.54,10.54,0,0,1,8.34,0,10.24,10.24,0,0,1,3.26,2.34,11,11,0,0,1,2.88,7.48v.64a1.89,1.89,0,0,1,0,.44h-17.84a8.74,8.74,0,0,0,.78,3.1,8.31,8.31,0,0,0,1.7,2.46,7.29,7.29,0,0,0,2.38,1.62,7,7,0,0,0,2.86.58,7.31,7.31,0,0,0,2-.28,7.91,7.91,0,0,0,1.84-.76,6.9,6.9,0,0,0,1.52-1.18,5,5,0,0,0,1-1.54l2.36.64a6.89,6.89,0,0,1-1.36,2.1,9.36,9.36,0,0,1-2,1.64,9.91,9.91,0,0,1-2.56,1.08A11.3,11.3,0,0,1,1075.24,373.09Zm7.68-11.92a8.36,8.36,0,0,0-2.46-5.44,7.7,7.7,0,0,0-2.36-1.56,7.63,7.63,0,0,0-5.74,0,7.56,7.56,0,0,0-2.38,1.56,7.69,7.69,0,0,0-1.64,2.4,9,9,0,0,0-.74,3Z"/><path d="M1100.12,354.25a8.61,8.61,0,0,0-4.8,1.52,7.66,7.66,0,0,0-2.88,4v13h-2.72V351.85h2.56v5a9.45,9.45,0,0,1,3.12-3.76,7.25,7.25,0,0,1,4.2-1.36,3.55,3.55,0,0,1,.52,0Z"/><path d="M1101.64,363.05v-2.52h11.68v2.52Z"/><path d="M1144.64,372.69V349.37l-10.36,18h-1.64l-10.36-18v23.32h-2.8v-28.4h2.88l11.08,19.44,11.16-19.44h2.84v28.4Z"/><path d="M1162.6,373.09a9.77,9.77,0,0,1-4.16-.86,10.05,10.05,0,0,1-3.26-2.34,10.4,10.4,0,0,1-2.14-3.44,11.52,11.52,0,0,1,0-8.28,11,11,0,0,1,2.16-3.44,10.57,10.57,0,0,1,3.26-2.36,9.66,9.66,0,0,1,4.12-.88,9.85,9.85,0,0,1,4.14.88,10.66,10.66,0,0,1,3.28,2.36,11,11,0,0,1,2.16,3.44,11.18,11.18,0,0,1,.78,4.16,11.41,11.41,0,0,1-.76,4.12,10.57,10.57,0,0,1-2.14,3.44,10.13,10.13,0,0,1-3.28,2.34A9.93,9.93,0,0,1,1162.6,373.09ZM1155,362.37a8.67,8.67,0,0,0,.6,3.26,8.85,8.85,0,0,0,1.62,2.64,7.23,7.23,0,0,0,2.4,1.78,6.85,6.85,0,0,0,2.94.64,6.73,6.73,0,0,0,2.94-.66,7.89,7.89,0,0,0,2.42-1.8,8.56,8.56,0,0,0,1.64-2.66,8.82,8.82,0,0,0,.6-3.28,8.94,8.94,0,0,0-.6-3.26,8.66,8.66,0,0,0-1.64-2.68,7.89,7.89,0,0,0-2.42-1.8,6.73,6.73,0,0,0-2.94-.66,6.58,6.58,0,0,0-2.92.66,7.71,7.71,0,0,0-2.4,1.82,8.8,8.8,0,0,0-1.64,2.7A9,9,0,0,0,1155,362.37Z"/><path d="M1187.92,354.25a8.61,8.61,0,0,0-4.8,1.52,7.66,7.66,0,0,0-2.88,4v13h-2.72V351.85h2.56v5a9.45,9.45,0,0,1,3.12-3.76,7.25,7.25,0,0,1,4.2-1.36,3.55,3.55,0,0,1,.52,0Z"/><path d="M1198.88,373a8.59,8.59,0,0,1-3.94-.9,10,10,0,0,1-3.08-2.38,10.76,10.76,0,0,1-2-3.4,11.19,11.19,0,0,1-.72-4,12.25,12.25,0,0,1,.7-4.14,10.46,10.46,0,0,1,2-3.46,9.73,9.73,0,0,1,3.06-2.36,8.84,8.84,0,0,1,3.94-.88,8.07,8.07,0,0,1,4.64,1.34,13.17,13.17,0,0,1,3.36,3.38v-4.36h2.44v20.92a8.62,8.62,0,0,1-.82,3.82,8.25,8.25,0,0,1-2.2,2.78,9.25,9.25,0,0,1-3.24,1.68,13.74,13.74,0,0,1-3.94.56,11.49,11.49,0,0,1-5.8-1.28,10.11,10.11,0,0,1-3.56-3.44l1.68-1.32a7.44,7.44,0,0,0,3.28,2.94,10.31,10.31,0,0,0,4.4.94,9.74,9.74,0,0,0,2.88-.42,7.1,7.1,0,0,0,2.38-1.24,5.79,5.79,0,0,0,1.62-2.08,6.77,6.77,0,0,0,.6-2.94v-4.12a8.66,8.66,0,0,1-3.28,3.16A8.77,8.77,0,0,1,1198.88,373Zm.76-2.28a6.49,6.49,0,0,0,2.36-.44,7.91,7.91,0,0,0,3.68-2.84,5.32,5.32,0,0,0,.84-1.88v-6.44a8.38,8.38,0,0,0-2.92-3.72,9,9,0,0,0-2.06-1.08,6.68,6.68,0,0,0-2.22-.4,6.56,6.56,0,0,0-3.14.74,7.59,7.59,0,0,0-2.34,1.94,8.6,8.6,0,0,0-1.46,2.72,9.64,9.64,0,0,0-.5,3.08,8.62,8.62,0,0,0,.6,3.2,8.25,8.25,0,0,0,1.66,2.66,7.82,7.82,0,0,0,2.46,1.8A7,7,0,0,0,1199.64,370.69Z"/><path d="M1220.48,373.09a7.42,7.42,0,0,1-2.74-.5,6.73,6.73,0,0,1-2.2-1.38,6,6,0,0,1-1.46-2.06,6.14,6.14,0,0,1-.52-2.54,5.13,5.13,0,0,1,.64-2.52,6,6,0,0,1,1.8-2,8.82,8.82,0,0,1,2.76-1.3,12.93,12.93,0,0,1,3.52-.46,20.07,20.07,0,0,1,3.24.28,14.88,14.88,0,0,1,2.92.8v-1.88a6,6,0,0,0-1.56-4.38,5.72,5.72,0,0,0-4.32-1.62,9.31,9.31,0,0,0-3.28.64,15.81,15.81,0,0,0-3.4,1.84l-1-1.8a14.07,14.07,0,0,1,7.84-2.72,8.46,8.46,0,0,1,6.16,2.2,8.16,8.16,0,0,1,2.24,6.08v9.4c0,.75.33,1.12,1,1.12v2.4a6.57,6.57,0,0,1-1,.12,2.3,2.3,0,0,1-1.62-.52,1.9,1.9,0,0,1-.62-1.44l-.08-1.64a9.35,9.35,0,0,1-3.62,2.88A11.11,11.11,0,0,1,1220.48,373.09Zm.64-2.08a9.32,9.32,0,0,0,3.9-.8,6.43,6.43,0,0,0,2.7-2.12,2.49,2.49,0,0,0,.54-.78,2,2,0,0,0,.18-.78v-3.4a17.85,17.85,0,0,0-2.82-.8,16.44,16.44,0,0,0-3-.28,8.29,8.29,0,0,0-4.68,1.2,3.66,3.66,0,0,0-1.8,3.16,4.21,4.21,0,0,0,.38,1.8,4.48,4.48,0,0,0,1,1.46,4.69,4.69,0,0,0,1.58,1A5.29,5.29,0,0,0,1221.12,371Z"/><path d="M1254.56,372.69h-2.72V361.05a10.19,10.19,0,0,0-1.1-5.4,3.77,3.77,0,0,0-3.38-1.68,7,7,0,0,0-2.4.44,8.36,8.36,0,0,0-2.22,1.24,9.67,9.67,0,0,0-1.82,1.9,7.41,7.41,0,0,0-1.16,2.38v12.76H1237V351.85h2.48v4.72a9.79,9.79,0,0,1,3.66-3.68,10,10,0,0,1,5.18-1.4,6.23,6.23,0,0,1,2.92.64,5,5,0,0,1,1.92,1.8,8.49,8.49,0,0,1,1,2.84,20.23,20.23,0,0,1,.32,3.72Z"/><path d="M1270.16,371.69l-.7.32a10.38,10.38,0,0,1-1.06.4,10.26,10.26,0,0,1-1.36.36,7.55,7.55,0,0,1-1.6.16,5.78,5.78,0,0,1-1.68-.24,3.76,3.76,0,0,1-1.4-.74,3.58,3.58,0,0,1-1-1.26,4,4,0,0,1-.36-1.76V354h-2.88v-2.16H1261v-7h2.72v7h4.8V354h-4.8v14.16a2.12,2.12,0,0,0,.82,1.7,2.8,2.8,0,0,0,1.7.54,5,5,0,0,0,2-.38,8.52,8.52,0,0,0,1.12-.54Z"/><path d="M1281.92,373.09a9.77,9.77,0,0,1-4.16-.86,10.05,10.05,0,0,1-3.26-2.34,10.4,10.4,0,0,1-2.14-3.44,11.52,11.52,0,0,1,0-8.28,11,11,0,0,1,2.16-3.44,10.57,10.57,0,0,1,3.26-2.36,9.66,9.66,0,0,1,4.12-.88,9.85,9.85,0,0,1,4.14.88,10.66,10.66,0,0,1,3.28,2.36,11,11,0,0,1,2.16,3.44,11.18,11.18,0,0,1,.78,4.16,11.41,11.41,0,0,1-.76,4.12,10.57,10.57,0,0,1-2.14,3.44,10.13,10.13,0,0,1-3.28,2.34A9.93,9.93,0,0,1,1281.92,373.09Zm-7.56-10.72a8.67,8.67,0,0,0,.6,3.26,8.85,8.85,0,0,0,1.62,2.64,7.23,7.23,0,0,0,2.4,1.78,6.85,6.85,0,0,0,2.94.64,6.73,6.73,0,0,0,2.94-.66,7.89,7.89,0,0,0,2.42-1.8,8.56,8.56,0,0,0,1.64-2.66,8.82,8.82,0,0,0,.6-3.28,8.94,8.94,0,0,0-.6-3.26,8.66,8.66,0,0,0-1.64-2.68,7.89,7.89,0,0,0-2.42-1.8,6.73,6.73,0,0,0-2.94-.66,6.58,6.58,0,0,0-2.92.66,7.71,7.71,0,0,0-2.4,1.82,8.8,8.8,0,0,0-1.64,2.7A9,9,0,0,0,1274.36,362.37Z"/><path d="M1322.32,351.85H1325l-9,20.84h-2.24l-4.48-10.64-4.44,10.64h-2.24l-9-20.84h2.64l7.6,18,4-9.52-3.56-8.48h2.28l2.72,6.8,2.72-6.8h2.32l-3.56,8.48,4,9.52Z"/><path d="M1346.12,372.69h-2.72V361.05a10.19,10.19,0,0,0-1.1-5.4,3.77,3.77,0,0,0-3.38-1.68,7,7,0,0,0-2.4.44,8.36,8.36,0,0,0-2.22,1.24,9.67,9.67,0,0,0-1.82,1.9,7.41,7.41,0,0,0-1.16,2.38v12.76h-2.72V351.85h2.48v4.72a9.79,9.79,0,0,1,3.66-3.68,10,10,0,0,1,5.18-1.4,6.23,6.23,0,0,1,2.92.64,5,5,0,0,1,1.92,1.8,8.49,8.49,0,0,1,1,2.84,20.23,20.23,0,0,1,.32,3.72Z"/><path d="M1367.36,373.09a7.42,7.42,0,0,1-2.74-.5,6.73,6.73,0,0,1-2.2-1.38,6,6,0,0,1-1.46-2.06,6.14,6.14,0,0,1-.52-2.54,5.13,5.13,0,0,1,.64-2.52,6,6,0,0,1,1.8-2,8.82,8.82,0,0,1,2.76-1.3,12.93,12.93,0,0,1,3.52-.46,20.07,20.07,0,0,1,3.24.28,14.88,14.88,0,0,1,2.92.8v-1.88a6,6,0,0,0-1.56-4.38,5.72,5.72,0,0,0-4.32-1.62,9.31,9.31,0,0,0-3.28.64,15.81,15.81,0,0,0-3.4,1.84l-1-1.8a14.07,14.07,0,0,1,7.84-2.72,8.46,8.46,0,0,1,6.16,2.2,8.16,8.16,0,0,1,2.24,6.08v9.4c0,.75.33,1.12,1,1.12v2.4a6.57,6.57,0,0,1-1,.12,2.3,2.3,0,0,1-1.62-.52,1.9,1.9,0,0,1-.62-1.44l-.08-1.64a9.35,9.35,0,0,1-3.62,2.88A11.11,11.11,0,0,1,1367.36,373.09ZM1368,371a9.32,9.32,0,0,0,3.9-.8,6.43,6.43,0,0,0,2.7-2.12,2.49,2.49,0,0,0,.54-.78,2,2,0,0,0,.18-.78v-3.4a17.85,17.85,0,0,0-2.82-.8,16.44,16.44,0,0,0-3-.28,8.29,8.29,0,0,0-4.68,1.2,3.66,3.66,0,0,0-1.8,3.16,4.21,4.21,0,0,0,.38,1.8,4.48,4.48,0,0,0,1,1.46,4.69,4.69,0,0,0,1.58,1A5.29,5.29,0,0,0,1368,371Z"/><path d="M1394.32,354.25a8.61,8.61,0,0,0-4.8,1.52,7.66,7.66,0,0,0-2.88,4v13h-2.72V351.85h2.56v5a9.45,9.45,0,0,1,3.12-3.76,7.25,7.25,0,0,1,4.2-1.36,3.55,3.55,0,0,1,.52,0Z"/><path d="M1405.92,373.09a9.89,9.89,0,0,1-4.18-.86,10.12,10.12,0,0,1-3.3-2.36,10.81,10.81,0,0,1-2.18-3.46,11.2,11.2,0,0,1-.78-4.2,11,11,0,0,1,.78-4.14,10.83,10.83,0,0,1,2.16-3.4,10.41,10.41,0,0,1,3.3-2.32,10.54,10.54,0,0,1,8.34,0,10.24,10.24,0,0,1,3.26,2.34,11,11,0,0,1,2.88,7.48v.64a1.89,1.89,0,0,1,0,.44h-17.84a8.74,8.74,0,0,0,.78,3.1,8.31,8.31,0,0,0,1.7,2.46,7.29,7.29,0,0,0,2.38,1.62,7,7,0,0,0,2.86.58,7.31,7.31,0,0,0,2-.28,7.91,7.91,0,0,0,1.84-.76,6.9,6.9,0,0,0,1.52-1.18,5,5,0,0,0,1-1.54l2.36.64a6.89,6.89,0,0,1-1.36,2.1,9.36,9.36,0,0,1-2,1.64,9.91,9.91,0,0,1-2.56,1.08A11.3,11.3,0,0,1,1405.92,373.09Zm7.68-11.92a8.36,8.36,0,0,0-2.46-5.44,7.7,7.7,0,0,0-2.36-1.56,7.63,7.63,0,0,0-5.74,0,7.56,7.56,0,0,0-2.38,1.56,7.69,7.69,0,0,0-1.64,2.4,9,9,0,0,0-.74,3Z"/><path d="M1425.64,373.09a7.42,7.42,0,0,1-2.74-.5,6.73,6.73,0,0,1-2.2-1.38,6,6,0,0,1-1.46-2.06,6.14,6.14,0,0,1-.52-2.54,5.13,5.13,0,0,1,.64-2.52,6,6,0,0,1,1.8-2,8.82,8.82,0,0,1,2.76-1.3,12.93,12.93,0,0,1,3.52-.46,20.07,20.07,0,0,1,3.24.28,14.88,14.88,0,0,1,2.92.8v-1.88a6,6,0,0,0-1.56-4.38,5.72,5.72,0,0,0-4.32-1.62,9.31,9.31,0,0,0-3.28.64A15.81,15.81,0,0,0,1421,356l-1-1.8a14.07,14.07,0,0,1,7.84-2.72,8.46,8.46,0,0,1,6.16,2.2,8.16,8.16,0,0,1,2.24,6.08v9.4c0,.75.33,1.12,1,1.12v2.4a6.57,6.57,0,0,1-1,.12,2.3,2.3,0,0,1-1.62-.52,1.9,1.9,0,0,1-.62-1.44l-.08-1.64a9.35,9.35,0,0,1-3.62,2.88A11.11,11.11,0,0,1,1425.64,373.09Zm.64-2.08a9.32,9.32,0,0,0,3.9-.8,6.43,6.43,0,0,0,2.7-2.12,2.49,2.49,0,0,0,.54-.78,2,2,0,0,0,.18-.78v-3.4a17.85,17.85,0,0,0-2.82-.8,16.44,16.44,0,0,0-3-.28,8.29,8.29,0,0,0-4.68,1.2,3.66,3.66,0,0,0-1.8,3.16,4.21,4.21,0,0,0,.38,1.8,4.48,4.48,0,0,0,1,1.46,4.69,4.69,0,0,0,1.58,1A5.29,5.29,0,0,0,1426.28,371Z"/><path d="M1453.4,372.69V354h-2.88v-2.16h2.88v-.56a9.78,9.78,0,0,1,1.64-6,5.3,5.3,0,0,1,4.48-2.18,8.12,8.12,0,0,1,2.4.36,7,7,0,0,1,2,1l-.84,2a4.24,4.24,0,0,0-1.38-.68,5.9,5.9,0,0,0-1.66-.24,3.31,3.31,0,0,0-2.92,1.48,7.63,7.63,0,0,0-1,4.28v.64h5.76V354h-5.76v18.68Z"/><path d="M1473.44,373.09a9.77,9.77,0,0,1-4.16-.86,10.05,10.05,0,0,1-3.26-2.34,10.4,10.4,0,0,1-2.14-3.44,11.52,11.52,0,0,1,0-8.28,11,11,0,0,1,2.16-3.44,10.57,10.57,0,0,1,3.26-2.36,9.66,9.66,0,0,1,4.12-.88,9.85,9.85,0,0,1,4.14.88,10.66,10.66,0,0,1,3.28,2.36,11,11,0,0,1,2.16,3.44,11.18,11.18,0,0,1,.78,4.16,11.41,11.41,0,0,1-.76,4.12,10.57,10.57,0,0,1-2.14,3.44,10.13,10.13,0,0,1-3.28,2.34A9.93,9.93,0,0,1,1473.44,373.09Zm-7.56-10.72a8.67,8.67,0,0,0,.6,3.26,8.85,8.85,0,0,0,1.62,2.64,7.23,7.23,0,0,0,2.4,1.78,6.85,6.85,0,0,0,2.94.64,6.73,6.73,0,0,0,2.94-.66,7.89,7.89,0,0,0,2.42-1.8,8.56,8.56,0,0,0,1.64-2.66,8.82,8.82,0,0,0,.6-3.28,8.94,8.94,0,0,0-.6-3.26,8.66,8.66,0,0,0-1.64-2.68,7.89,7.89,0,0,0-2.42-1.8,6.73,6.73,0,0,0-2.94-.66,6.58,6.58,0,0,0-2.92.66,7.71,7.71,0,0,0-2.4,1.82,8.8,8.8,0,0,0-1.64,2.7A9,9,0,0,0,1465.88,362.37Z"/><path d="M1498.75,354.25a8.57,8.57,0,0,0-4.79,1.52,7.61,7.61,0,0,0-2.88,4v13h-2.73V351.85h2.57v5a9.45,9.45,0,0,1,3.12-3.76,7.24,7.24,0,0,1,4.19-1.36,3.33,3.33,0,0,1,.52,0Z"/><path d="M1520.52,373.09a9.77,9.77,0,0,1-4.16-.86,10.05,10.05,0,0,1-3.26-2.34,10.4,10.4,0,0,1-2.14-3.44,11.52,11.52,0,0,1,0-8.28,11,11,0,0,1,2.16-3.44,10.57,10.57,0,0,1,3.26-2.36,9.66,9.66,0,0,1,4.12-.88,9.85,9.85,0,0,1,4.14.88,10.66,10.66,0,0,1,3.28,2.36,11,11,0,0,1,2.16,3.44,11.18,11.18,0,0,1,.78,4.16,11.41,11.41,0,0,1-.76,4.12,10.57,10.57,0,0,1-2.14,3.44,10.13,10.13,0,0,1-3.28,2.34A9.93,9.93,0,0,1,1520.52,373.09ZM1513,362.37a8.67,8.67,0,0,0,.6,3.26,8.85,8.85,0,0,0,1.62,2.64,7.23,7.23,0,0,0,2.4,1.78,6.85,6.85,0,0,0,2.94.64,6.73,6.73,0,0,0,2.94-.66,7.89,7.89,0,0,0,2.42-1.8,8.56,8.56,0,0,0,1.64-2.66,8.82,8.82,0,0,0,.6-3.28,8.94,8.94,0,0,0-.6-3.26,8.66,8.66,0,0,0-1.64-2.68,7.89,7.89,0,0,0-2.42-1.8,6.73,6.73,0,0,0-2.94-.66,6.58,6.58,0,0,0-2.92.66,7.71,7.71,0,0,0-2.4,1.82,8.8,8.8,0,0,0-1.64,2.7A9,9,0,0,0,1513,362.37Z"/><path d="M1540.91,372.69l-8.48-20.84h2.8l7.16,18.32,7.2-18.32h2.64l-8.48,20.84Z"/><path d="M1564.27,373.09a9.93,9.93,0,0,1-4.18-.86,10.34,10.34,0,0,1-3.3-2.36,11,11,0,0,1-2.18-3.46,11.2,11.2,0,0,1-.78-4.2,11,11,0,0,1,.78-4.14,10.83,10.83,0,0,1,2.16-3.4,10.41,10.41,0,0,1,3.3-2.32,10.13,10.13,0,0,1,11.6,2.34,10.77,10.77,0,0,1,2.12,3.4,10.92,10.92,0,0,1,.76,4.08v.64a2.08,2.08,0,0,1,0,.44h-17.85a8.74,8.74,0,0,0,.79,3.1,8.47,8.47,0,0,0,1.69,2.46,7.51,7.51,0,0,0,2.38,1.62,7.11,7.11,0,0,0,2.87.58,7.31,7.31,0,0,0,2-.28,7.84,7.84,0,0,0,1.83-.76,6.67,6.67,0,0,0,1.52-1.18,4.87,4.87,0,0,0,1-1.54l2.36.64a6.71,6.71,0,0,1-1.36,2.1,8.9,8.9,0,0,1-2,1.64,9.62,9.62,0,0,1-2.56,1.08A11.18,11.18,0,0,1,1564.27,373.09Zm7.69-11.92a8.49,8.49,0,0,0-2.46-5.44,7.75,7.75,0,0,0-2.37-1.56,7.37,7.37,0,0,0-2.86-.56,7.49,7.49,0,0,0-5.25,2.12,7.71,7.71,0,0,0-1.65,2.4,9.23,9.23,0,0,0-.74,3Z"/><path d="M1589.15,354.25a8.61,8.61,0,0,0-4.8,1.52,7.66,7.66,0,0,0-2.88,4v13h-2.72V351.85h2.56v5a9.61,9.61,0,0,1,3.12-3.76,7.29,7.29,0,0,1,4.2-1.36,3.33,3.33,0,0,1,.52,0Z"/><path d="M1610.11,360.21a9.85,9.85,0,0,1,3.64.66,9,9,0,0,1,2.94,1.86,8.73,8.73,0,0,1,2,2.86,9.12,9.12,0,0,1,.72,3.66,9.31,9.31,0,0,1-.78,3.86,8.71,8.71,0,0,1-2.12,3,9.5,9.5,0,0,1-3.14,1.9,10.85,10.85,0,0,1-3.84.68,11,11,0,0,1-2.9-.38,9.63,9.63,0,0,1-2.54-1.1,10.46,10.46,0,0,1-2.1-1.72,8.92,8.92,0,0,1-1.54-2.24l1.8-1.36a8.82,8.82,0,0,0,3.06,3.16,8,8,0,0,0,4.26,1.2,7.56,7.56,0,0,0,2.76-.5,6.68,6.68,0,0,0,2.24-1.42,6.52,6.52,0,0,0,1.5-2.2,7.1,7.1,0,0,0,.54-2.8,6.81,6.81,0,0,0-.52-2.7,6.15,6.15,0,0,0-1.44-2.1,6.5,6.5,0,0,0-2.16-1.36,7.33,7.33,0,0,0-2.68-.48,8,8,0,0,0-3.54.82,7,7,0,0,0-2.7,2.38H1601c0-.16.1-.52.2-1.08s.24-1.22.4-2,.34-1.63.52-2.58.38-1.9.56-2.86q.69-3.36,1.48-7.48h13.72v2.52h-11.68l-2,10.2a7.37,7.37,0,0,1,2.54-1.74A8.62,8.62,0,0,1,1610.11,360.21Z"/><path d="M1643.11,361a14.83,14.83,0,0,1-.76,4.86,11.86,11.86,0,0,1-2.1,3.84,9.45,9.45,0,0,1-3.18,2.52,9.34,9.34,0,0,1-8,0,9.65,9.65,0,0,1-3.18-2.52,12.24,12.24,0,0,1-2.1-3.84,15.92,15.92,0,0,1,0-9.72,12.24,12.24,0,0,1,2.1-3.84,10,10,0,0,1,3.18-2.54,9.16,9.16,0,0,1,8,0,9.77,9.77,0,0,1,3.18,2.54,11.86,11.86,0,0,1,2.1,3.84A14.83,14.83,0,0,1,1643.11,361Zm-2.76,0a13.36,13.36,0,0,0-.54-3.92,9.59,9.59,0,0,0-1.5-3,6.84,6.84,0,0,0-2.3-2,6.31,6.31,0,0,0-2.94-.7,6.45,6.45,0,0,0-3,.7,6.94,6.94,0,0,0-2.3,2,9.59,9.59,0,0,0-1.5,3,14.5,14.5,0,0,0,0,7.84,9.49,9.49,0,0,0,1.5,3,6.66,6.66,0,0,0,2.3,1.94,6.44,6.44,0,0,0,3,.68,6.3,6.3,0,0,0,2.94-.68,6.57,6.57,0,0,0,2.3-1.94,9.49,9.49,0,0,0,1.5-3A13.32,13.32,0,0,0,1640.35,361Z"/><path d="M1658.59,379.09l.62.06.58,0a2.74,2.74,0,0,0,1.14-.2,2.08,2.08,0,0,0,.82-.88,13.57,13.57,0,0,0,.9-2c.34-.85.81-2,1.42-3.44L1655,351.85h2.8l7.72,18.32,7.16-18.32h2.6l-10.8,26.88a4.86,4.86,0,0,1-1.46,2,4.13,4.13,0,0,1-2.78.86l-.76,0c-.24,0-.53,0-.88-.1Z"/><path d="M1687.35,373.09a9.93,9.93,0,0,1-4.18-.86,10.34,10.34,0,0,1-3.3-2.36,11,11,0,0,1-2.18-3.46,11.2,11.2,0,0,1-.78-4.2,11,11,0,0,1,.78-4.14,10.83,10.83,0,0,1,2.16-3.4,10.41,10.41,0,0,1,3.3-2.32,10.15,10.15,0,0,1,11.6,2.34,10.77,10.77,0,0,1,2.12,3.4,10.92,10.92,0,0,1,.76,4.08v.64a1.46,1.46,0,0,1,0,.44h-17.84a8.74,8.74,0,0,0,.78,3.1,8.5,8.5,0,0,0,1.7,2.46,7.51,7.51,0,0,0,2.38,1.62,7.1,7.1,0,0,0,2.86.58,7.21,7.21,0,0,0,2-.28,7.74,7.74,0,0,0,1.84-.76,6.67,6.67,0,0,0,1.52-1.18,4.87,4.87,0,0,0,1-1.54l2.36.64a6.71,6.71,0,0,1-1.36,2.1,8.9,8.9,0,0,1-2,1.64,9.62,9.62,0,0,1-2.56,1.08A11.18,11.18,0,0,1,1687.35,373.09Zm7.68-11.92a8.36,8.36,0,0,0-2.46-5.44,7.58,7.58,0,0,0-2.36-1.56,7.37,7.37,0,0,0-2.86-.56,7.58,7.58,0,0,0-2.88.56,7.67,7.67,0,0,0-2.38,1.56,7.86,7.86,0,0,0-1.64,2.4,9.23,9.23,0,0,0-.74,3Z"/><path d="M1707.07,373.09a7.46,7.46,0,0,1-2.74-.5,6.84,6.84,0,0,1-2.2-1.38,6.22,6.22,0,0,1-2-4.6,5.24,5.24,0,0,1,.64-2.52,6.21,6.21,0,0,1,1.8-2,9,9,0,0,1,2.76-1.3,13,13,0,0,1,3.52-.46,19.88,19.88,0,0,1,3.24.28,14.5,14.5,0,0,1,2.92.8v-1.88a6,6,0,0,0-1.56-4.38,5.72,5.72,0,0,0-4.32-1.62,9.36,9.36,0,0,0-3.28.64,16,16,0,0,0-3.4,1.84l-1-1.8a14.12,14.12,0,0,1,7.84-2.72,8.42,8.42,0,0,1,6.16,2.2,8.12,8.12,0,0,1,2.24,6.08v9.4c0,.75.34,1.12,1,1.12v2.4a6.44,6.44,0,0,1-1,.12,2.34,2.34,0,0,1-1.62-.52,2,2,0,0,1-.62-1.44l-.08-1.64a9.28,9.28,0,0,1-3.62,2.88A11.08,11.08,0,0,1,1707.07,373.09Zm.64-2.08a9.26,9.26,0,0,0,3.9-.8,6.3,6.3,0,0,0,2.7-2.12,2.49,2.49,0,0,0,.54-.78,2,2,0,0,0,.18-.78v-3.4a17.27,17.27,0,0,0-2.82-.8,16.27,16.27,0,0,0-3-.28,8.29,8.29,0,0,0-4.68,1.2,3.66,3.66,0,0,0-1.8,3.16,4.37,4.37,0,0,0,.38,1.8,4.63,4.63,0,0,0,1,1.46,4.79,4.79,0,0,0,1.58,1A5.37,5.37,0,0,0,1707.71,371Z"/><path d="M1734,354.25a8.61,8.61,0,0,0-4.8,1.52,7.66,7.66,0,0,0-2.88,4v13h-2.72V351.85h2.56v5a9.61,9.61,0,0,1,3.12-3.76,7.29,7.29,0,0,1,4.2-1.36,3.33,3.33,0,0,1,.52,0Z"/><path d="M1744.59,373.09a14.37,14.37,0,0,1-4.76-.8,11.35,11.35,0,0,1-4-2.32l1.24-1.84a13.72,13.72,0,0,0,3.58,2.16,10.56,10.56,0,0,0,3.9.72,7,7,0,0,0,4-1,3.29,3.29,0,0,0,1.5-2.9,2.51,2.51,0,0,0-.4-1.46,3.54,3.54,0,0,0-1.18-1,9.5,9.5,0,0,0-2-.78c-.78-.22-1.7-.46-2.74-.7-1.2-.29-2.24-.58-3.12-.88a9.26,9.26,0,0,1-2.18-1,3.59,3.59,0,0,1-1.28-1.38,4.47,4.47,0,0,1-.42-2.06,6,6,0,0,1,.62-2.76,5.77,5.77,0,0,1,1.68-2,7.8,7.8,0,0,1,2.48-1.18,11.41,11.41,0,0,1,3-.4,11.67,11.67,0,0,1,4.36.78,8.63,8.63,0,0,1,3.16,2.06l-1.32,1.6a7.27,7.27,0,0,0-2.82-1.8,10.07,10.07,0,0,0-3.46-.6,9,9,0,0,0-2,.22,4.94,4.94,0,0,0-1.62.7,3.58,3.58,0,0,0-1.1,1.22,3.72,3.72,0,0,0-.4,1.74,2.93,2.93,0,0,0,.28,1.36,2.41,2.41,0,0,0,.92.9,7.31,7.31,0,0,0,1.62.68c.66.2,1.45.41,2.38.62,1.34.32,2.51.64,3.52,1a11.22,11.22,0,0,1,2.54,1.12,4.41,4.41,0,0,1,1.54,1.56,4.47,4.47,0,0,1,.52,2.24,5.42,5.42,0,0,1-2.2,4.56A9.5,9.5,0,0,1,1744.59,373.09Z"/><path d="M1756.75,372.69v-3.92h2.36v3.92Z"/></svg>