<svg id="Layer_1" data-name="Layer 1" xmlns="http://www.w3.org/2000/svg" viewBox="0 0 1200 1200"><defs><style>.cls-1{fill:#f1f1f1;}.cls-2{fill:#fff;}.cls-3{fill:#8e7f4f;}.cls-10,.cls-12,.cls-13,.cls-14,.cls-15,.cls-16,.cls-17,.cls-4,.cls-5,.cls-6,.cls-7,.cls-8{isolation:isolate;}.cls-5,.cls-6,.cls-7,.cls-8{font-size:89.44px;}.cls-10,.cls-12,.cls-13,.cls-14,.cls-15,.cls-16,.cls-17,.cls-5,.cls-6,.cls-7,.cls-8{font-family:PlayfairDisplay-Bold, Playfair Display;font-weight:700;}.cls-6{letter-spacing:-0.02em;}.cls-7{letter-spacing:-0.03em;}.cls-8{letter-spacing:-0.02em;}.cls-9{letter-spacing:-0.01em;}.cls-10,.cls-12,.cls-13,.cls-14,.cls-15,.cls-16,.cls-17{font-size:45.83px;}.cls-11{letter-spacing:-0.01em;}.cls-12{letter-spacing:-0.01em;}.cls-13{letter-spacing:-0.03em;}.cls-14{letter-spacing:-0.04em;}.cls-15{letter-spacing:-0.07em;}.cls-16{letter-spacing:-0.08em;}.cls-17{letter-spacing:-0.02em;}</style></defs><rect class="cls-1" width="1200" height="1200"/><path d="M599.41,445.7l.27.14.28-.14Z"/><polygon class="cls-2" points="599.68 446.18 598.13 445.4 601.23 445.4 599.68 446.18"/><path class="cls-3" d="M598.87,466.34a391.61,391.61,0,0,1,58.65,4.35A71.33,71.33,0,0,0,608.65,449a9.8,9.8,0,0,1-18.47,0,71.34,71.34,0,0,0-48.9,21.73,391.61,391.61,0,0,1,58.65-4.35"/><path class="cls-3" d="M586.09,431.33a9.05,9.05,0,0,1,4.26,3.71,9,9,0,0,1,1.19,4.69,7.88,7.88,0,1,0,15.75.68c0-.22,0-.45,0-.68a10.12,10.12,0,0,1,6.16-8.4Z"/><path class="cls-3" d="M606.41,415.73a10.93,10.93,0,0,1-5.07-6.55l-1.86-6.41h-.15l-2,6.84a11.22,11.22,0,0,1-4.77,6.44,13.67,13.67,0,0,0-6.48,11.63h27.36A13.66,13.66,0,0,0,606.41,415.73Z"/><path class="cls-3" d="M622,562.14c-11.6,23.49-33.15,23.49-44.78,0,6.08,2,13.14,6,22.76,5.77C608.33,567.73,616.51,563.94,622,562.14Z"/><path class="cls-3" d="M534.93,475.58c-2.08,0-10-.17-16.44-6-2-1.84-5.14-4.68-6.18-9.18a48.35,48.35,0,0,1-1.13-5.45c-.16-1.47-11.53,0-11.53,0s-.15,1-.4,3.36-.51,4.72-.59,7.08a99,99,0,0,0,0,14,49.46,49.46,0,0,0,2.57,13.13,30.54,30.54,0,0,0,6.75,9.83c7.22,7.07,14.75,6.85,21.36,9.63,4.61,1.94,10,5.82,14.81,14.08a2.42,2.42,0,0,1-3.67,3l-.09-.07c-1.76-1.52-8.8-7-10.64-8.14a43.83,43.83,0,0,0-12.19-5.31c-2.28-.69-4.7-1.34-7.23-2.28a29.18,29.18,0,0,1-7.56-4,25.35,25.35,0,0,1-6-6.35,33.09,33.09,0,0,1-3.73-7.45A57.68,57.68,0,0,1,490,480.07a107,107,0,0,1,0-15.19c.1-2.52.41-5,.63-7.48s.61-4.94.92-7.4l.46-3.73h28a34.63,34.63,0,0,0,15,29.36Z"/><path class="cls-3" d="M664.6,475c2.07,0,10-.16,16.44-6,2-1.84,5.14-4.68,6.17-9.18a46.92,46.92,0,0,0,1.14-5.49c.16-1.5,11.52,0,11.52,0s.16,1,.42,3.37.49,4.72.58,7.08a99,99,0,0,1,0,14A48.92,48.92,0,0,1,698.3,492a30.69,30.69,0,0,1-6.75,9.84c-7.22,7.07-14.74,6.85-21.36,9.63-4.61,1.94-10,5.82-14.8,14.07a2.42,2.42,0,0,0,3.67,3l.09-.07c1.75-1.52,8.81-7,10.64-8.14A43.49,43.49,0,0,1,682,515c2.26-.68,4.69-1.33,7.23-2.27a29.57,29.57,0,0,0,7.53-4,25.5,25.5,0,0,0,6-6.34,33.58,33.58,0,0,0,3.73-7.46,57.92,57.92,0,0,0,3.08-15.41,107.1,107.1,0,0,0,0-15.2c-.1-2.52-.41-5-.62-7.47s-.63-4.94-.94-7.41l-.46-3.73H679.58a34.74,34.74,0,0,1-2.88,14.68A35.12,35.12,0,0,1,664.6,475Z"/><path class="cls-3" d="M614.09,582.58a20.09,20.09,0,1,1-28.4,1c.34-.36.68-.71,1-1A30.35,30.35,0,0,0,614.09,582.58Z"/><path class="cls-3" d="M638.1,628.73a58.06,58.06,0,0,1-1.8-19.55H624.89c-3.49,8.52-13.07,14.68-24.38,14.68s-20.89-6.13-24.37-14.68H564.76a59,59,0,0,1-1.34,17.38,69.32,69.32,0,0,1-9.54,22.25h93.33A68.51,68.51,0,0,1,638.1,628.73Z"/><path class="cls-3" d="M657.47,474.84a424,424,0,0,0-115.62,0V475a103.07,103.07,0,0,1,5.95,12c9.6,22.83,6.2,37.89,9.8,51,.5,1.84,2,4.15,4.16,6.72a49.59,49.59,0,0,0,75.81,0c2.16-2.57,3.67-4.88,4.16-6.72,3.61-13.16.21-28.22,9.8-51a105.52,105.52,0,0,1,6-12Zm-80.23,69.09a35.91,35.91,0,0,1-9.67-8.07,14.43,14.43,0,0,1-2.94-4.69,60.12,60.12,0,0,1-1.55-11.45c-.57-7.48-1.21-16-5.83-27a81.19,81.19,0,0,0-3.91-8c5.87-.8,11.84-1.43,17.76-1.88C572.63,486.72,580.28,508.36,577.24,543.93Z"/><path d="M542.4,665.73v26.33a164.54,164.54,0,0,0,116.23,0V665.73a11,11,0,0,0-10.92-11H553.34A11,11,0,0,0,542.4,665.73Z"/><path d="M600,315.5c113.37,0,205.26,91.9,205.26,205.26S713.37,726,600,726,394.73,634.12,394.73,520.76,486.63,315.5,600,315.5m0-8c-117.38.14-212.42,95.42-212.28,212.8s95.42,212.42,212.8,212.27S812.94,637.2,812.8,519.81A212.52,212.52,0,0,0,600,307.54Z"/><path d="M600,341.45A179.31,179.31,0,1,1,420.69,520.76,179.31,179.31,0,0,1,600,341.45m0-15.73c-107.43.12-194.42,87.31-194.3,194.75S493,714.89,600.44,714.77,794.87,627.45,794.74,520A194.54,194.54,0,0,0,600,325.72Z"/><g class="cls-4"><text class="cls-5" transform="translate(350 830.1)">CH</text><text class="cls-6" transform="translate(484.61 830.1)">A</text><text class="cls-5" transform="translate(542.49 830.1)">M</text><text class="cls-7" transform="translate(625.4 830.1)">P</text><text class="cls-8" transform="translate(682.29 830.1)">I<tspan class="cls-9" x="32.11" y="0">O</tspan></text><text class="cls-5" transform="translate(785.42 830.1)">N</text><text class="cls-10" transform="translate(354.92 881.32)">T<tspan class="cls-11" x="30.62" y="0">R</tspan></text><text class="cls-12" transform="translate(417.24 881.32)">O</text><text class="cls-13" transform="translate(453.23 881.32)">P</text><text class="cls-10" transform="translate(482.37 881.32)">HIES &amp;</text><text class="cls-14" transform="translate(643.92 881.32)"> </text><text class="cls-15" transform="translate(652.81 881.32)">A</text><text class="cls-16" transform="translate(680.27 881.32)">W</text><text class="cls-17" transform="translate(721.38 881.32)">A</text><text class="cls-10" transform="translate(751.03 881.32)">RDS</text></g></svg>