<svg id="Layer_1" data-name="Layer 1" xmlns="http://www.w3.org/2000/svg" viewBox="0 0 1200 1200"><defs><style>.cls-1{fill:#f1f1f1;}.cls-2{fill:#fff;}.cls-3{fill:#8e7f4f;}.cls-10,.cls-12,.cls-13,.cls-14,.cls-15,.cls-16,.cls-17,.cls-4,.cls-5,.cls-6,.cls-7,.cls-8{isolation:isolate;}.cls-5,.cls-6,.cls-7,.cls-8{font-size:107.33px;}.cls-10,.cls-12,.cls-13,.cls-14,.cls-15,.cls-16,.cls-17,.cls-5,.cls-6,.cls-7,.cls-8{font-family:PlayfairDisplay-Bold, Playfair Display;font-weight:700;}.cls-6{letter-spacing:-0.02em;}.cls-7{letter-spacing:-0.03em;}.cls-8{letter-spacing:-0.02em;}.cls-9{letter-spacing:-0.01em;}.cls-10,.cls-12,.cls-13,.cls-14,.cls-15,.cls-16,.cls-17{font-size:55px;}.cls-11{letter-spacing:-0.01em;}.cls-12{letter-spacing:-0.01em;}.cls-13{letter-spacing:-0.03em;}.cls-14{letter-spacing:-0.04em;}.cls-15{letter-spacing:-0.07em;}.cls-16{letter-spacing:-0.08em;}.cls-17{letter-spacing:-0.02em;}</style></defs><rect class="cls-1" width="1200" height="1200"/><path d="M599.3,409.42l.32.17.33-.17Z"/><polygon class="cls-2" points="599.62 410 597.76 409.06 601.48 409.06 599.62 410"/><path class="cls-3" d="M598.64,434.19A468.29,468.29,0,0,1,669,439.41a85.59,85.59,0,0,0-58.64-26.08,11.76,11.76,0,0,1-22.17,0,85.61,85.61,0,0,0-58.68,26.08,468.52,468.52,0,0,1,70.39-5.22"/><path class="cls-3" d="M583.31,392.18a10.5,10.5,0,0,1,6.53,10.08,9.46,9.46,0,0,0,18.91.82c0-.27,0-.55,0-.82a12.12,12.12,0,0,1,7.39-10.08Z"/><path class="cls-3" d="M607.7,373.46a13.12,13.12,0,0,1-6.09-7.86l-2.24-7.69h-.17l-2.39,8.2a13.47,13.47,0,0,1-5.72,7.73,16.4,16.4,0,0,0-7.78,14h32.83A16.4,16.4,0,0,0,607.7,373.46Z"/><path class="cls-3" d="M626.43,549.15c-13.93,28.18-39.78,28.18-53.74,0,7.3,2.38,15.77,7.17,27.31,6.93C610,555.86,619.81,551.31,626.43,549.15Z"/><path class="cls-3" d="M521.92,445.27c-2.5,0-12-.2-19.73-7.17-2.44-2.21-6.17-5.62-7.42-11a55.77,55.77,0,0,1-1.35-6.54c-.2-1.76-13.83,0-13.83,0s-.19,1.21-.49,4-.61,5.67-.71,8.49a117.61,117.61,0,0,0,0,16.79,59.13,59.13,0,0,0,3.09,15.75,36.76,36.76,0,0,0,8.1,11.81c8.66,8.48,17.69,8.22,25.63,11.55,5.53,2.33,11.95,7,17.77,16.89a2.91,2.91,0,0,1-4.41,3.65l-.1-.09c-2.11-1.82-10.57-8.37-12.77-9.77a52.54,52.54,0,0,0-14.63-6.38c-2.73-.82-5.64-1.6-8.68-2.73a34.83,34.83,0,0,1-9.07-4.82,30.45,30.45,0,0,1-7.15-7.61,39.87,39.87,0,0,1-4.48-8.95A69.53,69.53,0,0,1,468,450.67a129.11,129.11,0,0,1,0-18.24c.12-3,.5-6,.75-9s.74-5.92,1.11-8.88l.56-4.48H504a41.57,41.57,0,0,0,18,35.24Z"/><path class="cls-3" d="M677.52,444.62c2.49,0,12-.2,19.73-7.17,2.43-2.21,6.16-5.62,7.4-11a54.5,54.5,0,0,0,1.37-6.58c.19-1.8,13.83,0,13.83,0s.18,1.21.49,4,.6,5.66.71,8.49a120.62,120.62,0,0,1,0,16.79A59.28,59.28,0,0,1,718,464.93a36.82,36.82,0,0,1-8.1,11.8c-8.66,8.48-17.69,8.22-25.63,11.56-5.53,2.32-12,7-17.76,16.88a2.91,2.91,0,0,0,4.4,3.65l.11-.09c2.1-1.82,10.57-8.37,12.77-9.77a52.22,52.22,0,0,1,14.63-6.37c2.72-.82,5.63-1.61,8.68-2.74a35,35,0,0,0,9-4.78,30.62,30.62,0,0,0,7.15-7.61,39.84,39.84,0,0,0,4.47-8.95,69.15,69.15,0,0,0,3.7-18.5,129,129,0,0,0,0-18.23c-.12-3-.49-6-.74-9s-.75-5.93-1.12-8.89l-.56-4.47H695.49A41.53,41.53,0,0,1,692,427.07,42.13,42.13,0,0,1,677.52,444.62Z"/><path class="cls-3" d="M616.9,573.68a24.11,24.11,0,1,1-34.07,1.25c.4-.43.82-.85,1.25-1.25A36.41,36.41,0,0,0,616.9,573.68Z"/><path class="cls-3" d="M645.72,629.06a69.52,69.52,0,0,1-2.16-23.46H629.87c-4.18,10.23-15.68,17.62-29.25,17.62s-25.07-7.37-29.26-17.62H557.72a71.28,71.28,0,0,1-1.61,20.85,83.64,83.64,0,0,1-11.45,26.71h112A82.41,82.41,0,0,1,645.72,629.06Z"/><path class="cls-3" d="M669,444.39a508.39,508.39,0,0,0-138.74,0v.23A122,122,0,0,1,537.36,459c11.51,27.39,7.44,45.46,11.76,61.26.6,2.2,2.41,5,5,8.06,23.59,28.19,67.38,28.19,91,0,2.59-3.09,4.41-5.86,5-8.06,4.33-15.8.24-33.87,11.76-61.26A125.14,125.14,0,0,1,669,444.62ZM572.69,527.3a43.11,43.11,0,0,1-11.61-9.69,17.32,17.32,0,0,1-3.52-5.63,72.86,72.86,0,0,1-1.87-13.73c-.68-9-1.44-19.16-7-32.35a94,94,0,0,0-4.7-9.62c7-.95,14.22-1.71,21.32-2.26C567.15,458.65,576.33,484.61,572.69,527.3Z"/><path d="M530.88,673.45v31.61a197.51,197.51,0,0,0,139.47,0V673.45a13.13,13.13,0,0,0-13.09-13.13H544A13.13,13.13,0,0,0,530.88,673.45Z"/><path d="M600,253.18c136,0,246.31,110.28,246.31,246.31S736,745.81,600,745.81,353.68,635.53,353.68,499.49,464,253.18,600,253.18m0-9.55C459.14,243.8,345.1,358.13,345.27,499s114.5,254.91,255.36,254.74,254.9-114.5,254.73-255.36A255.05,255.05,0,0,0,600,243.63Z"/><path d="M600,284.32c118.84,0,215.18,96.33,215.18,215.17S718.84,714.67,600,714.67,384.82,618.33,384.82,499.49,481.16,284.32,600,284.32m0-18.87c-128.92.14-233.31,104.77-233.16,233.69S471.61,732.45,600.53,732.3,833.84,627.53,833.69,498.61A233.42,233.42,0,0,0,600,265.45Z"/><g class="cls-4"><text class="cls-5" transform="translate(300 870.7)">CH</text><text class="cls-6" transform="translate(461.54 870.7)">A</text><text class="cls-5" transform="translate(530.99 870.7)">M</text><text class="cls-7" transform="translate(630.48 870.7)">P</text><text class="cls-8" transform="translate(698.75 870.7)">I<tspan class="cls-9" x="38.53" y="0">O</tspan></text><text class="cls-5" transform="translate(822.5 870.7)">N</text><text class="cls-10" transform="translate(305.9 932.17)">T<tspan class="cls-11" x="36.74" y="0">R</tspan></text><text class="cls-12" transform="translate(380.69 932.17)">O</text><text class="cls-13" transform="translate(423.87 932.17)">P</text><text class="cls-10" transform="translate(458.84 932.17)">HIES &amp;</text><text class="cls-14" transform="translate(652.71 932.17)"> </text><text class="cls-15" transform="translate(663.38 932.17)">A</text><text class="cls-16" transform="translate(696.32 932.17)">W</text><text class="cls-17" transform="translate(745.66 932.17)">A</text><text class="cls-10" transform="translate(781.24 932.17)">RDS</text></g></svg>