<svg id="Layer_1" data-name="Layer 1" xmlns="http://www.w3.org/2000/svg" xmlns:xlink="http://www.w3.org/1999/xlink" viewBox="0 0 1200 1200"><defs><style>.cls-1{fill:#f1f1f1;}.cls-2{fill:url(#linear-gradient);}.cls-3{fill:url(#linear-gradient-2);}.cls-4{fill:url(#linear-gradient-3);}.cls-5{fill:url(#linear-gradient-4);}.cls-6{fill:url(#linear-gradient-5);}.cls-7{fill:url(#linear-gradient-6);}.cls-8{fill:url(#linear-gradient-7);}.cls-9{fill:url(#linear-gradient-8);}.cls-10{fill:url(#linear-gradient-9);}.cls-11{fill:url(#linear-gradient-10);}.cls-12{fill:url(#linear-gradient-11);}.cls-13{fill:url(#linear-gradient-12);}.cls-14{fill:url(#linear-gradient-13);}.cls-15{fill:url(#linear-gradient-14);}.cls-16{fill:url(#linear-gradient-15);}.cls-17{fill:url(#linear-gradient-16);}.cls-18{fill:url(#linear-gradient-17);}.cls-19{fill:url(#linear-gradient-18);}.cls-20{fill:url(#linear-gradient-19);}.cls-21{fill:url(#linear-gradient-20);}.cls-22{fill:url(#linear-gradient-21);}.cls-23{fill:url(#linear-gradient-22);}.cls-24{fill:url(#linear-gradient-23);}.cls-25{fill:url(#linear-gradient-24);}</style><linearGradient id="linear-gradient" x1="895.38" y1="573.31" x2="895.38" y2="429.25" gradientUnits="userSpaceOnUse"><stop offset="0" stop-color="#231f20"/><stop offset="0.32" stop-color="#252223"/><stop offset="0.54" stop-color="#2d2a2c"/><stop offset="0.73" stop-color="#3b393b"/><stop offset="0.9" stop-color="#4e4e50"/><stop offset="1" stop-color="#5c5d60"/></linearGradient><linearGradient id="linear-gradient-2" x1="265.37" y1="551.11" x2="265.37" y2="427.9" xlink:href="#linear-gradient"/><linearGradient id="linear-gradient-3" x1="579.74" y1="565.89" x2="579.74" y2="422.89" xlink:href="#linear-gradient"/><linearGradient id="linear-gradient-4" x1="394.33" y1="570.95" x2="394.33" y2="428.03" xlink:href="#linear-gradient"/><linearGradient id="linear-gradient-5" x1="393.46" y1="536.62" x2="393.46" y2="452.69" xlink:href="#linear-gradient"/><linearGradient id="linear-gradient-6" x1="463.85" y1="530.03" x2="463.85" y2="428.29" xlink:href="#linear-gradient"/><linearGradient id="linear-gradient-7" x1="684.64" y1="538.48" x2="684.64" y2="426.99" xlink:href="#linear-gradient"/><linearGradient id="linear-gradient-8" x1="235.55" y1="587.06" x2="252.51" y2="570.1" gradientUnits="userSpaceOnUse"><stop offset="0" stop-color="#231f20"/><stop offset="1" stop-color="#434344"/></linearGradient><linearGradient id="linear-gradient-9" x1="257.76" y1="583.36" x2="278.14" y2="562.97" xlink:href="#linear-gradient-8"/><linearGradient id="linear-gradient-10" x1="280.64" y1="581.97" x2="298.24" y2="564.36" xlink:href="#linear-gradient-8"/><linearGradient id="linear-gradient-11" x1="313.33" y1="577.99" x2="329.98" y2="561.33" xlink:href="#linear-gradient-8"/><linearGradient id="linear-gradient-12" x1="333.34" y1="583.22" x2="353.46" y2="563.11" xlink:href="#linear-gradient-8"/><linearGradient id="linear-gradient-13" x1="356.29" y1="582.44" x2="374.84" y2="563.89" xlink:href="#linear-gradient-8"/><linearGradient id="linear-gradient-14" x1="791.53" y1="573.47" x2="791.53" y2="426.99" xlink:href="#linear-gradient"/><linearGradient id="linear-gradient-15" x1="571.76" y1="705.44" x2="571.76" y2="596.59" gradientUnits="userSpaceOnUse"><stop offset="0" stop-color="#231f20"/><stop offset="0.27" stop-color="#262224"/><stop offset="0.51" stop-color="#302d2e"/><stop offset="0.74" stop-color="#403f41"/><stop offset="0.96" stop-color="#57575a"/><stop offset="1" stop-color="#5c5d60"/></linearGradient><linearGradient id="linear-gradient-16" x1="733.78" y1="726.84" x2="733.78" y2="523.77" xlink:href="#linear-gradient-15"/><linearGradient id="linear-gradient-17" x1="326.86" y1="705.44" x2="326.86" y2="596.65" xlink:href="#linear-gradient-15"/><linearGradient id="linear-gradient-18" x1="637.66" y1="705.44" x2="637.66" y2="597.44" xlink:href="#linear-gradient-15"/><linearGradient id="linear-gradient-19" x1="800.93" y1="705.44" x2="800.93" y2="596.59" xlink:href="#linear-gradient-15"/><linearGradient id="linear-gradient-20" x1="351.19" y1="777.11" x2="351.19" y2="596.59" xlink:href="#linear-gradient-15"/><linearGradient id="linear-gradient-21" x1="568.46" y1="727.8" x2="568.46" y2="530.75" xlink:href="#linear-gradient-15"/><linearGradient id="linear-gradient-22" x1="633.6" y1="680.98" x2="633.6" y2="659.58" xlink:href="#linear-gradient-15"/><linearGradient id="linear-gradient-23" x1="381.81" y1="707.1" x2="381.81" y2="596.24" xlink:href="#linear-gradient-15"/><linearGradient id="linear-gradient-24" x1="910.86" y1="726.19" x2="910.86" y2="596.59" xlink:href="#linear-gradient-15"/></defs><rect class="cls-1" width="1200" height="1200"/><path class="cls-2" d="M881.46,570a24,24,0,0,0,10.08,3.26,23.33,23.33,0,0,0,9.91-1.32,28.48,28.48,0,0,0,14.11-11.84,52.52,52.52,0,0,0,6.67-17.31,54.12,54.12,0,0,0,1.09-9.35,36.07,36.07,0,0,0-.21-5,29.14,29.14,0,0,0-1-5.1,35.94,35.94,0,0,0-4.5-9.53,81.18,81.18,0,0,0-5.56-7.43c-3.77-4.53-7.59-8.61-11.37-12.8s-7.55-8.37-11.19-12.54-7.22-8.23-9-11.6c-1.86-3.08-2.53-8.31-2.91-13.18s0-10.25,2.11-15a16.21,16.21,0,0,1,4.53-6.17,14,14,0,0,1,7.12-3,14.44,14.44,0,0,1,7.77,1.27,10.29,10.29,0,0,1,3.16,2.11,11.4,11.4,0,0,1,1.33,1.36,12,12,0,0,1,1.15,1.49,35.74,35.74,0,0,1,3.51,6.52,53.26,53.26,0,0,1,2.53,6.87,89.56,89.56,0,0,1,2.7,14.62l13.64-.81A44.49,44.49,0,0,0,922.59,447c-2.75-5.82-7.2-11.24-13.19-14.33a18.33,18.33,0,0,0-2.24-1.06,16.87,16.87,0,0,0-2.31-.87,23.36,23.36,0,0,0-4.73-1.06,39.64,39.64,0,0,0-9.1-.22c-6.09.5-11.9,3.88-16.12,8.6A39.1,39.1,0,0,0,866,454.94a38.68,38.68,0,0,0-1.14,9.76,33.38,33.38,0,0,0,1.84,10.6c2.8,7.08,6.76,11.68,10.39,16.27s7.47,8.79,11.28,13.1,7.71,8.52,11.48,12.5c1.91,2,3.7,3.91,5.25,5.74a28.08,28.08,0,0,1,3.7,5.34,29.56,29.56,0,0,1,1.39,3.08,24,24,0,0,1,1.15,3.42,62.32,62.32,0,0,1,1.73,7.67c.82,5.19.79,10.71-1.39,15.49s-6.48,8.6-11.44,9.31a11.72,11.72,0,0,1-7-1.09,13.59,13.59,0,0,1-5-4.4A37.11,37.11,0,0,1,882.92,549a105.17,105.17,0,0,1-2-13.67l-17.12-.12C862.7,548.5,869.27,562.94,881.46,570Z"/><path class="cls-3" d="M263.48,551.05h6.74c.35,0,35.53-.36,35.53-30.82,0-27.17-28-30.38-34.27-30.76,6.29-.37,34.27-3.58,34.27-30.76,0-30.46-35.18-30.81-35.53-30.81H252.9V428H227.11v1.93h8.47v57.85h0v1.79h0v12.41a19.16,19.16,0,0,0-3.15,3.15,18,18,0,0,0-3.68,11.55A19.78,19.78,0,0,0,233.18,528a17.86,17.86,0,0,0,2.4,2.44v18.77H225v1.92h38.48ZM252.9,429.89h6.34c11.34,0,22,6.5,26.27,17a27.27,27.27,0,0,1,2,10.29v3.05a27.34,27.34,0,0,1-2.07,10.41c-4.34,10.58-15.11,17.09-26.54,17.09h-6Zm-17.78,96.52a17.41,17.41,0,0,1-4.06-9.88,16.51,16.51,0,0,1,4.52-12v22.39C235.43,526.72,235.26,526.58,235.12,526.41Zm17.78,9a21.94,21.94,0,0,0,2.55-.45,16.18,16.18,0,0,0,9.93-6.81,14.44,14.44,0,0,0,2.34-5.63,9.89,9.89,0,0,0-.94-6,5.2,5.2,0,0,0-4.94-3.22,6.72,6.72,0,0,0-4.94,3,6.73,6.73,0,0,1,5-2.4,4.38,4.38,0,0,1,4,3.07,9.3,9.3,0,0,1,.49,5.33,12.83,12.83,0,0,1-2.34,4.9,15,15,0,0,1-9,5.67,20.12,20.12,0,0,1-2,.32V491.21h6c11.43,0,22.2,6.51,26.54,17.09a27.31,27.31,0,0,1,2.07,10.41v3c0,9.57-5.07,18.45-13.47,24.29a18.57,18.57,0,0,1-10.58,3.21h0v-.07H252.9Z"/><path class="cls-4" d="M538.57,549.19H528V503.64l9.63-9.64c7.83,8.77,15.84,17.36,24.15,25.65,9.4,9.36,19,18.45,29.12,27.09a143.62,143.62,0,0,0,16.05,12c5.64,3.59,12.14,6.57,19.06,7,6.74.33,13.64-.47,19.75-3.42a28.31,28.31,0,0,0,13.64-14,27.68,27.68,0,0,1-14.17,12.85c-6,2.42-12.64,2.74-19,2s-12-3.9-17.14-7.68a138.8,138.8,0,0,1-14.73-12.67c-9.34-9.11-18.28-18.75-26.91-28.57-7.84-8.94-15.36-18.14-22.65-27.51l58.46-58.46-5.44-5.44L528,492.76V430h10.58V428H500.08V430h10.59V549.19H500.08v1.92h38.49Z"/><path class="cls-5" d="M326.75,550.15a15.15,15.15,0,0,1-14.49-18.57c1-4.26,3.37-8.22,7.22-9.82a21.68,21.68,0,0,1,8.35-1.72v30.11a17.31,17.31,0,0,0,17.32-17.32v-9.55a55.55,55.55,0,0,1,11.28,6.47c7.18,5.22,13.5,12,20.62,18.3s15.2,12.3,24.48,16.32a82.39,82.39,0,0,0,29.31,6.51,68.42,68.42,0,0,0,15.43-1,47.63,47.63,0,0,0,15.55-5.55,33.78,33.78,0,0,0,12.74-13A39.14,39.14,0,0,0,478.78,534a29.17,29.17,0,0,1-17.92.53,18.46,18.46,0,0,1-1.42,9.35,17.43,17.43,0,0,1-6,7.15c-5.72,4-14.15,6.07-22.56,6.36a69.87,69.87,0,0,1-25.27-3.5c-8.09-2.75-15.61-7.32-22.84-12.79s-14.25-11.85-22.59-17a61.19,61.19,0,0,0-13.3-6.23c-.57-.16-1.15-.29-1.72-.44V430h10.58V428H317.25V430h10.58v85.91a25.44,25.44,0,0,0-9.91,2.91,15.69,15.69,0,0,0-3.12,2.3,14.57,14.57,0,0,0-2.37,3.08,19.23,19.23,0,0,0-2.39,7,17,17,0,0,0,4,13.64A15.89,15.89,0,0,0,326.75,550.15Z"/><path class="cls-6" d="M386.46,446.75l12.08,49.53-1.67-.91a24,24,0,0,1-9.49-9.49l-.92-1.69-.92,1.69a24,24,0,0,1-9.49,9.49l-1.69.92,1.69.93a23.94,23.94,0,0,1,9.49,9.49l.92,1.69.92-1.69a23.94,23.94,0,0,1,9.49-9.49l1.67-.92,9.09,37.26a13.77,13.77,0,0,0,17.31,0c-8.33-39.34-16.67-65.63-25-105H382.61L362,512.92c2.3,1.48,4.54,3,6.74,4.53Z"/><path class="cls-7" d="M466.92,530c12,0,22.59-8.78,28.9-22.14H481.16c-3.23,11.92-8.4,19.68-14.24,19.68-9.79,0-17.73-21.67-17.73-48.41s7.94-48.42,17.73-48.42c5.84,0,11,7.77,14.24,19.69h14.66c-6.31-13.36-16.9-22.14-28.9-22.14-19.36,0-35,22.77-35,50.87S447.56,530,466.92,530Z"/><path class="cls-8" d="M651.82,462.23c.86-8,2.37-22.1,12.86-29.43l0,0a18.36,18.36,0,0,1,10.49-3.18h27.7s-28.54,53-39.55,73.65a79.2,79.2,0,0,0-8.21,23.09c-1.65,9-.5,12.14-.5,12.15h0l7.33-9.79a46.44,46.44,0,0,1,4.73-4.58,47.23,47.23,0,0,1,7.64-5.24c1.31-.81,2.75-1.37,4.13-2,1.45-.52,2.86-1.15,4.35-1.54a44.86,44.86,0,0,1,18.3-1.67,46.34,46.34,0,0,1,9.14,1.93,51.76,51.76,0,0,1,8.78,3.52c-.14-.1-.29-.18-.44-.28l.44.1V473h-1.7c.25,2.84-.1,7-.11,12,0,13.28-8.29,20.1-16.13,23.84a24.15,24.15,0,0,1-9.38,2.25h0a45.65,45.65,0,0,0-9.62,1.76,40.83,40.83,0,0,0-13.41,7l4-5.28,46.65-84.91V427H650v47.22h1.7A61.94,61.94,0,0,1,651.82,462.23Z"/><path class="cls-9" d="M244.08,561.8H244c-.28,0-.37.32-.69.85l-10.95,20.62a.58.58,0,0,0,.53.85h4c.56,0,.75-.19,1.09-.85l1.66-3.22h8.8l1.66,3.22c.34.66.53.85,1.09.85h4a.57.57,0,0,0,.53-.85l-10.95-20.62C244.45,562.12,244.36,561.8,244.08,561.8Zm-2.73,13.93,2.66-5.38h.07l2.66,5.38Z"/><path class="cls-10" d="M273.48,562.21c-.66,0-.85.19-.85.85v11l-13.27-12a.87.87,0,0,0-.59-.29h-.32c-.21,0-.28.07-.28.29v21.18c0,.66.19.85.85.85h3.41c.66,0,.84-.19.84-.85V572.1l13.27,12.14a.89.89,0,0,0,.6.29h.31c.22,0,.28-.07.28-.29V563.06c0-.66-.18-.85-.84-.85Z"/><path class="cls-11" d="M283.29,562.21c-.66,0-.85.19-.85.85v20.21c0,.66.19.85.85.85h8a11,11,0,1,0,0-21.91Zm14.08,11c0,3.41-2.1,6.72-6.1,6.72h-3.73V566.44h3.73C295.27,566.44,297.37,569.69,297.37,573.17Z"/><path class="cls-12" d="M320,584.12h3.41c.66,0,.84-.19.84-.85V566.75h6.17c.66,0,.84-.19.84-.85v-2.84c0-.66-.18-.85-.84-.85H312.94c-.66,0-.85.19-.85.85v2.84c0,.66.19.85.85.85h6.16v16.52C319.1,583.93,319.29,584.12,320,584.12Z"/><path class="cls-13" d="M338.14,562.21h-3.41c-.66,0-.84.19-.84.85v20.21c0,.66.18.85.84.85h3.41c.66,0,.85-.19.85-.85v-7.79h8.82v7.79c0,.66.19.85.85.85h3.41c.66,0,.84-.19.84-.85V563.06c0-.66-.18-.85-.84-.85h-3.41c-.66,0-.85.19-.85.85v8H339v-8C339,562.4,338.8,562.21,338.14,562.21Z"/><path class="cls-14" d="M372.67,566.53c.66,0,.85-.19.85-.85v-2.62c0-.66-.19-.85-.85-.85h-14.2c-.66,0-.85.19-.85.85v20.21c0,.66.19.85.85.85h14.2c.66,0,.85-.19.85-.85v-2.62c0-.66-.19-.85-.85-.85h-9.95v-4.54h9.55c.65,0,.84-.19.84-.84v-2.63c0-.66-.19-.85-.84-.85h-9.55v-4.41Z"/><path class="cls-15" d="M729.29,520.65c2.12-1.43,13.41-8.41,27.37-4.7A34.44,34.44,0,0,1,777,531.6l1-.6h.38v-.22l.66-.38c-.17-.29-.4-.66-.66-1.07V485.08h-1.7a61.28,61.28,0,0,1-.12,12c-.64,6-1.72,15.49-6.67,22.94a34.76,34.76,0,0,0-25.65-7.3V474.89h23.12v-2.61H744.27V429.59h8.93a18.39,18.39,0,0,1,10.5,3.18l0,0c10.5,7.33,12,21.42,12.86,29.43a61.28,61.28,0,0,1,.12,12h1.7V429.59h7.5V544.23a29.25,29.25,0,0,0,29.25,29.24h0a29.25,29.25,0,0,0,29.25-29.24V429.59h10.72V427H818.37v2.6h10.38V557.27c0,6.06-7.53,11-13.59,11s-13.59-4.93-13.59-11V429.59h10V427h-83v91.24l-.67.44Z"/><path class="cls-16" d="M587,598.29a24.59,24.59,0,0,1,8.35,3.66c10.49,7.33,12,21.43,12.86,29.44a62.81,62.81,0,0,1,.12,12H610V598.29h0v-1.7H533.5v.85h0v45.92h1.71a61.84,61.84,0,0,1,.11-12c.86-8,2.37-22.11,12.86-29.44a24.68,24.68,0,0,1,8.35-3.66h7.59V703.74h-9.36v1.7h34v-1.7h-9.36V598.29Z"/><path class="cls-17" d="M779.62,725.08l-.11,0-.21,0-.42-.09-.83-.16-1.63-.44a28.82,28.82,0,0,1-3.11-1.16,24.18,24.18,0,0,1-5.45-3.4c-2.56-2.12-5.44-7.07-6.48-9-.4-.72-.82-1.43-1.24-2.14l-36.87-61.91-.21.13,42.26-53.79a82.41,82.41,0,0,0,7.11-12.71,63,63,0,0,0,4.22-14,43.63,43.63,0,0,0,.2-14.6,32.16,32.16,0,0,0-5.53-13.51,41.09,41.09,0,0,0-10.55-9.91,30.35,30.35,0,0,0-6.5-3.24,22,22,0,0,0-7.12-1.38,19.53,19.53,0,0,0-13.35,4.8,30.26,30.26,0,0,0-8.13,11.65,30,30,0,0,1,8.4-11.32,18.86,18.86,0,0,1,13-4.28,20.68,20.68,0,0,1,6.79,1.53,28.59,28.59,0,0,1,6.16,3.31,39.44,39.44,0,0,1,9.88,9.83,30.17,30.17,0,0,1,4.81,12.84,41.64,41.64,0,0,1-.6,13.81,60.16,60.16,0,0,1-4.44,13.2,78.11,78.11,0,0,1-7.17,12L707.3,657.29V598.35h9.36v-1.7h-34v1.7H692V703.74h-9.36v1.7h34v-1.7H707.3V667l9.17-11.67,33.85,56.78A29,29,0,0,0,765,724.83a29.18,29.18,0,0,0,7.4,1.84,33.23,33.23,0,0,0,3.71.17l1.83-.1.91-.1.45-.06.22,0,.11,0h.06l5.24-.61v-.32l-5.24-.52Z"/><polygon class="cls-18" points="343.87 703.74 334.51 703.74 334.51 598.35 343.87 598.35 343.87 596.65 309.85 596.65 309.85 598.35 319.21 598.35 319.21 703.74 309.85 703.74 309.85 705.44 343.87 705.44 343.87 703.74"/><polygon class="cls-19" points="645.74 597.44 637.24 597.44 630.43 597.44 608.5 703.74 598.12 703.74 598.12 705.44 625.33 705.44 625.33 703.74 615.3 703.74 633.84 613.93 652.37 703.74 643.19 703.74 643.19 705.44 677.2 705.44 677.2 703.74 667.67 703.74 645.74 597.44"/><path class="cls-20" d="M765.64,598.29H775V703.74h-9.35v1.7h70.58v-1.7h0V658.67h-1.7a61.28,61.28,0,0,1-.12,12c-.85,8-2.36,22.1-12.86,29.43l-.85.57a20.75,20.75,0,0,1-11,3.09H790.3v-51h30.61V651H790.3V598.29h19.37a20.67,20.67,0,0,1,11,3.1c.32.2.6.39.85.56,10.5,7.33,12,21.43,12.86,29.44a61.18,61.18,0,0,1,.12,12h1.7V598.29h0v-1.7H765.64Z"/><path class="cls-21" d="M471.6,734.65a38.33,38.33,0,0,0-6.9-7.15,68.32,68.32,0,0,0-17-10,69.34,69.34,0,0,0-19.11-4.88,92.75,92.75,0,0,0-19.71.29c-13.07,1.52-25.73,5.11-38.4,8.27s-25.57,6.15-38.6,5.08a45.54,45.54,0,0,1-17.84-5,24.47,24.47,0,0,1-4.68-3.65c-2.34-2.35-4.71-7.56-5.57-9.55-.32-.75-.67-1.5-1-2.25L280.3,657.88c9.25-2.74,21.78-10.09,21.78-29.82,0-31.11-31.15-31.47-31.46-31.47h-38.1v1.7H240v14.44a26.16,26.16,0,0,0-9,7.08A26.44,26.44,0,0,0,225,635a24.27,24.27,0,0,0,5,15.49,26.58,26.58,0,0,0,10,7.91v45.34h-9.35v1.7h34v-1.7h-9.35V659.52h14.5l20,42.57c2.07,4.42,8,14.36,11.8,17.47,4.85,4,11.45,8.78,32.34,10.23a88.92,88.92,0,0,0,18-.38c6.7-.75,13.22-2.14,19.67-3.5,12.89-2.69,25.41-6.08,37.89-7.2a91.31,91.31,0,0,1,18.4-.08,68,68,0,0,1,32.92,13.56,32.9,32.9,0,0,1,5.88,5.93c.42.51.65,1,1,1.52s.65,1.22.94,1.84a41.15,41.15,0,0,1,1.58,3.92c1.83,5.33,2.1,10.86-.07,15.27a22.47,22.47,0,0,1-11.47,10.65,15.51,15.51,0,0,1-7.56,1,18.65,18.65,0,0,1-7.46-2.77,15.42,15.42,0,0,1-5.47-5.66,11.71,11.71,0,0,1-1.14-7.54,14,14,0,0,1,3.49-7.36,12.08,12.08,0,0,1,7.44-3.65,9.42,9.42,0,0,1,8,2.19c2.15,2,3.1,5.24,2.89,8.42l.62.09a11.59,11.59,0,0,0-2.44-9.47,9.69,9.69,0,0,0-4.22-2.72,13.51,13.51,0,0,0-5-.57,14.59,14.59,0,0,0-9.12,3.74,16.89,16.89,0,0,0-4.89,8.6,15.22,15.22,0,0,0,.94,9.84,19.28,19.28,0,0,0,6.45,7.53,22.63,22.63,0,0,0,9.15,3.85,20.27,20.27,0,0,0,9.89-.89,26.87,26.87,0,0,0,14.74-12.81,21.74,21.74,0,0,0,2.33-9.68,31.4,31.4,0,0,0-1.53-9.82A32.48,32.48,0,0,0,471.6,734.65ZM240,655.89a24.44,24.44,0,0,1-7.78-7,21.65,21.65,0,0,1-4-13.69,23.51,23.51,0,0,1,5.39-13.23,24.1,24.1,0,0,1,6.39-5.41Zm17.25,1.93h-1.94V612.75a26.25,26.25,0,0,1,4.84.6A22.64,22.64,0,0,1,266.9,616a19.52,19.52,0,0,1,5.32,4.94,17.71,17.71,0,0,1,3.15,6.54,12.47,12.47,0,0,1-.64,7.13,7.25,7.25,0,0,1-2,2.92,5.34,5.34,0,0,1-3.3,1.2,9,9,0,0,1-6.63-3.22,9,9,0,0,0,6.61,4,6.18,6.18,0,0,0,4-1.1,8.43,8.43,0,0,0,2.65-3.2,13.41,13.41,0,0,0,1.28-8.07,19.09,19.09,0,0,0-3.13-7.57,22,22,0,0,0-5.78-5.84,23.71,23.71,0,0,0-7.54-3.3,30.38,30.38,0,0,0-5.53-.82V598.29h1.94c15.08,0,27.94,11.66,28.64,26.73,0,.49,0,1,0,1.48v3.12c0,.49,0,1,0,1.48C285.19,646.16,272.33,657.82,257.25,657.82Z"/><path class="cls-22" d="M711.29,575.09a29.22,29.22,0,0,0,6.35-9.51,33.37,33.37,0,0,0,2.26-11.14,26.79,26.79,0,0,0-2-11.2,19.52,19.52,0,0,0-7.34-8.7,23.54,23.54,0,0,0-10.69-3.65,23.92,23.92,0,0,0-11.15,1.38,17.14,17.14,0,0,0-8.75,7,19.83,19.83,0,0,0-2.8,10.79,13,13,0,0,0,4.54,10,11.51,11.51,0,0,0,10.59,2.27,8.88,8.88,0,0,0,4.59-3.09,9.19,9.19,0,0,0,1.81-5.21,6.37,6.37,0,0,0-2.22-4.93,8.4,8.4,0,0,0-5.1-1.86,8.29,8.29,0,0,1,5,1.94,6.24,6.24,0,0,1,2.08,4.85,9,9,0,0,1-1.85,5,8.56,8.56,0,0,1-4.46,2.88,11,11,0,0,1-10.07-2.35,12.29,12.29,0,0,1-4.09-9.53,18.85,18.85,0,0,1,2.85-10.2,16,16,0,0,1,8.29-6.36,22.63,22.63,0,0,1,10.55-1.09,22,22,0,0,1,9.91,3.59,17.71,17.71,0,0,1,6.52,8,24.72,24.72,0,0,1,1.59,10.38,31,31,0,0,1-2.3,10.33,26.82,26.82,0,0,1-6,8.59c-5.08,4.94-11.8,8-18.64,10.15-3.45,1.09-7,2-10.53,2.73-1.78.37-3.58.78-5.37,1.07l-5.35.79-2.68.4c-.9.06-1.8.08-2.69.13l-5.39.23c-1.8,0-3.59-.19-5.38-.28l-2.68-.17-2.66-.41a95.28,95.28,0,0,1-20.84-5.58c-13.57-5-26.73-12.23-41.61-15.5a47.44,47.44,0,0,0-5.59-1,44.83,44.83,0,0,0-5.66-.68l-5.71-.28c-1.9,0-3.8.19-5.7.28a79.57,79.57,0,0,0-22.27,4.59c-13.88,4.88-26.3,13-37.25,22.48l-.09-.09-61.75,61.75V598.35H451v-1.7H417v1.7h9.35V703.74H417v1.7h34v-1.7h-9.35V663.48l7-7.05,33.17,55.63a30.24,30.24,0,0,0,10,10.44,29.46,29.46,0,0,0,3.29,1.72,32,32,0,0,0,9.55,3.23,27.19,27.19,0,0,0,10.71-.41,33.84,33.84,0,0,0,17.69-10.87,27,27,0,0,0,6.75-19.48,23,23,0,0,0-20-21.12,22.51,22.51,0,0,0-5.19-.06,19.76,19.76,0,0,0-5,1.35,18.54,18.54,0,0,0-7.91,6.53,18.06,18.06,0,0,0-3.12,9.67,14.28,14.28,0,0,0,3.11,9.56,14.44,14.44,0,0,0,8.51,5.19,11.54,11.54,0,0,0,5-.06,10.73,10.73,0,0,0,4.31-2.52,17,17,0,0,0,4.72-8.59,16.88,16.88,0,0,1-4.93,8.36,10.29,10.29,0,0,1-4.23,2.29,11,11,0,0,1-4.77-.1,13.67,13.67,0,0,1-7.88-5.15,13.16,13.16,0,0,1-2.59-8.93,16.64,16.64,0,0,1,10.48-14.48,17.6,17.6,0,0,1,4.52-1.06,20.64,20.64,0,0,1,13.26,3.69,20.34,20.34,0,0,1,8.59,15.64,23.45,23.45,0,0,1-6.45,16.74,29.68,29.68,0,0,1-15.75,9,22.76,22.76,0,0,1-11.94-.75,24,24,0,0,1-3.15-2.16c-2.55-2.12-5.43-7.07-6.47-9-.4-.72-.82-1.43-1.24-2.14L456.14,649l50.78-50.78c10.56-9.68,22.54-17.92,35.85-22.89a73.79,73.79,0,0,1,20.69-4.68c1.76-.12,3.53-.32,5.3-.37l5.3.17a37.62,37.62,0,0,1,5.29.53,43.17,43.17,0,0,1,5.27.86c14,2.77,27.16,9.58,41.22,14.51a99.13,99.13,0,0,0,21.78,5.37l2.79.38,2.82.12c1.88.06,3.76.18,5.64.19l5.62-.36c.94-.06,1.88-.1,2.81-.19l2.77-.46,5.54-.93c1.83-.33,3.61-.78,5.42-1.19,3.61-.85,7.21-1.82,10.75-3C698.82,583.86,705.87,580.57,711.29,575.09Z"/><path class="cls-23" d="M642.81,669.46a21.16,21.16,0,0,1-8.39-8.39l-.82-1.49-.81,1.49a21.16,21.16,0,0,1-8.39,8.39l-1.49.82,1.49.81a21.16,21.16,0,0,1,8.39,8.39l.81,1.5.82-1.5a21.16,21.16,0,0,1,8.39-8.39l1.49-.81Z"/><path class="cls-24" d="M369.91,705.92a32.35,32.35,0,0,0,16.85.13,31.86,31.86,0,0,0,14.13-7.29,28.43,28.43,0,0,0,8.35-14.5,33.69,33.69,0,0,0,.91-8.58c0-.73-.08-1.47-.15-2.23l-.08-.61-.12-.66-.25-1.15a21.39,21.39,0,0,0-1.63-4.66,30.82,30.82,0,0,0-5.48-7.58c-1.94-2-3.85-3.76-5.78-5.45-3.84-3.28-7.67-6.31-11.49-9.37l-11.33-9.21c-1.85-1.52-3.64-3-5.3-4.49a32.54,32.54,0,0,1-4-4,8.87,8.87,0,0,1-1.1-1.79,13.82,13.82,0,0,1-.8-2.45,24.48,24.48,0,0,1-.68-5.78A18.21,18.21,0,0,1,366,604.37a16.7,16.7,0,0,1,12.3-5.48,18.08,18.08,0,0,1,12.62,4.89,33.65,33.65,0,0,1,4.2,4.75,30.24,30.24,0,0,1,3.2,5.13,39.5,39.5,0,0,1,3.33,11.44l12.17-1a31.08,31.08,0,0,0-5.71-16.48,29.78,29.78,0,0,0-6.09-6.34,24.61,24.61,0,0,0-7.77-3.87,28.27,28.27,0,0,0-8.27-1.16c-2.65,0-5.22,0-7.79.2a30.33,30.33,0,0,0-15,4.6,26.77,26.77,0,0,0-10.75,13.14,25.23,25.23,0,0,0-1.58,8.94,21.77,21.77,0,0,0,.52,4.82,20.32,20.32,0,0,0,1.82,5,33.82,33.82,0,0,0,5.45,7.35c1.87,2,3.78,3.74,5.67,5.46,3.77,3.38,7.58,6.54,11.42,9.73s7.74,6.28,11.55,9.23c1.88,1.46,3.76,2.89,5.41,4.24a25.75,25.75,0,0,1,3.89,3.83,16.51,16.51,0,0,1,1.33,2.1l.31.62a1.77,1.77,0,0,0,.14.23l.13.29c.19.44.36.91.53,1.4a32.51,32.51,0,0,1,1.55,6.18c.62,4.22,0,8.78-2.75,12.33a16.05,16.05,0,0,1-11.76,5.94,16.42,16.42,0,0,1-11.94-4.34,25.1,25.1,0,0,1-3.88-4.62,28.31,28.31,0,0,1-2.65-5,38.65,38.65,0,0,1-2.46-10.24l-15.31-.15a26.83,26.83,0,0,0,5.27,18A28.66,28.66,0,0,0,369.91,705.92Z"/><path class="cls-25" d="M974.92,695.08a23,23,0,0,0-20-21.12,22.5,22.5,0,0,0-5.19-.07,20.2,20.2,0,0,0-5,1.36,18.54,18.54,0,0,0-7.91,6.53,18,18,0,0,0-3.12,9.66,14.43,14.43,0,0,0,11.62,14.76,11.54,11.54,0,0,0,5-.06,10.73,10.73,0,0,0,4.31-2.52,17,17,0,0,0,4.72-8.59,16.85,16.85,0,0,1-4.93,8.35,10.07,10.07,0,0,1-4.23,2.29,10.83,10.83,0,0,1-4.77-.1,13.6,13.6,0,0,1-7.88-5.14,13.16,13.16,0,0,1-2.59-8.93A16.64,16.64,0,0,1,945.37,677a17.6,17.6,0,0,1,4.52-1.06,20.32,20.32,0,0,1,4.67.21,20.86,20.86,0,0,1,8.59,3.47,20.38,20.38,0,0,1,8.59,15.65A23.45,23.45,0,0,1,965.29,712a29.68,29.68,0,0,1-15.75,9,23.15,23.15,0,0,1-13-1.12,10.39,10.39,0,0,1-3.72-2.36l0,0c-2.33-2.35-4.71-7.56-5.56-9.55q-.5-1.12-1-2.25l-22.47-47.89c9.25-2.74,21.77-10.09,21.77-29.82,0-31.11-31.14-31.47-31.46-31.47h-38.1v1.7h7.49V612a26.81,26.81,0,0,0-10.7,7.85,26.52,26.52,0,0,0-6,15.19,24.33,24.33,0,0,0,5,15.49,26.49,26.49,0,0,0,11.7,8.61v44.64h-9.35v1.7h34v-1.7h-9.35V659.52h14.49l22.86,48.67A30.35,30.35,0,0,0,925,719.56a28.63,28.63,0,0,0,4.4,2.76,28.28,28.28,0,0,0,2.58,1.16,31.68,31.68,0,0,0,7.78,2.36,27.37,27.37,0,0,0,10.71-.41,33.84,33.84,0,0,0,17.69-10.87A27,27,0,0,0,974.92,695.08Zm-111.51-38.3a24.6,24.6,0,0,1-9.47-7.93,21.65,21.65,0,0,1-4-13.69,23.51,23.51,0,0,1,5.39-13.23,24.38,24.38,0,0,1,8.08-6.32Zm17.24,1h-1.93v-45a25.78,25.78,0,0,1,3.15.49,22.74,22.74,0,0,1,6.75,2.68,19.34,19.34,0,0,1,5.31,4.94,17.4,17.4,0,0,1,3.15,6.54,12.38,12.38,0,0,1-.63,7.13,7.25,7.25,0,0,1-2,2.92,5.34,5.34,0,0,1-3.31,1.2,9,9,0,0,1-6.62-3.22,9,9,0,0,0,6.61,4,6.18,6.18,0,0,0,4-1.1,8.53,8.53,0,0,0,2.65-3.2,13.33,13.33,0,0,0,1.27-8.07,19.08,19.08,0,0,0-3.12-7.57,22,22,0,0,0-5.78-5.84,23.71,23.71,0,0,0-7.54-3.3,31.51,31.51,0,0,0-3.84-.68V598.29h1.93c15.09,0,28,11.66,28.64,26.73,0,.49,0,1,0,1.48v3.12c0,.49,0,1,0,1.48C908.6,646.16,895.74,657.82,880.65,657.82Z"/></svg>