<svg id="Layer_1" data-name="Layer 1" xmlns="http://www.w3.org/2000/svg" xmlns:xlink="http://www.w3.org/1999/xlink" viewBox="0 0 1920 540"><defs><style>.cls-1{fill:url(#linear-gradient);}.cls-2{fill:url(#linear-gradient-2);}.cls-3{fill:url(#linear-gradient-3);}.cls-4{fill:url(#linear-gradient-4);}.cls-5{fill:url(#linear-gradient-5);}.cls-6{fill:url(#linear-gradient-6);}.cls-7{fill:url(#linear-gradient-7);}.cls-8{fill:url(#linear-gradient-8);}.cls-9{fill:url(#linear-gradient-9);}.cls-10{fill:url(#linear-gradient-10);}.cls-11{fill:url(#linear-gradient-11);}.cls-12{fill:url(#linear-gradient-12);}.cls-13{fill:url(#linear-gradient-13);}.cls-14{fill:url(#linear-gradient-14);}.cls-15{fill:url(#linear-gradient-15);}.cls-16{fill:url(#linear-gradient-16);}.cls-17{fill:url(#linear-gradient-17);}.cls-18{fill:url(#linear-gradient-18);}.cls-19{fill:url(#linear-gradient-19);}.cls-20{fill:url(#linear-gradient-20);}.cls-21{fill:url(#linear-gradient-21);}.cls-22{fill:url(#linear-gradient-22);}.cls-23{fill:url(#linear-gradient-23);}.cls-24{fill:url(#linear-gradient-24);}</style><linearGradient id="linear-gradient" x1="1239.97" y1="254.7" x2="1239.97" y2="118.16" gradientUnits="userSpaceOnUse"><stop offset="0" stop-color="#231f20"/><stop offset="0.32" stop-color="#252223"/><stop offset="0.54" stop-color="#2d2a2c"/><stop offset="0.73" stop-color="#3b393b"/><stop offset="0.9" stop-color="#4e4e50"/><stop offset="1" stop-color="#5c5d60"/></linearGradient><linearGradient id="linear-gradient-2" x1="642.82" y1="233.66" x2="642.82" y2="116.88" xlink:href="#linear-gradient"/><linearGradient id="linear-gradient-3" x1="940.79" y1="247.67" x2="940.79" y2="112.13" xlink:href="#linear-gradient"/><linearGradient id="linear-gradient-4" x1="765.05" y1="252.46" x2="765.05" y2="117" xlink:href="#linear-gradient"/><linearGradient id="linear-gradient-5" x1="764.23" y1="219.93" x2="764.23" y2="140.37" xlink:href="#linear-gradient"/><linearGradient id="linear-gradient-6" x1="830.95" y1="213.68" x2="830.95" y2="117.24" xlink:href="#linear-gradient"/><linearGradient id="linear-gradient-7" x1="1040.22" y1="221.68" x2="1040.22" y2="116.01" xlink:href="#linear-gradient"/><linearGradient id="linear-gradient-8" x1="614.56" y1="267.74" x2="630.63" y2="251.66" gradientUnits="userSpaceOnUse"><stop offset="0" stop-color="#231f20"/><stop offset="1" stop-color="#434344"/></linearGradient><linearGradient id="linear-gradient-9" x1="635.61" y1="264.22" x2="654.93" y2="244.91" xlink:href="#linear-gradient-8"/><linearGradient id="linear-gradient-10" x1="657.29" y1="262.91" x2="673.98" y2="246.22" xlink:href="#linear-gradient-8"/><linearGradient id="linear-gradient-11" x1="688.27" y1="259.14" x2="704.06" y2="243.35" xlink:href="#linear-gradient-8"/><linearGradient id="linear-gradient-12" x1="707.25" y1="264.1" x2="726.31" y2="245.03" xlink:href="#linear-gradient-8"/><linearGradient id="linear-gradient-13" x1="729" y1="263.36" x2="746.59" y2="245.77" xlink:href="#linear-gradient-8"/><linearGradient id="linear-gradient-14" x1="1141.55" y1="254.86" x2="1141.55" y2="116.01" xlink:href="#linear-gradient"/><linearGradient id="linear-gradient-15" x1="933.23" y1="379.94" x2="933.23" y2="276.77" gradientUnits="userSpaceOnUse"><stop offset="0" stop-color="#231f20"/><stop offset="0.27" stop-color="#262224"/><stop offset="0.51" stop-color="#302d2e"/><stop offset="0.74" stop-color="#403f41"/><stop offset="0.96" stop-color="#57575a"/><stop offset="1" stop-color="#5c5d60"/></linearGradient><linearGradient id="linear-gradient-16" x1="1086.8" y1="400.23" x2="1086.8" y2="207.75" xlink:href="#linear-gradient-15"/><linearGradient id="linear-gradient-17" x1="701.1" y1="379.94" x2="701.1" y2="276.83" xlink:href="#linear-gradient-15"/><linearGradient id="linear-gradient-18" x1="995.7" y1="379.94" x2="995.7" y2="277.58" xlink:href="#linear-gradient-15"/><linearGradient id="linear-gradient-19" x1="1150.45" y1="379.94" x2="1150.45" y2="276.77" xlink:href="#linear-gradient-15"/><linearGradient id="linear-gradient-20" x1="724.17" y1="447.87" x2="724.17" y2="276.77" xlink:href="#linear-gradient-15"/><linearGradient id="linear-gradient-21" x1="930.1" y1="401.14" x2="930.1" y2="214.36" xlink:href="#linear-gradient-15"/><linearGradient id="linear-gradient-22" x1="991.85" y1="356.75" x2="991.85" y2="336.47" xlink:href="#linear-gradient-15"/><linearGradient id="linear-gradient-23" x1="753.19" y1="381.52" x2="753.19" y2="276.44" xlink:href="#linear-gradient-15"/><linearGradient id="linear-gradient-24" x1="1254.65" y1="399.61" x2="1254.65" y2="276.77" xlink:href="#linear-gradient-15"/></defs><path class="cls-1" d="M1226.78,251.54a22.74,22.74,0,0,0,9.56,3.08,21.89,21.89,0,0,0,9.39-1.25,26.93,26.93,0,0,0,13.38-11.21,50.2,50.2,0,0,0,6.32-16.42,51.39,51.39,0,0,0,1-8.86,33.82,33.82,0,0,0-.2-4.73,27,27,0,0,0-.93-4.83,33.56,33.56,0,0,0-4.26-9,77.44,77.44,0,0,0-5.27-7c-3.57-4.29-7.19-8.16-10.78-12.13s-7.16-7.94-10.61-11.89-6.84-7.8-8.56-11c-1.77-2.92-2.4-7.88-2.77-12.49s0-9.72,2-14.21a15.39,15.39,0,0,1,4.3-5.85,13.17,13.17,0,0,1,6.75-2.84,13.58,13.58,0,0,1,7.37,1.2,9.73,9.73,0,0,1,3,2,10.25,10.25,0,0,1,1.26,1.29,11.52,11.52,0,0,1,1.09,1.41,33,33,0,0,1,3.32,6.18,47.49,47.49,0,0,1,2.4,6.52,84.61,84.61,0,0,1,2.57,13.85l12.92-.77a42.1,42.1,0,0,0-4.28-17.58c-2.61-5.52-6.83-10.66-12.5-13.58a18,18,0,0,0-2.13-1,16.81,16.81,0,0,0-2.18-.82,21.8,21.8,0,0,0-4.49-1,36.63,36.63,0,0,0-8.62-.21c-5.78.47-11.28,3.67-15.28,8.15a37.05,37.05,0,0,0-8.48,16,36.59,36.59,0,0,0-1.08,9.25,31.46,31.46,0,0,0,1.74,10.05c2.66,6.72,6.41,11.07,9.85,15.43s7.08,8.32,10.69,12.41,7.31,8.08,10.89,11.85c1.81,1.89,3.51,3.71,5,5.44a25.85,25.85,0,0,1,3.51,5.07,26.39,26.39,0,0,1,1.31,2.91,20.56,20.56,0,0,1,1.1,3.25,59.33,59.33,0,0,1,1.64,7.26c.77,4.92.75,10.15-1.32,14.69s-6.15,8.15-10.85,8.82a11.15,11.15,0,0,1-6.59-1,12.81,12.81,0,0,1-4.72-4.18,35.18,35.18,0,0,1-5.07-12,101.39,101.39,0,0,1-1.94-13l-16.22-.11C1209,231.19,1215.23,244.87,1226.78,251.54Z"/><path class="cls-2" d="M641,233.6h6.38c.34,0,33.68-.34,33.68-29.21,0-25.75-26.51-28.8-32.48-29.15,6-.36,32.48-3.4,32.48-29.16,0-28.87-33.34-29.2-33.68-29.2H631v.05H606.56v1.83h8v54.83h0v1.7h0v11.76a17.62,17.62,0,0,0-3,3,17,17,0,0,0-3.49,11,18.81,18.81,0,0,0,4.19,10.75,17.24,17.24,0,0,0,2.29,2.31v17.79h-10v1.82H641ZM631,118.76h6c10.75,0,20.86,6.16,24.9,16.12a26,26,0,0,1,1.92,9.76v2.89a25.94,25.94,0,0,1-2,9.87c-4.11,10-14.32,16.19-25.16,16.19H631Zm-16.86,91.48a16.53,16.53,0,0,1-3.85-9.36,15.65,15.65,0,0,1,4.3-11.41V210.7C614.44,210.54,614.28,210.41,614.14,210.24ZM631,218.76a20.11,20.11,0,0,0,2.42-.43,15.32,15.32,0,0,0,9.4-6.45,13.51,13.51,0,0,0,2.23-5.34,9.42,9.42,0,0,0-.89-5.71,4.93,4.93,0,0,0-4.69-3,6.36,6.36,0,0,0-4.68,2.82,6.41,6.41,0,0,1,4.69-2.28,4.16,4.16,0,0,1,3.77,2.92,8.81,8.81,0,0,1,.46,5,12.1,12.1,0,0,1-2.21,4.65,14.28,14.28,0,0,1-8.57,5.37,17.63,17.63,0,0,1-1.93.31V176.88h5.71c10.83,0,21,6.17,25.15,16.2a25.87,25.87,0,0,1,2,9.87v2.89c0,9.07-4.82,17.49-12.77,23a17.53,17.53,0,0,1-10,3h0v-.06H631Z"/><path class="cls-3" d="M901.77,231.84h-10V188.66l9.13-9.13c7.42,8.31,15,16.45,22.89,24.31,8.91,8.87,18,17.49,27.6,25.68a136,136,0,0,0,15.21,11.42c5.35,3.4,11.51,6.23,18.07,6.66,6.39.32,12.93-.45,18.72-3.24a26.83,26.83,0,0,0,12.93-13.31,26.22,26.22,0,0,1-13.43,12.18c-5.68,2.3-12,2.6-18,1.91s-11.35-3.7-16.25-7.29a130.69,130.69,0,0,1-14-12c-8.85-8.64-17.32-17.77-25.5-27.09-7.44-8.47-14.56-17.19-21.47-26.06l55.41-55.42L958,112.13l-66.22,66.22V118.82h10V117H865.29v1.82h10v113h-10v1.82h36.48Z"/><path class="cls-4" d="M701,232.75a14.38,14.38,0,0,1-13.74-17.6c.93-4,3.2-7.79,6.85-9.31a20.43,20.43,0,0,1,7.92-1.63v28.54a16.42,16.42,0,0,0,16.41-16.42v-9.05a52.17,52.17,0,0,1,10.69,6.13c6.81,5,12.8,11.35,19.54,17.34s14.41,11.67,23.21,15.48a78.09,78.09,0,0,0,27.79,6.17,65.24,65.24,0,0,0,14.61-1A45.05,45.05,0,0,0,829,246.19a32,32,0,0,0,12.07-12.34,37.12,37.12,0,0,0,4-16.4,27.69,27.69,0,0,1-17,.5,17.53,17.53,0,0,1-1.34,8.87,16.46,16.46,0,0,1-5.7,6.77c-5.42,3.82-13.41,5.75-21.38,6a66.39,66.39,0,0,1-24-3.31c-7.68-2.62-14.8-6.94-21.65-12.13S740.58,213,732.68,208.1a58.52,58.52,0,0,0-12.61-5.9c-.54-.15-1.09-.28-1.63-.42v-83h10V117H692v1.82h10v81.43a24.37,24.37,0,0,0-9.4,2.76,14.91,14.91,0,0,0-3,2.19,13.89,13.89,0,0,0-2.24,2.91,18.15,18.15,0,0,0-2.27,6.68A16.09,16.09,0,0,0,689,227.72,15.1,15.1,0,0,0,701,232.75Z"/><path class="cls-5" d="M757.59,134.74,769,181.69l-1.57-.87a22.57,22.57,0,0,1-9-9l-.88-1.6-.87,1.6a22.57,22.57,0,0,1-9,9l-1.6.88,1.6.88a22.57,22.57,0,0,1,9,9l.87,1.6.88-1.6a22.57,22.57,0,0,1,9-9l1.58-.87L777.66,217a13.05,13.05,0,0,0,16.41,0c-7.9-37.29-15.81-62.21-23.71-99.5H754l-19.57,79.93q3.27,2.1,6.39,4.29Z"/><path class="cls-6" d="M833.86,213.68c11.38,0,21.41-8.32,27.4-21H847.35c-3.05,11.3-8,18.66-13.49,18.66-9.28,0-16.8-20.55-16.8-45.89s7.52-45.89,16.8-45.89c5.54,0,10.44,7.36,13.49,18.66h13.91c-6-12.67-16-21-27.4-21-18.35,0-33.22,21.59-33.22,48.22S815.51,213.68,833.86,213.68Z"/><path class="cls-7" d="M1009.12,149.41c.81-7.59,2.24-20.95,12.19-27.89l0,0a17.42,17.42,0,0,1,9.95-3h26.25s-27,50.25-37.48,69.8a75.32,75.32,0,0,0-7.79,21.89c-1.56,8.53-.47,11.51-.47,11.51h0l7-9.27a43.66,43.66,0,0,1,4.48-4.34,44.91,44.91,0,0,1,7.24-5c1.25-.77,2.61-1.3,3.92-1.95,1.37-.49,2.71-1.08,4.12-1.45a42.35,42.35,0,0,1,17.35-1.58,43.09,43.09,0,0,1,8.66,1.83,48.32,48.32,0,0,1,8.32,3.33c-.13-.09-.28-.17-.41-.27l.41.1V159.59h-1.61c.24,2.7-.09,6.62-.1,11.35,0,12.59-7.87,19.05-15.29,22.6a22.8,22.8,0,0,1-8.89,2.13h0a42.82,42.82,0,0,0-9.12,1.66,38.91,38.91,0,0,0-12.71,6.63l3.75-5,44.22-80.47V116H1007.4v44.76H1009A58,58,0,0,1,1009.12,149.41Z"/><path class="cls-8" d="M622.64,243.8h-.09c-.27,0-.36.29-.65.8l-10.39,19.54a.55.55,0,0,0,.51.81h3.79c.54,0,.72-.18,1-.81l1.57-3.05h8.34l1.57,3.05c.33.63.51.81,1,.81h3.8a.54.54,0,0,0,.5-.81L623.29,244.6C623,244.09,622.9,243.8,622.64,243.8ZM620.06,257l2.52-5.11h.06l2.52,5.11Z"/><path class="cls-9" d="M650.5,244.18c-.62,0-.8.18-.8.8v10.45l-12.57-11.37a.82.82,0,0,0-.57-.26h-.3c-.2,0-.26.06-.26.26v20.08c0,.63.18.81.8.81H640c.63,0,.8-.18.8-.81V253.56l12.58,11.5a.84.84,0,0,0,.56.27h.3c.21,0,.27-.06.27-.27V245c0-.62-.18-.8-.8-.8Z"/><path class="cls-10" d="M659.8,244.18c-.62,0-.8.18-.8.8v19.16c0,.63.18.81.8.81h7.59a10.39,10.39,0,1,0,0-20.77Zm13.35,10.39c0,3.23-2,6.37-5.79,6.37h-3.53V248.19h3.53C671.16,248.19,673.15,251.27,673.15,254.57Z"/><path class="cls-11" d="M694.55,265h3.24c.62,0,.8-.18.8-.81V248.48h5.84c.62,0,.8-.18.8-.8V245c0-.62-.18-.8-.8-.8H687.91c-.63,0-.8.18-.8.8v2.7c0,.62.17.8.8.8h5.84v15.66C693.75,264.77,693.93,265,694.55,265Z"/><path class="cls-12" d="M711.8,244.18h-3.24c-.62,0-.8.18-.8.8v19.16c0,.63.18.81.8.81h3.24c.62,0,.8-.18.8-.81v-7.38H721v7.38c0,.63.18.81.8.81H725c.62,0,.8-.18.8-.81V245c0-.62-.18-.8-.8-.8h-3.24c-.62,0-.8.18-.8.8v7.6H712.6V245C712.6,244.36,712.42,244.18,711.8,244.18Z"/><path class="cls-13" d="M744.53,248.28c.62,0,.8-.18.8-.81V245c0-.62-.18-.8-.8-.8H731.06c-.62,0-.8.18-.8.8v19.16c0,.63.18.81.8.81h13.47c.62,0,.8-.18.8-.81v-2.49c0-.62-.18-.8-.8-.8h-9.44v-4.3h9c.62,0,.8-.18.8-.8v-2.49c0-.62-.18-.8-.8-.8h-9v-4.18Z"/><path class="cls-14" d="M1082.54,204.79c2-1.36,12.72-8,26-4.45a32.62,32.62,0,0,1,19.27,14.82l1-.56h.36v-.21l.62-.36c-.16-.28-.38-.63-.62-1V171.07h-1.62a58.65,58.65,0,0,1-.1,11.36c-.62,5.72-1.64,14.68-6.34,21.74a32.83,32.83,0,0,0-24.3-6.91V161.42h21.91v-2.48h-21.91V118.48h8.46a17.42,17.42,0,0,1,10,3l0,0c9.94,6.94,11.37,20.3,12.19,27.89a58.64,58.64,0,0,1,.1,11.36h1.62V118.48h7.11V227.13a27.72,27.72,0,0,0,27.72,27.73h0a27.72,27.72,0,0,0,27.72-27.73V118.48h10.16V116H1167v2.47h9.83v121c0,5.74-7.14,10.41-12.88,10.41s-12.88-4.67-12.88-10.41v-121h9.5V116h-78.65v86.48l-.64.42Z"/><path class="cls-15" d="M947.68,278.38a23.16,23.16,0,0,1,7.91,3.47c9.95,6.95,11.38,20.31,12.19,27.9a57.88,57.88,0,0,1,.11,11.35h1.61V278.38h0v-1.61H897v.81h0V321.1h1.61a59.51,59.51,0,0,1,.11-11.35c.82-7.59,2.25-20.95,12.19-27.9a23.33,23.33,0,0,1,7.92-3.47H926v99.95h-8.87v1.61h32.24v-1.61h-8.86V278.38Z"/><path class="cls-16" d="M1130.25,398.56l-.1,0-.2,0-.39-.08-.79-.16-1.55-.41a28,28,0,0,1-3-1.11,22.93,22.93,0,0,1-5.17-3.22c-2.42-2-5.15-6.69-6.14-8.49-.38-.68-.77-1.36-1.17-2l-35-58.67-.19.11,40-51a76.05,76.05,0,0,0,6.74-12,59.27,59.27,0,0,0,4-13.23,41.48,41.48,0,0,0,.19-13.84,30.47,30.47,0,0,0-5.24-12.8,38.54,38.54,0,0,0-10-9.39,28.31,28.31,0,0,0-6.15-3.08,20.85,20.85,0,0,0-6.76-1.3,18.36,18.36,0,0,0-12.64,4.55,28.59,28.59,0,0,0-7.71,11,28.44,28.44,0,0,1,8-10.73,17.87,17.87,0,0,1,12.36-4.06,19.77,19.77,0,0,1,6.43,1.45,27.14,27.14,0,0,1,5.84,3.13,37.72,37.72,0,0,1,9.37,9.32,28.74,28.74,0,0,1,4.56,12.18,39.47,39.47,0,0,1-.57,13.09,57.38,57.38,0,0,1-4.2,12.51,74.18,74.18,0,0,1-6.81,11.35l-52.35,62.7V278.44h8.86v-1.61h-32.24v1.61h8.87v99.89h-8.87v1.61h32.24v-1.61h-8.86V343.46l8.68-11.06,32.09,53.82a27.34,27.34,0,0,0,13.9,12.1,27.82,27.82,0,0,0,7,1.75,32.12,32.12,0,0,0,3.52.16l1.74-.09.85-.11.43,0,.21,0,.11,0h0l5-.58v-.3l-5-.49Z"/><polygon class="cls-17" points="717.22 378.33 708.36 378.33 708.36 278.44 717.22 278.44 717.22 276.83 684.98 276.83 684.98 278.44 693.85 278.44 693.85 378.33 684.98 378.33 684.98 379.94 717.22 379.94 717.22 378.33"/><polygon class="cls-18" points="1003.36 277.58 995.29 277.58 988.85 277.58 968.06 378.33 958.22 378.33 958.22 379.94 984.01 379.94 984.01 378.33 974.51 378.33 992.07 293.2 1009.64 378.33 1000.94 378.33 1000.94 379.94 1033.18 379.94 1033.18 378.33 1024.14 378.33 1003.36 277.58"/><path class="cls-19" d="M1117,278.38h8.87v99.95H1117v1.61h66.9v-1.61h0V335.61h-1.61a58.69,58.69,0,0,1-.11,11.35c-.81,7.59-2.24,21-12.19,27.9l-.81.54a19.61,19.61,0,0,1-10.44,2.93h-18.36V330h29v-1.61h-29v-50h18.36a19.61,19.61,0,0,1,10.44,2.93l.81.54c10,6.95,11.38,20.31,12.19,27.9a58.68,58.68,0,0,1,.11,11.35h1.61V278.38h0v-1.61H1117Z"/><path class="cls-20" d="M838.3,407.63a36.82,36.82,0,0,0-6.54-6.77,66.36,66.36,0,0,0-34.23-14.12,87,87,0,0,0-18.68.28c-12.4,1.43-24.39,4.84-36.4,7.83s-24.24,5.83-36.59,4.81A43.05,43.05,0,0,1,689,394.9a23,23,0,0,1-4.44-3.46c-2.21-2.23-4.46-7.17-5.27-9.05-.31-.72-.63-1.43-1-2.14L657,334.86c8.76-2.6,20.63-9.57,20.63-28.27,0-29.48-29.52-29.82-29.82-29.82H611.68v1.61h7.1v13.68a24.79,24.79,0,0,0-8.54,6.71,25,25,0,0,0-5.67,14.41,22.94,22.94,0,0,0,4.72,14.67,24.94,24.94,0,0,0,9.49,7.5v43h-8.87v1.61h32.24v-1.61h-8.87V336.42H647l19,40.35c2,4.19,7.62,13.6,11.19,16.55,4.6,3.81,10.85,8.33,30.66,9.7a83.93,83.93,0,0,0,17.08-.36c6.35-.71,12.54-2,18.65-3.31,12.22-2.55,24.08-5.77,35.91-6.83a86.19,86.19,0,0,1,17.44-.07,64.51,64.51,0,0,1,31.21,12.85,30.7,30.7,0,0,1,5.56,5.62,13.21,13.21,0,0,1,1,1.44c.29.48.62,1.16.9,1.74a38.53,38.53,0,0,1,1.5,3.72c1.73,5.05,2,10.29-.07,14.47a21.25,21.25,0,0,1-10.87,10.09,14.79,14.79,0,0,1-7.17,1,17.84,17.84,0,0,1-7.07-2.63,14.51,14.51,0,0,1-5.18-5.36,11,11,0,0,1-1.08-7.15,13.14,13.14,0,0,1,3.31-7,11.43,11.43,0,0,1,7.05-3.46,8.94,8.94,0,0,1,7.57,2.08c2,1.85,2.94,5,2.74,8l.58.09a11,11,0,0,0-2.3-9,9.29,9.29,0,0,0-4-2.58,12.82,12.82,0,0,0-4.72-.54,13.75,13.75,0,0,0-8.64,3.55,16,16,0,0,0-4.63,8.15,14.25,14.25,0,0,0,.89,9.32,18.21,18.21,0,0,0,6.11,7.14,21.43,21.43,0,0,0,8.67,3.65,19.29,19.29,0,0,0,9.38-.84,25.48,25.48,0,0,0,14-12.15,20.75,20.75,0,0,0,2.21-9.17,30,30,0,0,0-1.46-9.31A30.77,30.77,0,0,0,838.3,407.63ZM618.78,333a22.92,22.92,0,0,1-7.38-6.67,20.5,20.5,0,0,1-3.79-13,22.17,22.17,0,0,1,5.11-12.54,22.68,22.68,0,0,1,6.06-5.13Zm16.34,1.83h-1.84V292.09a24.31,24.31,0,0,1,4.59.57,21.66,21.66,0,0,1,6.4,2.53,18.57,18.57,0,0,1,5,4.69,16.5,16.5,0,0,1,3,6.2,11.68,11.68,0,0,1-.6,6.75,6.79,6.79,0,0,1-1.92,2.77,5,5,0,0,1-3.13,1.14,8.58,8.58,0,0,1-6.28-3.05,8.54,8.54,0,0,0,6.27,3.78,5.91,5.91,0,0,0,3.77-1.05,8,8,0,0,0,2.51-3,12.72,12.72,0,0,0,1.2-7.65,17.94,17.94,0,0,0-3-7.17,20.92,20.92,0,0,0-5.48-5.54,22.51,22.51,0,0,0-7.14-3.12,28.2,28.2,0,0,0-5.25-.78V278.38h1.84c14.3,0,26.49,11.05,27.15,25.33q0,.71,0,1.41v2.95c0,.47,0,.94,0,1.4C661.61,323.76,649.42,334.8,635.12,334.8Z"/><path class="cls-21" d="M1065.49,256.39a27.74,27.74,0,0,0,6-9,31.16,31.16,0,0,0,2.14-10.55,25.18,25.18,0,0,0-1.85-10.62,18.54,18.54,0,0,0-7-8.25,22.49,22.49,0,0,0-10.13-3.46,22.93,22.93,0,0,0-10.57,1.31,16.23,16.23,0,0,0-8.29,6.62,18.84,18.84,0,0,0-2.66,10.23,12.38,12.38,0,0,0,4.3,9.48,10.91,10.91,0,0,0,10,2.14,8.41,8.41,0,0,0,4.35-2.93,8.72,8.72,0,0,0,1.71-4.93,6,6,0,0,0-2.1-4.67,7.83,7.83,0,0,0-4.84-1.76,7.82,7.82,0,0,1,4.77,1.83,5.9,5.9,0,0,1,2,4.6,8.52,8.52,0,0,1-1.75,4.75,8.11,8.11,0,0,1-4.23,2.73,10.39,10.39,0,0,1-9.54-2.23,11.63,11.63,0,0,1-3.88-9,17.89,17.89,0,0,1,2.7-9.68,15.22,15.22,0,0,1,7.86-6,21.61,21.61,0,0,1,10-1,20.83,20.83,0,0,1,9.39,3.41,16.79,16.79,0,0,1,6.18,7.6,23.48,23.48,0,0,1,1.51,9.84,29.22,29.22,0,0,1-2.18,9.79,25.43,25.43,0,0,1-5.66,8.14c-4.81,4.69-11.18,7.56-17.67,9.62-3.26,1-6.6,1.86-10,2.59-1.69.35-3.39.74-5.09,1l-5.07.75-2.54.38c-.85.06-1.7.08-2.55.12l-5.11.23c-1.7-.05-3.4-.19-5.1-.27l-2.54-.16-2.52-.39a90.22,90.22,0,0,1-19.76-5.29c-12.86-4.76-25.33-11.59-39.43-14.69a45,45,0,0,0-5.3-1,43.79,43.79,0,0,0-5.36-.64l-5.42-.27c-1.8,0-3.6.18-5.4.27a75.44,75.44,0,0,0-21.11,4.35c-13.15,4.62-24.93,12.32-35.31,21.31l-.08-.09-58.54,58.53V278.44h8.87v-1.61H786.54v1.61h8.87v99.89h-8.87v1.61h32.24v-1.61h-8.87V340.17l6.68-6.68L848,386.22a28.65,28.65,0,0,0,9.49,9.9,28,28,0,0,0,3.12,1.62,29.88,29.88,0,0,0,9.05,3.06,25.87,25.87,0,0,0,10.15-.38,32.12,32.12,0,0,0,16.77-10.31,25.61,25.61,0,0,0,6.4-18.46,21.8,21.8,0,0,0-19-20,21.29,21.29,0,0,0-4.92-.06,18.79,18.79,0,0,0-4.78,1.29,17.51,17.51,0,0,0-7.49,6.18,17,17,0,0,0-3,9.16,13.68,13.68,0,0,0,11,14,10.82,10.82,0,0,0,4.77-.06,10.1,10.1,0,0,0,4.09-2.38,16.16,16.16,0,0,0,4.47-8.15,15.89,15.89,0,0,1-4.68,7.92,9.67,9.67,0,0,1-4,2.17,10.5,10.5,0,0,1-4.53-.09,12.92,12.92,0,0,1-7.46-4.88,12.45,12.45,0,0,1-2.46-8.46A15.78,15.78,0,0,1,875,354.53a17,17,0,0,1,4.28-1,19.4,19.4,0,0,1,4.43.21,19.68,19.68,0,0,1,8.14,3.29A19.29,19.29,0,0,1,900,371.85a22.27,22.27,0,0,1-6.11,15.87A28.18,28.18,0,0,1,879,396.28a21.57,21.57,0,0,1-11.32-.71,23.11,23.11,0,0,1-3-2.05c-2.43-2-5.15-6.69-6.14-8.49-.38-.68-.77-1.36-1.17-2l-33.69-56.56,48.13-48.13c10-9.18,21.35-17,34-21.71a70.11,70.11,0,0,1,19.61-4.43c1.68-.11,3.35-.3,5-.35l5,.16a38.47,38.47,0,0,1,5,.5,40.23,40.23,0,0,1,5,.82c13.32,2.62,25.75,9.08,39.07,13.75a93.71,93.71,0,0,0,20.64,5.09l2.65.36,2.68.12c1.78.05,3.56.16,5.34.18l5.33-.34c.89-.06,1.77-.1,2.66-.18l2.63-.44,5.25-.88c1.73-.32,3.42-.74,5.14-1.13,3.41-.81,6.83-1.72,10.19-2.86C1053.67,264.7,1060.35,261.58,1065.49,256.39Z"/><path class="cls-22" d="M1000.58,345.84a20,20,0,0,1-8-7.95l-.78-1.42-.77,1.42a20.13,20.13,0,0,1-8,7.95l-1.42.77,1.42.78a20,20,0,0,1,8,7.95l.77,1.41.78-1.41a19.88,19.88,0,0,1,8-7.95l1.41-.78Z"/><path class="cls-23" d="M741.91,380.39a30.5,30.5,0,0,0,16,.13,30.17,30.17,0,0,0,13.39-6.91,27,27,0,0,0,7.92-13.74,32.06,32.06,0,0,0,.86-8.13c0-.7-.07-1.39-.15-2.12l-.07-.58-.12-.62-.23-1.09a20.77,20.77,0,0,0-1.54-4.42,29.32,29.32,0,0,0-5.2-7.18c-1.83-1.94-3.65-3.57-5.48-5.17-3.64-3.11-7.27-6-10.89-8.88L745.63,313c-1.75-1.44-3.45-2.89-5-4.26a31.44,31.44,0,0,1-3.8-3.78,9.21,9.21,0,0,1-1-1.7,13.19,13.19,0,0,1-.75-2.32,22.55,22.55,0,0,1-.64-5.48,17.09,17.09,0,0,1,3.85-11.26,15.84,15.84,0,0,1,11.65-5.21,17.16,17.16,0,0,1,12,4.64,33.26,33.26,0,0,1,4,4.5,29.45,29.45,0,0,1,3,4.87A37.11,37.11,0,0,1,772,303.79l11.54-.94a29.56,29.56,0,0,0-5.41-15.61,28.18,28.18,0,0,0-5.78-6,23.1,23.1,0,0,0-7.36-3.67,27,27,0,0,0-7.84-1.11c-2.51,0-4.95,0-7.39.2A28.55,28.55,0,0,0,735.58,281a25.38,25.38,0,0,0-10.18,12.45,23.75,23.75,0,0,0-1.5,8.47,20.64,20.64,0,0,0,.49,4.57,19.65,19.65,0,0,0,1.72,4.74,32.62,32.62,0,0,0,5.17,7c1.78,1.9,3.59,3.55,5.38,5.17,3.57,3.2,7.18,6.2,10.82,9.23s7.34,5.95,10.95,8.75c1.78,1.38,3.57,2.74,5.13,4a23.91,23.91,0,0,1,3.68,3.62,15,15,0,0,1,1.26,2l.3.58a1,1,0,0,0,.13.22l.13.28c.17.41.33.86.5,1.32a30.83,30.83,0,0,1,1.46,5.86c.6,4,0,8.33-2.6,11.68a15.22,15.22,0,0,1-11.15,5.64A15.52,15.52,0,0,1,746,372.45a23.36,23.36,0,0,1-3.69-4.38,27.34,27.34,0,0,1-2.51-4.73,37,37,0,0,1-2.33-9.7l-14.51-.14a25.46,25.46,0,0,0,5,17A27.09,27.09,0,0,0,741.91,380.39Z"/><path class="cls-24" d="M1315.37,370.13a21.77,21.77,0,0,0-19-20,21.38,21.38,0,0,0-4.93-.07,18.72,18.72,0,0,0-4.77,1.29,17.55,17.55,0,0,0-7.5,6.18,17.06,17.06,0,0,0-3,9.17,13.64,13.64,0,0,0,11,14,10.77,10.77,0,0,0,4.76-.06,10,10,0,0,0,4.09-2.38,16.15,16.15,0,0,0,4.48-8.14,16,16,0,0,1-4.68,7.91,9.56,9.56,0,0,1-4,2.17,10.35,10.35,0,0,1-4.53-.09,12.89,12.89,0,0,1-7.47-4.88,12.49,12.49,0,0,1-2.46-8.46,15.79,15.79,0,0,1,9.94-13.72,16.34,16.34,0,0,1,4.29-1,19.28,19.28,0,0,1,4.42.2,19.63,19.63,0,0,1,8.14,3.29,19.33,19.33,0,0,1,8.15,14.83,22.27,22.27,0,0,1-6.11,15.87,28.1,28.1,0,0,1-14.94,8.56,21.72,21.72,0,0,1-12.35-1.06,9.81,9.81,0,0,1-3.53-2.23l0,0c-2.21-2.23-4.46-7.17-5.27-9.05-.31-.72-.64-1.43-1-2.14l-21.3-45.39c8.77-2.6,20.64-9.57,20.64-28.27,0-29.48-29.52-29.82-29.82-29.82h-36.11v1.61h7.09v13a25.42,25.42,0,0,0-10.14,7.43,25.1,25.1,0,0,0-5.66,14.41,23,23,0,0,0,4.71,14.67,25.06,25.06,0,0,0,11.09,8.17v42.31h-8.86v1.61h32.24v-1.61h-8.87V336.42h13.74l21.67,46.12a28.67,28.67,0,0,0,8.47,10.78,27.76,27.76,0,0,0,4.17,2.63c.8.41,1.62.76,2.45,1.09a29.86,29.86,0,0,0,7.38,2.24,25.88,25.88,0,0,0,10.15-.39A32,32,0,0,0,1309,388.58,25.54,25.54,0,0,0,1315.37,370.13Zm-105.7-36.31a23.25,23.25,0,0,1-9-7.52,20.5,20.5,0,0,1-3.79-13,22.17,22.17,0,0,1,5.11-12.54,23,23,0,0,1,7.65-6Zm16.35,1h-1.84V292.19a23,23,0,0,1,3,.47,21.66,21.66,0,0,1,6.4,2.53,18.57,18.57,0,0,1,5,4.69,16.5,16.5,0,0,1,3,6.2,11.68,11.68,0,0,1-.6,6.75,6.79,6.79,0,0,1-1.92,2.77,5.07,5.07,0,0,1-3.13,1.14,8.56,8.56,0,0,1-6.28-3.05,8.53,8.53,0,0,0,6.27,3.78,5.86,5.86,0,0,0,3.76-1.05,8,8,0,0,0,2.52-3,12.72,12.72,0,0,0,1.2-7.65,17.94,17.94,0,0,0-3-7.17A20.92,20.92,0,0,0,1235,293a22.51,22.51,0,0,0-7.14-3.12,28.18,28.18,0,0,0-3.65-.65V278.38H1226c14.3,0,26.49,11.05,27.15,25.33q0,.71,0,1.41v2.95c0,.47,0,.94,0,1.4C1252.51,323.76,1240.32,334.8,1226,334.8Z"/></svg>