<svg id="Layer_1" data-name="Layer 1" xmlns="http://www.w3.org/2000/svg" viewBox="0 0 1920 540"><path d="M209.84,238.86c0-1.52.47-2,2-2h7.47c1.52,0,2,.47,2,2v26.31h32V238.86c0-1.52.48-2,2-2h7.48c1.51,0,2,.47,2,2v62.28c0,1.52-.48,2-2,2h-7.48c-1.51,0-2-.47-2-2v-26h-32v26c0,1.52-.47,2-2,2h-7.47c-1.52,0-2-.47-2-2Z"/><path d="M306.1,237.34c.75-1.13.94-1.89,1.6-1.89H308c.76,0,.95.76,1.7,1.89l32,63.8a1.33,1.33,0,0,1-1.24,2h-8.8c-1.32,0-1.89-.47-2.65-2l-6.15-13H292.94l-6.15,13c-.86,1.52-1.24,2-2.66,2h-8.8a1.33,1.33,0,0,1-1.23-2ZM319,278.42l-11-23.56h-.19l-10.89,23.56Z"/><path d="M350.86,236.49c0-.66.19-.85.85-.85h.66a2,2,0,0,1,1.52.76L396,280.79V238.86c0-1.61.47-2,2-2h7.48c1.51,0,2,.38,2,2v64.65c0,.66-.19.85-.85.85H406a2.5,2.5,0,0,1-1.61-.76l-42-44.86v42.4c0,1.52-.56,2-2.08,2h-7.38c-1.52,0-2-.47-2-2Z"/><path d="M424.11,238.86c0-1.52.48-2,2-2h23.76c18.65,0,33.51,14.29,33.51,33.13s-14.86,33.13-33.51,33.13H426.1c-1.51,0-2-.47-2-2Zm25.66,54.71c13.72,0,22-11.26,22-23.57s-8.24-23.57-22-23.57h-14.2v47.14Z"/><path d="M519.8,238.86c0-1.52.48-2,2-2h7.48c1.51,0,2,.47,2,2v54.43H560.6c1.51,0,2,.47,2,2.08v5.77c0,1.52-.48,2-2,2H521.79c-1.51,0-2-.47-2-2Z"/><path d="M573.75,238.86c0-1.52.47-2,2-2h42.5c1.61,0,2.08.47,2.08,2v5.77c0,1.52-.47,2-2.08,2h-33v18.17h31.62c1.61,0,2.08.48,2.08,2.09v5.77c0,1.52-.47,2-2.08,2H585.2v18.65h33c1.61,0,2.08.47,2.08,2.08v5.77c0,1.52-.47,2-2.08,2h-42.5c-1.61,0-2-.47-2-2Z"/><path d="M649.56,247.09H628.83c-1.51,0-2-.47-2-2v-6.25c0-1.52.48-2,2-2h52.82c1.61,0,2,.47,2,2v6.25c0,1.61-.48,2-2,2H661v54c0,1.52-.48,2-2.09,2h-7.38c-1.61,0-2-.47-2-2Z"/><path d="M709.19,247.09H688.46c-1.51,0-2-.47-2-2v-6.25c0-1.52.48-2,2-2h52.82c1.61,0,2,.47,2,2v6.25c0,1.61-.47,2-2,2H720.64v54c0,1.52-.47,2-2.08,2h-7.38c-1.61,0-2-.47-2-2Z"/><path d="M752.35,238.86c0-1.52.47-2,2-2h42.5c1.61,0,2.09.47,2.09,2v5.77c0,1.52-.48,2-2.09,2h-33v18.17h31.61c1.61,0,2.09.48,2.09,2.09v5.77c0,1.52-.48,2-2.09,2H763.8v18.65h33c1.61,0,2.09.47,2.09,2.08v5.77c0,1.52-.48,2-2.09,2h-42.5c-1.61,0-2-.47-2-2Z"/><path d="M812.73,238.86c0-1.52.47-2,2-2h23.09c10.79,0,23.57,4.54,23.57,19.88,0,10.88-6.15,16.66-14.39,19l17,24.8c1,1.8-.1,2.56-1.71,2.56h-7a3.91,3.91,0,0,1-3.5-2l-16.38-24.23H824.18v24.23c0,1.52-.47,2-2,2h-7.47c-1.52,0-2-.38-2-2Zm11.45,28.49h13.16c9,0,13-3.88,13-10.6,0-7.19-4.83-10.32-13-10.32H824.18Z"/><path d="M877.75,303.13c-1.51,0-2-.47-2-2V238.86c0-1.52.48-2,2-2h7.48c1.61,0,2,.47,2,2v62.28c0,1.52-.48,2-2,2Z"/><path d="M904.06,236.49c0-.66.19-.85.85-.85h.67a2,2,0,0,1,1.51.76l42.12,44.39V238.86c0-1.61.48-2,2-2h7.48c1.51,0,2,.38,2,2v64.65c0,.66-.19.85-.86.85h-.66a2.5,2.5,0,0,1-1.61-.76l-42-44.86v42.4c0,1.52-.57,2-2.09,2h-7.38c-1.51,0-2-.47-2-2Z"/><path d="M1007.23,269.53c0-1.61.47-2,2-2h23.1c1.51,0,2,.47,2,2V291a4.27,4.27,0,0,1-1.52,3.41c-6.24,6.15-16.18,9.94-25.46,9.94-18.65,0-33.88-15.52-33.88-34.36s15.23-34.36,33.88-34.36a37,37,0,0,1,24.8,9.75c1.14,1.14.76,1.7-.28,2.84l-4.36,4.73a2.09,2.09,0,0,1-1.42.95,1.94,1.94,0,0,1-1.42-.76,24.39,24.39,0,0,0-17.32-7.48C994.07,245.67,985,257.6,985,270c0,12.21,9.09,24.33,22.34,24.33a25.34,25.34,0,0,0,15.52-5.3V277.29h-13.63c-1.51,0-2-.38-2-2Z"/><path d="M1144.75,312.5c-1.61,0-2-.47-2-2v-81c0-1.52.38-2,2-2h5c1.61,0,2,.47,2,2v81c0,1.52-.38,2-2,2Z"/><path d="M1287.48,237.34c.75-1.13.94-1.89,1.6-1.89h.29c.76,0,1,.76,1.7,1.89l32,63.8a1.33,1.33,0,0,1-1.24,2H1313c-1.32,0-1.89-.47-2.65-2l-6.15-13h-29.91l-6.15,13c-.86,1.52-1.23,2-2.65,2h-8.81a1.33,1.33,0,0,1-1.23-2Zm12.87,41.08-11-23.56h-.19l-10.89,23.56Z"/><path d="M1386.86,291.68c1,1.23,1.23,1.79.09,2.93-6.06,6-15.62,9.75-24.8,9.75-18.65,0-34-15.52-34-34.36s15.33-34.36,34-34.36c9.18,0,18.74,3.79,24.8,9.75,1,1,.85,1.61-.19,2.84l-4.35,4.73c-.57.57-1,.95-1.52.95s-.75-.19-1.32-.76a23.48,23.48,0,0,0-17.42-7.48c-13.25,0-22.43,11.93-22.43,24.33s9.18,24.33,22.43,24.33a23.54,23.54,0,0,0,17.51-7.58A2.18,2.18,0,0,1,1381,286c.47,0,.94.38,1.51.94Z"/><path d="M1399.63,238.86c0-1.52.47-2,2-2h7.47c1.52,0,2,.47,2,2v26.31h32V238.86c0-1.52.48-2,2-2h7.48c1.51,0,2,.47,2,2v62.28c0,1.52-.48,2-2,2h-7.48c-1.51,0-2-.47-2-2v-26h-32v26c0,1.52-.47,2-2,2h-7.47c-1.52,0-2-.47-2-2Z"/><path d="M1471.08,238.86c0-1.52.48-2,2-2h42.5c1.61,0,2.08.47,2.08,2v5.77c0,1.52-.47,2-2.08,2h-33v18.17h31.61c1.61,0,2.08.48,2.08,2.09v5.77c0,1.52-.47,2-2.08,2h-31.61v18.65h33c1.61,0,2.08.47,2.08,2.08v5.77c0,1.52-.47,2-2.08,2h-42.5c-1.61,0-2-.47-2-2Z"/><path d="M1531.47,238.86c0-1.52.47-2,2-2h23.09c10.79,0,23.57,4.54,23.57,19.88,0,10.88-6.15,16.66-14.39,19l17,24.8c1,1.8-.1,2.56-1.71,2.56h-7a3.91,3.91,0,0,1-3.5-2l-16.38-24.23h-11.17v24.23c0,1.52-.47,2-2,2h-7.47c-1.52,0-2-.38-2-2Zm11.45,28.49h13.16c9,0,13-3.88,13-10.6,0-7.19-4.83-10.32-13-10.32h-13.16Z"/><path d="M1592.51,238.86c0-1.61.48-2,2-2h7.39c1.6,0,2.08.47,2.08,2V275.4c0,13,6.06,18.93,16.28,18.93s16.28-6,16.28-18.93V238.86c0-1.52.47-2,2-2h7.38c1.61,0,2.08.47,2.08,2v37c0,18.83-12.3,28.49-27.73,28.49s-27.74-9.66-27.74-28.49Z"/><path d="M1662.36,289.4c.48-.94.85-1.42,1.52-1.42a2.9,2.9,0,0,1,1.23.48,36.12,36.12,0,0,0,19.59,5.68c8.24,0,14.39-2.46,14.39-9.47,0-6.81-6.34-8.71-16.94-10-10.32-1.33-22.06-4.92-22.06-18.08,0-8.14,6.06-20.73,24.42-20.73,9.75,0,16,2.74,23.29,7.19,1.32.76,1.13,1.52.47,2.75l-2.84,4.73c-.47.85-1,1.42-1.61,1.42a2.65,2.65,0,0,1-1.13-.47c-6.06-4.07-11.08-5.59-17.23-5.59-11.83,0-14.29,5.68-14.29,10.32,0,6.34,6.72,7.76,16.37,9,11.55,1.33,22.62,5,22.62,18.93,0,10.42-8.23,20.07-24.51,20.07-10.22,0-18.65-2.37-25.65-7.19-1.33-.86-1.23-1.52-.48-2.84Z"/></svg>